<?xml version="1.0"?>
<svg width="577" height="637" version="1.1" xmlns="http://www.w3.org/2000/svg" xmlns:xlink="http://www.w3.org/1999/xlink">
  <defs>
  <style type="text/css">
    <![CDATA[
      .b {stroke:rgb(0,0,0);stroke-width:1.592500;fill:none}
      .c {stroke:rgb(128,128,128);stroke-width:0.796250;stroke-dasharray:2.885000, 2.885000;}
      .h {stroke:rgb(240,200,0);stroke-width:1.592500;}
      .m {stroke:rgb(255,0,0);stroke-width:0.796250;}
      .n {stroke:rgb(128,128,128);stroke-width:0.796250}
      .t {stroke:rgb(0,128,0);stroke-width:0.796250;}
      .tab {stroke:rgb(0,0,255);stroke-width:0.398125;fill:none}
      .v {stroke:rgb(0,0,255);stroke-width:0.796250;}
      .z {stroke:rgb(0,240,200);stroke-width:0.398125;}
    ]]>
  </style>
  </defs>
  <path fill="none" class="b" d=" M 434.137 199.909 L 441.19 174.977 L 565.846 210.243 L 558.794 235.175 L 551.741 260.107 L 544.688 285.039 L 569.62 292.092 L 562.567 317.024 L 537.635 309.971 L 412.977 274.703 L 420.03 249.772 L 427.083 224.84 L 302.426 189.574 L 267.16 314.23 L 292.09 321.285 L 256.825 445.941 L 231.893 438.888 L 224.84 463.82 L 189.573 588.478 L 182.52 613.409 L 157.588 606.356 L 132.656 599.303 L 8 564.035 L 15.0533 539.104 L 139.709 574.372 L 164.641 581.425 L 199.908 456.767 L 206.961 431.835 L 182.029 424.782 L 217.296 300.125 L 242.228 307.178 L 277.494 182.521 L 284.548 157.589 L 319.814 32.9314 L 326.867 8 L 351.799 15.0533 L 344.746 39.9848 L 309.479 164.642 L 434.137 199.909" />
  <path class="c" d=" M 139.709 574.372 L 132.656 599.303 M 132.656 599.303 L 139.709 574.372 M 139.709 574.372 L 8 564.035 M 8 564.035 L 139.709 574.372 M 132.656 599.303 L 164.641 581.425 M 164.641 581.425 L 132.656 599.303 M 157.588 606.356 L 164.641 581.425 M 164.641 581.425 L 182.52 613.409 M 182.52 613.409 L 164.641 581.425 M 164.641 581.425 L 157.588 606.356 M 164.641 581.425 L 189.573 588.478 M 189.573 588.478 L 199.908 456.767 M 199.908 456.767 L 189.573 588.478 M 189.573 588.478 L 164.641 581.425 M 199.908 456.767 L 224.84 463.82 M 224.84 463.82 L 206.961 431.835 M 206.961 431.835 L 242.228 307.178 M 242.228 307.178 L 206.961 431.835 M 206.961 431.835 L 217.296 300.125 M 217.296 300.125 L 206.961 431.835 M 206.961 431.835 L 224.84 463.82 M 224.84 463.82 L 199.908 456.767 M 206.961 431.835 L 231.893 438.888 M 231.893 438.888 L 242.228 307.178 M 242.228 307.178 L 231.893 438.888 M 231.893 438.888 L 267.16 314.23 M 267.16 314.23 L 256.825 445.941 M 256.825 445.941 L 267.16 314.23 M 267.16 314.23 L 277.494 182.521 M 277.494 182.521 L 267.16 314.23 M 267.16 314.23 L 242.228 307.178 M 242.228 307.178 L 267.16 314.23 M 267.16 314.23 L 231.893 438.888 M 231.893 438.888 L 206.961 431.835 M 277.494 182.521 L 302.426 189.574 M 302.426 189.574 L 309.479 164.642 M 309.479 164.642 L 302.426 189.574 M 302.426 189.574 L 434.137 199.909 M 434.137 199.909 L 558.794 235.175 M 558.794 235.175 L 434.137 199.909 M 434.137 199.909 L 427.083 224.84 M 427.083 224.84 L 434.137 199.909 M 434.137 199.909 L 302.426 189.574 M 302.426 189.574 L 284.548 157.589 M 284.548 157.589 L 309.479 164.642 M 309.479 164.642 L 284.548 157.589 M 284.548 157.589 L 302.426 189.574 M 302.426 189.574 L 277.494 182.521 M 309.479 164.642 L 319.814 32.9314 M 319.814 32.9314 L 309.479 164.642 M 434.137 199.909 L 565.846 210.243 M 565.846 210.243 L 434.137 199.909 M 427.083 224.84 L 551.741 260.107 M 551.741 260.107 L 427.083 224.84 M 427.083 224.84 L 558.794 235.175 M 558.794 235.175 L 427.083 224.84 M 420.03 249.772 L 544.688 285.039 M 544.688 285.039 L 420.03 249.772 M 420.03 249.772 L 551.741 260.107 M 551.741 260.107 L 420.03 249.772 M 412.977 274.703 L 544.688 285.039 M 544.688 285.039 L 412.977 274.703 M 537.635 309.971 L 569.62 292.092 M 569.62 292.092 L 537.635 309.971 M 537.635 309.971 L 544.688 285.039 M 544.688 285.039 L 537.635 309.971 M 344.746 39.9848 L 326.867 8 M 326.867 8 L 344.746 39.9848 M 344.746 39.9848 L 319.814 32.9314 M 319.814 32.9314 L 344.746 39.9848" />
  <path class="h" d=" M 432.373 206.142 L 428.847 218.607 M 428.847 218.607 L 432.373 206.142 M 260.927 312.467 L 248.461 308.941 M 248.461 308.941 L 260.927 312.467" />
  <path class="z" fill="none" d=" M 434.137 199.909 L 441.19 174.977 M 420.03 249.772 L 427.083 224.84 L 302.426 189.574 L 267.16 314.23 L 292.09 321.285 L 256.825 445.941 L 231.893 438.888 L 224.84 463.82 L 189.573 588.478 M 8 564.035 L 15.0533 539.104 L 139.709 574.372 L 164.641 581.425 L 199.908 456.767 L 206.961 431.835 L 182.029 424.782 L 217.296 300.125 L 242.228 307.178 L 277.494 182.521 L 284.548 157.589 M 351.799 15.0533 L 344.746 39.9848 L 309.479 164.642 L 434.137 199.909" />
  <path class="z" d=" M 300.983 188.131 L 303.868 188.131 L 303.868 191.016 L 300.983 191.016 L 300.983 188.131 M 230.451 437.446 L 233.336 437.446 L 233.336 440.331 L 230.451 440.331 L 230.451 437.446 M 205.519 430.393 L 208.404 430.393 L 208.404 433.278 L 205.519 433.278 L 205.519 430.393 M 308.037 163.2 L 310.922 163.2 L 310.922 166.085 L 308.037 166.085 L 308.037 163.2" />
  <path class="h" d=" M 472.354 183.794 L 534.682 201.427 M 564.083 216.476 L 560.557 228.942 M 557.03 241.408 L 553.504 253.874 M 549.978 266.34 L 546.451 278.806 M 550.921 286.802 L 563.387 290.329 M 567.856 298.325 L 564.33 310.791 M 556.334 315.26 L 543.868 311.734 M 506.47 301.154 L 444.141 283.52 M 414.74 268.47 L 418.267 256.005 M 293.364 126.425 L 310.998 64.0958 M 321.577 26.6986 L 325.104 14.2329 M 333.1 9.76332 L 345.566 13.29 M 187.81 594.71 L 184.283 607.176 M 176.287 611.646 L 163.821 608.119 M 151.355 604.593 L 138.889 601.067 M 101.492 590.486 L 39.164 572.852" />
  <path class="h" d=" M 453.656 178.504 L 451.712 180.636 M 415.739 264.938 L 418.59 265.382 M 425.443 278.23 L 428.323 278.394 M 540.148 310.681 L 542.588 309.142 M 563.507 313.7 L 560.651 313.289 M 563.603 290.39 L 561.3 292.127 M 550.039 266.123 L 547.176 265.763 M 557.853 238.498 L 554.984 238.199 M 565.136 212.756 L 562.264 212.474 M 301.82 96.535 L 302.143 99.4019 M 325.641 12.334 L 327.281 14.7076 M 347.484 13.8326 L 347.184 16.7019 M 185.282 603.644 L 183.319 601.53 M 178.205 612.188 L 177.041 609.549 M 153.254 605.13 L 154.503 602.53 M 71.6027 582.03 L 74.4696 581.708" />
</svg>
