<?xml version="1.0"?>
<svg width="318" height="348" version="1.1" xmlns="http://www.w3.org/2000/svg" xmlns:xlink="http://www.w3.org/1999/xlink">
  <defs>
  <style type="text/css">
    <![CDATA[
      .b {stroke:rgb(0,0,0);stroke-width:0.870000;fill:none}
      .c {stroke:rgb(128,128,128);stroke-width:0.435000;stroke-dasharray:1.590000, 1.590000;}
      .h {stroke:rgb(240,200,0);stroke-width:0.870000;}
      .m {stroke:rgb(255,0,0);stroke-width:0.435000;}
      .n {stroke:rgb(128,128,128);stroke-width:0.435000}
      .t {stroke:rgb(0,128,0);stroke-width:0.435000;}
      .tab {stroke:rgb(0,0,255);stroke-width:0.217500;fill:none}
      .v {stroke:rgb(0,0,255);stroke-width:0.435000;}
      .z {stroke:rgb(0,240,200);stroke-width:0.217500;}
    ]]>
  </style>
  </defs>
  <path fill="none" class="b" d=" M 304.076 319.575 L 283.314 324.82 L 271.934 321.895 L 272.056 298.183 L 255.069 276.341 L 263.272 302.768 L 239.671 305.069 L 220.266 307.946 L 207.799 286.599 L 224.02 267.945 L 243.055 248.706 L 199.288 248.18 L 178.99 270.954 L 164.212 241.69 L 185.827 212.522 L 152.453 226.81 L 131.231 218.681 L 146.503 235.51 L 117.465 250.729 L 123.442 280.645 L 80.0994 286.755 L 54.9772 276.688 L 46.3294 294.296 L 39.4361 303.813 L 8 282.051 L 40.8645 262.512 L 54.4873 245.991 L 71.403 261.507 L 80.7132 229.95 L 77.6666 209.92 L 110.085 181.038 L 117.811 163.632 L 134.523 180.332 L 156.178 175.822 L 151.044 198.056 L 158.284 176.416 L 148.118 156.77 L 165.205 140.453 L 151.503 127.227 L 153.884 83.8743 L 152.833 63.6415 L 152.763 30.7399 L 173.516 20.9316 L 200.238 40.4282 L 206.768 8 L 235.829 29.6965 L 238.036 53.6617 L 234.668 81.319 L 203.145 70.3001 L 182.08 79.7037 L 186.554 99.7849 L 195.708 81.3602 L 217.484 88.9746 L 231.366 109.846 L 256.171 106.231 L 243.516 137.133 L 218.102 151.577 L 202.329 169.073 L 225.886 169.14 L 249.849 185.881 L 235.418 212.635 L 253.798 188.423 L 275.161 206.309 L 282.287 229.297 L 285.689 262.198 L 310.643 283.909 L 304.076 319.575" />
  <path class="c" d=" M 272.056 298.183 L 310.643 283.909 M 310.643 283.909 L 272.056 298.183 M 272.056 298.183 L 285.689 262.198 M 285.689 262.198 L 243.055 248.706 M 243.055 248.706 L 235.418 212.635 M 235.418 212.635 L 243.055 248.706 M 243.055 248.706 L 285.689 262.198 M 285.689 262.198 L 272.056 298.183 M 272.056 298.183 L 283.314 324.82 M 283.314 324.82 L 272.056 298.183 M 272.056 298.183 L 304.076 319.575 M 304.076 319.575 L 272.056 298.183 M 255.069 276.341 L 207.799 286.599 M 207.799 286.599 L 255.069 276.341 M 255.069 276.341 L 243.055 248.706 M 243.055 248.706 L 282.287 229.297 M 282.287 229.297 L 243.055 248.706 M 243.055 248.706 L 255.069 276.341 M 255.069 276.341 L 224.02 267.945 M 224.02 267.945 L 255.069 276.341 M 255.069 276.341 L 239.671 305.069 M 239.671 305.069 L 207.799 286.599 M 207.799 286.599 L 239.671 305.069 M 239.671 305.069 L 255.069 276.341 M 255.069 276.341 L 285.689 262.198 M 285.689 262.198 L 255.069 276.341 M 282.287 229.297 L 235.418 212.635 M 235.418 212.635 L 225.886 169.14 M 225.886 169.14 L 235.418 212.635 M 235.418 212.635 L 185.827 212.522 M 185.827 212.522 L 202.329 169.073 M 202.329 169.073 L 185.827 212.522 M 185.827 212.522 L 151.044 198.056 M 151.044 198.056 L 185.827 212.522 M 185.827 212.522 L 158.284 176.416 M 158.284 176.416 L 185.827 212.522 M 185.827 212.522 L 235.418 212.635 M 235.418 212.635 L 202.329 169.073 M 202.329 169.073 L 165.205 140.453 M 165.205 140.453 L 202.329 169.073 M 202.329 169.073 L 158.284 176.416 M 158.284 176.416 L 202.329 169.073 M 202.329 169.073 L 235.418 212.635 M 235.418 212.635 L 199.288 248.18 M 199.288 248.18 L 164.212 241.69 M 164.212 241.69 L 199.288 248.18 M 199.288 248.18 L 235.418 212.635 M 235.418 212.635 L 275.161 206.309 M 275.161 206.309 L 235.418 212.635 M 235.418 212.635 L 282.287 229.297 M 199.288 248.18 L 185.827 212.522 M 185.827 212.522 L 199.288 248.18 M 152.453 226.81 L 151.044 198.056 M 151.044 198.056 L 134.523 180.332 M 134.523 180.332 L 151.044 198.056 M 151.044 198.056 L 152.453 226.81 M 131.231 218.681 L 117.465 250.729 M 117.465 250.729 L 131.231 218.681 M 131.231 218.681 L 110.085 181.038 M 110.085 181.038 L 131.231 218.681 M 131.231 218.681 L 77.6666 209.92 M 77.6666 209.92 L 131.231 218.681 M 131.231 218.681 L 80.7132 229.95 M 80.7132 229.95 L 117.465 250.729 M 117.465 250.729 L 71.403 261.507 M 71.403 261.507 L 117.465 250.729 M 117.465 250.729 L 80.0994 286.755 M 80.0994 286.755 L 117.465 250.729 M 117.465 250.729 L 80.7132 229.95 M 80.7132 229.95 L 131.231 218.681 M 131.231 218.681 L 151.044 198.056 M 151.044 198.056 L 131.231 218.681 M 131.231 218.681 L 134.523 180.332 M 134.523 180.332 L 110.085 181.038 M 110.085 181.038 L 134.523 180.332 M 134.523 180.332 L 131.231 218.681 M 158.284 176.416 L 165.205 140.453 M 165.205 140.453 L 158.284 176.416 M 165.205 140.453 L 186.554 99.7849 M 186.554 99.7849 L 231.366 109.846 M 231.366 109.846 L 186.554 99.7849 M 186.554 99.7849 L 218.102 151.577 M 218.102 151.577 L 186.554 99.7849 M 186.554 99.7849 L 165.205 140.453 M 151.503 127.227 L 186.554 99.7849 M 186.554 99.7849 L 151.503 127.227 M 153.884 83.8743 L 186.554 99.7849 M 186.554 99.7849 L 217.484 88.9746 M 217.484 88.9746 L 186.554 99.7849 M 186.554 99.7849 L 153.884 83.8743 M 153.884 83.8743 L 182.08 79.7037 M 182.08 79.7037 L 152.833 63.6415 M 152.833 63.6415 L 182.08 79.7037 M 182.08 79.7037 L 200.238 40.4282 M 200.238 40.4282 L 152.833 63.6415 M 152.833 63.6415 L 200.238 40.4282 M 200.238 40.4282 L 238.036 53.6617 M 238.036 53.6617 L 200.238 40.4282 M 200.238 40.4282 L 182.08 79.7037 M 182.08 79.7037 L 153.884 83.8743 M 152.833 63.6415 L 173.516 20.9316 M 173.516 20.9316 L 152.833 63.6415 M 186.554 99.7849 L 202.329 169.073 M 202.329 169.073 L 186.554 99.7849 M 203.145 70.3001 L 200.238 40.4282 M 200.238 40.4282 L 235.829 29.6965 M 235.829 29.6965 L 200.238 40.4282 M 200.238 40.4282 L 203.145 70.3001 M 203.145 70.3001 L 238.036 53.6617 M 238.036 53.6617 L 203.145 70.3001 M 231.366 109.846 L 243.516 137.133 M 243.516 137.133 L 231.366 109.846 M 231.366 109.846 L 218.102 151.577 M 218.102 151.577 L 231.366 109.846 M 71.403 261.507 L 80.0994 286.755 M 80.0994 286.755 L 71.403 261.507 M 71.403 261.507 L 54.9772 276.688 M 54.9772 276.688 L 54.4873 245.991 M 54.4873 245.991 L 54.9772 276.688 M 54.9772 276.688 L 71.403 261.507 M 54.9772 276.688 L 8 282.051 M 8 282.051 L 46.3294 294.296 M 46.3294 294.296 L 8 282.051 M 8 282.051 L 54.9772 276.688 M 54.9772 276.688 L 40.8645 262.512 M 40.8645 262.512 L 54.9772 276.688" />
  <path class="h" d=" M 159.74 201.672 L 177.131 208.905 M 177.131 208.905 L 159.74 201.672 M 118.601 221.498 L 93.3426 227.133 M 93.3426 227.133 L 118.601 221.498 M 73.5771 267.819 L 77.9253 280.443 M 77.9253 280.443 L 73.5771 267.819 M 54.8547 269.013 L 54.6098 253.665 M 54.6098 253.665 L 54.8547 269.013 M 51.449 273.144 L 44.3926 266.056 M 44.3926 266.056 L 51.449 273.144 M 231.783 270.044 L 247.307 274.242 M 247.307 274.242 L 231.783 270.044 M 251.22 283.523 L 243.521 297.887 M 243.521 297.887 L 251.22 283.523 M 252.863 243.853 L 272.479 234.149 M 272.479 234.149 L 252.863 243.853 M 198.386 151.751 L 190.498 117.107 M 190.498 117.107 L 198.386 151.751 M 210.215 138.629 L 194.441 112.733 M 194.441 112.733 L 210.215 138.629 M 175.031 80.7464 L 160.933 82.8317 M 160.933 82.8317 L 175.031 80.7464 M 174.768 75.6882 L 160.145 67.6571 M 160.145 67.6571 L 174.768 75.6882" />
  <path class="z" fill="none" d=" M 271.934 321.895 L 272.056 298.183 L 255.069 276.341 L 263.272 302.768 L 239.671 305.069 L 220.266 307.946 L 207.799 286.599 L 224.02 267.945 L 243.055 248.706 L 199.288 248.18 L 178.99 270.954 L 164.212 241.69 L 185.827 212.522 L 152.453 226.81 L 131.231 218.681 L 146.503 235.51 L 117.465 250.729 L 123.442 280.645 L 80.0994 286.755 L 54.9772 276.688 L 46.3294 294.296 M 39.4361 303.813 L 8 282.051 L 40.8645 262.512 M 80.7132 229.95 L 77.6666 209.92 L 110.085 181.038 L 117.811 163.632 L 134.523 180.332 L 156.178 175.822 L 151.044 198.056 L 158.284 176.416 L 148.118 156.77 L 165.205 140.453 L 151.503 127.227 L 153.884 83.8743 L 152.833 63.6415 M 235.829 29.6965 L 238.036 53.6617 L 234.668 81.319 L 203.145 70.3001 L 182.08 79.7037 L 186.554 99.7849 L 195.708 81.3602 L 217.484 88.9746 L 231.366 109.846 L 256.171 106.231 L 243.516 137.133 L 218.102 151.577 L 202.329 169.073 L 225.886 169.14 L 249.849 185.881 L 235.418 212.635 L 253.798 188.423 L 275.161 206.309 L 282.287 229.297" />
  <path class="z" d=" M 254.274 275.546 L 255.864 275.546 L 255.864 277.136 L 254.274 277.136 L 254.274 275.546 M 207.004 285.804 L 208.594 285.804 L 208.594 287.394 L 207.004 287.394 L 207.004 285.804 M 185.032 211.727 L 186.622 211.727 L 186.622 213.317 L 185.032 213.317 L 185.032 211.727 M 130.436 217.886 L 132.026 217.886 L 132.026 219.476 L 130.436 219.476 L 130.436 217.886 M 7.205 281.256 L 8.795 281.256 L 8.795 282.846 L 7.205 282.846 L 7.205 281.256 M 150.249 197.261 L 151.839 197.261 L 151.839 198.851 L 150.249 198.851 L 150.249 197.261 M 185.759 98.9899 L 187.349 98.9899 L 187.349 100.58 L 185.759 100.58 L 185.759 98.9899 M 230.571 109.051 L 232.161 109.051 L 232.161 110.641 L 230.571 110.641 L 230.571 109.051 M 201.534 168.278 L 203.124 168.278 L 203.124 169.868 L 201.534 169.868 L 201.534 168.278 M 234.623 211.84 L 236.213 211.84 L 236.213 213.43 L 234.623 213.43 L 234.623 211.84" />
  <path class="h" d=" M 298.885 320.887 L 288.505 323.509 M 280.469 324.089 L 274.779 322.627 M 309.001 292.825 L 305.718 310.659 M 291.928 267.626 L 304.405 278.481 M 283.138 237.522 L 284.839 253.973 M 73.7305 253.618 L 78.3856 237.839 M 58.7162 249.87 L 67.1741 257.628 M 44.2702 258.382 L 51.0816 250.121 M 44.6061 296.675 L 41.1594 301.434 M 152.815 55.4161 L 152.781 38.9653 M 157.951 28.2878 L 168.328 23.3837 M 180.197 25.8057 L 193.558 35.554 M 201.871 32.3211 L 205.136 16.107 M 214.033 13.4241 L 228.564 24.2724" />
  <path class="h" d=" M 302 320.1 L 300.717 319.161 M 282.167 324.525 L 281.598 323.041 M 309.507 290.081 L 307.953 290.417 M 306.305 280.134 L 304.899 280.876 M 282.878 235.016 L 281.375 235.533 M 73.6497 253.892 L 75.2355 253.777 M 56.7423 248.059 L 56.6444 249.646 M 53.125 247.643 L 53.2262 249.23 M 45.6346 295.255 L 44.1343 294.729 M 152.816 55.7019 L 153.629 54.3357 M 170.75 22.2391 L 170.118 23.6983 M 183.983 28.568 L 182.927 29.7568 M 204.211 20.7015 L 205.74 21.1366 M 211.798 11.7549 L 211.203 13.2296" />
</svg>
