<?xml version="1.0"?>
<svg width="343" height="323" version="1.1" xmlns="http://www.w3.org/2000/svg" xmlns:xlink="http://www.w3.org/1999/xlink">
  <defs>
  <style type="text/css">
    <![CDATA[
      .b {stroke:rgb(0,0,0);stroke-width:0.857500;fill:none}
      .c {stroke:rgb(128,128,128);stroke-width:0.428750;stroke-dasharray:1.715000, 1.715000;}
      .h {stroke:rgb(240,200,0);stroke-width:0.857500;}
      .m {stroke:rgb(255,0,0);stroke-width:0.428750;}
      .n {stroke:rgb(128,128,128);stroke-width:0.428750}
      .t {stroke:rgb(0,128,0);stroke-width:0.428750;}
      .tab {stroke:rgb(0,0,255);stroke-width:0.214375;fill:none}
      .v {stroke:rgb(0,0,255);stroke-width:0.428750;}
      .z {stroke:rgb(0,240,200);stroke-width:0.214375;}
    ]]>
  </style>
  </defs>
  <path fill="none" class="b" d=" M 307.487 8 L 310.206 25.2249 L 294.736 24.1655 L 301.216 63.5277 L 286 65.8421 L 269.556 79.1696 L 290.685 80.4321 L 293.769 95.5112 L 330.974 109.904 L 335.529 124.725 L 319.506 133.436 L 301.251 146.557 L 307.637 131.24 L 290.132 126.068 L 274.892 112.571 L 279.899 98.244 L 265.188 101.972 L 258.542 121.214 L 258.73 139.466 L 242.461 136.19 L 222.782 141.96 L 208.271 139.574 L 199.643 153.79 L 201.316 161.736 L 180.492 155.783 L 180.595 169.324 L 147.133 165.907 L 125.813 173.697 L 148.512 173.711 L 129.101 200.584 L 100.1 216.643 L 70.1323 231.918 L 74.148 215.334 L 67.3603 230.99 L 71.788 243.786 L 50.1516 242.808 L 57.422 246.426 L 70.5993 256.569 L 65.2771 270.278 L 81.7373 282.511 L 69.327 301.257 L 58.4896 283.431 L 39.752 268.497 L 27.7977 247.731 L 41.2574 228.553 L 25.5985 245.982 L 8 234.78 L 18.0066 219.532 L 19.7939 202.186 L 48.2201 203.242 L 50.2026 186.641 L 92.7634 192.682 L 102.871 192.257 L 97.7319 206.994 L 113.679 191.951 L 93.4314 183.548 L 95.7188 168.11 L 112.971 167.114 L 128.535 159.605 L 142.499 150.922 L 157.514 115.744 L 172.978 122.673 L 186.799 133.142 L 174.958 120.476 L 161.533 110.137 L 134.242 136.935 L 118.097 133.82 L 115.272 124.106 L 133.476 85.1632 L 119.438 76.0833 L 135.732 52.7664 L 150.358 49.4179 L 160.866 53.7942 L 180.435 45.7973 L 175.352 67.3242 L 150.509 94.9067 L 180.774 73.4135 L 187.83 80.7819 L 196.73 90.7231 L 192.161 106.7 L 213.158 103.986 L 211.327 118.834 L 232.335 118.664 L 213.704 108.955 L 221.125 97.7704 L 261.945 88.1451 L 221.176 78.3067 L 213.046 88.9875 L 203.405 77.5481 L 215.099 59.8983 L 231.661 61.2479 L 240.792 51.5184 L 248.133 44.4342 L 267.623 54.892 L 270.318 33.9238 L 279.813 27.6451 L 271.541 15.1273 L 288.951 8.72531 L 307.487 8" />
  <path class="c" d=" M 232.335 118.664 L 242.461 136.19 M 242.461 136.19 L 232.335 118.664 M 232.335 118.664 L 258.542 121.214 M 258.542 121.214 L 232.335 118.664 M 232.335 118.664 L 265.188 101.972 M 265.188 101.972 L 232.335 118.664 M 232.335 118.664 L 261.945 88.1451 M 261.945 88.1451 L 265.188 101.972 M 265.188 101.972 L 261.945 88.1451 M 261.945 88.1451 L 269.556 79.1696 M 269.556 79.1696 L 261.945 88.1451 M 261.945 88.1451 L 232.335 118.664 M 232.335 118.664 L 221.125 97.7704 M 221.125 97.7704 L 232.335 118.664 M 232.335 118.664 L 208.271 139.574 M 208.271 139.574 L 211.327 118.834 M 211.327 118.834 L 208.271 139.574 M 208.271 139.574 L 232.335 118.664 M 242.461 136.19 L 258.542 121.214 M 258.542 121.214 L 242.461 136.19 M 242.461 136.19 L 208.271 139.574 M 208.271 139.574 L 180.492 155.783 M 180.492 155.783 L 199.643 153.79 M 199.643 153.79 L 180.492 155.783 M 180.492 155.783 L 147.133 165.907 M 147.133 165.907 L 180.492 155.783 M 180.492 155.783 L 186.799 133.142 M 186.799 133.142 L 192.161 106.7 M 192.161 106.7 L 211.327 118.834 M 211.327 118.834 L 192.161 106.7 M 192.161 106.7 L 174.958 120.476 M 174.958 120.476 L 196.73 90.7231 M 196.73 90.7231 L 174.958 120.476 M 174.958 120.476 L 192.161 106.7 M 192.161 106.7 L 186.799 133.142 M 186.799 133.142 L 211.327 118.834 M 211.327 118.834 L 186.799 133.142 M 186.799 133.142 L 180.492 155.783 M 180.492 155.783 L 208.271 139.574 M 208.271 139.574 L 242.461 136.19 M 208.271 139.574 L 186.799 133.142 M 186.799 133.142 L 208.271 139.574 M 186.799 133.142 L 142.499 150.922 M 142.499 150.922 L 186.799 133.142 M 186.799 133.142 L 147.133 165.907 M 147.133 165.907 L 128.535 159.605 M 128.535 159.605 L 147.133 165.907 M 147.133 165.907 L 186.799 133.142 M 172.978 122.673 L 142.499 150.922 M 142.499 150.922 L 172.978 122.673 M 161.533 110.137 L 150.509 94.9067 M 150.509 94.9067 L 118.097 133.82 M 118.097 133.82 L 150.509 94.9067 M 150.509 94.9067 L 133.476 85.1632 M 133.476 85.1632 L 150.509 94.9067 M 150.509 94.9067 L 161.533 110.137 M 161.533 110.137 L 196.73 90.7231 M 196.73 90.7231 L 161.533 110.137 M 161.533 110.137 L 118.097 133.82 M 118.097 133.82 L 161.533 110.137 M 161.533 110.137 L 187.83 80.7819 M 187.83 80.7819 L 150.509 94.9067 M 150.509 94.9067 L 115.272 124.106 M 115.272 124.106 L 150.509 94.9067 M 150.509 94.9067 L 187.83 80.7819 M 187.83 80.7819 L 161.533 110.137 M 150.509 94.9067 L 180.435 45.7973 M 180.435 45.7973 L 150.509 94.9067 M 150.509 94.9067 L 160.866 53.7942 M 160.866 53.7942 L 133.476 85.1632 M 133.476 85.1632 L 160.866 53.7942 M 160.866 53.7942 L 150.509 94.9067 M 133.476 85.1632 L 150.358 49.4179 M 150.358 49.4179 L 119.438 76.0833 M 119.438 76.0833 L 150.358 49.4179 M 150.358 49.4179 L 133.476 85.1632 M 142.499 150.922 L 147.133 165.907 M 147.133 165.907 L 142.499 150.922 M 128.535 159.605 L 125.813 173.697 M 125.813 173.697 L 128.535 159.605 M 125.813 173.697 L 112.971 167.114 M 112.971 167.114 L 93.4314 183.548 M 93.4314 183.548 L 112.971 167.114 M 112.971 167.114 L 125.813 173.697 M 125.813 173.697 L 129.101 200.584 M 129.101 200.584 L 97.7319 206.994 M 97.7319 206.994 L 92.7634 192.682 M 92.7634 192.682 L 97.7319 206.994 M 97.7319 206.994 L 74.148 215.334 M 74.148 215.334 L 48.2201 203.242 M 48.2201 203.242 L 74.148 215.334 M 74.148 215.334 L 92.7634 192.682 M 92.7634 192.682 L 74.148 215.334 M 74.148 215.334 L 97.7319 206.994 M 97.7319 206.994 L 100.1 216.643 M 100.1 216.643 L 97.7319 206.994 M 97.7319 206.994 L 129.101 200.584 M 129.101 200.584 L 113.679 191.951 M 113.679 191.951 L 129.101 200.584 M 129.101 200.584 L 125.813 173.697 M 112.971 167.114 L 113.679 191.951 M 113.679 191.951 L 112.971 167.114 M 112.971 167.114 L 129.101 200.584 M 129.101 200.584 L 112.971 167.114 M 92.7634 192.682 L 48.2201 203.242 M 48.2201 203.242 L 18.0066 219.532 M 18.0066 219.532 L 48.2201 203.242 M 48.2201 203.242 L 41.2574 228.553 M 41.2574 228.553 L 67.3603 230.99 M 67.3603 230.99 L 41.2574 228.553 M 41.2574 228.553 L 8 234.78 M 8 234.78 L 41.2574 228.553 M 41.2574 228.553 L 50.1516 242.808 M 50.1516 242.808 L 41.2574 228.553 M 41.2574 228.553 L 48.2201 203.242 M 48.2201 203.242 L 92.7634 192.682 M 100.1 216.643 L 74.148 215.334 M 74.148 215.334 L 100.1 216.643 M 74.148 215.334 L 41.2574 228.553 M 41.2574 228.553 L 18.0066 219.532 M 18.0066 219.532 L 41.2574 228.553 M 41.2574 228.553 L 74.148 215.334 M 67.3603 230.99 L 50.1516 242.808 M 50.1516 242.808 L 67.3603 230.99 M 57.422 246.426 L 65.2771 270.278 M 65.2771 270.278 L 58.4896 283.431 M 58.4896 283.431 L 65.2771 270.278 M 65.2771 270.278 L 57.422 246.426 M 57.422 246.426 L 39.752 268.497 M 39.752 268.497 L 57.422 246.426 M 50.1516 242.808 L 27.7977 247.731 M 27.7977 247.731 L 50.1516 242.808 M 50.1516 242.808 L 39.752 268.497 M 39.752 268.497 L 50.1516 242.808 M 39.752 268.497 L 65.2771 270.278 M 65.2771 270.278 L 39.752 268.497 M 58.4896 283.431 L 81.7373 282.511 M 81.7373 282.511 L 58.4896 283.431 M 203.405 77.5481 L 221.176 78.3067 M 221.176 78.3067 L 215.099 59.8983 M 215.099 59.8983 L 221.176 78.3067 M 221.176 78.3067 L 203.405 77.5481 M 221.176 78.3067 L 231.661 61.2479 M 231.661 61.2479 L 269.556 79.1696 M 269.556 79.1696 L 231.661 61.2479 M 231.661 61.2479 L 261.945 88.1451 M 261.945 88.1451 L 231.661 61.2479 M 231.661 61.2479 L 221.176 78.3067 M 240.792 51.5184 L 269.556 79.1696 M 269.556 79.1696 L 267.623 54.892 M 267.623 54.892 L 286 65.8421 M 286 65.8421 L 267.623 54.892 M 267.623 54.892 L 269.556 79.1696 M 269.556 79.1696 L 279.899 98.244 M 279.899 98.244 L 290.132 126.068 M 290.132 126.068 L 279.899 98.244 M 279.899 98.244 L 307.637 131.24 M 307.637 131.24 L 293.769 95.5112 M 293.769 95.5112 L 307.637 131.24 M 307.637 131.24 L 279.899 98.244 M 279.899 98.244 L 269.556 79.1696 M 269.556 79.1696 L 240.792 51.5184 M 240.792 51.5184 L 267.623 54.892 M 267.623 54.892 L 240.792 51.5184 M 270.318 33.9238 L 286 65.8421 M 286 65.8421 L 270.318 33.9238 M 279.813 27.6451 L 288.951 8.72531 M 288.951 8.72531 L 279.813 27.6451 M 279.813 27.6451 L 294.736 24.1655 M 294.736 24.1655 L 279.813 27.6451 M 279.813 27.6451 L 286 65.8421 M 286 65.8421 L 294.736 24.1655 M 294.736 24.1655 L 288.951 8.72531 M 288.951 8.72531 L 310.206 25.2249 M 310.206 25.2249 L 288.951 8.72531 M 288.951 8.72531 L 294.736 24.1655 M 294.736 24.1655 L 286 65.8421 M 286 65.8421 L 279.813 27.6451 M 290.685 80.4321 L 279.899 98.244 M 279.899 98.244 L 261.945 88.1451 M 261.945 88.1451 L 279.899 98.244 M 279.899 98.244 L 290.685 80.4321 M 293.769 95.5112 L 319.506 133.436 M 319.506 133.436 L 330.974 109.904 M 330.974 109.904 L 319.506 133.436 M 319.506 133.436 L 293.769 95.5112 M 293.769 95.5112 L 279.899 98.244 M 279.899 98.244 L 293.769 95.5112 M 307.637 131.24 L 319.506 133.436 M 319.506 133.436 L 307.637 131.24" />
  <path class="h" d=" M 60.1865 280.143 L 63.5802 273.567 M 63.5802 273.567 L 60.1865 280.143 M 63.3133 264.315 L 59.3858 252.389 M 59.3858 252.389 L 63.3133 264.315 M 44.5632 244.039 L 33.3862 246.501 M 33.3862 246.501 L 44.5632 244.039 M 80.6359 215.662 L 93.6117 216.316 M 93.6117 216.316 L 80.6359 215.662 M 98.3238 209.406 L 99.5077 214.231 M 99.5077 214.231 L 98.3238 209.406 M 105.574 205.391 L 121.258 202.187 M 121.258 202.187 L 105.574 205.391 M 133.185 161.18 L 142.484 164.332 M 142.484 164.332 L 133.185 161.18 M 180.401 113.038 L 191.287 98.1614 M 191.287 98.1614 L 180.401 113.038 M 196.952 109.733 L 206.535 115.8 M 206.535 115.8 L 196.952 109.733 M 216.818 138.728 L 233.914 137.036 M 233.914 137.036 L 216.818 138.728 M 219.656 73.7046 L 216.618 64.5004 M 216.618 64.5004 L 219.656 73.7046 M 142.628 56.0843 L 127.168 69.417 M 127.168 69.417 L 142.628 56.0843 M 283.544 26.7752 L 291.005 25.0354 M 291.005 25.0354 L 283.544 26.7752" />
  <path class="z" fill="none" d=" M 294.736 24.1655 L 301.216 63.5277 L 286 65.8421 L 269.556 79.1696 L 290.685 80.4321 L 293.769 95.5112 L 330.974 109.904 M 301.251 146.557 L 307.637 131.24 L 290.132 126.068 L 274.892 112.571 L 279.899 98.244 L 265.188 101.972 L 258.542 121.214 L 258.73 139.466 L 242.461 136.19 L 222.782 141.96 L 208.271 139.574 L 199.643 153.79 L 201.316 161.736 L 180.492 155.783 L 180.595 169.324 L 147.133 165.907 L 125.813 173.697 L 148.512 173.711 L 129.101 200.584 L 100.1 216.643 L 70.1323 231.918 L 74.148 215.334 L 67.3603 230.99 L 71.788 243.786 L 50.1516 242.808 L 57.422 246.426 L 70.5993 256.569 L 65.2771 270.278 L 81.7373 282.511 M 58.4896 283.431 L 39.752 268.497 L 27.7977 247.731 L 41.2574 228.553 L 25.5985 245.982 M 48.2201 203.242 L 50.2026 186.641 L 92.7634 192.682 L 102.871 192.257 L 97.7319 206.994 L 113.679 191.951 L 93.4314 183.548 L 95.7188 168.11 L 112.971 167.114 L 128.535 159.605 L 142.499 150.922 L 157.514 115.744 L 172.978 122.673 L 186.799 133.142 L 174.958 120.476 L 161.533 110.137 L 134.242 136.935 L 118.097 133.82 L 115.272 124.106 L 133.476 85.1632 L 119.438 76.0833 M 135.732 52.7664 L 150.358 49.4179 L 160.866 53.7942 L 180.435 45.7973 L 175.352 67.3242 L 150.509 94.9067 L 180.774 73.4135 L 187.83 80.7819 L 196.73 90.7231 L 192.161 106.7 L 213.158 103.986 L 211.327 118.834 L 232.335 118.664 L 213.704 108.955 L 221.125 97.7704 L 261.945 88.1451 L 221.176 78.3067 L 213.046 88.9875 L 203.405 77.5481 L 215.099 59.8983 L 231.661 61.2479 L 240.792 51.5184 L 248.133 44.4342 L 267.623 54.892 L 270.318 33.9238 L 279.813 27.6451 L 271.541 15.1273" />
  <path class="z" d=" M 268.698 78.3121 L 270.413 78.3121 L 270.413 80.0271 L 268.698 80.0271 L 268.698 78.3121 M 279.042 97.3865 L 280.757 97.3865 L 280.757 99.1015 L 279.042 99.1015 L 279.042 97.3865 M 124.956 172.84 L 126.671 172.84 L 126.671 174.555 L 124.956 174.555 L 124.956 172.84 M 128.243 199.727 L 129.958 199.727 L 129.958 201.442 L 128.243 201.442 L 128.243 199.727 M 73.2905 214.477 L 75.0055 214.477 L 75.0055 216.192 L 73.2905 216.192 L 73.2905 214.477 M 38.8945 267.64 L 40.6095 267.64 L 40.6095 269.355 L 38.8945 269.355 L 38.8945 267.64 M 40.3999 227.696 L 42.1149 227.696 L 42.1149 229.411 L 40.3999 229.411 L 40.3999 227.696 M 112.822 191.094 L 114.537 191.094 L 114.537 192.809 L 112.822 192.809 L 112.822 191.094 M 112.114 166.257 L 113.829 166.257 L 113.829 167.972 L 112.114 167.972 L 112.114 166.257 M 185.942 132.285 L 187.657 132.285 L 187.657 134 L 185.942 134 L 185.942 132.285 M 149.652 94.0492 L 151.367 94.0492 L 151.367 95.7642 L 149.652 95.7642 L 149.652 94.0492 M 231.478 117.807 L 233.193 117.807 L 233.193 119.522 L 231.478 119.522 L 231.478 117.807 M 261.087 87.2876 L 262.802 87.2876 L 262.802 89.0026 L 261.087 89.0026 L 261.087 87.2876" />
  <path class="h" d=" M 308.166 12.3062 L 309.526 20.9187 M 306.338 24.9601 L 298.603 24.4303 M 293.585 8.54398 L 302.853 8.18133 M 275.893 13.5268 L 284.598 10.3258 M 332.113 113.609 L 334.391 121.02 M 331.524 126.903 L 323.512 131.258 M 314.943 136.716 L 305.815 143.277 M 123.511 70.2541 L 131.658 58.5957 M 26.9004 202.45 L 41.1135 202.978 M 18.4534 215.196 L 19.3471 206.522 M 10.5016 230.968 L 15.5049 223.344 M 21.1989 243.181 L 12.3996 237.58 M 66.6176 296.801 L 61.1989 287.888 M 78.6347 287.197 L 72.4296 296.571" />
  <path class="h" d=" M 307.759 9.72249 L 306.046 9.63169 M 292.173 8.59922 L 293.434 9.76173 M 274.567 14.0144 L 275.183 15.615 M 308.646 25.1181 L 307.328 24.021 M 331.434 111.398 L 330.617 112.906 M 333.393 125.886 L 333.137 124.191 M 315.101 136.602 L 313.708 135.602 M 132.912 56.8018 L 134.491 56.1333 M 24.7135 202.369 L 24.0893 203.966 M 19.6152 203.92 L 21.3297 203.88 M 16.6727 221.565 L 18.3223 222.034 M 14.893 239.167 L 16.4839 238.527 M 65.0822 294.275 L 66.483 293.286 M 78.7425 287.035 L 77.054 286.734" />
</svg>
