####
#
# OBJ File Generated by Meshlab
#
####
# Object stomach-200.obj
#
# Vertices: 102
# Faces: 200
#
####
vn 0.062052 -0.011473 0.998007
v -0.784582 5.657908 0.018663
vn -0.139893 -0.948576 0.283962
v -0.270483 4.541069 -0.868294
vn 0.277842 -0.607612 0.744051
v -0.017695 4.955682 -0.265571
vn 0.669928 0.423603 0.609719
v 0.142330 5.617317 -0.309765
vn 0.676849 -0.215643 0.703828
v 0.219922 5.162045 -0.285015
vn 0.450193 -0.760228 0.468379
v 0.220546 4.830858 -0.542094
vn 0.870798 0.122572 0.476116
v 0.527861 5.352829 -0.677746
vn 0.854643 -0.401192 0.329593
v 0.577916 5.079875 -0.861942
vn 0.982061 -0.077531 0.171888
v 0.792604 5.369100 -1.441863
vn 0.628415 -0.771503 0.099389
v 0.371421 4.685694 -1.279102
vn 0.232934 -0.971542 0.043000
v -0.057547 4.485621 -1.211059
vn 0.837217 0.346570 -0.423033
v 0.238527 6.670018 -3.292658
vn 0.532048 -0.652961 -0.539042
v 0.222887 5.062047 -2.939039
vn 0.840216 -0.454855 -0.295202
v 0.674906 5.236146 -2.402712
vn 0.856894 -0.514277 -0.035385
v 0.647238 4.984536 -1.748280
vn 0.852169 0.426694 0.302887
v 0.704654 5.755372 -1.427468
vn 0.590939 0.689255 0.419189
v 0.473696 5.862979 -1.194728
vn 0.433348 0.642887 0.631590
v -0.219611 5.910080 -0.252466
vn 0.618930 0.661598 0.423337
v -0.060263 7.145196 -2.214700
vn 0.217373 -0.145880 0.965126
v -0.168753 5.345293 -0.008181
vn 0.097060 -0.924707 -0.368097
v -0.175830 4.707044 -2.673000
vn 0.216576 0.941281 0.259009
v -0.076144 6.110809 -1.039957
vn 0.852654 -0.139635 -0.503472
v 0.509997 5.631807 -3.027662
vn 0.853737 0.502924 -0.134910
v 0.207029 6.913148 -2.997093
vn 0.948855 0.249476 -0.193484
v 0.687027 5.948174 -2.576757
vn 0.445581 0.697131 0.561663
v 0.124393 6.460496 -1.667434
vn 0.770748 0.632828 0.074005
v 0.113392 7.074160 -2.584839
vn 0.485946 -0.374777 -0.789556
v -0.007018 5.612893 -3.561591
vn 0.674934 0.531496 -0.511837
v -0.226788 7.231689 -3.503047
vn -0.008637 -0.728345 -0.685157
v -0.615843 5.307009 -3.525769
vn -0.422986 -0.881301 -0.210694
v -0.569681 4.727837 -2.522120
vn 0.694655 0.684490 -0.221194
v -0.172648 7.360253 -3.092921
vn -0.682642 -0.714149 0.154892
v -0.883437 4.936401 -0.621248
vn -0.371388 -0.690788 0.620389
v -1.054733 5.423313 -0.172809
vn 0.326094 0.565288 0.757702
v -0.486141 7.039382 -1.782436
vn 0.626654 0.769208 0.124993
v -0.331279 7.521587 -2.619006
vn -0.324520 0.932442 0.158870
v -0.631612 6.111771 -1.186735
vn 0.206246 0.919591 0.334386
v -0.817176 6.297578 -0.451676
vn 0.058942 0.718213 0.693322
v -0.126728 6.288620 -1.364321
vn -0.792340 -0.608812 -0.039306
v -0.767895 4.785556 -1.487477
vn -0.894691 0.260987 0.362510
v -0.913595 5.918414 -1.378878
vn 0.312139 0.947724 -0.066238
v -1.051709 8.013595 -2.974646
vn -0.690590 -0.715340 -0.106650
v -1.023385 5.069786 -2.699803
vn 0.082155 0.157853 0.984039
v -1.285483 7.300471 -1.696927
vn -0.261465 0.316148 0.911968
v -0.755175 6.527944 -1.525090
vn -0.575251 -0.662950 -0.479148
v -1.217888 5.516922 -3.419618
vn -0.051794 -0.199671 -0.978493
v -0.875993 6.237179 -4.001084
vn -0.354662 -0.823170 -0.443403
v -0.789402 5.074579 -3.151177
vn 0.527918 0.822682 -0.210942
v -0.769071 7.828295 -3.239737
vn -0.028737 0.844326 -0.535059
v -1.257247 7.958943 -3.385143
vn -0.033970 0.086094 -0.995708
v -1.111516 6.785606 -4.041381
vn 0.390132 0.524245 -0.756944
v -0.665958 7.397087 -3.776822
vn 0.494972 0.729349 0.472285
v -0.612555 7.589409 -2.242249
vn -0.597643 -0.107895 0.794469
v -1.334031 6.253756 -1.757609
vn -0.901997 -0.371009 0.220801
v -1.067526 5.258866 -1.798265
vn 0.402700 0.879708 0.252875
v -0.935739 7.908666 -2.498883
vn -0.098375 -0.488475 -0.867015
v -0.866906 5.684887 -3.823123
vn -0.527244 -0.271595 -0.805140
v -1.620523 6.384989 -3.800169
vn 0.110852 0.946400 0.303378
v -1.695682 7.853805 -1.923643
vn 0.363110 0.237427 0.900988
v -1.561300 7.588354 -1.706327
vn -0.459647 -0.274964 0.844464
v -1.827825 6.853720 -1.943615
vn -0.051990 0.998127 0.032259
v -1.519404 8.088946 -2.746333
vn -0.789726 -0.463653 0.401694
v -1.914887 6.233402 -2.287687
vn -0.882430 0.336762 -0.328494
v -2.186269 7.453515 -3.149502
vn 0.103993 0.633193 0.766976
v -1.955651 7.819569 -1.574100
vn -0.304455 -0.599420 0.740273
v -1.942930 7.278754 -1.743930
vn -0.968575 -0.221019 -0.114071
v -2.172266 7.401512 -2.054289
vn -0.932140 -0.324095 -0.161488
v -2.169068 6.624363 -3.034493
vn -0.999233 0.028399 0.026964
v -2.287046 7.097010 -2.651324
vn -0.734712 0.662510 -0.145869
v -2.044041 7.835445 -2.166669
vn -0.856362 -0.318901 0.406136
v -2.155593 6.745872 -2.289902
vn -0.240963 -0.237274 0.941084
v -2.119341 7.461737 -1.547822
vn -0.769318 -0.610550 0.188093
v -2.333998 7.401977 -1.766109
vn -0.763396 0.641453 0.075925
v -2.334269 7.867450 -1.869302
vn -0.257204 0.316017 -0.913225
v -1.418375 7.226505 -3.873245
vn -0.476130 0.861669 -0.175577
v -1.861908 7.954799 -2.720715
vn -0.791048 -0.454116 -0.409904
v -1.907307 6.325846 -3.337068
vn -0.483023 0.554129 -0.677960
v -1.661419 7.550083 -3.630087
vn -0.746752 -0.006389 -0.665072
v -1.974598 6.979372 -3.602636
vn -0.788996 -0.601771 -0.123924
v -1.647888 5.804766 -2.994004
vn -0.784135 -0.598412 0.164425
v -1.488242 5.608912 -2.479149
vn -0.751665 -0.369611 0.546249
v -1.489627 5.882108 -2.060144
vn 0.358549 0.678774 0.640866
v -1.136313 7.747913 -2.063263
vn -0.967174 -0.049385 -0.249269
v -1.043731 5.417198 -1.228944
vn -0.826401 -0.404434 -0.391784
v -1.246837 5.547054 -0.828261
vn -0.659425 0.470510 -0.586327
v -1.858563 6.127786 -0.552619
vn -0.538941 -0.826309 -0.163572
v -1.262788 5.476304 -0.559949
vn -0.643941 0.345375 -0.682683
v -1.070018 5.959258 -1.052986
vn -0.441809 -0.775385 0.451202
v -1.661424 5.561479 -0.078538
vn -0.642353 0.340521 0.686607
v -1.739317 5.959756 0.010576
vn -0.450821 -0.385132 -0.805253
v -1.461573 5.669666 -0.728219
vn -0.749318 -0.516324 -0.414647
v -1.787066 5.725616 -0.682604
vn -0.194757 0.974427 -0.112080
v -1.284141 6.327505 -0.532391
vn -0.029833 0.712902 0.700629
v -1.410315 6.127889 -0.071097
vn 0.215628 0.576868 0.787863
v -0.849280 6.062179 -0.087642
vn 0.815772 0.537614 0.213276
v 0.502403 6.355633 -2.026474
vn 0.996383 0.025523 -0.081057
v 0.819033 5.580438 -2.044801
vn 0.551311 -0.807245 -0.210740
v 0.359474 4.759421 -2.039086
vn 0.675473 0.137015 -0.724544
v 0.043597 6.503789 -3.608837
vn 0.358771 -0.062156 -0.931354
v -0.306002 6.165406 -3.872807
vn -0.343065 -0.938954 -0.025913
v -0.431285 4.519996 -1.534714
vn -0.174731 -0.755900 0.630940
v -0.540436 4.836874 -0.334658
# 102 vertices, 0 vertices normals

f 33//33 2//2 102//102
f 35//35 19//19 53//53
f 36//36 53//53 19//19
f 38//38 95//95 18//18
f 1//1 20//20 18//18
f 20//20 3//3 5//5
f 29//29 99//99 52//52
f 20//20 5//5 4//4
f 4//4 5//5 7//7
f 5//5 3//3 6//6
f 10//10 8//8 6//6
f 29//29 12//12 99//99
f 25//25 23//23 12//12
f 15//15 97//97 9//9
f 96//96 17//17 16//16
f 97//97 96//96 16//16
f 23//23 25//25 97//97
f 23//23 97//97 14//14
f 25//25 96//96 97//97
f 16//16 7//7 9//9
f 96//96 26//26 17//17
f 4//4 16//16 17//17
f 22//22 17//17 26//26
f 101//101 21//21 11//11
f 12//12 29//29 32//32
f 21//21 98//98 11//11
f 99//99 28//28 100//100
f 102//102 6//6 3//3
f 20//20 4//4 18//18
f 99//99 23//23 28//28
f 12//12 24//24 25//25
f 24//24 96//96 25//25
f 39//39 26//26 35//35
f 32//32 36//36 27//27
f 101//101 2//2 33//33
f 30//30 57//57 28//28
f 100//100 28//28 57//57
f 52//52 99//99 100//100
f 30//30 13//13 21//21
f 47//47 100//100 57//57
f 48//48 30//30 21//21
f 48//48 21//21 31//31
f 29//29 52//52 32//32
f 52//52 49//49 32//32
f 40//40 31//31 101//101
f 43//43 31//31 40//40
f 49//49 56//56 36//36
f 44//44 35//35 83//83
f 45//45 39//39 35//35
f 22//22 38//38 18//18
f 44//44 45//45 35//35
f 37//37 22//22 39//39
f 36//36 19//19 27//27
f 39//39 45//45 37//37
f 35//35 26//26 19//19
f 1//1 34//34 20//20
f 102//102 34//34 33//33
f 1//1 95//95 94//94
f 33//33 85//85 40//40
f 40//40 85//85 84//84
f 55//55 40//40 84//84
f 48//48 31//31 43//43
f 53//53 36//36 56//56
f 42//42 56//56 49//49
f 83//83 53//53 56//56
f 45//45 41//41 37//37
f 46//46 30//30 48//48
f 75//75 52//52 51//51
f 50//50 49//49 52//52
f 57//57 30//30 46//46
f 50//50 42//42 49//49
f 43//43 46//46 48//48
f 43//43 80//80 46//46
f 54//54 41//41 45//45
f 40//40 55//55 43//43
f 51//51 100//100 47//47
f 55//55 41//41 82//82
f 58//58 47//47 57//57
f 82//82 81//81 55//55
f 78//78 50//50 75//75
f 54//54 82//82 41//41
f 61//61 54//54 45//45
f 46//46 58//58 57//57
f 60//60 44//44 83//83
f 66//66 61//61 44//44
f 61//61 63//63 54//54
f 71//71 63//63 61//61
f 59//59 65//65 60//60
f 62//62 76//76 59//59
f 66//66 60//60 72//72
f 72//72 73//73 66//66
f 66//66 67//67 71//71
f 67//67 69//69 71//71
f 69//69 68//68 71//71
f 68//68 63//63 71//71
f 79//79 68//68 64//64
f 69//69 67//67 70//70
f 69//69 64//64 68//68
f 64//64 69//69 70//70
f 79//79 77//77 68//68
f 66//66 71//71 61//61
f 73//73 67//67 66//66
f 74//74 73//73 72//72
f 74//74 72//72 65//65
f 73//73 74//74 67//67
f 70//70 67//67 74//74
f 74//74 59//59 70//70
f 60//60 65//65 72//72
f 64//64 70//70 76//76
f 63//63 68//68 80//80
f 77//77 80//80 68//68
f 59//59 74//74 65//65
f 76//76 62//62 50//50
f 79//79 78//78 75//75
f 64//64 78//78 79//79
f 79//79 58//58 77//77
f 78//78 64//64 76//76
f 76//76 50//50 78//78
f 79//79 75//75 58//58
f 81//81 63//63 80//80
f 46//46 77//77 58//58
f 76//76 70//70 59//59
f 66//66 44//44 60//60
f 62//62 59//59 56//56
f 77//77 46//46 80//80
f 60//60 83//83 59//59
f 54//54 63//63 82//82
f 81//81 82//82 63//63
f 83//83 56//56 59//59
f 51//51 58//58 75//75
f 47//47 58//58 51//51
f 50//50 62//62 42//42
f 44//44 61//61 45//45
f 55//55 81//81 43//43
f 43//43 81//81 80//80
f 62//62 56//56 42//42
f 41//41 55//55 84//84
f 50//50 52//52 75//75
f 85//85 33//33 87//87
f 85//85 91//91 88//88
f 90//90 94//94 93//93
f 86//86 91//91 92//92
f 90//90 86//86 92//92
f 86//86 90//90 93//93
f 92//92 89//89 90//90
f 92//92 87//87 89//89
f 91//91 87//87 92//92
f 86//86 88//88 91//91
f 89//89 87//87 34//34
f 91//91 85//85 87//87
f 1//1 89//89 34//34
f 90//90 89//89 1//1
f 94//94 90//90 1//1
f 87//87 33//33 34//34
f 86//86 93//93 88//88
f 84//84 85//85 88//88
f 94//94 38//38 93//93
f 94//94 95//95 38//38
f 41//41 84//84 88//88
f 88//88 93//93 37//37
f 88//88 37//37 41//41
f 93//93 22//22 37//37
f 93//93 38//38 22//22
f 35//35 53//53 83//83
f 52//52 100//100 51//51
f 32//32 49//49 36//36
f 32//32 27//27 24//24
f 27//27 19//19 96//96
f 96//96 24//24 27//27
f 39//39 22//22 26//26
f 17//17 22//22 18//18
f 4//4 17//17 18//18
f 26//26 96//96 19//19
f 97//97 15//15 14//14
f 97//97 16//16 9//9
f 13//13 23//23 14//14
f 15//15 98//98 14//14
f 99//99 12//12 23//23
f 13//13 14//14 98//98
f 23//23 13//13 28//28
f 6//6 11//11 10//10
f 98//98 15//15 10//10
f 8//8 10//10 15//15
f 8//8 15//15 9//9
f 9//9 7//7 8//8
f 7//7 5//5 8//8
f 16//16 4//4 7//7
f 8//8 5//5 6//6
f 11//11 6//6 2//2
f 98//98 10//10 11//11
f 13//13 98//98 21//21
f 32//32 24//24 12//12
f 6//6 102//102 2//2
f 30//30 28//28 13//13
f 31//31 21//21 101//101
f 101//101 11//11 2//2
f 20//20 102//102 3//3
f 34//34 102//102 20//20
f 95//95 1//1 18//18
f 40//40 101//101 33//33
# 200 faces, 0 coords texture

# End of File
