<?xml version="1.0"?>
<svg width="2738" height="1435" version="1.1" xmlns="http://www.w3.org/2000/svg" xmlns:xlink="http://www.w3.org/1999/xlink">
  <defs>
  <style type="text/css">
    <![CDATA[
      .b {stroke:rgb(0,0,0);stroke-width:6.845000;fill:none}
      .c {stroke:rgb(128,128,128);stroke-width:3.422500;stroke-dasharray:13.690000, 13.690000;}
      .h {stroke:rgb(240,200,0);stroke-width:6.845000;}
      .m {stroke:rgb(255,0,0);stroke-width:3.422500;}
      .n {stroke:rgb(128,128,128);stroke-width:3.422500}
      .t {stroke:rgb(0,128,0);stroke-width:3.422500;}
      .tab {stroke:rgb(0,0,255);stroke-width:1.711250;fill:none}
      .v {stroke:rgb(0,0,255);stroke-width:3.422500;}
      .z {stroke:rgb(0,240,200);stroke-width:1.711250;}
    ]]>
  </style>
  </defs>
  <path fill="none" class="b" d=" M 1941.12 352.534 L 1813.36 438.557 L 1920.67 328.079 L 1991.12 215.812 L 1989.84 150.95 L 1946.72 182.36 L 1853.21 181.269 L 1748.64 284.913 L 1702.48 357.794 L 1733.03 452.089 L 1683.99 365.951 L 1702.06 281.594 L 1769.27 150.605 L 1651.73 163.771 L 1617.92 8 L 1524.57 43.9532 L 1468.18 181.931 L 1491.74 298.631 L 1458.16 184.41 L 1363.22 220.836 L 1447.74 370.719 L 1361.83 453.489 L 1546.85 504.22 L 1695.33 539.986 L 1543.18 526.74 L 1590.83 607.062 L 1534.89 532.274 L 1343.78 549.02 L 1454.8 641.566 L 1330.2 568.31 L 1126.58 514.94 L 1022.54 545.685 L 1114.96 488.865 L 1323.2 458.134 L 1288.8 343.909 L 1124.36 394.577 L 1099.15 296.064 L 960.226 242.042 L 902.599 341.219 L 996.731 436.587 L 816.947 537.068 L 831.994 674.488 L 943.227 630.421 L 837.396 686.227 L 776.536 562.104 L 648.664 628.103 L 755.384 531.573 L 801.025 330.735 L 668.733 352.062 L 655.481 486.542 L 659.171 351.461 L 599.498 253.501 L 500.14 241.837 L 400.298 228.199 L 485.741 360.301 L 561.207 519.399 L 457.548 377.054 L 335.485 277.797 L 327.986 437.419 L 415.003 481.996 L 323.645 447.17 L 261.557 521.306 L 316.608 580.71 L 452.591 579.131 L 318.303 600.59 L 309.378 693.408 L 402.355 767.776 L 521.878 682.168 L 643.66 758.322 L 733.89 730.495 L 648.447 770.687 L 507.322 743.97 L 483.425 889.032 L 368.59 920.47 L 356.751 827.979 L 286.427 906.446 L 194.273 855.357 L 192.255 921.419 L 128.32 904.67 L 140.043 984.808 L 204.213 982.647 L 168.411 1035.95 L 83.1638 1081.6 L 8 1222.61 L 103.26 1320.07 L 208.865 1161.49 L 249.073 1092.6 L 280.48 1002.76 L 342.71 1074.77 L 367.83 1005.5 L 531.671 944.806 L 663.009 894.819 L 669.984 987.02 L 749.538 954.601 L 675.081 997.449 L 692.176 1096.14 L 661.882 1192.66 L 689.842 1095.44 L 658.385 1000.35 L 614.881 918.755 L 565.928 1050.48 L 549.02 1224.38 L 591.746 1284.42 L 666.582 1312.01 L 823.482 1420.1 L 834.676 1294.08 L 772.936 1162.23 L 840.417 1291.24 L 911.872 1190.88 L 837.687 1092.7 L 917.056 1186.74 L 1101.82 1256.6 L 961.717 1116.79 L 1109.5 1248.45 L 1009.2 1039.77 L 895.52 1005.03 L 837.413 846.53 L 942.513 978.633 L 1061.14 971.046 L 1087.67 898.971 L 935.992 892.238 L 1087.24 878.98 L 1063.52 801.124 L 1043.41 692.259 L 1082.47 795.845 L 1128.84 862.732 L 1144.81 937.856 L 1374.47 967.191 L 1348.31 827.79 L 1299.9 722.691 L 1174.57 642.683 L 1313.36 696.031 L 1396.78 776.221 L 1484.45 887.717 L 1412.79 1071.79 L 1520.61 1131.38 L 1647.03 1126.33 L 1730.76 1054.87 L 1639.84 988.232 L 1557 965.489 L 1672.97 844.454 L 1629.45 790.889 L 1517.83 723.564 L 1637.73 774.707 L 1642.62 695.574 L 1766.81 638.842 L 1846.39 565.713 L 1786.79 655.871 L 1843.76 690.393 L 1781.75 666.069 L 1711.03 782.862 L 1761.85 843.711 L 1962.75 691.976 L 1916.34 611.962 L 1921.74 549.13 L 1926.87 611.985 L 2001.06 667.23 L 1913.43 903.245 L 1966.8 859.477 L 2085.91 977.426 L 2087.36 828.272 L 2236.45 705.906 L 2116.91 857.278 L 2103.84 1005.87 L 2140.43 928.146 L 2231.72 862 L 2331.26 700.407 L 2280.52 883.288 L 2261.24 991.668 L 2391.86 1030.53 L 2492.06 1019.81 L 2356.2 903.906 L 2362 831.38 L 2446.56 661.458 L 2394.05 553.62 L 2331.88 596.763 L 2221.33 620.291 L 2326.54 578.994 L 2368.29 515.875 L 2469.8 451.983 L 2575.12 294.088 L 2620.6 237.303 L 2730.99 96.9314 L 2572 85.5758 L 2522.34 192.926 L 2476.7 274.557 L 2462.47 325.972 L 2423.31 379.947 L 2316.92 450.555 L 2308.4 323.149 L 2242.24 331.449 L 2208.15 386.643 L 2193.24 473.917 L 2171.32 552.06 L 2094.79 663.392 L 2154.46 542.188 L 2018.37 566.387 L 2128.06 482.271 L 2101.34 405.634 L 1946.69 443.948 L 2077.86 353.516 L 2045.65 271.049 L 1941.12 352.534" />
  <path class="c" d=" M 1813.36 438.557 L 1946.69 443.948 M 1946.69 443.948 L 1941.12 352.534 M 1920.67 328.079 L 1702.48 357.794 M 1702.48 357.794 L 1813.36 438.557 M 1813.36 438.557 L 1733.03 452.089 M 1733.03 452.089 L 1695.33 539.986 M 1695.33 539.986 L 1766.81 638.842 M 1843.76 690.393 L 1962.75 691.976 M 2001.06 667.23 L 2018.37 566.387 M 2018.37 566.387 L 2094.79 663.392 M 2094.79 663.392 L 2236.45 705.906 M 2236.45 705.906 L 2221.33 620.291 M 2221.33 620.291 L 2094.79 663.392 M 2094.79 663.392 L 2087.36 828.272 M 2087.36 828.272 L 1966.8 859.477 M 1966.8 859.477 L 2001.06 667.23 M 2001.06 667.23 L 2094.79 663.392 M 2094.79 663.392 L 1966.8 859.477 M 2116.91 857.278 L 2140.43 928.146 M 2231.72 862 L 2116.91 857.278 M 2280.52 883.288 L 2362 831.38 M 2356.2 903.906 L 2280.52 883.288 M 2261.24 991.668 L 2356.2 903.906 M 2391.86 1030.53 L 2356.2 903.906 M 2331.26 700.407 L 2394.05 553.62 M 2326.54 578.994 L 2171.32 552.06 M 2171.32 552.06 L 2221.33 620.291 M 2171.32 552.06 L 2316.92 450.555 M 2316.92 450.555 L 2368.29 515.875 M 2331.88 596.763 L 2331.26 700.407 M 2331.26 700.407 L 2446.56 661.458 M 2331.26 700.407 L 2362 831.38 M 2331.26 700.407 L 2116.91 857.278 M 2236.45 705.906 L 2331.26 700.407 M 2331.88 596.763 L 2236.45 705.906 M 2171.32 552.06 L 2368.29 515.875 M 2469.8 451.983 L 2462.47 325.972 M 2462.47 325.972 L 2575.12 294.088 M 2575.12 294.088 L 2476.7 274.557 M 2522.34 192.926 L 2620.6 237.303 M 2575.12 294.088 L 2522.34 192.926 M 2572 85.5758 L 2620.6 237.303 M 2423.31 379.947 L 2469.8 451.983 M 2423.31 379.947 L 2368.29 515.875 M 2193.24 473.917 L 2316.92 450.555 M 2208.15 386.643 L 2316.92 450.555 M 2308.4 323.149 L 2208.15 386.643 M 2101.34 405.634 L 2018.37 566.387 M 2018.37 566.387 L 1921.74 549.13 M 1921.74 549.13 L 1846.39 565.713 M 1846.39 565.713 L 1916.34 611.962 M 1916.34 611.962 L 1843.76 690.393 M 1843.76 690.393 L 1711.03 782.862 M 1761.85 843.711 L 1843.76 690.393 M 1916.34 611.962 L 1786.79 655.871 M 1846.39 565.713 L 1695.33 539.986 M 1590.83 607.062 L 1517.83 723.564 M 1517.83 723.564 L 1642.62 695.574 M 1642.62 695.574 L 1590.83 607.062 M 1590.83 607.062 L 1454.8 641.566 M 1454.8 641.566 L 1313.36 696.031 M 1299.9 722.691 L 1128.84 862.732 M 1128.84 862.732 L 1348.31 827.79 M 1396.78 776.221 L 1517.83 723.564 M 1517.83 723.564 L 1484.45 887.717 M 1484.45 887.717 L 1672.97 844.454 M 1629.45 790.889 L 1484.45 887.717 M 1484.45 887.717 L 1557 965.489 M 1557 965.489 L 1520.61 1131.38 M 1520.61 1131.38 L 1639.84 988.232 M 1557 965.489 L 1412.79 1071.79 M 1647.03 1126.33 L 1639.84 988.232 M 1517.83 723.564 L 1313.36 696.031 M 1330.2 568.31 L 1313.36 696.031 M 1330.2 568.31 L 1174.57 642.683 M 1174.57 642.683 L 1043.41 692.259 M 1043.41 692.259 L 837.413 846.53 M 837.413 846.53 L 935.992 892.238 M 935.992 892.238 L 1063.52 801.124 M 1063.52 801.124 L 837.413 846.53 M 837.413 846.53 L 749.538 954.601 M 749.538 954.601 L 895.52 1005.03 M 895.52 1005.03 L 837.687 1092.7 M 837.687 1092.7 L 772.936 1162.23 M 837.687 1092.7 L 961.717 1116.79 M 961.717 1116.79 L 895.52 1005.03 M 942.513 978.633 L 1087.67 898.971 M 1144.81 937.856 L 1348.31 827.79 M 1517.83 723.564 L 1454.8 641.566 M 1534.89 532.274 L 1454.8 641.566 M 1590.83 607.062 L 1695.33 539.986 M 1590.83 607.062 L 1766.81 638.842 M 1846.39 565.713 L 1733.03 452.089 M 1683.99 365.951 L 1447.74 370.719 M 1447.74 370.719 L 1733.03 452.089 M 1846.39 565.713 L 1813.36 438.557 M 1946.69 443.948 L 1846.39 565.713 M 1921.74 549.13 L 1946.69 443.948 M 1920.67 328.079 L 1946.72 182.36 M 1946.72 182.36 L 1748.64 284.913 M 1748.64 284.913 L 1920.67 328.079 M 1991.12 215.812 L 1946.72 182.36 M 2077.86 353.516 L 1941.12 352.534 M 2018.37 566.387 L 1946.69 443.948 M 1926.87 611.985 L 2018.37 566.387 M 1702.06 281.594 L 1491.74 298.631 M 1491.74 298.631 L 1363.22 220.836 M 1288.8 343.909 L 1114.96 488.865 M 1124.36 394.577 L 1114.96 488.865 M 1124.36 394.577 L 996.731 436.587 M 996.731 436.587 L 1022.54 545.685 M 1022.54 545.685 L 1174.57 642.683 M 1174.57 642.683 L 1126.58 514.94 M 1022.54 545.685 L 1043.41 692.259 M 1082.47 795.845 L 1174.57 642.683 M 1082.47 795.845 L 1299.9 722.691 M 1022.54 545.685 L 943.227 630.421 M 943.227 630.421 L 1043.41 692.259 M 1022.54 545.685 L 816.947 537.068 M 816.947 537.068 L 943.227 630.421 M 837.396 686.227 L 733.89 730.495 M 733.89 730.495 L 837.413 846.53 M 837.413 846.53 L 837.396 686.227 M 837.396 686.227 L 1043.41 692.259 M 935.992 892.238 L 942.513 978.633 M 961.717 1116.79 L 1009.2 1039.77 M 917.056 1186.74 L 961.717 1116.79 M 911.872 1190.88 L 772.936 1162.23 M 837.687 1092.7 L 749.538 954.601 M 749.538 954.601 L 692.176 1096.14 M 692.176 1096.14 L 837.687 1092.7 M 692.176 1096.14 L 772.936 1162.23 M 689.842 1095.44 L 565.928 1050.48 M 565.928 1050.48 L 658.385 1000.35 M 663.009 894.819 L 749.538 954.601 M 663.009 894.819 L 733.89 730.495 M 733.89 730.495 L 648.664 628.103 M 648.664 628.103 L 561.207 519.399 M 561.207 519.399 L 415.003 481.996 M 415.003 481.996 L 457.548 377.054 M 485.741 360.301 L 500.14 241.837 M 599.498 253.501 L 485.741 360.301 M 415.003 481.996 L 261.557 521.306 M 316.608 580.71 L 415.003 481.996 M 327.986 437.419 L 457.548 377.054 M 561.207 519.399 L 521.878 682.168 M 521.878 682.168 L 648.664 628.103 M 648.664 628.103 L 655.481 486.542 M 655.481 486.542 L 561.207 519.399 M 561.207 519.399 L 659.171 351.461 M 659.171 351.461 L 485.741 360.301 M 452.591 579.131 L 415.003 481.996 M 452.591 579.131 L 561.207 519.399 M 452.591 579.131 L 521.878 682.168 M 648.664 628.103 L 643.66 758.322 M 648.447 770.687 L 663.009 894.819 M 663.009 894.819 L 483.425 889.032 M 483.425 889.032 L 367.83 1005.5 M 367.83 1005.5 L 280.48 1002.76 M 280.48 1002.76 L 286.427 906.446 M 286.427 906.446 L 192.255 921.419 M 192.255 921.419 L 140.043 984.808 M 168.411 1035.95 L 249.073 1092.6 M 249.073 1092.6 L 204.213 982.647 M 204.213 982.647 L 192.255 921.419 M 204.213 982.647 L 286.427 906.446 M 286.427 906.446 L 368.59 920.47 M 286.427 906.446 L 367.83 1005.5 M 367.83 1005.5 L 368.59 920.47 M 483.425 889.032 L 648.447 770.687 M 837.413 846.53 L 663.009 894.819 M 531.671 944.806 L 483.425 889.032 M 309.378 693.408 L 452.591 579.131 M 309.378 693.408 L 521.878 682.168 M 755.384 531.573 L 655.481 486.542 M 801.025 330.735 L 655.481 486.542 M 1099.15 296.064 L 996.731 436.587 M 1099.15 296.064 L 902.599 341.219 M 1447.74 370.719 L 1546.85 504.22 M 1546.85 504.22 L 1733.03 452.089 M 1702.06 281.594 L 1468.18 181.931 M 1491.74 298.631 L 1683.99 365.951 M 1651.73 163.771 L 1702.06 281.594 M 1651.73 163.771 L 1468.18 181.931 M 1524.57 43.9532 L 1651.73 163.771 M 1447.74 370.719 L 1491.74 298.631 M 834.676 1294.08 L 661.882 1192.66 M 661.882 1192.66 L 666.582 1312.01 M 666.582 1312.01 L 834.676 1294.08 M 661.882 1192.66 L 772.936 1162.23 M 661.882 1192.66 L 591.746 1284.42 M 549.02 1224.38 L 689.842 1095.44 M 661.882 1192.66 L 549.02 1224.38 M 208.865 1161.49 L 168.411 1035.95 M 204.213 982.647 L 280.48 1002.76 M 83.1638 1081.6 L 208.865 1161.49 M 103.26 1320.07 L 83.1638 1081.6" />
  <path class="z" fill="none" d=" M 2077.86 353.516 L 1946.69 443.948 L 2101.34 405.634 M 2077.86 353.516 L 1946.69 443.948 L 2101.34 405.634 M 2128.06 482.271 L 2018.37 566.387 L 2154.46 542.188 M 2128.06 482.271 L 2018.37 566.387 L 2154.46 542.188 M 2154.46 542.188 L 2094.79 663.392 L 2171.32 552.06 M 2154.46 542.188 L 2094.79 663.392 L 2171.32 552.06 M 2242.24 331.449 L 2308.4 323.149 L 2316.92 450.555 L 2423.31 379.947 L 2462.47 325.972 M 2242.24 331.449 L 2308.4 323.149 L 2316.92 450.555 L 2423.31 379.947 L 2462.47 325.972 M 2730.99 96.9314 L 2620.6 237.303 L 2575.12 294.088 L 2469.8 451.983 L 2368.29 515.875 L 2326.54 578.994 L 2221.33 620.291 L 2331.88 596.763 L 2394.05 553.62 L 2446.56 661.458 L 2362 831.38 L 2356.2 903.906 L 2492.06 1019.81 M 2730.99 96.9314 L 2620.6 237.303 L 2575.12 294.088 L 2469.8 451.983 L 2368.29 515.875 L 2326.54 578.994 L 2221.33 620.291 L 2331.88 596.763 L 2394.05 553.62 L 2446.56 661.458 L 2362 831.38 L 2356.2 903.906 L 2492.06 1019.81 M 2280.52 883.288 L 2331.26 700.407 L 2231.72 862 M 2280.52 883.288 L 2331.26 700.407 L 2231.72 862 M 2103.84 1005.87 L 2116.91 857.278 L 2236.45 705.906 L 2087.36 828.272 L 2085.91 977.426 M 2103.84 1005.87 L 2116.91 857.278 L 2236.45 705.906 L 2087.36 828.272 L 2085.91 977.426 M 1913.43 903.245 L 2001.06 667.23 L 1926.87 611.985 L 1921.74 549.13 L 1916.34 611.962 L 1962.75 691.976 L 1761.85 843.711 M 1913.43 903.245 L 2001.06 667.23 L 1926.87 611.985 L 1921.74 549.13 L 1916.34 611.962 L 1962.75 691.976 L 1761.85 843.711 M 1781.75 666.069 L 1843.76 690.393 L 1786.79 655.871 M 1781.75 666.069 L 1843.76 690.393 L 1786.79 655.871 M 1786.79 655.871 L 1846.39 565.713 L 1766.81 638.842 M 1786.79 655.871 L 1846.39 565.713 L 1766.81 638.842 M 1637.73 774.707 L 1517.83 723.564 L 1629.45 790.889 M 1637.73 774.707 L 1517.83 723.564 L 1629.45 790.889 M 1484.45 887.717 L 1396.78 776.221 L 1313.36 696.031 L 1174.57 642.683 L 1299.9 722.691 L 1348.31 827.79 L 1374.47 967.191 M 1484.45 887.717 L 1396.78 776.221 L 1313.36 696.031 L 1174.57 642.683 L 1299.9 722.691 L 1348.31 827.79 L 1374.47 967.191 M 1128.84 862.732 L 1082.47 795.845 L 1043.41 692.259 L 1063.52 801.124 L 1087.24 878.98 M 1128.84 862.732 L 1082.47 795.845 L 1043.41 692.259 L 1063.52 801.124 L 1087.24 878.98 M 1087.24 878.98 L 935.992 892.238 L 1087.67 898.971 M 1087.24 878.98 L 935.992 892.238 L 1087.67 898.971 M 1061.14 971.046 L 942.513 978.633 L 837.413 846.53 L 895.52 1005.03 L 1009.2 1039.77 M 1061.14 971.046 L 942.513 978.633 L 837.413 846.53 L 895.52 1005.03 L 1009.2 1039.77 M 1109.5 1248.45 L 961.717 1116.79 L 1101.82 1256.6 M 1109.5 1248.45 L 961.717 1116.79 L 1101.82 1256.6 M 917.056 1186.74 L 837.687 1092.7 L 911.872 1190.88 M 917.056 1186.74 L 837.687 1092.7 L 911.872 1190.88 M 840.417 1291.24 L 772.936 1162.23 L 834.676 1294.08 M 840.417 1291.24 L 772.936 1162.23 L 834.676 1294.08 M 658.385 1000.35 L 689.842 1095.44 L 661.882 1192.66 L 692.176 1096.14 L 675.081 997.449 M 658.385 1000.35 L 689.842 1095.44 L 661.882 1192.66 L 692.176 1096.14 L 675.081 997.449 M 675.081 997.449 L 749.538 954.601 L 669.984 987.02 M 675.081 997.449 L 749.538 954.601 L 669.984 987.02 M 342.71 1074.77 L 280.48 1002.76 L 249.073 1092.6 M 342.71 1074.77 L 280.48 1002.76 L 249.073 1092.6 M 168.411 1035.95 L 204.213 982.647 L 140.043 984.808 M 168.411 1035.95 L 204.213 982.647 L 140.043 984.808 M 128.32 904.67 L 192.255 921.419 L 194.273 855.357 M 128.32 904.67 L 192.255 921.419 L 194.273 855.357 M 194.273 855.357 L 286.427 906.446 L 356.751 827.979 M 194.273 855.357 L 286.427 906.446 L 356.751 827.979 M 356.751 827.979 L 368.59 920.47 L 483.425 889.032 L 507.322 743.97 L 648.447 770.687 L 733.89 730.495 L 643.66 758.322 L 521.878 682.168 L 402.355 767.776 L 309.378 693.408 L 318.303 600.59 M 356.751 827.979 L 368.59 920.47 L 483.425 889.032 L 507.322 743.97 L 648.447 770.687 L 733.89 730.495 L 643.66 758.322 L 521.878 682.168 L 402.355 767.776 L 309.378 693.408 L 318.303 600.59 M 318.303 600.59 L 452.591 579.131 L 316.608 580.71 M 318.303 600.59 L 452.591 579.131 L 316.608 580.71 M 323.645 447.17 L 415.003 481.996 L 327.986 437.419 M 323.645 447.17 L 415.003 481.996 L 327.986 437.419 M 335.485 277.797 L 457.548 377.054 L 561.207 519.399 L 485.741 360.301 L 400.298 228.199 M 335.485 277.797 L 457.548 377.054 L 561.207 519.399 L 485.741 360.301 L 400.298 228.199 M 659.171 351.461 L 655.481 486.542 L 668.733 352.062 M 659.171 351.461 L 655.481 486.542 L 668.733 352.062 M 755.384 531.573 L 648.664 628.103 L 776.536 562.104 M 755.384 531.573 L 648.664 628.103 L 776.536 562.104 M 776.536 562.104 L 837.396 686.227 L 943.227 630.421 L 831.994 674.488 L 816.947 537.068 M 776.536 562.104 L 837.396 686.227 L 943.227 630.421 L 831.994 674.488 L 816.947 537.068 M 1323.2 458.134 L 1114.96 488.865 L 1022.54 545.685 L 1126.58 514.94 L 1330.2 568.31 M 1323.2 458.134 L 1114.96 488.865 L 1022.54 545.685 L 1126.58 514.94 L 1330.2 568.31 M 1330.2 568.31 L 1454.8 641.566 L 1343.78 549.02 M 1330.2 568.31 L 1454.8 641.566 L 1343.78 549.02 M 1534.89 532.274 L 1590.83 607.062 L 1543.18 526.74 M 1534.89 532.274 L 1590.83 607.062 L 1543.18 526.74 M 1543.18 526.74 L 1695.33 539.986 L 1546.85 504.22 M 1543.18 526.74 L 1695.33 539.986 L 1546.85 504.22 M 1458.16 184.41 L 1491.74 298.631 L 1468.18 181.931 M 1458.16 184.41 L 1491.74 298.631 L 1468.18 181.931 M 1769.27 150.605 L 1702.06 281.594 L 1683.99 365.951 L 1733.03 452.089 L 1702.48 357.794 L 1748.64 284.913 L 1853.21 181.269 M 1769.27 150.605 L 1702.06 281.594 L 1683.99 365.951 L 1733.03 452.089 L 1702.48 357.794 L 1748.64 284.913 L 1853.21 181.269 M 1991.12 215.812 L 1920.67 328.079 L 1813.36 438.557 L 1941.12 352.534 L 2045.65 271.049 M 1991.12 215.812 L 1920.67 328.079 L 1813.36 438.557 L 1941.12 352.534 L 2045.65 271.049" />
  <path class="z" d=" M 1939.85 437.103 L 1953.54 437.103 L 1953.54 450.793 L 1939.85 450.793 L 1939.85 437.103 M 1939.85 437.103 L 1953.54 437.103 L 1953.54 450.793 L 1939.85 450.793 L 1939.85 437.103 M 2011.52 559.542 L 2025.21 559.542 L 2025.21 573.232 L 2011.52 573.232 L 2011.52 559.542 M 2011.52 559.542 L 2025.21 559.542 L 2025.21 573.232 L 2011.52 573.232 L 2011.52 559.542 M 2087.94 656.547 L 2101.63 656.547 L 2101.63 670.237 L 2087.94 670.237 L 2087.94 656.547 M 2087.94 656.547 L 2101.63 656.547 L 2101.63 670.237 L 2087.94 670.237 L 2087.94 656.547 M 2310.08 443.71 L 2323.77 443.71 L 2323.77 457.4 L 2310.08 457.4 L 2310.08 443.71 M 2310.08 443.71 L 2323.77 443.71 L 2323.77 457.4 L 2310.08 457.4 L 2310.08 443.71 M 2214.49 613.446 L 2228.18 613.446 L 2228.18 627.136 L 2214.49 627.136 L 2214.49 613.446 M 2214.49 613.446 L 2228.18 613.446 L 2228.18 627.136 L 2214.49 627.136 L 2214.49 613.446 M 2324.42 693.562 L 2338.11 693.562 L 2338.11 707.252 L 2324.42 707.252 L 2324.42 693.562 M 2324.42 693.562 L 2338.11 693.562 L 2338.11 707.252 L 2324.42 707.252 L 2324.42 693.562 M 2229.61 699.061 L 2243.3 699.061 L 2243.3 712.751 L 2229.61 712.751 L 2229.61 699.061 M 2229.61 699.061 L 2243.3 699.061 L 2243.3 712.751 L 2229.61 712.751 L 2229.61 699.061 M 1914.9 542.285 L 1928.59 542.285 L 1928.59 555.975 L 1914.9 555.975 L 1914.9 542.285 M 1914.9 542.285 L 1928.59 542.285 L 1928.59 555.975 L 1914.9 555.975 L 1914.9 542.285 M 1836.92 683.548 L 1850.61 683.548 L 1850.61 697.238 L 1836.92 697.238 L 1836.92 683.548 M 1836.92 683.548 L 1850.61 683.548 L 1850.61 697.238 L 1836.92 697.238 L 1836.92 683.548 M 1839.55 558.868 L 1853.24 558.868 L 1853.24 572.558 L 1839.55 572.558 L 1839.55 558.868 M 1839.55 558.868 L 1853.24 558.868 L 1853.24 572.558 L 1839.55 572.558 L 1839.55 558.868 M 1510.99 716.719 L 1524.68 716.719 L 1524.68 730.409 L 1510.99 730.409 L 1510.99 716.719 M 1510.99 716.719 L 1524.68 716.719 L 1524.68 730.409 L 1510.99 730.409 L 1510.99 716.719 M 1167.72 635.838 L 1181.41 635.838 L 1181.41 649.528 L 1167.72 649.528 L 1167.72 635.838 M 1167.72 635.838 L 1181.41 635.838 L 1181.41 649.528 L 1167.72 649.528 L 1167.72 635.838 M 1036.56 685.414 L 1050.25 685.414 L 1050.25 699.104 L 1036.56 699.104 L 1036.56 685.414 M 1036.56 685.414 L 1050.25 685.414 L 1050.25 699.104 L 1036.56 699.104 L 1036.56 685.414 M 929.147 885.393 L 942.837 885.393 L 942.837 899.083 L 929.147 899.083 L 929.147 885.393 M 929.147 885.393 L 942.837 885.393 L 942.837 899.083 L 929.147 899.083 L 929.147 885.393 M 830.568 839.685 L 844.258 839.685 L 844.258 853.375 L 830.568 853.375 L 830.568 839.685 M 830.568 839.685 L 844.258 839.685 L 844.258 853.375 L 830.568 853.375 L 830.568 839.685 M 954.872 1109.94 L 968.562 1109.94 L 968.562 1123.63 L 954.872 1123.63 L 954.872 1109.94 M 954.872 1109.94 L 968.562 1109.94 L 968.562 1123.63 L 954.872 1123.63 L 954.872 1109.94 M 830.842 1085.85 L 844.532 1085.85 L 844.532 1099.54 L 830.842 1099.54 L 830.842 1085.85 M 830.842 1085.85 L 844.532 1085.85 L 844.532 1099.54 L 830.842 1099.54 L 830.842 1085.85 M 766.091 1155.38 L 779.781 1155.38 L 779.781 1169.07 L 766.091 1169.07 L 766.091 1155.38 M 766.091 1155.38 L 779.781 1155.38 L 779.781 1169.07 L 766.091 1169.07 L 766.091 1155.38 M 655.037 1185.81 L 668.727 1185.81 L 668.727 1199.5 L 655.037 1199.5 L 655.037 1185.81 M 655.037 1185.81 L 668.727 1185.81 L 668.727 1199.5 L 655.037 1199.5 L 655.037 1185.81 M 742.693 947.756 L 756.383 947.756 L 756.383 961.446 L 742.693 961.446 L 742.693 947.756 M 742.693 947.756 L 756.383 947.756 L 756.383 961.446 L 742.693 961.446 L 742.693 947.756 M 273.635 995.914 L 287.325 995.914 L 287.325 1009.6 L 273.635 1009.6 L 273.635 995.914 M 273.635 995.914 L 287.325 995.914 L 287.325 1009.6 L 273.635 1009.6 L 273.635 995.914 M 197.368 975.802 L 211.058 975.802 L 211.058 989.492 L 197.368 989.492 L 197.368 975.802 M 197.368 975.802 L 211.058 975.802 L 211.058 989.492 L 197.368 989.492 L 197.368 975.802 M 185.41 914.574 L 199.1 914.574 L 199.1 928.264 L 185.41 928.264 L 185.41 914.574 M 185.41 914.574 L 199.1 914.574 L 199.1 928.264 L 185.41 928.264 L 185.41 914.574 M 279.582 899.601 L 293.272 899.601 L 293.272 913.291 L 279.582 913.291 L 279.582 899.601 M 279.582 899.601 L 293.272 899.601 L 293.272 913.291 L 279.582 913.291 L 279.582 899.601 M 727.045 723.65 L 740.735 723.65 L 740.735 737.34 L 727.045 737.34 L 727.045 723.65 M 727.045 723.65 L 740.735 723.65 L 740.735 737.34 L 727.045 737.34 L 727.045 723.65 M 445.746 572.286 L 459.436 572.286 L 459.436 585.976 L 445.746 585.976 L 445.746 572.286 M 445.746 572.286 L 459.436 572.286 L 459.436 585.976 L 445.746 585.976 L 445.746 572.286 M 408.158 475.151 L 421.848 475.151 L 421.848 488.841 L 408.158 488.841 L 408.158 475.151 M 408.158 475.151 L 421.848 475.151 L 421.848 488.841 L 408.158 488.841 L 408.158 475.151 M 554.362 512.554 L 568.052 512.554 L 568.052 526.244 L 554.362 526.244 L 554.362 512.554 M 554.362 512.554 L 568.052 512.554 L 568.052 526.244 L 554.362 526.244 L 554.362 512.554 M 648.636 479.697 L 662.326 479.697 L 662.326 493.387 L 648.636 493.387 L 648.636 479.697 M 648.636 479.697 L 662.326 479.697 L 662.326 493.387 L 648.636 493.387 L 648.636 479.697 M 641.819 621.258 L 655.509 621.258 L 655.509 634.948 L 641.819 634.948 L 641.819 621.258 M 641.819 621.258 L 655.509 621.258 L 655.509 634.948 L 641.819 634.948 L 641.819 621.258 M 936.382 623.576 L 950.072 623.576 L 950.072 637.266 L 936.382 637.266 L 936.382 623.576 M 936.382 623.576 L 950.072 623.576 L 950.072 637.266 L 936.382 637.266 L 936.382 623.576 M 1015.7 538.84 L 1029.39 538.84 L 1029.39 552.53 L 1015.7 552.53 L 1015.7 538.84 M 1015.7 538.84 L 1029.39 538.84 L 1029.39 552.53 L 1015.7 552.53 L 1015.7 538.84 M 1447.96 634.721 L 1461.65 634.721 L 1461.65 648.411 L 1447.96 648.411 L 1447.96 634.721 M 1447.96 634.721 L 1461.65 634.721 L 1461.65 648.411 L 1447.96 648.411 L 1447.96 634.721 M 1583.98 600.217 L 1597.67 600.217 L 1597.67 613.907 L 1583.98 613.907 L 1583.98 600.217 M 1583.98 600.217 L 1597.67 600.217 L 1597.67 613.907 L 1583.98 613.907 L 1583.98 600.217 M 1688.49 533.141 L 1702.18 533.141 L 1702.18 546.831 L 1688.49 546.831 L 1688.49 533.141 M 1688.49 533.141 L 1702.18 533.141 L 1702.18 546.831 L 1688.49 546.831 L 1688.49 533.141 M 1484.89 291.786 L 1498.58 291.786 L 1498.58 305.476 L 1484.89 305.476 L 1484.89 291.786 M 1484.89 291.786 L 1498.58 291.786 L 1498.58 305.476 L 1484.89 305.476 L 1484.89 291.786 M 1726.19 445.244 L 1739.88 445.244 L 1739.88 458.934 L 1726.19 458.934 L 1726.19 445.244 M 1726.19 445.244 L 1739.88 445.244 L 1739.88 458.934 L 1726.19 458.934 L 1726.19 445.244 M 1806.52 431.712 L 1820.21 431.712 L 1820.21 445.402 L 1806.52 445.402 L 1806.52 431.712 M 1806.52 431.712 L 1820.21 431.712 L 1820.21 445.402 L 1806.52 445.402 L 1806.52 431.712" />
  <path class="h" d=" M 2109.71 633.091 L 2139.54 572.489 M 2176.8 532.525 L 2187.76 493.453 M 2121.38 463.112 L 2108.02 424.793 M 2080.6 445.822 L 2039.11 526.199 M 1921.62 474.389 L 1871.47 535.272 M 1927.19 291.649 L 1940.21 218.79 M 1980.02 207.449 L 1957.82 190.723 M 1990.16 167.165 L 1990.8 199.596 M 2053.7 291.666 L 2069.81 332.899 M 2204.42 408.462 L 2196.97 452.099 M 2233.72 345.248 L 2216.67 372.845 M 2287.73 572.261 L 2210.12 558.794 M 2113.92 635.559 L 2152.18 579.893 M 2346.96 663.71 L 2378.36 590.317 M 2338.95 733.15 L 2354.32 798.637 M 2300.89 870.311 L 2341.63 844.357 M 2337.28 898.751 L 2299.44 888.442 M 2284.98 969.728 L 2332.46 925.846 M 2293.89 1001.38 L 2359.2 1020.82 M 2416.91 1027.85 L 2467.01 1022.49 M 2203.02 860.819 L 2145.62 858.459 M 2163.26 911.609 L 2208.9 878.536 M 2131.29 947.576 L 2112.99 986.435 M 2057.22 836.073 L 1996.94 851.676 M 1662.57 1004.89 L 1708.03 1038.21 M 1645.23 1091.81 L 1641.63 1022.76 M 1619.13 982.546 L 1577.71 971.174 M 1502.59 907.16 L 1538.86 946.046 M 1552.21 1130.12 L 1615.42 1127.59 M 1466.71 716.681 L 1364.48 702.914 M 978.801 958.717 L 1051.38 918.887 M 863.688 879.556 L 916.238 945.607 M 851.94 886.154 L 880.993 965.401 M 735.197 989.986 L 706.516 1060.76 M 663.057 1222.5 L 665.407 1282.17 M 581.064 1269.41 L 559.702 1239.39 M 348.99 1057.45 L 361.55 1022.81 M 368.02 984.24 L 368.4 941.726 M 454.526 918.148 L 396.728 976.38 M 359.711 851.101 L 365.63 897.347 M 188.577 1050.11 L 228.908 1078.44 M 114.589 1101.57 L 177.439 1141.51 M 98.236 1260.45 L 88.1879 1141.22 M 79.4451 1295.71 L 31.815 1246.98 M 137.112 964.774 L 131.251 924.705 M 316.071 623.795 L 311.609 670.203 M 275.32 536.157 L 302.845 565.859 M 346.485 455.876 L 392.164 473.289 M 349.74 448.563 L 393.249 470.851 M 425.259 231.608 L 475.18 238.427 M 524.98 244.753 L 574.659 250.585 M 1605.84 168.311 L 1514.07 177.391 M 1649.48 285.853 L 1544.32 294.372 M 1752.47 183.352 L 1718.86 248.847 M 1827.07 207.18 L 1774.78 259.002 M 1594.59 16.9883 L 1547.91 34.9649 M 2467.96 420.481 L 2464.3 357.475 M 2550.51 289.205 L 2501.3 279.439 M 2561.92 268.798 L 2535.53 218.216 M 2546.9 204.02 L 2596.04 226.209 M 2584.15 123.508 L 2608.45 199.371 M 831.878 1325.59 L 826.281 1388.6" />
  <path class="h" d=" M 1990.09 163.638 L 1977.52 169.063 M 1966.98 167.602 L 1973.11 179.844 M 1932.91 182.199 L 1920.95 188.865 M 2054.05 292.561 L 2041.96 298.982 M 2110.29 431.309 L 2102.59 442.627 M 2185.9 500.097 L 2198.7 495.255 M 2204.26 409.409 L 2217.12 414.106 M 2235.57 342.246 L 2248.81 338.774 M 2470.01 298.714 L 2483.69 298.112 M 2483.44 262.499 L 2496.38 266.959 M 2563.38 104.214 L 2568.79 116.791 M 2593.05 87.0792 L 2595.52 100.545 M 2199.72 885.187 L 2186.75 880.814 M 2267.39 957.108 L 2279.13 950.073 M 2346.85 1017.14 L 2347.98 1003.5 M 2409.43 1028.65 L 2404.05 1016.06 M 2112.57 987.326 L 2113.03 973.643 M 2049.09 940.968 L 2053.49 928.005 M 1924.49 894.177 L 1928.86 881.205 M 1719.67 793.207 L 1730.21 784.473 M 1762.36 698.077 L 1775.99 696.791 M 1732.78 654.39 L 1719.79 650.06 M 1641.79 709.027 L 1628.19 710.622 M 1638.47 801.986 L 1626.51 808.644 M 1592.85 928.077 L 1580.02 923.3 M 1576.76 970.914 L 1572.24 983.836 M 1476.76 907.478 L 1487.85 915.498 M 1465.15 1100.72 L 1472.84 1089.4 M 1588.56 1128.66 L 1593.25 1115.81 M 1673.73 1103.54 L 1669.87 1090.41 M 1698.89 1031.51 L 1692.32 1043.52 M 1197.93 944.642 L 1208.74 936.242 M 1141.91 924.223 L 1154.31 918.428 M 1065.95 957.967 L 1052.45 960.227 M 1032.4 1088.04 L 1019.72 1093.2 M 1081.98 1249.1 L 1072.78 1238.97 M 877.174 1239.61 L 866.182 1231.45 M 828.66 1361.81 L 815.573 1357.79 M 759.546 1376.05 L 768.796 1365.96 M 637.411 1301.25 L 640.42 1287.9 M 569.779 1253.55 L 581.198 1246 M 556.697 1145.42 L 569.514 1140.61 M 578.918 1015.53 L 592.365 1012.96 M 625.132 937.981 L 618.757 950.096 M 566.522 931.542 L 554.334 925.307 M 664.652 916.545 L 677.144 922.146 M 442.222 977.94 L 447.978 965.519 M 355.625 1039.15 L 343.304 1033.19 M 224.538 1134.63 L 217.77 1122.73 M 109.79 1067.34 L 119.713 1076.77 M 39.9623 1162.65 L 45.0695 1175.35 M 40.8218 1256.19 L 44.0483 1242.89 M 146.293 1255.45 L 141.621 1242.58 M 135.254 952.074 L 147.311 945.59 M 284.044 545.57 L 296.359 539.592 M 304.253 470.325 L 317.868 471.76 M 332.296 345.674 L 345.575 349.001 M 417.801 230.589 L 424.153 242.717 M 545.403 247.151 L 539.018 259.26 M 639.73 319.547 L 626.496 323.049 M 725.774 342.866 L 719.758 355.163 M 783.105 409.591 L 771.381 416.66 M 926.141 476.039 L 937.238 484.056 M 943.187 382.339 L 955.166 375.712 M 921.373 308.908 L 935.028 307.921 M 1014.33 263.08 L 1003.11 270.926 M 1102.08 307.541 L 1093.43 318.145 M 1159.58 383.723 L 1154.24 396.325 M 1317.88 440.442 L 1304.56 443.62 M 1375.14 440.669 L 1387.98 445.421 M 1481.13 486.198 L 1477.32 473.047 M 1467 538.223 L 1465.4 551.818 M 1381.33 252.944 L 1393.98 258.178 M 1447.1 188.654 L 1452.25 201.339 M 1502.61 97.6874 L 1515.12 103.234 M 1575.4 24.3785 L 1581.97 36.3861 M 1647.25 143.148 L 1636.6 134.541 M 1672.13 161.485 L 1675.44 174.769" />
</svg>
