<?xml version="1.0"?>
<svg width="1042" height="742" version="1.1" xmlns="http://www.w3.org/2000/svg" xmlns:xlink="http://www.w3.org/1999/xlink">
  <defs>
  <style type="text/css">
    <![CDATA[
      .b {stroke:rgb(0,0,0);stroke-width:2.605000;fill:none}
      .c {stroke:rgb(128,128,128);stroke-width:1.302500;stroke-dasharray:5.210000, 5.210000;}
      .h {stroke:rgb(240,200,0);stroke-width:2.605000;}
      .m {stroke:rgb(255,0,0);stroke-width:1.302500;}
      .n {stroke:rgb(128,128,128);stroke-width:1.302500}
      .t {stroke:rgb(0,128,0);stroke-width:1.302500;}
      .tab {stroke:rgb(0,0,255);stroke-width:0.651250;fill:none}
      .v {stroke:rgb(0,0,255);stroke-width:1.302500;}
      .z {stroke:rgb(0,240,200);stroke-width:0.651250;}
    ]]>
  </style>
  </defs>
  <path fill="none" class="b" d=" M 592.541 412.762 L 635.776 387.236 L 595.803 417.617 L 635.902 486.178 L 664.646 413.266 L 641.779 488.229 L 650.299 597.967 L 578.968 514.142 L 501.617 496.1 L 547.041 557.141 L 616.816 637.502 L 732.477 655.87 L 780.55 625.851 L 699.793 572.803 L 704.582 523.637 L 706.304 573.005 L 799.266 599.344 L 770.055 537.644 L 805.056 596.254 L 883.653 555.57 L 848.986 498.926 L 772.796 470.135 L 712.428 427.214 L 775.802 465.557 L 855.506 482.324 L 803.23 402.556 L 859.554 479.519 L 907.839 525.115 L 986.097 478.131 L 930.125 446.139 L 872.088 402.147 L 930.4 445.775 L 988.756 473.177 L 1034.2 461.145 L 1011.24 399.671 L 959.413 382.572 L 1012.81 393.827 L 1008.04 323.008 L 934.174 298.299 L 902.837 343.43 L 854.192 322.113 L 808.347 305.977 L 855.574 317.454 L 906.646 332.028 L 939.074 287.675 L 894.114 242.64 L 855.851 262.984 L 890.933 237.544 L 849.689 199.705 L 799.932 192.735 L 808.383 236.17 L 794.059 194.303 L 763.416 217.259 L 729.357 247.826 L 769.349 266.225 L 727.763 251.784 L 736.052 303.716 L 770.421 355.78 L 732.131 306.527 L 716.385 256.351 L 737.405 215.7 L 752.602 180.557 L 789.967 146.967 L 746.468 133.214 L 708.374 178.64 L 680.9 143.512 L 687.714 120.876 L 621.018 114.987 L 612.15 167.423 L 653.71 201.275 L 689.202 225.419 L 649.46 209.195 L 636.85 270.852 L 667.015 293.587 L 688.975 323.355 L 711.652 367.192 L 686.52 324.715 L 660.202 298.72 L 624.894 285.297 L 580.327 285.449 L 624.626 280.566 L 602.839 221.524 L 551.545 237.079 L 516.669 274.065 L 469.657 267.83 L 516.95 271.341 L 547.286 230.549 L 501.072 204.233 L 440.116 236.764 L 498.057 199.124 L 514.71 134.273 L 536.608 143.178 L 567.956 111.459 L 511.684 92.8005 L 494.71 50.4545 L 445.712 23.3961 L 383.967 8 L 439.363 76.8511 L 425.856 151.624 L 473.24 135.598 L 429.943 160.647 L 355.665 242.045 L 303.948 265.534 L 353.766 238.248 L 422.221 151.894 L 365.633 186.108 L 286.13 185.927 L 248.769 242.526 L 281.981 183.397 L 359.83 167.258 L 413.397 128.486 L 392.963 55.302 L 348.216 119.386 L 287.331 119.112 L 237.353 137.475 L 283.252 110.488 L 340.828 90.6885 L 393.675 33.1015 L 307.971 11.5616 L 234.744 38.0978 L 211.372 96.8898 L 271.833 66.1427 L 217.424 106.647 L 186.118 156.138 L 206.355 101.185 L 173.296 126.086 L 202.652 96.9105 L 179.777 37.923 L 161.334 96.1341 L 164.504 35.1536 L 101.007 66.8755 L 115.818 111.913 L 92.4982 70.6345 L 69.8021 132.208 L 104.527 163.644 L 143.459 155.286 L 107.571 172.537 L 132.163 204.385 L 168.151 208.726 L 221.699 193.394 L 170.916 216.276 L 204.267 274.705 L 162.833 221.701 L 128.887 234.413 L 90.2537 223.164 L 113.198 265.826 L 160.454 288.584 L 110.615 272.24 L 115.366 343.367 L 149.424 337.648 L 116.445 347.899 L 93.1951 280.511 L 72.451 319.119 L 87.1892 277.844 L 42.5253 259.091 L 16.9007 298.301 L 8 344.464 L 34.1495 431.916 L 69.3659 369.421 L 38.7829 434.31 L 99.1026 418.214 L 40.8129 440.572 L 103.137 503.408 L 158.477 515.638 L 152.575 426.71 L 169.081 514.292 L 190.741 439.399 L 193.679 359.179 L 200.386 439.172 L 259.839 436.376 L 201.017 445.454 L 253.331 483.701 L 199.071 448.269 L 207.405 525.785 L 319.223 560.594 L 425.544 565.294 L 409.091 510.739 L 351.233 486.686 L 320.61 412.652 L 251.216 369.987 L 324.155 406.259 L 382.907 407.15 L 324.24 410.437 L 372.688 474.247 L 435.212 470.156 L 517.453 421.76 L 529.722 365.318 L 454.607 383.938 L 394.4 347.706 L 283.146 318.868 L 396.626 337.071 L 462.255 362.181 L 529.447 323.786 L 582.417 347.264 L 527.194 329.732 L 541.675 385.647 L 498.646 470.819 L 554.995 479.289 L 587.898 410.683 L 619.721 345.85 L 592.541 412.762" />
  <path class="c" d=" M 635.776 387.236 L 619.721 345.85 M 619.721 345.85 L 582.417 347.264 M 582.417 347.264 L 580.327 285.449 M 580.327 285.449 L 529.447 323.786 M 529.447 323.786 L 516.669 274.065 M 516.95 271.341 L 501.072 204.233 M 498.057 199.124 L 473.24 135.598 M 473.24 135.598 L 440.116 236.764 M 440.116 236.764 L 303.948 265.534 M 303.948 265.534 L 248.769 242.526 M 248.769 242.526 L 221.699 193.394 M 221.699 193.394 L 186.118 156.138 M 186.118 156.138 L 173.296 126.086 M 173.296 126.086 L 161.334 96.1341 M 161.334 96.1341 L 101.007 66.8755 M 115.818 111.913 L 161.334 96.1341 M 202.652 96.9105 L 161.334 96.1341 M 217.424 106.647 L 283.252 110.488 M 283.252 110.488 L 271.833 66.1427 M 271.833 66.1427 L 307.971 11.5616 M 307.971 11.5616 L 340.828 90.6885 M 271.833 66.1427 L 340.828 90.6885 M 359.83 167.258 L 287.331 119.112 M 237.353 137.475 L 217.424 106.647 M 186.118 156.138 L 237.353 137.475 M 221.699 193.394 L 237.353 137.475 M 221.699 193.394 L 281.981 183.397 M 281.981 183.397 L 237.353 137.475 M 281.981 183.397 L 287.331 119.112 M 359.83 167.258 L 348.216 119.386 M 413.397 128.486 L 348.216 119.386 M 439.363 76.8511 L 494.71 50.4545 M 511.684 92.8005 L 473.24 135.598 M 473.24 135.598 L 439.363 76.8511 M 445.712 23.3961 L 439.363 76.8511 M 511.684 92.8005 L 439.363 76.8511 M 514.71 134.273 L 473.24 135.598 M 514.71 134.273 L 511.684 92.8005 M 536.608 143.178 L 511.684 92.8005 M 612.15 167.423 L 680.9 143.512 M 680.9 143.512 L 621.018 114.987 M 653.71 201.275 L 680.9 143.512 M 708.374 178.64 L 752.602 180.557 M 752.602 180.557 L 746.468 133.214 M 708.374 178.64 L 689.202 225.419 M 689.202 225.419 L 636.85 270.852 M 624.894 285.297 L 619.721 345.85 M 582.417 347.264 L 624.894 285.297 M 660.202 298.72 L 619.721 345.85 M 635.776 387.236 L 660.202 298.72 M 667.015 293.587 L 689.202 225.419 M 689.202 225.419 L 737.405 215.7 M 737.405 215.7 L 708.374 178.64 M 653.71 201.275 L 708.374 178.64 M 763.416 217.259 L 808.383 236.17 M 808.383 236.17 L 849.689 199.705 M 808.383 236.17 L 855.851 262.984 M 855.851 262.984 L 849.689 199.705 M 855.851 262.984 L 939.074 287.675 M 906.646 332.028 L 855.851 262.984 M 855.574 317.454 L 855.851 262.984 M 808.347 305.977 L 808.383 236.17 M 769.349 266.225 L 763.416 217.259 M 769.349 266.225 L 808.383 236.17 M 769.349 266.225 L 808.347 305.977 M 808.347 305.977 L 855.851 262.984 M 808.347 305.977 L 872.088 402.147 M 872.088 402.147 L 854.192 322.113 M 872.088 402.147 L 902.837 343.43 M 872.088 402.147 L 959.413 382.572 M 959.413 382.572 L 902.837 343.43 M 959.413 382.572 L 1008.04 323.008 M 1008.04 323.008 L 902.837 343.43 M 930.4 445.775 L 959.413 382.572 M 1011.24 399.671 L 930.4 445.775 M 988.756 473.177 L 1011.24 399.671 M 907.839 525.115 L 930.125 446.139 M 859.554 479.519 L 872.088 402.147 M 803.23 402.556 L 808.347 305.977 M 770.421 355.78 L 769.349 266.225 M 736.052 303.716 L 769.349 266.225 M 716.385 256.351 L 689.202 225.419 M 667.015 293.587 L 716.385 256.351 M 688.975 323.355 L 716.385 256.351 M 688.975 323.355 L 732.131 306.527 M 770.421 355.78 L 808.347 305.977 M 770.421 355.78 L 803.23 402.556 M 803.23 402.556 L 872.088 402.147 M 859.554 479.519 L 930.125 446.139 M 775.802 465.557 L 770.421 355.78 M 711.652 367.192 L 732.131 306.527 M 711.652 367.192 L 770.421 355.78 M 712.428 427.214 L 711.652 367.192 M 712.428 427.214 L 770.421 355.78 M 775.802 465.557 L 803.23 402.556 M 664.646 413.266 L 635.776 387.236 M 635.776 387.236 L 686.52 324.715 M 664.646 413.266 L 686.52 324.715 M 664.646 413.266 L 711.652 367.192 M 664.646 413.266 L 712.428 427.214 M 641.779 488.229 L 704.582 523.637 M 704.582 523.637 L 664.646 413.266 M 587.898 410.683 L 541.675 385.647 M 541.675 385.647 L 582.417 347.264 M 529.447 323.786 L 551.545 237.079 M 580.327 285.449 L 551.545 237.079 M 580.327 285.449 L 602.839 221.524 M 469.657 267.83 L 440.116 236.764 M 440.116 236.764 L 355.665 242.045 M 353.766 238.248 L 286.13 185.927 M 303.948 265.534 L 286.13 185.927 M 353.766 238.248 L 365.633 186.108 M 440.116 236.764 L 429.943 160.647 M 469.657 267.83 L 501.072 204.233 M 462.255 362.181 L 469.657 267.83 M 462.255 362.181 L 516.669 274.065 M 454.607 383.938 L 382.907 407.15 M 382.907 407.15 L 394.4 347.706 M 396.626 337.071 L 303.948 265.534 M 283.146 318.868 L 248.769 242.526 M 204.267 274.705 L 221.699 193.394 M 168.151 208.726 L 143.459 155.286 M 143.459 155.286 L 115.818 111.913 M 69.8021 132.208 L 115.818 111.913 M 143.459 155.286 L 161.334 96.1341 M 143.459 155.286 L 173.296 126.086 M 143.459 155.286 L 186.118 156.138 M 168.151 208.726 L 186.118 156.138 M 132.163 204.385 L 143.459 155.286 M 104.527 163.644 L 115.818 111.913 M 234.744 38.0978 L 271.833 66.1427 M 204.267 274.705 L 248.769 242.526 M 204.267 274.705 L 283.146 318.868 M 283.146 318.868 L 303.948 265.534 M 251.216 369.987 L 193.679 359.179 M 193.679 359.179 L 149.424 337.648 M 149.424 337.648 L 152.575 426.71 M 152.575 426.71 L 99.1026 418.214 M 99.1026 418.214 L 69.3659 369.421 M 69.3659 369.421 L 8 344.464 M 69.3659 369.421 L 72.451 319.119 M 72.451 319.119 L 8 344.464 M 72.451 319.119 L 16.9007 298.301 M 72.451 319.119 L 42.5253 259.091 M 113.198 265.826 L 128.887 234.413 M 160.454 288.584 L 128.887 234.413 M 160.454 288.584 L 162.833 221.701 M 160.454 288.584 L 204.267 274.705 M 149.424 337.648 L 110.615 272.24 M 116.445 347.899 L 99.1026 418.214 M 152.575 426.71 L 116.445 347.899 M 116.445 347.899 L 69.3659 369.421 M 116.445 347.899 L 72.451 319.119 M 149.424 337.648 L 160.454 288.584 M 193.679 359.179 L 160.454 288.584 M 193.679 359.179 L 204.267 274.705 M 251.216 369.987 L 204.267 274.705 M 251.216 369.987 L 283.146 318.868 M 324.155 406.259 L 283.146 318.868 M 324.155 406.259 L 394.4 347.706 M 396.626 337.071 L 440.116 236.764 M 396.626 337.071 L 469.657 267.83 M 517.453 421.76 L 454.607 383.938 M 435.212 470.156 L 454.607 383.938 M 372.688 474.247 L 382.907 407.15 M 372.688 474.247 L 454.607 383.938 M 587.898 410.683 L 582.417 347.264 M 554.995 479.289 L 541.675 385.647 M 635.902 486.178 L 635.776 387.236 M 704.582 523.637 L 712.428 427.214 M 704.582 523.637 L 772.796 470.135 M 770.055 537.644 L 772.796 470.135 M 770.055 537.644 L 848.986 498.926 M 770.055 537.644 L 883.653 555.57 M 706.304 573.005 L 770.055 537.644 M 704.582 523.637 L 770.055 537.644 M 732.477 655.87 L 699.793 572.803 M 650.299 597.967 L 547.041 557.141 M 547.041 557.141 L 578.968 514.142 M 650.299 597.967 L 704.582 523.637 M 650.299 597.967 L 699.793 572.803 M 650.299 597.967 L 732.477 655.87 M 616.816 637.502 L 650.299 597.967 M 319.223 560.594 L 253.331 483.701 M 253.331 483.701 L 207.405 525.785 M 158.477 515.638 L 99.1026 418.214 M 103.137 503.408 L 99.1026 418.214 M 190.741 439.399 L 152.575 426.71 M 190.741 439.399 L 149.424 337.648 M 259.839 436.376 L 193.679 359.179 M 259.839 436.376 L 251.216 369.987 M 259.839 436.376 L 320.61 412.652 M 259.839 436.376 L 351.233 486.686 M 319.223 560.594 L 259.839 436.376 M 253.331 483.701 L 259.839 436.376 M 319.223 560.594 L 351.233 486.686 M 319.223 560.594 L 409.091 510.739" />
  <path class="z" fill="none" d=" M 592.541 412.762 L 619.721 345.85 L 587.898 410.683 M 592.541 412.762 L 619.721 345.85 L 587.898 410.683 M 527.194 329.732 L 582.417 347.264 L 529.447 323.786 M 527.194 329.732 L 582.417 347.264 L 529.447 323.786 M 529.447 323.786 L 462.255 362.181 L 396.626 337.071 L 283.146 318.868 L 394.4 347.706 L 454.607 383.938 L 529.722 365.318 M 529.447 323.786 L 462.255 362.181 L 396.626 337.071 L 283.146 318.868 L 394.4 347.706 L 454.607 383.938 L 529.722 365.318 M 324.24 410.437 L 382.907 407.15 L 324.155 406.259 M 324.24 410.437 L 382.907 407.15 L 324.155 406.259 M 324.155 406.259 L 251.216 369.987 L 320.61 412.652 M 324.155 406.259 L 251.216 369.987 L 320.61 412.652 M 199.071 448.269 L 253.331 483.701 L 201.017 445.454 M 199.071 448.269 L 253.331 483.701 L 201.017 445.454 M 201.017 445.454 L 259.839 436.376 L 200.386 439.172 M 201.017 445.454 L 259.839 436.376 L 200.386 439.172 M 200.386 439.172 L 193.679 359.179 L 190.741 439.399 M 200.386 439.172 L 193.679 359.179 L 190.741 439.399 M 169.081 514.292 L 152.575 426.71 L 158.477 515.638 M 169.081 514.292 L 152.575 426.71 L 158.477 515.638 M 40.8129 440.572 L 99.1026 418.214 L 38.7829 434.31 M 40.8129 440.572 L 99.1026 418.214 L 38.7829 434.31 M 38.7829 434.31 L 69.3659 369.421 L 34.1495 431.916 M 38.7829 434.31 L 69.3659 369.421 L 34.1495 431.916 M 87.1892 277.844 L 72.451 319.119 L 93.1951 280.511 M 87.1892 277.844 L 72.451 319.119 L 93.1951 280.511 M 93.1951 280.511 L 116.445 347.899 L 149.424 337.648 L 115.366 343.367 L 110.615 272.24 M 93.1951 280.511 L 116.445 347.899 L 149.424 337.648 L 115.366 343.367 L 110.615 272.24 M 110.615 272.24 L 160.454 288.584 L 113.198 265.826 M 110.615 272.24 L 160.454 288.584 L 113.198 265.826 M 162.833 221.701 L 204.267 274.705 L 170.916 216.276 M 162.833 221.701 L 204.267 274.705 L 170.916 216.276 M 170.916 216.276 L 221.699 193.394 L 168.151 208.726 M 170.916 216.276 L 221.699 193.394 L 168.151 208.726 M 107.571 172.537 L 143.459 155.286 L 104.527 163.644 M 107.571 172.537 L 143.459 155.286 L 104.527 163.644 M 92.4982 70.6345 L 115.818 111.913 L 101.007 66.8755 M 92.4982 70.6345 L 115.818 111.913 L 101.007 66.8755 M 164.504 35.1536 L 161.334 96.1341 L 179.777 37.923 M 164.504 35.1536 L 161.334 96.1341 L 179.777 37.923 M 202.652 96.9105 L 173.296 126.086 L 206.355 101.185 M 202.652 96.9105 L 173.296 126.086 L 206.355 101.185 M 206.355 101.185 L 186.118 156.138 L 217.424 106.647 M 206.355 101.185 L 186.118 156.138 L 217.424 106.647 M 217.424 106.647 L 271.833 66.1427 L 211.372 96.8898 M 217.424 106.647 L 271.833 66.1427 L 211.372 96.8898 M 393.675 33.1015 L 340.828 90.6885 L 283.252 110.488 L 237.353 137.475 L 287.331 119.112 L 348.216 119.386 L 392.963 55.302 M 393.675 33.1015 L 340.828 90.6885 L 283.252 110.488 L 237.353 137.475 L 287.331 119.112 L 348.216 119.386 L 392.963 55.302 M 413.397 128.486 L 359.83 167.258 L 281.981 183.397 L 248.769 242.526 L 286.13 185.927 L 365.633 186.108 L 422.221 151.894 M 413.397 128.486 L 359.83 167.258 L 281.981 183.397 L 248.769 242.526 L 286.13 185.927 L 365.633 186.108 L 422.221 151.894 M 422.221 151.894 L 353.766 238.248 L 303.948 265.534 L 355.665 242.045 L 429.943 160.647 M 422.221 151.894 L 353.766 238.248 L 303.948 265.534 L 355.665 242.045 L 429.943 160.647 M 429.943 160.647 L 473.24 135.598 L 425.856 151.624 M 429.943 160.647 L 473.24 135.598 L 425.856 151.624 M 498.057 199.124 L 440.116 236.764 L 501.072 204.233 M 498.057 199.124 L 440.116 236.764 L 501.072 204.233 M 547.286 230.549 L 516.95 271.341 L 469.657 267.83 L 516.669 274.065 L 551.545 237.079 M 547.286 230.549 L 516.95 271.341 L 469.657 267.83 L 516.669 274.065 L 551.545 237.079 M 624.626 280.566 L 580.327 285.449 L 624.894 285.297 M 624.626 280.566 L 580.327 285.449 L 624.894 285.297 M 624.894 285.297 L 660.202 298.72 L 686.52 324.715 L 711.652 367.192 L 688.975 323.355 L 667.015 293.587 L 636.85 270.852 M 624.894 285.297 L 660.202 298.72 L 686.52 324.715 L 711.652 367.192 L 688.975 323.355 L 667.015 293.587 L 636.85 270.852 M 649.46 209.195 L 689.202 225.419 L 653.71 201.275 M 649.46 209.195 L 689.202 225.419 L 653.71 201.275 M 716.385 256.351 L 732.131 306.527 L 770.421 355.78 L 736.052 303.716 L 727.763 251.784 M 716.385 256.351 L 732.131 306.527 L 770.421 355.78 L 736.052 303.716 L 727.763 251.784 M 727.763 251.784 L 769.349 266.225 L 729.357 247.826 M 727.763 251.784 L 769.349 266.225 L 729.357 247.826 M 794.059 194.303 L 808.383 236.17 L 799.932 192.735 M 794.059 194.303 L 808.383 236.17 L 799.932 192.735 M 890.933 237.544 L 855.851 262.984 L 894.114 242.64 M 890.933 237.544 L 855.851 262.984 L 894.114 242.64 M 939.074 287.675 L 906.646 332.028 L 855.574 317.454 L 808.347 305.977 L 854.192 322.113 L 902.837 343.43 L 934.174 298.299 M 939.074 287.675 L 906.646 332.028 L 855.574 317.454 L 808.347 305.977 L 854.192 322.113 L 902.837 343.43 L 934.174 298.299 M 1012.81 393.827 L 959.413 382.572 L 1011.24 399.671 M 1012.81 393.827 L 959.413 382.572 L 1011.24 399.671 M 988.756 473.177 L 930.4 445.775 L 872.088 402.147 L 930.125 446.139 L 986.097 478.131 M 988.756 473.177 L 930.4 445.775 L 872.088 402.147 L 930.125 446.139 L 986.097 478.131 M 859.554 479.519 L 803.23 402.556 L 855.506 482.324 M 859.554 479.519 L 803.23 402.556 L 855.506 482.324 M 855.506 482.324 L 775.802 465.557 L 712.428 427.214 L 772.796 470.135 L 848.986 498.926 M 855.506 482.324 L 775.802 465.557 L 712.428 427.214 L 772.796 470.135 L 848.986 498.926 M 805.056 596.254 L 770.055 537.644 L 799.266 599.344 M 805.056 596.254 L 770.055 537.644 L 799.266 599.344 M 799.266 599.344 L 706.304 573.005 L 704.582 523.637 L 699.793 572.803 L 780.55 625.851 M 799.266 599.344 L 706.304 573.005 L 704.582 523.637 L 699.793 572.803 L 780.55 625.851 M 578.968 514.142 L 650.299 597.967 L 641.779 488.229 M 578.968 514.142 L 650.299 597.967 L 641.779 488.229 M 641.779 488.229 L 664.646 413.266 L 635.902 486.178 M 641.779 488.229 L 664.646 413.266 L 635.902 486.178 M 595.803 417.617 L 635.776 387.236 L 592.541 412.762 M 595.803 417.617 L 635.776 387.236 L 592.541 412.762" />
  <path class="z" d=" M 617.116 343.245 L 622.326 343.245 L 622.326 348.455 L 617.116 348.455 L 617.116 343.245 M 617.116 343.245 L 622.326 343.245 L 622.326 348.455 L 617.116 348.455 L 617.116 343.245 M 579.812 344.659 L 585.022 344.659 L 585.022 349.869 L 579.812 349.869 L 579.812 344.659 M 579.812 344.659 L 585.022 344.659 L 585.022 349.869 L 579.812 349.869 L 579.812 344.659 M 280.541 316.263 L 285.751 316.263 L 285.751 321.473 L 280.541 321.473 L 280.541 316.263 M 280.541 316.263 L 285.751 316.263 L 285.751 321.473 L 280.541 321.473 L 280.541 316.263 M 380.302 404.545 L 385.512 404.545 L 385.512 409.755 L 380.302 409.755 L 380.302 404.545 M 380.302 404.545 L 385.512 404.545 L 385.512 409.755 L 380.302 409.755 L 380.302 404.545 M 248.611 367.382 L 253.821 367.382 L 253.821 372.592 L 248.611 372.592 L 248.611 367.382 M 248.611 367.382 L 253.821 367.382 L 253.821 372.592 L 248.611 372.592 L 248.611 367.382 M 250.726 481.096 L 255.936 481.096 L 255.936 486.306 L 250.726 486.306 L 250.726 481.096 M 250.726 481.096 L 255.936 481.096 L 255.936 486.306 L 250.726 486.306 L 250.726 481.096 M 257.234 433.771 L 262.444 433.771 L 262.444 438.981 L 257.234 438.981 L 257.234 433.771 M 257.234 433.771 L 262.444 433.771 L 262.444 438.981 L 257.234 438.981 L 257.234 433.771 M 191.074 356.574 L 196.284 356.574 L 196.284 361.784 L 191.074 361.784 L 191.074 356.574 M 191.074 356.574 L 196.284 356.574 L 196.284 361.784 L 191.074 361.784 L 191.074 356.574 M 149.97 424.105 L 155.18 424.105 L 155.18 429.315 L 149.97 429.315 L 149.97 424.105 M 149.97 424.105 L 155.18 424.105 L 155.18 429.315 L 149.97 429.315 L 149.97 424.105 M 96.4976 415.609 L 101.708 415.609 L 101.708 420.819 L 96.4976 420.819 L 96.4976 415.609 M 96.4976 415.609 L 101.708 415.609 L 101.708 420.819 L 96.4976 420.819 L 96.4976 415.609 M 66.7609 366.816 L 71.9709 366.816 L 71.9709 372.026 L 66.7609 372.026 L 66.7609 366.816 M 66.7609 366.816 L 71.9709 366.816 L 71.9709 372.026 L 66.7609 372.026 L 66.7609 366.816 M 69.846 316.514 L 75.056 316.514 L 75.056 321.724 L 69.846 321.724 L 69.846 316.514 M 69.846 316.514 L 75.056 316.514 L 75.056 321.724 L 69.846 321.724 L 69.846 316.514 M 146.819 335.043 L 152.029 335.043 L 152.029 340.253 L 146.819 340.253 L 146.819 335.043 M 146.819 335.043 L 152.029 335.043 L 152.029 340.253 L 146.819 340.253 L 146.819 335.043 M 157.849 285.979 L 163.059 285.979 L 163.059 291.189 L 157.849 291.189 L 157.849 285.979 M 157.849 285.979 L 163.059 285.979 L 163.059 291.189 L 157.849 291.189 L 157.849 285.979 M 201.662 272.1 L 206.872 272.1 L 206.872 277.31 L 201.662 277.31 L 201.662 272.1 M 201.662 272.1 L 206.872 272.1 L 206.872 277.31 L 201.662 277.31 L 201.662 272.1 M 219.094 190.789 L 224.304 190.789 L 224.304 195.999 L 219.094 195.999 L 219.094 190.789 M 219.094 190.789 L 224.304 190.789 L 224.304 195.999 L 219.094 195.999 L 219.094 190.789 M 140.854 152.681 L 146.064 152.681 L 146.064 157.891 L 140.854 157.891 L 140.854 152.681 M 140.854 152.681 L 146.064 152.681 L 146.064 157.891 L 140.854 157.891 L 140.854 152.681 M 113.213 109.308 L 118.423 109.308 L 118.423 114.518 L 113.213 114.518 L 113.213 109.308 M 113.213 109.308 L 118.423 109.308 L 118.423 114.518 L 113.213 114.518 L 113.213 109.308 M 158.729 93.5291 L 163.939 93.5291 L 163.939 98.7391 L 158.729 98.7391 L 158.729 93.5291 M 158.729 93.5291 L 163.939 93.5291 L 163.939 98.7391 L 158.729 98.7391 L 158.729 93.5291 M 170.691 123.481 L 175.901 123.481 L 175.901 128.691 L 170.691 128.691 L 170.691 123.481 M 170.691 123.481 L 175.901 123.481 L 175.901 128.691 L 170.691 128.691 L 170.691 123.481 M 183.513 153.533 L 188.723 153.533 L 188.723 158.743 L 183.513 158.743 L 183.513 153.533 M 183.513 153.533 L 188.723 153.533 L 188.723 158.743 L 183.513 158.743 L 183.513 153.533 M 269.228 63.5377 L 274.438 63.5377 L 274.438 68.7477 L 269.228 68.7477 L 269.228 63.5377 M 269.228 63.5377 L 274.438 63.5377 L 274.438 68.7477 L 269.228 68.7477 L 269.228 63.5377 M 234.748 134.87 L 239.958 134.87 L 239.958 140.08 L 234.748 140.08 L 234.748 134.87 M 234.748 134.87 L 239.958 134.87 L 239.958 140.08 L 234.748 140.08 L 234.748 134.87 M 246.164 239.921 L 251.374 239.921 L 251.374 245.131 L 246.164 245.131 L 246.164 239.921 M 246.164 239.921 L 251.374 239.921 L 251.374 245.131 L 246.164 245.131 L 246.164 239.921 M 301.343 262.929 L 306.553 262.929 L 306.553 268.139 L 301.343 268.139 L 301.343 262.929 M 301.343 262.929 L 306.553 262.929 L 306.553 268.139 L 301.343 268.139 L 301.343 262.929 M 470.635 132.993 L 475.845 132.993 L 475.845 138.203 L 470.635 138.203 L 470.635 132.993 M 470.635 132.993 L 475.845 132.993 L 475.845 138.203 L 470.635 138.203 L 470.635 132.993 M 437.511 234.159 L 442.721 234.159 L 442.721 239.369 L 437.511 239.369 L 437.511 234.159 M 437.511 234.159 L 442.721 234.159 L 442.721 239.369 L 437.511 239.369 L 437.511 234.159 M 467.052 265.225 L 472.262 265.225 L 472.262 270.435 L 467.052 270.435 L 467.052 265.225 M 467.052 265.225 L 472.262 265.225 L 472.262 270.435 L 467.052 270.435 L 467.052 265.225 M 577.722 282.844 L 582.932 282.844 L 582.932 288.054 L 577.722 288.054 L 577.722 282.844 M 577.722 282.844 L 582.932 282.844 L 582.932 288.054 L 577.722 288.054 L 577.722 282.844 M 709.047 364.587 L 714.257 364.587 L 714.257 369.797 L 709.047 369.797 L 709.047 364.587 M 709.047 364.587 L 714.257 364.587 L 714.257 369.797 L 709.047 369.797 L 709.047 364.587 M 686.597 222.814 L 691.807 222.814 L 691.807 228.024 L 686.597 228.024 L 686.597 222.814 M 686.597 222.814 L 691.807 222.814 L 691.807 228.024 L 686.597 228.024 L 686.597 222.814 M 767.816 353.175 L 773.026 353.175 L 773.026 358.385 L 767.816 358.385 L 767.816 353.175 M 767.816 353.175 L 773.026 353.175 L 773.026 358.385 L 767.816 358.385 L 767.816 353.175 M 766.744 263.62 L 771.954 263.62 L 771.954 268.83 L 766.744 268.83 L 766.744 263.62 M 766.744 263.62 L 771.954 263.62 L 771.954 268.83 L 766.744 268.83 L 766.744 263.62 M 805.778 233.565 L 810.988 233.565 L 810.988 238.775 L 805.778 238.775 L 805.778 233.565 M 805.778 233.565 L 810.988 233.565 L 810.988 238.775 L 805.778 238.775 L 805.778 233.565 M 853.246 260.379 L 858.456 260.379 L 858.456 265.589 L 853.246 265.589 L 853.246 260.379 M 853.246 260.379 L 858.456 260.379 L 858.456 265.589 L 853.246 265.589 L 853.246 260.379 M 805.742 303.372 L 810.952 303.372 L 810.952 308.582 L 805.742 308.582 L 805.742 303.372 M 805.742 303.372 L 810.952 303.372 L 810.952 308.582 L 805.742 308.582 L 805.742 303.372 M 956.808 379.967 L 962.018 379.967 L 962.018 385.177 L 956.808 385.177 L 956.808 379.967 M 956.808 379.967 L 962.018 379.967 L 962.018 385.177 L 956.808 385.177 L 956.808 379.967 M 869.483 399.542 L 874.693 399.542 L 874.693 404.752 L 869.483 404.752 L 869.483 399.542 M 869.483 399.542 L 874.693 399.542 L 874.693 404.752 L 869.483 404.752 L 869.483 399.542 M 800.625 399.951 L 805.835 399.951 L 805.835 405.161 L 800.625 405.161 L 800.625 399.951 M 800.625 399.951 L 805.835 399.951 L 805.835 405.161 L 800.625 405.161 L 800.625 399.951 M 709.823 424.609 L 715.033 424.609 L 715.033 429.819 L 709.823 429.819 L 709.823 424.609 M 709.823 424.609 L 715.033 424.609 L 715.033 429.819 L 709.823 429.819 L 709.823 424.609 M 767.45 535.039 L 772.66 535.039 L 772.66 540.249 L 767.45 540.249 L 767.45 535.039 M 767.45 535.039 L 772.66 535.039 L 772.66 540.249 L 767.45 540.249 L 767.45 535.039 M 701.977 521.032 L 707.187 521.032 L 707.187 526.242 L 701.977 526.242 L 701.977 521.032 M 701.977 521.032 L 707.187 521.032 L 707.187 526.242 L 701.977 526.242 L 701.977 521.032 M 647.694 595.362 L 652.904 595.362 L 652.904 600.572 L 647.694 600.572 L 647.694 595.362 M 647.694 595.362 L 652.904 595.362 L 652.904 600.572 L 647.694 600.572 L 647.694 595.362 M 662.041 410.661 L 667.251 410.661 L 667.251 415.871 L 662.041 415.871 L 662.041 410.661 M 662.041 410.661 L 667.251 410.661 L 667.251 415.871 L 662.041 415.871 L 662.041 410.661 M 633.171 384.631 L 638.381 384.631 L 638.381 389.841 L 633.171 389.841 L 633.171 384.631 M 633.171 384.631 L 638.381 384.631 L 638.381 389.841 L 633.171 389.841 L 633.171 384.631" />
  <path class="h" d=" M 316.185 31.3433 L 332.614 70.9068 M 356.926 155.29 L 351.119 131.354 M 356.733 225.213 L 362.667 199.143 M 464.959 160.89 L 448.397 211.473 M 876.657 269.157 L 918.268 281.502 M 914.753 320.94 L 930.967 298.763 M 910.671 332.148 L 926.34 309.582 M 879.775 387.468 L 895.15 358.109" />
  <path class="h" d=" M 600.528 425.695 L 604.048 421.854 M 579.058 429.116 L 575.66 425.166 M 546.942 478.078 L 546.646 472.877 M 510.731 498.226 L 513.464 502.661 M 513.822 512.501 L 519.03 512.632 M 511.94 444.505 L 515.993 447.779 M 460.621 455.204 L 460.183 450.013 M 409.164 471.861 L 411.556 467.232 M 384.987 500.719 L 381.135 504.226 M 354.193 449.888 L 357.099 445.564 M 339.543 458.424 L 334.521 457.035 M 349.788 561.945 L 353.731 558.54 M 423.193 557.497 L 417.985 557.652 M 272.985 546.2 L 271.422 541.23 M 203.997 494.088 L 209.095 493.014 M 177.938 483.667 L 175.819 478.908 M 116.752 506.417 L 115.73 501.308 M 94.0361 494.233 L 94.3826 489.034 M 28.6497 413.524 L 32.1839 409.695 M 14.9445 308.447 L 20.067 309.397 M 29.5749 278.907 L 33.3751 282.471 M 76.3806 273.306 L 75.9354 278.497 M 107.645 255.502 L 111.343 251.831 M 120.52 231.976 L 119.418 237.069 M 145.313 228.262 L 146.582 233.315 M 149.577 206.486 L 148.959 201.313 M 126.837 197.488 L 128.747 192.64 M 86.9775 147.757 L 90.2436 143.698 M 80.8402 102.262 L 85.8625 103.648 M 152.587 41.1073 L 153.405 46.2527 M 197.576 83.823 L 192.643 85.4987 M 216.557 83.8457 L 221.519 82.2566 M 275.406 23.3628 L 274.972 28.5547 M 338.12 19.1389 L 338.317 24.3452 M 403.454 32.2203 L 408.554 31.1554 M 423.32 17.8126 L 424.686 22.8402 M 462.395 32.6093 L 459.99 37.2306 M 499.34 62.0059 L 494.283 63.2576 M 532.799 99.8018 L 533.255 104.992 M 560.767 118.733 L 556.16 116.299 M 529.012 140.089 L 527.219 135.197 M 508.603 158.055 L 504.205 155.262 M 533.856 222.901 L 532.139 227.82 M 574.262 230.19 L 574.831 235.369 M 611.845 245.928 L 608.596 250.001 M 644.248 234.681 L 649.35 233.629 M 630.556 182.416 L 634.679 179.23 M 614.727 152.185 L 619.893 151.508 M 663.255 118.717 L 666.276 122.962 M 683.263 135.66 L 678.319 134.018 M 702.074 170.585 L 697.675 173.376 M 732.174 150.259 L 735.086 154.579 M 746.382 194.941 L 741.594 192.888 M 735.148 220.064 L 729.973 220.667 M 759.759 220.541 L 760.83 225.64 M 781.516 203.699 L 784.838 207.713 M 779.046 156.785 L 774.825 153.731 M 778.101 143.215 L 775.163 147.518 M 835.146 197.668 L 832.173 201.946 M 876.89 224.66 L 874.383 229.227 M 910.419 258.972 L 905.223 259.354 M 967.023 309.288 L 962.423 311.735 M 1008.93 336.3 L 1005.13 339.857 M 1023.03 431.248 L 1019.74 435.282 M 1024.21 463.79 L 1023.18 458.683 M 924.298 515.234 L 924.736 510.042 M 893.565 511.636 L 896.104 507.087 M 873.405 538.825 L 868.195 538.765 M 816.533 590.313 L 813.086 586.407 M 768.723 633.237 L 764.805 629.802 M 664.643 645.097 L 663.126 640.113 M 596.757 614.4 L 601.738 612.872 M 525.614 384.218 L 520.404 384.197 M 532.043 348.455 L 537.251 348.332 M 429.568 131.076 L 434.75 131.613 M 407.782 108.375 L 402.658 109.322" />
</svg>
