<?xml version="1.0"?>
<svg width="887" height="883" version="1.1" xmlns="http://www.w3.org/2000/svg" xmlns:xlink="http://www.w3.org/1999/xlink">
  <defs>
  <style type="text/css">
    <![CDATA[
      .b {stroke:rgb(0,0,0);stroke-width:2.217500;fill:none}
      .c {stroke:rgb(128,128,128);stroke-width:1.108750;stroke-dasharray:4.435000, 4.435000;}
      .h {stroke:rgb(240,200,0);stroke-width:2.217500;}
      .m {stroke:rgb(255,0,0);stroke-width:1.108750;}
      .n {stroke:rgb(128,128,128);stroke-width:1.108750}
      .t {stroke:rgb(0,128,0);stroke-width:1.108750;}
      .tab {stroke:rgb(0,0,255);stroke-width:0.554375;fill:none}
      .v {stroke:rgb(0,0,255);stroke-width:1.108750;}
      .z {stroke:rgb(0,240,200);stroke-width:0.554375;}
    ]]>
  </style>
  </defs>
  <path fill="none" class="b" d=" M 382.064 575.273 L 394.447 704.949 L 428.544 787.406 L 412.817 860.194 L 281.493 787.789 L 309.49 758.546 L 204.156 691.917 L 109.395 734.272 L 8 689.848 L 19.8942 571.269 L 136.307 580.685 L 154.124 465.259 L 109.159 354.893 L 76.4904 249.122 L 80.972 145.423 L 203.014 170.732 L 238.374 190.445 L 346.886 86.9348 L 395.107 196.943 L 452.229 152.845 L 542.775 261.931 L 540.539 120.18 L 537.001 48.1011 L 650.223 8 L 753.017 107.308 L 649.605 121.981 L 751.157 146.411 L 690.535 265.92 L 784.047 284.987 L 879.4 288.921 L 846.901 418.925 L 780.974 511.128 L 705.653 399.712 L 737.666 530.334 L 846.823 560.877 L 762.077 675.973 L 701.709 719.575 L 577.789 668.044 L 632.357 597.415 L 593.43 501.306 L 485.429 441.51 L 538.677 368.328 L 449.858 385.714 L 366.515 476.786 L 363.773 384.006 L 336.595 252.58 L 251.147 278.275 L 283.748 404.396 L 326.042 487.021 L 293.391 585.44 L 382.064 575.273" />
  <path class="c" d=" M 154.124 465.259 L 326.042 487.021 M 326.042 487.021 L 154.124 465.259 M 154.124 465.259 L 283.748 404.396 M 283.748 404.396 L 109.159 354.893 M 109.159 354.893 L 283.748 404.396 M 283.748 404.396 L 154.124 465.259 M 136.307 580.685 L 326.042 487.021 M 326.042 487.021 L 136.307 580.685 M 136.307 580.685 L 293.391 585.44 M 293.391 585.44 L 136.307 580.685 M 136.307 580.685 L 8 689.848 M 8 689.848 L 136.307 580.685 M 136.307 580.685 L 204.156 691.917 M 204.156 691.917 L 136.307 580.685 M 136.307 580.685 L 109.395 734.272 M 109.395 734.272 L 136.307 580.685 M 204.156 691.917 L 293.391 585.44 M 293.391 585.44 L 394.447 704.949 M 394.447 704.949 L 309.49 758.546 M 309.49 758.546 L 428.544 787.406 M 428.544 787.406 L 309.49 758.546 M 309.49 758.546 L 412.817 860.194 M 412.817 860.194 L 309.49 758.546 M 309.49 758.546 L 394.447 704.949 M 394.447 704.949 L 293.391 585.44 M 293.391 585.44 L 309.49 758.546 M 309.49 758.546 L 293.391 585.44 M 293.391 585.44 L 204.156 691.917 M 363.773 384.006 L 449.858 385.714 M 449.858 385.714 L 336.595 252.58 M 336.595 252.58 L 449.858 385.714 M 449.858 385.714 L 395.107 196.943 M 395.107 196.943 L 542.775 261.931 M 542.775 261.931 L 395.107 196.943 M 395.107 196.943 L 449.858 385.714 M 449.858 385.714 L 542.775 261.931 M 542.775 261.931 L 449.858 385.714 M 449.858 385.714 L 363.773 384.006 M 336.595 252.58 L 395.107 196.943 M 395.107 196.943 L 336.595 252.58 M 336.595 252.58 L 238.374 190.445 M 238.374 190.445 L 395.107 196.943 M 395.107 196.943 L 238.374 190.445 M 238.374 190.445 L 251.147 278.275 M 251.147 278.275 L 109.159 354.893 M 109.159 354.893 L 251.147 278.275 M 251.147 278.275 L 238.374 190.445 M 238.374 190.445 L 109.159 354.893 M 109.159 354.893 L 238.374 190.445 M 238.374 190.445 L 336.595 252.58 M 238.374 190.445 L 76.4904 249.122 M 76.4904 249.122 L 238.374 190.445 M 203.014 170.732 L 76.4904 249.122 M 76.4904 249.122 L 203.014 170.732 M 540.539 120.18 L 690.535 265.92 M 690.535 265.92 L 705.653 399.712 M 705.653 399.712 L 690.535 265.92 M 690.535 265.92 L 540.539 120.18 M 540.539 120.18 L 649.605 121.981 M 649.605 121.981 L 650.223 8 M 650.223 8 L 649.605 121.981 M 649.605 121.981 L 540.539 120.18 M 537.001 48.1011 L 649.605 121.981 M 649.605 121.981 L 690.535 265.92 M 690.535 265.92 L 538.677 368.328 M 538.677 368.328 L 690.535 265.92 M 690.535 265.92 L 649.605 121.981 M 649.605 121.981 L 537.001 48.1011 M 542.775 261.931 L 538.677 368.328 M 538.677 368.328 L 593.43 501.306 M 593.43 501.306 L 705.653 399.712 M 705.653 399.712 L 593.43 501.306 M 593.43 501.306 L 737.666 530.334 M 737.666 530.334 L 632.357 597.415 M 632.357 597.415 L 737.666 530.334 M 737.666 530.334 L 762.077 675.973 M 762.077 675.973 L 737.666 530.334 M 737.666 530.334 L 593.43 501.306 M 593.43 501.306 L 538.677 368.328 M 538.677 368.328 L 705.653 399.712 M 705.653 399.712 L 846.901 418.925 M 846.901 418.925 L 705.653 399.712 M 705.653 399.712 L 538.677 368.328 M 538.677 368.328 L 542.775 261.931 M 542.775 261.931 L 690.535 265.92 M 690.535 265.92 L 542.775 261.931 M 705.653 399.712 L 784.047 284.987 M 784.047 284.987 L 846.901 418.925 M 846.901 418.925 L 784.047 284.987 M 784.047 284.987 L 705.653 399.712 M 632.357 597.415 L 762.077 675.973 M 762.077 675.973 L 632.357 597.415 M 632.357 597.415 L 701.709 719.575 M 701.709 719.575 L 632.357 597.415" />
  <path class="h" d=" M 701.874 366.264 L 694.314 299.368 M 694.314 299.368 L 701.874 366.264 M 740.965 404.515 L 811.589 414.122 M 811.589 414.122 L 740.965 404.515 M 421.542 352.43 L 364.911 285.863 M 364.911 285.863 L 421.542 352.43 M 351.223 238.671 L 380.479 210.852 M 380.479 210.852 L 351.223 238.671 M 312.04 237.046 L 262.93 205.979 M 262.93 205.979 L 312.04 237.046 M 565.152 66.5712 L 621.454 103.511 M 621.454 103.511 L 565.152 66.5712 M 373.208 718.349 L 330.729 745.147 M 330.729 745.147 L 373.208 718.349 M 339.253 765.761 L 398.781 780.191 M 398.781 780.191 L 339.253 765.761" />
  <path class="z" fill="none" d=" M 382.064 575.273 L 394.447 704.949 L 428.544 787.406 M 8 689.848 L 19.8942 571.269 L 136.307 580.685 L 154.124 465.259 L 109.159 354.893 M 395.107 196.943 L 452.229 152.845 L 542.775 261.931 L 540.539 120.18 L 537.001 48.1011 M 753.017 107.308 L 649.605 121.981 L 751.157 146.411 M 780.974 511.128 L 705.653 399.712 L 737.666 530.334 M 701.709 719.575 L 577.789 668.044 L 632.357 597.415 L 593.43 501.306 L 485.429 441.51 L 538.677 368.328 L 449.858 385.714 L 366.515 476.786 L 363.773 384.006 L 336.595 252.58 L 251.147 278.275 L 283.748 404.396 L 326.042 487.021 L 293.391 585.44 L 382.064 575.273" />
  <path class="z" d=" M 134.089 578.467 L 138.524 578.467 L 138.524 582.902 L 134.089 582.902 L 134.089 578.467 M 540.557 259.714 L 544.992 259.714 L 544.992 264.149 L 540.557 264.149 L 540.557 259.714 M 647.387 119.764 L 651.822 119.764 L 651.822 124.199 L 647.387 124.199 L 647.387 119.764 M 703.436 397.495 L 707.871 397.495 L 707.871 401.93 L 703.436 401.93 L 703.436 397.495 M 536.46 366.11 L 540.895 366.11 L 540.895 370.545 L 536.46 370.545 L 536.46 366.11" />
  <path class="h" d=" M 424.613 805.603 L 416.749 841.997 M 379.986 842.093 L 314.324 805.89 M 288.492 780.478 L 302.491 765.857 M 283.156 741.889 L 230.489 708.574 M 180.466 702.506 L 133.085 723.683 M 84.0464 723.166 L 33.3488 700.954 M 100.992 328.45 L 84.6575 275.565 M 77.6108 223.198 L 79.8516 171.348 M 111.483 151.75 L 172.504 164.404 M 211.854 175.66 L 229.534 185.517 M 265.502 164.567 L 319.758 112.812 M 358.941 114.437 L 383.052 169.441 M 565.307 38.0758 L 621.918 18.0253 M 675.922 32.8269 L 727.318 82.4807 M 736.001 176.288 L 705.69 236.042 M 713.913 270.687 L 760.669 280.22 M 807.885 285.971 L 855.562 287.938 M 871.275 321.422 L 855.026 386.424 M 830.419 441.975 L 797.456 488.077 M 764.955 537.97 L 819.534 553.241 M 825.636 589.651 L 783.263 647.199 M 746.985 686.874 L 716.801 708.675" />
  <path class="h" d=" M 426.972 794.685 L 422.733 793.381 M 399.581 852.896 L 396.519 849.689 M 285.225 783.89 L 289.031 786.167 M 284.071 742.467 L 284.334 738.04 M 167.04 708.507 L 166.003 704.194 M 91.8473 726.584 L 93.1401 722.342 M 103.505 336.588 L 106.513 333.329 M 78.2458 208.505 L 82.4905 207.22 M 173.564 164.624 L 170.218 167.536 M 207.728 173.359 L 203.887 175.577 M 335.949 97.3674 L 338.214 101.18 M 355.269 106.058 L 351.673 108.654 M 556.683 41.13 L 560.029 44.0412 M 700.569 56.6383 L 697.841 60.1354 M 719.549 208.723 L 716.765 205.27 M 733.882 274.758 L 732.905 279.084 M 828.248 286.811 L 828.868 291.202 M 862.455 356.705 L 859.183 353.712 M 828.01 445.345 L 823.855 443.795 M 768.944 539.086 L 768.722 543.515 M 805.316 617.248 L 802.592 613.748 M 756.04 680.333 L 752.356 677.864" />
</svg>
