<?xml version="1.0"?>
<svg width="330" height="349" version="1.1" xmlns="http://www.w3.org/2000/svg" xmlns:xlink="http://www.w3.org/1999/xlink">
  <defs>
  <style type="text/css">
    <![CDATA[
      .b {stroke:rgb(0,0,0);stroke-width:0.872500;fill:none}
      .c {stroke:rgb(128,128,128);stroke-width:0.436250;stroke-dasharray:1.650000, 1.650000;}
      .h {stroke:rgb(240,200,0);stroke-width:0.872500;}
      .m {stroke:rgb(255,0,0);stroke-width:0.436250;}
      .n {stroke:rgb(128,128,128);stroke-width:0.436250}
      .t {stroke:rgb(0,128,0);stroke-width:0.436250;}
      .tab {stroke:rgb(0,0,255);stroke-width:0.218125;fill:none}
      .v {stroke:rgb(0,0,255);stroke-width:0.436250;}
      .z {stroke:rgb(0,240,200);stroke-width:0.218125;}
    ]]>
  </style>
  </defs>
  <path fill="none" class="b" d=" M 94.3417 88.0434 L 73.9205 100.777 L 97.9464 102.172 L 113.661 91.1593 L 135.767 91.0156 L 149.311 70.3871 L 150.158 54.3734 L 161.871 63.8425 L 169.629 79.9671 L 151.978 101.221 L 178.366 93.0396 L 195.286 79.0316 L 177.201 66.5648 L 182.602 49.5054 L 195.794 46.997 L 210.21 82.0011 L 178.948 103.35 L 191.257 97.9834 L 194.481 110.709 L 182.632 120.215 L 162.116 127.318 L 175.998 124.305 L 177.55 147.416 L 159.071 155.712 L 167.263 178.761 L 183.993 190.605 L 170.704 208.309 L 192.841 208.337 L 195.844 230.591 L 209.003 244.03 L 219.961 259.987 L 214.285 241.481 L 203.723 225.918 L 207.121 203.722 L 224.283 214.931 L 247.91 208.598 L 249.566 228.786 L 243.3 245.679 L 256.57 233.491 L 278.323 241.448 L 267.721 262.516 L 282.504 270.871 L 267.217 285.731 L 287.835 280.308 L 283.755 263.826 L 306.985 259.748 L 317.687 250.407 L 319.339 272.054 L 322.628 293.862 L 298.492 311.011 L 289.93 299.565 L 292.454 313.635 L 273.256 312.061 L 255.655 303.35 L 239.892 280.547 L 245.818 307.627 L 253.411 325.739 L 235.75 325.966 L 222.873 308.613 L 215.449 317.173 L 203.336 308.662 L 201.14 292.53 L 197.024 267.407 L 190.157 291.921 L 189.411 308.185 L 173.065 306.215 L 156.737 298.737 L 168.926 278.22 L 165.016 248.432 L 167.656 278.359 L 153.139 297.3 L 143.52 282.296 L 151.662 269.108 L 141.957 281.192 L 141.429 299.007 L 155.436 310.245 L 160.333 325.964 L 145.745 323.448 L 134.427 323.988 L 115.197 314.129 L 112.249 298.457 L 112.501 314.402 L 94.8393 314.289 L 85.4655 297.462 L 71.1583 271.54 L 49.5335 275.869 L 49.8094 260.68 L 58.6983 249.325 L 47.9981 236.91 L 72.0878 226.186 L 85.3276 253.888 L 93.7651 277.63 L 108.427 272.542 L 93.0487 274.631 L 87.4342 250.068 L 105.503 253.701 L 126.305 253.755 L 116.871 235.69 L 116.173 213.797 L 134.929 219.823 L 138.535 232.72 L 147.964 223.21 L 147.391 203.519 L 143.841 166.988 L 143.519 143.894 L 127.467 132.866 L 135.78 121.843 L 122.528 117.967 L 103.442 121.842 L 80.9111 126.919 L 47.5893 111.531 L 28.2514 101.244 L 8 98.948 L 14.9505 79.3412 L 33.1097 76.1927 L 62.0096 86.5633 L 83.2948 70.9987 L 67.7652 65.7602 L 68.5425 51.3609 L 79.6346 44.34 L 90.47 49.1142 L 63.8755 18.5198 L 75.8141 19.967 L 77.0048 8 L 114.555 23.2711 L 112.88 34.9926 L 99.7867 27.5484 L 100.159 43.5803 L 120.981 56.8238 L 104.969 72.0652 L 94.3417 88.0434" />
  <path class="c" d=" M 149.311 70.3871 L 151.978 101.221 M 151.978 101.221 L 149.311 70.3871 M 149.311 70.3871 L 169.629 79.9671 M 169.629 79.9671 L 149.311 70.3871 M 149.311 70.3871 L 161.871 63.8425 M 161.871 63.8425 L 149.311 70.3871 M 135.767 91.0156 L 135.78 121.843 M 135.78 121.843 L 135.767 91.0156 M 135.767 91.0156 L 122.528 117.967 M 122.528 117.967 L 113.661 91.1593 M 113.661 91.1593 L 122.528 117.967 M 122.528 117.967 L 97.9464 102.172 M 97.9464 102.172 L 122.528 117.967 M 122.528 117.967 L 135.767 91.0156 M 135.767 91.0156 L 151.978 101.221 M 151.978 101.221 L 135.78 121.843 M 135.78 121.843 L 143.519 143.894 M 143.519 143.894 L 159.071 155.712 M 159.071 155.712 L 143.519 143.894 M 143.519 143.894 L 135.78 121.843 M 135.78 121.843 L 151.978 101.221 M 151.978 101.221 L 135.767 91.0156 M 151.978 101.221 L 162.116 127.318 M 162.116 127.318 L 177.55 147.416 M 177.55 147.416 L 162.116 127.318 M 162.116 127.318 L 143.519 143.894 M 143.519 143.894 L 162.116 127.318 M 162.116 127.318 L 151.978 101.221 M 151.978 101.221 L 178.948 103.35 M 178.948 103.35 L 178.366 93.0396 M 178.366 93.0396 L 210.21 82.0011 M 210.21 82.0011 L 178.366 93.0396 M 178.366 93.0396 L 178.948 103.35 M 178.948 103.35 L 194.481 110.709 M 194.481 110.709 L 178.948 103.35 M 178.948 103.35 L 182.632 120.215 M 182.632 120.215 L 178.948 103.35 M 178.948 103.35 L 162.116 127.318 M 162.116 127.318 L 178.948 103.35 M 178.948 103.35 L 151.978 101.221 M 135.78 121.843 L 162.116 127.318 M 162.116 127.318 L 135.78 121.843 M 162.116 127.318 L 159.071 155.712 M 159.071 155.712 L 143.841 166.988 M 143.841 166.988 L 167.263 178.761 M 167.263 178.761 L 143.841 166.988 M 143.841 166.988 L 159.071 155.712 M 159.071 155.712 L 162.116 127.318 M 167.263 178.761 L 170.704 208.309 M 170.704 208.309 L 147.964 223.21 M 147.964 223.21 L 170.704 208.309 M 170.704 208.309 L 167.263 178.761 M 167.263 178.761 L 147.391 203.519 M 147.391 203.519 L 167.263 178.761 M 170.704 208.309 L 195.844 230.591 M 195.844 230.591 L 165.016 248.432 M 165.016 248.432 L 195.844 230.591 M 195.844 230.591 L 197.024 267.407 M 197.024 267.407 L 195.844 230.591 M 195.844 230.591 L 147.964 223.21 M 147.964 223.21 L 195.844 230.591 M 195.844 230.591 L 170.704 208.309 M 170.704 208.309 L 147.391 203.519 M 147.391 203.519 L 170.704 208.309 M 147.964 223.21 L 165.016 248.432 M 165.016 248.432 L 197.024 267.407 M 197.024 267.407 L 165.016 248.432 M 165.016 248.432 L 138.535 232.72 M 138.535 232.72 L 126.305 253.755 M 126.305 253.755 L 141.957 281.192 M 141.957 281.192 L 126.305 253.755 M 126.305 253.755 L 138.535 232.72 M 138.535 232.72 L 116.871 235.69 M 116.871 235.69 L 138.535 232.72 M 138.535 232.72 L 165.016 248.432 M 165.016 248.432 L 151.662 269.108 M 151.662 269.108 L 167.656 278.359 M 167.656 278.359 L 151.662 269.108 M 151.662 269.108 L 138.535 232.72 M 138.535 232.72 L 141.957 281.192 M 141.957 281.192 L 138.535 232.72 M 138.535 232.72 L 151.662 269.108 M 151.662 269.108 L 165.016 248.432 M 165.016 248.432 L 147.964 223.21 M 134.929 219.823 L 116.871 235.69 M 116.871 235.69 L 134.929 219.823 M 126.305 253.755 L 108.427 272.542 M 108.427 272.542 L 105.503 253.701 M 105.503 253.701 L 108.427 272.542 M 108.427 272.542 L 126.305 253.755 M 105.503 253.701 L 93.0487 274.631 M 93.0487 274.631 L 105.503 253.701 M 108.427 272.542 L 112.249 298.457 M 112.249 298.457 L 93.7651 277.63 M 93.7651 277.63 L 112.249 298.457 M 112.249 298.457 L 85.4655 297.462 M 85.4655 297.462 L 112.249 298.457 M 112.249 298.457 L 94.8393 314.289 M 94.8393 314.289 L 112.249 298.457 M 112.249 298.457 L 108.427 272.542 M 108.427 272.542 L 141.957 281.192 M 141.957 281.192 L 115.197 314.129 M 115.197 314.129 L 141.957 281.192 M 141.957 281.192 L 112.249 298.457 M 112.249 298.457 L 141.957 281.192 M 141.957 281.192 L 108.427 272.542 M 93.7651 277.63 L 85.4655 297.462 M 85.4655 297.462 L 93.7651 277.63 M 93.7651 277.63 L 58.6983 249.325 M 58.6983 249.325 L 93.7651 277.63 M 93.7651 277.63 L 71.1583 271.54 M 71.1583 271.54 L 49.8094 260.68 M 49.8094 260.68 L 71.1583 271.54 M 71.1583 271.54 L 58.6983 249.325 M 58.6983 249.325 L 72.0878 226.186 M 72.0878 226.186 L 58.6983 249.325 M 58.6983 249.325 L 71.1583 271.54 M 71.1583 271.54 L 93.7651 277.63 M 85.3276 253.888 L 58.6983 249.325 M 58.6983 249.325 L 85.3276 253.888 M 143.52 282.296 L 167.656 278.359 M 167.656 278.359 L 143.52 282.296 M 141.429 299.007 L 134.427 323.988 M 134.427 323.988 L 141.429 299.007 M 141.429 299.007 L 115.197 314.129 M 115.197 314.129 L 141.429 299.007 M 141.429 299.007 L 145.745 323.448 M 145.745 323.448 L 141.429 299.007 M 155.436 310.245 L 145.745 323.448 M 145.745 323.448 L 155.436 310.245 M 173.065 306.215 L 168.926 278.22 M 168.926 278.22 L 189.411 308.185 M 189.411 308.185 L 168.926 278.22 M 168.926 278.22 L 190.157 291.921 M 190.157 291.921 L 168.926 278.22 M 168.926 278.22 L 197.024 267.407 M 197.024 267.407 L 168.926 278.22 M 168.926 278.22 L 173.065 306.215 M 203.336 308.662 L 222.873 308.613 M 222.873 308.613 L 201.14 292.53 M 201.14 292.53 L 222.873 308.613 M 222.873 308.613 L 245.818 307.627 M 245.818 307.627 L 222.873 308.613 M 222.873 308.613 L 203.336 308.662 M 201.14 292.53 L 219.961 259.987 M 219.961 259.987 L 239.892 280.547 M 239.892 280.547 L 219.961 259.987 M 219.961 259.987 L 243.3 245.679 M 243.3 245.679 L 219.961 259.987 M 219.961 259.987 L 201.14 292.53 M 201.14 292.53 L 239.892 280.547 M 239.892 280.547 L 267.721 262.516 M 267.721 262.516 L 239.892 280.547 M 239.892 280.547 L 267.217 285.731 M 267.217 285.731 L 255.655 303.35 M 255.655 303.35 L 267.217 285.731 M 267.217 285.731 L 239.892 280.547 M 239.892 280.547 L 222.873 308.613 M 222.873 308.613 L 239.892 280.547 M 239.892 280.547 L 201.14 292.53 M 197.024 267.407 L 209.003 244.03 M 209.003 244.03 L 197.024 267.407 M 197.024 267.407 L 219.961 259.987 M 219.961 259.987 L 197.024 267.407 M 214.285 241.481 L 249.566 228.786 M 249.566 228.786 L 214.285 241.481 M 214.285 241.481 L 224.283 214.931 M 224.283 214.931 L 214.285 241.481 M 214.285 241.481 L 243.3 245.679 M 243.3 245.679 L 267.721 262.516 M 267.721 262.516 L 256.57 233.491 M 256.57 233.491 L 267.721 262.516 M 267.721 262.516 L 243.3 245.679 M 243.3 245.679 L 214.285 241.481 M 203.723 225.918 L 224.283 214.931 M 224.283 214.931 L 203.723 225.918 M 224.283 214.931 L 249.566 228.786 M 249.566 228.786 L 224.283 214.931 M 243.3 245.679 L 239.892 280.547 M 239.892 280.547 L 243.3 245.679 M 267.721 262.516 L 267.217 285.731 M 267.217 285.731 L 267.721 262.516 M 267.217 285.731 L 289.93 299.565 M 289.93 299.565 L 273.256 312.061 M 273.256 312.061 L 289.93 299.565 M 289.93 299.565 L 287.835 280.308 M 287.835 280.308 L 289.93 299.565 M 289.93 299.565 L 319.339 272.054 M 319.339 272.054 L 306.985 259.748 M 306.985 259.748 L 319.339 272.054 M 319.339 272.054 L 287.835 280.308 M 287.835 280.308 L 306.985 259.748 M 306.985 259.748 L 287.835 280.308 M 287.835 280.308 L 319.339 272.054 M 319.339 272.054 L 289.93 299.565 M 289.93 299.565 L 322.628 293.862 M 322.628 293.862 L 289.93 299.565 M 289.93 299.565 L 267.217 285.731 M 255.655 303.35 L 289.93 299.565 M 289.93 299.565 L 255.655 303.35 M 245.818 307.627 L 235.75 325.966 M 235.75 325.966 L 245.818 307.627 M 210.21 82.0011 L 195.286 79.0316 M 195.286 79.0316 L 210.21 82.0011 M 210.21 82.0011 L 182.602 49.5054 M 182.602 49.5054 L 210.21 82.0011 M 195.286 79.0316 L 182.602 49.5054 M 182.602 49.5054 L 195.286 79.0316 M 104.969 72.0652 L 100.159 43.5803 M 100.159 43.5803 L 75.8141 19.967 M 75.8141 19.967 L 100.159 43.5803 M 100.159 43.5803 L 104.969 72.0652 M 104.969 72.0652 L 83.2948 70.9987 M 83.2948 70.9987 L 79.6346 44.34 M 79.6346 44.34 L 67.7652 65.7602 M 67.7652 65.7602 L 79.6346 44.34 M 79.6346 44.34 L 83.2948 70.9987 M 83.2948 70.9987 L 94.3417 88.0434 M 94.3417 88.0434 L 83.2948 70.9987 M 83.2948 70.9987 L 73.9205 100.777 M 73.9205 100.777 L 80.9111 126.919 M 80.9111 126.919 L 97.9464 102.172 M 97.9464 102.172 L 80.9111 126.919 M 80.9111 126.919 L 73.9205 100.777 M 73.9205 100.777 L 62.0096 86.5633 M 62.0096 86.5633 L 47.5893 111.531 M 47.5893 111.531 L 62.0096 86.5633 M 62.0096 86.5633 L 28.2514 101.244 M 28.2514 101.244 L 33.1097 76.1927 M 33.1097 76.1927 L 28.2514 101.244 M 28.2514 101.244 L 62.0096 86.5633 M 62.0096 86.5633 L 73.9205 100.777 M 73.9205 100.777 L 83.2948 70.9987 M 83.2948 70.9987 L 104.969 72.0652 M 104.969 72.0652 L 90.47 49.1142 M 90.47 49.1142 L 83.2948 70.9987 M 83.2948 70.9987 L 90.47 49.1142 M 90.47 49.1142 L 100.159 43.5803 M 100.159 43.5803 L 90.47 49.1142 M 90.47 49.1142 L 75.8141 19.967 M 75.8141 19.967 L 90.47 49.1142 M 90.47 49.1142 L 104.969 72.0652 M 100.159 43.5803 L 77.0048 8 M 77.0048 8 L 99.7867 27.5484 M 99.7867 27.5484 L 77.0048 8 M 77.0048 8 L 100.159 43.5803 M 99.7867 27.5484 L 114.555 23.2711 M 114.555 23.2711 L 99.7867 27.5484 M 97.9464 102.172 L 103.442 121.842 M 103.442 121.842 L 97.9464 102.172 M 73.9205 100.777 L 47.5893 111.531 M 47.5893 111.531 L 73.9205 100.777 M 28.2514 101.244 L 14.9505 79.3412 M 14.9505 79.3412 L 28.2514 101.244" />
  <path class="h" d=" M 149.978 78.0955 L 151.312 93.5123 M 151.312 93.5123 L 149.978 78.0955 M 152.451 68.751 L 158.731 65.4787 M 158.731 65.4787 L 152.451 68.751 M 158.721 101.753 L 172.206 102.818 M 172.206 102.818 L 158.721 101.753 M 174.74 109.342 L 166.324 121.326 M 166.324 121.326 L 174.74 109.342 M 178.802 100.773 L 178.512 95.6173 M 178.512 95.6173 L 178.802 100.773 M 157.467 131.462 L 148.168 139.75 M 148.168 139.75 L 157.467 131.462 M 162.295 184.95 L 152.359 197.329 M 152.359 197.329 L 162.295 184.95 M 168.124 186.148 L 169.844 200.922 M 169.844 200.922 L 168.124 186.148 M 152.227 229.516 L 160.753 242.127 M 160.753 242.127 L 152.227 229.516 M 145.155 236.648 L 158.396 244.504 M 158.396 244.504 L 145.155 236.648 M 130.415 223.79 L 121.385 231.723 M 121.385 231.723 L 130.415 223.79 M 161.678 253.601 L 155 263.939 M 155 263.939 L 161.678 253.601 M 173.018 253.176 L 189.022 262.664 M 189.022 262.664 L 173.018 253.176 M 172.723 243.972 L 188.137 235.051 M 188.137 235.051 L 172.723 243.972 M 200.019 261.563 L 206.008 249.875 M 206.008 249.875 L 200.019 261.563 M 216.785 234.844 L 221.783 221.569 M 221.783 221.569 L 216.785 234.844 M 223.105 238.307 L 240.746 231.96 M 240.746 231.96 L 223.105 238.307 M 208.863 223.171 L 219.143 217.678 M 219.143 217.678 L 208.863 223.171 M 230.604 218.395 L 243.245 225.322 M 243.245 225.322 L 230.604 218.395 M 259.358 240.747 L 264.934 255.26 M 264.934 255.26 L 259.358 240.747 M 310.074 262.825 L 316.251 268.978 M 316.251 268.978 L 310.074 262.825 M 281.361 300.512 L 264.224 302.404 M 264.224 302.404 L 281.361 300.512 M 217.439 304.592 L 206.573 296.551 M 206.573 296.551 L 217.439 304.592 M 184.29 300.694 L 174.047 285.711 M 174.047 285.711 L 184.29 300.694 M 139.678 305.253 L 136.177 317.743 M 136.177 317.743 L 139.678 305.253 M 135.267 289.427 L 121.887 305.895 M 121.887 305.895 L 135.267 289.427 M 107.628 293.251 L 98.3861 282.837 M 98.3861 282.837 L 107.628 293.251 M 88.1134 276.108 L 76.81 273.063 M 76.81 273.063 L 88.1134 276.108 M 68.0433 265.986 L 61.8133 254.879 M 61.8133 254.879 L 68.0433 265.986 M 102.068 116.925 L 99.3204 107.089 M 99.3204 107.089 L 102.068 116.925 M 91.58 83.7822 L 86.0565 75.2599 M 86.0565 75.2599 L 91.58 83.7822 M 82.3797 64.334 L 80.5496 51.0047 M 80.5496 51.0047 L 82.3797 64.334 M 92.8921 47.7307 L 97.7364 44.9638 M 97.7364 44.9638 L 92.8921 47.7307 M 103.479 26.4791 L 110.863 24.3405 M 110.863 24.3405 L 103.479 26.4791 M 31.8951 82.4556 L 29.466 94.9815 M 29.466 94.9815 L 31.8951 82.4556" />
  <path class="z" fill="none" d=" M 94.3417 88.0434 L 73.9205 100.777 L 97.9464 102.172 L 113.661 91.1593 L 135.767 91.0156 L 149.311 70.3871 L 150.158 54.3734 L 161.871 63.8425 L 169.629 79.9671 L 151.978 101.221 L 178.366 93.0396 L 195.286 79.0316 L 177.201 66.5648 L 182.602 49.5054 L 195.794 46.997 L 210.21 82.0011 L 178.948 103.35 L 191.257 97.9834 M 175.998 124.305 L 177.55 147.416 L 159.071 155.712 L 167.263 178.761 L 183.993 190.605 L 170.704 208.309 L 192.841 208.337 L 195.844 230.591 L 209.003 244.03 L 219.961 259.987 L 214.285 241.481 L 203.723 225.918 L 207.121 203.722 L 224.283 214.931 L 247.91 208.598 L 249.566 228.786 L 243.3 245.679 L 256.57 233.491 L 278.323 241.448 L 267.721 262.516 L 282.504 270.871 L 267.217 285.731 L 287.835 280.308 L 283.755 263.826 L 306.985 259.748 M 255.655 303.35 L 239.892 280.547 L 245.818 307.627 M 203.336 308.662 L 201.14 292.53 L 197.024 267.407 L 190.157 291.921 L 189.411 308.185 M 173.065 306.215 L 156.737 298.737 L 168.926 278.22 L 165.016 248.432 L 167.656 278.359 L 153.139 297.3 L 143.52 282.296 L 151.662 269.108 L 141.957 281.192 L 141.429 299.007 L 155.436 310.245 M 115.197 314.129 L 112.249 298.457 L 112.501 314.402 M 85.3276 253.888 L 93.7651 277.63 L 108.427 272.542 L 93.0487 274.631 L 87.4342 250.068 M 116.871 235.69 L 116.173 213.797 L 134.929 219.823 L 138.535 232.72 L 147.964 223.21 L 147.391 203.519 L 143.841 166.988 L 143.519 143.894 L 127.467 132.866 L 135.78 121.843 L 122.528 117.967 L 103.442 121.842 L 80.9111 126.919 L 47.5893 111.531 L 28.2514 101.244 M 112.88 34.9926 L 99.7867 27.5484 L 100.159 43.5803 L 120.981 56.8238 L 104.969 72.0652 L 94.3417 88.0434" />
  <path class="z" d=" M 73.0955 99.9522 L 74.7455 99.9522 L 74.7455 101.602 L 73.0955 101.602 L 73.0955 99.9522 M 151.153 100.396 L 152.803 100.396 L 152.803 102.046 L 151.153 102.046 L 151.153 100.396 M 194.461 78.2066 L 196.111 78.2066 L 196.111 79.8566 L 194.461 79.8566 L 194.461 78.2066 M 209.385 81.1761 L 211.035 81.1761 L 211.035 82.8261 L 209.385 82.8261 L 209.385 81.1761 M 169.879 207.484 L 171.529 207.484 L 171.529 209.134 L 169.879 209.134 L 169.879 207.484 M 219.136 259.162 L 220.786 259.162 L 220.786 260.812 L 219.136 260.812 L 219.136 259.162 M 242.475 244.854 L 244.125 244.854 L 244.125 246.504 L 242.475 246.504 L 242.475 244.854 M 266.392 284.906 L 268.042 284.906 L 268.042 286.556 L 266.392 286.556 L 266.392 284.906 M 239.067 279.722 L 240.717 279.722 L 240.717 281.372 L 239.067 281.372 L 239.067 279.722 M 196.199 266.582 L 197.849 266.582 L 197.849 268.232 L 196.199 268.232 L 196.199 266.582 M 164.191 247.607 L 165.841 247.607 L 165.841 249.257 L 164.191 249.257 L 164.191 247.607 M 150.837 268.283 L 152.487 268.283 L 152.487 269.933 L 150.837 269.933 L 150.837 268.283 M 111.424 297.632 L 113.074 297.632 L 113.074 299.282 L 111.424 299.282 L 111.424 297.632 M 107.602 271.717 L 109.252 271.717 L 109.252 273.367 L 107.602 273.367 L 107.602 271.717 M 137.71 231.895 L 139.36 231.895 L 139.36 233.545 L 137.71 233.545 L 137.71 231.895 M 134.955 121.018 L 136.605 121.018 L 136.605 122.668 L 134.955 122.668 L 134.955 121.018" />
  <path class="h" d=" M 192.063 101.165 L 193.675 107.527 M 191.519 113.085 L 185.594 117.839 M 177.503 121.991 L 167.245 125.542 M 165.587 126.564 L 172.528 125.058 M 79.4124 69.6891 L 71.6476 67.0698 M 67.9595 62.1604 L 68.3482 54.9607 M 71.3155 49.6057 L 76.8616 46.0952 M 82.3434 45.5336 L 87.7611 47.9206 M 83.8214 41.4656 L 70.5241 26.1684 M 66.8602 18.8816 L 72.8295 19.6052 M 76.1118 16.9752 L 76.7071 10.9917 M 86.3924 11.8178 L 105.168 19.4534 M 114.136 26.2015 L 113.299 32.0622 M 67.3309 82.6722 L 77.9735 74.8898 M 40.3347 78.7853 L 54.7846 83.9707 M 19.4903 78.554 L 28.5699 76.9798 M 23.1886 100.67 L 13.0629 99.5221 M 9.73763 94.0463 L 13.2129 84.2429 M 54.0205 234.229 L 66.0654 228.867 M 75.3978 233.111 L 82.0176 246.963 M 91.9514 250.976 L 100.986 252.793 M 110.704 253.714 L 121.105 253.742 M 123.947 249.239 L 119.229 240.206 M 65.7521 272.622 L 54.9397 274.786 M 49.6025 272.071 L 49.7404 264.477 M 52.0316 257.841 L 56.4761 252.164 M 56.0233 246.221 L 50.6732 240.014 M 81.8887 290.981 L 74.7351 278.02 M 92.4959 310.083 L 87.8089 301.669 M 108.086 314.374 L 99.2547 314.318 M 129.619 321.523 L 120.005 316.594 M 142.915 323.583 L 137.256 323.853 M 156.686 325.335 L 149.392 324.077 M 156.66 314.175 L 159.109 322.034 M 185.324 307.692 L 177.151 306.707 M 212.421 315.045 L 206.365 310.79 M 221.017 310.753 L 217.305 315.033 M 232.531 321.628 L 226.092 312.951 M 247.716 312.155 L 251.513 321.211 M 248.996 325.796 L 240.165 325.909 M 268.856 309.883 L 260.055 305.528 M 287.655 313.241 L 278.056 312.455 M 290.561 303.083 L 291.823 310.118 M 296.352 308.15 L 292.07 302.427 M 316.594 298.149 L 304.526 306.724 M 320.161 277.506 L 321.805 288.41 M 318.1 255.819 L 318.926 266.643 M 309.66 257.413 L 315.011 252.743" />
  <path class="h" d=" M 191.579 99.2559 L 190.01 99.7647 M 193.287 111.667 L 191.859 110.839 M 179.897 121.162 L 179.809 119.514 M 165.466 126.591 L 166.294 128.018 M 68.1048 82.1062 L 68.5955 83.6816 M 58.6823 85.3693 L 57.2194 86.1325 M 69.9497 66.497 L 70.6106 64.9852 M 68.119 59.2067 L 69.1294 57.9023 M 78.5254 45.0421 L 77.7649 46.5064 M 85.3258 46.8476 L 85.1876 48.4918 M 68.2315 23.5309 L 69.7248 22.829 M 69.9922 19.2613 L 70.9255 20.6219 M 76.4241 13.8358 L 77.4533 15.1255 M 108.405 20.7699 L 107.108 21.7899 M 113.675 29.4278 L 112.04 29.2065 M 27.6277 77.1432 L 27.6703 78.7926 M 12.5974 85.9792 L 13.7787 87.1312 M 24.2171 100.787 L 23.5626 99.2723 M 65.1895 229.257 L 64.6817 230.827 M 73.6121 229.375 L 72.6242 230.697 M 57.1932 247.579 L 58.136 246.224 M 54.6527 254.493 L 55.8005 255.678 M 49.7816 262.21 L 51.2938 262.87 M 58.0036 274.173 L 57.1471 272.763 M 73.6344 276.026 L 75.2792 276.157 M 92.889 251.165 L 92.9002 252.815 M 112.546 253.719 L 112.193 255.331 M 118.75 239.289 L 120.316 238.769 M 90.0565 305.703 L 91.625 305.191 M 103.026 314.342 L 103.855 312.915 M 120.707 316.954 L 121.954 315.874 M 137.086 323.861 L 137.37 322.236 M 157.618 317.249 L 156.155 318.012 M 158.078 325.575 L 157.797 323.949 M 180.348 307.093 L 179.741 305.558 M 205.209 309.978 L 206.854 309.851 M 217.193 315.162 L 215.699 314.461 M 232.06 320.993 L 233.244 319.844 M 245.224 325.844 L 245.278 324.195 M 249.452 316.296 L 248.104 317.247 M 264.079 307.519 L 265.656 307.034 M 283.052 312.864 L 283.81 311.399 M 290.369 302.011 L 288.946 302.847 M 297.004 309.022 L 298.424 308.181 M 318.451 296.83 L 316.808 296.987 M 320.627 280.596 L 319.224 281.463 M 309.567 257.494 L 310.487 258.864 M 317.907 253.293 L 316.487 254.133" />
</svg>
