<?xml version="1.0"?>
<svg width="356" height="371" version="1.1" xmlns="http://www.w3.org/2000/svg" xmlns:xlink="http://www.w3.org/1999/xlink">
  <defs>
  <style type="text/css">
    <![CDATA[
      .b {stroke:rgb(0,0,0);stroke-width:0.927500;fill:none}
      .c {stroke:rgb(128,128,128);stroke-width:0.463750;stroke-dasharray:1.780000, 1.780000;}
      .h {stroke:rgb(240,200,0);stroke-width:0.927500;}
      .m {stroke:rgb(255,0,0);stroke-width:0.463750;}
      .n {stroke:rgb(128,128,128);stroke-width:0.463750}
      .t {stroke:rgb(0,128,0);stroke-width:0.463750;}
      .tab {stroke:rgb(0,0,255);stroke-width:0.231875;fill:none}
      .v {stroke:rgb(0,0,255);stroke-width:0.463750;}
      .z {stroke:rgb(0,240,200);stroke-width:0.231875;}
    ]]>
  </style>
  </defs>
  <path fill="none" class="b" d=" M 302.635 202.367 L 276.933 181.225 L 292.433 210.675 L 268.768 224.976 L 266.904 200.481 L 252.348 220.27 L 261.63 237.144 L 273.648 222.096 L 274.421 242.846 L 293.578 234.834 L 298.996 261.949 L 280.615 270.469 L 270.23 294.104 L 276.877 324.909 L 306.634 314.533 L 311.571 326.479 L 310.678 335.899 L 310.964 343.649 L 278.159 347.498 L 269.809 336.302 L 261.116 325.37 L 262.825 292.384 L 258.546 268.424 L 243.445 256.559 L 250.788 274.305 L 228.5 284.082 L 222.852 278.767 L 219.109 287.458 L 221.233 302.57 L 208.502 295.749 L 197.535 297.611 L 180.947 272.672 L 194.65 266.487 L 185.438 254.606 L 214.367 262.367 L 216.796 251.51 L 208.665 239.574 L 227.912 229.163 L 230.101 198.892 L 183.592 187.908 L 170.123 161.143 L 151.569 145.298 L 132.026 159.904 L 130.231 139.702 L 110.925 120.254 L 117.263 146.915 L 111.186 166.265 L 82.1549 158.847 L 35.6666 169.92 L 22.3521 142.646 L 8 126.128 L 19.4653 113.118 L 54.2984 130.441 L 83.4795 132.317 L 62.7046 111.739 L 69.4876 73.432 L 52.2067 71.9903 L 45.0645 49.581 L 60.7851 27.3053 L 82.3004 8 L 97.5275 23.8231 L 95.3865 46.5541 L 97.878 69.9541 L 90.3649 98.7286 L 114.773 81.7391 L 129.248 98.4407 L 119.797 78.4623 L 138.597 64.3079 L 157.238 75.8513 L 174.573 70.5217 L 156.698 67.4592 L 146.649 47.9723 L 169.201 51.5297 L 188.965 41.9571 L 197.483 57.3219 L 212.99 49.0656 L 233.305 71.1787 L 227.368 94.8052 L 203.705 101.831 L 173.166 113.384 L 154.154 110.092 L 171.624 118.282 L 203.863 123.455 L 195.321 145.179 L 203.284 168.854 L 202.659 143.884 L 223.861 134.118 L 236.667 155.22 L 250.892 174.996 L 236.468 172.925 L 250.623 176.387 L 276.779 161.636 L 303.983 171.413 L 324.778 189.046 L 345.054 177.127 L 348.076 192.085 L 342.463 203.728 L 318.947 214.381 L 302.635 202.367" />
  <path class="c" d=" M 95.3865 46.5541 L 45.0645 49.581 M 45.0645 49.581 L 95.3865 46.5541 M 95.3865 46.5541 L 60.7851 27.3053 M 60.7851 27.3053 L 97.5275 23.8231 M 97.5275 23.8231 L 60.7851 27.3053 M 60.7851 27.3053 L 95.3865 46.5541 M 97.878 69.9541 L 69.4876 73.432 M 69.4876 73.432 L 90.3649 98.7286 M 90.3649 98.7286 L 110.925 120.254 M 110.925 120.254 L 129.248 98.4407 M 129.248 98.4407 L 138.597 64.3079 M 138.597 64.3079 L 129.248 98.4407 M 129.248 98.4407 L 110.925 120.254 M 110.925 120.254 L 90.3649 98.7286 M 90.3649 98.7286 L 69.4876 73.432 M 69.4876 73.432 L 97.878 69.9541 M 97.878 69.9541 L 45.0645 49.581 M 45.0645 49.581 L 69.4876 73.432 M 69.4876 73.432 L 45.0645 49.581 M 45.0645 49.581 L 97.878 69.9541 M 90.3649 98.7286 L 83.4795 132.317 M 83.4795 132.317 L 82.1549 158.847 M 82.1549 158.847 L 54.2984 130.441 M 54.2984 130.441 L 82.1549 158.847 M 82.1549 158.847 L 83.4795 132.317 M 83.4795 132.317 L 117.263 146.915 M 117.263 146.915 L 83.4795 132.317 M 83.4795 132.317 L 110.925 120.254 M 110.925 120.254 L 83.4795 132.317 M 83.4795 132.317 L 90.3649 98.7286 M 90.3649 98.7286 L 62.7046 111.739 M 62.7046 111.739 L 90.3649 98.7286 M 90.3649 98.7286 L 129.248 98.4407 M 129.248 98.4407 L 157.238 75.8513 M 157.238 75.8513 L 129.248 98.4407 M 129.248 98.4407 L 90.3649 98.7286 M 110.925 120.254 L 154.154 110.092 M 154.154 110.092 L 110.925 120.254 M 130.231 139.702 L 151.569 145.298 M 151.569 145.298 L 130.231 139.702 M 130.231 139.702 L 154.154 110.092 M 154.154 110.092 L 174.573 70.5217 M 174.573 70.5217 L 173.166 113.384 M 173.166 113.384 L 174.573 70.5217 M 174.573 70.5217 L 203.705 101.831 M 203.705 101.831 L 174.573 70.5217 M 174.573 70.5217 L 154.154 110.092 M 154.154 110.092 L 157.238 75.8513 M 157.238 75.8513 L 154.154 110.092 M 154.154 110.092 L 130.231 139.702 M 117.263 146.915 L 82.1549 158.847 M 82.1549 158.847 L 117.263 146.915 M 151.569 145.298 L 154.154 110.092 M 154.154 110.092 L 151.569 145.298 M 151.569 145.298 L 171.624 118.282 M 171.624 118.282 L 195.321 145.179 M 195.321 145.179 L 171.624 118.282 M 171.624 118.282 L 151.569 145.298 M 151.569 145.298 L 195.321 145.179 M 195.321 145.179 L 170.123 161.143 M 170.123 161.143 L 203.284 168.854 M 203.284 168.854 L 170.123 161.143 M 170.123 161.143 L 195.321 145.179 M 195.321 145.179 L 151.569 145.298 M 154.154 110.092 L 129.248 98.4407 M 129.248 98.4407 L 154.154 110.092 M 156.698 67.4592 L 169.201 51.5297 M 169.201 51.5297 L 197.483 57.3219 M 197.483 57.3219 L 169.201 51.5297 M 169.201 51.5297 L 156.698 67.4592 M 156.698 67.4592 L 197.483 57.3219 M 197.483 57.3219 L 174.573 70.5217 M 174.573 70.5217 L 197.483 57.3219 M 197.483 57.3219 L 156.698 67.4592 M 197.483 57.3219 L 233.305 71.1787 M 233.305 71.1787 L 197.483 57.3219 M 197.483 57.3219 L 227.368 94.8052 M 227.368 94.8052 L 197.483 57.3219 M 197.483 57.3219 L 203.705 101.831 M 203.705 101.831 L 197.483 57.3219 M 202.659 143.884 L 236.667 155.22 M 236.667 155.22 L 202.659 143.884 M 203.284 168.854 L 236.468 172.925 M 236.468 172.925 L 230.101 198.892 M 230.101 198.892 L 252.348 220.27 M 252.348 220.27 L 230.101 198.892 M 230.101 198.892 L 236.468 172.925 M 236.468 172.925 L 236.667 155.22 M 236.667 155.22 L 236.468 172.925 M 236.468 172.925 L 203.284 168.854 M 203.284 168.854 L 230.101 198.892 M 230.101 198.892 L 250.623 176.387 M 250.623 176.387 L 276.933 181.225 M 276.933 181.225 L 250.623 176.387 M 250.623 176.387 L 230.101 198.892 M 230.101 198.892 L 266.904 200.481 M 266.904 200.481 L 276.933 181.225 M 276.933 181.225 L 266.904 200.481 M 266.904 200.481 L 292.433 210.675 M 292.433 210.675 L 266.904 200.481 M 266.904 200.481 L 230.101 198.892 M 230.101 198.892 L 203.284 168.854 M 203.284 168.854 L 236.667 155.22 M 236.667 155.22 L 203.284 168.854 M 203.284 168.854 L 183.592 187.908 M 183.592 187.908 L 203.284 168.854 M 250.623 176.387 L 266.904 200.481 M 266.904 200.481 L 250.623 176.387 M 276.933 181.225 L 303.983 171.413 M 303.983 171.413 L 276.933 181.225 M 276.933 181.225 L 276.779 161.636 M 276.779 161.636 L 276.933 181.225 M 303.983 171.413 L 302.635 202.367 M 302.635 202.367 L 303.983 171.413 M 324.778 189.046 L 318.947 214.381 M 318.947 214.381 L 324.778 189.046 M 324.778 189.046 L 302.635 202.367 M 302.635 202.367 L 324.778 189.046 M 324.778 189.046 L 342.463 203.728 M 342.463 203.728 L 324.778 189.046 M 324.778 189.046 L 348.076 192.085 M 348.076 192.085 L 324.778 189.046 M 274.421 242.846 L 261.63 237.144 M 261.63 237.144 L 227.912 229.163 M 227.912 229.163 L 216.796 251.51 M 216.796 251.51 L 227.912 229.163 M 227.912 229.163 L 261.63 237.144 M 261.63 237.144 L 243.445 256.559 M 243.445 256.559 L 261.63 237.144 M 261.63 237.144 L 274.421 242.846 M 274.421 242.846 L 280.615 270.469 M 280.615 270.469 L 262.825 292.384 M 262.825 292.384 L 270.23 294.104 M 270.23 294.104 L 262.825 292.384 M 262.825 292.384 L 280.615 270.469 M 280.615 270.469 L 258.546 268.424 M 258.546 268.424 L 280.615 270.469 M 280.615 270.469 L 274.421 242.846 M 274.421 242.846 L 298.996 261.949 M 298.996 261.949 L 274.421 242.846 M 274.421 242.846 L 258.546 268.424 M 258.546 268.424 L 261.63 237.144 M 261.63 237.144 L 258.546 268.424 M 258.546 268.424 L 274.421 242.846 M 252.348 220.27 L 227.912 229.163 M 227.912 229.163 L 243.445 256.559 M 243.445 256.559 L 227.912 229.163 M 227.912 229.163 L 252.348 220.27 M 243.445 256.559 L 216.796 251.51 M 216.796 251.51 L 243.445 256.559 M 243.445 256.559 L 214.367 262.367 M 214.367 262.367 L 243.445 256.559 M 243.445 256.559 L 222.852 278.767 M 222.852 278.767 L 194.65 266.487 M 194.65 266.487 L 219.109 287.458 M 219.109 287.458 L 194.65 266.487 M 194.65 266.487 L 222.852 278.767 M 222.852 278.767 L 250.788 274.305 M 250.788 274.305 L 222.852 278.767 M 222.852 278.767 L 243.445 256.559 M 214.367 262.367 L 194.65 266.487 M 194.65 266.487 L 214.367 262.367 M 214.367 262.367 L 222.852 278.767 M 222.852 278.767 L 214.367 262.367 M 219.109 287.458 L 180.947 272.672 M 180.947 272.672 L 219.109 287.458 M 219.109 287.458 L 208.502 295.749 M 208.502 295.749 L 219.109 287.458 M 208.502 295.749 L 180.947 272.672 M 180.947 272.672 L 208.502 295.749 M 261.116 325.37 L 276.877 324.909 M 276.877 324.909 L 261.116 325.37 M 261.116 325.37 L 270.23 294.104 M 270.23 294.104 L 261.116 325.37 M 269.809 336.302 L 311.571 326.479 M 311.571 326.479 L 269.809 336.302 M 269.809 336.302 L 310.964 343.649 M 310.964 343.649 L 269.809 336.302 M 269.809 336.302 L 310.678 335.899 M 310.678 335.899 L 269.809 336.302 M 269.809 336.302 L 276.877 324.909 M 276.877 324.909 L 269.809 336.302 M 276.877 324.909 L 311.571 326.479 M 311.571 326.479 L 276.877 324.909 M 35.6666 169.92 L 54.2984 130.441 M 54.2984 130.441 L 22.3521 142.646 M 22.3521 142.646 L 54.2984 130.441 M 54.2984 130.441 L 35.6666 169.92 M 22.3521 142.646 L 19.4653 113.118 M 19.4653 113.118 L 22.3521 142.646" />
  <path class="h" d=" M 212.994 282.215 L 200.764 271.73 M 200.764 271.73 L 212.994 282.215 M 216.457 289.531 L 211.154 293.676 M 211.154 293.676 L 216.457 289.531 M 220.73 274.667 L 216.488 266.467 M 216.488 266.467 L 220.73 274.667 M 228 273.215 L 238.297 262.111 M 238.297 262.111 L 228 273.215 M 229.836 277.652 L 243.804 275.42 M 243.804 275.42 L 229.836 277.652 M 236.783 255.297 L 223.458 252.773 M 223.458 252.773 L 236.783 255.297 M 234.021 226.94 L 246.239 222.493 M 246.239 222.493 L 234.021 226.94 M 235.232 193.266 L 245.493 182.013 M 245.493 182.013 L 235.232 193.266 M 231.693 192.4 L 234.877 179.417 M 234.877 179.417 L 231.693 192.4 M 228.172 171.907 L 211.58 169.872 M 211.58 169.872 L 228.172 171.907 M 236.518 168.499 L 236.618 159.646 M 236.618 159.646 L 236.518 168.499 M 308.17 199.036 L 319.242 192.376 M 319.242 192.376 L 308.17 199.036 M 268.379 293.674 L 264.676 292.814 M 264.676 292.814 L 268.379 293.674 M 280.098 338.138 L 300.676 341.812 M 300.676 341.812 L 280.098 338.138 M 136.212 132.299 L 148.173 117.494 M 148.173 117.494 L 136.212 132.299 M 108.486 149.898 L 90.932 155.864 M 90.932 155.864 L 108.486 149.898 M 90.7804 70.8236 L 76.5852 72.5625 M 76.5852 72.5625 L 90.7804 70.8236 M 88.3419 24.6937 L 69.9707 26.4348 M 69.9707 26.4348 L 88.3419 24.6937 M 159.824 63.4769 L 166.075 55.5121 M 166.075 55.5121 L 159.824 63.4769 M 176.272 52.9778 L 190.412 55.8739 M 190.412 55.8739 L 176.272 52.9778 M 181.856 78.3491 L 196.422 94.0038 M 196.422 94.0038 L 181.856 78.3491 M 20.187 120.5 L 21.6304 135.264 M 21.6304 135.264 L 20.187 120.5" />
  <path class="z" fill="none" d=" M 302.635 202.367 L 276.933 181.225 L 292.433 210.675 L 268.768 224.976 L 266.904 200.481 L 252.348 220.27 L 261.63 237.144 L 273.648 222.096 L 274.421 242.846 L 293.578 234.834 L 298.996 261.949 L 280.615 270.469 L 270.23 294.104 L 276.877 324.909 L 306.634 314.533 L 311.571 326.479 M 310.964 343.649 L 278.159 347.498 L 269.809 336.302 L 261.116 325.37 L 262.825 292.384 L 258.546 268.424 L 243.445 256.559 L 250.788 274.305 L 228.5 284.082 M 208.502 295.749 L 197.535 297.611 L 180.947 272.672 L 194.65 266.487 L 185.438 254.606 L 214.367 262.367 L 216.796 251.51 M 183.592 187.908 L 170.123 161.143 L 151.569 145.298 L 132.026 159.904 L 130.231 139.702 L 110.925 120.254 L 117.263 146.915 L 111.186 166.265 L 82.1549 158.847 M 8 126.128 L 19.4653 113.118 L 54.2984 130.441 L 83.4795 132.317 L 62.7046 111.739 L 69.4876 73.432 L 52.2067 71.9903 M 82.3004 8 L 97.5275 23.8231 L 95.3865 46.5541 L 97.878 69.9541 L 90.3649 98.7286 L 114.773 81.7391 L 129.248 98.4407 L 119.797 78.4623 L 138.597 64.3079 L 157.238 75.8513 L 174.573 70.5217 L 156.698 67.4592 L 146.649 47.9723 L 169.201 51.5297 L 188.965 41.9571 M 212.99 49.0656 L 233.305 71.1787 L 227.368 94.8052 L 203.705 101.831 L 173.166 113.384 L 154.154 110.092 L 171.624 118.282 L 203.863 123.455 L 195.321 145.179 L 203.284 168.854 L 202.659 143.884 L 223.861 134.118 L 236.667 155.22 L 250.892 174.996 L 236.468 172.925 L 250.623 176.387 L 276.779 161.636 M 348.076 192.085 L 342.463 203.728 L 318.947 214.381 L 302.635 202.367" />
  <path class="z" d=" M 276.043 180.335 L 277.823 180.335 L 277.823 182.115 L 276.043 182.115 L 276.043 180.335 M 266.014 199.591 L 267.794 199.591 L 267.794 201.371 L 266.014 201.371 L 266.014 199.591 M 260.74 236.254 L 262.52 236.254 L 262.52 238.034 L 260.74 238.034 L 260.74 236.254 M 273.531 241.956 L 275.311 241.956 L 275.311 243.736 L 273.531 243.736 L 273.531 241.956 M 275.987 324.019 L 277.767 324.019 L 277.767 325.799 L 275.987 325.799 L 275.987 324.019 M 268.919 335.412 L 270.699 335.412 L 270.699 337.192 L 268.919 337.192 L 268.919 335.412 M 242.555 255.669 L 244.335 255.669 L 244.335 257.449 L 242.555 257.449 L 242.555 255.669 M 193.76 265.597 L 195.54 265.597 L 195.54 267.377 L 193.76 267.377 L 193.76 265.597 M 150.679 144.408 L 152.459 144.408 L 152.459 146.188 L 150.679 146.188 L 150.679 144.408 M 110.035 119.364 L 111.815 119.364 L 111.815 121.144 L 110.035 121.144 L 110.035 119.364 M 82.5895 131.427 L 84.3695 131.427 L 84.3695 133.207 L 82.5895 133.207 L 82.5895 131.427 M 89.4749 97.8386 L 91.2549 97.8386 L 91.2549 99.6186 L 89.4749 99.6186 L 89.4749 97.8386 M 128.358 97.5507 L 130.138 97.5507 L 130.138 99.3307 L 128.358 99.3307 L 128.358 97.5507 M 173.683 69.6317 L 175.463 69.6317 L 175.463 71.4117 L 173.683 71.4117 L 173.683 69.6317 M 153.264 109.202 L 155.044 109.202 L 155.044 110.982 L 153.264 110.982 L 153.264 109.202 M 202.394 167.964 L 204.174 167.964 L 204.174 169.744 L 202.394 169.744 L 202.394 167.964 M 235.578 172.035 L 237.358 172.035 L 237.358 173.815 L 235.578 173.815 L 235.578 172.035" />
  <path class="h" d=" M 311.348 328.834 L 310.901 333.544 M 310.749 337.836 L 310.893 341.712 M 218.05 300.865 L 211.685 297.454 M 219.64 291.236 L 220.702 298.792 M 227.088 282.753 L 224.264 280.096 M 221.916 280.94 L 220.045 285.285 M 214.763 248.526 L 210.697 242.558 M 213.476 236.971 L 223.1 231.765 M 228.459 221.595 L 229.554 206.46 M 218.474 196.146 L 195.219 190.654 M 283.58 164.081 L 297.182 168.969 M 309.182 175.821 L 319.579 184.638 M 329.847 186.066 L 339.985 180.106 M 345.81 180.866 L 347.32 188.346 M 201.359 55.2578 L 209.113 51.1297 M 191.094 45.7983 L 195.353 53.4807 M 66.1639 22.479 L 76.9216 12.8263 M 48.9947 44.012 L 56.855 32.8742 M 50.4211 66.388 L 46.8501 55.1833 M 18.7641 138.517 L 11.588 130.257 M 32.338 163.101 L 25.6807 149.465 M 70.5329 161.615 L 47.2887 167.152" />
  <path class="h" d=" M 311.482 327.421 L 309.741 327.792 M 310.706 336.68 L 308.927 336.663 M 218.161 300.924 L 218.286 299.148 M 219.392 289.472 L 217.85 290.361 M 222.477 279.636 L 220.868 278.876 M 223.421 279.303 L 225.172 278.983 M 214.834 248.63 L 215.826 247.152 M 216.203 235.496 L 216.269 237.275 M 228.291 223.924 L 230.051 223.657 M 222.016 196.982 L 221.029 195.501 M 291.373 166.881 L 290.11 168.136 M 313.935 179.852 L 313.137 181.443 M 335.123 182.964 L 336.579 183.989 M 347.673 190.091 L 345.895 190.01 M 208.546 51.4314 L 209.938 52.5413 M 191.406 46.3598 L 189.672 46.7634 M 70.7584 18.3564 L 72.5024 18.7126 M 53.2613 37.9664 L 55.0054 38.322 M 48.7086 61.0148 L 50.2366 61.9279 M 13.6215 132.598 L 14.1329 130.893 M 24.6564 147.366 L 26.2021 146.484 M 43.7481 167.995 L 44.2295 166.281" />
</svg>
