<?xml version="1.0"?>
<svg width="328" height="335" version="1.1" xmlns="http://www.w3.org/2000/svg" xmlns:xlink="http://www.w3.org/1999/xlink">
  <defs>
  <style type="text/css">
    <![CDATA[
      .b {stroke:rgb(0,0,0);stroke-width:0.837500;fill:none}
      .c {stroke:rgb(128,128,128);stroke-width:0.418750;stroke-dasharray:1.640000, 1.640000;}
      .h {stroke:rgb(240,200,0);stroke-width:0.837500;}
      .m {stroke:rgb(255,0,0);stroke-width:0.418750;}
      .n {stroke:rgb(128,128,128);stroke-width:0.418750}
      .t {stroke:rgb(0,128,0);stroke-width:0.418750;}
      .tab {stroke:rgb(0,0,255);stroke-width:0.209375;fill:none}
      .v {stroke:rgb(0,0,255);stroke-width:0.418750;}
      .z {stroke:rgb(0,240,200);stroke-width:0.209375;}
    ]]>
  </style>
  </defs>
  <path fill="none" class="b" d=" M 88.8596 103.117 L 118.46 60.8429 L 163.382 52.922 L 124.797 96.7805 L 168.656 135.366 L 207.241 91.5072 L 163.382 52.922 L 155.461 8 L 199.32 46.5852 L 243.178 85.1704 L 213.578 127.445 L 174.992 171.303 L 213.578 127.445 L 255.852 157.046 L 299.711 195.631 L 270.11 237.905 L 312.384 267.506 L 320.305 312.428 L 276.447 273.843 L 234.172 244.242 L 263.773 201.968 L 219.914 163.382 L 181.329 207.241 L 139.055 177.64 L 96.7805 148.039 L 52.922 109.454 L 8 117.375 L 46.5852 73.5165 L 88.8596 103.117 L 132.718 141.703 L 88.8596 103.117" />
  <path class="c" d=" M 219.914 163.382 L 213.578 127.445 M 213.578 127.445 L 219.914 163.382 M 219.914 163.382 L 255.852 157.046 M 255.852 157.046 L 219.914 163.382 M 219.914 163.382 L 174.992 171.303 M 174.992 171.303 L 219.914 163.382 M 213.578 127.445 L 168.656 135.366 M 168.656 135.366 L 213.578 127.445 M 213.578 127.445 L 207.241 91.5072 M 207.241 91.5072 L 243.178 85.1704 M 243.178 85.1704 L 207.241 91.5072 M 207.241 91.5072 L 199.32 46.5852 M 199.32 46.5852 L 163.382 52.922 M 163.382 52.922 L 199.32 46.5852 M 199.32 46.5852 L 207.241 91.5072 M 207.241 91.5072 L 213.578 127.445 M 168.656 135.366 L 132.718 141.703 M 132.718 141.703 L 124.797 96.7805 M 124.797 96.7805 L 118.46 60.8429 M 118.46 60.8429 L 124.797 96.7805 M 124.797 96.7805 L 132.718 141.703 M 132.718 141.703 L 96.7805 148.039 M 96.7805 148.039 L 132.718 141.703 M 132.718 141.703 L 168.656 135.366 M 168.656 135.366 L 174.992 171.303 M 174.992 171.303 L 132.718 141.703 M 132.718 141.703 L 174.992 171.303 M 174.992 171.303 L 168.656 135.366 M 174.992 171.303 L 139.055 177.64 M 139.055 177.64 L 174.992 171.303 M 174.992 171.303 L 181.329 207.241 M 181.329 207.241 L 174.992 171.303 M 139.055 177.64 L 132.718 141.703 M 132.718 141.703 L 139.055 177.64 M 96.7805 148.039 L 88.8596 103.117 M 88.8596 103.117 L 124.797 96.7805 M 124.797 96.7805 L 88.8596 103.117 M 88.8596 103.117 L 96.7805 148.039 M 88.8596 103.117 L 52.922 109.454 M 52.922 109.454 L 46.5852 73.5165 M 46.5852 73.5165 L 52.922 109.454 M 52.922 109.454 L 88.8596 103.117 M 255.852 157.046 L 263.773 201.968 M 263.773 201.968 L 255.852 157.046 M 263.773 201.968 L 270.11 237.905 M 270.11 237.905 L 276.447 273.843 M 276.447 273.843 L 312.384 267.506 M 312.384 267.506 L 276.447 273.843 M 276.447 273.843 L 270.11 237.905 M 270.11 237.905 L 263.773 201.968 M 263.773 201.968 L 299.711 195.631 M 299.711 195.631 L 263.773 201.968 M 270.11 237.905 L 234.172 244.242 M 234.172 244.242 L 270.11 237.905" />
  <path class="h" d=" M 190.336 48.1694 L 172.367 51.3378 M 172.367 51.3378 L 190.336 48.1694" />
  <path class="z" fill="none" d=" M 88.8596 103.117 L 118.46 60.8429 M 163.382 52.922 L 124.797 96.7805 L 168.656 135.366 L 207.241 91.5072 L 163.382 52.922 M 243.178 85.1704 L 213.578 127.445 L 174.992 171.303 L 213.578 127.445 L 255.852 157.046 M 299.711 195.631 L 270.11 237.905 L 312.384 267.506 M 320.305 312.428 L 276.447 273.843 L 234.172 244.242 L 263.773 201.968 L 219.914 163.382 L 181.329 207.241 L 139.055 177.64 L 96.7805 148.039 L 52.922 109.454 M 46.5852 73.5165 L 88.8596 103.117 L 132.718 141.703 L 88.8596 103.117" />
  <path class="z" d=" M 123.977 95.9605 L 125.617 95.9605 L 125.617 97.6005 L 123.977 97.6005 L 123.977 95.9605 M 206.421 90.6872 L 208.061 90.6872 L 208.061 92.3272 L 206.421 92.3272 L 206.421 90.6872 M 174.172 170.483 L 175.812 170.483 L 175.812 172.123 L 174.172 172.123 L 174.172 170.483 M 269.29 237.085 L 270.93 237.085 L 270.93 238.725 L 269.29 238.725 L 269.29 237.085 M 219.094 162.562 L 220.734 162.562 L 220.734 164.202 L 219.094 164.202 L 219.094 162.562 M 131.898 140.883 L 133.538 140.883 L 133.538 142.523 L 131.898 142.523 L 131.898 140.883" />
  <path class="h" d=" M 129.691 58.8627 L 152.152 54.9022 M 161.402 41.6915 L 157.442 19.2305 M 166.426 17.6463 L 188.355 36.9389 M 210.285 56.2315 L 232.214 75.5241 M 266.817 166.692 L 288.746 185.985 M 314.364 278.736 L 318.325 301.197 M 41.6915 111.434 L 19.2305 115.395 M 17.6463 106.41 L 36.9389 84.4811" />
  <path class="h" d=" M 122.953 60.0508 L 123.035 61.6888 M 162.59 48.4298 L 164.228 48.3475 M 159.882 11.8889 L 160.021 13.523 M 205.167 51.7288 L 205.252 53.3666 M 293.864 190.487 L 292.332 191.072 M 314.296 278.346 L 312.667 278.153 M 18.8403 115.464 L 19.745 114.096 M 42.6963 77.9369 L 43.2024 79.4969" />
</svg>
