<?xml version="1.0"?>
<svg width="354" height="406" version="1.1" xmlns="http://www.w3.org/2000/svg" xmlns:xlink="http://www.w3.org/1999/xlink">
  <defs>
  <style type="text/css">
    <![CDATA[
      .b {stroke:rgb(0,0,0);stroke-width:1.015000;fill:none}
      .c {stroke:rgb(128,128,128);stroke-width:0.507500;stroke-dasharray:1.770000, 1.770000;}
      .h {stroke:rgb(240,200,0);stroke-width:1.015000;}
      .m {stroke:rgb(255,0,0);stroke-width:0.507500;}
      .n {stroke:rgb(128,128,128);stroke-width:0.507500}
      .t {stroke:rgb(0,128,0);stroke-width:0.507500;}
      .tab {stroke:rgb(0,0,255);stroke-width:0.253750;fill:none}
      .v {stroke:rgb(0,0,255);stroke-width:0.507500;}
      .z {stroke:rgb(0,240,200);stroke-width:0.253750;}
    ]]>
  </style>
  </defs>
  <path fill="none" class="b" d=" M 133.063 10.1329 L 144.687 26.7337 L 185.009 33.8434 L 195.089 35.6209 L 196.866 25.5406 L 237.187 32.6503 L 253.788 21.0263 L 263.869 22.8037 L 266.002 10.7073 L 306.323 17.817 L 346.644 24.9268 L 304.19 29.9134 L 301.701 44.0258 L 287.589 41.5374 L 275.493 39.4045 L 261.38 36.9161 L 251.3 35.1387 L 249.522 45.219 L 235.41 42.7306 L 233.277 54.8269 L 192.956 47.7172 L 185.846 88.0384 L 183.358 102.151 L 180.869 116.263 L 185.856 158.717 L 173.76 156.584 L 171.627 168.681 L 164.517 209.002 L 151.948 221.337 L 164.283 233.906 L 147.683 245.53 L 159.779 247.663 L 152.669 287.984 L 140.573 285.851 L 138.44 297.947 L 131.33 338.269 L 118.762 350.604 L 131.097 363.172 L 143.193 365.305 L 154.817 381.906 L 114.496 374.796 L 116.984 360.684 L 102.872 358.195 L 62.5505 351.086 L 50.4541 348.953 L 48.3212 361.049 L 8 353.939 L 10.1329 341.843 L 11.9103 331.763 L 14.0433 319.666 L 54.3645 326.776 L 52.2315 338.872 L 64.3279 341.005 L 104.649 348.115 L 121.25 336.491 L 128.36 296.17 L 130.493 284.074 L 118.396 281.941 L 125.506 241.619 L 137.602 243.752 L 150.171 231.417 L 137.836 218.849 L 125.74 216.716 L 114.116 200.115 L 154.437 207.225 L 161.547 166.903 L 163.679 154.807 L 151.583 152.674 L 158.693 112.353 L 170.789 114.486 L 159.165 97.885 L 173.278 100.373 L 175.766 86.261 L 182.876 45.9398 L 142.554 38.8301 L 125.954 50.4541 L 113.857 48.3212 L 120.967 8 L 133.063 10.1329" />
  <path class="c" d=" M 154.437 207.225 L 164.517 209.002 M 164.517 209.002 L 154.437 207.225 M 154.437 207.225 L 151.948 221.337 M 151.948 221.337 L 154.437 207.225 M 154.437 207.225 L 137.836 218.849 M 137.836 218.849 L 154.437 207.225 M 154.437 207.225 L 125.74 216.716 M 125.74 216.716 L 154.437 207.225 M 164.517 209.002 L 161.547 166.903 M 161.547 166.903 L 164.517 209.002 M 151.948 221.337 L 150.171 231.417 M 150.171 231.417 L 147.683 245.53 M 147.683 245.53 L 152.669 287.984 M 152.669 287.984 L 147.683 245.53 M 147.683 245.53 L 140.573 285.851 M 140.573 285.851 L 130.493 284.074 M 130.493 284.074 L 140.573 285.851 M 140.573 285.851 L 128.36 296.17 M 128.36 296.17 L 138.44 297.947 M 138.44 297.947 L 128.36 296.17 M 128.36 296.17 L 140.573 285.851 M 140.573 285.851 L 137.602 243.752 M 137.602 243.752 L 130.493 284.074 M 130.493 284.074 L 137.602 243.752 M 137.602 243.752 L 140.573 285.851 M 140.573 285.851 L 147.683 245.53 M 147.683 245.53 L 150.171 231.417 M 150.171 231.417 L 151.948 221.337 M 151.948 221.337 L 137.836 218.849 M 137.836 218.849 L 151.948 221.337 M 150.171 231.417 L 164.283 233.906 M 164.283 233.906 L 150.171 231.417 M 147.683 245.53 L 137.602 243.752 M 137.602 243.752 L 147.683 245.53 M 125.506 241.619 L 130.493 284.074 M 130.493 284.074 L 125.506 241.619 M 128.36 296.17 L 131.33 338.269 M 131.33 338.269 L 128.36 296.17 M 121.25 336.491 L 131.33 338.269 M 131.33 338.269 L 121.25 336.491 M 121.25 336.491 L 118.762 350.604 M 118.762 350.604 L 121.25 336.491 M 118.762 350.604 L 116.984 360.684 M 116.984 360.684 L 104.649 348.115 M 104.649 348.115 L 116.984 360.684 M 116.984 360.684 L 131.097 363.172 M 131.097 363.172 L 114.496 374.796 M 114.496 374.796 L 131.097 363.172 M 131.097 363.172 L 116.984 360.684 M 116.984 360.684 L 118.762 350.604 M 118.762 350.604 L 104.649 348.115 M 104.649 348.115 L 62.5505 351.086 M 62.5505 351.086 L 52.2315 338.872 M 52.2315 338.872 L 50.4541 348.953 M 50.4541 348.953 L 52.2315 338.872 M 52.2315 338.872 L 10.1329 341.843 M 10.1329 341.843 L 50.4541 348.953 M 50.4541 348.953 L 10.1329 341.843 M 10.1329 341.843 L 52.2315 338.872 M 52.2315 338.872 L 62.5505 351.086 M 62.5505 351.086 L 104.649 348.115 M 104.649 348.115 L 102.872 358.195 M 102.872 358.195 L 104.649 348.115 M 104.649 348.115 L 118.762 350.604 M 114.496 374.796 L 143.193 365.305 M 143.193 365.305 L 114.496 374.796 M 62.5505 351.086 L 64.3279 341.005 M 64.3279 341.005 L 62.5505 351.086 M 50.4541 348.953 L 8 353.939 M 8 353.939 L 50.4541 348.953 M 52.2315 338.872 L 11.9103 331.763 M 11.9103 331.763 L 54.3645 326.776 M 54.3645 326.776 L 11.9103 331.763 M 11.9103 331.763 L 52.2315 338.872 M 161.547 166.903 L 173.76 156.584 M 173.76 156.584 L 170.789 114.486 M 170.789 114.486 L 163.679 154.807 M 163.679 154.807 L 170.789 114.486 M 170.789 114.486 L 173.76 156.584 M 173.76 156.584 L 161.547 166.903 M 161.547 166.903 L 171.627 168.681 M 171.627 168.681 L 161.547 166.903 M 163.679 154.807 L 158.693 112.353 M 158.693 112.353 L 163.679 154.807 M 163.679 154.807 L 173.76 156.584 M 173.76 156.584 L 180.869 116.263 M 180.869 116.263 L 173.76 156.584 M 173.76 156.584 L 163.679 154.807 M 170.789 114.486 L 183.358 102.151 M 183.358 102.151 L 170.789 114.486 M 170.789 114.486 L 173.278 100.373 M 173.278 100.373 L 185.846 88.0384 M 185.846 88.0384 L 173.278 100.373 M 173.278 100.373 L 170.789 114.486 M 170.789 114.486 L 180.869 116.263 M 180.869 116.263 L 170.789 114.486 M 173.278 100.373 L 183.358 102.151 M 183.358 102.151 L 173.278 100.373 M 175.766 86.261 L 185.846 88.0384 M 185.846 88.0384 L 182.876 45.9398 M 182.876 45.9398 L 195.089 35.6209 M 195.089 35.6209 L 237.187 32.6503 M 237.187 32.6503 L 251.3 35.1387 M 251.3 35.1387 L 253.788 21.0263 M 253.788 21.0263 L 251.3 35.1387 M 251.3 35.1387 L 237.187 32.6503 M 237.187 32.6503 L 235.41 42.7306 M 235.41 42.7306 L 237.187 32.6503 M 237.187 32.6503 L 195.089 35.6209 M 195.089 35.6209 L 182.876 45.9398 M 182.876 45.9398 L 185.846 88.0384 M 185.846 88.0384 L 175.766 86.261 M 182.876 45.9398 L 192.956 47.7172 M 192.956 47.7172 L 235.41 42.7306 M 235.41 42.7306 L 192.956 47.7172 M 192.956 47.7172 L 182.876 45.9398 M 182.876 45.9398 L 185.009 33.8434 M 185.009 33.8434 L 142.554 38.8301 M 142.554 38.8301 L 185.009 33.8434 M 185.009 33.8434 L 182.876 45.9398 M 192.956 47.7172 L 195.089 35.6209 M 195.089 35.6209 L 235.41 42.7306 M 235.41 42.7306 L 195.089 35.6209 M 195.089 35.6209 L 192.956 47.7172 M 237.187 32.6503 L 249.522 45.219 M 249.522 45.219 L 237.187 32.6503 M 251.3 35.1387 L 263.869 22.8037 M 263.869 22.8037 L 261.38 36.9161 M 261.38 36.9161 L 263.869 22.8037 M 263.869 22.8037 L 251.3 35.1387 M 263.869 22.8037 L 306.323 17.817 M 306.323 17.817 L 275.493 39.4045 M 275.493 39.4045 L 306.323 17.817 M 306.323 17.817 L 287.589 41.5374 M 287.589 41.5374 L 306.323 17.817 M 306.323 17.817 L 263.869 22.8037 M 263.869 22.8037 L 275.493 39.4045 M 275.493 39.4045 L 263.869 22.8037 M 287.589 41.5374 L 304.19 29.9134 M 304.19 29.9134 L 287.589 41.5374 M 304.19 29.9134 L 306.323 17.817 M 306.323 17.817 L 304.19 29.9134 M 144.687 26.7337 L 120.967 8 M 120.967 8 L 144.687 26.7337 M 144.687 26.7337 L 142.554 38.8301 M 142.554 38.8301 L 120.967 8 M 120.967 8 L 125.954 50.4541 M 125.954 50.4541 L 120.967 8 M 120.967 8 L 142.554 38.8301 M 142.554 38.8301 L 144.687 26.7337" />
  <path class="h" d=" M 156.957 207.669 L 161.997 208.558 M 161.997 208.558 L 156.957 207.669 M 145.162 245.085 L 140.122 244.197 M 140.122 244.197 L 145.162 245.085 M 128.81 337.824 L 123.77 336.935 M 123.77 336.935 L 128.81 337.824 M 104.205 350.635 L 103.316 355.675 M 103.316 355.675 L 104.205 350.635 M 173.309 114.93 L 178.349 115.819 M 178.349 115.819 L 173.309 114.93 M 178.286 86.7054 L 183.326 87.5941 M 183.326 87.5941 L 178.286 86.7054 M 235.854 40.2105 L 236.743 35.1704 M 236.743 35.1704 L 235.854 40.2105" />
  <path class="z" fill="none" d=" M 133.063 10.1329 L 144.687 26.7337 L 185.009 33.8434 L 195.089 35.6209 L 196.866 25.5406 L 237.187 32.6503 L 253.788 21.0263 M 306.323 17.817 L 346.644 24.9268 L 304.19 29.9134 L 301.701 44.0258 L 287.589 41.5374 L 275.493 39.4045 L 261.38 36.9161 L 251.3 35.1387 L 249.522 45.219 L 235.41 42.7306 L 233.277 54.8269 L 192.956 47.7172 L 185.846 88.0384 L 183.358 102.151 L 180.869 116.263 L 185.856 158.717 L 173.76 156.584 L 171.627 168.681 L 164.517 209.002 L 151.948 221.337 L 164.283 233.906 M 147.683 245.53 L 159.779 247.663 L 152.669 287.984 L 140.573 285.851 L 138.44 297.947 L 131.33 338.269 L 118.762 350.604 L 131.097 363.172 L 143.193 365.305 M 114.496 374.796 L 116.984 360.684 L 102.872 358.195 M 62.5505 351.086 L 50.4541 348.953 L 48.3212 361.049 M 14.0433 319.666 L 54.3645 326.776 L 52.2315 338.872 L 64.3279 341.005 L 104.649 348.115 L 121.25 336.491 L 128.36 296.17 L 130.493 284.074 L 118.396 281.941 L 125.506 241.619 L 137.602 243.752 L 150.171 231.417 L 137.836 218.849 L 125.74 216.716 L 114.116 200.115 M 154.437 207.225 L 161.547 166.903 L 163.679 154.807 L 151.583 152.674 L 158.693 112.353 L 170.789 114.486 L 159.165 97.885 L 173.278 100.373 L 175.766 86.261 L 182.876 45.9398 L 142.554 38.8301 L 125.954 50.4541 L 113.857 48.3212" />
  <path class="z" d=" M 194.204 34.7359 L 195.974 34.7359 L 195.974 36.5059 L 194.204 36.5059 L 194.204 34.7359 M 250.415 34.2537 L 252.185 34.2537 L 252.185 36.0237 L 250.415 36.0237 L 250.415 34.2537 M 192.071 46.8322 L 193.841 46.8322 L 193.841 48.6022 L 192.071 48.6022 L 192.071 46.8322 M 172.875 155.699 L 174.645 155.699 L 174.645 157.469 L 172.875 157.469 L 172.875 155.699 M 151.063 220.452 L 152.833 220.452 L 152.833 222.222 L 151.063 222.222 L 151.063 220.452 M 139.688 284.966 L 141.458 284.966 L 141.458 286.736 L 139.688 286.736 L 139.688 284.966 M 117.877 349.719 L 119.647 349.719 L 119.647 351.489 L 117.877 351.489 L 117.877 349.719 M 116.099 359.799 L 117.869 359.799 L 117.869 361.569 L 116.099 361.569 L 116.099 359.799 M 49.5691 348.068 L 51.3391 348.068 L 51.3391 349.838 L 49.5691 349.838 L 49.5691 348.068 M 51.3465 337.987 L 53.1165 337.987 L 53.1165 339.757 L 51.3465 339.757 L 51.3465 337.987 M 129.608 283.189 L 131.378 283.189 L 131.378 284.959 L 129.608 284.959 L 129.608 283.189 M 149.286 230.532 L 151.056 230.532 L 151.056 232.302 L 149.286 232.302 L 149.286 230.532 M 162.794 153.922 L 164.564 153.922 L 164.564 155.692 L 162.794 155.692 L 162.794 153.922 M 172.393 99.4884 L 174.163 99.4884 L 174.163 101.258 L 172.393 101.258 L 172.393 99.4884 M 181.991 45.0548 L 183.761 45.0548 L 183.761 46.8248 L 181.991 46.8248 L 181.991 45.0548" />
  <path class="h" d=" M 256.308 21.4706 L 261.349 22.3593 M 264.402 19.7796 L 265.468 13.7314 M 276.082 12.4848 L 296.242 16.0396 M 123.991 8.53323 L 130.039 9.59969 M 115.635 38.2409 L 119.19 18.0803 M 124.196 201.892 L 144.356 205.447 M 160.133 236.812 L 151.833 242.624 M 146.099 369.455 L 151.911 377.756 M 144.737 380.129 L 124.576 376.574 M 92.7914 356.418 L 72.6308 352.863 M 38.2409 359.272 L 18.0803 355.717 M 8.53323 350.915 L 9.59969 344.867 M 10.5773 339.323 L 11.466 334.283 M 12.4436 328.739 L 13.51 322.691" />
  <path class="h" d=" M 254.796 21.204 L 254.366 22.9208 M 264.084 21.5845 L 265.847 21.4273 M 271.377 11.6551 L 270.388 13.1232 M 130.97 9.76378 L 132.083 11.1403 M 119.731 15.0094 L 120.037 16.7527 M 121.125 201.351 L 121.634 203.046 M 160.277 236.711 L 158.709 235.89 M 87.0786 355.411 L 88.7133 354.732 M 32.5281 358.264 L 34.0989 357.449 M 9.91794 343.062 L 11.6695 343.317 M 11.7326 332.771 L 13.4828 333.035 M 12.2795 329.669 L 14.0453 329.548 M 149.442 380.958 L 148.786 379.314 M 152.012 377.9 L 150.248 377.754" />
</svg>
