<?xml version="1.0"?>
<svg width="573" height="603" version="1.1" xmlns="http://www.w3.org/2000/svg" xmlns:xlink="http://www.w3.org/1999/xlink">
  <defs>
  <style type="text/css">
    <![CDATA[
      .b {stroke:rgb(0,0,0);stroke-width:1.507500;fill:none}
      .c {stroke:rgb(128,128,128);stroke-width:0.753750;stroke-dasharray:2.865000, 2.865000;}
      .h {stroke:rgb(240,200,0);stroke-width:1.507500;}
      .m {stroke:rgb(255,0,0);stroke-width:0.753750;}
      .n {stroke:rgb(128,128,128);stroke-width:0.753750}
      .t {stroke:rgb(0,128,0);stroke-width:0.753750;}
      .tab {stroke:rgb(0,0,255);stroke-width:0.376875;fill:none}
      .v {stroke:rgb(0,0,255);stroke-width:0.753750;}
      .z {stroke:rgb(0,240,200);stroke-width:0.376875;}
    ]]>
  </style>
  </defs>
  <path fill="none" class="b" d=" M 114.861 388.872 L 127.503 365.568 L 108.858 384.417 L 100.222 399.866 L 105.775 407.684 L 88.6506 416.834 L 103.032 429.879 L 86.7513 423.304 L 84.0778 440.657 L 92.8609 436.807 L 97.2425 455.403 L 79.0507 458.801 L 79.606 437.769 L 77.6869 458.72 L 54.6678 463.047 L 77.3124 469.033 L 55.7307 498.649 L 16.9255 506.646 L 29.7147 468.724 L 58.8435 436.546 L 64.631 438.619 L 73.2114 433.727 L 74.6659 418.871 L 60.0313 415.932 L 54.8498 407.523 L 55.6312 401.425 L 63.551 400.921 L 65.2178 397.282 L 81.0054 415.051 L 88.73 392.571 L 97.0171 393.203 L 91.5144 386.974 L 87.566 386.319 L 79.724 387.537 L 97.3723 367.251 L 88.7201 342.018 L 121.337 350.525 L 93.5676 331.418 L 81.7206 355.318 L 54.0424 320.252 L 49.1844 364.66 L 26.0058 351.032 L 8 311.539 L 35.2305 301.46 L 64.8528 282.044 L 68.4572 298.281 L 83.8377 291.952 L 114.271 320.68 L 148.557 345.137 L 180.216 357.754 L 202.265 373.317 L 185.281 352.343 L 165.002 324.952 L 201.641 316.783 L 235.336 342.869 L 212.987 306.588 L 184.335 282.334 L 196.279 248.594 L 176.703 278.558 L 169.779 237.016 L 175.284 195.528 L 204.507 182.875 L 205.877 220.9 L 233.279 250.634 L 211.139 216.8 L 263.672 217.855 L 267.588 184.868 L 261.303 217.486 L 212.806 197.266 L 238.404 169.113 L 213.05 149.843 L 217.275 114.678 L 221.92 92.4007 L 216.298 114.452 L 192.777 97.427 L 212.823 57.1296 L 236.96 67.1929 L 237 41.0412 L 206.439 8 L 246.106 13.3054 L 266.949 24.1907 L 300.103 31.6268 L 326.147 49.4823 L 309.532 65.5806 L 270.591 50.5185 L 262.912 91.5596 L 240.89 105.654 L 267.022 106.556 L 239.34 136.734 L 270.814 110.536 L 282.508 130.498 L 303.455 153.23 L 315.824 172.734 L 315.188 211.104 L 296.113 205.352 L 308.319 221.099 L 263.218 249.174 L 312.485 229.301 L 352.297 237.512 L 313.946 224.036 L 340.137 195.988 L 370.723 184.585 L 339.94 195.446 L 343.361 172.606 L 345.902 141.798 L 377.456 142.99 L 386.562 110.256 L 409.39 131.316 L 443.383 111.296 L 406.924 96.23 L 417.918 67.179 L 435.469 51.5319 L 456.544 43.5227 L 456.295 82.3111 L 468.161 117.668 L 458.304 138.149 L 432.205 168.315 L 423.513 145.326 L 379.16 155.282 L 424.558 152.978 L 415.732 175.917 L 455.297 180.989 L 431.946 222.953 L 460.606 184.418 L 480.322 195.728 L 482.548 215.908 L 492.424 198.17 L 526.41 182.809 L 565.18 181.622 L 562.274 210.996 L 510.673 212.203 L 546.646 249.215 L 519.794 265.091 L 477.32 272.057 L 492.942 248.923 L 467.7 260.841 L 441.402 235.913 L 403.854 263.561 L 444.648 240.976 L 462.434 272.546 L 469.64 293.54 L 464.987 271.836 L 495.13 302.558 L 509.927 330.022 L 485.331 320.729 L 446.754 327.679 L 408.359 327.972 L 433.769 307.083 L 406.883 326.035 L 417.669 286.804 L 398.245 322.554 L 372.831 286.761 L 374.415 227.3 L 354.409 283.317 L 358.01 327.066 L 333.494 322.118 L 328.391 280.01 L 299.471 258.274 L 279.184 280.918 L 224.083 272.968 L 270.678 303.437 L 292.182 281.944 L 315.381 309.704 L 311.481 351.94 L 292.536 320.748 L 303.82 355.455 L 260.204 331.723 L 303.282 356.416 L 272.912 362.89 L 303.838 365.69 L 320.944 383.936 L 294.137 380.869 L 312.458 400.678 L 297.957 436.231 L 290.226 474.658 L 272.635 421.216 L 228.176 451.628 L 204.263 453.24 L 212.013 429.052 L 239.219 394.96 L 204.36 421.175 L 169.759 390.676 L 197.976 427.161 L 171.018 444.421 L 203.026 444.805 L 182.877 460.27 L 182.515 498.644 L 195.651 462.587 L 219.018 467.92 L 272.876 467.011 L 245.251 494.388 L 280.631 478.236 L 251.35 526.279 L 204.594 515.854 L 239.996 548.126 L 216.138 547.299 L 220.053 570.849 L 197.031 558.147 L 167.526 557.312 L 160.93 578.872 L 144.934 542.623 L 185.592 531.278 L 159.08 498.431 L 160.368 480.011 L 148.811 494.412 L 132.68 461.509 L 143.915 446.803 L 124.853 445.506 L 118.672 428.922 L 160.309 423.146 L 122.858 404.056 L 146.073 382.131 L 114.861 388.872" />
  <path class="c" d=" M 73.2114 433.727 L 79.606 437.769 M 79.606 437.769 L 73.2114 433.727 M 73.2114 433.727 L 77.6869 458.72 M 77.6869 458.72 L 73.2114 433.727 M 73.2114 433.727 L 54.6678 463.047 M 54.6678 463.047 L 64.631 438.619 M 64.631 438.619 L 54.6678 463.047 M 54.6678 463.047 L 55.7307 498.649 M 55.7307 498.649 L 29.7147 468.724 M 29.7147 468.724 L 55.7307 498.649 M 55.7307 498.649 L 54.6678 463.047 M 54.6678 463.047 L 29.7147 468.724 M 29.7147 468.724 L 54.6678 463.047 M 54.6678 463.047 L 58.8435 436.546 M 58.8435 436.546 L 54.6678 463.047 M 54.6678 463.047 L 73.2114 433.727 M 73.2114 433.727 L 86.7513 423.304 M 86.7513 423.304 L 81.0054 415.051 M 81.0054 415.051 L 86.7513 423.304 M 86.7513 423.304 L 79.606 437.769 M 79.606 437.769 L 84.0778 440.657 M 84.0778 440.657 L 79.606 437.769 M 79.606 437.769 L 86.7513 423.304 M 86.7513 423.304 L 88.6506 416.834 M 88.6506 416.834 L 100.222 399.866 M 100.222 399.866 L 97.0171 393.203 M 97.0171 393.203 L 81.0054 415.051 M 81.0054 415.051 L 97.0171 393.203 M 97.0171 393.203 L 108.858 384.417 M 108.858 384.417 L 97.0171 393.203 M 97.0171 393.203 L 100.222 399.866 M 100.222 399.866 L 88.6506 416.834 M 88.6506 416.834 L 97.0171 393.203 M 97.0171 393.203 L 88.6506 416.834 M 88.6506 416.834 L 86.7513 423.304 M 86.7513 423.304 L 74.6659 418.871 M 74.6659 418.871 L 63.551 400.921 M 63.551 400.921 L 74.6659 418.871 M 74.6659 418.871 L 54.8498 407.523 M 54.8498 407.523 L 63.551 400.921 M 63.551 400.921 L 81.0054 415.051 M 81.0054 415.051 L 63.551 400.921 M 63.551 400.921 L 54.8498 407.523 M 54.8498 407.523 L 74.6659 418.871 M 74.6659 418.871 L 86.7513 423.304 M 86.7513 423.304 L 73.2114 433.727 M 84.0778 440.657 L 97.2425 455.403 M 97.2425 455.403 L 84.0778 440.657 M 84.0778 440.657 L 79.0507 458.801 M 79.0507 458.801 L 84.0778 440.657 M 74.6659 418.871 L 81.0054 415.051 M 81.0054 415.051 L 88.6506 416.834 M 88.6506 416.834 L 81.0054 415.051 M 81.0054 415.051 L 74.6659 418.871 M 87.566 386.319 L 97.3723 367.251 M 97.3723 367.251 L 108.858 384.417 M 108.858 384.417 L 97.3723 367.251 M 97.3723 367.251 L 87.566 386.319 M 91.5144 386.974 L 97.3723 367.251 M 97.3723 367.251 L 91.5144 386.974 M 91.5144 386.974 L 108.858 384.417 M 108.858 384.417 L 91.5144 386.974 M 97.3723 367.251 L 127.503 365.568 M 127.503 365.568 L 146.073 382.131 M 146.073 382.131 L 169.759 390.676 M 169.759 390.676 L 146.073 382.131 M 146.073 382.131 L 127.503 365.568 M 127.503 365.568 L 148.557 345.137 M 148.557 345.137 L 127.503 365.568 M 127.503 365.568 L 121.337 350.525 M 121.337 350.525 L 114.271 320.68 M 114.271 320.68 L 121.337 350.525 M 121.337 350.525 L 148.557 345.137 M 148.557 345.137 L 146.073 382.131 M 146.073 382.131 L 148.557 345.137 M 148.557 345.137 L 169.759 390.676 M 169.759 390.676 L 180.216 357.754 M 180.216 357.754 L 169.759 390.676 M 169.759 390.676 L 148.557 345.137 M 148.557 345.137 L 121.337 350.525 M 121.337 350.525 L 127.503 365.568 M 127.503 365.568 L 97.3723 367.251 M 97.3723 367.251 L 121.337 350.525 M 121.337 350.525 L 97.3723 367.251 M 93.5676 331.418 L 68.4572 298.281 M 68.4572 298.281 L 93.5676 331.418 M 93.5676 331.418 L 54.0424 320.252 M 54.0424 320.252 L 26.0058 351.032 M 26.0058 351.032 L 54.0424 320.252 M 54.0424 320.252 L 35.2305 301.46 M 35.2305 301.46 L 68.4572 298.281 M 68.4572 298.281 L 35.2305 301.46 M 35.2305 301.46 L 54.0424 320.252 M 54.0424 320.252 L 68.4572 298.281 M 68.4572 298.281 L 54.0424 320.252 M 54.0424 320.252 L 93.5676 331.418 M 93.5676 331.418 L 114.271 320.68 M 114.271 320.68 L 68.4572 298.281 M 68.4572 298.281 L 114.271 320.68 M 114.271 320.68 L 93.5676 331.418 M 35.2305 301.46 L 26.0058 351.032 M 26.0058 351.032 L 35.2305 301.46 M 146.073 382.131 L 160.309 423.146 M 160.309 423.146 L 171.018 444.421 M 171.018 444.421 L 160.309 423.146 M 160.309 423.146 L 197.976 427.161 M 197.976 427.161 L 160.309 423.146 M 160.309 423.146 L 169.759 390.676 M 169.759 390.676 L 160.309 423.146 M 160.309 423.146 L 143.915 446.803 M 143.915 446.803 L 118.672 428.922 M 118.672 428.922 L 143.915 446.803 M 143.915 446.803 L 171.018 444.421 M 171.018 444.421 L 143.915 446.803 M 143.915 446.803 L 160.368 480.011 M 160.368 480.011 L 132.68 461.509 M 132.68 461.509 L 160.368 480.011 M 160.368 480.011 L 143.915 446.803 M 143.915 446.803 L 160.309 423.146 M 160.309 423.146 L 146.073 382.131 M 169.759 390.676 L 202.265 373.317 M 202.265 373.317 L 235.336 342.869 M 235.336 342.869 L 185.281 352.343 M 185.281 352.343 L 235.336 342.869 M 235.336 342.869 L 272.912 362.89 M 272.912 362.89 L 235.336 342.869 M 235.336 342.869 L 239.219 394.96 M 239.219 394.96 L 272.912 362.89 M 272.912 362.89 L 239.219 394.96 M 239.219 394.96 L 294.137 380.869 M 294.137 380.869 L 303.838 365.69 M 303.838 365.69 L 294.137 380.869 M 294.137 380.869 L 272.912 362.89 M 272.912 362.89 L 294.137 380.869 M 294.137 380.869 L 239.219 394.96 M 239.219 394.96 L 235.336 342.869 M 235.336 342.869 L 202.265 373.317 M 202.265 373.317 L 169.759 390.676 M 202.265 373.317 L 204.36 421.175 M 204.36 421.175 L 202.265 373.317 M 202.265 373.317 L 239.219 394.96 M 239.219 394.96 L 228.176 451.628 M 228.176 451.628 L 212.013 429.052 M 212.013 429.052 L 228.176 451.628 M 228.176 451.628 L 239.219 394.96 M 239.219 394.96 L 272.635 421.216 M 272.635 421.216 L 239.219 394.96 M 239.219 394.96 L 202.265 373.317 M 185.281 352.343 L 201.641 316.783 M 201.641 316.783 L 185.281 352.343 M 235.336 342.869 L 260.204 331.723 M 260.204 331.723 L 270.678 303.437 M 270.678 303.437 L 184.335 282.334 M 184.335 282.334 L 270.678 303.437 M 270.678 303.437 L 212.987 306.588 M 212.987 306.588 L 270.678 303.437 M 270.678 303.437 L 260.204 331.723 M 260.204 331.723 L 212.987 306.588 M 212.987 306.588 L 260.204 331.723 M 260.204 331.723 L 272.912 362.89 M 272.912 362.89 L 260.204 331.723 M 260.204 331.723 L 292.536 320.748 M 292.536 320.748 L 292.182 281.944 M 292.182 281.944 L 292.536 320.748 M 292.536 320.748 L 270.678 303.437 M 270.678 303.437 L 292.536 320.748 M 292.536 320.748 L 315.381 309.704 M 315.381 309.704 L 292.536 320.748 M 292.536 320.748 L 260.204 331.723 M 260.204 331.723 L 235.336 342.869 M 294.137 380.869 L 297.957 436.231 M 297.957 436.231 L 294.137 380.869 M 294.137 380.869 L 272.635 421.216 M 272.635 421.216 L 294.137 380.869 M 272.635 421.216 L 297.957 436.231 M 297.957 436.231 L 272.635 421.216 M 219.018 467.92 L 182.515 498.644 M 182.515 498.644 L 159.08 498.431 M 159.08 498.431 L 182.515 498.644 M 182.515 498.644 L 219.018 467.92 M 219.018 467.92 L 204.594 515.854 M 204.594 515.854 L 216.138 547.299 M 216.138 547.299 L 204.594 515.854 M 204.594 515.854 L 245.251 494.388 M 245.251 494.388 L 204.594 515.854 M 204.594 515.854 L 185.592 531.278 M 185.592 531.278 L 167.526 557.312 M 167.526 557.312 L 185.592 531.278 M 185.592 531.278 L 216.138 547.299 M 216.138 547.299 L 197.031 558.147 M 197.031 558.147 L 216.138 547.299 M 216.138 547.299 L 185.592 531.278 M 185.592 531.278 L 204.594 515.854 M 204.594 515.854 L 219.018 467.92 M 219.018 467.92 L 245.251 494.388 M 245.251 494.388 L 251.35 526.279 M 251.35 526.279 L 245.251 494.388 M 245.251 494.388 L 219.018 467.92 M 182.877 460.27 L 171.018 444.421 M 171.018 444.421 L 182.877 460.27 M 182.877 460.27 L 160.368 480.011 M 160.368 480.011 L 182.877 460.27 M 171.018 444.421 L 160.368 480.011 M 160.368 480.011 L 171.018 444.421 M 160.368 480.011 L 182.515 498.644 M 182.515 498.644 L 204.594 515.854 M 204.594 515.854 L 182.515 498.644 M 182.515 498.644 L 185.592 531.278 M 185.592 531.278 L 182.515 498.644 M 182.515 498.644 L 160.368 480.011 M 185.592 531.278 L 197.031 558.147 M 197.031 558.147 L 185.592 531.278 M 167.526 557.312 L 144.934 542.623 M 144.934 542.623 L 167.526 557.312 M 184.335 282.334 L 224.083 272.968 M 224.083 272.968 L 196.279 248.594 M 196.279 248.594 L 224.083 272.968 M 224.083 272.968 L 184.335 282.334 M 196.279 248.594 L 205.877 220.9 M 205.877 220.9 L 196.279 248.594 M 196.279 248.594 L 233.279 250.634 M 233.279 250.634 L 263.672 217.855 M 263.672 217.855 L 233.279 250.634 M 233.279 250.634 L 224.083 272.968 M 224.083 272.968 L 263.218 249.174 M 263.218 249.174 L 224.083 272.968 M 224.083 272.968 L 233.279 250.634 M 233.279 250.634 L 263.218 249.174 M 263.218 249.174 L 296.113 205.352 M 296.113 205.352 L 267.588 184.868 M 267.588 184.868 L 303.455 153.23 M 303.455 153.23 L 267.588 184.868 M 267.588 184.868 L 238.404 169.113 M 238.404 169.113 L 267.588 184.868 M 267.588 184.868 L 296.113 205.352 M 296.113 205.352 L 303.455 153.23 M 303.455 153.23 L 296.113 205.352 M 296.113 205.352 L 263.218 249.174 M 263.218 249.174 L 279.184 280.918 M 279.184 280.918 L 263.218 249.174 M 263.218 249.174 L 233.279 250.634 M 233.279 250.634 L 196.279 248.594 M 196.279 248.594 L 169.779 237.016 M 169.779 237.016 L 204.507 182.875 M 204.507 182.875 L 169.779 237.016 M 169.779 237.016 L 205.877 220.9 M 205.877 220.9 L 169.779 237.016 M 169.779 237.016 L 196.279 248.594 M 263.218 249.174 L 299.471 258.274 M 299.471 258.274 L 352.297 237.512 M 352.297 237.512 L 299.471 258.274 M 299.471 258.274 L 263.218 249.174 M 263.218 249.174 L 263.672 217.855 M 263.672 217.855 L 263.218 249.174 M 263.672 217.855 L 296.113 205.352 M 296.113 205.352 L 315.824 172.734 M 315.824 172.734 L 296.113 205.352 M 296.113 205.352 L 263.672 217.855 M 261.303 217.486 L 238.404 169.113 M 238.404 169.113 L 239.34 136.734 M 239.34 136.734 L 282.508 130.498 M 282.508 130.498 L 239.34 136.734 M 239.34 136.734 L 213.05 149.843 M 213.05 149.843 L 239.34 136.734 M 239.34 136.734 L 240.89 105.654 M 240.89 105.654 L 239.34 136.734 M 239.34 136.734 L 217.275 114.678 M 217.275 114.678 L 239.34 136.734 M 239.34 136.734 L 238.404 169.113 M 238.404 169.113 L 282.508 130.498 M 282.508 130.498 L 267.588 184.868 M 267.588 184.868 L 282.508 130.498 M 282.508 130.498 L 238.404 169.113 M 238.404 169.113 L 261.303 217.486 M 312.485 229.301 L 299.471 258.274 M 299.471 258.274 L 312.485 229.301 M 352.297 237.512 L 354.409 283.317 M 354.409 283.317 L 352.297 237.512 M 352.297 237.512 L 374.415 227.3 M 374.415 227.3 L 431.946 222.953 M 431.946 222.953 L 374.415 227.3 M 374.415 227.3 L 352.297 237.512 M 352.297 237.512 L 328.391 280.01 M 328.391 280.01 L 354.409 283.317 M 354.409 283.317 L 328.391 280.01 M 328.391 280.01 L 352.297 237.512 M 352.297 237.512 L 370.723 184.585 M 370.723 184.585 L 343.361 172.606 M 343.361 172.606 L 370.723 184.585 M 370.723 184.585 L 415.732 175.917 M 415.732 175.917 L 370.723 184.585 M 370.723 184.585 L 379.16 155.282 M 379.16 155.282 L 409.39 131.316 M 409.39 131.316 L 379.16 155.282 M 379.16 155.282 L 343.361 172.606 M 343.361 172.606 L 379.16 155.282 M 379.16 155.282 L 370.723 184.585 M 370.723 184.585 L 374.415 227.3 M 374.415 227.3 L 403.854 263.561 M 403.854 263.561 L 417.669 286.804 M 417.669 286.804 L 403.854 263.561 M 403.854 263.561 L 431.946 222.953 M 431.946 222.953 L 480.322 195.728 M 480.322 195.728 L 431.946 222.953 M 431.946 222.953 L 403.854 263.561 M 403.854 263.561 L 372.831 286.761 M 372.831 286.761 L 403.854 263.561 M 403.854 263.561 L 374.415 227.3 M 374.415 227.3 L 370.723 184.585 M 370.723 184.585 L 352.297 237.512 M 352.297 237.512 L 340.137 195.988 M 340.137 195.988 L 352.297 237.512 M 374.415 227.3 L 415.732 175.917 M 415.732 175.917 L 379.16 155.282 M 379.16 155.282 L 377.456 142.99 M 377.456 142.99 L 379.16 155.282 M 379.16 155.282 L 415.732 175.917 M 415.732 175.917 L 374.415 227.3 M 403.854 263.561 L 462.434 272.546 M 462.434 272.546 L 417.669 286.804 M 417.669 286.804 L 462.434 272.546 M 462.434 272.546 L 403.854 263.561 M 417.669 286.804 L 469.64 293.54 M 469.64 293.54 L 446.754 327.679 M 446.754 327.679 L 433.769 307.083 M 433.769 307.083 L 446.754 327.679 M 446.754 327.679 L 469.64 293.54 M 469.64 293.54 L 495.13 302.558 M 495.13 302.558 L 469.64 293.54 M 469.64 293.54 L 433.769 307.083 M 433.769 307.083 L 469.64 293.54 M 469.64 293.54 L 417.669 286.804 M 417.669 286.804 L 372.831 286.761 M 372.831 286.761 L 417.669 286.804 M 417.669 286.804 L 433.769 307.083 M 433.769 307.083 L 417.669 286.804 M 446.754 327.679 L 495.13 302.558 M 495.13 302.558 L 485.331 320.729 M 485.331 320.729 L 495.13 302.558 M 495.13 302.558 L 446.754 327.679 M 358.01 327.066 L 328.391 280.01 M 328.391 280.01 L 358.01 327.066 M 441.402 235.913 L 482.548 215.908 M 482.548 215.908 L 441.402 235.913 M 441.402 235.913 L 492.942 248.923 M 492.942 248.923 L 441.402 235.913 M 441.402 235.913 L 431.946 222.953 M 431.946 222.953 L 441.402 235.913 M 431.946 222.953 L 482.548 215.908 M 482.548 215.908 L 431.946 222.953 M 431.946 222.953 L 415.732 175.917 M 415.732 175.917 L 431.946 222.953 M 482.548 215.908 L 510.673 212.203 M 510.673 212.203 L 526.41 182.809 M 526.41 182.809 L 510.673 212.203 M 510.673 212.203 L 519.794 265.091 M 519.794 265.091 L 492.942 248.923 M 492.942 248.923 L 519.794 265.091 M 519.794 265.091 L 510.673 212.203 M 510.673 212.203 L 492.424 198.17 M 492.424 198.17 L 510.673 212.203 M 510.673 212.203 L 482.548 215.908 M 482.548 215.908 L 492.942 248.923 M 492.942 248.923 L 510.673 212.203 M 510.673 212.203 L 492.942 248.923 M 492.942 248.923 L 482.548 215.908 M 526.41 182.809 L 562.274 210.996 M 562.274 210.996 L 526.41 182.809 M 458.304 138.149 L 409.39 131.316 M 409.39 131.316 L 458.304 138.149 M 458.304 138.149 L 423.513 145.326 M 423.513 145.326 L 458.304 138.149 M 458.304 138.149 L 443.383 111.296 M 443.383 111.296 L 468.161 117.668 M 468.161 117.668 L 443.383 111.296 M 443.383 111.296 L 417.918 67.179 M 417.918 67.179 L 456.295 82.3111 M 456.295 82.3111 L 435.469 51.5319 M 435.469 51.5319 L 456.295 82.3111 M 456.295 82.3111 L 417.918 67.179 M 417.918 67.179 L 443.383 111.296 M 443.383 111.296 L 456.295 82.3111 M 456.295 82.3111 L 443.383 111.296 M 443.383 111.296 L 458.304 138.149 M 423.513 145.326 L 409.39 131.316 M 409.39 131.316 L 423.513 145.326 M 409.39 131.316 L 377.456 142.99 M 377.456 142.99 L 343.361 172.606 M 343.361 172.606 L 377.456 142.99 M 377.456 142.99 L 409.39 131.316 M 326.147 49.4823 L 270.591 50.5185 M 270.591 50.5185 L 300.103 31.6268 M 300.103 31.6268 L 270.591 50.5185 M 270.591 50.5185 L 237 41.0412 M 237 41.0412 L 266.949 24.1907 M 266.949 24.1907 L 237 41.0412 M 237 41.0412 L 270.591 50.5185 M 270.591 50.5185 L 326.147 49.4823 M 270.591 50.5185 L 266.949 24.1907 M 266.949 24.1907 L 270.591 50.5185 M 237 41.0412 L 262.912 91.5596 M 262.912 91.5596 L 221.92 92.4007 M 221.92 92.4007 L 239.34 136.734 M 239.34 136.734 L 221.92 92.4007 M 221.92 92.4007 L 262.912 91.5596 M 262.912 91.5596 L 236.96 67.1929 M 236.96 67.1929 L 262.912 91.5596 M 262.912 91.5596 L 237 41.0412 M 237 41.0412 L 246.106 13.3054 M 246.106 13.3054 L 237 41.0412 M 236.96 67.1929 L 221.92 92.4007 M 221.92 92.4007 L 240.89 105.654 M 240.89 105.654 L 221.92 92.4007 M 221.92 92.4007 L 236.96 67.1929 M 212.823 57.1296 L 221.92 92.4007 M 221.92 92.4007 L 212.823 57.1296 M 221.92 92.4007 L 192.777 97.427 M 192.777 97.427 L 221.92 92.4007" />
  <path class="h" d=" M 85.0083 409.589 L 93.0142 398.665 M 93.0142 398.665 L 85.0083 409.589 M 99.4208 398.2 L 97.8183 394.868 M 97.8183 394.868 L 99.4208 398.2 M 99.9774 391.006 L 105.898 386.614 M 105.898 386.614 L 99.9774 391.006 M 92.9789 382.043 L 95.9078 372.182 M 95.9078 372.182 L 92.9789 382.043 M 104.905 366.83 L 119.97 365.989 M 119.97 365.989 L 104.905 366.83 M 132.146 369.709 L 141.431 377.99 M 141.431 377.99 L 132.146 369.709 M 132.767 360.461 L 143.294 350.245 M 143.294 350.245 L 132.767 360.461 M 153.858 356.522 L 164.458 379.291 M 164.458 379.291 L 153.858 356.522 M 124.983 433.392 L 137.604 442.332 M 137.604 442.332 L 124.983 433.392 M 148.028 455.105 L 156.254 471.709 M 156.254 471.709 L 148.028 455.105 M 139.602 466.134 L 153.446 475.386 M 153.446 475.386 L 139.602 466.134 M 165.995 475.076 L 177.249 465.206 M 177.249 465.206 L 165.995 475.076 M 150.582 546.296 L 161.878 553.64 M 161.878 553.64 L 150.582 546.296 M 49.2267 491.168 L 36.2187 476.205 M 36.2187 476.205 L 49.2267 491.168 M 55.7117 456.422 L 57.7995 443.171 M 57.7995 443.171 L 55.7117 456.422 M 76.5681 452.472 L 74.3303 439.975 M 74.3303 439.975 L 76.5681 452.472 M 80.3075 454.265 L 82.821 445.193 M 82.821 445.193 L 80.3075 454.265 M 82.9598 439.935 L 80.724 438.491 M 80.724 438.491 L 82.9598 439.935 M 57.0251 405.872 L 61.3757 402.571 M 61.3757 402.571 L 57.0251 405.872 M 28.312 338.639 L 32.9244 313.853 M 32.9244 313.853 L 28.312 338.639 M 205.921 287.61 L 249.092 298.161 M 249.092 298.161 L 205.921 287.61 M 276.142 307.764 L 287.072 316.42 M 287.072 316.42 L 276.142 307.764 M 335.796 291.774 L 350.605 315.302 M 350.605 315.302 L 335.796 291.774 M 356.904 224.28 L 366.117 197.817 M 366.117 197.817 L 356.904 224.28 M 372.832 177.259 L 377.051 162.608 M 377.051 162.608 L 372.832 177.259 M 351.885 165.202 L 368.932 150.394 M 368.932 150.394 L 351.885 165.202 M 278.778 144.09 L 271.318 171.276 M 271.318 171.276 L 278.778 144.09 M 271.716 132.057 L 250.132 135.175 M 250.132 135.175 L 271.716 132.057 M 233.824 131.22 L 222.791 120.192 M 222.791 120.192 L 233.824 131.22 M 232.168 92.1904 L 252.664 91.7699 M 252.664 91.7699 L 232.168 92.1904 M 256.434 78.93 L 243.478 53.6708 M 243.478 53.6708 L 256.434 78.93 M 284.48 50.2594 L 312.258 49.7413 M 312.258 49.7413 L 284.48 50.2594 M 259.462 28.4034 L 244.487 36.8286 M 244.487 36.8286 L 259.462 28.4034 M 424.284 78.2084 L 437.017 100.267 M 437.017 100.267 L 424.284 78.2084 M 421.619 133.024 L 446.076 136.44 M 446.076 136.44 L 421.619 133.024 M 468.228 202.534 L 444.04 216.147 M 444.04 216.147 L 468.228 202.534 M 447.789 270.3 L 418.499 265.808 M 418.499 265.808 L 447.789 270.3 M 456.647 291.856 L 430.662 288.488 M 430.662 288.488 L 456.647 291.856" />
  <path class="z" fill="none" d=" M 114.861 388.872 L 127.503 365.568 L 108.858 384.417 L 100.222 399.866 L 105.775 407.684 L 88.6506 416.834 L 103.032 429.879 L 86.7513 423.304 L 84.0778 440.657 L 92.8609 436.807 L 97.2425 455.403 L 79.0507 458.801 L 79.606 437.769 L 77.6869 458.72 L 54.6678 463.047 L 77.3124 469.033 L 55.7307 498.649 M 58.8435 436.546 L 64.631 438.619 L 73.2114 433.727 L 74.6659 418.871 L 60.0313 415.932 L 54.8498 407.523 L 55.6312 401.425 L 63.551 400.921 L 65.2178 397.282 L 81.0054 415.051 L 88.73 392.571 L 97.0171 393.203 L 91.5144 386.974 L 87.566 386.319 L 79.724 387.537 L 97.3723 367.251 L 88.7201 342.018 L 121.337 350.525 L 93.5676 331.418 L 81.7206 355.318 L 54.0424 320.252 L 49.1844 364.66 L 26.0058 351.032 M 8 311.539 L 35.2305 301.46 L 64.8528 282.044 L 68.4572 298.281 L 83.8377 291.952 L 114.271 320.68 L 148.557 345.137 L 180.216 357.754 L 202.265 373.317 L 185.281 352.343 L 165.002 324.952 L 201.641 316.783 L 235.336 342.869 L 212.987 306.588 L 184.335 282.334 L 196.279 248.594 L 176.703 278.558 L 169.779 237.016 L 175.284 195.528 L 204.507 182.875 L 205.877 220.9 L 233.279 250.634 L 211.139 216.8 L 263.672 217.855 L 267.588 184.868 L 261.303 217.486 L 212.806 197.266 L 238.404 169.113 L 213.05 149.843 L 217.275 114.678 L 221.92 92.4007 L 216.298 114.452 L 192.777 97.427 M 212.823 57.1296 L 236.96 67.1929 L 237 41.0412 M 246.106 13.3054 L 266.949 24.1907 L 300.103 31.6268 L 326.147 49.4823 L 309.532 65.5806 L 270.591 50.5185 L 262.912 91.5596 L 240.89 105.654 L 267.022 106.556 L 239.34 136.734 L 270.814 110.536 L 282.508 130.498 L 303.455 153.23 L 315.824 172.734 L 315.188 211.104 L 296.113 205.352 L 308.319 221.099 L 263.218 249.174 L 312.485 229.301 L 352.297 237.512 L 313.946 224.036 L 340.137 195.988 L 370.723 184.585 L 339.94 195.446 L 343.361 172.606 L 345.902 141.798 L 377.456 142.99 L 386.562 110.256 L 409.39 131.316 L 443.383 111.296 L 406.924 96.23 L 417.918 67.179 L 435.469 51.5319 M 456.295 82.3111 L 468.161 117.668 L 458.304 138.149 L 432.205 168.315 L 423.513 145.326 L 379.16 155.282 L 424.558 152.978 L 415.732 175.917 L 455.297 180.989 L 431.946 222.953 L 460.606 184.418 L 480.322 195.728 L 482.548 215.908 L 492.424 198.17 L 526.41 182.809 M 519.794 265.091 L 477.32 272.057 L 492.942 248.923 L 467.7 260.841 L 441.402 235.913 L 403.854 263.561 L 444.648 240.976 L 462.434 272.546 L 469.64 293.54 L 464.987 271.836 L 495.13 302.558 M 485.331 320.729 L 446.754 327.679 L 408.359 327.972 L 433.769 307.083 L 406.883 326.035 L 417.669 286.804 L 398.245 322.554 L 372.831 286.761 L 374.415 227.3 L 354.409 283.317 L 358.01 327.066 L 333.494 322.118 L 328.391 280.01 L 299.471 258.274 L 279.184 280.918 L 224.083 272.968 L 270.678 303.437 L 292.182 281.944 L 315.381 309.704 L 311.481 351.94 L 292.536 320.748 L 303.82 355.455 L 260.204 331.723 L 303.282 356.416 L 272.912 362.89 L 303.838 365.69 L 320.944 383.936 L 294.137 380.869 L 312.458 400.678 L 297.957 436.231 L 290.226 474.658 L 272.635 421.216 L 228.176 451.628 L 204.263 453.24 L 212.013 429.052 L 239.219 394.96 L 204.36 421.175 L 169.759 390.676 L 197.976 427.161 L 171.018 444.421 L 203.026 444.805 L 182.877 460.27 L 182.515 498.644 L 195.651 462.587 L 219.018 467.92 L 272.876 467.011 L 245.251 494.388 L 280.631 478.236 L 251.35 526.279 L 204.594 515.854 L 239.996 548.126 M 144.934 542.623 L 185.592 531.278 L 159.08 498.431 L 160.368 480.011 L 148.811 494.412 L 132.68 461.509 L 143.915 446.803 L 124.853 445.506 L 118.672 428.922 L 160.309 423.146 L 122.858 404.056 L 146.073 382.131 L 114.861 388.872" />
  <path class="z" d=" M 126.07 364.136 L 128.935 364.136 L 128.935 367.001 L 126.07 367.001 L 126.07 364.136 M 87.2181 415.401 L 90.0831 415.401 L 90.0831 418.266 L 87.2181 418.266 L 87.2181 415.401 M 85.3188 421.871 L 88.1838 421.871 L 88.1838 424.736 L 85.3188 424.736 L 85.3188 421.871 M 78.1735 436.336 L 81.0385 436.336 L 81.0385 439.201 L 78.1735 439.201 L 78.1735 436.336 M 53.2353 461.615 L 56.1003 461.615 L 56.1003 464.48 L 53.2353 464.48 L 53.2353 461.615 M 73.2334 417.439 L 76.0984 417.439 L 76.0984 420.304 L 73.2334 420.304 L 73.2334 417.439 M 79.5729 413.618 L 82.4379 413.618 L 82.4379 416.483 L 79.5729 416.483 L 79.5729 413.618 M 95.5846 391.77 L 98.4496 391.77 L 98.4496 394.635 L 95.5846 394.635 L 95.5846 391.77 M 119.904 349.093 L 122.769 349.093 L 122.769 351.958 L 119.904 351.958 L 119.904 349.093 M 52.6099 318.82 L 55.4749 318.82 L 55.4749 321.685 L 52.6099 321.685 L 52.6099 318.82 M 67.0247 296.848 L 69.8897 296.848 L 69.8897 299.713 L 67.0247 299.713 L 67.0247 296.848 M 200.833 371.885 L 203.698 371.885 L 203.698 374.75 L 200.833 374.75 L 200.833 371.885 M 233.904 341.437 L 236.769 341.437 L 236.769 344.302 L 233.904 344.302 L 233.904 341.437 M 194.847 247.161 L 197.712 247.161 L 197.712 250.026 L 194.847 250.026 L 194.847 247.161 M 231.846 249.202 L 234.711 249.202 L 234.711 252.067 L 231.846 252.067 L 231.846 249.202 M 266.156 183.436 L 269.021 183.436 L 269.021 186.301 L 266.156 186.301 L 266.156 183.436 M 220.488 90.9682 L 223.353 90.9682 L 223.353 93.8332 L 220.488 93.8332 L 220.488 90.9682 M 235.528 65.7604 L 238.393 65.7604 L 238.393 68.6254 L 235.528 68.6254 L 235.528 65.7604 M 269.158 49.086 L 272.023 49.086 L 272.023 51.951 L 269.158 51.951 L 269.158 49.086 M 239.458 104.221 L 242.323 104.221 L 242.323 107.086 L 239.458 107.086 L 239.458 104.221 M 237.907 135.302 L 240.772 135.302 L 240.772 138.167 L 237.907 138.167 L 237.907 135.302 M 294.68 203.92 L 297.545 203.92 L 297.545 206.785 L 294.68 206.785 L 294.68 203.92 M 261.785 247.741 L 264.65 247.741 L 264.65 250.606 L 261.785 250.606 L 261.785 247.741 M 350.865 236.079 L 353.73 236.079 L 353.73 238.944 L 350.865 238.944 L 350.865 236.079 M 369.29 183.153 L 372.155 183.153 L 372.155 186.018 L 369.29 186.018 L 369.29 183.153 M 441.95 109.864 L 444.815 109.864 L 444.815 112.729 L 441.95 112.729 L 441.95 109.864 M 377.727 153.85 L 380.592 153.85 L 380.592 156.715 L 377.727 156.715 L 377.727 153.85 M 430.514 221.521 L 433.379 221.521 L 433.379 224.386 L 430.514 224.386 L 430.514 221.521 M 481.115 214.476 L 483.98 214.476 L 483.98 217.341 L 481.115 217.341 L 481.115 214.476 M 491.51 247.491 L 494.375 247.491 L 494.375 250.356 L 491.51 250.356 L 491.51 247.491 M 402.421 262.129 L 405.286 262.129 L 405.286 264.994 L 402.421 264.994 L 402.421 262.129 M 468.208 292.108 L 471.073 292.108 L 471.073 294.973 L 468.208 294.973 L 468.208 292.108 M 432.337 305.651 L 435.202 305.651 L 435.202 308.516 L 432.337 308.516 L 432.337 305.651 M 416.236 285.371 L 419.101 285.371 L 419.101 288.236 L 416.236 288.236 L 416.236 285.371 M 372.982 225.868 L 375.847 225.868 L 375.847 228.733 L 372.982 228.733 L 372.982 225.868 M 222.65 271.536 L 225.515 271.536 L 225.515 274.401 L 222.65 274.401 L 222.65 271.536 M 291.104 319.315 L 293.969 319.315 L 293.969 322.18 L 291.104 322.18 L 291.104 319.315 M 258.771 330.29 L 261.636 330.29 L 261.636 333.155 L 258.771 333.155 L 258.771 330.29 M 271.479 361.458 L 274.344 361.458 L 274.344 364.323 L 271.479 364.323 L 271.479 361.458 M 292.705 379.437 L 295.57 379.437 L 295.57 382.302 L 292.705 382.302 L 292.705 379.437 M 237.787 393.528 L 240.652 393.528 L 240.652 396.393 L 237.787 396.393 L 237.787 393.528 M 168.326 389.243 L 171.191 389.243 L 171.191 392.108 L 168.326 392.108 L 168.326 389.243 M 169.586 442.988 L 172.451 442.988 L 172.451 445.853 L 169.586 445.853 L 169.586 442.988 M 181.082 497.211 L 183.947 497.211 L 183.947 500.076 L 181.082 500.076 L 181.082 497.211 M 243.818 492.955 L 246.683 492.955 L 246.683 495.82 L 243.818 495.82 L 243.818 492.955 M 203.161 514.422 L 206.026 514.422 L 206.026 517.287 L 203.161 517.287 L 203.161 514.422 M 184.159 529.846 L 187.024 529.846 L 187.024 532.711 L 184.159 532.711 L 184.159 529.846 M 158.935 478.579 L 161.8 478.579 L 161.8 481.444 L 158.935 481.444 L 158.935 478.579 M 158.876 421.713 L 161.741 421.713 L 161.741 424.578 L 158.876 424.578 L 158.876 421.713 M 144.641 380.698 L 147.506 380.698 L 147.506 383.563 L 144.641 383.563 L 144.641 380.698" />
  <path class="h" d=" M 46.0294 500.648 L 26.6268 504.647 M 20.1228 497.166 L 26.5174 478.205 M 36.9969 460.68 L 51.5613 444.59 M 21.5044 341.159 L 12.5015 321.412 M 165.877 562.702 L 162.579 573.482 M 156.931 569.81 L 148.933 551.686 M 189.655 557.938 L 174.902 557.521 M 214.297 567.674 L 202.786 561.323 M 217.117 553.187 L 219.074 564.962 M 234.032 547.919 L 222.103 547.506 M 503.778 327.699 L 491.48 323.052 M 498.829 309.424 L 506.228 323.156 M 539.933 253.184 L 526.507 261.122 M 519.666 221.456 L 537.652 239.962 M 549.373 211.298 L 523.573 211.901 M 536.103 182.512 L 555.488 181.919 M 564.453 188.966 L 563 203.653 M 456.482 53.2198 L 456.357 72.614 M 440.738 49.5296 L 451.275 45.525 M 229.36 32.7809 L 214.079 16.2603 M 216.356 9.32634 L 236.189 11.979 M 197.788 87.3526 L 207.811 67.204" />
  <path class="h" d=" M 51.8502 499.448 L 50.1754 497.124 M 18.2145 502.824 L 21.0619 502.507 M 33.5977 464.435 L 36.4565 464.247 M 10.4003 316.804 L 12.8375 315.298 M 164.943 565.756 L 163.068 563.589 M 159.33 575.247 L 160.521 572.641 M 191.902 558.002 L 191.243 555.214 M 207.703 564.035 L 208.992 561.477 M 218.931 564.101 L 216.166 563.349 M 233.16 547.889 L 231.253 545.751 M 498.526 325.714 L 498.11 322.88 M 502.845 316.878 L 500.047 317.493 M 532.645 257.493 L 531.394 254.915 M 528.291 230.33 L 527.611 233.113 M 537.001 211.587 L 536.011 208.899 M 533.12 182.603 L 535.172 184.602 M 564.675 186.729 L 561.825 186.437 M 456.501 50.2356 L 453.642 50.4118 M 443.724 48.3948 L 444.719 51.0812 M 213.814 15.9733 L 216.669 15.7374 M 210.437 8.53472 L 212.25 10.7532 M 197.614 87.7026 L 200.427 88.2464" />
</svg>
