<?xml version="1.0"?>
<svg width="4081" height="3301" version="1.1" xmlns="http://www.w3.org/2000/svg" xmlns:xlink="http://www.w3.org/1999/xlink">
  <defs>
  <style type="text/css">
    <![CDATA[
      .b {stroke:rgb(0,0,0);stroke-width:10.202500;fill:none}
      .c {stroke:rgb(128,128,128);stroke-width:5.101250;stroke-dasharray:20.405000, 20.405000;}
      .h {stroke:rgb(240,200,0);stroke-width:10.202500;}
      .m {stroke:rgb(255,0,0);stroke-width:5.101250;}
      .n {stroke:rgb(128,128,128);stroke-width:5.101250}
      .t {stroke:rgb(0,128,0);stroke-width:5.101250;}
      .tab {stroke:rgb(0,0,255);stroke-width:2.550625;fill:none}
      .v {stroke:rgb(0,0,255);stroke-width:5.101250;}
      .z {stroke:rgb(0,240,200);stroke-width:2.550625;}
    ]]>
  </style>
  </defs>
  <path fill="none" class="b" d=" M 2560.63 2400.44 L 2821.86 2574.22 L 2724.76 2797.86 L 2858.2 2930.03 L 2675.99 2884.5 L 2817.77 3137.02 L 2979.94 3270.26 L 3131.17 2957.64 L 3257.55 3281.1 L 3449.96 3231.9 L 3353.23 2989.49 L 3177.91 2809.96 L 3043.02 2788.34 L 3165.5 2727.82 L 3191.63 2577.14 L 2882.04 2484.61 L 3201.1 2535.68 L 3142.12 2273.85 L 3307.46 2276.87 L 3188.42 1995.13 L 3353.44 2252.65 L 3228.09 2360.51 L 3478.88 2456.11 L 3631.06 2471.3 L 3827.3 2314.91 L 4073.13 2227.22 L 3973.98 2112.4 L 3834.65 2037.44 L 3625.69 2034.78 L 3614.32 2299.97 L 3409.52 2131.12 L 3490.14 1938.31 L 3262.22 1956.07 L 3197.14 1753.83 L 2996.51 1808.65 L 2844.22 1839.59 L 2983.73 2009.22 L 2841.25 1842.08 L 2603.64 1741.03 L 2606.69 2014.52 L 2566.99 1743.91 L 2327.96 1478.14 L 2609.25 1698.69 L 2680.73 1585.28 L 2688.26 1719.12 L 2932.33 1634.84 L 3027.18 1511.75 L 3122.7 1327 L 3222.01 1207.13 L 2983.93 1068.41 L 3238.44 1173.99 L 3184.01 1006.69 L 3323.81 1113.5 L 3600.96 1067.6 L 3595.35 1348.47 L 3735.37 1416.47 L 3788.32 1210.72 L 3759.03 983.983 L 3779.9 827.151 L 3722.16 564.142 L 3583.58 833.405 L 3418.14 893.334 L 3426.22 717.563 L 3125.3 683.554 L 3071.79 871.448 L 3224.15 856.251 L 3072.61 878.144 L 2840.55 932.359 L 2777.06 1137.01 L 2540.15 1039.95 L 2523.91 1393.11 L 2744.6 1357.79 L 2527.03 1408.94 L 2412.81 1074.36 L 2249.83 1292.2 L 2374.77 1050.53 L 2612.04 954.359 L 2464.79 798.709 L 2189.81 859.374 L 1943.08 998.753 L 2177.58 1053.57 L 1936.77 1055.7 L 1849.36 1292.67 L 1671.39 1517.47 L 1758.79 1244.39 L 1622.82 1031.54 L 1496.3 1222.79 L 1402.78 1378.44 L 1450.44 1203.22 L 1457.35 974.016 L 1533.09 700.953 L 1644.69 442.421 L 1569.28 359.739 L 1663.64 299.584 L 1472.71 156.976 L 1346.32 8 L 1138.06 212.73 L 1105.23 390.642 L 1397.19 319.162 L 1239.17 574.858 L 1417.55 594.761 L 1360.64 814.308 L 1339.37 588.506 L 1199.74 701.279 L 1030.87 636.377 L 1056.62 683.156 L 1061.56 709.629 L 1034.84 758.755 L 1019.76 704.906 L 859.857 707.796 L 935.872 567.084 L 909.029 564.92 L 887.615 516.007 L 847.263 525.1 L 806.021 577.211 L 821.113 676.505 L 723.837 701.497 L 673.162 658.503 L 672.95 617.139 L 402.462 507.02 L 133.265 513.425 L 273.132 740.374 L 510.046 808.674 L 495.781 651.726 L 576.114 787.31 L 713 751.228 L 578.744 796.117 L 642.09 903.32 L 749.584 832.822 L 705.027 786.149 L 820.899 763.118 L 816.796 881.185 L 866.177 760.238 L 963.438 847.456 L 1000.09 794.352 L 1117.64 813.406 L 1279.72 887.913 L 1103.29 861.611 L 1217.74 1043.44 L 1025.69 947.117 L 991.172 1227.83 L 858.837 977.872 L 768.206 1055.12 L 803.872 1178.62 L 685.035 1141.43 L 514.119 1319.14 L 631.767 1359.07 L 512.342 1393.32 L 365.672 1636.53 L 200.372 1405.57 L 8 1590.13 L 159.495 1582.22 L 222.111 1770.69 L 194.781 1945.48 L 334.669 1866.53 L 384.347 2019.29 L 506.92 1721.18 L 548.607 2040.79 L 919.75 2115.37 L 736.21 1928.84 L 972.876 2040.5 L 843.185 1702.07 L 823.131 1542.06 L 564.925 1541.98 L 808.382 1455.96 L 952.53 1547.76 L 881.305 1344.51 L 1052.47 1475.24 L 1218.22 1212.86 L 1105.01 1501.82 L 1350.97 1661.89 L 1072.82 1568.34 L 902.046 1575 L 967.27 1722.48 L 1261.87 1933.6 L 964.456 2167.8 L 1225.21 2128.25 L 1483.37 2138.12 L 1566.45 1976.7 L 1608.75 2153.25 L 1684.74 2003.1 L 1631.28 1801.12 L 1742.1 1978.25 L 1799.1 1649.05 L 1749.42 1979.43 L 1942.89 1828.22 L 1789.27 2019.78 L 2065.29 1947.24 L 2187.42 1736.68 L 2002.04 1650.18 L 2087.45 1285.46 L 2163.99 1652.14 L 2353.85 1728.3 L 2282.98 1961.17 L 2028.49 2090.34 L 2053.61 2256.73 L 2321.94 2133.28 L 2722.16 2130.86 L 2342.56 2257.68 L 2174.74 2500.74 L 2445.47 2541.28 L 2172.61 2563.36 L 2354.3 2689.74 L 2163.75 2577.15 L 2253.97 2819.24 L 2386.68 3047.14 L 2384.53 3224.05 L 2524.12 3067.3 L 2649 2806.01 L 2522.48 2885.38 L 2638.64 2791.5 L 2797.32 2606.4 L 2560.63 2400.44" />
  <path class="c" d=" M 1279.72 887.913 L 1217.74 1043.44 M 1217.74 1043.44 L 1457.35 974.016 M 1457.35 974.016 L 1279.72 887.913 M 1279.72 887.913 L 1199.74 701.279 M 1199.74 701.279 L 1360.64 814.308 M 1279.72 887.913 L 1360.64 814.308 M 1457.35 974.016 L 1218.22 1212.86 M 1218.22 1212.86 L 1450.44 1203.22 M 1496.3 1222.79 L 1671.39 1517.47 M 1671.39 1517.47 L 1799.1 1649.05 M 1799.1 1649.05 L 2002.04 1650.18 M 2002.04 1650.18 L 1936.77 1055.7 M 1936.77 1055.7 L 2087.45 1285.46 M 2087.45 1285.46 L 2249.83 1292.2 M 2249.83 1292.2 L 2177.58 1053.57 M 2177.58 1053.57 L 2087.45 1285.46 M 1849.36 1292.67 L 2002.04 1650.18 M 2163.99 1652.14 L 2327.96 1478.14 M 2327.96 1478.14 L 2087.45 1285.46 M 1849.36 1292.67 L 1799.1 1649.05 M 1799.1 1649.05 L 1631.28 1801.12 M 1631.28 1801.12 L 1350.97 1661.89 M 1350.97 1661.89 L 967.27 1722.48 M 843.185 1702.07 L 506.92 1721.18 M 506.92 1721.18 L 736.21 1928.84 M 736.21 1928.84 L 843.185 1702.07 M 1072.82 1568.34 L 967.27 1722.48 M 1261.87 1933.6 L 1350.97 1661.89 M 1350.97 1661.89 L 1402.78 1378.44 M 1402.78 1378.44 L 1105.01 1501.82 M 881.305 1344.51 L 991.172 1227.83 M 991.172 1227.83 L 1217.74 1043.44 M 1218.22 1212.86 L 991.172 1227.83 M 991.172 1227.83 L 803.872 1178.62 M 803.872 1178.62 L 881.305 1344.51 M 881.305 1344.51 L 808.382 1455.96 M 631.767 1359.07 L 685.035 1141.43 M 631.767 1359.07 L 803.872 1178.62 M 991.172 1227.83 L 1052.47 1475.24 M 1218.22 1212.86 L 1402.78 1378.44 M 1218.22 1212.86 L 1217.74 1043.44 M 1457.35 974.016 L 1360.64 814.308 M 1199.74 701.279 L 1117.64 813.406 M 1117.64 813.406 L 1034.84 758.755 M 1034.84 758.755 L 1000.09 794.352 M 1034.84 758.755 L 866.177 760.238 M 866.177 760.238 L 1000.09 794.352 M 1061.56 709.629 L 1117.64 813.406 M 1199.74 701.279 L 1061.56 709.629 M 1199.74 701.279 L 1056.62 683.156 M 909.029 564.92 L 859.857 707.796 M 859.857 707.796 L 821.113 676.505 M 821.113 676.505 L 820.899 763.118 M 820.899 763.118 L 859.857 707.796 M 859.857 707.796 L 1034.84 758.755 M 866.177 760.238 L 820.899 763.118 M 820.899 763.118 L 713 751.228 M 713 751.228 L 723.837 701.497 M 723.837 701.497 L 495.781 651.726 M 495.781 651.726 L 672.95 617.139 M 673.162 658.503 L 495.781 651.726 M 576.114 787.31 L 723.837 701.497 M 705.027 786.149 L 713 751.228 M 820.899 763.118 L 723.837 701.497 M 821.113 676.505 L 847.263 525.1 M 847.263 525.1 L 909.029 564.92 M 909.029 564.92 L 821.113 676.505 M 866.177 760.238 L 859.857 707.796 M 858.837 977.872 L 803.872 1178.62 M 631.767 1359.07 L 881.305 1344.51 M 631.767 1359.07 L 808.382 1455.96 M 564.925 1541.98 L 631.767 1359.07 M 512.342 1393.32 L 564.925 1541.98 M 564.925 1541.98 L 843.185 1702.07 M 564.925 1541.98 L 506.92 1721.18 M 506.92 1721.18 L 334.669 1866.53 M 334.669 1866.53 L 222.111 1770.69 M 222.111 1770.69 L 365.672 1636.53 M 365.672 1636.53 L 564.925 1541.98 M 365.672 1636.53 L 506.92 1721.18 M 365.672 1636.53 L 334.669 1866.53 M 548.607 2040.79 L 736.21 1928.84 M 1225.21 2128.25 L 1261.87 1933.6 M 1225.21 2128.25 L 1566.45 1976.7 M 1566.45 1976.7 L 1261.87 1933.6 M 1350.97 1661.89 L 1566.45 1976.7 M 1566.45 1976.7 L 1631.28 1801.12 M 1631.28 1801.12 L 1671.39 1517.47 M 1671.39 1517.47 L 1350.97 1661.89 M 1671.39 1517.47 L 1402.78 1378.44 M 1758.79 1244.39 L 1496.3 1222.79 M 1533.09 700.953 L 1569.28 359.739 M 1569.28 359.739 L 1417.55 594.761 M 1417.55 594.761 L 1397.19 319.162 M 1397.19 319.162 L 1472.71 156.976 M 1472.71 156.976 L 1138.06 212.73 M 1138.06 212.73 L 1397.19 319.162 M 1397.19 319.162 L 1569.28 359.739 M 1569.28 359.739 L 1472.71 156.976 M 1417.55 594.761 L 1533.09 700.953 M 1533.09 700.953 L 1360.64 814.308 M 642.09 903.32 L 705.027 786.149 M 578.744 796.117 L 705.027 786.149 M 402.462 507.02 L 495.781 651.726 M 273.132 740.374 L 402.462 507.02 M 273.132 740.374 L 495.781 651.726 M 200.372 1405.57 L 159.495 1582.22 M 159.495 1582.22 L 365.672 1636.53 M 1566.45 1976.7 L 1684.74 2003.1 M 1942.89 1828.22 L 1799.1 1649.05 M 1942.89 1828.22 L 2002.04 1650.18 M 1942.89 1828.22 L 2187.42 1736.68 M 2353.85 1728.3 L 2566.99 1743.91 M 2680.73 1585.28 L 2744.6 1357.79 M 2744.6 1357.79 L 3027.18 1511.75 M 2932.33 1634.84 L 2680.73 1585.28 M 2680.73 1585.28 L 3027.18 1511.75 M 3122.7 1327 L 2983.93 1068.41 M 2983.93 1068.41 L 3224.15 856.251 M 3224.15 856.251 L 3323.81 1113.5 M 3323.81 1113.5 L 3418.14 893.334 M 3418.14 893.334 L 3224.15 856.251 M 3224.15 856.251 L 3426.22 717.563 M 3583.58 833.405 L 3323.81 1113.5 M 3184.01 1006.69 L 3224.15 856.251 M 3072.61 878.144 L 2983.93 1068.41 M 2983.93 1068.41 L 3184.01 1006.69 M 2983.93 1068.41 L 2840.55 932.359 M 2777.06 1137.01 L 2983.93 1068.41 M 2777.06 1137.01 L 3122.7 1327 M 3122.7 1327 L 2744.6 1357.79 M 2777.06 1137.01 L 2744.6 1357.79 M 2777.06 1137.01 L 2523.91 1393.11 M 2527.03 1408.94 L 2249.83 1292.2 M 2327.96 1478.14 L 2249.83 1292.2 M 2327.96 1478.14 L 2353.85 1728.3 M 2353.85 1728.3 L 2606.69 2014.52 M 2606.69 2014.52 L 2722.16 2130.86 M 2722.16 2130.86 L 2983.73 2009.22 M 2983.73 2009.22 L 2606.69 2014.52 M 2606.69 2014.52 L 2282.98 1961.17 M 2282.98 1961.17 L 2053.61 2256.73 M 2321.94 2133.28 L 2282.98 1961.17 M 2321.94 2133.28 L 2606.69 2014.52 M 2722.16 2130.86 L 3142.12 2273.85 M 3142.12 2273.85 L 2983.73 2009.22 M 2996.51 1808.65 L 3188.42 1995.13 M 3188.42 1995.13 L 3142.12 2273.85 M 3353.44 2252.65 L 3409.52 2131.12 M 3409.52 2131.12 L 3188.42 1995.13 M 3188.42 1995.13 L 2983.73 2009.22 M 2996.51 1808.65 L 2983.73 2009.22 M 2841.25 1842.08 L 2606.69 2014.52 M 2722.16 2130.86 L 2882.04 2484.61 M 2882.04 2484.61 L 2560.63 2400.44 M 2560.63 2400.44 L 2638.64 2791.5 M 2638.64 2791.5 L 2445.47 2541.28 M 2445.47 2541.28 L 2342.56 2257.68 M 2560.63 2400.44 L 2342.56 2257.68 M 2445.47 2541.28 L 2560.63 2400.44 M 2821.86 2574.22 L 2882.04 2484.61 M 2882.04 2484.61 L 3142.12 2273.85 M 3353.44 2252.65 L 3478.88 2456.11 M 3631.06 2471.3 L 3614.32 2299.97 M 3614.32 2299.97 L 3834.65 2037.44 M 3834.65 2037.44 L 3827.3 2314.91 M 3614.32 2299.97 L 3827.3 2314.91 M 3614.32 2299.97 L 3478.88 2456.11 M 3409.52 2131.12 L 3262.22 1956.07 M 3262.22 1956.07 L 3188.42 1995.13 M 3262.22 1956.07 L 2996.51 1808.65 M 2722.16 2130.86 L 2560.63 2400.44 M 2882.04 2484.61 L 3165.5 2727.82 M 3177.91 2809.96 L 3131.17 2957.64 M 3131.17 2957.64 L 3043.02 2788.34 M 3043.02 2788.34 L 2858.2 2930.03 M 2858.2 2930.03 L 2821.86 2574.22 M 3043.02 2788.34 L 2821.86 2574.22 M 3043.02 2788.34 L 2882.04 2484.61 M 2858.2 2930.03 L 3131.17 2957.64 M 3353.23 2989.49 L 3131.17 2957.64 M 3257.55 3281.1 L 3353.23 2989.49 M 2817.77 3137.02 L 2858.2 2930.03 M 2817.77 3137.02 L 3131.17 2957.64 M 2522.48 2885.38 L 2253.97 2819.24 M 2253.97 2819.24 L 2354.3 2689.74 M 2354.3 2689.74 L 2445.47 2541.28 M 2354.3 2689.74 L 2522.48 2885.38 M 2522.48 2885.38 L 2445.47 2541.28 M 2386.68 3047.14 L 2524.12 3067.3 M 2524.12 3067.3 L 2253.97 2819.24 M 2524.12 3067.3 L 2522.48 2885.38 M 2065.29 1947.24 L 1942.89 1828.22 M 2327.96 1478.14 L 2527.03 1408.94 M 2527.03 1408.94 L 2680.73 1585.28 M 2327.96 1478.14 L 2680.73 1585.28 M 2374.77 1050.53 L 2177.58 1053.57 M 2189.81 859.374 L 2177.58 1053.57 M 2189.81 859.374 L 2612.04 954.359 M 2374.77 1050.53 L 2189.81 859.374 M 3125.3 683.554 L 3224.15 856.251 M 3600.96 1067.6 L 3788.32 1210.72 M 3735.37 1416.47 L 3600.96 1067.6 M 3600.96 1067.6 L 3583.58 833.405 M 3779.9 827.151 L 3583.58 833.405 M 3759.03 983.983 L 3600.96 1067.6 M 3759.03 983.983 L 3583.58 833.405 M 3409.52 2131.12 L 3478.88 2456.11 M 3973.98 2112.4 L 3827.3 2314.91" />
  <path class="z" fill="none" d=" M 2724.76 2797.86 L 2821.86 2574.22 L 2560.63 2400.44 L 2797.32 2606.4 L 2638.64 2791.5 M 2638.64 2791.5 L 2522.48 2885.38 L 2649 2806.01 M 2638.64 2791.5 L 2522.48 2885.38 L 2649 2806.01 M 2163.75 2577.15 L 2354.3 2689.74 L 2172.61 2563.36 M 2163.75 2577.15 L 2354.3 2689.74 L 2172.61 2563.36 M 2172.61 2563.36 L 2445.47 2541.28 L 2174.74 2500.74 M 2172.61 2563.36 L 2445.47 2541.28 L 2174.74 2500.74 M 2174.74 2500.74 L 2342.56 2257.68 L 2722.16 2130.86 L 2321.94 2133.28 L 2053.61 2256.73 M 2174.74 2500.74 L 2342.56 2257.68 L 2722.16 2130.86 L 2321.94 2133.28 L 2053.61 2256.73 M 2028.49 2090.34 L 2282.98 1961.17 L 2353.85 1728.3 L 2163.99 1652.14 L 2087.45 1285.46 L 2002.04 1650.18 L 2187.42 1736.68 L 2065.29 1947.24 L 1789.27 2019.78 M 2028.49 2090.34 L 2282.98 1961.17 L 2353.85 1728.3 L 2163.99 1652.14 L 2087.45 1285.46 L 2002.04 1650.18 L 2187.42 1736.68 L 2065.29 1947.24 L 1789.27 2019.78 M 1789.27 2019.78 L 1942.89 1828.22 L 1749.42 1979.43 M 1789.27 2019.78 L 1942.89 1828.22 L 1749.42 1979.43 M 1749.42 1979.43 L 1799.1 1649.05 L 1742.1 1978.25 M 1749.42 1979.43 L 1799.1 1649.05 L 1742.1 1978.25 M 1742.1 1978.25 L 1631.28 1801.12 L 1684.74 2003.1 M 1742.1 1978.25 L 1631.28 1801.12 L 1684.74 2003.1 M 1608.75 2153.25 L 1566.45 1976.7 L 1483.37 2138.12 M 1608.75 2153.25 L 1566.45 1976.7 L 1483.37 2138.12 M 1072.82 1568.34 L 1350.97 1661.89 L 1105.01 1501.82 M 1072.82 1568.34 L 1350.97 1661.89 L 1105.01 1501.82 M 1105.01 1501.82 L 1218.22 1212.86 L 1052.47 1475.24 M 1105.01 1501.82 L 1218.22 1212.86 L 1052.47 1475.24 M 1052.47 1475.24 L 881.305 1344.51 L 952.53 1547.76 M 1052.47 1475.24 L 881.305 1344.51 L 952.53 1547.76 M 808.382 1455.96 L 564.925 1541.98 L 823.131 1542.06 M 808.382 1455.96 L 564.925 1541.98 L 823.131 1542.06 M 972.876 2040.5 L 736.21 1928.84 L 919.75 2115.37 M 972.876 2040.5 L 736.21 1928.84 L 919.75 2115.37 M 548.607 2040.79 L 506.92 1721.18 L 384.347 2019.29 M 548.607 2040.79 L 506.92 1721.18 L 384.347 2019.29 M 384.347 2019.29 L 334.669 1866.53 L 194.781 1945.48 M 384.347 2019.29 L 334.669 1866.53 L 194.781 1945.48 M 200.372 1405.57 L 365.672 1636.53 L 512.342 1393.32 M 200.372 1405.57 L 365.672 1636.53 L 512.342 1393.32 M 512.342 1393.32 L 631.767 1359.07 L 514.119 1319.14 M 512.342 1393.32 L 631.767 1359.07 L 514.119 1319.14 M 858.837 977.872 L 991.172 1227.83 L 1025.69 947.117 M 858.837 977.872 L 991.172 1227.83 L 1025.69 947.117 M 1025.69 947.117 L 1217.74 1043.44 L 1103.29 861.611 M 1025.69 947.117 L 1217.74 1043.44 L 1103.29 861.611 M 1103.29 861.611 L 1279.72 887.913 L 1117.64 813.406 M 1103.29 861.611 L 1279.72 887.913 L 1117.64 813.406 M 963.438 847.456 L 866.177 760.238 L 816.796 881.185 M 963.438 847.456 L 866.177 760.238 L 816.796 881.185 M 816.796 881.185 L 820.899 763.118 L 705.027 786.149 M 816.796 881.185 L 820.899 763.118 L 705.027 786.149 M 578.744 796.117 L 713 751.228 L 576.114 787.31 M 578.744 796.117 L 713 751.228 L 576.114 787.31 M 576.114 787.31 L 495.781 651.726 L 510.046 808.674 M 576.114 787.31 L 495.781 651.726 L 510.046 808.674 M 672.95 617.139 L 673.162 658.503 L 723.837 701.497 L 821.113 676.505 L 806.021 577.211 L 847.263 525.1 L 887.615 516.007 M 672.95 617.139 L 673.162 658.503 L 723.837 701.497 L 821.113 676.505 L 806.021 577.211 L 847.263 525.1 L 887.615 516.007 M 935.872 567.084 L 859.857 707.796 L 1019.76 704.906 M 935.872 567.084 L 859.857 707.796 L 1019.76 704.906 M 1019.76 704.906 L 1034.84 758.755 L 1061.56 709.629 M 1019.76 704.906 L 1034.84 758.755 L 1061.56 709.629 M 1199.74 701.279 L 1339.37 588.506 L 1360.64 814.308 L 1417.55 594.761 L 1239.17 574.858 M 1199.74 701.279 L 1339.37 588.506 L 1360.64 814.308 L 1417.55 594.761 L 1239.17 574.858 M 1239.17 574.858 L 1397.19 319.162 L 1105.23 390.642 M 1239.17 574.858 L 1397.19 319.162 L 1105.23 390.642 M 1663.64 299.584 L 1569.28 359.739 L 1644.69 442.421 M 1663.64 299.584 L 1569.28 359.739 L 1644.69 442.421 M 1457.35 974.016 L 1450.44 1203.22 L 1402.78 1378.44 L 1496.3 1222.79 L 1622.82 1031.54 M 1457.35 974.016 L 1450.44 1203.22 L 1402.78 1378.44 L 1496.3 1222.79 L 1622.82 1031.54 M 1622.82 1031.54 L 1758.79 1244.39 L 1671.39 1517.47 L 1849.36 1292.67 L 1936.77 1055.7 M 1622.82 1031.54 L 1758.79 1244.39 L 1671.39 1517.47 L 1849.36 1292.67 L 1936.77 1055.7 M 1936.77 1055.7 L 2177.58 1053.57 L 1943.08 998.753 M 1936.77 1055.7 L 2177.58 1053.57 L 1943.08 998.753 M 2374.77 1050.53 L 2249.83 1292.2 L 2412.81 1074.36 M 2374.77 1050.53 L 2249.83 1292.2 L 2412.81 1074.36 M 2412.81 1074.36 L 2527.03 1408.94 L 2744.6 1357.79 L 2523.91 1393.11 L 2540.15 1039.95 M 2412.81 1074.36 L 2527.03 1408.94 L 2744.6 1357.79 L 2523.91 1393.11 L 2540.15 1039.95 M 3072.61 878.144 L 3224.15 856.251 L 3071.79 871.448 M 3072.61 878.144 L 3224.15 856.251 L 3071.79 871.448 M 3125.3 683.554 L 3426.22 717.563 L 3418.14 893.334 L 3583.58 833.405 L 3722.16 564.142 M 3125.3 683.554 L 3426.22 717.563 L 3418.14 893.334 L 3583.58 833.405 L 3722.16 564.142 M 3595.35 1348.47 L 3600.96 1067.6 L 3323.81 1113.5 M 3595.35 1348.47 L 3600.96 1067.6 L 3323.81 1113.5 M 3323.81 1113.5 L 3184.01 1006.69 L 3238.44 1173.99 M 3323.81 1113.5 L 3184.01 1006.69 L 3238.44 1173.99 M 3238.44 1173.99 L 2983.93 1068.41 L 3222.01 1207.13 M 3238.44 1173.99 L 2983.93 1068.41 L 3222.01 1207.13 M 2688.26 1719.12 L 2680.73 1585.28 L 2609.25 1698.69 M 2688.26 1719.12 L 2680.73 1585.28 L 2609.25 1698.69 M 2609.25 1698.69 L 2327.96 1478.14 L 2566.99 1743.91 M 2609.25 1698.69 L 2327.96 1478.14 L 2566.99 1743.91 M 2566.99 1743.91 L 2606.69 2014.52 L 2603.64 1741.03 M 2566.99 1743.91 L 2606.69 2014.52 L 2603.64 1741.03 M 2841.25 1842.08 L 2983.73 2009.22 L 2844.22 1839.59 M 2841.25 1842.08 L 2983.73 2009.22 L 2844.22 1839.59 M 3490.14 1938.31 L 3409.52 2131.12 L 3614.32 2299.97 L 3625.69 2034.78 L 3834.65 2037.44 M 3490.14 1938.31 L 3409.52 2131.12 L 3614.32 2299.97 L 3625.69 2034.78 L 3834.65 2037.44 M 3478.88 2456.11 L 3228.09 2360.51 L 3353.44 2252.65 L 3188.42 1995.13 L 3307.46 2276.87 L 3142.12 2273.85 L 3201.1 2535.68 M 3478.88 2456.11 L 3228.09 2360.51 L 3353.44 2252.65 L 3188.42 1995.13 L 3307.46 2276.87 L 3142.12 2273.85 L 3201.1 2535.68 M 3201.1 2535.68 L 2882.04 2484.61 L 3191.63 2577.14 M 3201.1 2535.68 L 2882.04 2484.61 L 3191.63 2577.14 M 3165.5 2727.82 L 3043.02 2788.34 L 3177.91 2809.96 M 3165.5 2727.82 L 3043.02 2788.34 L 3177.91 2809.96 M 3257.55 3281.1 L 3131.17 2957.64 L 2979.94 3270.26 M 3257.55 3281.1 L 3131.17 2957.64 L 2979.94 3270.26 M 2675.99 2884.5 L 2858.2 2930.03 L 2724.76 2797.86 M 2675.99 2884.5 L 2858.2 2930.03 L 2724.76 2797.86 M 2724.76 2797.86 L 2821.86 2574.22 L 2560.63 2400.44 L 2797.32 2606.4 L 2638.64 2791.5" />
  <path class="z" d=" M 2550.43 2390.24 L 2570.84 2390.24 L 2570.84 2410.65 L 2550.43 2410.65 L 2550.43 2390.24 M 2512.28 2875.18 L 2532.68 2875.18 L 2532.68 2895.58 L 2512.28 2895.58 L 2512.28 2875.18 M 2512.28 2875.18 L 2532.68 2875.18 L 2532.68 2895.58 L 2512.28 2895.58 L 2512.28 2875.18 M 2344.1 2679.54 L 2364.51 2679.54 L 2364.51 2699.95 L 2344.1 2699.95 L 2344.1 2679.54 M 2344.1 2679.54 L 2364.51 2679.54 L 2364.51 2699.95 L 2344.1 2699.95 L 2344.1 2679.54 M 2435.27 2531.08 L 2455.67 2531.08 L 2455.67 2551.48 L 2435.27 2551.48 L 2435.27 2531.08 M 2435.27 2531.08 L 2455.67 2531.08 L 2455.67 2551.48 L 2435.27 2551.48 L 2435.27 2531.08 M 2711.95 2120.66 L 2732.36 2120.66 L 2732.36 2141.07 L 2711.95 2141.07 L 2711.95 2120.66 M 2711.95 2120.66 L 2732.36 2120.66 L 2732.36 2141.07 L 2711.95 2141.07 L 2711.95 2120.66 M 2077.25 1275.25 L 2097.66 1275.25 L 2097.66 1295.66 L 2077.25 1295.66 L 2077.25 1275.25 M 2077.25 1275.25 L 2097.66 1275.25 L 2097.66 1295.66 L 2077.25 1295.66 L 2077.25 1275.25 M 1932.69 1818.02 L 1953.09 1818.02 L 1953.09 1838.42 L 1932.69 1838.42 L 1932.69 1818.02 M 1932.69 1818.02 L 1953.09 1818.02 L 1953.09 1838.42 L 1932.69 1838.42 L 1932.69 1818.02 M 1788.9 1638.85 L 1809.3 1638.85 L 1809.3 1659.25 L 1788.9 1659.25 L 1788.9 1638.85 M 1788.9 1638.85 L 1809.3 1638.85 L 1809.3 1659.25 L 1788.9 1659.25 L 1788.9 1638.85 M 1621.08 1790.92 L 1641.48 1790.92 L 1641.48 1811.32 L 1621.08 1811.32 L 1621.08 1790.92 M 1621.08 1790.92 L 1641.48 1790.92 L 1641.48 1811.32 L 1621.08 1811.32 L 1621.08 1790.92 M 1556.25 1966.49 L 1576.65 1966.49 L 1576.65 1986.9 L 1556.25 1986.9 L 1556.25 1966.49 M 1556.25 1966.49 L 1576.65 1966.49 L 1576.65 1986.9 L 1556.25 1986.9 L 1556.25 1966.49 M 1340.77 1651.69 L 1361.18 1651.69 L 1361.18 1672.1 L 1340.77 1672.1 L 1340.77 1651.69 M 1340.77 1651.69 L 1361.18 1651.69 L 1361.18 1672.1 L 1340.77 1672.1 L 1340.77 1651.69 M 1208.01 1202.66 L 1228.42 1202.66 L 1228.42 1223.06 L 1208.01 1223.06 L 1208.01 1202.66 M 1208.01 1202.66 L 1228.42 1202.66 L 1228.42 1223.06 L 1208.01 1223.06 L 1208.01 1202.66 M 871.103 1334.3 L 891.508 1334.3 L 891.508 1354.71 L 871.103 1354.71 L 871.103 1334.3 M 871.103 1334.3 L 891.508 1334.3 L 891.508 1354.71 L 871.103 1354.71 L 871.103 1334.3 M 554.723 1531.77 L 575.128 1531.77 L 575.128 1552.18 L 554.723 1552.18 L 554.723 1531.77 M 554.723 1531.77 L 575.128 1531.77 L 575.128 1552.18 L 554.723 1552.18 L 554.723 1531.77 M 726.007 1918.64 L 746.412 1918.64 L 746.412 1939.04 L 726.007 1939.04 L 726.007 1918.64 M 726.007 1918.64 L 746.412 1918.64 L 746.412 1939.04 L 726.007 1939.04 L 726.007 1918.64 M 496.717 1710.98 L 517.122 1710.98 L 517.122 1731.38 L 496.717 1731.38 L 496.717 1710.98 M 496.717 1710.98 L 517.122 1710.98 L 517.122 1731.38 L 496.717 1731.38 L 496.717 1710.98 M 324.467 1856.33 L 344.872 1856.33 L 344.872 1876.74 L 324.467 1876.74 L 324.467 1856.33 M 324.467 1856.33 L 344.872 1856.33 L 344.872 1876.74 L 324.467 1876.74 L 324.467 1856.33 M 355.469 1626.33 L 375.874 1626.33 L 375.874 1646.73 L 355.469 1646.73 L 355.469 1626.33 M 355.469 1626.33 L 375.874 1626.33 L 375.874 1646.73 L 355.469 1646.73 L 355.469 1626.33 M 621.565 1348.87 L 641.97 1348.87 L 641.97 1369.27 L 621.565 1369.27 L 621.565 1348.87 M 621.565 1348.87 L 641.97 1348.87 L 641.97 1369.27 L 621.565 1369.27 L 621.565 1348.87 M 980.97 1217.63 L 1001.37 1217.63 L 1001.37 1238.04 L 980.97 1238.04 L 980.97 1217.63 M 980.97 1217.63 L 1001.37 1217.63 L 1001.37 1238.04 L 980.97 1238.04 L 980.97 1217.63 M 1207.54 1033.24 L 1227.94 1033.24 L 1227.94 1053.64 L 1207.54 1053.64 L 1207.54 1033.24 M 1207.54 1033.24 L 1227.94 1033.24 L 1227.94 1053.64 L 1207.54 1053.64 L 1207.54 1033.24 M 1269.52 877.711 L 1289.92 877.711 L 1289.92 898.116 L 1269.52 898.116 L 1269.52 877.711 M 1269.52 877.711 L 1289.92 877.711 L 1289.92 898.116 L 1269.52 898.116 L 1269.52 877.711 M 855.974 750.036 L 876.379 750.036 L 876.379 770.441 L 855.974 770.441 L 855.974 750.036 M 855.974 750.036 L 876.379 750.036 L 876.379 770.441 L 855.974 770.441 L 855.974 750.036 M 810.696 752.916 L 831.101 752.916 L 831.101 773.321 L 810.696 773.321 L 810.696 752.916 M 810.696 752.916 L 831.101 752.916 L 831.101 773.321 L 810.696 773.321 L 810.696 752.916 M 702.797 741.026 L 723.202 741.026 L 723.202 761.431 L 702.797 761.431 L 702.797 741.026 M 702.797 741.026 L 723.202 741.026 L 723.202 761.431 L 702.797 761.431 L 702.797 741.026 M 485.579 641.523 L 505.984 641.523 L 505.984 661.928 L 485.579 661.928 L 485.579 641.523 M 485.579 641.523 L 505.984 641.523 L 505.984 661.928 L 485.579 661.928 L 485.579 641.523 M 810.91 666.303 L 831.315 666.303 L 831.315 686.708 L 810.91 686.708 L 810.91 666.303 M 810.91 666.303 L 831.315 666.303 L 831.315 686.708 L 810.91 686.708 L 810.91 666.303 M 849.654 697.594 L 870.059 697.594 L 870.059 717.999 L 849.654 717.999 L 849.654 697.594 M 849.654 697.594 L 870.059 697.594 L 870.059 717.999 L 849.654 717.999 L 849.654 697.594 M 1024.64 748.552 L 1045.04 748.552 L 1045.04 768.957 L 1024.64 768.957 L 1024.64 748.552 M 1024.64 748.552 L 1045.04 748.552 L 1045.04 768.957 L 1024.64 768.957 L 1024.64 748.552 M 1350.44 804.105 L 1370.85 804.105 L 1370.85 824.51 L 1350.44 824.51 L 1350.44 804.105 M 1350.44 804.105 L 1370.85 804.105 L 1370.85 824.51 L 1350.44 824.51 L 1350.44 804.105 M 1386.99 308.959 L 1407.39 308.959 L 1407.39 329.364 L 1386.99 329.364 L 1386.99 308.959 M 1386.99 308.959 L 1407.39 308.959 L 1407.39 329.364 L 1386.99 329.364 L 1386.99 308.959 M 1559.08 349.536 L 1579.48 349.536 L 1579.48 369.941 L 1559.08 369.941 L 1559.08 349.536 M 1559.08 349.536 L 1579.48 349.536 L 1579.48 369.941 L 1559.08 369.941 L 1559.08 349.536 M 1392.57 1368.24 L 1412.98 1368.24 L 1412.98 1388.65 L 1392.57 1388.65 L 1392.57 1368.24 M 1392.57 1368.24 L 1412.98 1368.24 L 1412.98 1388.65 L 1392.57 1388.65 L 1392.57 1368.24 M 1661.19 1507.27 L 1681.6 1507.27 L 1681.6 1527.67 L 1661.19 1527.67 L 1661.19 1507.27 M 1661.19 1507.27 L 1681.6 1507.27 L 1681.6 1527.67 L 1661.19 1527.67 L 1661.19 1507.27 M 2167.38 1043.37 L 2187.79 1043.37 L 2187.79 1063.78 L 2167.38 1063.78 L 2167.38 1043.37 M 2167.38 1043.37 L 2187.79 1043.37 L 2187.79 1063.78 L 2167.38 1063.78 L 2167.38 1043.37 M 2239.63 1282 L 2260.03 1282 L 2260.03 1302.41 L 2239.63 1302.41 L 2239.63 1282 M 2239.63 1282 L 2260.03 1282 L 2260.03 1302.41 L 2239.63 1302.41 L 2239.63 1282 M 2734.4 1347.59 L 2754.81 1347.59 L 2754.81 1367.99 L 2734.4 1367.99 L 2734.4 1347.59 M 2734.4 1347.59 L 2754.81 1347.59 L 2754.81 1367.99 L 2734.4 1367.99 L 2734.4 1347.59 M 3213.95 846.048 L 3234.35 846.048 L 3234.35 866.453 L 3213.95 866.453 L 3213.95 846.048 M 3213.95 846.048 L 3234.35 846.048 L 3234.35 866.453 L 3213.95 866.453 L 3213.95 846.048 M 3407.94 883.132 L 3428.34 883.132 L 3428.34 903.537 L 3407.94 903.537 L 3407.94 883.132 M 3407.94 883.132 L 3428.34 883.132 L 3428.34 903.537 L 3407.94 903.537 L 3407.94 883.132 M 3590.76 1057.4 L 3611.16 1057.4 L 3611.16 1077.8 L 3590.76 1077.8 L 3590.76 1057.4 M 3590.76 1057.4 L 3611.16 1057.4 L 3611.16 1077.8 L 3590.76 1077.8 L 3590.76 1057.4 M 3173.81 996.489 L 3194.21 996.489 L 3194.21 1016.89 L 3173.81 1016.89 L 3173.81 996.489 M 3173.81 996.489 L 3194.21 996.489 L 3194.21 1016.89 L 3173.81 1016.89 L 3173.81 996.489 M 2973.73 1058.21 L 2994.13 1058.21 L 2994.13 1078.62 L 2973.73 1078.62 L 2973.73 1058.21 M 2973.73 1058.21 L 2994.13 1058.21 L 2994.13 1078.62 L 2973.73 1078.62 L 2973.73 1058.21 M 2670.53 1575.08 L 2690.93 1575.08 L 2690.93 1595.48 L 2670.53 1595.48 L 2670.53 1575.08 M 2670.53 1575.08 L 2690.93 1575.08 L 2690.93 1595.48 L 2670.53 1595.48 L 2670.53 1575.08 M 2317.76 1467.94 L 2338.16 1467.94 L 2338.16 1488.34 L 2317.76 1488.34 L 2317.76 1467.94 M 2317.76 1467.94 L 2338.16 1467.94 L 2338.16 1488.34 L 2317.76 1488.34 L 2317.76 1467.94 M 2596.49 2004.32 L 2616.9 2004.32 L 2616.9 2024.72 L 2596.49 2024.72 L 2596.49 2004.32 M 2596.49 2004.32 L 2616.9 2004.32 L 2616.9 2024.72 L 2596.49 2024.72 L 2596.49 2004.32 M 2973.53 1999.02 L 2993.93 1999.02 L 2993.93 2019.43 L 2973.53 2019.43 L 2973.53 1999.02 M 2973.53 1999.02 L 2993.93 1999.02 L 2993.93 2019.43 L 2973.53 2019.43 L 2973.53 1999.02 M 3604.12 2289.77 L 3624.52 2289.77 L 3624.52 2310.17 L 3604.12 2310.17 L 3604.12 2289.77 M 3604.12 2289.77 L 3624.52 2289.77 L 3624.52 2310.17 L 3604.12 2310.17 L 3604.12 2289.77 M 3178.22 1984.93 L 3198.62 1984.93 L 3198.62 2005.33 L 3178.22 2005.33 L 3178.22 1984.93 M 3178.22 1984.93 L 3198.62 1984.93 L 3198.62 2005.33 L 3178.22 2005.33 L 3178.22 1984.93 M 2871.83 2474.41 L 2892.24 2474.41 L 2892.24 2494.81 L 2871.83 2494.81 L 2871.83 2474.41 M 2871.83 2474.41 L 2892.24 2474.41 L 2892.24 2494.81 L 2871.83 2494.81 L 2871.83 2474.41 M 3032.82 2778.14 L 3053.23 2778.14 L 3053.23 2798.54 L 3032.82 2798.54 L 3032.82 2778.14 M 3032.82 2778.14 L 3053.23 2778.14 L 3053.23 2798.54 L 3032.82 2798.54 L 3032.82 2778.14 M 3120.97 2947.44 L 3141.38 2947.44 L 3141.38 2967.84 L 3120.97 2967.84 L 3120.97 2947.44 M 3120.97 2947.44 L 3141.38 2947.44 L 3141.38 2967.84 L 3120.97 2967.84 L 3120.97 2947.44 M 2848 2919.83 L 2868.41 2919.83 L 2868.41 2940.23 L 2848 2940.23 L 2848 2919.83 M 2848 2919.83 L 2868.41 2919.83 L 2868.41 2940.23 L 2848 2940.23 L 2848 2919.83 M 2550.43 2390.24 L 2570.84 2390.24 L 2570.84 2410.65 L 2550.43 2410.65 L 2550.43 2390.24" />
  <path class="h" d=" M 1264.23 926.795 L 1233.23 1004.56 M 1147.39 868.187 L 1235.61 881.338 M 1259.73 841.255 L 1219.74 747.937 M 1165.2 703.366 L 1096.11 707.542 M 1060.32 703.011 L 1057.85 689.775 M 1050.18 671.462 L 1037.31 648.072 M 1073.09 652.603 L 1157.53 685.053 M 1096.94 799.743 L 1055.54 772.417 M 1041.52 746.473 L 1054.88 721.911 M 1031.07 745.292 L 1023.53 718.368 M 1026.15 767.654 L 1008.78 785.452 M 972.601 834.18 L 990.928 807.628 M 903.603 720.536 L 991.096 746.015 M 1158.16 832.033 L 1239.2 869.286 M 1412.94 952.49 L 1324.13 909.439 M 1397.57 1033.73 L 1278 1153.15 M 845.096 1028.06 L 817.613 1128.43 M 794.955 1147.74 L 777.122 1085.99 M 668.963 885.695 L 722.71 850.446 M 716.166 797.817 L 738.444 821.153 M 707.02 777.419 L 711.007 759.959 M 685.831 669.251 L 711.168 690.748 M 613.045 765.856 L 686.906 722.95 M 610.315 793.625 L 673.456 788.641 M 515.864 685.622 L 556.031 753.414 M 499.347 690.963 L 506.48 769.437 M 540.073 643.079 L 628.658 625.786 M 605.328 589.609 L 470.084 534.55 M 335.163 508.621 L 200.565 511.823 M 305.464 682.035 L 370.13 565.358 M 836.952 538.127 L 816.332 564.183 M 862.704 535.055 L 893.587 554.965 M 903.675 552.692 L 892.969 528.235 M 929.161 566.543 L 915.74 565.461 M 1129.85 257.208 L 1113.44 346.164 M 1190.12 161.548 L 1294.26 59.1825 M 1389.05 170.915 L 1221.72 198.792 M 1324.2 337.032 L 1178.22 372.772 M 1357.69 383.086 L 1278.68 510.934 M 1616.79 507.054 L 1560.99 636.32 M 1615.91 263.932 L 1520.45 192.628 M 1441.12 119.732 L 1377.92 45.244 M 2396.04 813.875 L 2258.55 844.207 M 2575.23 915.447 L 2501.6 837.621 M 2792.93 1085.84 L 2824.67 983.52 M 2898.56 918.805 L 3014.59 891.698 M 3050.44 925.711 L 3006.1 1020.85 M 3085.17 824.474 L 3111.93 730.527 M 3249.06 920.562 L 3298.89 1049.18 M 3518.64 903.428 L 3388.75 1043.47 M 3715.17 946.339 L 3627.44 871.049 M 3774.68 866.359 L 3764.25 944.775 M 3781 1154.03 L 3766.35 1040.67 M 3701.77 1329.26 L 3634.56 1154.82 M 3736.59 629.894 L 3765.46 761.399 M 3088.01 1262.35 L 3018.62 1133.06 M 3028.18 1334.69 L 2839.13 1350.09 M 2749.28 1698.05 L 2871.31 1655.91 M 2663.04 1766.29 L 2781.84 1816.82 M 2889.47 2010.55 L 2700.95 2013.2 M 2622.1 2131.47 L 2421.99 2132.68 M 2627.26 2162.57 L 2437.46 2225.98 M 2225.64 2035.06 L 2110.96 2182.84 M 2047.33 2215.13 L 2034.77 2131.93 M 1957.68 1783.71 L 1987.26 1694.69 M 2141.07 1715.05 L 2048.39 1671.8 M 1985.72 1501.56 L 1953.09 1204.32 M 1786.68 1731.64 L 1761.84 1896.84 M 1784.85 1731.35 L 1756.35 1895.95 M 1627.75 2115.71 L 1665.74 2040.64 M 1289.75 2130.72 L 1418.83 2135.65 M 1160.02 2138.14 L 1029.64 2157.92 M 826.964 2096.72 L 641.393 2059.44 M 517.341 1801.09 L 538.185 1960.89 M 476.276 1795.71 L 414.99 1944.76 M 215.278 1814.39 L 201.614 1901.78 M 175.149 1629.33 L 206.457 1723.57 M 121.621 1584.2 L 45.8737 1588.15 M 190.153 1449.73 L 169.714 1538.06 M 601.911 1367.63 L 542.198 1384.75 M 602.355 1349.09 L 543.531 1329.12 M 645.084 1304.66 L 671.718 1195.84 M 674.794 1313.96 L 760.846 1223.73 M 675.921 1383.29 L 764.228 1431.74 M 916.493 1524.81 L 844.419 1478.91 M 838.172 1662.06 L 828.145 1582.06 M 950.964 1685.61 L 918.352 1611.87 M 1030.12 1570 L 944.739 1573.33 M 1040.92 1775.26 L 1188.22 1880.82 M 1187.52 1992.15 L 1038.81 2109.25 M 875.608 1786.68 L 940.453 1955.89 M 2306.39 1709.26 L 2211.46 1671.18 M 2507.23 1677.47 L 2387.72 1544.58 M 2538.93 1643.55 L 2398.29 1533.28 M 3137.25 1998.65 L 3034.9 2005.7 M 3195.79 1919.22 L 3062.93 1845.51 M 3319.2 1951.63 L 3433.16 1942.75 M 3426.86 2212.36 L 3461.54 2374.86 M 3680.12 2432.2 L 3778.24 2354 M 3669.4 2234.34 L 3779.57 2103.07 M 3939.15 2093.66 L 3869.49 2056.18 M 4048.34 2198.52 L 3998.77 2141.1 M 3221.74 2854.84 L 3309.4 2944.61 M 3162.77 3038.51 L 3225.96 3200.24 M 3401.86 3244.2 L 3305.65 3268.8 M 3093.37 3035.8 L 3017.75 3192.1 M 2782.32 3073.89 L 2711.43 2947.63 M 2555.34 3001.98 L 2617.78 2871.33 M 2503.23 2799.35 L 2464.72 2627.3 M 2580.13 2498.21 L 2619.14 2693.74 M 2952.9 2545.41 L 3094.63 2667.02 M 2287.14 2876.21 L 2353.5 2990.17 M 2385.07 3179.82 L 2386.14 3091.37 M 2231.41 2758.72 L 2186.31 2637.67" />
  <path class="h" d=" M 2739.58 2997.75 L 2757.3 2987.64 M 2592.99 2923.2 L 2575.01 2913.55 M 2345.32 2976.12 L 2363.5 2985.39 M 2385.17 3171.49 L 2401.49 3159.25 M 2433.63 3168.91 L 2426.29 3149.87 M 2922.9 3223.39 L 2935.49 3207.33 M 3347.64 3258.07 L 3348.06 3237.67 M 3425.74 3171.21 L 3408.66 3182.37 M 3242.76 2876.37 L 3226.27 2888.39 M 3170.33 2699.96 L 3153.98 2687.75 M 3602.92 2468.49 L 3604.3 2448.13 M 3703.65 2413.45 L 3691.03 2397.41 M 4011.58 2249.17 L 4006.17 2229.5 M 4032.94 2180.68 L 4015.86 2191.84 M 3945.41 2097.02 L 3935.68 2114.96 M 3402.18 1945.17 L 3402.98 1965.56 M 3223.1 1834.51 L 3202.83 1832.2 M 3163.7 1762.96 L 3172.97 1781.14 M 2963.34 1594.6 L 2942.94 1593.93 M 2770.72 1690.65 L 2757.47 1675.13 M 2683.91 1775.17 L 2677.65 1794.59 M 2894.01 1829.47 L 2903.13 1847.73 M 3106.78 1357.79 L 3086.37 1357.79 M 3172.55 1266.83 L 3158.49 1252.04 M 3029.82 888.14 L 3024.79 907.914 M 3089.44 809.489 L 3108.71 816.18 M 2811.58 1025.71 L 2831.39 1030.62 M 2716.66 1112.26 L 2705.12 1129.09 M 2551.55 978.876 L 2532.18 972.475 M 2531.96 869.713 L 2511.56 869.097 M 2245.19 847.154 L 2264.78 852.878 M 2152.01 880.727 L 2154.99 900.912 M 1555.57 648.879 L 1556.53 628.497 M 1521.48 742.787 L 1502.84 751.078 M 1166.35 688.444 L 1145.97 687.462 M 1057.44 687.574 L 1077.75 689.53 M 1034.36 642.707 L 1053.59 649.519 M 913.508 565.281 L 906.319 584.378 M 890.513 522.625 L 870.141 523.791 M 1111.72 355.46 L 1131.96 352.886 M 1252.49 100.237 L 1272.25 105.328 M 1431.04 107.851 L 1411.82 114.728 M 1507.91 183.269 L 1514.62 202.542 M 1093.38 809.473 L 1077.96 796.112 M 975.69 829.705 L 958.46 818.775 M 840.133 993.814 L 836.204 1013.84 M 785.887 1116.34 L 795.398 1098.29 M 753.315 1162.8 L 742.572 1180.15 M 533.2 1299.3 L 550.648 1309.88 M 909.756 1520.52 L 906.5 1500.38 M 1022.14 1570.31 L 1015.22 1589.51 M 953.466 1691.27 L 967.679 1676.63 M 838.941 1668.2 L 820.408 1659.66 M 936.027 1944.34 L 915.683 1942.76 M 837.427 2098.83 L 826.987 2081.29 M 1045.71 2155.48 L 1059.95 2140.86 M 1195.9 1985.55 L 1200.01 2005.53 M 1178.16 1873.61 L 1191.07 1857.8 M 1355.31 2133.22 L 1371.7 2121.07 M 1636 2099.41 L 1625.94 2081.66 M 2044.6 2197.06 L 2059.11 2182.71 M 2208.5 2697.24 L 2228.88 2696.19 M 3665.09 1382.34 L 3661.01 1362.34 M 3756.49 1334.39 L 3746.21 1316.76 M 3770.33 1071.49 L 3749.94 1071.02 M 3775.62 859.319 L 3755.4 856.59 M 3736.5 629.481 L 3724.26 645.806 M 719.921 801.751 L 707.51 817.947 M 696.296 867.77 L 698.466 847.48 M 615.141 857.712 L 631.104 845.003 M 524.325 556.632 L 518.458 576.175 M 335.586 508.611 L 330.277 528.313 M 190.617 606.484 L 209.087 597.812 M 299.58 747.999 L 317.899 739.01 M 86.881 1514.45 L 101.799 1528.38 M 98.0931 1585.42 L 108.18 1567.69 M 192.795 1682.45 L 212.516 1677.21 M 213.992 1822.62 L 233.166 1829.59" />
</svg>
