<?xml version="1.0"?>
<svg width="256" height="318" version="1.1" xmlns="http://www.w3.org/2000/svg" xmlns:xlink="http://www.w3.org/1999/xlink">
  <defs>
  <style type="text/css">
    <![CDATA[
      .b {stroke:rgb(0,0,0);stroke-width:0.795000;fill:none}
      .c {stroke:rgb(128,128,128);stroke-width:0.397500;stroke-dasharray:1.280000, 1.280000;}
      .h {stroke:rgb(240,200,0);stroke-width:0.795000;}
      .m {stroke:rgb(255,0,0);stroke-width:0.397500;}
      .n {stroke:rgb(128,128,128);stroke-width:0.397500}
      .t {stroke:rgb(0,128,0);stroke-width:0.397500;}
      .tab {stroke:rgb(0,0,255);stroke-width:0.198750;fill:none}
      .v {stroke:rgb(0,0,255);stroke-width:0.397500;}
      .z {stroke:rgb(0,240,200);stroke-width:0.198750;}
    ]]>
  </style>
  </defs>
  <path fill="none" class="b" d=" M 78.3628 164.547 L 89.2745 181.297 L 75.4383 181.507 L 63.4036 188.337 L 59.8826 179.037 L 67.5082 158.257 L 54.0595 140.675 L 66.3839 132.344 L 53.4006 139.605 L 56.8129 110.045 L 63.6893 96.4646 L 78.7197 91.3273 L 82.1803 108.336 L 82.4815 90.9814 L 68.1259 84.1828 L 74.4429 76.582 L 65.3258 80.3971 L 54.5291 69.6667 L 27.2997 57.6659 L 37.2173 43.8899 L 24.4783 55.1081 L 18.9316 46.8548 L 8 22.1375 L 32.6239 19.0139 L 38.0748 30.7128 L 33.8234 18.5267 L 61.4463 21.2902 L 54.9092 29.8306 L 63.514 23.3784 L 70.0975 45.8328 L 51.0941 42.2608 L 69.6575 47.673 L 85.8443 61.9234 L 99.7833 67.5856 L 88.5305 76.867 L 103.02 75.1891 L 99.6841 60.5185 L 106.962 40.2179 L 127.782 29.5365 L 133.904 38.7613 L 130.809 28.1311 L 149.925 8 L 151.44 23.6063 L 177.423 17.896 L 165.315 30.6912 L 149.674 46.0296 L 134.019 50.7271 L 150.177 48.2643 L 154.46 59.8619 L 140.558 66.2006 L 155.437 62.728 L 154.009 75.54 L 164.984 63.2543 L 168.366 47.1312 L 181.042 49.4772 L 185.954 59.3952 L 189.396 69.9141 L 176.351 81.1427 L 167.742 73.9558 L 158.186 79.8236 L 144.254 87.0584 L 139.973 100.53 L 99.8472 87.2451 L 125.596 120.764 L 137.373 112.948 L 165.258 140.295 L 155.608 147.651 L 147.867 154.675 L 156.217 148.387 L 166.904 142.641 L 146.163 109.546 L 159.507 117.814 L 173.192 107.373 L 184.292 130.757 L 175.769 106.315 L 186.756 100.646 L 199.735 118.295 L 209.133 133.194 L 201.969 152.293 L 211.061 134.033 L 219.117 137.05 L 214.785 158.736 L 196.847 192.783 L 194.021 172.559 L 184.945 155.105 L 192.509 173.265 L 193.517 193.661 L 194.574 208.875 L 195.171 193.636 L 212.429 209.199 L 203.598 220.999 L 217.652 225.436 L 226.732 246.829 L 248.915 278.275 L 223.698 267.183 L 220.206 251.367 L 203.941 234.79 L 189.493 252.973 L 177.515 247.934 L 170.909 230.474 L 178.434 228.29 L 179.622 220.545 L 179.778 201.877 L 176.453 185.616 L 172.994 201.848 L 159.038 200.183 L 171.967 205.696 L 167.624 217.944 L 151.731 221.071 L 154.599 207.915 L 148.275 219.802 L 127.402 237.781 L 123.969 226.248 L 126.681 237.972 L 105.9 245.539 L 111.968 251.637 L 91.6958 268.588 L 80.3086 292.434 L 66.5452 269.668 L 68.2227 254.078 L 81.0232 258.061 L 81.6672 244.671 L 100.551 228.562 L 79.594 211.496 L 66.9549 196.007 L 83.8587 194.286 L 94.4915 186.685 L 113.94 200.323 L 107.001 211.3 L 114.695 200.837 L 120.323 191.43 L 121.801 180.681 L 129.025 174.006 L 163.392 189.31 L 133.087 167.019 L 138.075 159.194 L 132.445 166.57 L 123.151 169.791 L 116.693 178.51 L 106.821 183.275 L 101.323 160.166 L 88.3495 158.572 L 89.3743 144.621 L 97.7902 136.48 L 106.548 130.598 L 116.786 127.023 L 106.367 130.028 L 94.6953 105.931 L 98.5968 132.42 L 88.2235 134.343 L 77.0517 137.849 L 85.3925 149.078 L 78.3628 164.547" />
  <path class="c" d=" M 101.323 160.166 L 116.693 178.51 M 116.693 178.51 L 101.323 160.166 M 101.323 160.166 L 89.3743 144.621 M 89.3743 144.621 L 101.323 160.166 M 101.323 160.166 L 123.151 169.791 M 123.151 169.791 L 97.7902 136.48 M 97.7902 136.48 L 132.445 166.57 M 132.445 166.57 L 97.7902 136.48 M 97.7902 136.48 L 123.151 169.791 M 123.151 169.791 L 101.323 160.166 M 101.323 160.166 L 97.7902 136.48 M 97.7902 136.48 L 101.323 160.166 M 85.3925 149.078 L 67.5082 158.257 M 67.5082 158.257 L 75.4383 181.507 M 75.4383 181.507 L 59.8826 179.037 M 59.8826 179.037 L 75.4383 181.507 M 75.4383 181.507 L 67.5082 158.257 M 67.5082 158.257 L 78.3628 164.547 M 78.3628 164.547 L 67.5082 158.257 M 67.5082 158.257 L 77.0517 137.849 M 77.0517 137.849 L 82.1803 108.336 M 82.1803 108.336 L 77.0517 137.849 M 77.0517 137.849 L 66.3839 132.344 M 66.3839 132.344 L 77.0517 137.849 M 77.0517 137.849 L 67.5082 158.257 M 67.5082 158.257 L 85.3925 149.078 M 77.0517 137.849 L 54.0595 140.675 M 54.0595 140.675 L 77.0517 137.849 M 88.2235 134.343 L 82.1803 108.336 M 82.1803 108.336 L 88.2235 134.343 M 88.2235 134.343 L 94.6953 105.931 M 94.6953 105.931 L 116.786 127.023 M 116.786 127.023 L 132.445 166.57 M 132.445 166.57 L 116.786 127.023 M 116.786 127.023 L 125.596 120.764 M 125.596 120.764 L 147.867 154.675 M 147.867 154.675 L 125.596 120.764 M 125.596 120.764 L 138.075 159.194 M 138.075 159.194 L 125.596 120.764 M 125.596 120.764 L 116.786 127.023 M 116.786 127.023 L 138.075 159.194 M 138.075 159.194 L 147.867 154.675 M 147.867 154.675 L 138.075 159.194 M 138.075 159.194 L 116.786 127.023 M 116.786 127.023 L 94.6953 105.931 M 94.6953 105.931 L 82.4815 90.9814 M 82.4815 90.9814 L 88.5305 76.867 M 88.5305 76.867 L 82.4815 90.9814 M 82.4815 90.9814 L 99.8472 87.2451 M 99.8472 87.2451 L 144.254 87.0584 M 144.254 87.0584 L 99.8472 87.2451 M 99.8472 87.2451 L 82.4815 90.9814 M 82.4815 90.9814 L 74.4429 76.582 M 74.4429 76.582 L 51.0941 42.2608 M 51.0941 42.2608 L 54.9092 29.8306 M 54.9092 29.8306 L 70.0975 45.8328 M 70.0975 45.8328 L 54.9092 29.8306 M 54.9092 29.8306 L 51.0941 42.2608 M 51.0941 42.2608 L 37.2173 43.8899 M 37.2173 43.8899 L 51.0941 42.2608 M 51.0941 42.2608 L 74.4429 76.582 M 74.4429 76.582 L 88.5305 76.867 M 88.5305 76.867 L 74.4429 76.582 M 74.4429 76.582 L 82.4815 90.9814 M 82.4815 90.9814 L 94.6953 105.931 M 94.6953 105.931 L 88.2235 134.343 M 106.548 130.598 L 132.445 166.57 M 132.445 166.57 L 106.548 130.598 M 125.596 120.764 L 94.6953 105.931 M 94.6953 105.931 L 82.1803 108.336 M 82.1803 108.336 L 66.3839 132.344 M 66.3839 132.344 L 56.8129 110.045 M 56.8129 110.045 L 66.3839 132.344 M 66.3839 132.344 L 63.6893 96.4646 M 63.6893 96.4646 L 66.3839 132.344 M 66.3839 132.344 L 82.1803 108.336 M 82.1803 108.336 L 94.6953 105.931 M 94.6953 105.931 L 99.8472 87.2451 M 99.8472 87.2451 L 88.5305 76.867 M 88.5305 76.867 L 99.8472 87.2451 M 99.8472 87.2451 L 103.02 75.1891 M 103.02 75.1891 L 140.558 66.2006 M 140.558 66.2006 L 150.177 48.2643 M 150.177 48.2643 L 140.558 66.2006 M 140.558 66.2006 L 103.02 75.1891 M 103.02 75.1891 L 144.254 87.0584 M 144.254 87.0584 L 140.558 66.2006 M 140.558 66.2006 L 144.254 87.0584 M 144.254 87.0584 L 103.02 75.1891 M 103.02 75.1891 L 99.8472 87.2451 M 99.8472 87.2451 L 94.6953 105.931 M 94.6953 105.931 L 125.596 120.764 M 137.373 112.948 L 155.608 147.651 M 155.608 147.651 L 137.373 112.948 M 137.373 112.948 L 147.867 154.675 M 147.867 154.675 L 176.453 185.616 M 176.453 185.616 L 193.517 193.661 M 193.517 193.661 L 176.453 185.616 M 176.453 185.616 L 163.392 189.31 M 163.392 189.31 L 176.453 185.616 M 176.453 185.616 L 147.867 154.675 M 147.867 154.675 L 137.373 112.948 M 159.507 117.814 L 184.292 130.757 M 184.292 130.757 L 199.735 118.295 M 199.735 118.295 L 184.292 130.757 M 184.292 130.757 L 186.756 100.646 M 186.756 100.646 L 184.292 130.757 M 184.292 130.757 L 159.507 117.814 M 159.507 117.814 L 166.904 142.641 M 166.904 142.641 L 184.945 155.105 M 184.945 155.105 L 166.904 142.641 M 166.904 142.641 L 159.507 117.814 M 166.904 142.641 L 176.453 185.616 M 176.453 185.616 L 156.217 148.387 M 156.217 148.387 L 176.453 185.616 M 176.453 185.616 L 184.945 155.105 M 184.945 155.105 L 184.292 130.757 M 184.292 130.757 L 184.945 155.105 M 184.945 155.105 L 176.453 185.616 M 176.453 185.616 L 192.509 173.265 M 192.509 173.265 L 176.453 185.616 M 176.453 185.616 L 166.904 142.641 M 166.904 142.641 L 184.292 130.757 M 184.292 130.757 L 201.969 152.293 M 201.969 152.293 L 194.021 172.559 M 194.021 172.559 L 201.969 152.293 M 201.969 152.293 L 219.117 137.05 M 219.117 137.05 L 201.969 152.293 M 201.969 152.293 L 199.735 118.295 M 199.735 118.295 L 201.969 152.293 M 201.969 152.293 L 214.785 158.736 M 214.785 158.736 L 194.021 172.559 M 194.021 172.559 L 214.785 158.736 M 214.785 158.736 L 201.969 152.293 M 201.969 152.293 L 184.945 155.105 M 184.945 155.105 L 201.969 152.293 M 201.969 152.293 L 184.292 130.757 M 184.292 130.757 L 166.904 142.641 M 147.867 154.675 L 163.392 189.31 M 163.392 189.31 L 159.038 200.183 M 159.038 200.183 L 121.801 180.681 M 121.801 180.681 L 159.038 200.183 M 159.038 200.183 L 154.599 207.915 M 154.599 207.915 L 159.038 200.183 M 159.038 200.183 L 129.025 174.006 M 129.025 174.006 L 159.038 200.183 M 159.038 200.183 L 163.392 189.31 M 163.392 189.31 L 138.075 159.194 M 138.075 159.194 L 163.392 189.31 M 163.392 189.31 L 172.994 201.848 M 172.994 201.848 L 163.392 189.31 M 163.392 189.31 L 147.867 154.675 M 120.323 191.43 L 154.599 207.915 M 154.599 207.915 L 114.695 200.837 M 114.695 200.837 L 148.275 219.802 M 148.275 219.802 L 114.695 200.837 M 114.695 200.837 L 154.599 207.915 M 154.599 207.915 L 120.323 191.43 M 120.323 191.43 L 159.038 200.183 M 159.038 200.183 L 120.323 191.43 M 113.94 200.323 L 83.8587 194.286 M 83.8587 194.286 L 113.94 200.323 M 107.001 211.3 L 79.594 211.496 M 79.594 211.496 L 107.001 211.3 M 107.001 211.3 L 100.551 228.562 M 100.551 228.562 L 107.001 211.3 M 107.001 211.3 L 148.275 219.802 M 148.275 219.802 L 107.001 211.3 M 107.001 211.3 L 83.8587 194.286 M 83.8587 194.286 L 107.001 211.3 M 107.001 211.3 L 123.969 226.248 M 123.969 226.248 L 100.551 228.562 M 100.551 228.562 L 123.969 226.248 M 123.969 226.248 L 107.001 211.3 M 100.551 228.562 L 105.9 245.539 M 105.9 245.539 L 81.0232 258.061 M 81.0232 258.061 L 105.9 245.539 M 105.9 245.539 L 81.6672 244.671 M 81.6672 244.671 L 105.9 245.539 M 105.9 245.539 L 91.6958 268.588 M 91.6958 268.588 L 66.5452 269.668 M 66.5452 269.668 L 91.6958 268.588 M 91.6958 268.588 L 105.9 245.539 M 105.9 245.539 L 100.551 228.562 M 100.551 228.562 L 126.681 237.972 M 126.681 237.972 L 100.551 228.562 M 123.969 226.248 L 148.275 219.802 M 148.275 219.802 L 123.969 226.248 M 154.599 207.915 L 167.624 217.944 M 167.624 217.944 L 154.599 207.915 M 159.038 200.183 L 167.624 217.944 M 167.624 217.944 L 159.038 200.183 M 179.778 201.877 L 194.574 208.875 M 194.574 208.875 L 212.429 209.199 M 212.429 209.199 L 194.574 208.875 M 194.574 208.875 L 179.622 220.545 M 179.622 220.545 L 203.598 220.999 M 203.598 220.999 L 179.622 220.545 M 179.622 220.545 L 194.574 208.875 M 194.574 208.875 L 203.598 220.999 M 203.598 220.999 L 203.941 234.79 M 203.941 234.79 L 178.434 228.29 M 178.434 228.29 L 203.941 234.79 M 203.941 234.79 L 203.598 220.999 M 203.598 220.999 L 178.434 228.29 M 178.434 228.29 L 203.598 220.999 M 203.598 220.999 L 194.574 208.875 M 194.574 208.875 L 179.778 201.877 M 179.778 201.877 L 193.517 193.661 M 193.517 193.661 L 179.778 201.877 M 178.434 228.29 L 177.515 247.934 M 177.515 247.934 L 178.434 228.29 M 178.434 228.29 L 189.493 252.973 M 189.493 252.973 L 178.434 228.29 M 203.941 234.79 L 217.652 225.436 M 217.652 225.436 L 220.206 251.367 M 220.206 251.367 L 226.732 246.829 M 226.732 246.829 L 223.698 267.183 M 223.698 267.183 L 226.732 246.829 M 226.732 246.829 L 220.206 251.367 M 220.206 251.367 L 217.652 225.436 M 217.652 225.436 L 203.941 234.79 M 91.6958 268.588 L 81.0232 258.061 M 81.0232 258.061 L 66.5452 269.668 M 66.5452 269.668 L 81.0232 258.061 M 81.0232 258.061 L 91.6958 268.588 M 79.594 211.496 L 83.8587 194.286 M 83.8587 194.286 L 79.594 211.496 M 75.4383 181.507 L 78.3628 164.547 M 78.3628 164.547 L 75.4383 181.507 M 82.1803 108.336 L 63.6893 96.4646 M 63.6893 96.4646 L 82.1803 108.336 M 88.5305 76.867 L 85.8443 61.9234 M 85.8443 61.9234 L 88.5305 76.867 M 74.4429 76.582 L 69.6575 47.673 M 69.6575 47.673 L 74.4429 76.582 M 74.4429 76.582 L 85.8443 61.9234 M 85.8443 61.9234 L 74.4429 76.582 M 65.3258 80.3971 L 51.0941 42.2608 M 51.0941 42.2608 L 65.3258 80.3971 M 54.5291 69.6667 L 37.2173 43.8899 M 37.2173 43.8899 L 54.5291 69.6667 M 54.5291 69.6667 L 51.0941 42.2608 M 51.0941 42.2608 L 38.0748 30.7128 M 38.0748 30.7128 L 8 22.1375 M 8 22.1375 L 38.0748 30.7128 M 38.0748 30.7128 L 54.9092 29.8306 M 54.9092 29.8306 L 33.8234 18.5267 M 33.8234 18.5267 L 54.9092 29.8306 M 54.9092 29.8306 L 38.0748 30.7128 M 38.0748 30.7128 L 51.0941 42.2608 M 51.0941 42.2608 L 54.5291 69.6667 M 37.2173 43.8899 L 8 22.1375 M 8 22.1375 L 37.2173 43.8899 M 37.2173 43.8899 L 18.9316 46.8548 M 18.9316 46.8548 L 37.2173 43.8899 M 37.2173 43.8899 L 38.0748 30.7128 M 38.0748 30.7128 L 37.2173 43.8899 M 99.6841 60.5185 L 133.904 38.7613 M 133.904 38.7613 L 106.962 40.2179 M 106.962 40.2179 L 133.904 38.7613 M 133.904 38.7613 L 165.315 30.6912 M 165.315 30.6912 L 133.904 38.7613 M 133.904 38.7613 L 149.674 46.0296 M 149.674 46.0296 L 133.904 38.7613 M 133.904 38.7613 L 99.6841 60.5185 M 99.6841 60.5185 L 134.019 50.7271 M 134.019 50.7271 L 140.558 66.2006 M 140.558 66.2006 L 134.019 50.7271 M 134.019 50.7271 L 103.02 75.1891 M 103.02 75.1891 L 134.019 50.7271 M 134.019 50.7271 L 99.6841 60.5185 M 134.019 50.7271 L 133.904 38.7613 M 133.904 38.7613 L 134.019 50.7271 M 140.558 66.2006 L 154.009 75.54 M 154.009 75.54 L 158.186 79.8236 M 158.186 79.8236 L 154.009 75.54 M 154.009 75.54 L 167.742 73.9558 M 167.742 73.9558 L 185.954 59.3952 M 185.954 59.3952 L 167.742 73.9558 M 167.742 73.9558 L 164.984 63.2543 M 164.984 63.2543 L 185.954 59.3952 M 185.954 59.3952 L 164.984 63.2543 M 164.984 63.2543 L 181.042 49.4772 M 181.042 49.4772 L 164.984 63.2543 M 164.984 63.2543 L 167.742 73.9558 M 167.742 73.9558 L 154.009 75.54 M 154.009 75.54 L 140.558 66.2006 M 154.009 75.54 L 144.254 87.0584 M 144.254 87.0584 L 154.009 75.54 M 167.742 73.9558 L 189.396 69.9141 M 189.396 69.9141 L 167.742 73.9558 M 165.315 30.6912 L 130.809 28.1311 M 130.809 28.1311 L 151.44 23.6063 M 151.44 23.6063 L 130.809 28.1311 M 130.809 28.1311 L 165.315 30.6912 M 165.315 30.6912 L 151.44 23.6063 M 151.44 23.6063 L 165.315 30.6912" />
  <path class="h" d=" M 123.781 159.048 L 106.454 144.003 M 106.454 144.003 L 123.781 159.048 M 128.53 156.684 L 120.701 136.91 M 120.701 136.91 L 128.53 156.684 M 165.703 121.05 L 178.096 127.521 M 178.096 127.521 L 165.703 121.05 M 157.141 78.7527 L 155.053 76.6109 M 155.053 76.6109 L 157.141 78.7527 M 157.442 75.1439 L 164.308 74.3518 M 164.308 74.3518 L 157.442 75.1439 M 173.155 72.9453 L 183.983 70.9245 M 183.983 70.9245 L 173.155 72.9453 M 156.689 30.0512 L 139.436 28.7711 M 139.436 28.7711 L 156.689 30.0512 M 127.169 39.1254 L 113.698 39.8537 M 113.698 39.8537 L 127.169 39.1254 M 51.9528 49.1122 L 53.6703 62.8152 M 53.6703 62.8152 L 51.9528 49.1122 M 59.2057 115.62 L 63.9912 126.769 M 63.9912 126.769 L 59.2057 115.62 M 59.8076 139.968 L 71.3036 138.555 M 71.3036 138.555 L 59.8076 139.968 M 82.7925 198.589 L 80.6602 207.194 M 80.6602 207.194 L 82.7925 198.589 M 87.7255 244.888 L 99.842 245.322 M 99.842 245.322 L 87.7255 244.888 M 161.184 204.623 L 165.477 213.504 M 165.477 213.504 L 161.184 204.623 M 183.213 199.823 L 190.082 195.715 M 190.082 195.715 L 183.213 199.823 M 199.212 169.103 L 209.594 162.192 M 209.594 162.192 L 199.212 169.103 M 206.256 148.482 L 214.83 140.86 M 214.83 140.86 L 206.256 148.482 M 225.101 247.963 L 221.838 250.232 M 221.838 250.232 L 225.101 247.963 M 225.974 251.917 L 224.457 262.094 M 224.457 262.094 L 225.974 251.917" />
  <path class="z" fill="none" d=" M 78.3628 164.547 L 89.2745 181.297 L 75.4383 181.507 L 63.4036 188.337 L 59.8826 179.037 L 67.5082 158.257 L 54.0595 140.675 L 66.3839 132.344 L 53.4006 139.605 L 56.8129 110.045 L 63.6893 96.4646 L 78.7197 91.3273 L 82.1803 108.336 L 82.4815 90.9814 L 68.1259 84.1828 L 74.4429 76.582 L 65.3258 80.3971 L 54.5291 69.6667 L 27.2997 57.6659 L 37.2173 43.8899 L 24.4783 55.1081 L 18.9316 46.8548 M 61.4463 21.2902 L 54.9092 29.8306 L 63.514 23.3784 L 70.0975 45.8328 L 51.0941 42.2608 L 69.6575 47.673 L 85.8443 61.9234 L 99.7833 67.5856 L 88.5305 76.867 L 103.02 75.1891 L 99.6841 60.5185 L 106.962 40.2179 L 127.782 29.5365 L 133.904 38.7613 L 130.809 28.1311 M 177.423 17.896 L 165.315 30.6912 L 149.674 46.0296 L 134.019 50.7271 L 150.177 48.2643 L 154.46 59.8619 L 140.558 66.2006 L 155.437 62.728 L 154.009 75.54 L 164.984 63.2543 L 168.366 47.1312 L 181.042 49.4772 L 185.954 59.3952 L 189.396 69.9141 L 176.351 81.1427 L 167.742 73.9558 L 158.186 79.8236 L 144.254 87.0584 L 139.973 100.53 L 99.8472 87.2451 L 125.596 120.764 L 137.373 112.948 L 165.258 140.295 L 155.608 147.651 L 147.867 154.675 L 156.217 148.387 L 166.904 142.641 L 146.163 109.546 L 159.507 117.814 L 173.192 107.373 L 184.292 130.757 L 175.769 106.315 L 186.756 100.646 L 199.735 118.295 L 209.133 133.194 L 201.969 152.293 L 211.061 134.033 M 196.847 192.783 L 194.021 172.559 L 184.945 155.105 L 192.509 173.265 L 193.517 193.661 L 194.574 208.875 L 195.171 193.636 L 212.429 209.199 L 203.598 220.999 L 217.652 225.436 L 226.732 246.829 M 248.915 278.275 L 223.698 267.183 L 220.206 251.367 L 203.941 234.79 L 189.493 252.973 L 177.515 247.934 L 170.909 230.474 L 178.434 228.29 L 179.622 220.545 L 179.778 201.877 L 176.453 185.616 L 172.994 201.848 L 159.038 200.183 L 171.967 205.696 L 167.624 217.944 L 151.731 221.071 L 154.599 207.915 L 148.275 219.802 L 127.402 237.781 L 123.969 226.248 L 126.681 237.972 M 68.2227 254.078 L 81.0232 258.061 L 81.6672 244.671 M 79.594 211.496 L 66.9549 196.007 L 83.8587 194.286 L 94.4915 186.685 L 113.94 200.323 L 107.001 211.3 L 114.695 200.837 L 120.323 191.43 L 121.801 180.681 L 129.025 174.006 L 163.392 189.31 L 133.087 167.019 L 138.075 159.194 L 132.445 166.57 L 123.151 169.791 L 116.693 178.51 L 106.821 183.275 L 101.323 160.166 L 88.3495 158.572 L 89.3743 144.621 L 97.7902 136.48 L 106.548 130.598 L 116.786 127.023 L 106.367 130.028 L 94.6953 105.931 L 98.5968 132.42 L 88.2235 134.343 L 77.0517 137.849 L 85.3925 149.078 L 78.3628 164.547" />
  <path class="z" d=" M 74.7983 180.867 L 76.0783 180.867 L 76.0783 182.147 L 74.7983 182.147 L 74.7983 180.867 M 66.8682 157.617 L 68.1482 157.617 L 68.1482 158.897 L 66.8682 158.897 L 66.8682 157.617 M 65.7439 131.704 L 67.0239 131.704 L 67.0239 132.984 L 65.7439 132.984 L 65.7439 131.704 M 81.5403 107.696 L 82.8203 107.696 L 82.8203 108.976 L 81.5403 108.976 L 81.5403 107.696 M 73.8029 75.942 L 75.0829 75.942 L 75.0829 77.222 L 73.8029 77.222 L 73.8029 75.942 M 36.5773 43.2499 L 37.8573 43.2499 L 37.8573 44.5299 L 36.5773 44.5299 L 36.5773 43.2499 M 54.2692 29.1906 L 55.5492 29.1906 L 55.5492 30.4706 L 54.2692 30.4706 L 54.2692 29.1906 M 50.4541 41.6208 L 51.7341 41.6208 L 51.7341 42.9008 L 50.4541 42.9008 L 50.4541 41.6208 M 87.8905 76.227 L 89.1705 76.227 L 89.1705 77.507 L 87.8905 77.507 L 87.8905 76.227 M 133.264 38.1213 L 134.544 38.1213 L 134.544 39.4013 L 133.264 39.4013 L 133.264 38.1213 M 133.379 50.0871 L 134.659 50.0871 L 134.659 51.3671 L 133.379 51.3671 L 133.379 50.0871 M 139.918 65.5606 L 141.198 65.5606 L 141.198 66.8406 L 139.918 66.8406 L 139.918 65.5606 M 164.344 62.6143 L 165.624 62.6143 L 165.624 63.8943 L 164.344 63.8943 L 164.344 62.6143 M 185.314 58.7552 L 186.594 58.7552 L 186.594 60.0352 L 185.314 60.0352 L 185.314 58.7552 M 167.102 73.3158 L 168.382 73.3158 L 168.382 74.5958 L 167.102 74.5958 L 167.102 73.3158 M 99.2072 86.6051 L 100.487 86.6051 L 100.487 87.8851 L 99.2072 87.8851 L 99.2072 86.6051 M 147.227 154.035 L 148.507 154.035 L 148.507 155.315 L 147.227 155.315 L 147.227 154.035 M 183.652 130.117 L 184.932 130.117 L 184.932 131.397 L 183.652 131.397 L 183.652 130.117 M 201.329 151.653 L 202.609 151.653 L 202.609 152.933 L 201.329 152.933 L 201.329 151.653 M 184.305 154.465 L 185.585 154.465 L 185.585 155.745 L 184.305 155.745 L 184.305 154.465 M 193.934 208.235 L 195.214 208.235 L 195.214 209.515 L 193.934 209.515 L 193.934 208.235 M 202.958 220.359 L 204.238 220.359 L 204.238 221.639 L 202.958 221.639 L 202.958 220.359 M 203.301 234.15 L 204.581 234.15 L 204.581 235.43 L 203.301 235.43 L 203.301 234.15 M 177.794 227.65 L 179.074 227.65 L 179.074 228.93 L 177.794 228.93 L 177.794 227.65 M 175.813 184.976 L 177.093 184.976 L 177.093 186.256 L 175.813 186.256 L 175.813 184.976 M 158.398 199.543 L 159.678 199.543 L 159.678 200.823 L 158.398 200.823 L 158.398 199.543 M 153.959 207.275 L 155.239 207.275 L 155.239 208.555 L 153.959 208.555 L 153.959 207.275 M 123.329 225.608 L 124.609 225.608 L 124.609 226.888 L 123.329 226.888 L 123.329 225.608 M 80.3832 257.421 L 81.6632 257.421 L 81.6632 258.701 L 80.3832 258.701 L 80.3832 257.421 M 106.361 210.66 L 107.641 210.66 L 107.641 211.94 L 106.361 211.94 L 106.361 210.66 M 162.752 188.67 L 164.032 188.67 L 164.032 189.95 L 162.752 189.95 L 162.752 188.67 M 137.435 158.554 L 138.715 158.554 L 138.715 159.834 L 137.435 159.834 L 137.435 158.554 M 116.146 126.383 L 117.426 126.383 L 117.426 127.663 L 116.146 127.663 L 116.146 126.383 M 94.0553 105.291 L 95.3353 105.291 L 95.3353 106.571 L 94.0553 106.571 L 94.0553 105.291" />
  <path class="h" d=" M 16.1987 40.6755 L 10.7329 28.3168 M 14.156 21.3566 L 26.4679 19.7948 M 33.9866 21.9386 L 36.7121 27.7881 M 37.0119 27.6662 L 34.8862 21.5732 M 40.7291 19.2175 L 54.5406 20.5993 M 135.588 23.0983 L 145.146 13.0328 M 150.304 11.9016 L 151.061 19.7047 M 157.936 22.1787 L 170.927 19.3236 M 213.075 134.787 L 217.103 136.295 M 218.034 142.471 L 215.868 153.315 M 210.3 167.248 L 201.332 184.271 M 232.278 254.69 L 243.369 270.413 M 121.486 239.864 L 111.095 243.647 M 107.417 247.064 L 110.451 250.113 M 106.9 255.875 L 96.7637 264.351 M 88.849 274.55 L 83.1554 286.473 M 76.8678 286.742 L 69.9861 275.36 M 66.9646 265.771 L 67.8033 257.976 M 86.3881 240.644 L 95.8299 232.589 M 95.3115 224.296 L 84.8332 215.763" />
  <path class="h" d=" M 17.8384 44.3831 L 19.118 44.3505 M 10.4818 21.8226 L 11.7001 22.2152 M 33.3505 20.5734 L 32.073 20.6522 M 34.3901 20.1511 L 35.5478 20.6972 M 40.4892 19.1935 L 41.5192 19.9534 M 145.312 12.8579 L 145.946 13.9699 M 150.518 14.1127 L 149.475 14.8546 M 155.937 22.6181 L 156.907 23.4531 M 212.461 134.557 L 211.81 135.659 M 216.995 147.671 L 215.772 148.047 M 205.432 176.488 L 204.222 176.072 M 238.298 263.225 L 237.063 263.56 M 116.503 241.678 L 115.514 240.865 M 106.955 246.599 L 106.225 247.651 M 102.571 259.495 L 102.868 258.25 M 83.5705 243.048 L 84.8426 243.19 M 98.4551 226.856 L 99.0714 225.734 M 67.2023 263.562 L 68.3915 263.089 M 86.4173 279.642 L 85.2733 279.068 M 77.9267 288.494 L 78.6548 287.441" />
</svg>
