<?xml version="1.0" encoding="UTF-8" standalone="no"?>
<svg
   xmlns:dc="http://purl.org/dc/elements/1.1/"
   xmlns:cc="http://creativecommons.org/ns#"
   xmlns:rdf="http://www.w3.org/1999/02/22-rdf-syntax-ns#"
   xmlns:svg="http://www.w3.org/2000/svg"
   xmlns="http://www.w3.org/2000/svg"
   version="1.1"
   id="svg2"
   viewBox="0 0 1062.9921 1052.3622"
   height="297mm"
   width="300mm">
  <defs
     id="defs4">
    <style
       type="text/css"
       id="style3833"><![CDATA[
      .b {stroke:rgb(0,0,0);stroke-width:2.567500;fill:none}
      .c {stroke:rgb(128,128,128);stroke-width:1.283750;stroke-dasharray:3.375000, 3.375000;}
      .h {stroke:rgb(240,200,0);stroke-width:2.567500;}
      .m {stroke:rgb(255,0,0);stroke-width:1.283750;}
      .n {stroke:rgb(128,128,128);stroke-width:1.283750}
      .t {stroke:rgb(0,128,0);stroke-width:1.283750;}
      .tab {stroke:rgb(0,0,255);stroke-width:0.641875;fill:none}
      .v {stroke:rgb(0,0,255);stroke-width:1.283750;}
      .z {stroke:rgb(0,240,200);stroke-width:0.641875;}
    ]]></style>
  </defs>
  <metadata
     id="metadata7">
    <rdf:RDF>
      <cc:Work
         rdf:about="">
        <dc:format>image/svg+xml</dc:format>
        <dc:type
           rdf:resource="http://purl.org/dc/dcmitype/StillImage" />
        <dc:title></dc:title>
      </cc:Work>
    </rdf:RDF>
  </metadata>
  <g
     transform="translate(0,-1.5527559e-4)"
     id="layer1">
    <g
       transform="matrix(0,1,-1,0,1028.1223,134.25328)"
       id="g3852">
      <path
         style="fill:none;stroke:#000000;stroke-width:2.56750011"
         class="b"
         d="m 573.637,847.643 -49.505,-48.758 32.82,-31.268 -33.016,-8.764 10.028,-44.848 -52.228,-25.351 -26.9,28.239 6.646,-38.43 3.694,-61.323 32.173,52.336 41.136,-40.966 45.322,7.601 -0.669,-34.153 -58.694,-17.564 -30.623,-16.858 33.484,10.038 18.251,-40.355 -16.783,40.987 56.709,-23.184 40.849,-19.653 6.683,-69.161 -77.136,25.486 -60.78,-6.237 60.822,-5.82 72.129,-37.375 -30.618,-17.788 -9.329,-24.694 41.999,-28.737 37.522,-29.051 -13.936,-41.213 -18.785,27.427 -27.459,-3.833 1.19,-22.147 -29.953,24.91 -20.523,31.406 4.656,59.755 -40.264,-19.398 10.089,52.6 -25.586,-47.053 -19.796,43.09 5.379,-47.114 -56.174,4.971 -16.453,50.824 36.548,39.503 -43.067,-32.273 -6.69,-53 -25.678,56.466 13.863,-60.461 -22.093,-23.715 25.664,19.795 38.593,-41.119 -24.38,-19.302 30.842,-3.967 13.64,-42.562 -56.663,-19.536 -22.965,-29.667 -23.121,0.53 -15.475,78.474 -7.858,49.389 -4.404,-49.816 -21.735,-76.975 22.407,5.729 1.003,-38.944 19.883,9.828 18.13,-20.977 -41.563,-24.558 -9.658,-6.461 -22.425,23.35 -27.665,-16.814 10.491,-4.995 -8.161,-18.756 3.189,-20.204 -47.674,-7.605 17.578,28.215 -37.395,14.918 1.46,-34.368 -8.706,-23.936 -22.582,-58.2388 -14.523,19.947 1.419,-24.6332 62.184,5.8972 -1.099,-25.447 L 194.82,8 l -55.681,21.7271 -59.7566,1.2082 38.8756,10.4665 4.811,43.2384 -0.592,39.9078 45.872,0.671 5.363,45.562 13.956,41.849 75.839,-8.256 13.644,65.476 8.97,59.379 -29.824,-52.123 -10.342,65.777 -6.154,25.219 35.59,-5.093 -33.015,14.232 22.843,59.16 30.639,-24.506 47.537,15.09 -7.6,14.793 7.514,-14.837 -48.436,-11.893 2.969,73.744 16.07,48.402 48.449,-25.683 -41.128,36.269 53.547,59.162 33.568,-6.097 5.768,-46.707 6.74,46.576 35.851,-23.222 -23.007,35.99 6.315,33.528 -55.041,57.774 -40.702,30.73 -55.964,-48.114 -5.796,38.803 -62.929,7.851 27.209,34.722 18.679,14.395 19.71,-19.971 0.586,28.053 -6.071,46.274 28.684,9.864 -30.033,4.257 -29.08,-36.503 -22.197,7.962 -43.599,-6.718 -25.958,0.209 -61.0365,-26.612 -8.3542,23.833 8.0382,-23.941 -66.84,2.391 50.1965,57.445 -2.3817,44.051 L 63.0498,856.421 43.725,899.762 8,936.003 l 70.5093,-25.43 27.8527,0.769 2.126,-75.053 26.02,-1.998 38.291,1.557 -3.193,38.188 50.429,-12.571 -47.404,21.307 -1.475,26.055 60.776,44.088 4.678,-20.977 -0.886,-28.733 6.487,28.005 -0.813,21.478 -20.228,19.161 25.841,25.094 37.026,-4.16 12.29,-31.209 30.074,-14.853 -27.931,-9.155 13.274,-28.452 37.229,-52.905 -29.636,-61.349 3.891,-46.364 40.361,23.147 32.22,-14.691 -28.243,21.361 68.132,0.056 20.858,-19.026 -10.332,26.274 -10.891,63.768 27.688,14.801 -5.454,-35.792 8.669,35.152 29.38,0.89 26.924,-25.934 -19.611,31.826 36.128,9.109 25.161,25.775 62.921,-40.735 -18.167,-19.151 -35.335,2.317"
         id="path3835" />
      <path
         style="stroke:#808080;stroke-width:1.28375006;stroke-dasharray:3.375, 3.375"
         class="c"
         d="m 524.132,798.885 -1.592,39.617 m 0,0 51.097,9.141 m 0,0 -9.419,57.569 m -25.161,-25.775 34.58,-31.794 m 35.335,-2.317 -44.754,59.886 m -61.289,-34.884 70.708,-22.685 m -51.097,-9.141 -56.304,25.044 m -8.669,-35.152 64.973,10.108 m 1.592,-39.617 -66.565,29.509 m 0,0 -22.234,20.991 m 10.891,-63.768 11.343,42.777 m -21.869,-50.025 -39.889,-21.417 m 0,0 60.747,2.391 m 0,0 67.38,-0.49 m 0.196,40.032 -77.908,-13.268 m 8.612,-68.724 1.72,42.45 m -1.72,-42.45 -59.027,40.059 m -32.22,14.691 -19.317,-36.129 m 0,0 -21.044,12.982 m 0,0 -38.047,14.704 m 0,0 -38.389,5.576 m 38.389,-5.576 -65.598,-29.146 m 62.929,-7.851 40.716,22.293 m 0,0 -34.92,-61.096 m 55.964,48.114 51.537,21.438 m -10.835,-52.168 10.835,52.168 m -76.472,37.908 -10.957,52.531 m 0,0 3.364,61.723 m 0,0 -76.02,-5.909 m 0,0 -63.093,-20.433 m 0,0 63.979,49.166 m 5.601,-0.728 56.259,6.356 m 0,0 -62.746,-34.361 m 0,0 -15.689,-41.74 m 0,0 -47.236,-25.617 m 0,0 -15.286,-19.25 m 25.958,-0.209 -10.672,19.459 m -38.291,-1.557 23.005,-17.693 m -49.025,19.691 -20.3657,-22.47 m 0,0 -58.8018,-21.55 m 67.156,-2.283 38.0315,44.305 m -26.02,1.998 -12.0115,-46.303 m 12.0115,46.303 -31.3527,57.476 m 0,0 29.2267,17.577 m -27.8527,-0.769 -1.374,-16.808 m 0,0 L 8,936.003 m 69.1353,-42.238 -33.4103,5.997 m 35.792,-50.048 8.6053,-35.895 m -8.6053,35.895 28.971,-13.425 m 62.668,72.538 65.454,23.111 m 4.788,20.75 54.929,8.886 m 0,0 -54.116,-30.364 m -21.041,40.639 75.157,-10.275 m 0,0 2.143,-24.008 m 13.274,-28.452 -91.709,-47.649 m 7.035,-38.358 -7.035,38.358 m 7.035,-38.358 -54.271,12.741 m 105.548,15.8 -58.312,9.817 m 58.312,-9.817 -51.277,-28.541 m 58.111,-59.907 -2.669,-36.997 m 36.825,68.657 -33.57,-3.607 m 33.57,3.607 -34.156,-31.66 m 23.199,84.191 -22.613,-56.138 m 63.206,64.956 -40.593,-8.818 m 3.364,61.723 -33.397,-57.466 m -31.336,145.295 49.316,-35.369 M 524.132,798.885 456.556,759.343 m 67.576,39.542 -0.196,-40.032 m 10.028,-44.848 -77.408,45.338 m 77.408,-45.338 -79.128,2.888 m -14.821,-69.883 25.161,-29.87 m 0,0 59.268,-32.746 m 0,0 -67.737,-6.902 m 0,0 8.469,39.648 m 0,0 73.309,11.37 m 0,0 -14.041,-44.116 m -30.623,-16.858 -37.114,9.956 m 0,0 -42.591,-23.354 m 0,0 42.44,-58.418 m 0,0 30.7,-48.184 m 0,0 -67.248,8.681 m -6.519,7.23 0.627,90.691 m 19.584,59.344 31.476,3.658 m -25.161,29.87 21.467,31.453 m -21.467,-31.453 14.821,69.883 M 440.015,647.01 395.809,756.952 m 98.012,-189.416 51.735,-30.317 m 0,0 39.926,17.803 m -2.344,46.936 -44.653,26.552 m 17.393,-136.816 70.453,43.675 m -70.453,-43.675 29.604,63.328 m -29.604,-63.328 -10.322,45.525 m -50.458,-51.762 37.54,-33.958 m 0,0 23.282,28.138 m -60.822,5.82 50.458,51.762 m -50.458,-51.762 -1.277,82.079 m -37.265,-71.816 38.542,-10.263 m -7.842,-37.921 45.382,3.963 m 30.175,-33.202 25.289,-18.517 m 0,0 -9.422,-72.644 m 0,0 28.763,-2.763 m 27.459,3.833 32.721,13.786 m -37.522,29.051 4.801,-42.837 m -76.745,30.336 29.945,41.238 m 0,0 19.341,-75.407 m -19.341,75.407 46.8,-71.574 m -37.471,96.268 -41.511,55.163 m 6.893,-61.34 34.618,6.177 m 0,0 -64.793,27.025 m 30.175,-33.202 -30.175,33.202 m -45.382,-3.963 7.842,37.921 m -38.542,10.263 37.265,71.816 m -37.265,-71.816 0.151,81.772 m -94.346,-65.981 18.76,-44.598 m 0,0 32.995,87.225 m -51.755,-42.627 51.755,42.627 m -51.755,-42.627 45.987,89.334 m -45.987,-89.334 12.419,95.431 m 6.341,-140.029 -45.326,-25.135 m 0,0 -40.922,-26.73 m 0.985,-3.153 -20.467,-48.886 m 0,0 -29.436,-20.126 m 0,0 40.166,-13.654 m 0,0 40.643,-4.273 m 0,0 -49.613,-55.106 m 27.878,-21.869 -27.878,21.869 m 27.878,-21.869 -12.223,-52.033 m 0,0 -15.655,73.902 m -13.644,-65.476 1.634,-25.24 m 0,0 -77.473,33.496 m -13.956,-41.849 29.457,-0.074 m 0,0 -15.501,41.923 m 52.896,-56.841 24.577,23.345 m 0,0 2.33,-23.751 m 0,0 -26.907,0.406 m 26.907,-0.406 -44.485,-27.809 m -18.357,8.765 -30.917,34.442 m -5.363,-45.562 -45.28,-40.5788 m 0,0 37.168,-35.1622 m 0,0 L 194.82,8 m -34.583,41.478 61.085,-19.5498 m -82.183,-0.2011 21.098,19.7509 m -21.098,-19.7509 -16.07,54.9131 m 0,0 35.749,-10.529 m 9.531,51.1078 -9.531,-51.1078 m 9.531,51.1078 27.574,-12.816 m 0,0 -37.105,-38.2918 m -40.56,-32.7094 20.881,-11.6747 m 65.49,106.6119 -36.28,-11.12 m 96.792,53.915 -61.972,-8.427 m 89.637,25.241 -29.299,8.426 m 64.932,10.392 -23.41,33.215 m 23.41,-33.215 -35.633,-18.818 m 32.083,-16.889 -32.083,16.889 m 35.633,18.818 -3.55,-35.707 m 41.563,24.558 -38.013,11.149 m 72.148,61.28 -61.561,49.337 m 0,0 33.865,57.354 m 0,0 -41.723,-7.965 m 0,0 -45.047,-45.543 m -10.73,33.78 10.73,-33.78 m -10.73,33.78 55.777,11.763 m 0,0 12.227,52.213 m 0,0 29.496,-44.248 m 0,0 39.877,-40.626 m 0,0 -73.742,-16.728 m 33.865,57.354 64.257,-21.324 m -24.38,-19.302 -12.181,-66.065 m 0,0 -46.086,-29.137 m 58.267,95.202 44.482,-46.529 m -20.789,109.811 50.795,42.143 m -73.767,15.911 -32.368,3.466 m -45.326,-25.135 26.566,69.733 m -64.519,-22.719 37.953,-47.014 m 7.6,-14.793 37.726,39.928 m 13.863,-60.461 -51.589,20.533 m -47.537,-15.09 35.31,-37.123 m -65.949,61.629 10.172,-73.392 m 22.451,125.783 64.519,22.719"
         id="path3837" />
      <path
         style="fill:none;stroke:#00f0c8;stroke-width:0.64187503"
         class="z"
         d="m 502.929,870.328 19.611,-31.826 -26.924,25.934 m 7.313,5.892 19.611,-31.826 -26.924,25.934 m -29.38,-0.89 -8.669,-35.152 5.454,35.792 m 3.215,-0.64 -8.669,-35.152 5.454,35.792 m -16.797,-78.569 10.332,-26.274 -20.858,19.026 m 10.526,7.248 10.332,-26.274 -20.858,19.026 m -68.132,-0.056 28.243,-21.361 -32.22,14.691 m 3.977,6.67 28.243,-21.361 -32.22,14.691 m 0,0 -40.361,-23.147 -3.891,46.364 m 44.252,-23.217 -40.361,-23.147 -3.891,46.364 m 7.064,151.861 -30.074,14.853 -12.29,31.209 m 42.364,-46.062 -30.074,14.853 -12.29,31.209 m -42.639,-40.095 0.813,-21.478 -6.487,-28.005 0.886,28.733 -4.678,20.977 m 9.466,-0.227 0.813,-21.478 -6.487,-28.005 0.886,28.733 -4.678,20.977 m -59.301,-70.143 47.404,-21.307 -50.429,12.571 m 3.025,8.736 47.404,-21.307 -50.429,12.571 m 0,0 3.193,-38.188 -38.291,-1.557 m 35.098,39.745 3.193,-38.188 -38.291,-1.557 m -38.3475,-44.413 -8.0382,23.941 8.3542,-23.833 m -0.316,-0.108 -8.0382,23.941 8.3542,-23.833 m 152.7905,25.159 29.08,36.503 30.033,-4.257 -28.684,-9.864 6.071,-46.274 m -36.5,23.892 29.08,36.503 30.033,-4.257 -28.684,-9.864 6.071,-46.274 m 0,0 -0.586,-28.053 -19.71,19.971 m 20.296,8.082 -0.586,-28.053 -19.71,19.971 M 433.7,613.482 l 23.007,-35.99 -35.851,23.222 m 12.844,12.768 23.007,-35.99 -35.851,23.222 m 0,0 -6.74,-46.576 -5.768,46.707 m 12.508,-0.131 -6.74,-46.576 -5.768,46.707 m -87.115,-53.065 41.128,-36.269 -48.449,25.683 m 7.321,10.586 41.128,-36.269 -48.449,25.683 m -19.039,-122.146 48.436,11.893 -7.514,14.837 7.6,-14.793 -47.537,-15.09 m -0.985,3.153 48.436,11.893 -7.514,14.837 7.6,-14.793 -47.537,-15.09 m -53.482,-34.654 33.015,-14.232 -35.59,5.093 m 2.575,9.139 33.015,-14.232 -35.59,5.093 m 16.496,-90.996 29.824,52.123 -8.97,-59.379 m -20.854,7.256 29.824,52.123 -8.97,-59.379 m -103.439,-99.069 -5.363,-45.562 -45.872,-0.671 m 51.235,46.233 -5.363,-45.562 -45.872,-0.671 M 79.3824,30.9353 139.139,29.7271 194.82,8 M 79.3824,30.9353 139.139,29.7271 194.82,8 m 0,0 26.502,21.9282 1.099,25.447 -62.184,-5.8972 -1.419,24.6332 14.523,-19.947 22.582,58.2388 8.706,23.936 -1.46,34.368 M 194.82,8 l 26.502,21.9282 1.099,25.447 -62.184,-5.8972 -1.419,24.6332 14.523,-19.947 22.582,58.2388 8.706,23.936 -1.46,34.368 m 67.491,-35.528 -3.189,20.204 8.161,18.756 m -4.972,-38.96 -3.189,20.204 8.161,18.756 m 0,0 -10.491,4.995 27.665,16.814 22.425,-23.35 9.658,6.461 m -49.257,-4.92 -10.491,4.995 27.665,16.814 22.425,-23.35 9.658,6.461 m 2.547,74.651 -22.407,-5.729 21.735,76.975 4.404,49.816 7.858,-49.389 15.475,-78.474 23.121,-0.53 m -50.186,7.331 -22.407,-5.729 21.735,76.975 4.404,49.816 7.858,-49.389 15.475,-78.474 23.121,-0.53 m 65.988,91.765 -30.842,3.967 24.38,19.302 m 6.462,-23.269 -30.842,3.967 24.38,19.302 m -38.593,41.119 -25.664,-19.795 22.093,23.715 m 3.571,-3.92 -25.664,-19.795 22.093,23.715 m 0,0 -13.863,60.461 25.678,-56.466 m -11.815,-3.995 -13.863,60.461 25.678,-56.466 m 0,0 6.69,53 43.067,32.273 -36.548,-39.503 16.453,-50.824 m -29.662,5.054 6.69,53 43.067,32.273 -36.548,-39.503 16.453,-50.824 m 56.174,-4.971 -5.379,47.114 19.796,-43.09 m -14.417,-4.024 -5.379,47.114 19.796,-43.09 m 0,0 25.586,47.053 -10.089,-52.6 m -15.497,5.547 25.586,47.053 -10.089,-52.6 m 105.5,43.363 -72.129,37.375 -60.822,5.82 60.78,6.237 77.136,-25.486 m -4.965,-23.946 -72.129,37.375 -60.822,5.82 60.78,6.237 77.136,-25.486 m -104.241,111.998 16.783,-40.987 -18.251,40.355 m 1.468,0.632 16.783,-40.987 -18.251,40.355 m 0,0 -33.484,-10.038 30.623,16.858 m 2.861,-6.82 -33.484,-10.038 30.623,16.858 m -27.095,85.082 -32.173,-52.336 -3.694,61.323 m 35.867,-8.987 -32.173,-52.336 -3.694,61.323 m 0,0 -6.646,38.43 26.9,-28.239 m -20.254,-10.191 -6.646,38.43 26.9,-28.239"
         id="path3839" />
      <path
         style="stroke:#00f0c8;stroke-width:0.64187503"
         class="z"
         d="m 520.853,836.814 3.375,0 0,3.375 -3.375,0 0,-3.375 m 0,0 3.375,0 0,3.375 -3.375,0 0,-3.375 m -64.974,-10.107 3.375,0 0,3.375 -3.375,0 0,-3.375 m 0,0 3.375,0 0,3.375 -3.375,0 0,-3.375 m -1.011,-69.051 3.375,0 0,3.375 -3.375,0 0,-3.375 m 0,0 3.375,0 0,3.375 -3.375,0 0,-3.375 m -60.747,-2.391 3.375,0 0,3.375 -3.375,0 0,-3.375 m 0,0 3.375,0 0,3.375 -3.375,0 0,-3.375 m -72.581,-8.457 3.375,0 0,3.375 -3.375,0 0,-3.375 m 0,0 3.375,0 0,3.375 -3.375,0 0,-3.375 m -26.9,213.078 3.375,0 0,3.375 -3.375,0 0,-3.375 m 0,0 3.375,0 0,3.375 -3.375,0 0,-3.375 m -60.603,-58.369 3.375,0 0,3.375 -3.375,0 0,-3.375 m 0,0 3.375,0 0,3.375 -3.375,0 0,-3.375 m -15.69,-41.74 3.375,0 0,3.375 -3.375,0 0,-3.375 m 0,0 3.375,0 0,3.375 -3.375,0 0,-3.375 m -47.236,-25.617 3.375,0 0,3.375 -3.375,0 0,-3.375 m 0,0 3.375,0 0,3.375 -3.375,0 0,-3.375 m -84.6762,-22.029 3.375,0 0,3.375 -3.375,0 0,-3.375 m 0,0 3.375,0 0,3.375 -3.375,0 0,-3.375 m 220.2572,33.573 3.375,0 0,3.375 -3.375,0 0,-3.375 m 0,0 3.375,0 0,3.375 -3.375,0 0,-3.375 m -23.199,-84.191 3.375,0 0,3.375 -3.375,0 0,-3.375 m 0,0 3.375,0 0,3.375 -3.375,0 0,-3.375 m 171.527,-185.709 3.375,0 0,3.375 -3.375,0 0,-3.375 m 0,0 3.375,0 0,3.375 -3.375,0 0,-3.375 m -42.592,-23.353 3.375,0 0,3.375 -3.375,0 0,-3.375 m 0,0 3.375,0 0,3.375 -3.375,0 0,-3.375 m -51.755,-42.627 3.375,0 0,3.375 -3.375,0 0,-3.375 m 0,0 3.375,0 0,3.375 -3.375,0 0,-3.375 m -26.566,-69.734 3.375,0 0,3.375 -3.375,0 0,-3.375 m 0,0 3.375,0 0,3.375 -3.375,0 0,-3.375 m -60.403,-78.769 3.375,0 0,3.375 -3.375,0 0,-3.375 m 0,0 3.375,0 0,3.375 -3.375,0 0,-3.375 m 10.73,-33.78 3.375,0 0,3.375 -3.375,0 0,-3.375 m 0,0 3.375,0 0,3.375 -3.375,0 0,-3.375 m -117.773,-204.009 3.375,0 0,3.375 -3.375,0 0,-3.375 m 0,0 3.375,0 0,3.375 -3.375,0 0,-3.375 m -29.209,-95.4924 3.375,0 0,3.375 -3.375,0 0,-3.375 m 0,0 3.375,0 0,3.375 -3.375,0 0,-3.375 m 19.679,44.3841 3.375,0 0,3.375 -3.375,0 0,-3.375 m 0,0 3.375,0 0,3.375 -3.375,0 0,-3.375 m 108.653,81.2713 3.375,0 0,3.375 -3.375,0 0,-3.375 m 0,0 3.375,0 0,3.375 -3.375,0 0,-3.375 m 25.335,40.566 3.375,0 0,3.375 -3.375,0 0,-3.375 m 0,0 3.375,0 0,3.375 -3.375,0 0,-3.375 m 38.362,178.824 3.375,0 0,3.375 -3.375,0 0,-3.375 m 0,0 3.375,0 0,3.375 -3.375,0 0,-3.375 m 81.599,-32.662 3.375,0 0,3.375 -3.375,0 0,-3.375 m 0,0 3.375,0 0,3.375 -3.375,0 0,-3.375 m -39.876,40.626 3.375,0 0,3.375 -3.375,0 0,-3.375 m 0,0 3.375,0 0,3.375 -3.375,0 0,-3.375 m 8.229,84.177 3.375,0 0,3.375 -3.375,0 0,-3.375 m 0,0 3.375,0 0,3.375 -3.375,0 0,-3.375 m 75.435,28.807 3.375,0 0,3.375 -3.375,0 0,-3.375 m 0,0 3.375,0 0,3.375 -3.375,0 0,-3.375 m 30.7,-48.184 3.375,0 0,3.375 -3.375,0 0,-3.375 m 0,0 3.375,0 0,3.375 -3.375,0 0,-3.375 m 45.382,3.963 3.375,0 0,3.375 -3.375,0 0,-3.375 m 0,0 3.375,0 0,3.375 -3.375,0 0,-3.375 m -37.539,33.957 3.375,0 0,3.375 -3.375,0 0,-3.375 m 0,0 3.375,0 0,3.375 -3.375,0 0,-3.375 m 50.457,51.763 3.375,0 0,3.375 -3.375,0 0,-3.375 m 0,0 3.375,0 0,3.375 -3.375,0 0,-3.375 m -51.734,30.317 3.375,0 0,3.375 -3.375,0 0,-3.375 m 0,0 3.375,0 0,3.375 -3.375,0 0,-3.375 m -28.645,49.603 3.375,0 0,3.375 -3.375,0 0,-3.375 m 0,0 3.375,0 0,3.375 -3.375,0 0,-3.375 m -10.341,99.753 3.375,0 0,3.375 -3.375,0 0,-3.375 m 0,0 3.375,0 0,3.375 -3.375,0 0,-3.375"
         id="path3841" />
      <path
         style="stroke:#f0c800;stroke-width:2.56750011"
         class="h"
         d="m 520.606,864.656 35.354,-11.342 m -47.496,-8.551 -28.152,12.522 m -6.731,6.484 14.69,0.445 m 16.384,-68.646 -38.954,-6.634 m -47.036,-10.579 -34.066,-0.028 m -25.84,-15.716 -9.658,-18.065 m 5.347,-16.714 20.351,-15.366 m 12.884,5.36 5.417,26.084 m 17.896,13.64 30.373,1.195 m -42.634,-68.405 27.52,-28.887 m 81.255,-78.784 -33.868,-3.451 m 33.113,-19.261 25.867,-15.158 m 40.869,-42.186 35.227,21.838 m -21.665,-86.187 -20.756,27.582 m 2.838,-52.179 12.645,-9.258 m 13.318,13.891 -4.664,-12.347 m -4.688,-24.334 -4.711,-36.322 m 4.836,-18.852 14.382,-1.381 m 14.055,0.267 13.73,1.917 m 11.56,-5.899 9.393,-13.713 m 8.18,3.446 6.968,20.606 m -32.838,28.646 2.401,-21.419 m -68.058,29.936 14.972,20.619 m -48.001,14.278 20.132,9.699 m -42.443,70.555 30.41,-2.91 m -30.421,5.924 30.39,3.119 m -74.811,23.539 18.633,35.908 m -132.426,-29.004 -20.564,18.135 m 3.105,23.858 26.773,29.58 m -11.145,-74.219 -24.224,12.841 m -24.165,-29.881 8.035,24.202 m -2.564,-48.056 18.976,-23.507 m -29.206,16.825 -1.484,-36.872 m 86.471,-21.899 -25.795,10.266 m 35.226,-0.284 -6.931,30.231 m 15.792,-27.234 -12.839,28.233 m 20.663,-60.544 19.297,-20.56 m -38.544,5.713 32.128,-10.662 m 25.936,-39.241 6.82,-21.28 m -68.643,-17.843 -30.781,24.668 m 17.426,-66.536 -11.561,0.265 m -7.426,-27.427 9.064,-10.489 m -44.274,-34.648 4.829,3.231 m -54.71,0.441 5.245,-2.498 m -26.301,-13.762 12.289,11.673 m -13.224,14.21 -38.736,16.748 m -22.858,-2.088 -6.978,-20.925 m 3.875,-10.481 14.729,-0.037 m 16.713,-3.748 18.697,-7.458 m -3.834,-24.891 8.788,14.107 m -113.544,-34.164 0.296,-19.9539 m 9.44,-18.7675 18.584,-17.5811 m 17.938,-19.16 17.291,-20.739 m -66.713,33.8419 2.405,21.6192 M 89.1014,33.5519 108.539,38.7852 M 298.06,253.448 284.12,264.383 m 37.714,-12.105 -11.203,-2.865 m -62.091,77.026 5.172,-32.889 m -9.296,55.638 -3.076,12.609 m 209.165,42.354 28.087,-2.486 M 330.281,723.486 302.299,699.429 m -75.914,43.306 13.605,17.361 m 20.811,19.476 -9.339,-7.197 m -7.745,44.761 -11.098,3.981 m -7.308,11.579 -3.517,19.179 m -27.423,-33.807 21.8,3.36 m -52.168,-4.882 12.979,-0.105 m -34.728,-6.496 -30.518,-13.306 m -6.251,28.075 -6.0056,-23.152 M 81.6683,840.74 85.971,822.793 m 0.7888,23.564 14.4862,-6.712 m -22.3244,21.081 -1.1909,22.026 m -4.1168,1.677 -7.0427,-18.672 m 2.2115,29.507 -16.7051,2.999 m 7.7739,6.061 -34.5677,21.12 m 0.3435,4.202 35.2547,-12.716 m 38.5166,-5.78 -13.9262,-0.385 m 54.7876,-80.897 11.502,-8.847 m 36.864,74.043 31.99,24.582 m 12.485,28.025 2.34,-10.489 m 6.16,10.136 0.407,-10.739 m 14.268,-3.78 28.129,3.178 m 21.048,3.878 13.965,4.577 m -83.077,13.046 -10.114,9.581 m -38.707,-52.454 32.727,11.555 m 121.317,-85.288 -14.818,-30.675 m -15.801,-16.239 -16.785,-1.803 m 319.354,57.959 9.083,9.576 m -11.188,14.971 -31.46,20.367"
         id="path3843" />
      <path
         style="stroke:#f0c800;stroke-width:2.56750011"
         class="h"
         d="m 628.176,516.274 -3.195,-1.087 m -9.506,25.405 -2.609,-2.141 m -60.348,30.048 -0.733,-3.295 m -2.765,26.544 -0.93,3.245 m 35.308,20.228 -3.237,0.957 m -10.622,17.54 1.329,-3.102 m -46.199,11.653 -3.109,-1.313 m -5.138,64.534 -3.319,0.615 m 13.99,38.629 -3.305,0.685 m 20.343,18.795 -1.686,2.923 m -9.59,23.438 -0.914,-3.249 m 5.86,25.021 -1.701,2.915 m -15.952,59.407 3.012,-1.522 m 35.496,26.367 0.936,-3.243 m 56.063,-24.359 -0.822,-3.273 m 6.818,-9.946 -2.622,2.124 m -20.631,-14.797 -1.688,2.922 m -125.653,14.75 3.032,-1.483 m -22.991,-4.396 0.725,-3.297 m -7.217,-59.423 1.224,3.145 m -64.238,-19.913 1.869,-2.81 m -26.481,-49.595 2.636,2.107 m -55.302,-26.866 1.252,3.134 m -20.669,5.944 2.389,2.384 m -26.865,16.336 1.977,2.735 m -18.464,33.434 3.371,-0.157 m 2.15,5.857 3.3,-0.705 m -22.521,51.849 2.873,1.772 m -10.617,-1.343 -3.258,0.882 m -53.471,-6.751 1.155,3.171 m -31.331,-12.666 -0.134,3.373 m -18.079,25.197 -1.406,-3.068 m -8.463,38.534 -2.704,2.02 m -26.1558,-7.219 2.397,-2.376 m -6.6051,23.108 -3.1023,1.329 m -18.3523,-8.931 2.8799,1.76 m 30.6685,30.03 -1.6302,-2.955 m -60.0508,11.073 3.0415,-1.463 m -7.0208,13.913 2.8062,-1.875 m 41.4514,-96.242 2.5783,-2.178 m -18.0906,-39.524 2.9214,1.69 m 119.1247,106.699 3.027,1.492 m 24.635,27.836 3.367,0.242 m 24.305,36.83 3.367,-0.231 m -3.478,11.296 3.29,-0.75 m 36.216,18.119 2.261,-2.506 m 34.403,-53.192 -0.966,3.234 m 2.099,-16.988 -3.212,-1.037 m 42.466,-60.206 -3.047,-1.45 m -14.955,-55.132 -1.327,3.104 m 101.209,-148.159 -1.006,3.222 m 12.679,-34.692 3.03,-1.486 m -49.178,-25.454 -0.993,-3.226 m -29.368,-9.651 0.08,-3.374 m -57.705,-83.869 3.348,0.428 m -10.485,-68.193 3.342,0.47 m -21.239,-10.29 -0.13,-3.373 m -20.495,-7.313 1.103,-3.19 M 244,350.896 l 3.148,1.215 m 2.522,-32.86 3.256,0.891 m 14.723,-95.889 2.242,-2.522 m 58.026,13.29 -2.937,1.663 m 12.486,-17.457 2.971,-1.6 m 10.197,4.291 -3.212,-1.035 m 11.09,-21.957 -2.986,1.573 m 39.834,68.794 -2.96,-1.622 m 20.918,12.764 -0.03,3.375 m 41.003,21.004 -2.511,2.256 m -24.318,64.663 -3.309,0.667 m 54.383,29.27 0.631,3.315 m 74.912,9.104 -1.678,2.928 m 38.519,-9.778 -3.141,1.235 m 18.814,21.323 -2.406,2.366 m 3.721,-45.935 1.424,-3.06 m 38.74,-26.039 -1.399,-3.071 m 15.259,-28.895 -3.354,0.378 m -10.686,-16.301 1.741,2.891 m -38.688,12.731 -0.984,3.228 m -1.868,-15.81 -3.013,1.522 m -12.025,1.379 2.844,1.817 m -33.07,34.395 1.562,2.991 m -5.188,17.583 2.432,2.34 M 209.41,210.263 l 2.947,-1.645 m -29.809,-11.341 2.07,-2.666 m 32.902,-29.629 3.236,0.961 m 14.385,-18.858 3.269,0.839 m -6.316,-18.897 2.706,2.016 m -112.209,-14.146 3.32,0.604 m -4.807,-50.5166 1.471,-3.0378 M 94.3022,34.9521 97.6545,34.5615"
         id="path3845" />
    </g>
  </g>
</svg>
