<?xml version="1.0"?>
<svg width="675" height="1027" version="1.1" xmlns="http://www.w3.org/2000/svg" xmlns:xlink="http://www.w3.org/1999/xlink">
  <defs>
  <style type="text/css">
    <![CDATA[
      .b {stroke:rgb(0,0,0);stroke-width:2.567500;fill:none}
      .c {stroke:rgb(128,128,128);stroke-width:1.283750;stroke-dasharray:3.375000, 3.375000;}
      .h {stroke:rgb(240,200,0);stroke-width:2.567500;}
      .m {stroke:rgb(255,0,0);stroke-width:1.283750;}
      .n {stroke:rgb(128,128,128);stroke-width:1.283750}
      .t {stroke:rgb(0,128,0);stroke-width:1.283750;}
      .tab {stroke:rgb(0,0,255);stroke-width:0.641875;fill:none}
      .v {stroke:rgb(0,0,255);stroke-width:1.283750;}
      .z {stroke:rgb(0,240,200);stroke-width:0.641875;}
    ]]>
  </style>
  </defs>
  <path fill="none" class="b" d=" M 573.637 847.643 L 524.132 798.885 L 556.952 767.617 L 523.936 758.853 L 533.964 714.005 L 481.736 688.654 L 454.836 716.893 L 461.482 678.463 L 465.176 617.14 L 497.349 669.476 L 538.485 628.51 L 583.807 636.111 L 583.138 601.958 L 524.444 584.394 L 493.821 567.536 L 527.305 577.574 L 545.556 537.219 L 528.773 578.206 L 585.482 555.022 L 626.331 535.369 L 633.014 466.208 L 555.878 491.694 L 495.098 485.457 L 555.92 479.637 L 628.049 442.262 L 597.431 424.474 L 588.102 399.78 L 630.101 371.043 L 667.623 341.992 L 653.687 300.779 L 634.902 328.206 L 607.443 324.373 L 608.633 302.226 L 578.68 327.136 L 558.157 358.542 L 562.813 418.297 L 522.549 398.899 L 532.638 451.499 L 507.052 404.446 L 487.256 447.536 L 492.635 400.422 L 436.461 405.393 L 420.008 456.217 L 456.556 495.72 L 413.489 463.447 L 406.799 410.447 L 381.121 466.913 L 394.984 406.452 L 372.891 382.737 L 398.555 402.532 L 437.148 361.413 L 412.768 342.111 L 443.61 338.144 L 457.25 295.582 L 400.587 276.046 L 377.622 246.379 L 354.501 246.909 L 339.026 325.383 L 331.168 374.772 L 326.764 324.956 L 305.029 247.981 L 327.436 253.71 L 328.439 214.766 L 348.322 224.594 L 366.452 203.617 L 324.889 179.059 L 315.231 172.598 L 292.806 195.948 L 265.141 179.134 L 275.632 174.139 L 267.471 155.383 L 270.66 135.179 L 222.986 127.574 L 240.564 155.789 L 203.169 170.707 L 204.629 136.339 L 195.923 112.403 L 173.341 54.1642 L 158.818 74.1112 L 160.237 49.478 L 222.421 55.3752 L 221.322 29.9282 L 194.82 8 L 139.139 29.7271 L 79.3824 30.9353 L 118.258 41.4018 L 123.069 84.6402 L 122.477 124.548 L 168.349 125.219 L 173.712 170.781 L 187.668 212.63 L 263.507 204.374 L 277.151 269.85 L 286.121 329.229 L 256.297 277.106 L 245.955 342.883 L 239.801 368.102 L 275.391 363.009 L 242.376 377.241 L 265.219 436.401 L 295.858 411.895 L 343.395 426.985 L 335.795 441.778 L 343.309 426.941 L 294.873 415.048 L 297.842 488.792 L 313.912 537.194 L 362.361 511.511 L 321.233 547.78 L 374.78 606.942 L 408.348 600.845 L 414.116 554.138 L 420.856 600.714 L 456.707 577.492 L 433.7 613.482 L 440.015 647.01 L 384.974 704.784 L 344.272 735.514 L 288.308 687.4 L 282.512 726.203 L 219.583 734.054 L 246.792 768.776 L 265.471 783.171 L 285.181 763.2 L 285.767 791.253 L 279.696 837.527 L 308.38 847.391 L 278.347 851.648 L 249.267 815.145 L 227.07 823.107 L 183.471 816.389 L 157.513 816.598 L 96.4765 789.986 L 88.1223 813.819 L 96.1605 789.878 L 29.3205 792.269 L 79.517 849.714 L 77.1353 893.765 L 63.0498 856.421 L 43.725 899.762 L 8 936.003 L 78.5093 910.573 L 106.362 911.342 L 108.488 836.289 L 134.508 834.291 L 172.799 835.848 L 169.606 874.036 L 220.035 861.465 L 172.631 882.772 L 171.156 908.827 L 231.932 952.915 L 236.61 931.938 L 235.724 903.205 L 242.211 931.21 L 241.398 952.688 L 221.17 971.849 L 247.011 996.943 L 284.037 992.783 L 296.327 961.574 L 326.401 946.721 L 298.47 937.566 L 311.744 909.114 L 348.973 856.209 L 319.337 794.86 L 323.228 748.496 L 363.589 771.643 L 395.809 756.952 L 367.566 778.313 L 435.698 778.369 L 456.556 759.343 L 446.224 785.617 L 435.333 849.385 L 463.021 864.186 L 457.567 828.394 L 466.236 863.546 L 495.616 864.436 L 522.54 838.502 L 502.929 870.328 L 539.057 879.437 L 564.218 905.212 L 627.139 864.477 L 608.972 845.326 L 573.637 847.643" />
  <path class="c" d=" M 524.132 798.885 L 522.54 838.502 M 522.54 838.502 L 573.637 847.643 M 573.637 847.643 L 564.218 905.212 M 539.057 879.437 L 573.637 847.643 M 608.972 845.326 L 564.218 905.212 M 502.929 870.328 L 573.637 847.643 M 522.54 838.502 L 466.236 863.546 M 457.567 828.394 L 522.54 838.502 M 524.132 798.885 L 457.567 828.394 M 457.567 828.394 L 435.333 849.385 M 446.224 785.617 L 457.567 828.394 M 435.698 778.369 L 395.809 756.952 M 395.809 756.952 L 456.556 759.343 M 456.556 759.343 L 523.936 758.853 M 524.132 798.885 L 446.224 785.617 M 454.836 716.893 L 456.556 759.343 M 454.836 716.893 L 395.809 756.952 M 363.589 771.643 L 344.272 735.514 M 344.272 735.514 L 323.228 748.496 M 323.228 748.496 L 285.181 763.2 M 285.181 763.2 L 246.792 768.776 M 285.181 763.2 L 219.583 734.054 M 282.512 726.203 L 323.228 748.496 M 323.228 748.496 L 288.308 687.4 M 344.272 735.514 L 395.809 756.952 M 384.974 704.784 L 395.809 756.952 M 319.337 794.86 L 308.38 847.391 M 308.38 847.391 L 311.744 909.114 M 311.744 909.114 L 235.724 903.205 M 235.724 903.205 L 172.631 882.772 M 172.631 882.772 L 236.61 931.938 M 242.211 931.21 L 298.47 937.566 M 298.47 937.566 L 235.724 903.205 M 235.724 903.205 L 220.035 861.465 M 220.035 861.465 L 172.799 835.848 M 172.799 835.848 L 157.513 816.598 M 183.471 816.389 L 172.799 835.848 M 134.508 834.291 L 157.513 816.598 M 108.488 836.289 L 88.1223 813.819 M 88.1223 813.819 L 29.3205 792.269 M 96.4765 789.986 L 134.508 834.291 M 108.488 836.289 L 96.4765 789.986 M 108.488 836.289 L 77.1353 893.765 M 77.1353 893.765 L 106.362 911.342 M 78.5093 910.573 L 77.1353 893.765 M 77.1353 893.765 L 8 936.003 M 77.1353 893.765 L 43.725 899.762 M 79.517 849.714 L 88.1223 813.819 M 79.517 849.714 L 108.488 836.289 M 171.156 908.827 L 236.61 931.938 M 241.398 952.688 L 296.327 961.574 M 296.327 961.574 L 242.211 931.21 M 221.17 971.849 L 296.327 961.574 M 296.327 961.574 L 298.47 937.566 M 311.744 909.114 L 220.035 861.465 M 227.07 823.107 L 220.035 861.465 M 227.07 823.107 L 172.799 835.848 M 278.347 851.648 L 220.035 861.465 M 278.347 851.648 L 227.07 823.107 M 285.181 763.2 L 282.512 726.203 M 319.337 794.86 L 285.767 791.253 M 319.337 794.86 L 285.181 763.2 M 308.38 847.391 L 285.767 791.253 M 348.973 856.209 L 308.38 847.391 M 311.744 909.114 L 278.347 851.648 M 247.011 996.943 L 296.327 961.574 M 524.132 798.885 L 456.556 759.343 M 524.132 798.885 L 523.936 758.853 M 533.964 714.005 L 456.556 759.343 M 533.964 714.005 L 454.836 716.893 M 440.015 647.01 L 465.176 617.14 M 465.176 617.14 L 524.444 584.394 M 524.444 584.394 L 456.707 577.492 M 456.707 577.492 L 465.176 617.14 M 465.176 617.14 L 538.485 628.51 M 538.485 628.51 L 524.444 584.394 M 493.821 567.536 L 456.707 577.492 M 456.707 577.492 L 414.116 554.138 M 414.116 554.138 L 456.556 495.72 M 456.556 495.72 L 487.256 447.536 M 487.256 447.536 L 420.008 456.217 M 413.489 463.447 L 414.116 554.138 M 433.7 613.482 L 465.176 617.14 M 440.015 647.01 L 461.482 678.463 M 440.015 647.01 L 454.836 716.893 M 440.015 647.01 L 395.809 756.952 M 493.821 567.536 L 545.556 537.219 M 545.556 537.219 L 585.482 555.022 M 583.138 601.958 L 538.485 628.51 M 555.878 491.694 L 626.331 535.369 M 555.878 491.694 L 585.482 555.022 M 555.878 491.694 L 545.556 537.219 M 495.098 485.457 L 532.638 451.499 M 532.638 451.499 L 555.92 479.637 M 495.098 485.457 L 545.556 537.219 M 495.098 485.457 L 493.821 567.536 M 456.556 495.72 L 495.098 485.457 M 487.256 447.536 L 532.638 451.499 M 562.813 418.297 L 588.102 399.78 M 588.102 399.78 L 578.68 327.136 M 578.68 327.136 L 607.443 324.373 M 634.902 328.206 L 667.623 341.992 M 630.101 371.043 L 634.902 328.206 M 558.157 358.542 L 588.102 399.78 M 588.102 399.78 L 607.443 324.373 M 588.102 399.78 L 634.902 328.206 M 597.431 424.474 L 555.92 479.637 M 562.813 418.297 L 597.431 424.474 M 597.431 424.474 L 532.638 451.499 M 562.813 418.297 L 532.638 451.499 M 487.256 447.536 L 495.098 485.457 M 456.556 495.72 L 493.821 567.536 M 456.556 495.72 L 456.707 577.492 M 362.361 511.511 L 381.121 466.913 M 381.121 466.913 L 414.116 554.138 M 362.361 511.511 L 414.116 554.138 M 362.361 511.511 L 408.348 600.845 M 362.361 511.511 L 374.78 606.942 M 381.121 466.913 L 335.795 441.778 M 335.795 441.778 L 294.873 415.048 M 295.858 411.895 L 275.391 363.009 M 275.391 363.009 L 245.955 342.883 M 245.955 342.883 L 286.121 329.229 M 286.121 329.229 L 326.764 324.956 M 326.764 324.956 L 277.151 269.85 M 305.029 247.981 L 277.151 269.85 M 305.029 247.981 L 292.806 195.948 M 292.806 195.948 L 277.151 269.85 M 263.507 204.374 L 265.141 179.134 M 265.141 179.134 L 187.668 212.63 M 173.712 170.781 L 203.169 170.707 M 203.169 170.707 L 187.668 212.63 M 240.564 155.789 L 265.141 179.134 M 265.141 179.134 L 267.471 155.383 M 267.471 155.383 L 240.564 155.789 M 267.471 155.383 L 222.986 127.574 M 204.629 136.339 L 173.712 170.781 M 168.349 125.219 L 123.069 84.6402 M 123.069 84.6402 L 160.237 49.478 M 160.237 49.478 L 194.82 8 M 160.237 49.478 L 221.322 29.9282 M 139.139 29.7271 L 160.237 49.478 M 139.139 29.7271 L 123.069 84.6402 M 123.069 84.6402 L 158.818 74.1112 M 168.349 125.219 L 158.818 74.1112 M 168.349 125.219 L 195.923 112.403 M 195.923 112.403 L 158.818 74.1112 M 118.258 41.4018 L 139.139 29.7271 M 204.629 136.339 L 168.349 125.219 M 265.141 179.134 L 203.169 170.707 M 292.806 195.948 L 263.507 204.374 M 328.439 214.766 L 305.029 247.981 M 328.439 214.766 L 292.806 195.948 M 324.889 179.059 L 292.806 195.948 M 328.439 214.766 L 324.889 179.059 M 366.452 203.617 L 328.439 214.766 M 400.587 276.046 L 339.026 325.383 M 339.026 325.383 L 372.891 382.737 M 372.891 382.737 L 331.168 374.772 M 331.168 374.772 L 286.121 329.229 M 275.391 363.009 L 286.121 329.229 M 275.391 363.009 L 331.168 374.772 M 331.168 374.772 L 343.395 426.985 M 343.395 426.985 L 372.891 382.737 M 372.891 382.737 L 412.768 342.111 M 412.768 342.111 L 339.026 325.383 M 372.891 382.737 L 437.148 361.413 M 412.768 342.111 L 400.587 276.046 M 400.587 276.046 L 354.501 246.909 M 412.768 342.111 L 457.25 295.582 M 436.461 405.393 L 487.256 447.536 M 413.489 463.447 L 381.121 466.913 M 335.795 441.778 L 362.361 511.511 M 297.842 488.792 L 335.795 441.778 M 343.395 426.985 L 381.121 466.913 M 394.984 406.452 L 343.395 426.985 M 295.858 411.895 L 331.168 374.772 M 265.219 436.401 L 275.391 363.009 M 297.842 488.792 L 362.361 511.511" />
  <path class="z" fill="none" d=" M 502.929 870.328 L 522.54 838.502 L 495.616 864.436 M 502.929 870.328 L 522.54 838.502 L 495.616 864.436 M 466.236 863.546 L 457.567 828.394 L 463.021 864.186 M 466.236 863.546 L 457.567 828.394 L 463.021 864.186 M 446.224 785.617 L 456.556 759.343 L 435.698 778.369 M 446.224 785.617 L 456.556 759.343 L 435.698 778.369 M 367.566 778.313 L 395.809 756.952 L 363.589 771.643 M 367.566 778.313 L 395.809 756.952 L 363.589 771.643 M 363.589 771.643 L 323.228 748.496 L 319.337 794.86 M 363.589 771.643 L 323.228 748.496 L 319.337 794.86 M 326.401 946.721 L 296.327 961.574 L 284.037 992.783 M 326.401 946.721 L 296.327 961.574 L 284.037 992.783 M 241.398 952.688 L 242.211 931.21 L 235.724 903.205 L 236.61 931.938 L 231.932 952.915 M 241.398 952.688 L 242.211 931.21 L 235.724 903.205 L 236.61 931.938 L 231.932 952.915 M 172.631 882.772 L 220.035 861.465 L 169.606 874.036 M 172.631 882.772 L 220.035 861.465 L 169.606 874.036 M 169.606 874.036 L 172.799 835.848 L 134.508 834.291 M 169.606 874.036 L 172.799 835.848 L 134.508 834.291 M 96.1605 789.878 L 88.1223 813.819 L 96.4765 789.986 M 96.1605 789.878 L 88.1223 813.819 L 96.4765 789.986 M 249.267 815.145 L 278.347 851.648 L 308.38 847.391 L 279.696 837.527 L 285.767 791.253 M 249.267 815.145 L 278.347 851.648 L 308.38 847.391 L 279.696 837.527 L 285.767 791.253 M 285.767 791.253 L 285.181 763.2 L 265.471 783.171 M 285.767 791.253 L 285.181 763.2 L 265.471 783.171 M 433.7 613.482 L 456.707 577.492 L 420.856 600.714 M 433.7 613.482 L 456.707 577.492 L 420.856 600.714 M 420.856 600.714 L 414.116 554.138 L 408.348 600.845 M 420.856 600.714 L 414.116 554.138 L 408.348 600.845 M 321.233 547.78 L 362.361 511.511 L 313.912 537.194 M 321.233 547.78 L 362.361 511.511 L 313.912 537.194 M 294.873 415.048 L 343.309 426.941 L 335.795 441.778 L 343.395 426.985 L 295.858 411.895 M 294.873 415.048 L 343.309 426.941 L 335.795 441.778 L 343.395 426.985 L 295.858 411.895 M 242.376 377.241 L 275.391 363.009 L 239.801 368.102 M 242.376 377.241 L 275.391 363.009 L 239.801 368.102 M 256.297 277.106 L 286.121 329.229 L 277.151 269.85 M 256.297 277.106 L 286.121 329.229 L 277.151 269.85 M 173.712 170.781 L 168.349 125.219 L 122.477 124.548 M 173.712 170.781 L 168.349 125.219 L 122.477 124.548 M 79.3824 30.9353 L 139.139 29.7271 L 194.82 8 M 79.3824 30.9353 L 139.139 29.7271 L 194.82 8 M 194.82 8 L 221.322 29.9282 L 222.421 55.3752 L 160.237 49.478 L 158.818 74.1112 L 173.341 54.1642 L 195.923 112.403 L 204.629 136.339 L 203.169 170.707 M 194.82 8 L 221.322 29.9282 L 222.421 55.3752 L 160.237 49.478 L 158.818 74.1112 L 173.341 54.1642 L 195.923 112.403 L 204.629 136.339 L 203.169 170.707 M 270.66 135.179 L 267.471 155.383 L 275.632 174.139 M 270.66 135.179 L 267.471 155.383 L 275.632 174.139 M 275.632 174.139 L 265.141 179.134 L 292.806 195.948 L 315.231 172.598 L 324.889 179.059 M 275.632 174.139 L 265.141 179.134 L 292.806 195.948 L 315.231 172.598 L 324.889 179.059 M 327.436 253.71 L 305.029 247.981 L 326.764 324.956 L 331.168 374.772 L 339.026 325.383 L 354.501 246.909 L 377.622 246.379 M 327.436 253.71 L 305.029 247.981 L 326.764 324.956 L 331.168 374.772 L 339.026 325.383 L 354.501 246.909 L 377.622 246.379 M 443.61 338.144 L 412.768 342.111 L 437.148 361.413 M 443.61 338.144 L 412.768 342.111 L 437.148 361.413 M 398.555 402.532 L 372.891 382.737 L 394.984 406.452 M 398.555 402.532 L 372.891 382.737 L 394.984 406.452 M 394.984 406.452 L 381.121 466.913 L 406.799 410.447 M 394.984 406.452 L 381.121 466.913 L 406.799 410.447 M 406.799 410.447 L 413.489 463.447 L 456.556 495.72 L 420.008 456.217 L 436.461 405.393 M 406.799 410.447 L 413.489 463.447 L 456.556 495.72 L 420.008 456.217 L 436.461 405.393 M 492.635 400.422 L 487.256 447.536 L 507.052 404.446 M 492.635 400.422 L 487.256 447.536 L 507.052 404.446 M 507.052 404.446 L 532.638 451.499 L 522.549 398.899 M 507.052 404.446 L 532.638 451.499 L 522.549 398.899 M 628.049 442.262 L 555.92 479.637 L 495.098 485.457 L 555.878 491.694 L 633.014 466.208 M 628.049 442.262 L 555.92 479.637 L 495.098 485.457 L 555.878 491.694 L 633.014 466.208 M 528.773 578.206 L 545.556 537.219 L 527.305 577.574 M 528.773 578.206 L 545.556 537.219 L 527.305 577.574 M 527.305 577.574 L 493.821 567.536 L 524.444 584.394 M 527.305 577.574 L 493.821 567.536 L 524.444 584.394 M 497.349 669.476 L 465.176 617.14 L 461.482 678.463 M 497.349 669.476 L 465.176 617.14 L 461.482 678.463 M 461.482 678.463 L 454.836 716.893 L 481.736 688.654 M 461.482 678.463 L 454.836 716.893 L 481.736 688.654" />
  <path class="z" d=" M 520.853 836.814 L 524.228 836.814 L 524.228 840.189 L 520.853 840.189 L 520.853 836.814 M 520.853 836.814 L 524.228 836.814 L 524.228 840.189 L 520.853 840.189 L 520.853 836.814 M 455.879 826.707 L 459.254 826.707 L 459.254 830.082 L 455.879 830.082 L 455.879 826.707 M 455.879 826.707 L 459.254 826.707 L 459.254 830.082 L 455.879 830.082 L 455.879 826.707 M 454.868 757.656 L 458.243 757.656 L 458.243 761.031 L 454.868 761.031 L 454.868 757.656 M 454.868 757.656 L 458.243 757.656 L 458.243 761.031 L 454.868 761.031 L 454.868 757.656 M 394.121 755.265 L 397.496 755.265 L 397.496 758.64 L 394.121 758.64 L 394.121 755.265 M 394.121 755.265 L 397.496 755.265 L 397.496 758.64 L 394.121 758.64 L 394.121 755.265 M 321.54 746.808 L 324.915 746.808 L 324.915 750.183 L 321.54 750.183 L 321.54 746.808 M 321.54 746.808 L 324.915 746.808 L 324.915 750.183 L 321.54 750.183 L 321.54 746.808 M 294.64 959.886 L 298.015 959.886 L 298.015 963.261 L 294.64 963.261 L 294.64 959.886 M 294.64 959.886 L 298.015 959.886 L 298.015 963.261 L 294.64 963.261 L 294.64 959.886 M 234.037 901.517 L 237.412 901.517 L 237.412 904.892 L 234.037 904.892 L 234.037 901.517 M 234.037 901.517 L 237.412 901.517 L 237.412 904.892 L 234.037 904.892 L 234.037 901.517 M 218.347 859.777 L 221.722 859.777 L 221.722 863.152 L 218.347 863.152 L 218.347 859.777 M 218.347 859.777 L 221.722 859.777 L 221.722 863.152 L 218.347 863.152 L 218.347 859.777 M 171.111 834.16 L 174.486 834.16 L 174.486 837.535 L 171.111 837.535 L 171.111 834.16 M 171.111 834.16 L 174.486 834.16 L 174.486 837.535 L 171.111 837.535 L 171.111 834.16 M 86.4348 812.131 L 89.8098 812.131 L 89.8098 815.506 L 86.4348 815.506 L 86.4348 812.131 M 86.4348 812.131 L 89.8098 812.131 L 89.8098 815.506 L 86.4348 815.506 L 86.4348 812.131 M 306.692 845.704 L 310.067 845.704 L 310.067 849.079 L 306.692 849.079 L 306.692 845.704 M 306.692 845.704 L 310.067 845.704 L 310.067 849.079 L 306.692 849.079 L 306.692 845.704 M 283.493 761.513 L 286.868 761.513 L 286.868 764.888 L 283.493 764.888 L 283.493 761.513 M 283.493 761.513 L 286.868 761.513 L 286.868 764.888 L 283.493 764.888 L 283.493 761.513 M 455.02 575.804 L 458.395 575.804 L 458.395 579.179 L 455.02 579.179 L 455.02 575.804 M 455.02 575.804 L 458.395 575.804 L 458.395 579.179 L 455.02 579.179 L 455.02 575.804 M 412.428 552.451 L 415.803 552.451 L 415.803 555.826 L 412.428 555.826 L 412.428 552.451 M 412.428 552.451 L 415.803 552.451 L 415.803 555.826 L 412.428 555.826 L 412.428 552.451 M 360.673 509.824 L 364.048 509.824 L 364.048 513.199 L 360.673 513.199 L 360.673 509.824 M 360.673 509.824 L 364.048 509.824 L 364.048 513.199 L 360.673 513.199 L 360.673 509.824 M 334.107 440.09 L 337.482 440.09 L 337.482 443.465 L 334.107 443.465 L 334.107 440.09 M 334.107 440.09 L 337.482 440.09 L 337.482 443.465 L 334.107 443.465 L 334.107 440.09 M 273.704 361.321 L 277.079 361.321 L 277.079 364.696 L 273.704 364.696 L 273.704 361.321 M 273.704 361.321 L 277.079 361.321 L 277.079 364.696 L 273.704 364.696 L 273.704 361.321 M 284.434 327.541 L 287.809 327.541 L 287.809 330.916 L 284.434 330.916 L 284.434 327.541 M 284.434 327.541 L 287.809 327.541 L 287.809 330.916 L 284.434 330.916 L 284.434 327.541 M 166.661 123.532 L 170.036 123.532 L 170.036 126.907 L 166.661 126.907 L 166.661 123.532 M 166.661 123.532 L 170.036 123.532 L 170.036 126.907 L 166.661 126.907 L 166.661 123.532 M 137.452 28.0396 L 140.827 28.0396 L 140.827 31.4146 L 137.452 31.4146 L 137.452 28.0396 M 137.452 28.0396 L 140.827 28.0396 L 140.827 31.4146 L 137.452 31.4146 L 137.452 28.0396 M 157.131 72.4237 L 160.506 72.4237 L 160.506 75.7987 L 157.131 75.7987 L 157.131 72.4237 M 157.131 72.4237 L 160.506 72.4237 L 160.506 75.7987 L 157.131 75.7987 L 157.131 72.4237 M 265.784 153.695 L 269.159 153.695 L 269.159 157.07 L 265.784 157.07 L 265.784 153.695 M 265.784 153.695 L 269.159 153.695 L 269.159 157.07 L 265.784 157.07 L 265.784 153.695 M 291.119 194.261 L 294.494 194.261 L 294.494 197.636 L 291.119 197.636 L 291.119 194.261 M 291.119 194.261 L 294.494 194.261 L 294.494 197.636 L 291.119 197.636 L 291.119 194.261 M 329.481 373.085 L 332.856 373.085 L 332.856 376.46 L 329.481 376.46 L 329.481 373.085 M 329.481 373.085 L 332.856 373.085 L 332.856 376.46 L 329.481 376.46 L 329.481 373.085 M 411.08 340.423 L 414.455 340.423 L 414.455 343.798 L 411.08 343.798 L 411.08 340.423 M 411.08 340.423 L 414.455 340.423 L 414.455 343.798 L 411.08 343.798 L 411.08 340.423 M 371.204 381.049 L 374.579 381.049 L 374.579 384.424 L 371.204 384.424 L 371.204 381.049 M 371.204 381.049 L 374.579 381.049 L 374.579 384.424 L 371.204 384.424 L 371.204 381.049 M 379.433 465.226 L 382.808 465.226 L 382.808 468.601 L 379.433 468.601 L 379.433 465.226 M 379.433 465.226 L 382.808 465.226 L 382.808 468.601 L 379.433 468.601 L 379.433 465.226 M 454.868 494.033 L 458.243 494.033 L 458.243 497.408 L 454.868 497.408 L 454.868 494.033 M 454.868 494.033 L 458.243 494.033 L 458.243 497.408 L 454.868 497.408 L 454.868 494.033 M 485.568 445.849 L 488.943 445.849 L 488.943 449.224 L 485.568 449.224 L 485.568 445.849 M 485.568 445.849 L 488.943 445.849 L 488.943 449.224 L 485.568 449.224 L 485.568 445.849 M 530.95 449.812 L 534.325 449.812 L 534.325 453.187 L 530.95 453.187 L 530.95 449.812 M 530.95 449.812 L 534.325 449.812 L 534.325 453.187 L 530.95 453.187 L 530.95 449.812 M 493.411 483.769 L 496.786 483.769 L 496.786 487.144 L 493.411 487.144 L 493.411 483.769 M 493.411 483.769 L 496.786 483.769 L 496.786 487.144 L 493.411 487.144 L 493.411 483.769 M 543.868 535.532 L 547.243 535.532 L 547.243 538.907 L 543.868 538.907 L 543.868 535.532 M 543.868 535.532 L 547.243 535.532 L 547.243 538.907 L 543.868 538.907 L 543.868 535.532 M 492.134 565.849 L 495.509 565.849 L 495.509 569.224 L 492.134 569.224 L 492.134 565.849 M 492.134 565.849 L 495.509 565.849 L 495.509 569.224 L 492.134 569.224 L 492.134 565.849 M 463.489 615.452 L 466.864 615.452 L 466.864 618.827 L 463.489 618.827 L 463.489 615.452 M 463.489 615.452 L 466.864 615.452 L 466.864 618.827 L 463.489 618.827 L 463.489 615.452 M 453.148 715.205 L 456.523 715.205 L 456.523 718.58 L 453.148 718.58 L 453.148 715.205 M 453.148 715.205 L 456.523 715.205 L 456.523 718.58 L 453.148 718.58 L 453.148 715.205" />
  <path class="h" d=" M 520.606 864.656 L 555.96 853.314 M 508.464 844.763 L 480.312 857.285 M 473.581 863.769 L 488.271 864.214 M 504.655 795.568 L 465.701 788.934 M 418.665 778.355 L 384.599 778.327 M 358.759 762.611 L 349.101 744.546 M 354.448 727.832 L 374.799 712.466 M 387.683 717.826 L 393.1 743.91 M 410.996 757.55 L 441.369 758.745 M 398.735 690.34 L 426.255 661.453 M 507.51 582.669 L 473.642 579.218 M 506.755 559.957 L 532.622 544.799 M 573.491 502.613 L 608.718 524.451 M 587.053 438.264 L 566.297 465.846 M 569.135 413.667 L 581.78 404.409 M 595.098 418.3 L 590.434 405.953 M 585.746 381.619 L 581.035 345.297 M 585.871 326.445 L 600.253 325.064 M 614.308 325.331 L 628.038 327.248 M 639.598 321.349 L 648.991 307.636 M 657.171 311.082 L 664.139 331.688 M 631.301 360.334 L 633.702 338.915 M 565.644 368.851 L 580.616 389.47 M 532.615 403.748 L 552.747 413.447 M 510.304 484.002 L 540.714 481.092 M 510.293 487.016 L 540.683 490.135 M 465.872 513.674 L 484.505 549.582 M 352.079 520.578 L 331.515 538.713 M 334.62 562.571 L 361.393 592.151 M 350.248 517.932 L 326.024 530.773 M 301.859 500.892 L 309.894 525.094 M 307.33 477.038 L 326.306 453.531 M 297.1 470.356 L 295.616 433.484 M 382.087 411.585 L 356.292 421.851 M 391.518 421.567 L 384.587 451.798 M 400.379 424.564 L 387.54 452.797 M 408.203 392.253 L 427.5 371.693 M 388.956 377.406 L 421.084 366.744 M 447.02 327.503 L 453.84 306.223 M 385.197 288.38 L 354.416 313.048 M 371.842 246.512 L 360.281 246.777 M 352.855 219.35 L 361.919 208.861 M 317.645 174.213 L 322.474 177.444 M 267.764 177.885 L 273.009 175.387 M 246.708 161.625 L 258.997 173.298 M 245.773 187.508 L 207.037 204.256 M 184.179 202.168 L 177.201 181.243 M 181.076 170.762 L 195.805 170.725 M 212.518 166.977 L 231.215 159.519 M 227.381 134.628 L 236.169 148.735 M 122.625 114.571 L 122.921 94.6171 M 132.361 75.8496 L 150.945 58.2685 M 168.883 39.1085 L 186.174 18.3695 M 119.461 52.2114 L 121.866 73.8306 M 89.1014 33.5519 L 108.539 38.7852 M 298.06 253.448 L 284.12 264.383 M 321.834 252.278 L 310.631 249.413 M 248.54 326.439 L 253.712 293.55 M 244.416 349.188 L 241.34 361.797 M 450.505 404.151 L 478.592 401.665 M 330.281 723.486 L 302.299 699.429 M 226.385 742.735 L 239.99 760.096 M 260.801 779.572 L 251.462 772.375 M 243.717 817.136 L 232.619 821.117 M 225.311 832.696 L 221.794 851.875 M 194.371 818.068 L 216.171 821.428 M 164.003 816.546 L 176.982 816.441 M 142.254 809.945 L 111.736 796.639 M 105.485 824.714 L 99.4794 801.562 M 81.6683 840.74 L 85.971 822.793 M 86.7598 846.357 L 101.246 839.645 M 78.9216 860.726 L 77.7307 882.752 M 73.6139 884.429 L 66.5712 865.757 M 68.7827 895.264 L 52.0776 898.263 M 59.8515 904.324 L 25.2838 925.444 M 25.6273 929.646 L 60.882 916.93 M 99.3986 911.15 L 85.4724 910.765 M 140.26 829.868 L 151.762 821.021 M 188.626 895.064 L 220.616 919.646 M 233.101 947.671 L 235.441 937.182 M 241.601 947.318 L 242.008 936.579 M 256.276 932.799 L 284.405 935.977 M 305.453 939.855 L 319.418 944.432 M 236.341 957.478 L 226.227 967.059 M 187.52 914.605 L 220.247 926.16 M 341.564 840.872 L 326.746 810.197 M 310.945 793.958 L 294.16 792.155 M 613.514 850.114 L 622.597 859.69 M 611.409 874.661 L 579.949 895.028" />
  <path class="h" d=" M 628.176 516.274 L 624.981 515.187 M 615.475 540.592 L 612.866 538.451 M 552.518 568.499 L 551.785 565.204 M 549.02 591.748 L 548.09 594.993 M 583.398 615.221 L 580.161 616.178 M 569.539 633.718 L 570.868 630.616 M 524.669 642.269 L 521.56 640.956 M 516.422 705.49 L 513.103 706.105 M 527.093 744.734 L 523.788 745.419 M 544.131 764.214 L 542.445 767.137 M 532.855 790.575 L 531.941 787.326 M 537.801 812.347 L 536.1 815.262 M 520.148 874.669 L 523.16 873.147 M 558.656 899.514 L 559.592 896.271 M 615.655 871.912 L 614.833 868.639 M 621.651 858.693 L 619.029 860.817 M 598.398 846.02 L 596.71 848.942 M 471.057 863.692 L 474.089 862.209 M 451.098 857.813 L 451.823 854.516 M 444.606 795.093 L 445.83 798.238 M 381.592 778.325 L 383.461 775.515 M 356.98 725.92 L 359.616 728.027 M 304.314 701.161 L 305.566 704.295 M 284.897 710.239 L 287.286 712.623 M 260.421 728.959 L 262.398 731.694 M 243.934 765.128 L 247.305 764.971 M 249.455 770.828 L 252.755 770.123 M 230.234 821.972 L 233.107 823.744 M 222.49 822.401 L 219.232 823.283 M 165.761 816.532 L 166.916 819.703 M 135.585 807.037 L 135.451 810.41 M 117.372 835.607 L 115.966 832.539 M 107.503 871.073 L 104.799 873.093 M 78.6432 865.874 L 81.0402 863.498 M 74.4351 886.606 L 71.3328 887.935 M 52.9805 879.004 L 55.8604 880.764 M 86.5289 910.794 L 84.8987 907.839 M 24.8479 918.912 L 27.8894 917.449 M 20.8686 931.362 L 23.6748 929.487 M 65.1262 833.245 L 67.7045 831.067 M 49.6139 791.543 L 52.5353 793.233 M 171.66 899.932 L 174.687 901.424 M 199.322 929.26 L 202.689 929.502 M 226.994 966.332 L 230.361 966.101 M 226.883 977.397 L 230.173 976.647 M 266.389 994.766 L 268.65 992.26 M 303.053 939.068 L 302.087 942.302 M 304.186 925.314 L 300.974 924.277 M 343.44 864.071 L 340.393 862.621 M 325.438 807.489 L 324.111 810.593 M 425.32 662.434 L 424.314 665.656 M 436.993 630.964 L 440.023 629.478 M 390.845 604.024 L 389.852 600.798 M 360.484 591.147 L 360.564 587.773 M 302.859 503.904 L 306.207 504.332 M 295.722 436.139 L 299.064 436.609 M 277.825 426.319 L 277.695 422.946 M 257.2 415.633 L 258.303 412.443 M 244 350.896 L 247.148 352.111 M 249.67 319.251 L 252.926 320.142 M 267.649 224.253 L 269.891 221.731 M 327.917 235.021 L 324.98 236.684 M 337.466 219.227 L 340.437 217.627 M 350.634 221.918 L 347.422 220.883 M 358.512 198.926 L 355.526 200.499 M 395.36 269.293 L 392.4 267.671 M 413.318 280.435 L 413.288 283.81 M 454.291 304.814 L 451.78 307.07 M 427.462 371.733 L 424.153 372.4 M 478.536 401.67 L 479.167 404.985 M 554.079 414.089 L 552.401 417.017 M 590.92 407.239 L 587.779 408.474 M 606.593 429.797 L 604.187 432.163 M 607.908 386.228 L 609.332 383.168 M 648.072 357.129 L 646.673 354.058 M 661.932 325.163 L 658.578 325.541 M 647.892 309.24 L 649.633 312.131 M 610.945 324.862 L 609.961 328.09 M 608.093 312.28 L 605.08 313.802 M 593.055 315.181 L 595.899 316.998 M 562.829 351.393 L 564.391 354.384 M 559.203 371.967 L 561.635 374.307 M 209.41 210.263 L 212.357 208.618 M 182.548 197.277 L 184.618 194.611 M 217.52 164.982 L 220.756 165.943 M 235.141 147.085 L 238.41 147.924 M 232.094 129.027 L 234.8 131.043 M 122.591 116.897 L 125.911 117.501 M 121.104 66.9844 L 122.575 63.9466 M 94.3022 34.9521 L 97.6545 34.5615" />
</svg>
