####
#
# OBJ File Generated by Meshlab
#
####
# Object heart-215.obj
#
# Vertices: 109
# Faces: 214
#
####
vn -0.575628 0.506294 -0.642120
v -0.226507 -0.152351 -0.338425
vn -0.352080 0.481281 -0.802751
v -0.094501 0.025386 -0.282104
vn -0.734734 0.223354 -0.640530
v -0.301459 0.029368 -0.233794
vn -0.943714 0.123442 -0.306866
v -0.317502 -0.216446 -0.166820
vn -0.669506 0.281901 -0.687236
v -0.388264 0.093557 -0.081208
vn -0.868844 -0.151462 -0.471348
v -0.443992 -0.147842 0.003635
vn -0.925723 -0.059978 -0.373415
v -0.427625 0.025489 0.016018
vn -0.988931 -0.092636 0.115906
v -0.503747 -0.108889 0.108902
vn -0.863160 -0.454010 0.220975
v -0.347609 -0.346262 0.021061
vn -0.824042 0.423711 0.376064
v -0.432138 0.041324 0.060480
vn -0.438236 0.738823 0.511947
v -0.205319 0.091919 0.288855
vn -0.254647 0.731248 0.632797
v 0.120865 0.151350 0.428845
vn -0.448273 0.546244 0.707580
v 0.011677 0.090613 0.402365
vn -0.429524 0.225102 0.874550
v -0.101663 -0.023899 0.448703
vn -0.692407 0.334183 0.639449
v -0.403735 -0.055296 0.241939
vn -0.497355 -0.334853 0.800320
v -0.286896 -0.225970 0.337915
vn -0.435506 -0.792098 0.427687
v -0.328199 -0.319803 0.226149
vn -0.554330 -0.737571 0.385625
v -0.061705 -0.343786 0.206267
vn -0.488135 -0.589959 0.643174
v -0.060987 -0.279153 0.362220
vn -0.259538 -0.312430 0.913798
v -0.007875 -0.192822 0.422451
vn -0.576771 -0.384186 0.720927
v 0.003342 -0.386425 0.425757
vn 0.177552 -0.453849 0.873210
v 0.187079 -0.388266 0.450976
vn 0.151549 -0.135785 0.979079
v 0.171773 -0.071822 0.464115
vn 0.037012 0.459858 0.887221
v 0.194163 0.302380 0.361183
vn 0.196292 -0.125528 0.972477
v 0.148955 0.004626 0.541241
vn 0.284059 0.698604 0.656706
v 0.205472 0.145236 0.525537
vn 0.557710 0.207503 0.803681
v 0.206376 0.032532 0.441529
vn 0.583816 0.501888 0.638175
v 0.288155 0.355089 0.278707
vn 0.343351 -0.000566 0.939207
v 0.350828 -0.056115 0.461419
vn 0.557204 -0.615882 0.556968
v 0.353298 -0.309252 0.383087
vn -0.097442 -0.987253 0.125841
v 0.081836 -0.509750 0.283543
vn -0.109711 -0.854130 0.508356
v 0.097654 -0.466873 0.168670
vn 0.337127 -0.716596 0.610603
v 0.398496 -0.458626 0.195018
vn 0.789876 -0.478771 0.383243
v 0.463229 -0.408020 0.182223
vn 0.829364 -0.142760 0.540162
v 0.533311 -0.165115 0.271536
vn 0.513994 0.333463 0.790324
v 0.411448 0.100035 0.403561
vn 0.986731 -0.138007 -0.085528
v 0.586281 -0.201255 0.069065
vn 0.875988 0.430148 -0.218216
v 0.539832 0.039110 -0.059265
vn 0.889284 0.419032 0.183262
v 0.521795 0.081615 0.232572
vn 0.880442 0.378720 -0.285295
v 0.309998 0.408467 0.141747
vn 0.301925 0.786080 -0.539370
v 0.327079 0.239861 -0.071801
vn -0.002099 0.513007 -0.858382
v 0.268644 0.113364 -0.246933
vn 0.723409 0.204821 -0.659339
v 0.514016 -0.037712 -0.177032
vn -0.332321 0.756450 0.563335
v 0.133845 0.673711 0.073081
vn -0.755345 0.402305 0.517305
v 0.084426 0.268219 0.179071
vn -0.358848 0.603580 0.711983
v 0.161413 0.641568 0.192244
vn -0.402150 0.548936 0.732765
v 0.147928 0.359065 0.326639
vn -0.533848 0.619245 0.575796
v 0.061621 0.234578 0.333463
vn 0.419809 0.850067 -0.318034
v 0.107748 0.118147 -0.259484
vn -0.120388 0.732301 -0.670255
v -0.063806 0.173773 -0.240714
vn -0.413378 0.681253 -0.604163
v -0.247422 0.206260 -0.127766
vn -0.007809 0.787301 -0.616519
v 0.028339 0.101948 -0.072676
vn -0.839029 0.498481 0.218055
v -0.491488 0.143386 0.041217
vn -0.473146 0.576990 0.665744
v -0.201637 0.107941 0.146066
vn -0.438942 0.766040 0.469587
v -0.223482 0.198182 0.091953
vn -0.725143 0.609996 0.319489
v -0.049675 0.285533 0.061171
vn 0.044160 0.992475 -0.114207
v -0.128076 0.244456 0.001592
vn 0.584262 0.144738 -0.798554
v 0.175790 0.430052 -0.022321
vn 0.498980 0.350660 -0.792501
v 0.252213 0.344037 0.065057
vn 0.676336 0.735724 0.035768
v 0.289765 0.673752 0.116570
vn 0.607467 0.064591 -0.791715
v 0.231577 0.524410 -0.005522
vn 0.337514 0.709421 -0.618714
v 0.139415 0.676926 0.015339
vn -0.208573 0.956562 0.203681
v -0.181554 0.656159 0.038581
vn -0.163345 0.863775 -0.476667
v -0.004936 0.595726 0.014913
vn -0.157950 0.848179 -0.505612
v 0.046966 0.719491 0.005295
vn 0.555914 0.830621 0.032059
v -0.051025 0.705180 0.000646
vn -0.822802 0.287463 -0.490267
v -0.239903 0.553931 0.001634
vn 0.333116 -0.271006 0.903100
v -0.171261 0.409078 0.242752
vn 0.119335 0.136129 0.983477
v -0.056782 0.429572 0.116042
vn 0.199417 0.760255 -0.618260
v 0.269393 0.011567 -0.279432
vn -0.237937 0.463448 -0.853582
v 0.199894 0.113378 -0.141431
vn -0.067161 -0.972122 0.224652
v -0.145965 0.307521 0.089911
vn -0.701141 -0.711130 -0.051909
v -0.306497 0.338051 0.130213
vn -0.780587 0.273937 0.561821
v -0.293658 0.444003 0.238492
vn -0.540060 -0.357174 -0.762077
v 0.026732 0.257464 -0.058185
vn 0.073614 0.234766 -0.969260
v 0.093108 0.372390 -0.100363
vn 0.126269 0.243950 -0.961532
v 0.098882 0.492530 -0.046147
vn -0.266448 -0.052961 -0.962393
v -0.120170 0.441624 -0.086532
vn -0.552965 -0.604362 -0.573564
v -0.098372 -0.832017 -0.517166
vn -0.899732 -0.262630 -0.348578
v -0.312705 -0.540775 -0.425857
vn 0.271576 -0.570502 -0.775096
v 0.095454 -0.784815 -0.553155
vn 0.282634 -0.076602 -0.956164
v 0.049878 -0.611972 -0.623598
vn 0.750764 -0.331762 -0.571216
v 0.389894 -0.535262 -0.418266
vn -0.723330 -0.639293 0.260957
v -0.346488 -0.629756 -0.131453
vn -0.876578 0.296201 -0.379310
v -0.327326 -0.319003 -0.387850
vn -0.084006 0.518398 -0.851003
v 0.122237 -0.151191 -0.474892
vn -0.426298 0.492157 -0.758981
v -0.207449 -0.265168 -0.496955
vn 0.735953 0.256339 -0.626629
v 0.441615 -0.086916 -0.214817
vn 0.990536 -0.106103 -0.087066
v 0.547482 -0.295290 -0.057088
vn 0.854016 0.155078 -0.496596
v 0.460211 -0.262014 -0.373600
vn 0.431419 0.560659 -0.706781
v 0.297796 -0.116241 -0.438807
vn 0.069468 0.356849 -0.931576
v -0.007564 -0.324024 -0.562974
vn 0.430116 0.141633 -0.891594
v 0.346328 -0.357573 -0.497638
vn -0.236631 -0.025557 -0.971263
v -0.094792 -0.514523 -0.634676
vn -0.710501 -0.021198 -0.703377
v -0.254884 -0.480139 -0.531997
vn 0.943252 -0.277519 -0.182369
v 0.513078 -0.452987 -0.181021
vn 0.800649 -0.585621 -0.126530
v 0.412340 -0.637315 -0.224701
vn 0.568585 -0.814014 -0.118711
v 0.198646 -0.830821 -0.338164
vn 0.021940 -0.994666 -0.100790
v -0.006760 -0.914026 -0.417245
vn -0.713491 -0.700647 -0.005010
v -0.262085 -0.706054 -0.289823
vn 0.528855 -0.799275 0.285432
v 0.335054 -0.708677 -0.111649
vn 0.772638 -0.571756 0.275910
v 0.463390 -0.547885 -0.017981
vn 0.026458 -0.853699 0.520095
v 0.166596 -0.769807 -0.116179
vn -0.439498 -0.822199 0.361704
v -0.102146 -0.858529 -0.342932
vn -0.266523 -0.804993 0.530049
v -0.167137 -0.730888 -0.211244
vn 0.129546 -0.762134 0.634326
v 0.274980 -0.655189 0.020289
vn -0.982013 -0.047051 0.182857
v -0.400299 -0.431159 -0.078652
vn -0.362107 -0.548976 0.753329
v -0.177983 -0.451693 0.127627
vn -0.197316 -0.730480 0.653809
v -0.010746 -0.591239 -0.025775
# 109 vertices, 0 vertices normals

f 1//1 3//3 2//2
f 2//2 3//3 5//5
f 3//3 1//1 4//4
f 4//4 6//6 3//3
f 4//4 9//9 6//6
f 5//5 3//3 7//7
f 6//6 7//7 3//3
f 8//8 7//7 6//6
f 17//17 8//8 9//9
f 8//8 6//6 9//9
f 10//10 7//7 8//8
f 10//10 11//11 54//54
f 15//15 10//10 8//8
f 11//11 10//10 15//15
f 11//11 12//12 54//54
f 11//11 13//13 12//12
f 11//11 14//14 13//13
f 14//14 25//25 13//13
f 14//14 11//11 15//15
f 14//14 15//15 16//16
f 16//16 8//8 17//17
f 17//17 9//9 18//18
f 8//8 16//16 15//15
f 16//16 17//17 19//19
f 17//17 18//18 19//19
f 16//16 20//20 14//14
f 19//19 20//20 16//16
f 14//14 20//20 25//25
f 20//20 19//19 21//21
f 21//21 23//23 20//20
f 18//18 21//21 19//19
f 31//31 18//18 32//32
f 21//21 18//18 31//31
f 21//21 22//22 23//23
f 27//27 23//23 29//29
f 20//20 23//23 25//25
f 12//12 27//27 24//24
f 27//27 36//36 24//24
f 26//26 13//13 25//25
f 26//26 12//12 13//13
f 27//27 12//12 26//26
f 25//25 23//23 27//27
f 36//36 28//28 24//24
f 36//36 39//39 28//28
f 27//27 29//29 36//36
f 22//22 29//29 23//23
f 29//29 22//22 30//30
f 29//29 35//35 36//36
f 29//29 30//30 35//35
f 22//22 31//31 30//30
f 31//31 32//32 30//30
f 32//32 33//33 30//30
f 35//35 34//34 37//37
f 30//30 34//34 35//35
f 33//33 34//34 30//30
f 36//36 35//35 39//39
f 37//37 38//38 39//39
f 39//39 35//35 37//37
f 28//28 39//39 40//40
f 39//39 38//38 41//41
f 39//39 41//41 40//40
f 59//59 40//40 41//41
f 41//41 71//71 59//59
f 42//42 70//70 71//71
f 41//41 42//42 71//71
f 43//43 41//41 38//38
f 42//42 41//41 43//43
f 88//88 42//42 43//43
f 37//37 43//43 38//38
f 37//37 88//88 43//43
f 42//42 88//88 70//70
f 44//44 45//45 46//46
f 47//47 46//46 45//45
f 45//45 48//48 47//47
f 48//48 24//24 47//47
f 54//54 12//12 48//48
f 48//48 55//55 54//54
f 55//55 48//48 56//56
f 49//49 86//86 50//50
f 2//2 50//50 86//86
f 51//51 50//50 2//2
f 52//52 70//70 49//49
f 56//56 52//52 57//57
f 48//48 45//45 56//56
f 2//2 5//5 51//51
f 54//54 55//55 53//53
f 53//53 10//10 54//54
f 7//7 10//10 53//53
f 53//53 55//55 57//57
f 51//51 53//53 57//57
f 57//57 55//55 56//56
f 52//52 49//49 57//57
f 49//49 50//50 57//57
f 57//57 50//50 51//51
f 58//58 61//61 59//59
f 77//77 61//61 58//58
f 60//60 28//28 40//40
f 59//59 61//61 40//40
f 60//60 40//40 61//61
f 61//61 62//62 60//60
f 77//77 62//62 61//61
f 47//47 24//24 28//28
f 60//60 46//46 28//28
f 46//46 47//47 28//28
f 69//69 66//66 63//63
f 64//64 66//66 69//69
f 64//64 44//44 65//65
f 66//66 78//78 63//63
f 64//64 78//78 66//66
f 76//76 64//64 77//77
f 65//65 77//77 64//64
f 77//77 65//65 62//62
f 63//63 78//78 67//67
f 44//44 69//69 45//45
f 64//64 69//69 44//44
f 65//65 44//44 62//62
f 69//69 63//63 68//68
f 74//74 68//68 63//63
f 68//68 72//72 69//69
f 56//56 69//69 72//72
f 69//69 56//56 45//45
f 52//52 56//56 75//75
f 71//71 52//52 75//75
f 71//71 70//70 52//52
f 72//72 75//75 56//56
f 78//78 75//75 72//72
f 72//72 73//73 78//78
f 78//78 73//73 67//67
f 74//74 67//67 73//73
f 59//59 71//71 58//58
f 76//76 58//58 71//71
f 75//75 76//76 71//71
f 77//77 58//58 76//76
f 78//78 64//64 76//76
f 78//78 76//76 75//75
f 74//74 63//63 67//67
f 79//79 94//94 81//81
f 81//81 99//99 79//79
f 82//82 81//81 94//94
f 90//90 96//96 83//83
f 80//80 107//107 85//85
f 84//84 107//107 80//80
f 4//4 107//107 9//9
f 85//85 107//107 4//4
f 4//4 1//1 85//85
f 2//2 86//86 1//1
f 87//87 1//1 86//86
f 92//92 87//87 86//86
f 87//87 85//85 1//1
f 91//91 86//86 49//49
f 95//95 85//85 87//87
f 80//80 85//85 95//95
f 49//49 70//70 91//91
f 37//37 89//89 88//88
f 91//91 70//70 88//88
f 88//88 90//90 91//91
f 88//88 89//89 90//90
f 96//96 90//90 89//89
f 90//90 93//93 91//91
f 83//83 93//93 90//90
f 91//91 93//93 86//86
f 93//93 92//92 86//86
f 93//93 82//82 92//92
f 83//83 82//82 93//93
f 81//81 82//82 83//83
f 94//94 87//87 92//92
f 94//94 92//92 82//82
f 94//94 79//79 95//95
f 80//80 95//95 79//79
f 94//94 95//95 87//87
f 80//80 100//100 84//84
f 100//100 80//80 79//79
f 96//96 102//102 97//97
f 98//98 83//83 97//97
f 97//97 101//101 98//98
f 99//99 104//104 79//79
f 100//100 79//79 104//104
f 99//99 81//81 98//98
f 83//83 98//98 81//81
f 97//97 83//83 96//96
f 101//101 97//97 102//102
f 101//101 102//102 106//106
f 106//106 102//102 33//33
f 106//106 103//103 101//101
f 101//101 103//103 98//98
f 99//99 98//98 103//103
f 100//100 104//104 105//105
f 100//100 105//105 84//84
f 102//102 96//96 89//89
f 104//104 99//99 103//103
f 34//34 102//102 89//89
f 102//102 34//34 33//33
f 103//103 109//109 104//104
f 105//105 104//104 109//109
f 84//84 108//108 107//107
f 105//105 108//108 84//84
f 105//105 109//109 108//108
f 34//34 89//89 37//37
f 106//106 33//33 32//32
f 32//32 109//109 106//106
f 106//106 109//109 103//103
f 108//108 109//109 32//32
f 32//32 18//18 108//108
f 18//18 9//9 108//108
f 107//107 108//108 9//9
f 22//22 21//21 31//31
f 12//12 24//24 48//48
f 26//26 25//25 27//27
f 62//62 44//44 60//60
f 44//44 46//46 60//60
f 53//53 51//51 5//5
f 5//5 7//7 53//53
f 72//72 68//68 73//73
f 68//68 74//74 73//73
# 214 faces, 0 coords texture

# End of File
