<?xml version="1.0"?>
<svg width="2052" height="4600" version="1.1" xmlns="http://www.w3.org/2000/svg" xmlns:xlink="http://www.w3.org/1999/xlink">
  <defs>
  <style type="text/css">
    <![CDATA[
      .b {stroke:rgb(0,0,0);stroke-width:11.500000;fill:none}
      .c {stroke:rgb(128,128,128);stroke-width:5.750000;stroke-dasharray:10.260000, 10.260000;}
      .h {stroke:rgb(240,200,0);stroke-width:11.500000;}
      .m {stroke:rgb(255,0,0);stroke-width:5.750000;}
      .n {stroke:rgb(128,128,128);stroke-width:5.750000}
      .t {stroke:rgb(0,128,0);stroke-width:5.750000;}
      .tab {stroke:rgb(0,0,255);stroke-width:2.875000;fill:none}
      .v {stroke:rgb(0,0,255);stroke-width:5.750000;}
      .z {stroke:rgb(0,240,200);stroke-width:2.875000;}
    ]]>
  </style>
  </defs>
  <path fill="none" class="b" d=" M 383.691 588.19 L 215.761 460.85 L 138.578 471.228 L 181.059 617.434 L 261.925 714.833 L 365.948 898.338 L 512.908 1000.47 L 579.983 932.549 L 679.264 741.049 L 590.797 937.778 L 708.13 828.65 L 613.649 958.069 L 566.791 1041.24 L 713.12 1158.39 L 716.642 1102.34 L 852.295 1109.96 L 994.8 1028.53 L 1034.17 894.087 L 1097.28 1019.16 L 1214.35 1134.19 L 1295.39 1243.24 L 1346.67 1220.35 L 1291.22 1093.86 L 1352.94 1217.41 L 1287.85 1393.2 L 1233.52 1563.72 L 1226.93 1774.72 L 1231.53 1808.75 L 1220.35 1776.28 L 1176.26 1569.84 L 1068.8 1751.35 L 1130.41 1843.57 L 1143.9 1867.28 L 1128.01 1845.11 L 1056.12 1760.66 L 1018.84 1881.64 L 1050.39 1925.78 L 1018.75 1881.7 L 911.608 1989.87 L 956.358 2081.56 L 1020.29 2173.59 L 951.52 2085.12 L 785.079 2223.7 L 982.466 2184.47 L 788.288 2237.34 L 599.086 2267.38 L 813.127 2377.35 L 846.487 2553.96 L 868.945 2666.54 L 920.438 2872.62 L 1181.47 2817.58 L 1225.79 2791.27 L 1192.72 2830.8 L 1345.83 3014.75 L 1149.26 2878.23 L 1043.11 3122.97 L 1243.67 3192.67 L 1371.91 3298.74 L 1234.1 3205.45 L 1316.32 3448.2 L 1208.33 3215.77 L 1148.23 3424.57 L 1192.46 3211.84 L 980.489 3199.52 L 769.808 3172.43 L 655.408 3162.92 L 475.676 3163.12 L 329.268 3354.1 L 462.394 3359.58 L 635.721 3376.27 L 757.312 3384.53 L 961.191 3417.06 L 950.436 3667.73 L 1078.94 3677.07 L 955.378 3713.57 L 789.276 3831.79 L 727.609 3894.47 L 775.783 3820.91 L 899.483 3658.85 L 701.605 3504.59 L 568.56 3662.46 L 510.291 3769.5 L 442.223 3929.77 L 398.879 4055.76 L 217.448 3994.27 L 8 4049.38 L 17.2103 4150.99 L 161.11 4138.38 L 333.112 4220.47 L 159.799 4141.18 L 20.3154 4178.74 L 31.4077 4255.82 L 210.598 4291 L 288.577 4329 L 495.983 4424.91 L 628.364 4499.04 L 666.311 4430.01 L 556.09 4309.82 L 610.155 4175.38 L 646.89 4072.74 L 620.659 4178.56 L 602.552 4322.32 L 742.16 4192.47 L 610.125 4330.01 L 748.719 4415.95 L 810.953 4336.52 L 814.543 4141.12 L 930.34 4056.15 L 967.135 4028.43 L 932.987 4059.35 L 835.404 4164.74 L 887.694 4353.05 L 926.276 4303.38 L 892.112 4356.18 L 871.047 4454.87 L 886.857 4532.04 L 897.678 4558.53 L 1008.93 4553.85 L 1070.6 4474.42 L 1173.02 4285.19 L 1082.47 4480.37 L 1292.78 4459.87 L 1483.7 4400.56 L 1243.65 4275.12 L 1132.84 4235.98 L 1176.84 4157.52 L 1087.96 4000.07 L 1199.5 4142.37 L 1389.38 3774.95 L 1340.44 4185.63 L 1375.39 4191.69 L 1347.96 4214.17 L 1362.49 4302.95 L 1476.25 4273.48 L 1674.31 4458.23 L 1697.4 4267.41 L 1786.35 4419.39 L 1862.19 4357.74 L 2013.86 4394.52 L 2044.69 4338.08 L 1887.21 4167.48 L 1709.13 4187.31 L 1859.55 4089.95 L 1761.1 4078.72 L 1711.81 4100.55 L 1710.36 4046.66 L 1465.23 4209.97 L 1596.46 3946.26 L 1547.1 3872.82 L 1633.04 3893.9 L 1704.18 3824.93 L 1635.46 3580.97 L 1591.58 3583.35 L 1494.65 3527.92 L 1239.17 3701.51 L 1467.06 3493.02 L 1576.46 3515.36 L 1605.53 3482.4 L 1519.71 3322.6 L 1651.02 3447.73 L 1900.39 3493.06 L 1922.06 3261.91 L 1862.92 3278.21 L 1885.38 3056.67 L 1819.98 3061.93 L 1682.41 3295.32 L 1811.64 3057.21 L 1876.85 3049.91 L 1941.39 2994.68 L 1871.6 3002.48 L 1807.59 3005.11 L 1645.73 3066.81 L 1440.89 3050.7 L 1594.07 2913.75 L 1663.08 2754.87 L 1527.88 2864.39 L 1373.47 2959.9 L 1458.75 2799.61 L 1524.9 2638.68 L 1304.09 2622.56 L 1195.47 2596.25 L 1155.26 2586.17 L 1196.7 2585.19 L 1125.85 2495.93 L 1209.9 2572.89 L 1313.46 2530.85 L 1167.17 2471.68 L 1318.02 2517.99 L 1500.64 2392.82 L 1475.16 2334.05 L 1442.64 2271.8 L 1284.76 2338.29 L 1301.91 2406.26 L 1125.71 2339.49 L 1059.77 2330.07 L 1126.28 2326.5 L 1307.37 2274.42 L 1255.96 2226.76 L 1133.56 2068.9 L 1231.55 1996.89 L 1135.04 2070.87 L 1258.32 2228.04 L 1356.46 2087.62 L 1295.52 1964.34 L 1372.62 2078.22 L 1456.51 2064.83 L 1400.1 2029.82 L 1458.16 2062.02 L 1581.68 1876.74 L 1521.29 1865.97 L 1459.22 1849.1 L 1373.53 1900.53 L 1454.8 1842.36 L 1439.68 1687.02 L 1362.32 1627.28 L 1320.36 1733.74 L 1353.53 1624.22 L 1480.76 1502.48 L 1309.98 1414.27 L 1385.88 1229.32 L 1360.61 1161.82 L 1404.83 1218.74 L 1585.2 1108.68 L 1613.81 1012.26 L 1522.38 1070.32 L 1455.58 1020.98 L 1402.93 935.775 L 1466.81 1012.91 L 1538.23 1055.31 L 1615.66 979.583 L 1711.27 922.527 L 1732.44 941.781 L 1852.46 848.959 L 1824.29 825.032 L 1733.03 746.129 L 1621.82 848.693 L 1558.99 813.439 L 1563.16 650.174 L 1404.07 887.484 L 1196.46 881.314 L 1159.59 867.588 L 1144.56 949.171 L 1126.57 868.19 L 993.829 775.087 L 894.961 674.547 L 1006.57 760.728 L 1168.43 751.288 L 1191.57 719.465 L 1229.63 515.28 L 1114.32 573.28 L 1066.87 649.58 L 1099.56 565.887 L 1189.07 472.889 L 926.562 360.133 L 1074.98 291.989 L 1061.97 221.133 L 911.94 201.673 L 710.185 363.884 L 871.303 161.255 L 843.127 43.9544 L 834.549 8 L 607.198 30.942 L 520.748 38.1067 L 614.267 68.4712 L 639.693 194.943 L 590.56 75.6637 L 492.776 65.3598 L 335.37 157.934 L 382.288 211.566 L 315.723 186.132 L 401.645 378.573 L 405.992 545.862 L 651.61 439.497 L 969.319 567.067 L 630.744 516.27 L 470.941 730.99 L 383.691 588.19" />
  <path class="c" d=" M 215.761 460.85 L 181.059 617.434 M 181.059 617.434 L 383.691 588.19 M 261.925 714.833 L 383.691 588.19 M 261.925 714.833 L 470.941 730.99 M 679.264 741.049 L 470.941 730.99 M 679.264 741.049 L 630.744 516.27 M 651.61 439.497 L 382.288 211.566 M 382.288 211.566 L 710.185 363.884 M 710.185 363.884 L 651.61 439.497 M 639.693 194.943 L 710.185 363.884 M 639.693 194.943 L 382.288 211.566 M 335.37 157.934 L 639.693 194.943 M 590.56 75.6637 L 335.37 157.934 M 401.645 378.573 L 382.288 211.566 M 401.645 378.573 L 651.61 439.497 M 926.562 360.133 L 969.319 567.067 M 969.319 567.067 L 894.961 674.547 M 894.961 674.547 L 630.744 516.27 M 679.264 741.049 L 894.961 674.547 M 894.961 674.547 L 1066.87 649.58 M 1066.87 649.58 L 1191.57 719.465 M 1191.57 719.465 L 1114.32 573.28 M 1099.56 565.887 L 926.562 360.133 M 926.562 360.133 L 710.185 363.884 M 926.562 360.133 L 911.94 201.673 M 911.94 201.673 L 1074.98 291.989 M 871.303 161.255 L 639.693 194.943 M 614.267 68.4712 L 871.303 161.255 M 843.127 43.9544 L 614.267 68.4712 M 607.198 30.942 L 843.127 43.9544 M 607.198 30.942 L 614.267 68.4712 M 969.319 567.067 L 1099.56 565.887 M 1066.87 649.58 L 1168.43 751.288 M 1126.57 868.19 L 1034.17 894.087 M 1034.17 894.087 L 993.829 775.087 M 1034.17 894.087 L 1144.56 949.171 M 1144.56 949.171 L 1097.28 1019.16 M 1144.56 949.171 L 1196.46 881.314 M 1144.56 949.171 L 1402.93 935.775 M 1402.93 935.775 L 1196.46 881.314 M 1404.07 887.484 L 1558.99 813.439 M 1621.82 848.693 L 1711.27 922.527 M 1711.27 922.527 L 1824.29 825.032 M 1824.29 825.032 L 1621.82 848.693 M 1615.66 979.583 L 1466.81 1012.91 M 1455.58 1020.98 L 1360.61 1161.82 M 1360.61 1161.82 L 1291.22 1093.86 M 1291.22 1093.86 L 1097.28 1019.16 M 1214.35 1134.19 L 1291.22 1093.86 M 1291.22 1093.86 L 1144.56 949.171 M 1291.22 1093.86 L 1455.58 1020.98 M 1522.38 1070.32 L 1404.83 1218.74 M 1385.88 1229.32 L 1352.94 1217.41 M 1352.94 1217.41 L 1360.61 1161.82 M 1360.61 1161.82 L 1522.38 1070.32 M 1585.2 1108.68 L 1522.38 1070.32 M 1615.66 979.583 L 1402.93 935.775 M 1402.93 935.775 L 1404.07 887.484 M 1402.93 935.775 L 1291.22 1093.86 M 1346.67 1220.35 L 1214.35 1134.19 M 1287.85 1393.2 L 1385.88 1229.32 M 1287.85 1393.2 L 1309.98 1414.27 M 1309.98 1414.27 L 1233.52 1563.72 M 1233.52 1563.72 L 1480.76 1502.48 M 1233.52 1563.72 L 1353.53 1624.22 M 1320.36 1733.74 L 1233.52 1563.72 M 1320.36 1733.74 L 1439.68 1687.02 M 1320.36 1733.74 L 1373.53 1900.53 M 1373.53 1900.53 L 1400.1 2029.82 M 1400.1 2029.82 L 1521.29 1865.97 M 1459.22 1849.1 L 1400.1 2029.82 M 1400.1 2029.82 L 1372.62 2078.22 M 1356.46 2087.62 L 1231.55 1996.89 M 1231.55 1996.89 L 1143.9 1867.28 M 1143.9 1867.28 L 1220.35 1776.28 M 1220.35 1776.28 L 1130.41 1843.57 M 1231.53 1808.75 L 1143.9 1867.28 M 1050.39 1925.78 L 1128.01 1845.11 M 1050.39 1925.78 L 1143.9 1867.28 M 1050.39 1925.78 L 1133.56 2068.9 M 1133.56 2068.9 L 1126.28 2326.5 M 1125.71 2339.49 L 1167.17 2471.68 M 1167.17 2471.68 L 1209.9 2572.89 M 1195.47 2596.25 L 1225.79 2791.27 M 1225.79 2791.27 L 1458.75 2799.61 M 1458.75 2799.61 L 1304.09 2622.56 M 1304.09 2622.56 L 1225.79 2791.27 M 1225.79 2791.27 L 1373.47 2959.9 M 1373.47 2959.9 L 1440.89 3050.7 M 1440.89 3050.7 L 1519.71 3322.6 M 1519.71 3322.6 L 1682.41 3295.32 M 1682.41 3295.32 L 1862.92 3278.21 M 1682.41 3295.32 L 1651.02 3447.73 M 1651.02 3447.73 L 1862.92 3278.21 M 1900.39 3493.06 L 1862.92 3278.21 M 1819.98 3061.93 L 1862.92 3278.21 M 1876.85 3049.91 L 1871.6 3002.48 M 1871.6 3002.48 L 1811.64 3057.21 M 1807.59 3005.11 L 1811.64 3057.21 M 1645.73 3066.81 L 1811.64 3057.21 M 1645.73 3066.81 L 1682.41 3295.32 M 1519.71 3322.6 L 1576.46 3515.36 M 1591.58 3583.35 L 1547.1 3872.82 M 1547.1 3872.82 L 1340.44 4185.63 M 1340.44 4185.63 L 1596.46 3946.26 M 1709.13 4187.31 L 1476.25 4273.48 M 1476.25 4273.48 L 1465.23 4209.97 M 1465.23 4209.97 L 1375.39 4191.69 M 1375.39 4191.69 L 1596.46 3946.26 M 1709.13 4187.31 L 1711.81 4100.55 M 1859.55 4089.95 L 1711.81 4100.55 M 1697.4 4267.41 L 1476.25 4273.48 M 1476.25 4273.48 L 1711.81 4100.55 M 1697.4 4267.41 L 1709.13 4187.31 M 1887.21 4167.48 L 1862.19 4357.74 M 1862.19 4357.74 L 1697.4 4267.41 M 1862.19 4357.74 L 1709.13 4187.31 M 1465.23 4209.97 L 1711.81 4100.55 M 1375.39 4191.69 L 1476.25 4273.48 M 1347.96 4214.17 L 1476.25 4273.48 M 1243.65 4275.12 L 1292.78 4459.87 M 1243.65 4275.12 L 1173.02 4285.19 M 1173.02 4285.19 L 926.276 4303.38 M 926.276 4303.38 L 1132.84 4235.98 M 1173.02 4285.19 L 1132.84 4235.98 M 926.276 4303.38 L 967.135 4028.43 M 967.135 4028.43 L 789.276 3831.79 M 789.276 3831.79 L 1087.96 4000.07 M 1087.96 4000.07 L 955.378 3713.57 M 1078.94 3677.07 L 1239.17 3701.51 M 1239.17 3701.51 L 1087.96 4000.07 M 1087.96 4000.07 L 1132.84 4235.98 M 926.276 4303.38 L 1070.6 4474.42 M 1082.47 4480.37 L 1243.65 4275.12 M 1087.96 4000.07 L 926.276 4303.38 M 926.276 4303.38 L 835.404 4164.74 M 814.543 4141.12 L 646.89 4072.74 M 646.89 4072.74 L 442.223 3929.77 M 398.879 4055.76 L 556.09 4309.82 M 556.09 4309.82 L 333.112 4220.47 M 288.577 4329 L 333.112 4220.47 M 288.577 4329 L 556.09 4309.82 M 556.09 4309.82 L 628.364 4499.04 M 495.983 4424.91 L 556.09 4309.82 M 610.155 4175.38 L 398.879 4055.76 M 398.879 4055.76 L 333.112 4220.47 M 210.598 4291 L 159.799 4141.18 M 161.11 4138.38 L 8 4049.38 M 20.3154 4178.74 L 210.598 4291 M 210.598 4291 L 333.112 4220.47 M 217.448 3994.27 L 333.112 4220.47 M 217.448 3994.27 L 161.11 4138.38 M 610.155 4175.38 L 442.223 3929.77 M 646.89 4072.74 L 510.291 3769.5 M 727.609 3894.47 L 510.291 3769.5 M 727.609 3894.47 L 568.56 3662.46 M 775.783 3820.91 L 568.56 3662.46 M 775.783 3820.91 L 701.605 3504.59 M 757.312 3384.53 L 769.808 3172.43 M 757.312 3384.53 L 980.489 3199.52 M 1192.46 3211.84 L 961.191 3417.06 M 961.191 3417.06 L 980.489 3199.52 M 1148.23 3424.57 L 1316.32 3448.2 M 1316.32 3448.2 L 1239.17 3701.51 M 1078.94 3677.07 L 1087.96 4000.07 M 967.135 4028.43 L 1087.96 4000.07 M 932.987 4059.35 L 926.276 4303.38 M 926.276 4303.38 L 1008.93 4553.85 M 1008.93 4553.85 L 886.857 4532.04 M 1008.93 4553.85 L 871.047 4454.87 M 810.953 4336.52 L 742.16 4192.47 M 742.16 4192.47 L 620.659 4178.56 M 646.89 4072.74 L 727.609 3894.47 M 930.34 4056.15 L 727.609 3894.47 M 930.34 4056.15 L 789.276 3831.79 M 814.543 4141.12 L 727.609 3894.47 M 742.16 4192.47 L 646.89 4072.74 M 742.16 4192.47 L 814.543 4141.12 M 742.16 4192.47 L 748.719 4415.95 M 1008.93 4553.85 L 892.112 4356.18 M 1389.38 3774.95 L 1547.1 3872.82 M 1389.38 3774.95 L 1087.96 4000.07 M 1389.38 3774.95 L 1239.17 3701.51 M 1316.32 3448.2 L 1371.91 3298.74 M 1371.91 3298.74 L 1519.71 3322.6 M 1519.71 3322.6 L 1467.06 3493.02 M 1467.06 3493.02 L 1316.32 3448.2 M 1148.23 3424.57 L 1239.17 3701.51 M 1148.23 3424.57 L 1078.94 3677.07 M 1148.23 3424.57 L 950.436 3667.73 M 1148.23 3424.57 L 961.191 3417.06 M 635.721 3376.27 L 655.408 3162.92 M 635.721 3376.27 L 769.808 3172.43 M 462.394 3359.58 L 475.676 3163.12 M 462.394 3359.58 L 655.408 3162.92 M 868.945 2666.54 L 1155.26 2586.17 M 1155.26 2586.17 L 1225.79 2791.27 M 1155.26 2586.17 L 1181.47 2817.58 M 1373.47 2959.9 L 1345.83 3014.75 M 1345.83 3014.75 L 1440.89 3050.7 M 1440.89 3050.7 L 1371.91 3298.74 M 1519.71 3322.6 L 1316.32 3448.2 M 1494.65 3527.92 L 1547.1 3872.82 M 1635.46 3580.97 L 1633.04 3893.9 M 1635.46 3580.97 L 1547.1 3872.82 M 1494.65 3527.92 L 1389.38 3774.95 M 1645.73 3066.81 L 1519.71 3322.6 M 1345.83 3014.75 L 1371.91 3298.74 M 1345.83 3014.75 L 1243.67 3192.67 M 1345.83 3014.75 L 1043.11 3122.97 M 1373.47 2959.9 L 1192.72 2830.8 M 1527.88 2864.39 L 1594.07 2913.75 M 1527.88 2864.39 L 1440.89 3050.7 M 1125.85 2495.93 L 1167.17 2471.68 M 1125.85 2495.93 L 1155.26 2586.17 M 1301.91 2406.26 L 1475.16 2334.05 M 1442.64 2271.8 L 1301.91 2406.26 M 1301.91 2406.26 L 1500.64 2392.82 M 1301.91 2406.26 L 1318.02 2517.99 M 1301.91 2406.26 L 1167.17 2471.68 M 1059.77 2330.07 L 1167.17 2471.68 M 1059.77 2330.07 L 1125.85 2495.93 M 846.487 2553.96 L 1125.85 2495.93 M 846.487 2553.96 L 1155.26 2586.17 M 868.945 2666.54 L 1181.47 2817.58 M 813.127 2377.35 L 1059.77 2330.07 M 1020.29 2173.59 L 1126.28 2326.5 M 1255.96 2226.76 L 1126.28 2326.5 M 1258.32 2228.04 L 1231.55 1996.89 M 1231.55 1996.89 L 1231.53 1808.75 M 1220.35 1776.28 L 1068.8 1751.35 M 1018.84 1881.64 L 1128.01 1845.11 M 1050.39 1925.78 L 1020.29 2173.59 M 1020.29 2173.59 L 982.466 2184.47 M 982.466 2184.47 L 1126.28 2326.5 M 982.466 2184.47 L 1059.77 2330.07 M 813.127 2377.35 L 1125.85 2495.93 M 788.288 2237.34 L 1059.77 2330.07 M 951.52 2085.12 L 982.466 2184.47 M 1133.56 2068.9 L 1020.29 2173.59 M 1133.56 2068.9 L 1143.9 1867.28 M 1226.93 1774.72 L 1320.36 1733.74 M 1320.36 1733.74 L 1231.53 1808.75 M 1295.52 1964.34 L 1231.55 1996.89 M 1295.52 1964.34 L 1231.53 1808.75 M 1295.52 1964.34 L 1373.53 1900.53 M 1373.53 1900.53 L 1231.53 1808.75 M 1454.8 1842.36 L 1320.36 1733.74 M 1400.1 2029.82 L 1295.52 1964.34 M 1458.16 2062.02 L 1521.29 1865.97 M 911.608 1989.87 L 1050.39 1925.78 M 911.608 1989.87 L 1020.29 2173.59 M 788.288 2237.34 L 813.127 2377.35 M 852.295 1109.96 L 708.13 828.65 M 708.13 828.65 L 716.642 1102.34 M 716.642 1102.34 L 613.649 958.069 M 579.983 932.549 L 470.941 730.99 M 261.925 714.833 L 512.908 1000.47 M 512.908 1000.47 L 470.941 730.99 M 708.13 828.65 L 679.264 741.049 M 708.13 828.65 L 894.961 674.547 M 969.319 567.067 L 710.185 363.884 M 1066.87 649.58 L 1006.57 760.728 M 1066.87 649.58 L 969.319 567.067 M 708.13 828.65 L 993.829 775.087 M 708.13 828.65 L 1034.17 894.087 M 708.13 828.65 L 994.8 1028.53 M 566.791 1041.24 L 716.642 1102.34 M 1615.66 979.583 L 1404.07 887.484 M 1615.66 979.583 L 1558.99 813.439 M 1615.66 979.583 L 1621.82 848.693 M 1852.46 848.959 L 1711.27 922.527 M 2044.69 4338.08 L 1862.19 4357.74" />
  <path class="z" fill="none" d=" M 215.761 460.85 L 383.691 588.19 L 470.941 730.99 L 630.744 516.27 L 969.319 567.067 L 651.61 439.497 L 405.992 545.862 L 401.645 378.573 L 315.723 186.132 M 215.761 460.85 L 383.691 588.19 L 470.941 730.99 L 630.744 516.27 L 969.319 567.067 L 651.61 439.497 L 405.992 545.862 L 401.645 378.573 L 315.723 186.132 M 315.723 186.132 L 382.288 211.566 L 335.37 157.934 M 315.723 186.132 L 382.288 211.566 L 335.37 157.934 M 492.776 65.3598 L 590.56 75.6637 L 639.693 194.943 L 614.267 68.4712 L 520.748 38.1067 M 492.776 65.3598 L 590.56 75.6637 L 639.693 194.943 L 614.267 68.4712 L 520.748 38.1067 M 871.303 161.255 L 710.185 363.884 L 911.94 201.673 M 871.303 161.255 L 710.185 363.884 L 911.94 201.673 M 1189.07 472.889 L 1099.56 565.887 L 1066.87 649.58 L 1114.32 573.28 L 1229.63 515.28 M 1189.07 472.889 L 1099.56 565.887 L 1066.87 649.58 L 1114.32 573.28 L 1229.63 515.28 M 1168.43 751.288 L 1006.57 760.728 L 894.961 674.547 L 993.829 775.087 L 1126.57 868.19 M 1168.43 751.288 L 1006.57 760.728 L 894.961 674.547 L 993.829 775.087 L 1126.57 868.19 M 1126.57 868.19 L 1144.56 949.171 L 1159.59 867.588 M 1126.57 868.19 L 1144.56 949.171 L 1159.59 867.588 M 1615.66 979.583 L 1538.23 1055.31 L 1466.81 1012.91 L 1402.93 935.775 L 1455.58 1020.98 L 1522.38 1070.32 L 1613.81 1012.26 M 1615.66 979.583 L 1538.23 1055.31 L 1466.81 1012.91 L 1402.93 935.775 L 1455.58 1020.98 L 1522.38 1070.32 L 1613.81 1012.26 M 1404.83 1218.74 L 1360.61 1161.82 L 1385.88 1229.32 M 1404.83 1218.74 L 1360.61 1161.82 L 1385.88 1229.32 M 1353.53 1624.22 L 1320.36 1733.74 L 1362.32 1627.28 M 1353.53 1624.22 L 1320.36 1733.74 L 1362.32 1627.28 M 1454.8 1842.36 L 1373.53 1900.53 L 1459.22 1849.1 M 1454.8 1842.36 L 1373.53 1900.53 L 1459.22 1849.1 M 1458.16 2062.02 L 1400.1 2029.82 L 1456.51 2064.83 M 1458.16 2062.02 L 1400.1 2029.82 L 1456.51 2064.83 M 1372.62 2078.22 L 1295.52 1964.34 L 1356.46 2087.62 M 1372.62 2078.22 L 1295.52 1964.34 L 1356.46 2087.62 M 1258.32 2228.04 L 1135.04 2070.87 L 1231.55 1996.89 L 1133.56 2068.9 L 1255.96 2226.76 M 1258.32 2228.04 L 1135.04 2070.87 L 1231.55 1996.89 L 1133.56 2068.9 L 1255.96 2226.76 M 1255.96 2226.76 L 1307.37 2274.42 L 1126.28 2326.5 L 1059.77 2330.07 L 1125.71 2339.49 L 1301.91 2406.26 L 1284.76 2338.29 M 1255.96 2226.76 L 1307.37 2274.42 L 1126.28 2326.5 L 1059.77 2330.07 L 1125.71 2339.49 L 1301.91 2406.26 L 1284.76 2338.29 M 1318.02 2517.99 L 1167.17 2471.68 L 1313.46 2530.85 M 1318.02 2517.99 L 1167.17 2471.68 L 1313.46 2530.85 M 1209.9 2572.89 L 1125.85 2495.93 L 1196.7 2585.19 M 1209.9 2572.89 L 1125.85 2495.93 L 1196.7 2585.19 M 1196.7 2585.19 L 1155.26 2586.17 L 1195.47 2596.25 M 1196.7 2585.19 L 1155.26 2586.17 L 1195.47 2596.25 M 1524.9 2638.68 L 1458.75 2799.61 L 1373.47 2959.9 L 1527.88 2864.39 L 1663.08 2754.87 M 1524.9 2638.68 L 1458.75 2799.61 L 1373.47 2959.9 L 1527.88 2864.39 L 1663.08 2754.87 M 1663.08 2754.87 L 1594.07 2913.75 L 1440.89 3050.7 L 1645.73 3066.81 L 1807.59 3005.11 M 1663.08 2754.87 L 1594.07 2913.75 L 1440.89 3050.7 L 1645.73 3066.81 L 1807.59 3005.11 M 1876.85 3049.91 L 1811.64 3057.21 L 1682.41 3295.32 L 1819.98 3061.93 L 1885.38 3056.67 M 1876.85 3049.91 L 1811.64 3057.21 L 1682.41 3295.32 L 1819.98 3061.93 L 1885.38 3056.67 M 1651.02 3447.73 L 1519.71 3322.6 L 1605.53 3482.4 M 1651.02 3447.73 L 1519.71 3322.6 L 1605.53 3482.4 M 1605.53 3482.4 L 1576.46 3515.36 L 1467.06 3493.02 L 1239.17 3701.51 L 1494.65 3527.92 L 1591.58 3583.35 L 1635.46 3580.97 M 1605.53 3482.4 L 1576.46 3515.36 L 1467.06 3493.02 L 1239.17 3701.51 L 1494.65 3527.92 L 1591.58 3583.35 L 1635.46 3580.97 M 1633.04 3893.9 L 1547.1 3872.82 L 1596.46 3946.26 M 1633.04 3893.9 L 1547.1 3872.82 L 1596.46 3946.26 M 1596.46 3946.26 L 1465.23 4209.97 L 1710.36 4046.66 M 1596.46 3946.26 L 1465.23 4209.97 L 1710.36 4046.66 M 1710.36 4046.66 L 1711.81 4100.55 L 1761.1 4078.72 M 1710.36 4046.66 L 1711.81 4100.55 L 1761.1 4078.72 M 1859.55 4089.95 L 1709.13 4187.31 L 1887.21 4167.48 M 1859.55 4089.95 L 1709.13 4187.31 L 1887.21 4167.48 M 1347.96 4214.17 L 1375.39 4191.69 L 1340.44 4185.63 M 1347.96 4214.17 L 1375.39 4191.69 L 1340.44 4185.63 M 1340.44 4185.63 L 1389.38 3774.95 L 1199.5 4142.37 M 1340.44 4185.63 L 1389.38 3774.95 L 1199.5 4142.37 M 1199.5 4142.37 L 1087.96 4000.07 L 1176.84 4157.52 M 1199.5 4142.37 L 1087.96 4000.07 L 1176.84 4157.52 M 1082.47 4480.37 L 1173.02 4285.19 L 1070.6 4474.42 M 1082.47 4480.37 L 1173.02 4285.19 L 1070.6 4474.42 M 892.112 4356.18 L 926.276 4303.38 L 887.694 4353.05 M 892.112 4356.18 L 926.276 4303.38 L 887.694 4353.05 M 887.694 4353.05 L 835.404 4164.74 L 932.987 4059.35 L 967.135 4028.43 L 930.34 4056.15 L 814.543 4141.12 L 810.953 4336.52 M 887.694 4353.05 L 835.404 4164.74 L 932.987 4059.35 L 967.135 4028.43 L 930.34 4056.15 L 814.543 4141.12 L 810.953 4336.52 M 610.125 4330.01 L 742.16 4192.47 L 602.552 4322.32 M 610.125 4330.01 L 742.16 4192.47 L 602.552 4322.32 M 602.552 4322.32 L 620.659 4178.56 L 646.89 4072.74 L 610.155 4175.38 L 556.09 4309.82 M 602.552 4322.32 L 620.659 4178.56 L 646.89 4072.74 L 610.155 4175.38 L 556.09 4309.82 M 20.3154 4178.74 L 159.799 4141.18 L 333.112 4220.47 L 161.11 4138.38 L 17.2103 4150.99 M 20.3154 4178.74 L 159.799 4141.18 L 333.112 4220.47 L 161.11 4138.38 L 17.2103 4150.99 M 899.483 3658.85 L 775.783 3820.91 L 727.609 3894.47 L 789.276 3831.79 L 955.378 3713.57 M 899.483 3658.85 L 775.783 3820.91 L 727.609 3894.47 L 789.276 3831.79 L 955.378 3713.57 M 955.378 3713.57 L 1078.94 3677.07 L 950.436 3667.73 M 955.378 3713.57 L 1078.94 3677.07 L 950.436 3667.73 M 1192.46 3211.84 L 1148.23 3424.57 L 1208.33 3215.77 M 1192.46 3211.84 L 1148.23 3424.57 L 1208.33 3215.77 M 1208.33 3215.77 L 1316.32 3448.2 L 1234.1 3205.45 M 1208.33 3215.77 L 1316.32 3448.2 L 1234.1 3205.45 M 1234.1 3205.45 L 1371.91 3298.74 L 1243.67 3192.67 M 1234.1 3205.45 L 1371.91 3298.74 L 1243.67 3192.67 M 1149.26 2878.23 L 1345.83 3014.75 L 1192.72 2830.8 M 1149.26 2878.23 L 1345.83 3014.75 L 1192.72 2830.8 M 1192.72 2830.8 L 1225.79 2791.27 L 1181.47 2817.58 M 1192.72 2830.8 L 1225.79 2791.27 L 1181.47 2817.58 M 788.288 2237.34 L 982.466 2184.47 L 785.079 2223.7 M 788.288 2237.34 L 982.466 2184.47 L 785.079 2223.7 M 951.52 2085.12 L 1020.29 2173.59 L 956.358 2081.56 M 951.52 2085.12 L 1020.29 2173.59 L 956.358 2081.56 M 1018.75 1881.7 L 1050.39 1925.78 L 1018.84 1881.64 M 1018.75 1881.7 L 1050.39 1925.78 L 1018.84 1881.64 M 1056.12 1760.66 L 1128.01 1845.11 L 1143.9 1867.28 L 1130.41 1843.57 L 1068.8 1751.35 M 1056.12 1760.66 L 1128.01 1845.11 L 1143.9 1867.28 L 1130.41 1843.57 L 1068.8 1751.35 M 1176.26 1569.84 L 1220.35 1776.28 L 1231.53 1808.75 L 1226.93 1774.72 L 1233.52 1563.72 M 1176.26 1569.84 L 1220.35 1776.28 L 1231.53 1808.75 L 1226.93 1774.72 L 1233.52 1563.72 M 1352.94 1217.41 L 1291.22 1093.86 L 1346.67 1220.35 M 1352.94 1217.41 L 1291.22 1093.86 L 1346.67 1220.35 M 1346.67 1220.35 L 1295.39 1243.24 L 1214.35 1134.19 L 1097.28 1019.16 L 1034.17 894.087 L 994.8 1028.53 L 852.295 1109.96 L 716.642 1102.34 L 713.12 1158.39 M 1346.67 1220.35 L 1295.39 1243.24 L 1214.35 1134.19 L 1097.28 1019.16 L 1034.17 894.087 L 994.8 1028.53 L 852.295 1109.96 L 716.642 1102.34 L 713.12 1158.39 M 613.649 958.069 L 708.13 828.65 L 590.797 937.778 M 613.649 958.069 L 708.13 828.65 L 590.797 937.778 M 590.797 937.778 L 679.264 741.049 L 579.983 932.549 M 590.797 937.778 L 679.264 741.049 L 579.983 932.549" />
  <path class="z" d=" M 964.189 561.937 L 974.449 561.937 L 974.449 572.197 L 964.189 572.197 L 964.189 561.937 M 964.189 561.937 L 974.449 561.937 L 974.449 572.197 L 964.189 572.197 L 964.189 561.937 M 377.158 206.436 L 387.418 206.436 L 387.418 216.696 L 377.158 216.696 L 377.158 206.436 M 377.158 206.436 L 387.418 206.436 L 387.418 216.696 L 377.158 216.696 L 377.158 206.436 M 634.563 189.813 L 644.823 189.813 L 644.823 200.073 L 634.563 200.073 L 634.563 189.813 M 634.563 189.813 L 644.823 189.813 L 644.823 200.073 L 634.563 200.073 L 634.563 189.813 M 705.055 358.754 L 715.315 358.754 L 715.315 369.014 L 705.055 369.014 L 705.055 358.754 M 705.055 358.754 L 715.315 358.754 L 715.315 369.014 L 705.055 369.014 L 705.055 358.754 M 1061.74 644.45 L 1072 644.45 L 1072 654.71 L 1061.74 654.71 L 1061.74 644.45 M 1061.74 644.45 L 1072 644.45 L 1072 654.71 L 1061.74 654.71 L 1061.74 644.45 M 889.831 669.417 L 900.091 669.417 L 900.091 679.677 L 889.831 679.677 L 889.831 669.417 M 889.831 669.417 L 900.091 669.417 L 900.091 679.677 L 889.831 679.677 L 889.831 669.417 M 1139.43 944.041 L 1149.69 944.041 L 1149.69 954.301 L 1139.43 954.301 L 1139.43 944.041 M 1139.43 944.041 L 1149.69 944.041 L 1149.69 954.301 L 1139.43 954.301 L 1139.43 944.041 M 1397.8 930.645 L 1408.06 930.645 L 1408.06 940.905 L 1397.8 940.905 L 1397.8 930.645 M 1397.8 930.645 L 1408.06 930.645 L 1408.06 940.905 L 1397.8 940.905 L 1397.8 930.645 M 1355.48 1156.69 L 1365.74 1156.69 L 1365.74 1166.95 L 1355.48 1166.95 L 1355.48 1156.69 M 1355.48 1156.69 L 1365.74 1156.69 L 1365.74 1166.95 L 1355.48 1166.95 L 1355.48 1156.69 M 1315.23 1728.61 L 1325.49 1728.61 L 1325.49 1738.87 L 1315.23 1738.87 L 1315.23 1728.61 M 1315.23 1728.61 L 1325.49 1728.61 L 1325.49 1738.87 L 1315.23 1738.87 L 1315.23 1728.61 M 1368.4 1895.4 L 1378.66 1895.4 L 1378.66 1905.66 L 1368.4 1905.66 L 1368.4 1895.4 M 1368.4 1895.4 L 1378.66 1895.4 L 1378.66 1905.66 L 1368.4 1905.66 L 1368.4 1895.4 M 1394.97 2024.69 L 1405.23 2024.69 L 1405.23 2034.95 L 1394.97 2034.95 L 1394.97 2024.69 M 1394.97 2024.69 L 1405.23 2024.69 L 1405.23 2034.95 L 1394.97 2034.95 L 1394.97 2024.69 M 1290.39 1959.21 L 1300.65 1959.21 L 1300.65 1969.47 L 1290.39 1969.47 L 1290.39 1959.21 M 1290.39 1959.21 L 1300.65 1959.21 L 1300.65 1969.47 L 1290.39 1969.47 L 1290.39 1959.21 M 1226.42 1991.76 L 1236.68 1991.76 L 1236.68 2002.02 L 1226.42 2002.02 L 1226.42 1991.76 M 1226.42 1991.76 L 1236.68 1991.76 L 1236.68 2002.02 L 1226.42 2002.02 L 1226.42 1991.76 M 1054.64 2324.94 L 1064.9 2324.94 L 1064.9 2335.2 L 1054.64 2335.2 L 1054.64 2324.94 M 1054.64 2324.94 L 1064.9 2324.94 L 1064.9 2335.2 L 1054.64 2335.2 L 1054.64 2324.94 M 1162.04 2466.55 L 1172.3 2466.55 L 1172.3 2476.81 L 1162.04 2476.81 L 1162.04 2466.55 M 1162.04 2466.55 L 1172.3 2466.55 L 1172.3 2476.81 L 1162.04 2476.81 L 1162.04 2466.55 M 1120.72 2490.8 L 1130.98 2490.8 L 1130.98 2501.06 L 1120.72 2501.06 L 1120.72 2490.8 M 1120.72 2490.8 L 1130.98 2490.8 L 1130.98 2501.06 L 1120.72 2501.06 L 1120.72 2490.8 M 1150.13 2581.04 L 1160.39 2581.04 L 1160.39 2591.3 L 1150.13 2591.3 L 1150.13 2581.04 M 1150.13 2581.04 L 1160.39 2581.04 L 1160.39 2591.3 L 1150.13 2591.3 L 1150.13 2581.04 M 1368.34 2954.77 L 1378.6 2954.77 L 1378.6 2965.03 L 1368.34 2965.03 L 1368.34 2954.77 M 1368.34 2954.77 L 1378.6 2954.77 L 1378.6 2965.03 L 1368.34 2965.03 L 1368.34 2954.77 M 1435.76 3045.57 L 1446.02 3045.57 L 1446.02 3055.83 L 1435.76 3055.83 L 1435.76 3045.57 M 1435.76 3045.57 L 1446.02 3045.57 L 1446.02 3055.83 L 1435.76 3055.83 L 1435.76 3045.57 M 1677.28 3290.19 L 1687.54 3290.19 L 1687.54 3300.45 L 1677.28 3300.45 L 1677.28 3290.19 M 1677.28 3290.19 L 1687.54 3290.19 L 1687.54 3300.45 L 1677.28 3300.45 L 1677.28 3290.19 M 1514.58 3317.47 L 1524.84 3317.47 L 1524.84 3327.73 L 1514.58 3327.73 L 1514.58 3317.47 M 1514.58 3317.47 L 1524.84 3317.47 L 1524.84 3327.73 L 1514.58 3327.73 L 1514.58 3317.47 M 1234.04 3696.38 L 1244.3 3696.38 L 1244.3 3706.64 L 1234.04 3706.64 L 1234.04 3696.38 M 1234.04 3696.38 L 1244.3 3696.38 L 1244.3 3706.64 L 1234.04 3706.64 L 1234.04 3696.38 M 1541.97 3867.69 L 1552.23 3867.69 L 1552.23 3877.95 L 1541.97 3877.95 L 1541.97 3867.69 M 1541.97 3867.69 L 1552.23 3867.69 L 1552.23 3877.95 L 1541.97 3877.95 L 1541.97 3867.69 M 1460.1 4204.84 L 1470.36 4204.84 L 1470.36 4215.1 L 1460.1 4215.1 L 1460.1 4204.84 M 1460.1 4204.84 L 1470.36 4204.84 L 1470.36 4215.1 L 1460.1 4215.1 L 1460.1 4204.84 M 1706.68 4095.42 L 1716.94 4095.42 L 1716.94 4105.68 L 1706.68 4105.68 L 1706.68 4095.42 M 1706.68 4095.42 L 1716.94 4095.42 L 1716.94 4105.68 L 1706.68 4105.68 L 1706.68 4095.42 M 1704 4182.18 L 1714.26 4182.18 L 1714.26 4192.44 L 1704 4192.44 L 1704 4182.18 M 1704 4182.18 L 1714.26 4182.18 L 1714.26 4192.44 L 1704 4192.44 L 1704 4182.18 M 1370.26 4186.56 L 1380.52 4186.56 L 1380.52 4196.82 L 1370.26 4196.82 L 1370.26 4186.56 M 1370.26 4186.56 L 1380.52 4186.56 L 1380.52 4196.82 L 1370.26 4196.82 L 1370.26 4186.56 M 1384.25 3769.82 L 1394.51 3769.82 L 1394.51 3780.08 L 1384.25 3780.08 L 1384.25 3769.82 M 1384.25 3769.82 L 1394.51 3769.82 L 1394.51 3780.08 L 1384.25 3780.08 L 1384.25 3769.82 M 1082.83 3994.94 L 1093.09 3994.94 L 1093.09 4005.2 L 1082.83 4005.2 L 1082.83 3994.94 M 1082.83 3994.94 L 1093.09 3994.94 L 1093.09 4005.2 L 1082.83 4005.2 L 1082.83 3994.94 M 1167.89 4280.06 L 1178.15 4280.06 L 1178.15 4290.32 L 1167.89 4290.32 L 1167.89 4280.06 M 1167.89 4280.06 L 1178.15 4280.06 L 1178.15 4290.32 L 1167.89 4290.32 L 1167.89 4280.06 M 921.146 4298.25 L 931.406 4298.25 L 931.406 4308.51 L 921.146 4308.51 L 921.146 4298.25 M 921.146 4298.25 L 931.406 4298.25 L 931.406 4308.51 L 921.146 4308.51 L 921.146 4298.25 M 962.005 4023.3 L 972.265 4023.3 L 972.265 4033.56 L 962.005 4033.56 L 962.005 4023.3 M 962.005 4023.3 L 972.265 4023.3 L 972.265 4033.56 L 962.005 4033.56 L 962.005 4023.3 M 737.03 4187.34 L 747.29 4187.34 L 747.29 4197.6 L 737.03 4197.6 L 737.03 4187.34 M 737.03 4187.34 L 747.29 4187.34 L 747.29 4197.6 L 737.03 4197.6 L 737.03 4187.34 M 641.76 4067.61 L 652.02 4067.61 L 652.02 4077.87 L 641.76 4077.87 L 641.76 4067.61 M 641.76 4067.61 L 652.02 4067.61 L 652.02 4077.87 L 641.76 4077.87 L 641.76 4067.61 M 327.982 4215.34 L 338.242 4215.34 L 338.242 4225.6 L 327.982 4225.6 L 327.982 4215.34 M 327.982 4215.34 L 338.242 4215.34 L 338.242 4225.6 L 327.982 4225.6 L 327.982 4215.34 M 722.479 3889.34 L 732.739 3889.34 L 732.739 3899.6 L 722.479 3899.6 L 722.479 3889.34 M 722.479 3889.34 L 732.739 3889.34 L 732.739 3899.6 L 722.479 3899.6 L 722.479 3889.34 M 1073.81 3671.94 L 1084.07 3671.94 L 1084.07 3682.2 L 1073.81 3682.2 L 1073.81 3671.94 M 1073.81 3671.94 L 1084.07 3671.94 L 1084.07 3682.2 L 1073.81 3682.2 L 1073.81 3671.94 M 1143.1 3419.44 L 1153.36 3419.44 L 1153.36 3429.7 L 1143.1 3429.7 L 1143.1 3419.44 M 1143.1 3419.44 L 1153.36 3419.44 L 1153.36 3429.7 L 1143.1 3429.7 L 1143.1 3419.44 M 1311.19 3443.07 L 1321.45 3443.07 L 1321.45 3453.33 L 1311.19 3453.33 L 1311.19 3443.07 M 1311.19 3443.07 L 1321.45 3443.07 L 1321.45 3453.33 L 1311.19 3453.33 L 1311.19 3443.07 M 1366.78 3293.61 L 1377.04 3293.61 L 1377.04 3303.87 L 1366.78 3303.87 L 1366.78 3293.61 M 1366.78 3293.61 L 1377.04 3293.61 L 1377.04 3303.87 L 1366.78 3303.87 L 1366.78 3293.61 M 1340.7 3009.62 L 1350.96 3009.62 L 1350.96 3019.88 L 1340.7 3019.88 L 1340.7 3009.62 M 1340.7 3009.62 L 1350.96 3009.62 L 1350.96 3019.88 L 1340.7 3019.88 L 1340.7 3009.62 M 1220.66 2786.14 L 1230.92 2786.14 L 1230.92 2796.4 L 1220.66 2796.4 L 1220.66 2786.14 M 1220.66 2786.14 L 1230.92 2786.14 L 1230.92 2796.4 L 1220.66 2796.4 L 1220.66 2786.14 M 977.336 2179.34 L 987.596 2179.34 L 987.596 2189.6 L 977.336 2189.6 L 977.336 2179.34 M 977.336 2179.34 L 987.596 2179.34 L 987.596 2189.6 L 977.336 2189.6 L 977.336 2179.34 M 1015.16 2168.46 L 1025.42 2168.46 L 1025.42 2178.72 L 1015.16 2178.72 L 1015.16 2168.46 M 1015.16 2168.46 L 1025.42 2168.46 L 1025.42 2178.72 L 1015.16 2178.72 L 1015.16 2168.46 M 1045.26 1920.65 L 1055.52 1920.65 L 1055.52 1930.91 L 1045.26 1930.91 L 1045.26 1920.65 M 1045.26 1920.65 L 1055.52 1920.65 L 1055.52 1930.91 L 1045.26 1930.91 L 1045.26 1920.65 M 1138.77 1862.15 L 1149.03 1862.15 L 1149.03 1872.41 L 1138.77 1872.41 L 1138.77 1862.15 M 1138.77 1862.15 L 1149.03 1862.15 L 1149.03 1872.41 L 1138.77 1872.41 L 1138.77 1862.15 M 1226.4 1803.62 L 1236.66 1803.62 L 1236.66 1813.88 L 1226.4 1813.88 L 1226.4 1803.62 M 1226.4 1803.62 L 1236.66 1803.62 L 1236.66 1813.88 L 1226.4 1813.88 L 1226.4 1803.62 M 1286.09 1088.73 L 1296.35 1088.73 L 1296.35 1098.99 L 1286.09 1098.99 L 1286.09 1088.73 M 1286.09 1088.73 L 1296.35 1088.73 L 1296.35 1098.99 L 1286.09 1098.99 L 1286.09 1088.73 M 1029.04 888.957 L 1039.3 888.957 L 1039.3 899.217 L 1029.04 899.217 L 1029.04 888.957 M 1029.04 888.957 L 1039.3 888.957 L 1039.3 899.217 L 1029.04 899.217 L 1029.04 888.957 M 703 823.52 L 713.26 823.52 L 713.26 833.78 L 703 833.78 L 703 823.52 M 703 823.52 L 713.26 823.52 L 713.26 833.78 L 703 833.78 L 703 823.52 M 674.134 735.919 L 684.394 735.919 L 684.394 746.179 L 674.134 746.179 L 674.134 735.919 M 674.134 735.919 L 684.394 735.919 L 684.394 746.179 L 674.134 746.179 L 674.134 735.919" />
  <path class="h" d=" M 207.085 499.996 L 189.734 578.288 M 231.717 610.123 L 333.033 595.501 M 404.905 504.04 L 402.731 420.395 M 464.136 393.804 L 589.118 424.266 M 731.037 471.389 L 889.891 535.175 M 937.937 668.305 L 1023.89 655.822 M 992.188 388.322 L 1123.44 444.7 M 1024.46 216.268 L 949.448 206.538 M 861.501 242.226 L 760.624 323.331 M 831.023 211.912 L 750.464 313.227 M 715.388 528.969 L 884.675 554.368 M 733.188 724.423 L 841.037 691.173 M 754.838 790.124 L 848.253 713.073 M 779.555 815.259 L 922.404 788.478 M 789.639 845.009 L 952.656 877.728 M 816.254 1039.64 L 744.171 898.978 M 710.258 897.072 L 714.514 1033.92 M 690.894 1066.27 L 639.397 994.137 M 578.505 1020.45 L 601.934 978.861 M 529.677 983.491 L 563.214 949.529 M 552.722 882.159 L 498.201 781.379 M 449.129 695.29 L 405.504 623.89 M 314.179 718.872 L 418.687 726.95 M 324.671 786.243 L 450.162 929.062 M 603.373 1070.53 L 676.538 1129.1 M 684.51 861.005 L 637.269 925.714 M 678.797 855.932 L 620.13 910.496 M 700.913 806.75 L 686.48 762.949 M 627.183 738.534 L 523.022 733.504 M 667.134 684.854 L 642.874 572.464 M 396.806 336.821 L 387.127 253.318 M 526.763 96.2311 L 399.168 137.366 M 666.18 34.1951 L 784.144 40.7013 M 1523.39 709.502 L 1443.84 828.157 M 1562.76 956.558 L 1456.97 910.509 M 1578.45 987.915 L 1504.02 1004.58 M 1431.84 1056.19 L 1384.35 1126.61 M 1337.51 1186.52 L 1306.65 1124.75 M 1332.81 1188.73 L 1305.08 1125.48 M 1449.92 1191.22 L 1540.11 1136.2 M 1492.99 1107.43 L 1434.22 1181.63 M 1312.36 1352.23 L 1361.38 1270.29 M 1304.12 1349.25 L 1336.67 1261.36 M 1385.34 1593.79 L 1448.95 1532.91 M 1330.85 1707.13 L 1351.83 1653.9 M 1328.65 1706.36 L 1345.24 1651.6 M 1298.65 1691.23 L 1255.23 1606.22 M 1228.58 1721.97 L 1231.87 1616.47 M 1209.32 1724.67 L 1187.28 1621.45 M 1182.46 1770.05 L 1106.69 1757.59 M 1115.01 1820.52 L 1084.2 1774.41 M 1110.04 1824 L 1074.09 1781.77 M 1046.13 1872.51 L 1100.72 1854.24 M 1139.93 1861.74 L 1131.98 1850.65 M 1140.53 1861.35 L 1133.78 1849.5 M 1209.63 1823.38 L 1165.81 1852.65 M 1197.86 1793.11 L 1152.89 1826.75 M 1228.74 1800.63 L 1223.14 1784.4 M 1230.38 1800.24 L 1228.08 1783.23 M 1250.29 1764.47 L 1297 1743.98 M 1298.15 1752.49 L 1253.74 1789.99 M 1333.65 1775.44 L 1360.24 1858.83 M 1338.03 1877.58 L 1267.03 1831.69 M 1279.53 1925.44 L 1247.53 1847.64 M 1315.03 1948.39 L 1354.03 1916.48 M 1380.17 1932.85 L 1393.46 1997.5 M 1373.95 2013.45 L 1321.67 1980.71 M 1279.53 1972.48 L 1247.54 1988.75 M 1209.64 1964.49 L 1165.81 1899.68 M 1073.77 1911.16 L 1120.52 1881.91 M 1042.5 1914.75 L 1026.73 1892.68 M 1042.48 1914.76 L 1026.66 1892.72 M 1042.87 1987.73 L 1027.82 2111.64 M 1131.74 2133.3 L 1128.1 2262.1 M 1223.54 2251.7 L 1158.7 2301.57 M 1086.62 2365.47 L 1140.32 2436.28 M 1268.23 2422.62 L 1200.85 2455.32 M 1305.94 2434.19 L 1314 2490.06 M 1363.68 2486.69 L 1454.99 2424.11 M 1481.53 2348.74 L 1494.27 2378.12 M 1450.77 2287.36 L 1467.03 2318.48 M 1407.46 2305.42 L 1337.09 2372.65 M 1345.22 2388.21 L 1431.85 2352.1 M 1289.05 2355.29 L 1297.62 2389.27 M 1268.81 2238.68 L 1294.52 2262.5 M 1251.63 2170.25 L 1238.24 2054.68 M 1207.42 2015.38 L 1159.17 2052.37 M 1207.05 2014.89 L 1158.06 2050.9 M 1341.22 2056.8 L 1310.76 1995.16 M 1353.34 2049.75 L 1314.8 1992.81 M 1393.23 2041.92 L 1379.49 2066.12 M 1414.2 2038.58 L 1442.4 2056.08 M 1414.61 2037.87 L 1443.64 2053.97 M 1489.04 2015.7 L 1550.8 1923.06 M 1566.58 1874.05 L 1536.39 1868.66 M 1505.77 1861.75 L 1474.74 1853.31 M 1451.02 1803.53 L 1443.46 1725.86 M 1421.19 1815.21 L 1353.97 1760.89 M 1350.19 1722.06 L 1409.85 1698.7 M 1393.85 1885.98 L 1434.48 1856.9 M 1394.95 1887.67 L 1437.8 1861.95 M 1430.39 1988.86 L 1490.99 1906.93 M 946.303 1973.85 L 1015.69 1941.8 M 909.91 2119.77 L 826.689 2189.05 M 652.596 2294.87 L 759.617 2349.86 M 891.308 2407 L 1047.67 2466.29 M 1235.79 2562.38 L 1287.57 2541.36 M 1222.62 2602.83 L 1276.93 2615.98 M 1284.51 2664.74 L 1245.36 2749.09 M 1284.03 2793.36 L 1400.51 2797.52 M 1437.43 2839.68 L 1394.79 2919.83 M 1489.28 2888.27 L 1412.07 2936.02 M 1544.43 2876.73 L 1577.53 2901.41 M 1561.68 2837.01 L 1629.28 2782.25 M 1475.29 2759.38 L 1508.36 2678.91 M 1359.29 2626.59 L 1469.7 2634.65 M 1270.15 3041.8 L 1118.79 3095.91 M 1193.53 3175.25 L 1093.25 3140.39 M 1139.47 3208.76 L 1033.48 3202.6 M 822.479 3179.2 L 927.819 3192.75 M 813.106 3338.28 L 924.695 3245.77 M 1098.78 3485.36 L 999.885 3606.94 M 1170.97 3493.81 L 1216.44 3632.27 M 1507.76 3614.15 L 1533.99 3786.6 M 1650.82 3876.66 L 1686.39 3842.17 M 1613.37 3653.93 L 1569.19 3799.86 M 1498.03 4144.04 L 1563.65 4012.19 M 1526.51 4169.14 L 1649.08 4087.48 M 1785.72 4081.53 L 1834.94 4087.14 M 1926.58 4210.13 L 2005.32 4295.43 M 2036.98 4352.19 L 2021.57 4380.41 M 1975.95 4385.32 L 1900.11 4366.93 M 1820.99 4335.15 L 1738.59 4289.99 M 1764.11 4381.39 L 1719.63 4305.4 M 1642.11 4268.93 L 1531.54 4271.96 M 1390.93 4295.58 L 1447.81 4280.85 M 1423.69 4369.2 L 1303.66 4306.48 M 1225.99 4277.64 L 1190.67 4282.67 M 1162.97 4272.89 L 1142.88 4248.28 M 1160.54 4245.77 L 1215.94 4265.34 M 1111.33 4289.74 L 987.961 4298.83 M 977.916 4286.53 L 1081.2 4252.83 M 936.491 4234.64 L 956.921 4097.17 M 1099.18 4059.05 L 1121.62 4177 M 1096.21 4427.11 L 1147.41 4332.49 M 1105.11 4431.58 L 1150.38 4333.98 M 1240.2 4464.99 L 1135.05 4475.25 M 1024.34 4533.99 L 1055.18 4494.28 M 974.456 4529.11 L 905.517 4479.61 M 981.113 4555.02 L 925.489 4557.36 M 714.071 4394.47 L 644.773 4351.5 M 638.755 4399.96 L 583.645 4339.87 M 743.8 4248.34 L 747.079 4360.08 M 438.182 4119.28 L 516.787 4246.31 M 241.226 4273.37 L 302.484 4238.1 M 246.364 4050.82 L 304.196 4163.92 M 67.886 4206.8 L 163.027 4262.93 M 60.3619 4035.6 L 165.086 4008.04 M 757.238 3741.83 L 720.15 3583.67 M 863.947 3873.86 L 1013.29 3958 M 1404.45 4125.79 L 1532.45 4006.1 M 1624.79 4412.04 L 1525.77 4319.67 M 1891.02 3439.35 L 1872.29 3331.93 M 1877.7 3274.14 L 1907.28 3265.98 M 1879.77 3112.06 L 1868.54 3222.83 M 1830.72 3116 L 1852.19 3224.14 M 1716.8 3236.97 L 1785.59 3120.27 M 1808.61 3018.14 L 1810.63 3044.18 M 1855.6 3003.14 L 1823.59 3004.45 M 1875.53 3038.05 L 1872.91 3014.34 M 1923.94 2996.63 L 1889.05 3000.53 M 1654.9 3123.93 L 1673.24 3238.19 M 1714.72 3235.79 L 1779.33 3116.73 M 1727.53 3291.04 L 1817.79 3282.49 M 1674.56 3333.42 L 1658.87 3409.63 M 1560.38 3315.78 L 1641.73 3302.14 M 1468.86 3354 L 1367.17 3416.8 M 1254.65 3266.14 L 1295.77 3387.51 M 1235.33 3273.88 L 1289.32 3390.09 M 1905.81 3435.27 L 1916.64 3319.7 M 881.818 2718.06 L 907.564 2821.1 M 365.87 3306.36 L 439.074 3210.87 M 1606.66 1036.37 L 1592.35 1084.58 M 1639.56 965.319 L 1687.37 936.791 M 1739.53 898.153 L 1796.03 849.406 M 1817.16 867.351 L 1746.57 904.135 M 1649.62 823.052 L 1705.23 771.77 M 1617.2 946.861 L 1620.28 881.415" />
  <path class="h" d=" M 23.7894 4202.88 L 33.0688 4207.26 M 81.1198 4265.58 L 75.2351 4257.17 M 9.60342 4067.07 L 18.8867 4071.44 M 145.05 4013.32 L 146.357 4023.49 M 265.402 4010.52 L 268.551 4020.29 M 425.595 3978.11 L 432.604 3985.6 M 473.316 3856.56 L 479.739 3864.56 M 522.849 3746.43 L 531.163 3752.44 M 590.508 3636.42 L 597.778 3643.66 M 737.614 3532.66 L 738.961 3542.83 M 790.945 3389.9 L 798.184 3382.63 M 661.925 3378.05 L 666.692 3368.97 M 541.567 3367.21 L 546.561 3358.24 M 411.323 3357.48 L 414.548 3347.74 M 426.565 3227.19 L 429.245 3237.09 M 620.23 3162.96 L 613.807 3170.96 M 728.246 3168.97 L 724.064 3178.34 M 924.126 3192.27 L 917.402 3200.02 M 1067.5 3204.58 L 1062.91 3213.75 M 1125.44 3151.58 L 1134.16 3146.17 M 1111.49 2965.31 L 1121.53 2967.43 M 1088.59 2837.16 L 1080.49 2830.87 M 906.662 2817.49 L 916.922 2817.49 M 860.786 2625.64 L 870.955 2624.28 M 839.958 2519.4 L 850.183 2518.56 M 741.33 2340.46 L 745.581 2331.13 M 738.28 2245.28 L 743.338 2254.21 M 842.611 2175.8 L 852.851 2176.43 M 948.567 2065.6 L 954.244 2074.15 M 950.138 1950.97 L 960.089 1948.47 M 1029.05 1848.51 L 1039.3 1848.16 M 1121.62 1662.13 L 1128.33 1669.89 M 1417.03 1669.53 L 1408.48 1675.2 M 1447.43 1766.66 L 1437.5 1764.08 M 1506.05 1861.82 L 1500.58 1870.5 M 1539.5 1869.22 L 1535.51 1878.67 M 1563.37 1904.22 L 1555.77 1897.32 M 1402.86 2073.39 L 1402.21 2063.15 M 1268.79 2213.06 L 1267.05 2202.95 M 1301.61 2331.2 L 1301.65 2341.46 M 1421.39 2447.14 L 1411.68 2443.82 M 1487.44 2362.37 L 1477.46 2364.73 M 1457.9 2301.01 L 1449.4 2306.75 M 1248.17 2557.35 L 1241.12 2549.9 M 1235.61 2605.98 L 1235.06 2616.22 M 1429.07 2631.69 L 1430.85 2641.79 M 1840.75 3003.75 L 1835.84 3012.76 M 1908.64 2998.34 L 1903.25 3007.07 M 1918.12 3014.59 L 1908.19 3012 M 1866.25 3245.36 L 1863.74 3235.42 M 1904.23 3266.82 L 1904.05 3277.08 M 1906.25 3430.54 L 1903.44 3420.67 M 1811.84 3476.97 L 1814.39 3467.03 M 1679.78 3738.3 L 1676.82 3748.13 M 1686.06 3842.5 L 1684.11 3832.42 M 1834.48 4087.09 L 1824.28 4088.21 M 1929.81 4213.63 L 1925.45 4222.92 M 1939.95 4376.59 L 1949.58 4373.05 M 2037.12 4351.93 L 2026.87 4352.27 M 1839.98 4375.79 L 1831.81 4369.58 M 1714.72 4297.01 L 1724.21 4300.91 M 1682.03 4394.4 L 1673.19 4389.21 M 1600.91 4389.77 L 1607.27 4381.71 M 1455.09 4409.45 L 1446.43 4403.94 M 1394.74 4354.07 L 1387.62 4361.46 M 1406.65 4291.51 L 1400.45 4283.34 M 1355.04 4257.44 L 1365.21 4258.79 M 1175.86 4251.18 L 1175 4261.4 M 1155.4 4195.76 L 1152.05 4186.06 M 1241.66 4464.85 L 1241.77 4454.59 M 1019.4 4540.36 L 1015.65 4530.81 M 954.656 4556.14 L 944.988 4552.7 M 891.197 4542.66 L 901.411 4543.63 M 882.876 4512.61 L 892.627 4515.8 M 886.392 4382.98 L 892.371 4391.32 M 794.054 4358.09 L 790.986 4348.3 M 708.915 4391.27 L 710.607 4381.15 M 634.655 4395.49 L 634.033 4405.73 M 637.92 4481.66 L 633.509 4472.39 M 569.493 4466.07 L 568.616 4455.85 M 313.065 4340.32 L 323.246 4339.05 M 275.037 4322.4 L 280.116 4313.49 M 959.234 3462.67 L 969.291 3460.65 M 1455.98 1526.19 L 1445.87 1527.89 M 1367.11 1443.77 L 1359.47 1450.63 M 1321.36 1386.55 L 1311.29 1388.55 M 1282.33 1410.51 L 1292.5 1411.89 M 1323.75 1296.25 L 1330.73 1288.73 M 1448.67 1191.99 L 1453.99 1183.21 M 1608.95 1028.64 L 1599.7 1033.09 M 1662.3 951.75 L 1658.55 942.2 M 1723.95 934.059 L 1732.5 928.394 M 1785.81 900.502 L 1775.98 903.41 M 1828.96 829.005 L 1820.93 835.388 M 1795.61 800.233 L 1785.72 802.989 M 1639.41 832.467 L 1649.66 832.055 M 1573.39 821.518 L 1576.04 831.429 M 1559.97 775.021 L 1551.65 781.024 M 1484.51 767.498 L 1493.24 772.884 M 1350.74 885.899 L 1358.16 892.987 M 1171.23 871.922 L 1167.88 881.62 M 1175.74 741.24 L 1167.89 734.632 M 1219.85 567.733 L 1209.61 568.272 M 1056.34 415.879 L 1059.18 425.738 M 1040.06 308.024 L 1032.16 301.471 M 1072 275.751 L 1062.69 271.442 M 1038.24 218.055 L 1042.8 227.242 M 851.982 80.8216 L 841.736 80.2893 M 841.702 37.9846 L 831.447 37.6766 M 634.041 28.2332 L 644.273 29.0025 M 592.187 32.186 L 597.521 40.9508 M 379.039 132.251 L 388.95 129.6 M 162.751 467.978 L 163.998 478.161 M 153.854 523.804 L 161.048 516.489 M 203.203 644.106 L 213.004 641.069 M 313.055 805.03 L 320.39 812.203 M 497.986 990.101 L 491.307 982.313 M 567.458 945.231 L 563.244 935.877 M 604.899 973.599 L 611.625 981.347 M 647.492 1105.85 L 657.739 1105.33" />
</svg>
