<?xml version="1.0" encoding="UTF-8" standalone="no"?>
<svg
   xmlns:dc="http://purl.org/dc/elements/1.1/"
   xmlns:cc="http://creativecommons.org/ns#"
   xmlns:rdf="http://www.w3.org/1999/02/22-rdf-syntax-ns#"
   xmlns:svg="http://www.w3.org/2000/svg"
   xmlns="http://www.w3.org/2000/svg"
   version="1.1"
   id="svg3476"
   viewBox="0 0 1133.8583 531.49606"
   height="150mm"
   width="320mm">
  <defs
     id="defs3478">
    <style
       type="text/css"
       id="style3504"><![CDATA[
      .b {stroke:rgb(0,0,0);stroke-width:11.500000;fill:none}
      .c {stroke:rgb(128,128,128);stroke-width:5.750000;stroke-dasharray:10.260000, 10.260000;}
      .h {stroke:rgb(240,200,0);stroke-width:11.500000;}
      .m {stroke:rgb(255,0,0);stroke-width:5.750000;}
      .n {stroke:rgb(128,128,128);stroke-width:5.750000}
      .t {stroke:rgb(0,128,0);stroke-width:5.750000;}
      .tab {stroke:rgb(0,0,255);stroke-width:2.875000;fill:none}
      .v {stroke:rgb(0,0,255);stroke-width:5.750000;}
      .z {stroke:rgb(0,240,200);stroke-width:2.875000;}
    ]]></style>
  </defs>
  <metadata
     id="metadata3481">
    <rdf:RDF>
      <cc:Work
         rdf:about="">
        <dc:format>image/svg+xml</dc:format>
        <dc:type
           rdf:resource="http://purl.org/dc/dcmitype/StillImage" />
        <dc:title></dc:title>
      </cc:Work>
    </rdf:RDF>
  </metadata>
  <g
     transform="translate(0,-520.86614)"
     id="layer1">
    <g
       transform="matrix(0.22876793,0,0,0.22876793,415.73134,921.16589)"
       id="layer1-9">
      <g
         transform="matrix(0,1,-1,0,2963.6997,-1627.2749)"
         id="g3523">
        <path
           style="fill:none;stroke:#000000;stroke-width:11.5"
           class="b"
           d="m 383.691,588.19 -167.93,-127.34 -77.183,10.378 42.481,146.206 80.866,97.399 104.023,183.505 146.96,102.132 67.075,-67.921 99.281,-191.5 -88.467,196.729 117.333,-109.128 -94.481,129.419 -46.858,83.171 146.329,117.15 3.522,-56.05 135.653,7.62 142.505,-81.43 39.37,-134.443 63.11,125.073 117.07,115.03 81.04,109.05 51.28,-22.89 -55.45,-126.49 61.72,123.55 -65.09,175.79 -54.33,170.52 -6.59,211 4.6,34.03 -11.18,-32.47 -44.09,-206.44 -107.46,181.51 61.61,92.22 13.49,23.71 -15.89,-22.17 -71.89,-84.45 -37.28,120.98 31.55,44.14 -31.64,-44.08 -107.142,108.17 44.75,91.69 63.932,92.03 -68.77,-88.47 -166.441,138.58 197.387,-39.23 -194.178,52.87 -189.202,30.04 214.041,109.97 33.36,176.61 22.458,112.58 51.493,206.08 261.032,-55.04 44.32,-26.31 -33.07,39.53 153.11,183.95 -196.57,-136.52 -106.15,244.74 200.56,69.7 128.24,106.07 -137.81,-93.29 82.22,242.75 -107.99,-232.43 -60.1,208.8 44.23,-212.73 -211.971,-12.32 -210.681,-27.09 -114.4,-9.51 -179.732,0.2 -146.408,190.98 133.126,5.48 173.327,16.69 121.591,8.26 203.879,32.53 -10.755,250.67 128.504,9.34 -123.562,36.5 -166.102,118.22 -61.667,62.68 48.174,-73.56 123.7,-162.06 L 701.605,3504.59 568.56,3662.46 510.291,3769.5 442.223,3929.77 398.879,4055.76 217.448,3994.27 8,4049.38 l 9.2103,101.61 143.8997,-12.61 172.002,82.09 -173.313,-79.29 -139.4836,37.56 11.0923,77.08 179.1903,35.18 77.979,38 207.406,95.91 132.381,74.13 37.947,-69.03 -110.221,-120.19 54.065,-134.44 36.735,-102.64 -26.231,105.82 -18.107,143.76 139.608,-129.85 -132.035,137.54 138.594,85.94 62.234,-79.43 3.59,-195.4 115.797,-84.97 36.795,-27.72 -34.148,30.92 -97.583,105.39 52.29,188.31 38.582,-49.67 -34.164,52.8 -21.065,98.69 15.81,77.17 10.821,26.49 111.252,-4.68 61.67,-79.43 102.42,-189.23 -90.55,195.18 210.31,-20.5 190.92,-59.31 -240.05,-125.44 -110.81,-39.14 44,-78.46 -88.88,-157.45 111.54,142.3 189.88,-367.42 -48.94,410.68 34.95,6.06 -27.43,22.48 14.53,88.78 113.76,-29.47 198.06,184.75 23.09,-190.82 88.95,151.98 75.84,-61.65 151.67,36.78 30.83,-56.44 -157.48,-170.6 -178.08,19.83 150.42,-97.36 -98.45,-11.23 -49.29,21.83 -1.45,-53.89 -245.13,163.31 131.23,-263.71 -49.36,-73.44 85.94,21.08 71.14,-68.97 -68.72,-243.96 -43.88,2.38 -96.93,-55.43 -255.48,173.59 227.89,-208.49 109.4,22.34 29.07,-32.96 -85.82,-159.8 131.31,125.13 249.37,45.33 21.67,-231.15 -59.14,16.3 22.46,-221.54 -65.4,5.26 -137.57,233.39 129.23,-238.11 65.21,-7.3 64.54,-55.23 -69.79,7.8 -64.01,2.63 -161.86,61.7 -204.84,-16.11 153.18,-136.95 69.01,-158.88 -135.2,109.52 -154.41,95.51 85.28,-160.29 66.15,-160.93 -220.81,-16.12 -108.62,-26.31 -40.21,-10.08 41.44,-0.98 -70.85,-89.26 84.05,76.96 103.56,-42.04 -146.29,-59.17 150.85,46.31 182.62,-125.17 -25.48,-58.77 -32.52,-62.25 -157.88,66.49 17.15,67.97 -176.2,-66.77 -65.94,-9.42 66.51,-3.57 181.09,-52.08 -51.41,-47.66 -122.4,-157.86 97.99,-72.01 -96.51,73.98 123.28,157.17 98.14,-140.42 -60.94,-123.28 77.1,113.88 83.89,-13.39 -56.41,-35.01 58.06,32.2 123.52,-185.28 -60.39,-10.77 -62.07,-16.87 -85.69,51.43 81.27,-58.17 -15.12,-155.34 -77.36,-59.74 -41.96,106.46 33.17,-109.52 127.23,-121.74 -170.78,-88.21 75.9,-184.95 -25.27,-67.5 44.22,56.92 180.37,-110.06 28.61,-96.42 -91.43,58.06 -66.8,-49.34 -52.65,-85.205 63.88,77.135 71.42,42.4 77.43,-75.727 95.61,-57.056 21.17,19.254 120.02,-92.822 -28.17,-23.927 -91.26,-78.903 -111.21,102.564 -62.83,-35.254 4.17,-163.265 -159.09,237.31 -207.61,-6.17 -36.87,-13.726 -15.03,81.583 -17.99,-80.981 -132.741,-93.103 -98.868,-100.54 111.609,86.181 161.86,-9.44 23.14,-31.823 38.06,-204.185 -115.31,58 -47.45,76.3 32.69,-83.693 89.51,-92.998 L 926.562,360.133 1074.98,291.989 1061.97,221.133 911.94,201.673 710.185,363.884 871.303,161.255 843.127,43.9544 834.549,8 607.198,30.942 520.748,38.1067 614.267,68.4712 639.693,194.943 590.56,75.6637 492.776,65.3598 335.37,157.934 l 46.918,53.632 -66.565,-25.434 85.922,192.441 4.347,167.289 L 651.61,439.497 969.319,567.067 630.744,516.27 470.941,730.99 383.691,588.19"
           id="path3506" />
        <path
           style="stroke:#808080;stroke-width:5.75;stroke-dasharray:10.26, 10.26"
           class="c"
           d="m 215.761,460.85 -34.702,156.584 m 0,0 202.632,-29.244 M 261.925,714.833 383.691,588.19 M 261.925,714.833 470.941,730.99 M 679.264,741.049 470.941,730.99 M 679.264,741.049 630.744,516.27 M 651.61,439.497 382.288,211.566 m 0,0 327.897,152.318 m 0,0 -58.575,75.613 M 639.693,194.943 710.185,363.884 M 639.693,194.943 382.288,211.566 M 335.37,157.934 639.693,194.943 M 590.56,75.6637 335.37,157.934 m 66.275,220.639 -19.357,-167.007 m 19.357,167.007 249.965,60.924 m 274.952,-79.364 42.757,206.934 m 0,0 -74.358,107.48 m 0,0 L 630.744,516.27 m 48.52,224.779 215.697,-66.502 m 0,0 171.909,-24.967 m 0,0 124.7,69.885 m 0,0 -77.25,-146.185 m -14.76,-7.393 -172.998,-205.754 m 0,0 -216.377,3.751 m 216.377,-3.751 -14.622,-158.46 m 0,0 163.04,90.316 M 871.303,161.255 639.693,194.943 M 614.267,68.4712 871.303,161.255 M 843.127,43.9544 614.267,68.4712 M 607.198,30.942 843.127,43.9544 M 607.198,30.942 l 7.069,37.5292 m 355.052,498.5958 130.241,-1.18 m -32.69,83.693 101.56,101.708 m -41.86,116.902 -92.4,25.897 m 0,0 -40.341,-119 m 40.341,119 110.39,55.084 m 0,0 -47.28,69.989 m 47.28,-69.989 51.9,-67.857 m -51.9,67.857 258.37,-13.396 m 0,0 -206.47,-54.461 m 207.61,6.17 154.92,-74.045 m 62.83,35.254 89.45,73.834 m 0,0 113.02,-97.495 m 0,0 -202.47,23.661 m -6.16,130.89 -148.85,33.327 m -11.23,8.07 -94.97,140.84 m 0,0 -69.39,-67.96 m 0,0 -193.94,-74.7 m 117.07,115.03 76.87,-40.33 m 0,0 -146.66,-144.689 m 146.66,144.689 164.36,-72.88 m 66.8,49.34 -117.55,148.42 m -18.95,10.58 -32.94,-11.91 m 0,0 7.67,-55.59 m 0,0 161.77,-91.5 m 62.82,38.36 -62.82,-38.36 m 93.28,-90.737 -212.73,-43.808 m 0,0 1.14,-48.291 m -1.14,48.291 -111.71,158.085 m 55.45,126.49 -132.32,-86.16 m 73.5,259.01 98.03,-163.88 m -98.03,163.88 22.13,21.07 m 0,0 -76.46,149.45 m 0,0 247.24,-61.24 m -247.24,61.24 120.01,60.5 m -33.17,109.52 -86.84,-170.02 m 86.84,170.02 119.32,-46.72 m -119.32,46.72 53.17,166.79 m 0,0 26.57,129.29 m 0,0 121.19,-163.85 m -62.07,-16.87 -59.12,180.72 m 0,0 -27.48,48.4 m -16.16,9.4 -124.91,-90.73 m 0,0 -87.65,-129.61 m 0,0 76.45,-91 m 0,0 -89.94,67.29 m 101.12,-34.82 -87.63,58.53 m -93.51,58.5 77.62,-80.67 m -77.62,80.67 93.51,-58.5 m -93.51,58.5 83.17,143.12 m 0,0 -7.28,257.6 m -0.57,12.99 41.46,132.19 m 0,0 42.73,101.21 m -14.43,23.36 30.32,195.02 m 0,0 232.96,8.34 m 0,0 -154.66,-177.05 m 0,0 -78.3,168.71 m 0,0 147.68,168.63 m 0,0 67.42,90.8 m 0,0 78.82,271.9 m 0,0 162.7,-27.28 m 0,0 180.51,-17.11 m -180.51,17.11 -31.39,152.41 m 0,0 211.9,-169.52 m 37.47,214.85 -37.47,-214.85 m -42.94,-216.28 42.94,216.28 m 13.93,-228.3 -5.25,-47.43 m 0,0 -59.96,54.73 m -4.05,-52.1 4.05,52.1 m -165.91,9.6 165.91,-9.6 m -165.91,9.6 36.68,228.51 m -162.7,27.28 56.75,192.76 m 15.12,67.99 -44.48,289.47 m 0,0 -206.66,312.81 m 0,0 256.02,-239.37 m 112.67,241.05 -232.88,86.17 m 0,0 -11.02,-63.51 m 0,0 -89.84,-18.28 m 0,0 221.07,-245.43 m 112.67,241.05 2.68,-86.76 m 147.74,-10.6 -147.74,10.6 m -14.41,166.86 -221.15,6.07 m 0,0 235.56,-172.93 m -14.41,166.86 11.73,-80.1 m 178.08,-19.83 -25.02,190.26 m 0,0 -164.79,-90.33 m 164.79,90.33 -153.06,-170.43 m -243.9,22.66 246.58,-109.42 m -336.42,91.14 100.86,81.79 m -128.29,-59.31 128.29,59.31 m -232.6,1.64 49.13,184.75 m -49.13,-184.75 -70.63,10.07 m 0,0 -246.744,18.19 m 0,0 206.564,-67.4 m 40.18,49.21 -40.18,-49.21 m -206.564,67.4 40.859,-274.95 m 0,0 -177.859,-196.64 m 0,0 298.684,168.28 m 0,0 -132.582,-286.5 m 123.562,-36.5 160.23,24.44 m 0,0 -151.21,298.56 m 0,0 44.88,235.91 m -206.564,67.4 144.324,171.04 m 11.87,5.95 161.18,-205.25 m -155.69,-275.05 -161.684,303.31 m 0,0 -90.872,-138.64 m -20.861,-23.62 -167.653,-68.38 m 0,0 -204.667,-142.97 m -43.344,125.99 157.211,254.06 m 0,0 -222.978,-89.35 M 288.577,4329 333.112,4220.47 M 288.577,4329 556.09,4309.82 m 0,0 72.274,189.22 m -132.381,-74.13 60.107,-115.09 m 54.065,-134.44 -211.276,-119.62 m 0,0 -65.767,164.71 M 210.598,4291 159.799,4141.18 m 1.311,-2.8 L 8,4049.38 M 20.3154,4178.74 210.598,4291 m 0,0 122.514,-70.53 m -115.664,-226.2 115.664,226.2 m -115.664,-226.2 -56.338,144.11 m 449.045,37 -167.932,-245.61 M 646.89,4072.74 510.291,3769.5 M 727.609,3894.47 510.291,3769.5 M 727.609,3894.47 568.56,3662.46 M 775.783,3820.91 568.56,3662.46 m 207.223,158.45 -74.178,-316.32 m 55.707,-120.06 12.496,-212.1 m -12.496,212.1 223.177,-185.01 m 211.971,12.32 -231.269,205.22 m 0,0 19.298,-217.54 m 167.741,225.05 168.09,23.63 m 0,0 -77.15,253.31 m -160.23,-24.44 9.02,323 m -120.825,28.36 120.825,-28.36 m -154.973,59.28 -6.711,244.03 m 0,0 82.654,250.47 m 0,0 -122.073,-21.81 m 122.073,21.81 -137.883,-98.98 M 810.953,4336.52 742.16,4192.47 m 0,0 -121.501,-13.91 m 26.231,-105.82 80.719,-178.27 M 930.34,4056.15 727.609,3894.47 M 930.34,4056.15 789.276,3831.79 m 25.267,309.33 -86.934,-246.65 m 14.551,298 -95.27,-119.73 m 95.27,119.73 72.383,-51.35 m -72.383,51.35 6.559,223.48 m 260.211,137.9 -116.818,-197.67 m 497.268,-581.23 157.72,97.87 m -157.72,-97.87 -301.42,225.12 m 301.42,-225.12 -150.21,-73.44 m 77.15,-253.31 55.59,-149.46 m 0,0 147.8,23.86 m 0,0 -52.65,170.42 m 0,0 -150.74,-44.82 m -168.09,-23.63 90.94,276.94 m -90.94,-276.94 -69.29,252.5 m 69.29,-252.5 -197.794,243.16 m 197.794,-243.16 -187.039,-7.51 m -325.47,-40.79 19.687,-213.35 m -19.687,213.35 134.087,-203.84 m -307.414,187.15 13.282,-196.46 m -13.282,196.46 193.014,-196.66 m 213.537,-496.38 286.315,-80.37 m 0,0 70.53,205.1 m -70.53,-205.1 26.21,231.41 m 192,142.32 -27.64,54.85 m 0,0 95.06,35.95 m 0,0 -68.98,248.04 m 147.8,23.86 -203.39,125.6 m 178.33,79.72 52.45,344.9 m 88.36,-291.85 -2.42,312.93 m 2.42,-312.93 -88.36,291.85 m -52.45,-344.9 -105.27,247.03 m 256.35,-708.14 -126.02,255.79 m -173.88,-307.85 26.08,283.99 m -26.08,-283.99 -102.16,177.92 m 102.16,-177.92 -302.72,108.22 m 330.36,-163.07 -180.75,-129.1 m 335.16,33.59 66.19,49.36 m -66.19,-49.36 -86.99,186.31 m -315.04,-554.77 41.32,-24.25 m -41.32,24.25 29.41,90.24 m 146.65,-179.91 173.25,-72.21 m -32.52,-62.25 -140.73,134.46 m 0,0 198.73,-13.44 m -198.73,13.44 16.11,111.73 m -16.11,-111.73 -134.74,65.42 m -107.4,-141.61 107.4,141.61 m -107.4,-141.61 66.08,165.86 m -279.363,58.03 279.363,-58.03 m -279.363,58.03 308.773,32.21 m -286.315,80.37 312.525,151.04 m -368.343,-440.23 246.643,-47.28 m -39.48,-156.48 105.99,152.91 m 129.68,-99.74 -129.68,99.74 m 132.04,-98.46 -26.77,-231.15 m 0,0 -0.02,-188.14 m -11.18,-32.47 -151.55,-24.93 m -49.96,130.29 109.17,-36.53 m -77.62,80.67 -30.1,247.81 m 0,0 -37.824,10.88 m 0,0 143.814,142.03 m -143.814,-142.03 77.304,145.6 m -246.643,47.28 312.723,118.58 m -337.562,-258.59 271.482,92.73 m -108.25,-244.95 30.946,99.35 m 151.094,-115.57 -113.27,104.69 m 113.27,-104.69 10.34,-201.62 m 83.03,-92.56 93.43,-40.98 m 0,0 -88.83,75.01 m 63.99,155.59 -63.97,32.55 m 63.97,-32.55 -63.99,-155.59 m 63.99,155.59 78.01,-63.81 m 0,0 -142,-91.78 m 223.27,33.61 -134.44,-108.62 m 79.74,296.08 -104.58,-65.48 m 162.64,97.68 63.13,-196.05 m -609.682,123.9 138.782,-64.09 m -138.782,64.09 108.682,183.72 m -232.002,63.75 24.839,140.01 M 852.295,1109.96 708.13,828.65 m 0,0 8.512,273.69 m 0,0 L 613.649,958.069 M 579.983,932.549 470.941,730.99 M 261.925,714.833 512.908,1000.47 m 0,0 -41.967,-269.48 M 708.13,828.65 679.264,741.049 M 708.13,828.65 894.961,674.547 M 969.319,567.067 710.185,363.884 m 356.685,285.696 -60.3,111.148 m 60.3,-111.148 -97.551,-82.513 M 708.13,828.65 993.829,775.087 M 708.13,828.65 1034.17,894.087 M 708.13,828.65 994.8,1028.53 m -428.009,12.71 149.851,61.1 M 1615.66,979.583 1404.07,887.484 m 211.59,92.099 -56.67,-166.144 m 56.67,166.144 6.16,-130.89 m 230.64,0.266 -141.19,73.568 m 333.42,3415.553 -182.5,19.66"
           id="path3508" />
        <path
           style="fill:none;stroke:#00f0c8;stroke-width:2.875"
           class="z"
           d="m 215.761,460.85 167.93,127.34 87.25,142.8 L 630.744,516.27 969.319,567.067 651.61,439.497 405.992,545.862 401.645,378.573 315.723,186.132 m -99.962,274.718 167.93,127.34 87.25,142.8 L 630.744,516.27 969.319,567.067 651.61,439.497 405.992,545.862 401.645,378.573 315.723,186.132 m 0,0 66.565,25.434 -46.918,-53.632 m -19.647,28.198 66.565,25.434 -46.918,-53.632 M 492.776,65.3598 590.56,75.6637 639.693,194.943 614.267,68.4712 520.748,38.1067 M 492.776,65.3598 590.56,75.6637 639.693,194.943 614.267,68.4712 520.748,38.1067 M 871.303,161.255 710.185,363.884 911.94,201.673 M 871.303,161.255 710.185,363.884 911.94,201.673 m 277.13,271.216 -89.51,92.998 -32.69,83.693 47.45,-76.3 115.31,-58 m -40.56,-42.391 -89.51,92.998 -32.69,83.693 47.45,-76.3 115.31,-58 m -61.2,236.008 -161.86,9.44 -111.609,-86.181 98.868,100.54 132.741,93.103 m 41.86,-116.902 -161.86,9.44 -111.609,-86.181 98.868,100.54 132.741,93.103 m 0,0 17.99,80.981 15.03,-81.583 m -33.02,0.602 17.99,80.981 15.03,-81.583 m 456.07,111.995 -77.43,75.727 -71.42,-42.4 -63.88,-77.135 52.65,85.205 66.8,49.34 91.43,-58.06 m 1.85,-32.677 -77.43,75.727 -71.42,-42.4 -63.88,-77.135 52.65,85.205 66.8,49.34 91.43,-58.06 m -208.98,206.48 -44.22,-56.92 25.27,67.5 m 18.95,-10.58 -44.22,-56.92 25.27,67.5 m -32.35,394.9 -33.17,109.52 41.96,-106.46 m -8.79,-3.06 -33.17,109.52 41.96,-106.46 m 92.48,215.08 -81.27,58.17 85.69,-51.43 m -4.42,-6.74 -81.27,58.17 85.69,-51.43 m -1.06,212.92 -58.06,-32.2 56.41,35.01 m 1.65,-2.81 -58.06,-32.2 56.41,35.01 m -83.89,13.39 -77.1,-113.88 60.94,123.28 m 16.16,-9.4 -77.1,-113.88 60.94,123.28 m -98.14,140.42 -123.28,-157.17 96.51,-73.98 -97.99,72.01 122.4,157.86 m 2.36,1.28 -123.28,-157.17 96.51,-73.98 -97.99,72.01 122.4,157.86 m 0,0 51.41,47.66 -181.09,52.08 -66.51,3.57 65.94,9.42 176.2,66.77 -17.15,-67.97 m -28.8,-111.53 51.41,47.66 -181.09,52.08 -66.51,3.57 65.94,9.42 176.2,66.77 -17.15,-67.97 m 33.26,179.7 -150.85,-46.31 146.29,59.17 m 4.56,-12.86 -150.85,-46.31 146.29,59.17 m -103.56,42.04 -84.05,-76.96 70.85,89.26 m 13.2,-12.3 -84.05,-76.96 70.85,89.26 m 0,0 -41.44,0.98 40.21,10.08 m 1.23,-11.06 -41.44,0.98 40.21,10.08 m 329.43,42.43 -66.15,160.93 -85.28,160.29 154.41,-95.51 135.2,-109.52 m -138.18,-116.19 -66.15,160.93 -85.28,160.29 154.41,-95.51 135.2,-109.52 m 0,0 -69.01,158.88 -153.18,136.95 204.84,16.11 161.86,-61.7 m -144.51,-250.24 -69.01,158.88 -153.18,136.95 204.84,16.11 161.86,-61.7 m 69.26,44.8 -65.21,7.3 -129.23,238.11 137.57,-233.39 65.4,-5.26 m -8.53,-6.76 -65.21,7.3 -129.23,238.11 137.57,-233.39 65.4,-5.26 m -234.36,391.06 -131.31,-125.13 85.82,159.8 m 45.49,-34.67 -131.31,-125.13 85.82,159.8 m 0,0 -29.07,32.96 -109.4,-22.34 -227.89,208.49 255.48,-173.59 96.93,55.43 43.88,-2.38 m -29.93,-98.57 -29.07,32.96 -109.4,-22.34 -227.89,208.49 255.48,-173.59 96.93,55.43 43.88,-2.38 m -2.42,312.93 -85.94,-21.08 49.36,73.44 m 36.58,-52.36 -85.94,-21.08 49.36,73.44 m 0,0 -131.23,263.71 245.13,-163.31 m -113.9,-100.4 -131.23,263.71 245.13,-163.31 m 0,0 1.45,53.89 49.29,-21.83 m -50.74,-32.06 1.45,53.89 49.29,-21.83 m 98.45,11.23 -150.42,97.36 178.08,-19.83 m -27.66,-77.53 -150.42,97.36 178.08,-19.83 m -539.25,46.69 27.43,-22.48 -34.95,-6.06 m 7.52,28.54 27.43,-22.48 -34.95,-6.06 m 0,0 48.94,-410.68 -189.88,367.42 m 140.94,43.26 48.94,-410.68 -189.88,367.42 m 0,0 -111.54,-142.3 88.88,157.45 m 22.66,-15.15 -111.54,-142.3 88.88,157.45 m -94.37,322.85 90.55,-195.18 -102.42,189.23 m 11.87,5.95 90.55,-195.18 -102.42,189.23 m -178.488,-118.24 34.164,-52.8 -38.582,49.67 m 4.418,3.13 34.164,-52.8 -38.582,49.67 m 0,0 -52.29,-188.31 97.583,-105.39 34.148,-30.92 -36.795,27.72 -115.797,84.97 -3.59,195.4 m 76.741,16.53 -52.29,-188.31 97.583,-105.39 34.148,-30.92 -36.795,27.72 -115.797,84.97 -3.59,195.4 m -200.828,-6.51 132.035,-137.54 -139.608,129.85 m 7.573,7.69 132.035,-137.54 -139.608,129.85 m 0,0 18.107,-143.76 26.231,-105.82 -36.735,102.64 -54.065,134.44 m 46.462,12.5 18.107,-143.76 26.231,-105.82 -36.735,102.64 -54.065,134.44 M 20.3154,4178.74 159.799,4141.18 333.112,4220.47 161.11,4138.38 17.2103,4150.99 m 3.1051,27.75 139.4836,-37.56 173.313,79.29 -172.002,-82.09 -143.8997,12.61 m 882.2727,-492.14 -123.7,162.06 -48.174,73.56 61.667,-62.68 166.102,-118.22 m -55.895,-54.72 -123.7,162.06 -48.174,73.56 61.667,-62.68 166.102,-118.22 m 0,0 123.562,-36.5 -128.504,-9.34 m 4.942,45.84 123.562,-36.5 -128.504,-9.34 m 242.024,-455.89 -44.23,212.73 60.1,-208.8 m -15.87,-3.93 -44.23,212.73 60.1,-208.8 m 0,0 107.99,232.43 -82.22,-242.75 m -25.77,10.32 107.99,232.43 -82.22,-242.75 m 0,0 137.81,93.29 -128.24,-106.07 m -9.57,12.78 137.81,93.29 -128.24,-106.07 m -94.41,-314.44 196.57,136.52 -153.11,-183.95 m -43.46,47.43 196.57,136.52 -153.11,-183.95 m 0,0 33.07,-39.53 -44.32,26.31 m 11.25,13.22 33.07,-39.53 -44.32,26.31 m -393.182,-580.24 194.178,-52.87 -197.387,39.23 m 3.209,13.64 194.178,-52.87 -197.387,39.23 m 166.441,-138.58 68.77,88.47 -63.932,-92.03 m -4.838,3.56 68.77,88.47 -63.932,-92.03 m 62.392,-199.86 31.64,44.08 -31.55,-44.14 m -0.09,0.06 31.64,44.08 -31.55,-44.14 m 37.28,-120.98 71.89,84.45 15.89,22.17 -13.49,-23.71 -61.61,-92.22 m -12.68,9.31 71.89,84.45 15.89,22.17 -13.49,-23.71 -61.61,-92.22 m 107.46,-181.51 44.09,206.44 11.18,32.47 -4.6,-34.03 6.59,-211 m -57.26,6.12 44.09,206.44 11.18,32.47 -4.6,-34.03 6.59,-211 m 119.42,-346.31 -61.72,-123.55 55.45,126.49 m 6.27,-2.94 -61.72,-123.55 55.45,126.49 m 0,0 -51.28,22.89 -81.04,-109.05 -117.07,-115.03 -63.11,-125.073 -39.37,134.443 -142.505,81.43 -135.653,-7.62 -3.522,56.05 m 633.55,61.96 -51.28,22.89 -81.04,-109.05 -117.07,-115.03 -63.11,-125.073 -39.37,134.443 -142.505,81.43 -135.653,-7.62 -3.522,56.05 M 613.649,958.069 708.13,828.65 590.797,937.778 M 613.649,958.069 708.13,828.65 590.797,937.778 m 0,0 88.467,-196.729 -99.281,191.5 m 10.814,5.229 88.467,-196.729 -99.281,191.5"
           id="path3510" />
        <path
           style="stroke:#00f0c8;stroke-width:2.875"
           class="z"
           d="m 964.189,561.937 10.26,0 0,10.26 -10.26,0 0,-10.26 m 0,0 10.26,0 0,10.26 -10.26,0 0,-10.26 m -587.031,-355.501 10.26,0 0,10.26 -10.26,0 0,-10.26 m 0,0 10.26,0 0,10.26 -10.26,0 0,-10.26 m 257.405,-16.623 10.26,0 0,10.26 -10.26,0 0,-10.26 m 0,0 10.26,0 0,10.26 -10.26,0 0,-10.26 m 70.492,168.941 10.26,0 0,10.26 -10.26,0 0,-10.26 m 0,0 10.26,0 0,10.26 -10.26,0 0,-10.26 m 356.685,285.696 10.26,0 0,10.26 -10.26,0 0,-10.26 m 0,0 10.26,0 0,10.26 -10.26,0 0,-10.26 m -171.909,24.967 10.26,0 0,10.26 -10.26,0 0,-10.26 m 0,0 10.26,0 0,10.26 -10.26,0 0,-10.26 m 249.599,274.624 10.26,0 0,10.26 -10.26,0 0,-10.26 m 0,0 10.26,0 0,10.26 -10.26,0 0,-10.26 m 258.37,-13.396 10.26,0 0,10.26 -10.26,0 0,-10.26 m 0,0 10.26,0 0,10.26 -10.26,0 0,-10.26 m -42.32,226.045 10.26,0 0,10.26 -10.26,0 0,-10.26 m 0,0 10.26,0 0,10.26 -10.26,0 0,-10.26 m -40.25,571.92 10.26,0 0,10.26 -10.26,0 0,-10.26 m 0,0 10.26,0 0,10.26 -10.26,0 0,-10.26 m 53.17,166.79 10.26,0 0,10.26 -10.26,0 0,-10.26 m 0,0 10.26,0 0,10.26 -10.26,0 0,-10.26 m 26.57,129.29 10.26,0 0,10.26 -10.26,0 0,-10.26 m 0,0 10.26,0 0,10.26 -10.26,0 0,-10.26 m -104.58,-65.48 10.26,0 0,10.26 -10.26,0 0,-10.26 m 0,0 10.26,0 0,10.26 -10.26,0 0,-10.26 m -63.97,32.55 10.26,0 0,10.26 -10.26,0 0,-10.26 m 0,0 10.26,0 0,10.26 -10.26,0 0,-10.26 m -171.78,333.18 10.26,0 0,10.26 -10.26,0 0,-10.26 m 0,0 10.26,0 0,10.26 -10.26,0 0,-10.26 m 107.4,141.61 10.26,0 0,10.26 -10.26,0 0,-10.26 m 0,0 10.26,0 0,10.26 -10.26,0 0,-10.26 m -41.32,24.25 10.26,0 0,10.26 -10.26,0 0,-10.26 m 0,0 10.26,0 0,10.26 -10.26,0 0,-10.26 m 29.41,90.24 10.26,0 0,10.26 -10.26,0 0,-10.26 m 0,0 10.26,0 0,10.26 -10.26,0 0,-10.26 m 218.21,373.73 10.26,0 0,10.26 -10.26,0 0,-10.26 m 0,0 10.26,0 0,10.26 -10.26,0 0,-10.26 m 67.42,90.8 10.26,0 0,10.26 -10.26,0 0,-10.26 m 0,0 10.26,0 0,10.26 -10.26,0 0,-10.26 m 241.52,244.62 10.26,0 0,10.26 -10.26,0 0,-10.26 m 0,0 10.26,0 0,10.26 -10.26,0 0,-10.26 m -162.7,27.28 10.26,0 0,10.26 -10.26,0 0,-10.26 m 0,0 10.26,0 0,10.26 -10.26,0 0,-10.26 m -280.54,378.91 10.26,0 0,10.26 -10.26,0 0,-10.26 m 0,0 10.26,0 0,10.26 -10.26,0 0,-10.26 m 307.93,171.31 10.26,0 0,10.26 -10.26,0 0,-10.26 m 0,0 10.26,0 0,10.26 -10.26,0 0,-10.26 m -81.87,337.15 10.26,0 0,10.26 -10.26,0 0,-10.26 m 0,0 10.26,0 0,10.26 -10.26,0 0,-10.26 m 246.58,-109.42 10.26,0 0,10.26 -10.26,0 0,-10.26 m 0,0 10.26,0 0,10.26 -10.26,0 0,-10.26 m -2.68,86.76 10.26,0 0,10.26 -10.26,0 0,-10.26 m 0,0 10.26,0 0,10.26 -10.26,0 0,-10.26 m -333.74,4.38 10.26,0 0,10.26 -10.26,0 0,-10.26 m 0,0 10.26,0 0,10.26 -10.26,0 0,-10.26 m 13.99,-416.74 10.26,0 0,10.26 -10.26,0 0,-10.26 m 0,0 10.26,0 0,10.26 -10.26,0 0,-10.26 m -301.42,225.12 10.26,0 0,10.26 -10.26,0 0,-10.26 m 0,0 10.26,0 0,10.26 -10.26,0 0,-10.26 m 85.06,285.12 10.26,0 0,10.26 -10.26,0 0,-10.26 m 0,0 10.26,0 0,10.26 -10.26,0 0,-10.26 m -246.744,18.19 10.26,0 0,10.26 -10.26,0 0,-10.26 m 0,0 10.26,0 0,10.26 -10.26,0 0,-10.26 m 40.859,-274.95 10.26,0 0,10.26 -10.26,0 0,-10.26 m 0,0 10.26,0 0,10.26 -10.26,0 0,-10.26 m -224.975,164.04 10.26,0 0,10.26 -10.26,0 0,-10.26 m 0,0 10.26,0 0,10.26 -10.26,0 0,-10.26 m -95.27,-119.73 10.26,0 0,10.26 -10.26,0 0,-10.26 m 0,0 10.26,0 0,10.26 -10.26,0 0,-10.26 m -313.778,147.73 10.26,0 0,10.26 -10.26,0 0,-10.26 m 0,0 10.26,0 0,10.26 -10.26,0 0,-10.26 m 394.497,-326 10.26,0 0,10.26 -10.26,0 0,-10.26 m 0,0 10.26,0 0,10.26 -10.26,0 0,-10.26 m 351.331,-217.4 10.26,0 0,10.26 -10.26,0 0,-10.26 m 0,0 10.26,0 0,10.26 -10.26,0 0,-10.26 m 69.29,-252.5 10.26,0 0,10.26 -10.26,0 0,-10.26 m 0,0 10.26,0 0,10.26 -10.26,0 0,-10.26 m 168.09,23.63 10.26,0 0,10.26 -10.26,0 0,-10.26 m 0,0 10.26,0 0,10.26 -10.26,0 0,-10.26 m 55.59,-149.46 10.26,0 0,10.26 -10.26,0 0,-10.26 m 0,0 10.26,0 0,10.26 -10.26,0 0,-10.26 m -26.08,-283.99 10.26,0 0,10.26 -10.26,0 0,-10.26 m 0,0 10.26,0 0,10.26 -10.26,0 0,-10.26 m -120.04,-223.48 10.26,0 0,10.26 -10.26,0 0,-10.26 m 0,0 10.26,0 0,10.26 -10.26,0 0,-10.26 m -243.324,-606.8 10.26,0 0,10.26 -10.26,0 0,-10.26 m 0,0 10.26,0 0,10.26 -10.26,0 0,-10.26 m 37.824,-10.88 10.26,0 0,10.26 -10.26,0 0,-10.26 m 0,0 10.26,0 0,10.26 -10.26,0 0,-10.26 m 30.1,-247.81 10.26,0 0,10.26 -10.26,0 0,-10.26 m 0,0 10.26,0 0,10.26 -10.26,0 0,-10.26 m 93.51,-58.5 10.26,0 0,10.26 -10.26,0 0,-10.26 m 0,0 10.26,0 0,10.26 -10.26,0 0,-10.26 m 87.63,-58.53 10.26,0 0,10.26 -10.26,0 0,-10.26 m 0,0 10.26,0 0,10.26 -10.26,0 0,-10.26 m 59.69,-714.89 10.26,0 0,10.26 -10.26,0 0,-10.26 m 0,0 10.26,0 0,10.26 -10.26,0 0,-10.26 m -257.05,-199.773 10.26,0 0,10.26 -10.26,0 0,-10.26 m 0,0 10.26,0 0,10.26 -10.26,0 0,-10.26 M 703,823.52 l 10.26,0 0,10.26 -10.26,0 0,-10.26 m 0,0 10.26,0 0,10.26 -10.26,0 0,-10.26 m -28.866,-87.601 10.26,0 0,10.26 -10.26,0 0,-10.26 m 0,0 10.26,0 0,10.26 -10.26,0 0,-10.26"
           id="path3512" />
        <path
           style="stroke:#f0c800;stroke-width:11.5"
           class="h"
           d="m 207.085,499.996 -17.351,78.292 m 41.983,31.835 101.316,-14.622 m 71.872,-91.461 -2.174,-83.645 m 61.405,-26.591 124.982,30.462 m 141.919,47.123 158.854,63.786 m 48.046,133.13 85.953,-12.483 m -31.702,-267.5 131.252,56.378 m -98.98,-228.432 -75.012,-9.73 m -87.947,35.688 -100.877,81.105 m 70.399,-111.419 -80.559,101.315 m -35.076,215.742 169.287,25.399 m -151.487,170.055 107.849,-33.25 m -86.199,98.951 93.415,-77.051 m -68.698,102.186 142.849,-26.781 m -132.765,56.531 163.017,32.719 M 816.254,1039.64 744.171,898.978 m -33.913,-1.906 4.256,136.848 m -23.62,32.35 -51.497,-72.133 m -60.892,26.313 23.429,-41.589 m -72.257,4.63 33.537,-33.962 m -10.492,-67.37 -54.521,-100.78 m -49.072,-86.089 -43.625,-71.4 m -91.325,94.982 104.508,8.078 m -94.016,59.293 125.491,142.819 m 153.211,141.468 73.165,58.57 m 7.972,-268.095 -47.241,64.709 m 41.528,-69.782 -58.667,54.564 M 700.913,806.75 686.48,762.949 m -59.297,-24.415 -104.161,-5.03 m 144.112,-48.65 -24.26,-112.39 M 396.806,336.821 387.127,253.318 M 526.763,96.2311 399.168,137.366 M 666.18,34.1951 784.144,40.7013 m 739.246,668.8007 -79.55,118.655 m 118.92,128.401 -105.79,-46.049 m 121.48,77.406 -74.43,16.665 m -72.18,51.61 -47.49,70.42 m -46.84,59.91 -30.86,-61.77 m 26.16,63.98 -27.73,-63.25 m 144.84,65.74 90.19,-55.02 m -47.12,-28.77 -58.77,74.2 m -121.86,170.6 49.02,-81.94 m -57.26,78.96 32.55,-87.89 m 48.67,332.43 63.61,-60.88 m -118.1,174.22 20.98,-53.23 m -23.18,52.46 16.59,-54.76 m -46.59,39.63 -43.42,-85.01 m -26.65,115.75 3.29,-105.5 m -22.55,108.2 -22.04,-103.22 m -4.82,148.6 -75.77,-12.46 m 8.32,62.93 -30.81,-46.11 m 25.84,49.59 -35.95,-42.23 m -27.96,90.74 54.59,-18.27 m 39.21,7.5 -7.95,-11.09 m 8.55,10.7 -6.75,-11.85 m 75.85,-26.12 -43.82,29.27 m 32.05,-59.54 -44.97,33.64 m 75.85,-26.12 -5.6,-16.23 m 7.24,15.84 -2.3,-17.01 m 22.21,-18.76 46.71,-20.49 m 1.15,8.51 -44.41,37.5 m 79.91,-14.55 26.59,83.39 m -22.21,18.75 -71,-45.89 m 12.5,93.75 -32,-77.8 m 67.5,100.75 39,-31.91 m 26.14,16.37 13.29,64.65 m -19.51,15.95 -52.28,-32.74 m -42.14,-8.23 -31.99,16.27 m -37.9,-24.26 -43.83,-64.81 m -92.04,11.48 46.75,-29.25 m -78.02,32.84 -15.77,-22.07 m 15.75,22.08 -15.82,-22.04 m 16.21,95.01 -15.05,123.91 m 103.92,21.66 -3.64,128.8 m 95.44,-10.4 -64.84,49.87 m -72.08,63.9 53.7,70.81 m 127.91,-13.66 -67.38,32.7 m 105.09,-21.13 8.06,55.87 m 49.68,-3.37 91.31,-62.58 m 26.54,-75.37 12.74,29.38 m -43.5,-90.76 16.26,31.12 m -59.57,-13.06 -70.37,67.23 m 8.13,15.56 86.63,-36.11 m -142.8,3.19 8.57,33.98 m -28.81,-150.59 25.71,23.82 m -42.89,-92.25 -13.39,-115.57 m -30.82,-39.3 -48.25,36.99 m 47.88,-37.48 -48.99,36.01 m 183.16,5.9 -30.46,-61.64 m 42.58,54.59 -38.54,-56.94 m 78.43,49.11 -13.74,24.2 m 34.71,-27.54 28.2,17.5 m -27.79,-18.21 29.03,16.1 m 45.4,-38.27 61.76,-92.64 m 15.78,-49.01 -30.19,-5.39 m -30.62,-6.91 -31.03,-8.44 m -23.72,-49.78 -7.56,-77.67 m -22.27,89.35 -67.22,-54.32 m -3.78,-38.83 59.66,-23.36 m -16,187.28 40.63,-29.08 m -39.53,30.77 42.85,-25.72 m -7.41,126.91 60.6,-81.93 m -544.687,66.92 69.387,-32.05 m -105.78,177.97 -83.221,69.28 m -174.093,105.82 107.021,54.99 m 131.691,57.14 156.362,59.29 m 188.12,96.09 51.78,-21.02 m -64.95,61.47 54.31,13.15 m 7.58,48.76 -39.15,84.35 m 38.67,44.27 116.48,4.16 m 36.92,42.16 -42.64,80.15 m 94.49,-31.56 -77.21,47.75 m 132.36,-59.29 33.1,24.68 m -15.85,-64.4 67.6,-54.76 m -153.99,-22.87 33.07,-80.47 m -149.07,-52.32 110.41,8.06 m -199.55,407.15 -151.36,54.11 m 74.74,79.34 -100.28,-34.86 m 46.22,68.37 -105.99,-6.16 m -211.001,-23.4 105.34,13.55 m -114.713,145.53 111.589,-92.51 m 174.085,239.59 -98.895,121.58 m 171.085,-113.13 45.47,138.46 m 291.32,-18.12 26.23,172.45 m 116.83,90.06 35.57,-34.49 m -73.02,-188.24 -44.18,145.93 m -71.16,344.18 65.62,-131.85 m -37.14,156.95 122.57,-81.66 m 136.64,-5.95 49.22,5.61 m 91.64,122.99 78.74,85.3 m 31.66,56.76 -15.41,28.22 m -45.62,4.91 -75.84,-18.39 m -79.12,-31.78 -82.4,-45.16 m 25.52,91.4 -44.48,-75.99 m -77.52,-36.47 -110.57,3.03 m -140.61,23.62 56.88,-14.73 m -24.12,88.35 -120.03,-62.72 m -77.67,-28.84 -35.32,5.03 m -27.7,-9.78 -20.09,-24.61 m 17.66,-2.51 55.4,19.57 m -104.61,24.4 -123.369,9.09 m -10.045,-12.3 103.284,-33.7 m -144.709,-18.19 20.43,-137.47 m 142.259,-38.12 22.44,117.95 m -25.41,250.11 51.2,-94.62 m -42.3,99.09 45.27,-97.6 m 89.82,131.01 -105.15,10.26 m -110.71,58.74 30.84,-39.71 m -80.724,34.83 -68.939,-49.5 m 75.596,75.41 -55.624,2.34 M 714.071,4394.47 644.773,4351.5 m -6.018,48.46 -55.11,-60.09 m 160.155,-91.53 3.279,111.74 m -308.897,-240.8 78.605,127.03 m -275.561,27.06 61.258,-35.27 m -56.12,-187.28 57.832,113.1 m -236.31,42.88 95.141,56.13 M 60.3619,4035.6 165.086,4008.04 M 757.238,3741.83 720.15,3583.67 m 143.797,290.19 149.343,84.14 m 391.16,167.79 128,-119.69 m 92.34,405.94 -99.02,-92.37 m 365.25,-880.32 -18.73,-107.42 m 5.41,-57.79 29.58,-8.16 m -27.51,-153.92 -11.23,110.77 m -37.82,-106.83 21.47,108.14 m -135.39,12.83 68.79,-116.7 m 23.02,-102.13 2.02,26.04 m 44.97,-41.04 -32.01,1.31 m 51.94,33.6 -2.62,-23.71 m 51.03,-17.71 -34.89,3.9 m -234.15,123.4 18.34,114.26 m 41.48,-2.4 64.61,-119.06 m -51.8,174.31 90.26,-8.55 m -143.23,50.93 -15.69,76.21 m -98.49,-93.85 81.35,-13.64 m -172.87,51.86 -101.69,62.8 m -112.52,-150.66 41.12,121.37 m -60.44,-113.63 53.99,116.21 m 616.49,45.18 10.83,-115.57 M 881.818,2718.06 907.564,2821.1 m -541.694,485.26 73.204,-95.49 m 1167.586,-2174.5 -14.31,48.21 m 47.21,-119.261 47.81,-28.528 m 52.16,-38.638 56.5,-48.747 m 21.13,17.945 -70.59,36.784 m -96.95,-81.083 55.61,-51.282 m -88.03,175.091 3.08,-65.446"
           id="path3514" />
        <path
           style="stroke:#f0c800;stroke-width:11.5"
           class="h"
           d="m 23.7894,4202.88 9.2794,4.38 m 48.051,58.32 -5.8847,-8.41 m -65.63168,-190.1 9.28328,4.37 m 126.1633,-58.12 1.307,10.17 m 119.045,-12.97 3.149,9.77 m 157.044,-42.18 7.009,7.49 m 40.712,-129.04 6.423,8 m 43.11,-118.13 8.314,6.01 m 59.345,-116.02 7.27,7.24 m 139.836,-111 1.347,10.17 m 51.984,-152.93 7.239,-7.27 m -136.259,-4.58 4.767,-9.08 m -125.125,-1.76 4.994,-8.97 m -135.238,-0.76 3.225,-9.74 m 12.017,-120.55 2.68,9.9 m 190.985,-74.13 -6.423,8 m 114.439,-1.99 -4.182,9.37 m 200.062,13.93 -6.724,7.75 m 150.098,4.56 -4.59,9.17 m 62.53,-62.17 8.72,-5.41 m -22.67,-180.86 10.04,2.12 m -32.94,-130.27 -8.1,-6.29 m -173.828,-13.38 10.26,0 m -56.136,-191.85 10.169,-1.36 m -30.997,-104.88 10.225,-0.84 m -108.853,-178.1 4.251,-9.33 m -7.301,-85.85 5.058,8.93 m 99.273,-78.41 10.24,0.63 m 95.716,-110.83 5.677,8.55 m -4.106,-123.18 9.951,-2.5 m 68.961,-99.96 10.25,-0.35 m 82.32,-186.03 6.71,7.76 m 288.7,-0.36 -8.55,5.67 m 38.95,91.46 -9.93,-2.58 m 68.55,97.74 -5.47,8.68 m 38.92,-1.28 -3.99,9.45 m 27.86,25.55 -7.6,-6.9 m -152.91,176.07 -0.65,-10.24 m -133.42,149.91 -1.74,-10.11 m 34.56,128.25 0.04,10.26 m 119.74,105.68 -9.71,-3.32 m 75.76,-81.45 -9.98,2.36 m -19.56,-63.72 -8.5,5.74 m -201.23,250.6 -7.05,-7.45 m -5.51,56.08 -0.55,10.24 m 194.01,15.47 1.78,10.1 m 409.9,361.96 -4.91,9.01 m 72.8,-14.42 -5.39,8.73 m 14.87,7.52 -9.93,-2.59 m -41.94,233.36 -2.51,-9.94 m 40.49,31.4 -0.18,10.26 m 2.2,153.46 -2.81,-9.87 m -91.6,56.3 2.55,-9.94 m -134.61,271.27 -2.96,9.83 m 9.24,94.37 -1.95,-10.08 m 150.37,254.67 -10.2,1.12 m 105.53,125.42 -4.36,9.29 m 14.5,153.67 9.63,-3.54 m 87.54,-21.12 -10.25,0.34 m -186.89,23.52 -8.17,-6.21 m -117.09,-72.57 9.49,3.9 m -42.18,93.49 -8.84,-5.19 m -72.28,0.56 6.36,-8.06 m -152.18,27.74 -8.66,-5.51 m -51.69,-49.87 -7.12,7.39 m 19.03,-69.95 -6.2,-8.17 m -45.41,-25.9 10.17,1.35 m -189.35,-7.61 -0.86,10.22 m -19.6,-65.64 -3.35,-9.7 m 89.61,278.79 0.11,-10.26 m -222.37,85.77 -3.75,-9.55 m -60.994,25.33 -9.668,-3.44 m -53.791,-10.04 10.214,0.97 m -18.535,-31.02 9.751,3.19 m -6.235,-132.82 5.979,8.34 m -98.317,-33.23 -3.068,-9.79 m -82.071,42.97 1.692,-10.12 m -75.952,14.34 -0.622,10.24 m 3.887,75.93 -4.411,-9.27 m -64.016,-6.32 -0.877,-10.22 m -255.551,-115.53 10.181,-1.27 m -48.209,-16.65 5.079,-8.91 m 679.118,-850.82 10.057,-2.02 m 486.689,-1934.46 -10.11,1.7 m -78.76,-84.12 -7.64,6.86 m -38.11,-64.08 -10.07,2 m -28.96,21.96 10.17,1.38 m 31.25,-115.64 6.98,-7.52 m 117.94,-96.74 5.32,-8.78 m 154.96,-154.57 -9.25,4.45 m 62.6,-81.34 -3.75,-9.55 m 65.4,-8.141 8.55,-5.665 m 53.31,-27.892 -9.83,2.908 m 52.98,-74.405 -8.03,6.383 m -25.32,-35.155 -9.89,2.756 m -146.31,29.478 10.25,-0.412 m -76.27,-10.537 2.65,9.911 m -16.07,-56.408 -8.32,6.003 m -67.14,-13.526 8.73,5.386 m -142.5,113.015 7.42,7.088 m -186.93,-21.065 -3.35,9.698 m 7.86,-140.38 -7.85,-6.608 m 51.96,-166.899 -10.24,0.539 m -153.27,-152.393 2.84,9.859 m -19.12,-117.714 -7.9,-6.553 m 39.84,-25.72 -9.31,-4.309 m -24.45,-53.387 4.56,9.187 M 851.982,80.8216 841.736,80.2893 m -0.034,-42.3047 -10.255,-0.308 m -197.406,-9.4434 10.232,0.7693 m -52.086,3.1835 5.334,8.7648 M 379.039,132.251 388.95,129.6 m -226.199,338.378 1.247,10.183 m -10.144,45.643 7.194,-7.315 m 42.155,127.617 9.801,-3.037 m 100.051,163.961 7.335,7.173 m 177.596,177.898 -6.679,-7.788 m 76.151,-37.082 -4.214,-9.354 m 41.655,37.722 6.726,7.748 m 35.867,124.503 10.247,-0.52"
           id="path3516" />
      </g>
    </g>
  </g>
</svg>
