<?xml version="1.0"?>
<svg width="506" height="512" version="1.1" xmlns="http://www.w3.org/2000/svg" xmlns:xlink="http://www.w3.org/1999/xlink">
  <defs>
  <style type="text/css">
    <![CDATA[
      .b {stroke:rgb(0,0,0);stroke-width:1.280000;fill:none}
      .c {stroke:rgb(128,128,128);stroke-width:0.640000;stroke-dasharray:2.530000, 2.530000;}
      .h {stroke:rgb(240,200,0);stroke-width:1.280000;}
      .m {stroke:rgb(255,0,0);stroke-width:0.640000;}
      .n {stroke:rgb(128,128,128);stroke-width:0.640000}
      .t {stroke:rgb(0,128,0);stroke-width:0.640000;}
      .tab {stroke:rgb(0,0,255);stroke-width:0.320000;fill:none}
      .v {stroke:rgb(0,0,255);stroke-width:0.640000;}
      .z {stroke:rgb(0,240,200);stroke-width:0.320000;}
    ]]>
  </style>
  </defs>
  <path fill="none" class="b" d=" M 361.494 244.823 L 379.088 251.227 L 401.899 284.278 L 413.037 297.896 L 441.832 337.976 L 447.59 363.714 L 416.683 361.182 L 401.316 334.646 L 412.339 363.261 L 399.965 377.664 L 407.735 397.909 L 403.826 376.58 L 420.812 368.089 L 438.106 393.83 L 463.72 400.114 L 498.865 434.761 L 466.566 427.769 L 468.457 460.762 L 455.811 472.991 L 443.169 464.176 L 408.1 435.581 L 435.321 471.727 L 417.527 483.733 L 371.141 489.814 L 362.12 465.182 L 361.328 419.303 L 353.094 405.737 L 358.125 420.788 L 335.643 460.788 L 332.202 486.794 L 293.707 477.736 L 270.413 454.261 L 298.761 437.632 L 267.386 447.417 L 268.049 419.758 L 290.771 396.487 L 323.285 399.919 L 291.968 390.528 L 296.881 344.835 L 268.088 330.889 L 230.019 297.661 L 218.459 258.423 L 218.423 299.329 L 231.387 348.168 L 238.145 379.438 L 200.015 405.092 L 168.732 396.193 L 157.049 363.85 L 188.468 355.82 L 157.048 363.849 L 143.781 321.159 L 178.214 312.316 L 175.245 292.315 L 176.832 258.097 L 172.691 292.101 L 172.068 312.311 L 136.573 310.357 L 137.447 291.331 L 140.645 256.233 L 175.751 228.264 L 138.666 253.551 L 133.888 288.468 L 130.387 307.19 L 120.191 350.716 L 114.274 384.592 L 87.2111 378.845 L 84.3575 331.657 L 84.235 290.385 L 67.0378 327.904 L 40.5849 367.084 L 8 361.434 L 40.7066 285.22 L 62.9386 284.685 L 61.3819 316.373 L 76.219 288.329 L 87.1763 241.484 L 42.8635 260.218 L 42.6955 237.98 L 59.4744 199.994 L 103.361 197.819 L 109.3 209.024 L 105.243 197.009 L 96.7713 153.894 L 56.2091 144.996 L 64.2542 62.45 L 94.5513 37.0341 L 131.235 8 L 152.415 33.7626 L 132.263 53.6659 L 98.7336 65.0045 L 94.0507 89.2497 L 103.804 66.5639 L 138.19 74.9503 L 133.163 123.059 L 169.276 152.022 L 152.521 169.428 L 173.113 156.79 L 182.003 172.002 L 173.893 195.532 L 186.264 173.936 L 183.057 156.611 L 194.513 111.758 L 240.909 98.0804 L 260.629 118.412 L 253.003 137.309 L 235.906 139.028 L 240.932 154.92 L 229.752 183.615 L 222.328 210.345 L 233.584 184.989 L 257.243 165.274 L 270.915 155.743 L 287.773 159.071 L 308.114 160.299 L 341.448 161.302 L 353.62 178.982 L 346.429 192.613 L 306.823 199.253 L 294.371 213.235 L 272.757 233.585 L 219.259 237.061 L 270.527 252.738 L 270.764 288.131 L 278.215 253.531 L 307.878 254.723 L 320.516 270.304 L 342.563 300.705 L 338.957 320.873 L 307.475 306.581 L 335.948 326.193 L 339.392 365.046 L 365.368 371.994 L 370.683 345.451 L 359.693 370.19 L 339.959 351.926 L 355.77 316.268 L 370.244 301.769 L 364.764 264.617 L 361.494 244.823" />
  <path class="c" d=" M 76.219 288.329 L 84.235 290.385 M 84.235 290.385 L 76.219 288.329 M 76.219 288.329 L 67.0378 327.904 M 67.0378 327.904 L 61.3819 316.373 M 61.3819 316.373 L 67.0378 327.904 M 67.0378 327.904 L 76.219 288.329 M 84.235 290.385 L 130.387 307.19 M 130.387 307.19 L 84.235 290.385 M 84.235 290.385 L 133.888 288.468 M 133.888 288.468 L 84.235 290.385 M 84.235 290.385 L 120.191 350.716 M 120.191 350.716 L 87.2111 378.845 M 87.2111 378.845 L 120.191 350.716 M 120.191 350.716 L 84.235 290.385 M 84.235 290.385 L 87.1763 241.484 M 87.1763 241.484 L 42.6955 237.98 M 42.6955 237.98 L 87.1763 241.484 M 87.1763 241.484 L 103.361 197.819 M 103.361 197.819 L 87.1763 241.484 M 87.1763 241.484 L 109.3 209.024 M 109.3 209.024 L 87.1763 241.484 M 87.1763 241.484 L 133.888 288.468 M 133.888 288.468 L 87.1763 241.484 M 87.1763 241.484 L 59.4744 199.994 M 59.4744 199.994 L 87.1763 241.484 M 87.1763 241.484 L 138.666 253.551 M 138.666 253.551 L 109.3 209.024 M 109.3 209.024 L 138.666 253.551 M 138.666 253.551 L 87.1763 241.484 M 87.1763 241.484 L 84.235 290.385 M 61.3819 316.373 L 8 361.434 M 8 361.434 L 61.3819 316.373 M 61.3819 316.373 L 40.7066 285.22 M 40.7066 285.22 L 61.3819 316.373 M 61.3819 316.373 L 40.5849 367.084 M 40.5849 367.084 L 61.3819 316.373 M 84.3575 331.657 L 120.191 350.716 M 120.191 350.716 L 84.3575 331.657 M 143.781 321.159 L 188.468 355.82 M 188.468 355.82 L 231.387 348.168 M 231.387 348.168 L 188.468 355.82 M 188.468 355.82 L 200.015 405.092 M 200.015 405.092 L 188.468 355.82 M 188.468 355.82 L 238.145 379.438 M 238.145 379.438 L 188.468 355.82 M 188.468 355.82 L 143.781 321.159 M 172.068 312.311 L 137.447 291.331 M 137.447 291.331 L 172.691 292.101 M 172.691 292.101 L 137.447 291.331 M 137.447 291.331 L 172.068 312.311 M 178.214 312.316 L 218.423 299.329 M 218.423 299.329 L 178.214 312.316 M 178.214 312.316 L 231.387 348.168 M 231.387 348.168 L 178.214 312.316 M 178.214 312.316 L 188.468 355.82 M 188.468 355.82 L 178.214 312.316 M 175.245 292.315 L 218.423 299.329 M 218.423 299.329 L 176.832 258.097 M 176.832 258.097 L 175.751 228.264 M 175.751 228.264 L 218.459 258.423 M 218.459 258.423 L 175.751 228.264 M 175.751 228.264 L 173.893 195.532 M 173.893 195.532 L 222.328 210.345 M 222.328 210.345 L 173.893 195.532 M 173.893 195.532 L 105.243 197.009 M 105.243 197.009 L 173.893 195.532 M 173.893 195.532 L 175.751 228.264 M 175.751 228.264 L 176.832 258.097 M 176.832 258.097 L 218.423 299.329 M 218.423 299.329 L 175.245 292.315 M 172.691 292.101 L 140.645 256.233 M 140.645 256.233 L 172.691 292.101 M 176.832 258.097 L 218.459 258.423 M 218.459 258.423 L 219.259 237.061 M 219.259 237.061 L 222.328 210.345 M 222.328 210.345 L 272.757 233.585 M 272.757 233.585 L 222.328 210.345 M 222.328 210.345 L 186.264 173.936 M 186.264 173.936 L 222.328 210.345 M 222.328 210.345 L 219.259 237.061 M 219.259 237.061 L 218.459 258.423 M 218.459 258.423 L 270.527 252.738 M 270.527 252.738 L 230.019 297.661 M 230.019 297.661 L 270.527 252.738 M 270.527 252.738 L 218.459 258.423 M 218.459 258.423 L 176.832 258.097 M 176.832 258.097 L 140.645 256.233 M 140.645 256.233 L 176.832 258.097 M 175.751 228.264 L 222.328 210.345 M 222.328 210.345 L 175.751 228.264 M 175.751 228.264 L 109.3 209.024 M 109.3 209.024 L 173.893 195.532 M 173.893 195.532 L 109.3 209.024 M 109.3 209.024 L 175.751 228.264 M 175.751 228.264 L 219.259 237.061 M 219.259 237.061 L 175.751 228.264 M 173.893 195.532 L 152.521 169.428 M 152.521 169.428 L 96.7713 153.894 M 96.7713 153.894 L 94.0507 89.2497 M 94.0507 89.2497 L 138.19 74.9503 M 138.19 74.9503 L 94.0507 89.2497 M 94.0507 89.2497 L 96.7713 153.894 M 96.7713 153.894 L 152.521 169.428 M 152.521 169.428 L 133.163 123.059 M 133.163 123.059 L 96.7713 153.894 M 96.7713 153.894 L 133.163 123.059 M 133.163 123.059 L 152.521 169.428 M 152.521 169.428 L 182.003 172.002 M 182.003 172.002 L 152.521 169.428 M 152.521 169.428 L 173.893 195.532 M 186.264 173.936 L 240.932 154.92 M 240.932 154.92 L 186.264 173.936 M 186.264 173.936 L 229.752 183.615 M 229.752 183.615 L 186.264 173.936 M 183.057 156.611 L 235.906 139.028 M 235.906 139.028 L 194.513 111.758 M 194.513 111.758 L 235.906 139.028 M 235.906 139.028 L 183.057 156.611 M 183.057 156.611 L 240.932 154.92 M 240.932 154.92 L 183.057 156.611 M 152.521 169.428 L 105.243 197.009 M 105.243 197.009 L 152.521 169.428 M 133.163 123.059 L 94.0507 89.2497 M 94.0507 89.2497 L 64.2542 62.45 M 64.2542 62.45 L 98.7336 65.0045 M 98.7336 65.0045 L 94.5513 37.0341 M 94.5513 37.0341 L 98.7336 65.0045 M 98.7336 65.0045 L 64.2542 62.45 M 64.2542 62.45 L 94.0507 89.2497 M 94.0507 89.2497 L 56.2091 144.996 M 56.2091 144.996 L 94.0507 89.2497 M 94.0507 89.2497 L 133.163 123.059 M 132.263 53.6659 L 94.5513 37.0341 M 94.5513 37.0341 L 152.415 33.7626 M 152.415 33.7626 L 94.5513 37.0341 M 94.5513 37.0341 L 132.263 53.6659 M 240.909 98.0804 L 253.003 137.309 M 253.003 137.309 L 240.909 98.0804 M 240.909 98.0804 L 235.906 139.028 M 235.906 139.028 L 240.909 98.0804 M 270.915 155.743 L 306.823 199.253 M 306.823 199.253 L 308.114 160.299 M 308.114 160.299 L 306.823 199.253 M 306.823 199.253 L 341.448 161.302 M 341.448 161.302 L 306.823 199.253 M 306.823 199.253 L 270.915 155.743 M 270.915 155.743 L 294.371 213.235 M 294.371 213.235 L 257.243 165.274 M 257.243 165.274 L 294.371 213.235 M 294.371 213.235 L 233.584 184.989 M 233.584 184.989 L 294.371 213.235 M 294.371 213.235 L 270.915 155.743 M 287.773 159.071 L 306.823 199.253 M 306.823 199.253 L 287.773 159.071 M 341.448 161.302 L 346.429 192.613 M 346.429 192.613 L 341.448 161.302 M 379.088 251.227 L 364.764 264.617 M 364.764 264.617 L 379.088 251.227 M 379.088 251.227 L 370.244 301.769 M 370.244 301.769 L 413.037 297.896 M 413.037 297.896 L 370.244 301.769 M 370.244 301.769 L 401.899 284.278 M 401.899 284.278 L 370.244 301.769 M 370.244 301.769 L 379.088 251.227 M 370.244 301.769 L 401.316 334.646 M 401.316 334.646 L 365.368 371.994 M 365.368 371.994 L 412.339 363.261 M 412.339 363.261 L 365.368 371.994 M 365.368 371.994 L 399.965 377.664 M 399.965 377.664 L 365.368 371.994 M 365.368 371.994 L 401.316 334.646 M 401.316 334.646 L 413.037 297.896 M 413.037 297.896 L 401.316 334.646 M 401.316 334.646 L 441.832 337.976 M 441.832 337.976 L 401.316 334.646 M 401.316 334.646 L 355.77 316.268 M 355.77 316.268 L 401.316 334.646 M 401.316 334.646 L 370.244 301.769 M 355.77 316.268 L 370.683 345.451 M 370.683 345.451 L 339.959 351.926 M 339.959 351.926 L 370.683 345.451 M 370.683 345.451 L 355.77 316.268 M 342.563 300.705 L 307.475 306.581 M 307.475 306.581 L 320.516 270.304 M 320.516 270.304 L 307.475 306.581 M 307.475 306.581 L 268.088 330.889 M 268.088 330.889 L 270.764 288.131 M 270.764 288.131 L 268.088 330.889 M 268.088 330.889 L 335.948 326.193 M 335.948 326.193 L 268.088 330.889 M 268.088 330.889 L 307.475 306.581 M 307.475 306.581 L 278.215 253.531 M 278.215 253.531 L 320.516 270.304 M 320.516 270.304 L 278.215 253.531 M 278.215 253.531 L 307.475 306.581 M 307.475 306.581 L 342.563 300.705 M 335.948 326.193 L 296.881 344.835 M 296.881 344.835 L 339.392 365.046 M 339.392 365.046 L 323.285 399.919 M 323.285 399.919 L 339.392 365.046 M 339.392 365.046 L 296.881 344.835 M 296.881 344.835 L 335.948 326.193 M 307.475 306.581 L 270.764 288.131 M 270.764 288.131 L 230.019 297.661 M 230.019 297.661 L 270.764 288.131 M 270.764 288.131 L 307.475 306.581 M 339.392 365.046 L 353.094 405.737 M 353.094 405.737 L 323.285 399.919 M 323.285 399.919 L 353.094 405.737 M 353.094 405.737 L 339.392 365.046 M 339.392 365.046 L 291.968 390.528 M 291.968 390.528 L 339.392 365.046 M 365.368 371.994 L 353.094 405.737 M 353.094 405.737 L 298.761 437.632 M 298.761 437.632 L 290.771 396.487 M 290.771 396.487 L 267.386 447.417 M 267.386 447.417 L 290.771 396.487 M 290.771 396.487 L 298.761 437.632 M 298.761 437.632 L 353.094 405.737 M 353.094 405.737 L 365.368 371.994 M 370.683 345.451 L 401.316 334.646 M 401.316 334.646 L 370.683 345.451 M 399.965 377.664 L 361.328 419.303 M 361.328 419.303 L 399.965 377.664 M 399.965 377.664 L 353.094 405.737 M 353.094 405.737 L 399.965 377.664 M 407.735 397.909 L 420.812 368.089 M 420.812 368.089 L 407.735 397.909 M 407.735 397.909 L 408.1 435.581 M 408.1 435.581 L 466.566 427.769 M 466.566 427.769 L 438.106 393.83 M 438.106 393.83 L 466.566 427.769 M 466.566 427.769 L 408.1 435.581 M 408.1 435.581 L 438.106 393.83 M 438.106 393.83 L 408.1 435.581 M 408.1 435.581 L 362.12 465.182 M 362.12 465.182 L 417.527 483.733 M 417.527 483.733 L 362.12 465.182 M 362.12 465.182 L 408.1 435.581 M 408.1 435.581 L 407.735 397.909 M 407.735 397.909 L 361.328 419.303 M 361.328 419.303 L 408.1 435.581 M 408.1 435.581 L 361.328 419.303 M 361.328 419.303 L 407.735 397.909 M 407.735 397.909 L 438.106 393.83 M 438.106 393.83 L 407.735 397.909 M 416.683 361.182 L 441.832 337.976 M 441.832 337.976 L 416.683 361.182 M 463.72 400.114 L 466.566 427.769 M 466.566 427.769 L 443.169 464.176 M 443.169 464.176 L 466.566 427.769 M 466.566 427.769 L 463.72 400.114 M 466.566 427.769 L 455.811 472.991 M 455.811 472.991 L 466.566 427.769 M 435.321 471.727 L 362.12 465.182 M 362.12 465.182 L 435.321 471.727 M 358.125 420.788 L 298.761 437.632 M 298.761 437.632 L 335.643 460.788 M 335.643 460.788 L 298.761 437.632 M 298.761 437.632 L 323.285 399.919 M 323.285 399.919 L 298.761 437.632 M 298.761 437.632 L 358.125 420.788 M 335.643 460.788 L 293.707 477.736 M 293.707 477.736 L 335.643 460.788 M 298.761 437.632 L 293.707 477.736 M 293.707 477.736 L 298.761 437.632 M 200.015 405.092 L 157.049 363.85 M 157.049 363.85 L 200.015 405.092 M 272.757 233.585 L 233.584 184.989 M 233.584 184.989 L 272.757 233.585" />
  <path class="h" d=" M 273.233 434.685 L 284.925 409.22 M 284.925 409.22 L 273.233 434.685 M 297.498 447.658 L 294.971 467.71 M 294.971 467.71 L 297.498 447.658 M 307.982 443.421 L 326.422 454.999 M 326.422 454.999 L 307.982 443.421 M 325.159 465.025 L 304.191 473.499 M 304.191 473.499 L 325.159 465.025 M 373.615 457.781 L 396.605 442.981 M 396.605 442.981 L 373.615 457.781 M 380.42 466.818 L 417.021 470.091 M 417.021 470.091 L 380.42 466.818 M 396.407 431.512 L 373.021 423.373 M 373.021 423.373 L 396.407 431.512 M 408.009 426.163 L 407.826 407.327 M 407.826 407.327 L 408.009 426.163 M 415.602 425.143 L 430.604 404.268 M 430.604 404.268 L 415.602 425.143 M 422.717 433.628 L 451.95 429.722 M 451.95 429.722 L 422.717 433.628 M 411.004 390.454 L 417.543 375.544 M 417.543 375.544 L 411.004 390.454 M 390.306 388.074 L 370.987 408.894 M 370.987 408.894 L 390.306 388.074 M 374.355 362.657 L 392.329 343.983 M 392.329 343.983 L 374.355 362.657 M 342.818 375.219 L 349.669 395.564 M 349.669 395.564 L 342.818 375.219 M 326.181 330.853 L 306.648 340.174 M 306.648 340.174 L 326.181 330.853 M 310.736 297.512 L 317.256 279.373 M 317.256 279.373 L 310.736 297.512 M 309.941 266.111 L 288.791 257.724 M 288.791 257.724 L 309.941 266.111 M 260.4 263.969 L 240.146 286.431 M 240.146 286.431 L 260.4 263.969 M 207.782 250.884 L 186.428 235.804 M 186.428 235.804 L 207.782 250.884 M 187.23 268.405 L 208.025 289.021 M 208.025 289.021 L 187.23 268.405 M 164.679 283.134 L 148.656 265.2 M 148.656 265.2 L 164.679 283.134 M 154.953 329.824 L 177.297 347.155 M 177.297 347.155 L 154.953 329.824 M 111.202 335.633 L 93.224 305.467 M 93.224 305.467 L 111.202 335.633 M 111.946 357.748 L 95.456 371.813 M 95.456 371.813 L 111.946 357.748 M 167.79 374.16 L 189.274 394.781 M 189.274 394.781 L 167.79 374.16 M 200.887 361.725 L 225.726 373.534 M 225.726 373.534 L 200.887 361.725 M 131.324 242.419 L 116.641 220.156 M 116.641 220.156 L 131.324 242.419 M 80.2509 231.111 L 66.3999 210.366 M 66.3999 210.366 L 80.2509 231.111 M 76.0561 240.608 L 53.8157 238.856 M 53.8157 238.856 L 76.0561 240.608 M 73.9237 298.223 L 69.3331 318.01 M 69.3331 318.01 L 73.9237 298.223 M 48.0364 327.638 L 21.3455 350.169 M 21.3455 350.169 L 48.0364 327.638 M 187.395 223.784 L 210.684 214.824 M 210.684 214.824 L 187.395 223.784 M 199.931 169.182 L 227.265 159.674 M 227.265 159.674 L 199.931 169.182 M 225.558 132.211 L 204.861 118.576 M 204.861 118.576 L 225.558 132.211 M 237.157 128.791 L 239.658 108.317 M 239.658 108.317 L 237.157 128.791 M 276.779 170.116 L 288.507 198.862 M 288.507 198.862 L 276.779 170.116 M 307.791 170.038 L 307.146 189.515 M 307.146 189.515 L 307.791 170.038 M 315.479 189.765 L 332.791 170.79 M 332.791 170.79 L 315.479 189.765 M 345.184 184.785 L 342.693 169.129 M 342.693 169.129 L 345.184 184.785 M 375.507 254.575 L 368.345 261.27 M 368.345 261.27 L 375.507 254.575 M 393.985 288.651 L 378.158 297.396 M 378.158 297.396 L 393.985 288.651 M 147.682 157.836 L 138.002 134.651 M 138.002 134.651 L 147.682 157.836 M 124.065 130.767 L 105.869 146.185 M 105.869 146.185 L 124.065 130.767 M 123.385 114.606 L 103.829 97.7019 M 103.829 97.7019 L 123.385 114.606 M 105.086 85.6748 L 127.155 78.5252 M 127.155 78.5252 L 105.086 85.6748 M 86.6016 82.5498 L 71.7033 69.1499 M 71.7033 69.1499 L 86.6016 82.5498 M 90.1137 64.3659 L 72.874 63.0886 M 72.874 63.0886 L 90.1137 64.3659 M 97.688 58.0119 L 95.5969 44.0267 M 95.5969 44.0267 L 97.688 58.0119 M 84.5903 103.186 L 65.6695 131.06 M 65.6695 131.06 L 84.5903 103.186" />
  <path class="z" fill="none" d=" M 361.494 244.823 L 379.088 251.227 L 401.899 284.278 M 441.832 337.976 L 447.59 363.714 L 416.683 361.182 L 401.316 334.646 L 412.339 363.261 L 399.965 377.664 L 407.735 397.909 L 403.826 376.58 L 420.812 368.089 L 438.106 393.83 L 463.72 400.114 M 498.865 434.761 L 466.566 427.769 L 468.457 460.762 M 443.169 464.176 L 408.1 435.581 L 435.321 471.727 M 362.12 465.182 L 361.328 419.303 L 353.094 405.737 L 358.125 420.788 L 335.643 460.788 M 270.413 454.261 L 298.761 437.632 L 267.386 447.417 L 268.049 419.758 L 290.771 396.487 L 323.285 399.919 L 291.968 390.528 L 296.881 344.835 L 268.088 330.889 L 230.019 297.661 L 218.459 258.423 L 218.423 299.329 L 231.387 348.168 L 238.145 379.438 L 200.015 405.092 L 168.732 396.193 L 157.049 363.85 L 188.468 355.82 L 157.048 363.849 L 143.781 321.159 L 178.214 312.316 L 175.245 292.315 L 176.832 258.097 L 172.691 292.101 L 172.068 312.311 L 136.573 310.357 L 137.447 291.331 L 140.645 256.233 L 175.751 228.264 L 138.666 253.551 L 133.888 288.468 L 130.387 307.19 L 120.191 350.716 L 114.274 384.592 L 87.2111 378.845 L 84.3575 331.657 L 84.235 290.385 L 67.0378 327.904 L 40.5849 367.084 M 40.7066 285.22 L 62.9386 284.685 L 61.3819 316.373 L 76.219 288.329 L 87.1763 241.484 L 42.8635 260.218 L 42.6955 237.98 L 59.4744 199.994 L 103.361 197.819 L 109.3 209.024 L 105.243 197.009 L 96.7713 153.894 L 56.2091 144.996 M 152.415 33.7626 L 132.263 53.6659 L 98.7336 65.0045 L 94.0507 89.2497 L 103.804 66.5639 L 138.19 74.9503 L 133.163 123.059 L 169.276 152.022 L 152.521 169.428 L 173.113 156.79 L 182.003 172.002 L 173.893 195.532 L 186.264 173.936 L 183.057 156.611 L 194.513 111.758 L 240.909 98.0804 L 260.629 118.412 L 253.003 137.309 L 235.906 139.028 L 240.932 154.92 L 229.752 183.615 L 222.328 210.345 L 233.584 184.989 L 257.243 165.274 L 270.915 155.743 L 287.773 159.071 L 308.114 160.299 M 346.429 192.613 L 306.823 199.253 L 294.371 213.235 L 272.757 233.585 L 219.259 237.061 L 270.527 252.738 L 270.764 288.131 L 278.215 253.531 L 307.878 254.723 L 320.516 270.304 L 342.563 300.705 L 338.957 320.873 L 307.475 306.581 L 335.948 326.193 L 339.392 365.046 L 365.368 371.994 L 370.683 345.451 L 359.693 370.19 L 339.959 351.926 L 355.77 316.268 L 370.244 301.769 L 364.764 264.617 L 361.494 244.823" />
  <path class="z" d=" M 400.051 333.381 L 402.581 333.381 L 402.581 335.911 L 400.051 335.911 L 400.051 333.381 M 406.47 396.644 L 409 396.644 L 409 399.174 L 406.47 399.174 L 406.47 396.644 M 465.301 426.504 L 467.831 426.504 L 467.831 429.034 L 465.301 429.034 L 465.301 426.504 M 406.835 434.316 L 409.365 434.316 L 409.365 436.846 L 406.835 436.846 L 406.835 434.316 M 351.829 404.472 L 354.359 404.472 L 354.359 407.002 L 351.829 407.002 L 351.829 404.472 M 297.496 436.367 L 300.026 436.367 L 300.026 438.897 L 297.496 438.897 L 297.496 436.367 M 322.02 398.654 L 324.55 398.654 L 324.55 401.184 L 322.02 401.184 L 322.02 398.654 M 217.194 257.158 L 219.724 257.158 L 219.724 259.688 L 217.194 259.688 L 217.194 257.158 M 187.203 354.555 L 189.733 354.555 L 189.733 357.085 L 187.203 357.085 L 187.203 354.555 M 175.567 256.832 L 178.097 256.832 L 178.097 259.362 L 175.567 259.362 L 175.567 256.832 M 174.486 226.999 L 177.016 226.999 L 177.016 229.529 L 174.486 229.529 L 174.486 226.999 M 82.97 289.12 L 85.5 289.12 L 85.5 291.65 L 82.97 291.65 L 82.97 289.12 M 60.1169 315.108 L 62.6469 315.108 L 62.6469 317.638 L 60.1169 317.638 L 60.1169 315.108 M 85.9113 240.219 L 88.4413 240.219 L 88.4413 242.749 L 85.9113 242.749 L 85.9113 240.219 M 108.035 207.759 L 110.565 207.759 L 110.565 210.289 L 108.035 210.289 L 108.035 207.759 M 92.7857 87.9847 L 95.3157 87.9847 L 95.3157 90.5147 L 92.7857 90.5147 L 92.7857 87.9847 M 151.256 168.163 L 153.786 168.163 L 153.786 170.693 L 151.256 170.693 L 151.256 168.163 M 172.628 194.267 L 175.158 194.267 L 175.158 196.797 L 172.628 196.797 L 172.628 194.267 M 221.063 209.08 L 223.593 209.08 L 223.593 211.61 L 221.063 211.61 L 221.063 209.08 M 217.994 235.796 L 220.524 235.796 L 220.524 238.326 L 217.994 238.326 L 217.994 235.796 M 269.499 286.866 L 272.029 286.866 L 272.029 289.396 L 269.499 289.396 L 269.499 286.866 M 306.21 305.316 L 308.74 305.316 L 308.74 307.846 L 306.21 307.846 L 306.21 305.316 M 369.418 344.186 L 371.948 344.186 L 371.948 346.716 L 369.418 346.716 L 369.418 344.186" />
  <path class="h" d=" M 404.684 287.683 L 410.253 294.491 M 420.236 307.916 L 434.633 327.956 M 472.506 408.776 L 490.079 426.099 M 465.295 463.819 L 458.972 469.934 M 452.65 470.787 L 446.33 466.38 M 430.873 474.729 L 421.976 480.731 M 405.931 485.253 L 382.738 488.294 M 368.886 483.656 L 364.375 471.34 M 334.783 467.29 L 333.063 480.292 M 322.579 484.53 L 303.331 480.001 M 287.884 471.868 L 276.237 460.13 M 32.4387 365.672 L 16.1462 362.846 M 16.1766 342.38 L 32.5299 304.273 M 58.2204 124.36 L 62.2429 83.0866 M 71.8285 56.0961 L 86.977 43.3881 M 103.722 29.7756 L 122.064 15.2585 M 136.53 14.4407 L 147.12 27.322 M 316.447 160.55 L 333.114 161.051 M 344.491 165.722 L 350.577 174.562 M 351.822 182.39 L 348.227 189.205" />
  <path class="h" d=" M 403.013 285.64 L 400.743 286.757 M 415.939 301.935 L 414.907 304.245 M 467.262 403.606 L 467.189 406.135 M 467.192 461.985 L 467.146 459.455 M 454.125 471.816 L 454.813 469.381 M 431.027 474.624 L 428.521 474.281 M 399.359 486.115 L 397.153 484.875 M 369.58 485.551 L 372.108 485.455 M 332.798 482.293 L 330.285 482 M 325.511 485.219 L 326.48 482.882 M 282.299 466.239 L 283.561 464.046 M 23.9592 364.201 L 25.5183 362.209 M 25.0532 321.696 L 27.5565 321.329 M 60.0595 105.49 L 62.3423 104.399 M 89.2845 41.4524 L 90.2266 43.8005 M 116.867 19.3721 L 119.212 20.3215 M 141.053 19.9422 L 138.678 20.815 M 323.565 160.764 L 322.556 163.084 M 344.385 165.568 L 344.576 168.091 M 347.388 190.796 L 346.888 188.316" />
</svg>
