<?xml version="1.0"?>
<svg width="330" height="328" version="1.1" xmlns="http://www.w3.org/2000/svg" xmlns:xlink="http://www.w3.org/1999/xlink">
  <defs>
  <style type="text/css">
    <![CDATA[
      .b {stroke:rgb(0,0,0);stroke-width:0.825000;fill:none}
      .c {stroke:rgb(128,128,128);stroke-width:0.412500;stroke-dasharray:1.650000, 1.650000;}
      .h {stroke:rgb(240,200,0);stroke-width:0.825000;}
      .m {stroke:rgb(255,0,0);stroke-width:0.412500;}
      .n {stroke:rgb(128,128,128);stroke-width:0.412500}
      .t {stroke:rgb(0,128,0);stroke-width:0.412500;}
      .tab {stroke:rgb(0,0,255);stroke-width:0.206250;fill:none}
      .v {stroke:rgb(0,0,255);stroke-width:0.412500;}
      .z {stroke:rgb(0,240,200);stroke-width:0.206250;}
    ]]>
  </style>
  </defs>
  <path fill="none" class="b" d=" M 99.8209 51.9754 L 133.594 62.2024 L 132.918 83.558 L 139.52 63.2371 L 173.052 70.1636 L 169.514 92.7806 L 202.169 101.933 L 172.378 85.7276 L 185.666 67.0873 L 214.08 77.7357 L 186.744 64.5637 L 162.239 40.6508 L 170.116 26.1932 L 192.509 30.6277 L 197.275 32.6373 L 192.613 30.3974 L 170.81 23.636 L 185.97 9.10297 L 197.284 9.87554 L 210.386 15.552 L 220.843 27.3268 L 213.357 53.6554 L 236.773 47.8308 L 248.699 48.4742 L 256.304 49.0672 L 262.259 53.8507 L 264.387 61.6192 L 259.711 76.574 L 255.029 83.1173 L 244.725 86.4264 L 240.745 112.837 L 256.036 90.9384 L 266.687 92.8539 L 274.628 91.5545 L 265.704 118.517 L 259.366 140.872 L 235.197 132.444 L 253.723 150.107 L 275.751 142.712 L 302.925 150.969 L 280.837 161.906 L 304.925 156.685 L 309.626 171.632 L 289.04 186.421 L 314.086 182.523 L 316.497 190.209 L 322.129 195.368 L 296.067 207.427 L 273.471 214.983 L 267.567 193.633 L 263.311 215.371 L 282.191 229.904 L 269.283 246.677 L 288.241 237.266 L 290.205 265.915 L 285.936 272.237 L 283.259 283.876 L 272.151 305.298 L 251.76 287.036 L 253.258 279.369 L 257.205 262.357 L 246.538 276.185 L 221.822 266.984 L 226.849 261.003 L 237.394 247.083 L 249.737 231.611 L 231.672 239.697 L 214.209 239.565 L 206.406 239.172 L 193.389 215.093 L 216.823 209.342 L 228.766 209.454 L 235.911 206.779 L 240.828 200.936 L 235.343 206.25 L 227.825 207.544 L 216.259 204.565 L 192.154 205.66 L 190.755 181.61 L 230.981 172.411 L 236.187 178.545 L 242.228 193.003 L 237.697 178.003 L 260.544 168.755 L 236.177 172.468 L 232.89 165.124 L 225.417 157.297 L 232.615 165.378 L 194.538 149.473 L 196.345 122.565 L 188.99 148.512 L 170.791 164.297 L 156.672 187.747 L 140.925 187.958 L 154.72 195.556 L 151.498 221.731 L 144.218 218.896 L 129.633 212.956 L 116.862 206.569 L 107.364 200.373 L 116.087 180.983 L 127.829 182.268 L 118.555 174.952 L 119.056 153.958 L 139.617 164.831 L 144.436 166.71 L 139.733 164.556 L 120.862 150.96 L 126.332 135.431 L 124.622 114.133 L 162.507 114.481 L 160.79 137.309 L 163.389 114.565 L 127.275 103.113 L 117.838 122.282 L 105.609 133.306 L 94.1352 111.728 L 98.2109 95.4992 L 89.4532 109.757 L 77.9954 109.457 L 79.833 90.487 L 70.0032 106.815 L 79.7636 112.825 L 70.9161 135.605 L 50.2849 114.857 L 51.6198 110.217 L 58.1191 106.373 L 63.3266 103.776 L 57.761 105.474 L 50.5937 107.852 L 47.7187 111.731 L 48.1656 116.546 L 47.8974 111.718 L 56.0622 139.815 L 35.4591 135.751 L 30.7062 124.607 L 29.4529 111.264 L 36.4147 99.9872 L 46.8532 91.3556 L 62.2037 86.3368 L 46.4058 82.9824 L 33.5152 78.8242 L 20.6071 75.8207 L 8 71.275 L 14.4536 49.5025 L 27.2809 53.3835 L 39.5366 58.3383 L 52.5632 62.0471 L 42.4861 52.9977 L 35.7513 41.6223 L 37.2779 28.3077 L 16.8648 18.3572 L 23.1496 8 L 42.283 17.275 L 62.9657 13.6324 L 54.5681 36.7258 L 54.0225 41.5302 L 56.8112 45.4729 L 54.7746 41.0943 L 56.6593 36.641 L 71.9325 17.3916 L 87.7738 12.9066 L 75.4992 45.9902 L 69.3727 50.0261 L 63.8281 48.2625 L 69.3433 50.1159 L 67.7852 67.489 L 77.0095 52.6849 L 84.3207 53.2923 L 85.2486 72.2696 L 103.708 76.5264 L 87.3532 66.967 L 99.4656 52.3283 L 107.719 60.2814 L 99.8209 51.9754" />
  <path class="c" d=" M 48.1656 116.546 L 56.0622 139.815 M 56.0622 139.815 L 48.1656 116.546 M 48.1656 116.546 L 30.7062 124.607 M 30.7062 124.607 L 48.1656 116.546 M 48.1656 116.546 L 29.4529 111.264 M 29.4529 111.264 L 48.1656 116.546 M 47.7187 111.731 L 36.4147 99.9872 M 36.4147 99.9872 L 47.7187 111.731 M 47.7187 111.731 L 29.4529 111.264 M 29.4529 111.264 L 47.7187 111.731 M 51.6198 110.217 L 70.9161 135.605 M 70.9161 135.605 L 58.1191 106.373 M 58.1191 106.373 L 70.9161 135.605 M 70.9161 135.605 L 63.3266 103.776 M 63.3266 103.776 L 62.2037 86.3368 M 62.2037 86.3368 L 63.3266 103.776 M 63.3266 103.776 L 79.833 90.487 M 79.833 90.487 L 98.2109 95.4992 M 98.2109 95.4992 L 79.833 90.487 M 79.833 90.487 L 85.2486 72.2696 M 85.2486 72.2696 L 79.833 90.487 M 79.833 90.487 L 67.7852 67.489 M 67.7852 67.489 L 79.833 90.487 M 79.833 90.487 L 103.708 76.5264 M 103.708 76.5264 L 132.918 83.558 M 132.918 83.558 L 103.708 76.5264 M 103.708 76.5264 L 79.833 90.487 M 79.833 90.487 L 63.3266 103.776 M 63.3266 103.776 L 70.9161 135.605 M 70.9161 135.605 L 70.0032 106.815 M 70.0032 106.815 L 70.9161 135.605 M 70.9161 135.605 L 51.6198 110.217 M 50.5937 107.852 L 46.8532 91.3556 M 46.8532 91.3556 L 50.5937 107.852 M 50.5937 107.852 L 36.4147 99.9872 M 36.4147 99.9872 L 50.5937 107.852 M 57.761 105.474 L 62.2037 86.3368 M 62.2037 86.3368 L 57.761 105.474 M 57.761 105.474 L 46.8532 91.3556 M 46.8532 91.3556 L 57.761 105.474 M 63.3266 103.776 L 70.0032 106.815 M 70.0032 106.815 L 63.3266 103.776 M 77.9954 109.457 L 98.2109 95.4992 M 98.2109 95.4992 L 127.275 103.113 M 127.275 103.113 L 98.2109 95.4992 M 98.2109 95.4992 L 77.9954 109.457 M 94.1352 111.728 L 117.838 122.282 M 117.838 122.282 L 94.1352 111.728 M 94.1352 111.728 L 127.275 103.113 M 127.275 103.113 L 169.514 92.7806 M 169.514 92.7806 L 132.918 83.558 M 132.918 83.558 L 169.514 92.7806 M 169.514 92.7806 L 163.389 114.565 M 163.389 114.565 L 196.345 122.565 M 196.345 122.565 L 163.389 114.565 M 163.389 114.565 L 169.514 92.7806 M 169.514 92.7806 L 127.275 103.113 M 127.275 103.113 L 94.1352 111.728 M 98.2109 95.4992 L 132.918 83.558 M 132.918 83.558 L 98.2109 95.4992 M 98.2109 95.4992 L 103.708 76.5264 M 103.708 76.5264 L 133.594 62.2024 M 133.594 62.2024 L 103.708 76.5264 M 103.708 76.5264 L 98.2109 95.4992 M 79.833 90.487 L 62.2037 86.3368 M 62.2037 86.3368 L 52.5632 62.0471 M 52.5632 62.0471 L 69.3433 50.1159 M 69.3433 50.1159 L 52.5632 62.0471 M 52.5632 62.0471 L 62.2037 86.3368 M 62.2037 86.3368 L 67.7852 67.489 M 67.7852 67.489 L 84.3207 53.2923 M 84.3207 53.2923 L 67.7852 67.489 M 67.7852 67.489 L 62.2037 86.3368 M 62.2037 86.3368 L 79.833 90.487 M 85.2486 72.2696 L 67.7852 67.489 M 67.7852 67.489 L 85.2486 72.2696 M 87.3532 66.967 L 107.719 60.2814 M 107.719 60.2814 L 87.3532 66.967 M 103.708 76.5264 L 107.719 60.2814 M 107.719 60.2814 L 103.708 76.5264 M 107.719 60.2814 L 133.594 62.2024 M 133.594 62.2024 L 107.719 60.2814 M 132.918 83.558 L 173.052 70.1636 M 173.052 70.1636 L 132.918 83.558 M 132.918 83.558 L 127.275 103.113 M 127.275 103.113 L 132.918 83.558 M 172.378 85.7276 L 214.08 77.7357 M 214.08 77.7357 L 213.357 53.6554 M 213.357 53.6554 L 214.08 77.7357 M 214.08 77.7357 L 172.378 85.7276 M 186.744 64.5637 L 170.116 26.1932 M 170.116 26.1932 L 213.357 53.6554 M 213.357 53.6554 L 197.275 32.6373 M 197.275 32.6373 L 213.357 53.6554 M 213.357 53.6554 L 259.711 76.574 M 259.711 76.574 L 213.357 53.6554 M 213.357 53.6554 L 170.116 26.1932 M 170.116 26.1932 L 186.744 64.5637 M 213.357 53.6554 L 244.725 86.4264 M 244.725 86.4264 L 202.169 101.933 M 202.169 101.933 L 240.745 112.837 M 240.745 112.837 L 202.169 101.933 M 202.169 101.933 L 163.389 114.565 M 163.389 114.565 L 202.169 101.933 M 202.169 101.933 L 244.725 86.4264 M 244.725 86.4264 L 213.357 53.6554 M 213.357 53.6554 L 264.387 61.6192 M 264.387 61.6192 L 213.357 53.6554 M 213.357 53.6554 L 255.029 83.1173 M 255.029 83.1173 L 213.357 53.6554 M 213.357 53.6554 L 256.304 49.0672 M 256.304 49.0672 L 213.357 53.6554 M 213.357 53.6554 L 248.699 48.4742 M 248.699 48.4742 L 213.357 53.6554 M 213.357 53.6554 L 262.259 53.8507 M 262.259 53.8507 L 213.357 53.6554 M 214.08 77.7357 L 202.169 101.933 M 202.169 101.933 L 196.345 122.565 M 196.345 122.565 L 235.197 132.444 M 235.197 132.444 L 196.345 122.565 M 196.345 122.565 L 160.79 137.309 M 160.79 137.309 L 188.99 148.512 M 188.99 148.512 L 160.79 137.309 M 160.79 137.309 L 126.332 135.431 M 126.332 135.431 L 160.79 137.309 M 160.79 137.309 L 196.345 122.565 M 196.345 122.565 L 240.745 112.837 M 240.745 112.837 L 265.704 118.517 M 265.704 118.517 L 240.745 112.837 M 240.745 112.837 L 196.345 122.565 M 196.345 122.565 L 202.169 101.933 M 202.169 101.933 L 214.08 77.7357 M 214.08 77.7357 L 170.116 26.1932 M 170.116 26.1932 L 197.275 32.6373 M 197.275 32.6373 L 220.843 27.3268 M 220.843 27.3268 L 197.275 32.6373 M 197.275 32.6373 L 170.116 26.1932 M 170.116 26.1932 L 214.08 77.7357 M 214.08 77.7357 L 244.725 86.4264 M 244.725 86.4264 L 214.08 77.7357 M 240.745 112.837 L 266.687 92.8539 M 266.687 92.8539 L 265.704 118.517 M 265.704 118.517 L 266.687 92.8539 M 266.687 92.8539 L 240.745 112.837 M 240.745 112.837 L 235.197 132.444 M 235.197 132.444 L 225.417 157.297 M 225.417 157.297 L 194.538 149.473 M 194.538 149.473 L 225.417 157.297 M 225.417 157.297 L 235.197 132.444 M 235.197 132.444 L 194.538 149.473 M 194.538 149.473 L 235.197 132.444 M 235.197 132.444 L 265.704 118.517 M 265.704 118.517 L 235.197 132.444 M 235.197 132.444 L 240.745 112.837 M 253.723 150.107 L 232.89 165.124 M 232.89 165.124 L 253.723 150.107 M 253.723 150.107 L 225.417 157.297 M 225.417 157.297 L 253.723 150.107 M 253.723 150.107 L 280.837 161.906 M 280.837 161.906 L 275.751 142.712 M 275.751 142.712 L 280.837 161.906 M 280.837 161.906 L 309.626 171.632 M 309.626 171.632 L 280.837 161.906 M 280.837 161.906 L 253.723 150.107 M 253.723 150.107 L 260.544 168.755 M 260.544 168.755 L 232.89 165.124 M 232.89 165.124 L 260.544 168.755 M 260.544 168.755 L 280.837 161.906 M 280.837 161.906 L 267.567 193.633 M 267.567 193.633 L 237.697 178.003 M 237.697 178.003 L 267.567 193.633 M 267.567 193.633 L 280.837 161.906 M 280.837 161.906 L 260.544 168.755 M 260.544 168.755 L 267.567 193.633 M 267.567 193.633 L 289.04 186.421 M 289.04 186.421 L 316.497 190.209 M 316.497 190.209 L 289.04 186.421 M 289.04 186.421 L 273.471 214.983 M 273.471 214.983 L 289.04 186.421 M 289.04 186.421 L 267.567 193.633 M 267.567 193.633 L 242.228 193.003 M 242.228 193.003 L 263.311 215.371 M 263.311 215.371 L 242.228 193.003 M 242.228 193.003 L 190.755 181.61 M 190.755 181.61 L 240.828 200.936 M 240.828 200.936 L 190.755 181.61 M 190.755 181.61 L 235.343 206.25 M 235.343 206.25 L 190.755 181.61 M 190.755 181.61 L 216.259 204.565 M 216.259 204.565 L 190.755 181.61 M 190.755 181.61 L 227.825 207.544 M 227.825 207.544 L 190.755 181.61 M 190.755 181.61 L 236.187 178.545 M 236.187 178.545 L 190.755 181.61 M 190.755 181.61 L 242.228 193.003 M 242.228 193.003 L 267.567 193.633 M 267.567 193.633 L 260.544 168.755 M 260.544 168.755 L 253.723 150.107 M 280.837 161.906 L 289.04 186.421 M 289.04 186.421 L 280.837 161.906 M 289.04 186.421 L 296.067 207.427 M 296.067 207.427 L 316.497 190.209 M 316.497 190.209 L 296.067 207.427 M 296.067 207.427 L 289.04 186.421 M 263.311 215.371 L 240.828 200.936 M 240.828 200.936 L 249.737 231.611 M 249.737 231.611 L 240.828 200.936 M 240.828 200.936 L 263.311 215.371 M 263.311 215.371 L 249.737 231.611 M 249.737 231.611 L 282.191 229.904 M 282.191 229.904 L 249.737 231.611 M 249.737 231.611 L 269.283 246.677 M 269.283 246.677 L 290.205 265.915 M 290.205 265.915 L 269.283 246.677 M 269.283 246.677 L 285.936 272.237 M 285.936 272.237 L 269.283 246.677 M 269.283 246.677 L 237.394 247.083 M 237.394 247.083 L 257.205 262.357 M 257.205 262.357 L 237.394 247.083 M 237.394 247.083 L 269.283 246.677 M 269.283 246.677 L 249.737 231.611 M 249.737 231.611 L 263.311 215.371 M 249.737 231.611 L 235.911 206.779 M 235.911 206.779 L 231.672 239.697 M 231.672 239.697 L 235.911 206.779 M 235.911 206.779 L 249.737 231.611 M 231.672 239.697 L 228.766 209.454 M 228.766 209.454 L 214.209 239.565 M 214.209 239.565 L 228.766 209.454 M 228.766 209.454 L 231.672 239.697 M 214.209 239.565 L 216.823 209.342 M 216.823 209.342 L 206.406 239.172 M 206.406 239.172 L 216.823 209.342 M 216.823 209.342 L 214.209 239.565 M 226.849 261.003 L 257.205 262.357 M 257.205 262.357 L 283.259 283.876 M 283.259 283.876 L 257.205 262.357 M 257.205 262.357 L 226.849 261.003 M 226.849 261.003 L 246.538 276.185 M 246.538 276.185 L 226.849 261.003 M 257.205 262.357 L 285.936 272.237 M 285.936 272.237 L 257.205 262.357 M 257.205 262.357 L 269.283 246.677 M 269.283 246.677 L 257.205 262.357 M 253.258 279.369 L 272.151 305.298 M 272.151 305.298 L 253.258 279.369 M 253.258 279.369 L 283.259 283.876 M 283.259 283.876 L 253.258 279.369 M 240.828 200.936 L 242.228 193.003 M 242.228 193.003 L 240.828 200.936 M 188.99 148.512 L 126.332 135.431 M 126.332 135.431 L 162.507 114.481 M 162.507 114.481 L 126.332 135.431 M 126.332 135.431 L 170.791 164.297 M 170.791 164.297 L 144.436 166.71 M 144.436 166.71 L 170.791 164.297 M 170.791 164.297 L 140.925 187.958 M 140.925 187.958 L 170.791 164.297 M 170.791 164.297 L 126.332 135.431 M 126.332 135.431 L 139.733 164.556 M 139.733 164.556 L 126.332 135.431 M 126.332 135.431 L 188.99 148.512 M 144.436 166.71 L 127.829 182.268 M 127.829 182.268 L 116.862 206.569 M 116.862 206.569 L 127.829 182.268 M 127.829 182.268 L 144.436 166.71 M 144.436 166.71 L 140.925 187.958 M 140.925 187.958 L 144.218 218.896 M 144.218 218.896 L 140.925 187.958 M 140.925 187.958 L 144.436 166.71 M 144.436 166.71 L 126.332 135.431 M 126.332 135.431 L 144.436 166.71 M 139.617 164.831 L 118.555 174.952 M 118.555 174.952 L 139.617 164.831 M 139.617 164.831 L 127.829 182.268 M 127.829 182.268 L 129.633 212.956 M 129.633 212.956 L 127.829 182.268 M 127.829 182.268 L 139.617 164.831 M 127.829 182.268 L 140.925 187.958 M 140.925 187.958 L 129.633 212.956 M 129.633 212.956 L 140.925 187.958 M 140.925 187.958 L 127.829 182.268 M 116.087 180.983 L 116.862 206.569 M 116.862 206.569 L 116.087 180.983 M 154.72 195.556 L 144.218 218.896 M 144.218 218.896 L 154.72 195.556 M 56.0622 139.815 L 30.7062 124.607 M 30.7062 124.607 L 56.0622 139.815 M 46.4058 82.9824 L 39.5366 58.3383 M 39.5366 58.3383 L 33.5152 78.8242 M 33.5152 78.8242 L 39.5366 58.3383 M 39.5366 58.3383 L 46.4058 82.9824 M 46.4058 82.9824 L 52.5632 62.0471 M 52.5632 62.0471 L 63.8281 48.2625 M 63.8281 48.2625 L 56.8112 45.4729 M 56.8112 45.4729 L 42.4861 52.9977 M 42.4861 52.9977 L 56.8112 45.4729 M 56.8112 45.4729 L 63.8281 48.2625 M 63.8281 48.2625 L 42.4861 52.9977 M 42.4861 52.9977 L 63.8281 48.2625 M 63.8281 48.2625 L 87.7738 12.9066 M 87.7738 12.9066 L 54.7746 41.0943 M 54.7746 41.0943 L 87.7738 12.9066 M 87.7738 12.9066 L 56.6593 36.641 M 56.6593 36.641 L 87.7738 12.9066 M 87.7738 12.9066 L 56.8112 45.4729 M 56.8112 45.4729 L 87.7738 12.9066 M 87.7738 12.9066 L 69.3727 50.0261 M 69.3727 50.0261 L 87.7738 12.9066 M 87.7738 12.9066 L 63.8281 48.2625 M 63.8281 48.2625 L 52.5632 62.0471 M 52.5632 62.0471 L 46.4058 82.9824 M 33.5152 78.8242 L 27.2809 53.3835 M 27.2809 53.3835 L 33.5152 78.8242 M 20.6071 75.8207 L 14.4536 49.5025 M 14.4536 49.5025 L 20.6071 75.8207 M 20.6071 75.8207 L 27.2809 53.3835 M 27.2809 53.3835 L 20.6071 75.8207 M 52.5632 62.0471 L 67.7852 67.489 M 67.7852 67.489 L 52.5632 62.0471 M 56.8112 45.4729 L 35.7513 41.6223 M 35.7513 41.6223 L 56.8112 45.4729 M 54.0225 41.5302 L 37.2779 28.3077 M 37.2779 28.3077 L 54.0225 41.5302 M 54.0225 41.5302 L 35.7513 41.6223 M 35.7513 41.6223 L 54.0225 41.5302 M 54.5681 36.7258 L 42.283 17.275 M 42.283 17.275 L 16.8648 18.3572 M 16.8648 18.3572 L 42.283 17.275 M 42.283 17.275 L 54.5681 36.7258 M 54.5681 36.7258 L 37.2779 28.3077 M 37.2779 28.3077 L 54.5681 36.7258 M 37.2779 28.3077 L 42.283 17.275 M 42.283 17.275 L 37.2779 28.3077 M 170.81 23.636 L 197.284 9.87554 M 197.284 9.87554 L 192.613 30.3974 M 192.613 30.3974 L 197.284 9.87554 M 197.284 9.87554 L 170.81 23.636 M 192.613 30.3974 L 210.386 15.552 M 210.386 15.552 L 192.613 30.3974 M 197.275 32.6373 L 210.386 15.552 M 210.386 15.552 L 197.275 32.6373" />
  <path class="h" d=" M 228.309 196.104 L 203.273 186.441 M 203.273 186.441 L 228.309 196.104 M 224.196 200.09 L 201.902 187.77 M 201.902 187.77 L 224.196 200.09 M 209.883 198.826 L 197.131 187.349 M 197.131 187.349 L 209.883 198.826 M 214.219 216.8 L 209.011 231.714 M 209.011 231.714 L 214.219 216.8 M 216.17 216.898 L 214.862 232.01 M 214.862 232.01 L 216.17 216.898 M 225.127 216.982 L 217.848 232.037 M 217.848 232.037 L 225.127 216.982 M 243.055 208.604 L 247.51 223.942 M 247.51 223.942 L 243.055 208.604 M 247.499 198.595 L 258.04 209.779 M 258.04 209.779 L 247.499 198.595 M 260.1 189.726 L 245.164 181.911 M 245.164 181.911 L 260.1 189.726 M 224.829 179.312 L 202.113 180.844 M 202.113 180.844 L 224.829 179.312 M 232.493 155.5 L 246.646 151.904 M 246.646 151.904 L 232.493 155.5 M 242.823 128.962 L 258.077 121.998 M 258.077 121.998 L 242.823 128.962 M 234.086 90.303 L 212.808 98.056 M 212.808 98.056 L 234.086 90.303 M 236.883 78.2337 L 221.199 61.8481 M 221.199 61.8481 L 236.883 78.2337 M 248.122 70.8444 L 224.946 59.385 M 224.946 59.385 L 248.122 70.8444 M 203.089 64.8501 L 181.107 39.0788 M 181.107 39.0788 L 203.089 64.8501 M 182.587 54.9711 L 174.273 35.7858 M 174.273 35.7858 L 182.587 54.9711 M 190.486 31.0263 L 176.906 27.8042 M 176.906 27.8042 L 190.486 31.0263 M 197.056 26.686 L 205.942 19.2634 M 205.942 19.2634 L 197.056 26.686 M 203.167 31.3097 L 214.951 28.6544 M 214.951 28.6544 L 203.167 31.3097 M 158.954 95.3636 L 137.835 100.53 M 137.835 100.53 L 158.954 95.3636 M 153.463 119.719 L 135.376 130.194 M 135.376 130.194 L 153.463 119.719 M 169.679 133.623 L 187.456 126.251 M 187.456 126.251 L 169.679 133.623 M 173.325 145.241 L 141.996 138.701 M 141.996 138.701 L 173.325 145.241 M 139.91 158.89 L 130.858 143.251 M 130.858 143.251 L 139.91 158.89 M 134.351 167.361 L 123.82 172.422 M 123.82 172.422 L 134.351 167.361 M 152.094 201.391 L 146.843 213.061 M 146.843 213.061 L 152.094 201.391 M 69.0187 127.648 L 65.224 111.734 M 65.224 111.734 L 69.0187 127.648 M 66.092 129.258 L 56.4438 116.564 M 56.4438 116.564 L 66.092 129.258 M 43.4874 115.225 L 34.1311 112.585 M 34.1311 112.585 L 43.4874 115.225 M 44.8927 108.795 L 39.2407 102.923 M 39.2407 102.923 L 44.8927 108.795 M 58.8717 100.69 L 61.0931 91.1211 M 61.0931 91.1211 L 58.8717 100.69 M 71.9191 63.9398 L 80.1868 56.8415 M 80.1868 56.8415 L 71.9191 63.9398 M 58.4926 49.4463 L 47.8216 51.8139 M 47.8216 51.8139 L 58.4926 49.4463 M 64.5518 37.3313 L 80.0332 21.0481 M 80.0332 21.0481 L 64.5518 37.3313 M 73.973 40.7462 L 83.1735 22.1864 M 83.1735 22.1864 L 73.973 40.7462 M 51.4968 31.8631 L 45.3543 22.1377 M 45.3543 22.1377 L 51.4968 31.8631 M 92.4447 65.2956 L 102.628 61.9528 M 102.628 61.9528 L 92.4447 65.2956 M 111.179 72.9454 L 126.122 65.7834 M 126.122 65.7834 L 111.179 72.9454 M 273.446 253.067 L 281.772 265.847 M 281.772 265.847 L 273.446 253.067 M 275.759 282.75 L 260.759 280.496 M 260.759 280.496 L 275.759 282.75" />
  <path class="z" fill="none" d=" M 99.8209 51.9754 L 133.594 62.2024 L 132.918 83.558 L 139.52 63.2371 L 173.052 70.1636 L 169.514 92.7806 L 202.169 101.933 L 172.378 85.7276 L 185.666 67.0873 L 214.08 77.7357 L 186.744 64.5637 L 162.239 40.6508 L 170.116 26.1932 L 192.509 30.6277 L 197.275 32.6373 L 192.613 30.3974 L 170.81 23.636 M 262.259 53.8507 L 264.387 61.6192 L 259.711 76.574 L 255.029 83.1173 L 244.725 86.4264 L 240.745 112.837 L 256.036 90.9384 L 266.687 92.8539 L 274.628 91.5545 L 265.704 118.517 L 259.366 140.872 L 235.197 132.444 L 253.723 150.107 L 275.751 142.712 L 302.925 150.969 L 280.837 161.906 L 304.925 156.685 L 309.626 171.632 L 289.04 186.421 L 314.086 182.523 L 316.497 190.209 M 322.129 195.368 L 296.067 207.427 L 273.471 214.983 L 267.567 193.633 L 263.311 215.371 L 282.191 229.904 L 269.283 246.677 L 288.241 237.266 L 290.205 265.915 M 251.76 287.036 L 253.258 279.369 L 257.205 262.357 L 246.538 276.185 L 221.822 266.984 L 226.849 261.003 L 237.394 247.083 L 249.737 231.611 L 231.672 239.697 L 214.209 239.565 L 206.406 239.172 L 193.389 215.093 L 216.823 209.342 L 228.766 209.454 L 235.911 206.779 L 240.828 200.936 L 235.343 206.25 L 227.825 207.544 L 216.259 204.565 L 192.154 205.66 L 190.755 181.61 L 230.981 172.411 L 236.187 178.545 L 242.228 193.003 L 237.697 178.003 L 260.544 168.755 L 236.177 172.468 L 232.89 165.124 L 225.417 157.297 L 232.615 165.378 L 194.538 149.473 L 196.345 122.565 L 188.99 148.512 L 170.791 164.297 L 156.672 187.747 L 140.925 187.958 L 154.72 195.556 L 151.498 221.731 L 144.218 218.896 M 116.087 180.983 L 127.829 182.268 L 118.555 174.952 M 119.056 153.958 L 139.617 164.831 L 144.436 166.71 L 139.733 164.556 L 120.862 150.96 L 126.332 135.431 L 124.622 114.133 L 162.507 114.481 L 160.79 137.309 L 163.389 114.565 L 127.275 103.113 L 117.838 122.282 L 105.609 133.306 L 94.1352 111.728 L 98.2109 95.4992 L 89.4532 109.757 L 77.9954 109.457 L 79.833 90.487 L 70.0032 106.815 L 79.7636 112.825 L 70.9161 135.605 L 50.2849 114.857 L 51.6198 110.217 L 58.1191 106.373 L 63.3266 103.776 L 57.761 105.474 L 50.5937 107.852 L 47.7187 111.731 L 48.1656 116.546 L 47.8974 111.718 L 56.0622 139.815 M 29.4529 111.264 L 36.4147 99.9872 L 46.8532 91.3556 L 62.2037 86.3368 L 46.4058 82.9824 L 33.5152 78.8242 L 20.6071 75.8207 M 14.4536 49.5025 L 27.2809 53.3835 L 39.5366 58.3383 L 52.5632 62.0471 L 42.4861 52.9977 L 35.7513 41.6223 L 37.2779 28.3077 M 62.9657 13.6324 L 54.5681 36.7258 L 54.0225 41.5302 L 56.8112 45.4729 L 54.7746 41.0943 L 56.6593 36.641 L 71.9325 17.3916 L 87.7738 12.9066 L 75.4992 45.9902 L 69.3727 50.0261 L 63.8281 48.2625 L 69.3433 50.1159 L 67.7852 67.489 L 77.0095 52.6849 L 84.3207 53.2923 L 85.2486 72.2696 L 103.708 76.5264 L 87.3532 66.967 L 99.4656 52.3283 L 107.719 60.2814 L 99.8209 51.9754" />
  <path class="z" d=" M 132.093 82.733 L 133.743 82.733 L 133.743 84.383 L 132.093 84.383 L 132.093 82.733 M 201.344 101.108 L 202.994 101.108 L 202.994 102.758 L 201.344 102.758 L 201.344 101.108 M 213.255 76.9107 L 214.905 76.9107 L 214.905 78.5607 L 213.255 78.5607 L 213.255 76.9107 M 196.45 31.8123 L 198.1 31.8123 L 198.1 33.4623 L 196.45 33.4623 L 196.45 31.8123 M 239.92 112.012 L 241.57 112.012 L 241.57 113.662 L 239.92 113.662 L 239.92 112.012 M 234.372 131.619 L 236.022 131.619 L 236.022 133.269 L 234.372 133.269 L 234.372 131.619 M 280.012 161.081 L 281.662 161.081 L 281.662 162.731 L 280.012 162.731 L 280.012 161.081 M 288.215 185.596 L 289.865 185.596 L 289.865 187.246 L 288.215 187.246 L 288.215 185.596 M 266.742 192.808 L 268.392 192.808 L 268.392 194.458 L 266.742 194.458 L 266.742 192.808 M 268.458 245.852 L 270.108 245.852 L 270.108 247.502 L 268.458 247.502 L 268.458 245.852 M 256.38 261.532 L 258.03 261.532 L 258.03 263.182 L 256.38 263.182 L 256.38 261.532 M 248.912 230.786 L 250.562 230.786 L 250.562 232.436 L 248.912 232.436 L 248.912 230.786 M 240.003 200.111 L 241.653 200.111 L 241.653 201.761 L 240.003 201.761 L 240.003 200.111 M 241.403 192.178 L 243.053 192.178 L 243.053 193.828 L 241.403 193.828 L 241.403 192.178 M 259.719 167.93 L 261.369 167.93 L 261.369 169.58 L 259.719 169.58 L 259.719 167.93 M 224.592 156.472 L 226.242 156.472 L 226.242 158.122 L 224.592 158.122 L 224.592 156.472 M 195.52 121.74 L 197.17 121.74 L 197.17 123.39 L 195.52 123.39 L 195.52 121.74 M 140.1 187.133 L 141.75 187.133 L 141.75 188.783 L 140.1 188.783 L 140.1 187.133 M 127.004 181.443 L 128.654 181.443 L 128.654 183.093 L 127.004 183.093 L 127.004 181.443 M 143.611 165.885 L 145.261 165.885 L 145.261 167.535 L 143.611 167.535 L 143.611 165.885 M 159.965 136.484 L 161.615 136.484 L 161.615 138.134 L 159.965 138.134 L 159.965 136.484 M 97.3859 94.6742 L 99.0359 94.6742 L 99.0359 96.3242 L 97.3859 96.3242 L 97.3859 94.6742 M 79.008 89.662 L 80.658 89.662 L 80.658 91.312 L 79.008 91.312 L 79.008 89.662 M 62.5016 102.951 L 64.1516 102.951 L 64.1516 104.601 L 62.5016 104.601 L 62.5016 102.951 M 47.3406 115.721 L 48.9906 115.721 L 48.9906 117.371 L 47.3406 117.371 L 47.3406 115.721 M 61.3787 85.5118 L 63.0287 85.5118 L 63.0287 87.1618 L 61.3787 87.1618 L 61.3787 85.5118 M 51.7382 61.2221 L 53.3882 61.2221 L 53.3882 62.8721 L 51.7382 62.8721 L 51.7382 61.2221 M 55.9862 44.6479 L 57.6362 44.6479 L 57.6362 46.2979 L 55.9862 46.2979 L 55.9862 44.6479 M 63.0031 47.4375 L 64.6531 47.4375 L 64.6531 49.0875 L 63.0031 49.0875 L 63.0031 47.4375 M 66.9602 66.664 L 68.6102 66.664 L 68.6102 68.314 L 66.9602 68.314 L 66.9602 66.664 M 102.883 75.7014 L 104.533 75.7014 L 104.533 77.3514 L 102.883 77.3514 L 102.883 75.7014 M 106.894 59.4564 L 108.544 59.4564 L 108.544 61.1064 L 106.894 61.1064 L 106.894 59.4564" />
  <path class="h" d=" M 174.6 20.0028 L 182.18 12.7362 M 188.798 9.29611 L 194.455 9.6824 M 200.559 11.2947 L 207.11 14.1329 M 213 18.4957 L 218.229 24.3831 M 218.972 33.9089 L 215.229 47.0732 M 219.211 52.1992 L 230.919 49.2869 M 239.755 47.9916 L 245.718 48.3133 M 250.6 48.6224 L 254.403 48.9189 M 257.793 50.263 L 260.77 52.6548 M 317.905 191.499 L 320.721 194.078 M 289.138 267.496 L 287.003 270.657 M 285.266 275.147 L 283.928 280.967 M 280.482 289.232 L 274.928 299.942 M 267.053 300.732 L 256.858 291.602 M 140.571 217.411 L 133.279 214.441 M 126.44 211.359 L 120.055 208.165 M 114.488 205.02 L 109.738 201.922 M 109.545 195.526 L 113.906 185.83 M 118.68 169.704 L 118.931 159.207 M 50.9114 138.799 L 40.6098 136.767 M 34.2708 132.965 L 31.8944 127.393 M 30.3928 121.271 L 29.7662 114.6 M 17.4553 74.6843 L 11.1518 72.4114 M 9.6134 65.8319 L 12.8402 54.9456 M 32.1746 25.82 L 21.968 20.8448 M 18.436 15.7679 L 21.5784 10.5893 M 27.9329 10.3188 L 37.4997 14.9563 M 47.4537 16.3643 L 57.795 14.543" />
  <path class="h" d=" M 172.326 22.1827 L 173.806 21.453 M 187.11 9.18084 L 185.876 10.2756 M 199.03 10.6322 L 198.521 12.2016 M 212.909 18.3934 L 211.69 19.5047 M 217.911 37.6392 L 216.308 37.2505 M 217.41 52.6473 L 219.045 52.4292 M 238.847 47.9426 L 237.237 48.3035 M 252.424 48.7646 L 250.787 48.9696 M 259.409 51.5613 L 257.761 51.6362 M 319.193 192.678 L 317.801 193.565 M 288.027 269.141 L 286.969 267.874 M 283.724 281.853 L 282.395 280.876 M 274.073 301.59 L 272.945 300.386 M 264.164 298.145 L 263.336 296.718 M 133.152 214.39 L 133.618 212.807 M 118.565 207.42 L 119.135 205.872 M 108.321 200.998 L 108.918 199.46 M 111.407 191.385 L 111.965 192.938 M 118.699 168.937 L 120.318 168.619 M 50.1585 138.65 L 48.8207 137.685 M 31.8229 127.225 L 33.2872 127.986 M 29.6467 113.327 L 31.2723 113.61 M 9.94924 71.9778 L 10.2735 70.36 M 11.5782 59.2033 L 12.3659 60.6531 M 25.9599 22.7906 L 27.5231 22.2624 M 33.4138 12.9756 L 31.8447 13.4859 M 18.3415 15.9236 L 19.9889 16.0166 M 60.8974 13.9966 L 60.4548 15.5862" />
</svg>
