<?xml version="1.0"?>
<svg width="400" height="383" version="1.1" xmlns="http://www.w3.org/2000/svg" xmlns:xlink="http://www.w3.org/1999/xlink">
  <defs>
  <style type="text/css">
    <![CDATA[
      .b {stroke:rgb(0,0,0);stroke-width:1.000000;fill:none}
      .c {stroke:rgb(128,128,128);stroke-width:0.500000;stroke-dasharray:2.000000, 2.000000;}
      .h {stroke:rgb(240,200,0);stroke-width:1.000000;}
      .m {stroke:rgb(255,0,0);stroke-width:0.500000;}
      .n {stroke:rgb(128,128,128);stroke-width:0.500000}
      .t {stroke:rgb(0,128,0);stroke-width:0.500000;}
      .tab {stroke:rgb(0,0,255);stroke-width:0.250000;fill:none}
      .v {stroke:rgb(0,0,255);stroke-width:0.500000;}
      .z {stroke:rgb(0,240,200);stroke-width:0.250000;}
    ]]>
  </style>
  </defs>
  <path fill="none" class="b" d=" M 223.182 78.7454 L 224.893 98.2996 L 255.272 123.79 L 217.246 107.413 L 197.692 109.124 L 172.201 139.502 L 202.58 164.993 L 222.134 163.282 L 213.212 173.915 L 223.845 182.836 L 254.223 208.327 L 279.714 177.948 L 263.337 215.974 L 293.715 241.464 L 313.269 239.754 L 304.348 250.386 L 314.98 259.308 L 345.358 284.798 L 370.849 254.42 L 354.472 292.446 L 392.498 308.823 L 384.85 317.936 L 378.478 325.531 L 348.099 300.04 L 322.609 330.419 L 297.118 360.797 L 293.941 324.482 L 313.495 322.771 L 338.986 292.393 L 308.607 266.902 L 289.053 268.613 L 297.975 257.981 L 287.342 249.059 L 256.964 223.569 L 231.473 253.947 L 247.85 215.921 L 209.825 199.544 L 217.472 190.431 L 206.84 181.509 L 197.918 192.142 L 196.207 172.587 L 165.829 147.097 L 140.338 177.475 L 156.715 139.45 L 118.689 123.073 L 99.1353 124.784 L 90.0218 117.136 L 126.337 113.959 L 106.783 115.67 L 115.704 105.038 L 105.072 96.1159 L 67.0461 79.7388 L 74.6933 70.6253 L 65.5798 62.9782 L 27.5541 46.6011 L 8 48.3119 L 33.4905 17.9335 L 39.8632 10.3389 L 50.4956 19.2605 L 44.123 26.8552 L 35.2013 37.4876 L 71.9524 55.3835 L 89.8483 18.6325 L 98.77 8 L 106.365 14.3726 L 116.997 23.2943 L 97.4429 25.0051 L 126.111 30.9415 L 106.556 32.6523 L 81.0659 63.0307 L 111.444 88.5212 L 130.999 86.8105 L 122.077 97.4429 L 132.709 106.365 L 163.088 131.855 L 188.578 101.477 L 194.515 72.809 L 214.069 71.0983 L 223.182 78.7454" />
  <path class="c" d=" M 345.358 284.798 L 354.472 292.446 M 354.472 292.446 L 345.358 284.798 M 345.358 284.798 L 348.099 300.04 M 348.099 300.04 L 345.358 284.798 M 345.358 284.798 L 308.607 266.902 M 308.607 266.902 L 314.98 259.308 M 314.98 259.308 L 308.607 266.902 M 308.607 266.902 L 345.358 284.798 M 345.358 284.798 L 338.986 292.393 M 338.986 292.393 L 322.609 330.419 M 322.609 330.419 L 338.986 292.393 M 338.986 292.393 L 348.099 300.04 M 348.099 300.04 L 384.85 317.936 M 384.85 317.936 L 348.099 300.04 M 348.099 300.04 L 338.986 292.393 M 338.986 292.393 L 345.358 284.798 M 354.472 292.446 L 384.85 317.936 M 384.85 317.936 L 354.472 292.446 M 354.472 292.446 L 348.099 300.04 M 348.099 300.04 L 354.472 292.446 M 322.609 330.419 L 313.495 322.771 M 313.495 322.771 L 297.118 360.797 M 297.118 360.797 L 313.495 322.771 M 313.495 322.771 L 322.609 330.419 M 308.607 266.902 L 304.348 250.386 M 304.348 250.386 L 297.975 257.981 M 297.975 257.981 L 304.348 250.386 M 304.348 250.386 L 293.715 241.464 M 293.715 241.464 L 304.348 250.386 M 304.348 250.386 L 308.607 266.902 M 308.607 266.902 L 297.975 257.981 M 297.975 257.981 L 293.715 241.464 M 293.715 241.464 L 256.964 223.569 M 256.964 223.569 L 263.337 215.974 M 263.337 215.974 L 256.964 223.569 M 256.964 223.569 L 247.85 215.921 M 247.85 215.921 L 256.964 223.569 M 256.964 223.569 L 254.223 208.327 M 254.223 208.327 L 256.964 223.569 M 256.964 223.569 L 293.715 241.464 M 293.715 241.464 L 297.975 257.981 M 297.975 257.981 L 308.607 266.902 M 287.342 249.059 L 293.715 241.464 M 293.715 241.464 L 287.342 249.059 M 263.337 215.974 L 254.223 208.327 M 254.223 208.327 L 217.472 190.431 M 217.472 190.431 L 213.212 173.915 M 213.212 173.915 L 217.472 190.431 M 217.472 190.431 L 254.223 208.327 M 254.223 208.327 L 247.85 215.921 M 247.85 215.921 L 217.472 190.431 M 217.472 190.431 L 247.85 215.921 M 247.85 215.921 L 254.223 208.327 M 254.223 208.327 L 263.337 215.974 M 223.845 182.836 L 217.472 190.431 M 217.472 190.431 L 223.845 182.836 M 213.212 173.915 L 202.58 164.993 M 202.58 164.993 L 165.829 147.097 M 165.829 147.097 L 202.58 164.993 M 202.58 164.993 L 206.84 181.509 M 206.84 181.509 L 196.207 172.587 M 196.207 172.587 L 206.84 181.509 M 206.84 181.509 L 202.58 164.993 M 202.58 164.993 L 213.212 173.915 M 213.212 173.915 L 206.84 181.509 M 206.84 181.509 L 213.212 173.915 M 202.58 164.993 L 196.207 172.587 M 196.207 172.587 L 202.58 164.993 M 172.201 139.502 L 188.578 101.477 M 188.578 101.477 L 197.692 109.124 M 197.692 109.124 L 188.578 101.477 M 188.578 101.477 L 172.201 139.502 M 172.201 139.502 L 165.829 147.097 M 165.829 147.097 L 163.088 131.855 M 163.088 131.855 L 126.337 113.959 M 126.337 113.959 L 118.689 123.073 M 118.689 123.073 L 126.337 113.959 M 126.337 113.959 L 156.715 139.45 M 156.715 139.45 L 126.337 113.959 M 126.337 113.959 L 99.1353 124.784 M 99.1353 124.784 L 126.337 113.959 M 126.337 113.959 L 163.088 131.855 M 163.088 131.855 L 165.829 147.097 M 165.829 147.097 L 156.715 139.45 M 156.715 139.45 L 165.829 147.097 M 165.829 147.097 L 172.201 139.502 M 172.201 139.502 L 163.088 131.855 M 163.088 131.855 L 172.201 139.502 M 163.088 131.855 L 156.715 139.45 M 156.715 139.45 L 163.088 131.855 M 188.578 101.477 L 214.069 71.0983 M 214.069 71.0983 L 224.893 98.2996 M 224.893 98.2996 L 217.246 107.413 M 217.246 107.413 L 224.893 98.2996 M 224.893 98.2996 L 214.069 71.0983 M 214.069 71.0983 L 197.692 109.124 M 197.692 109.124 L 214.069 71.0983 M 214.069 71.0983 L 217.246 107.413 M 217.246 107.413 L 214.069 71.0983 M 214.069 71.0983 L 188.578 101.477 M 132.709 106.365 L 126.337 113.959 M 126.337 113.959 L 122.077 97.4429 M 122.077 97.4429 L 126.337 113.959 M 126.337 113.959 L 132.709 106.365 M 126.337 113.959 L 115.704 105.038 M 115.704 105.038 L 111.444 88.5212 M 111.444 88.5212 L 74.6933 70.6253 M 74.6933 70.6253 L 81.0659 63.0307 M 81.0659 63.0307 L 74.6933 70.6253 M 74.6933 70.6253 L 71.9524 55.3835 M 71.9524 55.3835 L 65.5798 62.9782 M 65.5798 62.9782 L 71.9524 55.3835 M 71.9524 55.3835 L 81.0659 63.0307 M 81.0659 63.0307 L 71.9524 55.3835 M 71.9524 55.3835 L 74.6933 70.6253 M 74.6933 70.6253 L 111.444 88.5212 M 111.444 88.5212 L 115.704 105.038 M 115.704 105.038 L 122.077 97.4429 M 122.077 97.4429 L 115.704 105.038 M 115.704 105.038 L 126.337 113.959 M 122.077 97.4429 L 111.444 88.5212 M 111.444 88.5212 L 105.072 96.1159 M 105.072 96.1159 L 74.6933 70.6253 M 74.6933 70.6253 L 105.072 96.1159 M 105.072 96.1159 L 111.444 88.5212 M 111.444 88.5212 L 122.077 97.4429 M 81.0659 63.0307 L 97.4429 25.0051 M 97.4429 25.0051 L 89.8483 18.6325 M 89.8483 18.6325 L 97.4429 25.0051 M 97.4429 25.0051 L 106.365 14.3726 M 106.365 14.3726 L 97.4429 25.0051 M 97.4429 25.0051 L 106.556 32.6523 M 106.556 32.6523 L 97.4429 25.0051 M 97.4429 25.0051 L 81.0659 63.0307 M 71.9524 55.3835 L 97.4429 25.0051 M 97.4429 25.0051 L 71.9524 55.3835 M 65.5798 62.9782 L 35.2013 37.4876 M 35.2013 37.4876 L 27.5541 46.6011 M 27.5541 46.6011 L 35.2013 37.4876 M 35.2013 37.4876 L 65.5798 62.9782 M 35.2013 37.4876 L 33.4905 17.9335 M 33.4905 17.9335 L 27.5541 46.6011 M 27.5541 46.6011 L 33.4905 17.9335 M 33.4905 17.9335 L 35.2013 37.4876 M 44.123 26.8552 L 39.8632 10.3389 M 39.8632 10.3389 L 44.123 26.8552 M 44.123 26.8552 L 33.4905 17.9335 M 33.4905 17.9335 L 44.123 26.8552 M 89.8483 18.6325 L 106.365 14.3726 M 106.365 14.3726 L 89.8483 18.6325" />
  <path class="h" d=" M 313.387 261.207 L 310.2 265.004 M 310.2 265.004 L 313.387 261.207 M 292.122 243.363 L 288.936 247.16 M 288.936 247.16 L 292.122 243.363 M 222.251 184.735 L 219.065 188.532 M 219.065 188.532 L 222.251 184.735 M 200.987 166.892 L 197.8 170.689 M 197.8 170.689 L 200.987 166.892 M 131.116 108.263 L 127.93 112.061 M 127.93 112.061 L 131.116 108.263 M 109.851 90.4199 L 106.665 94.2172 M 106.665 94.2172 L 109.851 90.4199 M 95.5443 23.4119 L 91.747 20.2256 M 91.747 20.2256 L 95.5443 23.4119" />
  <path class="z" fill="none" d=" M 223.182 78.7454 L 224.893 98.2996 L 255.272 123.79 L 217.246 107.413 L 197.692 109.124 L 172.201 139.502 L 202.58 164.993 L 222.134 163.282 L 213.212 173.915 L 223.845 182.836 L 254.223 208.327 L 279.714 177.948 L 263.337 215.974 L 293.715 241.464 L 313.269 239.754 L 304.348 250.386 L 314.98 259.308 M 378.478 325.531 L 348.099 300.04 L 322.609 330.419 M 297.118 360.797 L 293.941 324.482 L 313.495 322.771 L 338.986 292.393 L 308.607 266.902 L 289.053 268.613 L 297.975 257.981 L 287.342 249.059 L 256.964 223.569 L 231.473 253.947 L 247.85 215.921 L 209.825 199.544 L 217.472 190.431 L 206.84 181.509 L 197.918 192.142 L 196.207 172.587 L 165.829 147.097 L 140.338 177.475 L 156.715 139.45 L 118.689 123.073 L 99.1353 124.784 L 90.0218 117.136 L 126.337 113.959 M 106.783 115.67 L 115.704 105.038 L 105.072 96.1159 L 67.0461 79.7388 L 74.6933 70.6253 L 65.5798 62.9782 L 27.5541 46.6011 M 35.2013 37.4876 L 71.9524 55.3835 L 89.8483 18.6325 M 97.4429 25.0051 L 126.111 30.9415 L 106.556 32.6523 L 81.0659 63.0307 L 111.444 88.5212 L 130.999 86.8105 L 122.077 97.4429 L 132.709 106.365 L 163.088 131.855 L 188.578 101.477 L 194.515 72.809" />
  <path class="z" d=" M 171.201 138.502 L 173.201 138.502 L 173.201 140.502 L 171.201 140.502 L 171.201 138.502 M 212.212 172.915 L 214.212 172.915 L 214.212 174.915 L 212.212 174.915 L 212.212 172.915 M 253.223 207.327 L 255.223 207.327 L 255.223 209.327 L 253.223 209.327 L 253.223 207.327 M 303.348 249.386 L 305.348 249.386 L 305.348 251.386 L 303.348 251.386 L 303.348 249.386 M 347.099 299.04 L 349.099 299.04 L 349.099 301.04 L 347.099 301.04 L 347.099 299.04 M 337.986 291.393 L 339.986 291.393 L 339.986 293.393 L 337.986 293.393 L 337.986 291.393 M 296.975 256.981 L 298.975 256.981 L 298.975 258.981 L 296.975 258.981 L 296.975 256.981 M 255.964 222.569 L 257.964 222.569 L 257.964 224.569 L 255.964 224.569 L 255.964 222.569 M 246.85 214.921 L 248.85 214.921 L 248.85 216.921 L 246.85 216.921 L 246.85 214.921 M 205.84 180.509 L 207.84 180.509 L 207.84 182.509 L 205.84 182.509 L 205.84 180.509 M 164.829 146.097 L 166.829 146.097 L 166.829 148.097 L 164.829 148.097 L 164.829 146.097 M 155.715 138.45 L 157.715 138.45 L 157.715 140.45 L 155.715 140.45 L 155.715 138.45 M 114.704 104.038 L 116.704 104.038 L 116.704 106.038 L 114.704 106.038 L 114.704 104.038 M 73.6933 69.6253 L 75.6933 69.6253 L 75.6933 71.6253 L 73.6933 71.6253 L 73.6933 69.6253 M 70.9524 54.3835 L 72.9524 54.3835 L 72.9524 56.3835 L 70.9524 56.3835 L 70.9524 54.3835 M 80.0659 62.0307 L 82.0659 62.0307 L 82.0659 64.0307 L 80.0659 64.0307 L 80.0659 62.0307 M 121.077 96.4429 L 123.077 96.4429 L 123.077 98.4429 L 121.077 98.4429 L 121.077 96.4429 M 162.088 130.855 L 164.088 130.855 L 164.088 132.855 L 162.088 132.855 L 162.088 130.855" />
  <path class="h" d=" M 322.575 265.681 L 337.764 278.426 M 351.731 277.204 L 364.476 262.015 M 366.755 263.926 L 358.566 282.939 M 363.978 296.54 L 382.991 304.728 M 390.586 311.101 L 386.762 315.658 M 383.257 319.835 L 380.071 323.632 M 316.236 338.013 L 303.491 353.202 M 216.347 73.0101 L 220.904 76.8336 M 199.403 72.3813 L 209.18 71.526 M 121.448 114.387 L 111.671 115.242 M 112.109 23.722 L 102.331 24.5774 M 109.023 16.6031 L 114.339 21.0639 M 100.669 9.59316 L 104.466 12.7795 M 92.0787 15.9743 L 96.5396 10.6581 M 48.9025 21.1592 L 45.7162 24.9565 M 41.8926 29.5133 L 37.4317 34.8295 M 35.0837 16.0348 L 38.27 12.2375 M 42.5213 12.5693 L 47.8375 17.0301 M 22.6656 47.0288 L 12.8885 47.8842 M 14.3726 40.7173 L 27.1179 25.5281" />
  <path class="h" d=" M 318.018 261.857 L 316.255 262.802 M 368.3 257.458 L 367.565 259.318 M 369.198 258.253 L 367.862 259.741 M 358.304 294.096 L 359.793 295.433 M 383.313 319.769 L 381.568 318.791 M 391.478 310.037 L 389.672 309.179 M 312.625 342.317 L 312.714 340.319 M 215.284 72.1177 L 215.973 73.9952 M 205.005 71.8913 L 204.034 73.6399 M 122.953 114.255 L 121.716 112.683 M 107.933 24.0873 L 107.614 22.1129 M 108.213 15.9236 L 106.684 17.2128 M 102.49 11.1212 L 100.77 12.1428 M 94.5001 13.0887 L 96.4885 13.3039 M 47.3745 22.9802 L 46.3529 21.2608 M 41.7115 11.8898 L 42.0297 13.8643 M 35.0283 16.1008 L 36.3198 17.6279 M 39.4712 32.3989 L 38.7071 30.5507 M 17.9842 36.4132 L 19.3535 37.871 M 11.3841 48.0158 L 12.5685 46.4042" />
</svg>
