<?xml version="1.0"?>
<svg width="603" height="643" version="1.1" xmlns="http://www.w3.org/2000/svg" xmlns:xlink="http://www.w3.org/1999/xlink">
  <defs>
  <style type="text/css">
    <![CDATA[
      .b {stroke:rgb(0,0,0);stroke-width:1.607500;fill:none}
      .c {stroke:rgb(128,128,128);stroke-width:0.803750;stroke-dasharray:3.015000, 3.015000;}
      .h {stroke:rgb(240,200,0);stroke-width:1.607500;}
      .m {stroke:rgb(255,0,0);stroke-width:0.803750;}
      .n {stroke:rgb(128,128,128);stroke-width:0.803750}
      .t {stroke:rgb(0,128,0);stroke-width:0.803750;}
      .tab {stroke:rgb(0,0,255);stroke-width:0.401875;fill:none}
      .v {stroke:rgb(0,0,255);stroke-width:0.803750;}
      .z {stroke:rgb(0,240,200);stroke-width:0.401875;}
    ]]>
  </style>
  </defs>
  <path fill="none" class="b" d=" M 324.386 489.061 L 332.002 542.447 L 332.581 488.523 L 318.784 453.378 L 342.663 432.852 L 359.868 395.952 L 338.967 430.893 L 307.553 433.074 L 280.345 419.353 L 290.163 384.012 L 317.908 383.885 L 290.619 378.879 L 297.143 353.774 L 277.603 370.833 L 250.801 365.002 L 207.712 375.123 L 214.64 340.503 L 267.92 336.669 L 228.164 300.992 L 244.355 295.129 L 270.367 288.779 L 243.809 292.185 L 226.684 293.997 L 192.443 302.608 L 143.461 258.478 L 168.817 221.207 L 189.637 205.766 L 168.006 220.049 L 136.046 251.838 L 104.549 213.274 L 109.748 177.512 L 138.965 176.841 L 110.653 169.594 L 110.412 148.186 L 89.6863 153.555 L 54.3777 161.256 L 28.1839 126.63 L 8 111.161 L 43.2927 81.3442 L 94.1871 66.5868 L 114.355 103.923 L 77.2499 127.855 L 120.495 118.945 L 131.604 137.718 L 130.007 115.963 L 145.309 109.202 L 161.82 128.057 L 157.08 157.778 L 164.607 128.638 L 152.355 106.774 L 136.313 102.028 L 166.292 71.9941 L 186.607 80.929 L 181.954 59.229 L 195.505 8 L 237.944 31.9941 L 224.849 52.9096 L 249.073 48.2038 L 259.372 91.1097 L 235.964 132.324 L 209.212 186.057 L 218.79 252.149 L 210.007 185.947 L 244.455 136.791 L 277.996 103.302 L 276.542 190.398 L 235.458 237.679 L 250.81 249.117 L 238.576 234.391 L 287.861 195.735 L 295.312 228.787 L 302.657 263.452 L 324.261 307.759 L 311.139 317.51 L 325.164 309.109 L 347.089 313.501 L 363.464 332.694 L 325.592 357.371 L 368.566 371.393 L 397.673 417.502 L 369.676 370.71 L 408.652 352.621 L 432.409 334.639 L 408.159 351.952 L 367.466 365.749 L 377.749 342.712 L 374.285 320.62 L 419.948 302.056 L 455.363 303.242 L 489.164 305.581 L 560.166 356.044 L 595.945 381.868 L 586.155 413.084 L 534.626 411.694 L 486.803 410.485 L 474.251 354.069 L 495.627 354.122 L 474.47 351.068 L 464.001 407.908 L 448.632 398.155 L 462.4 410.061 L 504.871 432.08 L 456.292 444.273 L 453.765 481.065 L 431.029 481.135 L 384.542 448.934 L 429.463 483.287 L 375.653 467.185 L 425.517 493.036 L 447.759 497.752 L 460.234 463.047 L 510.251 465.663 L 493.502 500.928 L 517.23 469.925 L 503.395 530.03 L 531.098 474.924 L 549.778 522.968 L 581.15 532.24 L 575.156 580.622 L 531.606 596.054 L 513.013 580.024 L 542.069 561.2 L 509.523 573.004 L 488.654 559.669 L 462.911 560.359 L 484.411 538 L 453.72 542.504 L 434.806 559.98 L 438.998 526.617 L 403.702 505.871 L 414.115 545.467 L 403.217 577.279 L 353.209 540.304 L 390.277 590.241 L 366.049 595.366 L 341.756 591.83 L 316.329 592.226 L 282.656 619.633 L 264.412 573.304 L 240.406 511.899 L 298.633 530.649 L 246.083 499.337 L 243.229 455.168 L 258.779 432.572 L 272.487 466.594 L 301.924 458.716 L 324.386 489.061" />
  <path class="c" d=" M 453.72 542.504 L 438.998 526.617 M 438.998 526.617 L 453.72 542.504 M 438.998 526.617 L 447.759 497.752 M 447.759 497.752 L 438.998 526.617 M 438.998 526.617 L 484.411 538 M 484.411 538 L 503.395 530.03 M 503.395 530.03 L 493.502 500.928 M 493.502 500.928 L 460.234 463.047 M 460.234 463.047 L 493.502 500.928 M 493.502 500.928 L 503.395 530.03 M 503.395 530.03 L 509.523 573.004 M 509.523 573.004 L 503.395 530.03 M 503.395 530.03 L 484.411 538 M 484.411 538 L 460.234 463.047 M 460.234 463.047 L 484.411 538 M 484.411 538 L 447.759 497.752 M 447.759 497.752 L 484.411 538 M 484.411 538 L 488.654 559.669 M 488.654 559.669 L 484.411 538 M 484.411 538 L 438.998 526.617 M 447.759 497.752 L 403.702 505.871 M 403.702 505.871 L 332.581 488.523 M 332.581 488.523 L 403.702 505.871 M 403.702 505.871 L 375.653 467.185 M 375.653 467.185 L 403.702 505.871 M 403.702 505.871 L 425.517 493.036 M 425.517 493.036 L 403.702 505.871 M 403.702 505.871 L 353.209 540.304 M 353.209 540.304 L 332.581 488.523 M 332.581 488.523 L 353.209 540.304 M 353.209 540.304 L 403.702 505.871 M 403.702 505.871 L 447.759 497.752 M 431.029 481.135 L 456.292 444.273 M 456.292 444.273 L 397.673 417.502 M 397.673 417.502 L 384.542 448.934 M 384.542 448.934 L 397.673 417.502 M 397.673 417.502 L 456.292 444.273 M 456.292 444.273 L 448.632 398.155 M 448.632 398.155 L 456.292 444.273 M 456.292 444.273 L 431.029 481.135 M 431.029 481.135 L 397.673 417.502 M 397.673 417.502 L 359.868 395.952 M 359.868 395.952 L 397.673 417.502 M 397.673 417.502 L 431.029 481.135 M 456.292 444.273 L 462.4 410.061 M 462.4 410.061 L 456.292 444.273 M 464.001 407.908 L 432.409 334.639 M 432.409 334.639 L 474.47 351.068 M 474.47 351.068 L 432.409 334.639 M 432.409 334.639 L 374.285 320.62 M 374.285 320.62 L 432.409 334.639 M 432.409 334.639 L 464.001 407.908 M 448.632 398.155 L 397.673 417.502 M 397.673 417.502 L 448.632 398.155 M 448.632 398.155 L 432.409 334.639 M 432.409 334.639 L 455.363 303.242 M 455.363 303.242 L 495.627 354.122 M 495.627 354.122 L 455.363 303.242 M 455.363 303.242 L 432.409 334.639 M 432.409 334.639 L 419.948 302.056 M 419.948 302.056 L 432.409 334.639 M 432.409 334.639 L 448.632 398.155 M 448.632 398.155 L 369.676 370.71 M 369.676 370.71 L 448.632 398.155 M 448.632 398.155 L 408.652 352.621 M 408.652 352.621 L 448.632 398.155 M 474.251 354.069 L 534.626 411.694 M 534.626 411.694 L 474.251 354.069 M 474.47 351.068 L 455.363 303.242 M 455.363 303.242 L 474.47 351.068 M 495.627 354.122 L 586.155 413.084 M 586.155 413.084 L 495.627 354.122 M 495.627 354.122 L 489.164 305.581 M 489.164 305.581 L 495.627 354.122 M 495.627 354.122 L 534.626 411.694 M 534.626 411.694 L 495.627 354.122 M 495.627 354.122 L 560.166 356.044 M 560.166 356.044 L 495.627 354.122 M 495.627 354.122 L 595.945 381.868 M 595.945 381.868 L 495.627 354.122 M 408.159 351.952 L 377.749 342.712 M 377.749 342.712 L 408.159 351.952 M 408.159 351.952 L 374.285 320.62 M 374.285 320.62 L 408.159 351.952 M 368.566 371.393 L 359.868 395.952 M 359.868 395.952 L 317.908 383.885 M 317.908 383.885 L 338.967 430.893 M 338.967 430.893 L 317.908 383.885 M 317.908 383.885 L 297.143 353.774 M 297.143 353.774 L 317.908 383.885 M 317.908 383.885 L 280.345 419.353 M 280.345 419.353 L 317.908 383.885 M 317.908 383.885 L 359.868 395.952 M 359.868 395.952 L 384.542 448.934 M 384.542 448.934 L 375.653 467.185 M 375.653 467.185 L 384.542 448.934 M 384.542 448.934 L 359.868 395.952 M 359.868 395.952 L 368.566 371.393 M 359.868 395.952 L 325.592 357.371 M 325.592 357.371 L 359.868 395.952 M 342.663 432.852 L 375.653 467.185 M 375.653 467.185 L 342.663 432.852 M 342.663 432.852 L 332.581 488.523 M 332.581 488.523 L 375.653 467.185 M 375.653 467.185 L 332.581 488.523 M 332.581 488.523 L 342.663 432.852 M 342.663 432.852 L 384.542 448.934 M 384.542 448.934 L 342.663 432.852 M 307.553 433.074 L 317.908 383.885 M 317.908 383.885 L 307.553 433.074 M 272.487 466.594 L 246.083 499.337 M 246.083 499.337 L 272.487 466.594 M 272.487 466.594 L 243.229 455.168 M 243.229 455.168 L 272.487 466.594 M 272.487 466.594 L 324.386 489.061 M 324.386 489.061 L 272.487 466.594 M 272.487 466.594 L 298.633 530.649 M 298.633 530.649 L 264.412 573.304 M 264.412 573.304 L 298.633 530.649 M 298.633 530.649 L 282.656 619.633 M 282.656 619.633 L 298.633 530.649 M 298.633 530.649 L 272.487 466.594 M 272.487 466.594 L 332.002 542.447 M 332.002 542.447 L 341.756 591.83 M 341.756 591.83 L 332.002 542.447 M 332.002 542.447 L 316.329 592.226 M 316.329 592.226 L 332.002 542.447 M 332.002 542.447 L 353.209 540.304 M 353.209 540.304 L 341.756 591.83 M 341.756 591.83 L 353.209 540.304 M 353.209 540.304 L 366.049 595.366 M 366.049 595.366 L 353.209 540.304 M 353.209 540.304 L 332.002 542.447 M 332.002 542.447 L 298.633 530.649 M 298.633 530.649 L 316.329 592.226 M 316.329 592.226 L 298.633 530.649 M 298.633 530.649 L 332.002 542.447 M 332.002 542.447 L 272.487 466.594 M 317.908 383.885 L 325.592 357.371 M 325.592 357.371 L 297.143 353.774 M 297.143 353.774 L 267.92 336.669 M 267.92 336.669 L 244.355 295.129 M 244.355 295.129 L 267.92 336.669 M 267.92 336.669 L 270.367 288.779 M 270.367 288.779 L 250.81 249.117 M 250.81 249.117 L 270.367 288.779 M 270.367 288.779 L 267.92 336.669 M 267.92 336.669 L 297.143 353.774 M 297.143 353.774 L 325.592 357.371 M 325.592 357.371 L 317.908 383.885 M 325.592 357.371 L 311.139 317.51 M 311.139 317.51 L 347.089 313.501 M 347.089 313.501 L 311.139 317.51 M 311.139 317.51 L 302.657 263.452 M 302.657 263.452 L 311.139 317.51 M 311.139 317.51 L 267.92 336.669 M 267.92 336.669 L 311.139 317.51 M 311.139 317.51 L 270.367 288.779 M 270.367 288.779 L 295.312 228.787 M 295.312 228.787 L 250.81 249.117 M 250.81 249.117 L 295.312 228.787 M 295.312 228.787 L 270.367 288.779 M 270.367 288.779 L 311.139 317.51 M 311.139 317.51 L 325.592 357.371 M 325.592 357.371 L 347.089 313.501 M 347.089 313.501 L 325.592 357.371 M 297.143 353.774 L 311.139 317.51 M 311.139 317.51 L 297.143 353.774 M 297.143 353.774 L 250.801 365.002 M 250.801 365.002 L 214.64 340.503 M 214.64 340.503 L 250.801 365.002 M 250.801 365.002 L 267.92 336.669 M 267.92 336.669 L 250.801 365.002 M 250.801 365.002 L 297.143 353.774 M 270.367 288.779 L 302.657 263.452 M 302.657 263.452 L 270.367 288.779 M 243.809 292.185 L 235.458 237.679 M 235.458 237.679 L 243.809 292.185 M 243.809 292.185 L 250.81 249.117 M 250.81 249.117 L 287.861 195.735 M 287.861 195.735 L 250.81 249.117 M 250.81 249.117 L 243.809 292.185 M 243.809 292.185 L 218.79 252.149 M 218.79 252.149 L 168.817 221.207 M 168.817 221.207 L 218.79 252.149 M 218.79 252.149 L 189.637 205.766 M 189.637 205.766 L 164.607 128.638 M 164.607 128.638 L 186.607 80.929 M 186.607 80.929 L 235.964 132.324 M 235.964 132.324 L 186.607 80.929 M 186.607 80.929 L 164.607 128.638 M 164.607 128.638 L 189.637 205.766 M 189.637 205.766 L 218.79 252.149 M 218.79 252.149 L 235.458 237.679 M 235.458 237.679 L 218.79 252.149 M 218.79 252.149 L 226.684 293.997 M 226.684 293.997 L 218.79 252.149 M 218.79 252.149 L 243.809 292.185 M 226.684 293.997 L 168.817 221.207 M 168.817 221.207 L 192.443 302.608 M 192.443 302.608 L 168.817 221.207 M 168.817 221.207 L 226.684 293.997 M 235.458 237.679 L 244.455 136.791 M 244.455 136.791 L 276.542 190.398 M 276.542 190.398 L 244.455 136.791 M 244.455 136.791 L 235.458 237.679 M 235.458 237.679 L 210.007 185.947 M 210.007 185.947 L 235.458 237.679 M 189.637 205.766 L 209.212 186.057 M 209.212 186.057 L 186.607 80.929 M 186.607 80.929 L 224.849 52.9096 M 224.849 52.9096 L 259.372 91.1097 M 259.372 91.1097 L 224.849 52.9096 M 224.849 52.9096 L 181.954 59.229 M 181.954 59.229 L 224.849 52.9096 M 224.849 52.9096 L 186.607 80.929 M 186.607 80.929 L 152.355 106.774 M 152.355 106.774 L 186.607 80.929 M 186.607 80.929 L 209.212 186.057 M 209.212 186.057 L 189.637 205.766 M 189.637 205.766 L 157.08 157.778 M 157.08 157.778 L 168.006 220.049 M 168.006 220.049 L 157.08 157.778 M 157.08 157.778 L 138.965 176.841 M 138.965 176.841 L 136.046 251.838 M 136.046 251.838 L 138.965 176.841 M 138.965 176.841 L 131.604 137.718 M 131.604 137.718 L 138.965 176.841 M 138.965 176.841 L 157.08 157.778 M 157.08 157.778 L 131.604 137.718 M 131.604 137.718 L 161.82 128.057 M 161.82 128.057 L 131.604 137.718 M 131.604 137.718 L 157.08 157.778 M 157.08 157.778 L 189.637 205.766 M 168.006 220.049 L 138.965 176.841 M 138.965 176.841 L 104.549 213.274 M 104.549 213.274 L 138.965 176.841 M 138.965 176.841 L 168.006 220.049 M 138.965 176.841 L 110.412 148.186 M 110.412 148.186 L 77.2499 127.855 M 77.2499 127.855 L 94.1871 66.5868 M 94.1871 66.5868 L 77.2499 127.855 M 77.2499 127.855 L 110.412 148.186 M 110.412 148.186 L 138.965 176.841 M 131.604 137.718 L 145.309 109.202 M 145.309 109.202 L 131.604 137.718 M 131.604 137.718 L 110.412 148.186 M 110.412 148.186 L 120.495 118.945 M 120.495 118.945 L 110.412 148.186 M 110.412 148.186 L 131.604 137.718 M 164.607 128.638 L 209.212 186.057 M 209.212 186.057 L 164.607 128.638 M 152.355 106.774 L 166.292 71.9941 M 166.292 71.9941 L 152.355 106.774 M 77.2499 127.855 L 54.3777 161.256 M 54.3777 161.256 L 77.2499 127.855 M 77.2499 127.855 L 89.6863 153.555 M 89.6863 153.555 L 77.2499 127.855 M 77.2499 127.855 L 43.2927 81.3442 M 43.2927 81.3442 L 28.1839 126.63 M 28.1839 126.63 L 43.2927 81.3442 M 43.2927 81.3442 L 77.2499 127.855 M 77.2499 127.855 L 28.1839 126.63 M 28.1839 126.63 L 77.2499 127.855 M 235.964 132.324 L 224.849 52.9096 M 224.849 52.9096 L 195.505 8 M 195.505 8 L 224.849 52.9096 M 224.849 52.9096 L 235.964 132.324 M 353.209 540.304 L 414.115 545.467 M 414.115 545.467 L 353.209 540.304 M 484.411 538 L 493.502 500.928 M 493.502 500.928 L 484.411 538 M 503.395 530.03 L 488.654 559.669 M 488.654 559.669 L 503.395 530.03 M 503.395 530.03 L 549.778 522.968 M 549.778 522.968 L 542.069 561.2 M 542.069 561.2 L 549.778 522.968 M 549.778 522.968 L 575.156 580.622 M 575.156 580.622 L 549.778 522.968 M 549.778 522.968 L 509.523 573.004 M 509.523 573.004 L 549.778 522.968 M 549.778 522.968 L 503.395 530.03 M 542.069 561.2 L 531.606 596.054 M 531.606 596.054 L 542.069 561.2 M 542.069 561.2 L 575.156 580.622 M 575.156 580.622 L 542.069 561.2" />
  <path class="h" d=" M 81.4842 112.538 L 89.9528 81.9038 M 89.9528 81.9038 L 81.4842 112.538 M 68.7606 116.227 L 51.782 92.9718 M 51.782 92.9718 L 68.7606 116.227 M 64.9834 127.549 L 40.4504 126.936 M 40.4504 126.936 L 64.9834 127.549 M 71.5318 136.205 L 60.0958 152.905 M 60.0958 152.905 L 71.5318 136.205 M 80.359 134.28 L 86.5772 147.13 M 86.5772 147.13 L 80.359 134.28 M 31.9611 115.309 L 39.5155 92.6656 M 39.5155 92.6656 L 31.9611 115.309 M 138.235 195.59 L 136.775 233.089 M 136.775 233.089 L 138.235 195.59 M 165.274 204.481 L 159.811 173.346 M 159.811 173.346 L 165.274 204.481 M 183.379 186.484 L 170.864 147.92 M 170.864 147.92 L 183.379 186.484 M 203.561 159.775 L 192.258 107.211 M 192.258 107.211 L 203.561 159.775 M 242.206 162.013 L 237.707 212.457 M 237.707 212.457 L 242.206 162.013 M 237.546 251.305 L 241.721 278.558 M 241.721 278.558 L 237.546 251.305 M 276.603 273.781 L 289.076 243.785 M 289.076 243.785 L 276.603 273.781 M 320.126 316.508 L 338.101 314.503 M 338.101 314.503 L 320.126 316.508 M 382.754 328.453 L 399.691 344.119 M 399.691 344.119 L 382.754 328.453 M 440.307 352.956 L 456.103 389.591 M 456.103 389.591 L 440.307 352.956 M 465.429 315.962 L 485.561 341.402 M 485.561 341.402 L 465.429 315.962 M 505.377 368.515 L 524.877 397.301 M 524.877 397.301 L 505.377 368.515 M 460.873 418.614 L 457.819 435.72 M 457.819 435.72 L 460.873 418.614 M 435.892 402.992 L 410.412 412.665 M 410.412 412.665 L 435.892 402.992 M 406.012 433.41 L 422.69 465.227 M 422.69 465.227 L 406.012 433.41 M 449.976 453.489 L 437.345 471.92 M 437.345 471.92 L 449.976 453.489 M 466.278 481.786 L 478.367 519.262 M 478.367 519.262 L 466.278 481.786 M 420.063 496.245 L 409.155 502.663 M 409.155 502.663 L 420.063 496.245 M 450.352 529.463 L 473.058 535.155 M 473.058 535.155 L 450.352 529.463 M 492.339 552.259 L 499.709 537.44 M 499.709 537.44 L 492.339 552.259 M 539.453 569.913 L 534.222 587.34 M 534.222 587.34 L 539.453 569.913 M 550.341 566.055 L 566.884 575.766 M 566.884 575.766 L 550.341 566.055 M 543.996 551.642 L 547.851 532.526 M 547.851 532.526 L 543.996 551.642 M 398.888 544.176 L 368.435 541.595 M 368.435 541.595 L 398.888 544.176 M 356.419 554.07 L 362.839 581.601 M 362.839 581.601 L 356.419 554.07 M 347.907 540.84 L 337.304 541.911 M 337.304 541.911 L 347.907 540.84 M 348.052 527.359 L 337.738 501.469 M 337.738 501.469 L 348.052 527.359 M 323.66 539.498 L 306.975 533.599 M 306.975 533.599 L 323.66 539.498 M 328.084 554.892 L 320.248 579.781 M 320.248 579.781 L 328.084 554.892 M 334.441 554.793 L 339.317 579.484 M 339.317 579.484 L 334.441 554.793 M 311.905 576.832 L 303.057 546.043 M 303.057 546.043 L 311.905 576.832 M 294.639 552.895 L 286.65 597.387 M 286.65 597.387 L 294.639 552.895 M 290.078 541.313 L 272.968 562.64 M 272.968 562.64 L 290.078 541.313 M 292.096 514.635 L 279.024 482.608 M 279.024 482.608 L 292.096 514.635 M 317.123 523.484 L 287.366 485.557 M 287.366 485.557 L 317.123 523.484 M 311.411 483.444 L 285.462 472.211 M 285.462 472.211 L 311.411 483.444 M 335.101 474.606 L 340.142 446.77 M 340.142 446.77 L 335.101 474.606 M 343.349 483.189 L 364.885 472.519 M 364.885 472.519 L 343.349 483.189 M 310.142 420.777 L 315.32 396.182 M 315.32 396.182 L 310.142 420.777 M 289.736 410.486 L 308.517 392.752 M 308.517 392.752 L 289.736 410.486 M 265.173 463.737 L 250.544 458.025 M 250.544 458.025 L 265.173 463.737 M 217.513 41.6822 L 202.841 19.2274 M 202.841 19.2274 L 217.513 41.6822" />
  <path class="z" fill="none" d=" M 324.386 489.061 L 332.002 542.447 L 332.581 488.523 L 318.784 453.378 L 342.663 432.852 L 359.868 395.952 L 338.967 430.893 L 307.553 433.074 L 280.345 419.353 L 290.163 384.012 L 317.908 383.885 L 290.619 378.879 L 297.143 353.774 L 277.603 370.833 L 250.801 365.002 L 207.712 375.123 L 214.64 340.503 L 267.92 336.669 L 228.164 300.992 L 244.355 295.129 L 270.367 288.779 L 243.809 292.185 L 226.684 293.997 L 192.443 302.608 L 143.461 258.478 L 168.817 221.207 L 189.637 205.766 L 168.006 220.049 L 136.046 251.838 L 104.549 213.274 L 109.748 177.512 L 138.965 176.841 L 110.653 169.594 L 110.412 148.186 L 89.6863 153.555 L 54.3777 161.256 L 28.1839 126.63 M 94.1871 66.5868 L 114.355 103.923 L 77.2499 127.855 L 120.495 118.945 L 131.604 137.718 L 130.007 115.963 L 145.309 109.202 L 161.82 128.057 L 157.08 157.778 L 164.607 128.638 L 152.355 106.774 L 136.313 102.028 L 166.292 71.9941 L 186.607 80.929 L 181.954 59.229 M 237.944 31.9941 L 224.849 52.9096 L 249.073 48.2038 M 259.372 91.1097 L 235.964 132.324 L 209.212 186.057 L 218.79 252.149 L 210.007 185.947 L 244.455 136.791 L 277.996 103.302 L 276.542 190.398 L 235.458 237.679 L 250.81 249.117 L 238.576 234.391 L 287.861 195.735 L 295.312 228.787 L 302.657 263.452 L 324.261 307.759 L 311.139 317.51 L 325.164 309.109 L 347.089 313.501 L 363.464 332.694 L 325.592 357.371 L 368.566 371.393 L 397.673 417.502 L 369.676 370.71 L 408.652 352.621 L 432.409 334.639 L 408.159 351.952 L 367.466 365.749 L 377.749 342.712 L 374.285 320.62 L 419.948 302.056 L 455.363 303.242 L 489.164 305.581 L 560.166 356.044 M 586.155 413.084 L 534.626 411.694 L 486.803 410.485 L 474.251 354.069 L 495.627 354.122 L 474.47 351.068 L 464.001 407.908 L 448.632 398.155 L 462.4 410.061 L 504.871 432.08 L 456.292 444.273 L 453.765 481.065 L 431.029 481.135 L 384.542 448.934 L 429.463 483.287 L 375.653 467.185 L 425.517 493.036 L 447.759 497.752 L 460.234 463.047 L 510.251 465.663 L 493.502 500.928 L 517.23 469.925 L 503.395 530.03 L 531.098 474.924 L 549.778 522.968 M 531.606 596.054 L 513.013 580.024 L 542.069 561.2 L 509.523 573.004 L 488.654 559.669 L 462.911 560.359 L 484.411 538 L 453.72 542.504 L 434.806 559.98 L 438.998 526.617 L 403.702 505.871 L 414.115 545.467 L 403.217 577.279 L 353.209 540.304 L 390.277 590.241 L 366.049 595.366 L 341.756 591.83 M 316.329 592.226 L 282.656 619.633 L 264.412 573.304 L 240.406 511.899 L 298.633 530.649 L 246.083 499.337 L 243.229 455.168 L 258.779 432.572 L 272.487 466.594 L 301.924 458.716 L 324.386 489.061" />
  <path class="z" d=" M 330.495 540.939 L 333.51 540.939 L 333.51 543.954 L 330.495 543.954 L 330.495 540.939 M 358.36 394.445 L 361.375 394.445 L 361.375 397.46 L 358.36 397.46 L 358.36 394.445 M 316.401 382.378 L 319.416 382.378 L 319.416 385.393 L 316.401 385.393 L 316.401 382.378 M 295.635 352.266 L 298.65 352.266 L 298.65 355.281 L 295.635 355.281 L 295.635 352.266 M 266.412 335.161 L 269.427 335.161 L 269.427 338.176 L 266.412 338.176 L 266.412 335.161 M 268.859 287.272 L 271.874 287.272 L 271.874 290.287 L 268.859 290.287 L 268.859 287.272 M 188.129 204.259 L 191.144 204.259 L 191.144 207.274 L 188.129 207.274 L 188.129 204.259 M 137.457 175.334 L 140.472 175.334 L 140.472 178.349 L 137.457 178.349 L 137.457 175.334 M 108.904 146.678 L 111.919 146.678 L 111.919 149.693 L 108.904 149.693 L 108.904 146.678 M 75.7424 126.347 L 78.7574 126.347 L 78.7574 129.362 L 75.7424 129.362 L 75.7424 126.347 M 130.097 136.21 L 133.112 136.21 L 133.112 139.225 L 130.097 139.225 L 130.097 136.21 M 155.572 156.27 L 158.587 156.27 L 158.587 159.285 L 155.572 159.285 L 155.572 156.27 M 185.099 79.4215 L 188.114 79.4215 L 188.114 82.4365 L 185.099 82.4365 L 185.099 79.4215 M 223.341 51.4021 L 226.356 51.4021 L 226.356 54.4171 L 223.341 54.4171 L 223.341 51.4021 M 217.283 250.642 L 220.298 250.642 L 220.298 253.657 L 217.283 253.657 L 217.283 250.642 M 249.302 247.61 L 252.317 247.61 L 252.317 250.625 L 249.302 250.625 L 249.302 247.61 M 309.631 316.002 L 312.646 316.002 L 312.646 319.017 L 309.631 319.017 L 309.631 316.002 M 324.085 355.864 L 327.1 355.864 L 327.1 358.879 L 324.085 358.879 L 324.085 355.864 M 396.165 415.995 L 399.18 415.995 L 399.18 419.01 L 396.165 419.01 L 396.165 415.995 M 430.902 333.131 L 433.917 333.131 L 433.917 336.146 L 430.902 336.146 L 430.902 333.131 M 494.12 352.615 L 497.135 352.615 L 497.135 355.63 L 494.12 355.63 L 494.12 352.615 M 447.125 396.647 L 450.14 396.647 L 450.14 399.662 L 447.125 399.662 L 447.125 396.647 M 383.034 447.426 L 386.049 447.426 L 386.049 450.441 L 383.034 450.441 L 383.034 447.426 M 374.146 465.677 L 377.161 465.677 L 377.161 468.692 L 374.146 468.692 L 374.146 465.677 M 491.995 499.42 L 495.01 499.42 L 495.01 502.435 L 491.995 502.435 L 491.995 499.42 M 501.887 528.522 L 504.902 528.522 L 504.902 531.537 L 501.887 531.537 L 501.887 528.522 M 540.562 559.692 L 543.577 559.692 L 543.577 562.707 L 540.562 562.707 L 540.562 559.692 M 482.904 536.493 L 485.919 536.493 L 485.919 539.508 L 482.904 539.508 L 482.904 536.493 M 402.194 504.364 L 405.209 504.364 L 405.209 507.379 L 402.194 507.379 L 402.194 504.364 M 351.701 538.797 L 354.716 538.797 L 354.716 541.812 L 351.701 541.812 L 351.701 538.797 M 297.125 529.142 L 300.14 529.142 L 300.14 532.157 L 297.125 532.157 L 297.125 529.142" />
  <path class="h" d=" M 23.1379 122.763 L 13.046 115.028 M 16.8232 103.707 L 34.4695 88.7984 M 56.0163 77.6548 L 81.4635 70.2761 M 185.342 46.4218 L 192.118 20.8073 M 206.115 13.9985 L 227.334 25.9955 M 251.648 58.9303 L 256.797 80.3832 M 569.111 362.5 L 587 375.412 M 593.497 389.672 L 588.603 405.28 M 557.621 525.286 L 573.307 529.922 M 579.652 544.336 L 576.654 568.527 M 564.268 584.48 L 542.493 592.196 M 335.399 591.929 L 322.686 592.127" />
  <path class="h" d=" M 26.1655 125.083 L 27.2648 122.276 M 11.5571 108.156 L 13.574 110.397 M 50.0771 79.3769 L 51.5513 82.007 M 193.699 14.8291 L 195.608 17.1628 M 205.746 13.7901 L 207.069 16.4994 M 253.107 65.0093 L 250.335 63.8225 M 581.931 371.753 L 578.977 371.15 M 594.251 387.27 L 591.393 386.31 M 555.207 524.573 L 556.218 527.413 M 579.704 543.916 L 577.234 542.187 M 570.766 582.177 L 568.332 580.398 M 339.213 591.87 L 338.778 588.886" />
</svg>
