<?xml version="1.0"?>
<svg width="327" height="371" version="1.1" xmlns="http://www.w3.org/2000/svg" xmlns:xlink="http://www.w3.org/1999/xlink">
  <defs>
  <style type="text/css">
    <![CDATA[
      .b {stroke:rgb(0,0,0);stroke-width:0.927500;fill:none}
      .c {stroke:rgb(128,128,128);stroke-width:0.463750;stroke-dasharray:1.635000, 1.635000;}
      .h {stroke:rgb(240,200,0);stroke-width:0.927500;}
      .m {stroke:rgb(255,0,0);stroke-width:0.463750;}
      .n {stroke:rgb(128,128,128);stroke-width:0.463750}
      .t {stroke:rgb(0,128,0);stroke-width:0.463750;}
      .tab {stroke:rgb(0,0,255);stroke-width:0.231875;fill:none}
      .v {stroke:rgb(0,0,255);stroke-width:0.463750;}
      .z {stroke:rgb(0,240,200);stroke-width:0.231875;}
    ]]>
  </style>
  </defs>
  <path fill="none" class="b" d=" M 218.12 23.2769 L 230.968 39.6565 L 225.146 19.67 L 248.171 8 L 247.236 19.3201 L 255.289 26.3712 L 267.758 53.3144 L 249.804 49.3999 L 259.015 65.301 L 236.057 75.5831 L 253.798 93.4179 L 278.08 110.5 L 280.794 100.147 L 319.612 102.47 L 310.604 109.677 L 318.004 118.528 L 282.327 134.001 L 289.313 121.01 L 281.226 133.345 L 275.129 123.762 L 258.501 119.5 L 248.616 118.848 L 232.127 120.383 L 227.764 100.019 L 206.823 112.363 L 180.269 104.631 L 171.228 122.093 L 184.973 136.156 L 205.775 154.381 L 170.097 158.944 L 163.436 142.176 L 168.259 159.563 L 147.363 173.645 L 172.249 169.693 L 166.091 187.211 L 130.233 191.051 L 122.068 204.365 L 109.252 195.133 L 109.951 210.912 L 114.855 225.74 L 102.82 259.736 L 111.423 276.192 L 80.3784 294.36 L 83.3212 277.328 L 72.9467 291.153 L 50.7626 301.092 L 51.0349 287.468 L 57.3335 265.737 L 48.539 286.583 L 41.9256 260.454 L 40.5302 287.371 L 38.4257 300.834 L 23.8636 285.946 L 26.6815 302.264 L 36.5848 301.996 L 46.2753 332.84 L 31.6806 332.589 L 35.413 346.701 L 12.4774 323.914 L 14.6583 306.887 L 12.1061 294.556 L 8 271.948 L 15.1613 244.463 L 28.5113 247.594 L 17.9806 238.812 L 33.059 228.13 L 51.3647 223.678 L 53.7328 243.755 L 61.5428 225.109 L 45.998 214.466 L 60.1111 205.091 L 79.52 212.372 L 80.4132 243.846 L 91.5356 214.389 L 97.0338 205.012 L 86.403 202.746 L 99.0054 181.285 L 118.752 169.702 L 98.1892 179.765 L 96.3395 162.768 L 108.969 154.922 L 95.4692 161.152 L 87.4016 176.226 L 70.7117 194.688 L 58.4103 178.003 L 62.5769 163.283 L 55.9784 177.085 L 40.8581 169.44 L 39.9995 150.981 L 38.7906 122.604 L 25.0969 104.153 L 37.584 98.1996 L 58.504 113.5 L 55.6032 137.496 L 70.3704 139.393 L 56.2698 134.614 L 61.9458 111.119 L 75.9112 121.961 L 75.0638 104.302 L 98.3371 111.893 L 93.7537 130.899 L 113.247 118.06 L 129.275 142.872 L 114.316 117.401 L 126.643 113.784 L 113.871 115.173 L 95.8835 100.298 L 114.461 94.2043 L 135.289 96.9797 L 152.65 111.809 L 154.117 89.0242 L 133.44 92.764 L 122.218 71.0086 L 129.685 46.1896 L 150.146 61.6514 L 141.213 37.6115 L 137.227 24.3647 L 144.95 14.4184 L 156.932 37.2827 L 175.378 43.5587 L 167.562 65.2817 L 186.487 52.0593 L 202.312 63.6103 L 206.505 81.873 L 188.357 80.8188 L 201.085 93.7983 L 214.156 80.3726 L 226.534 66.3787 L 208.597 61.1511 L 212.709 41.9948 L 218.12 23.2769" />
  <path class="c" d=" M 258.501 119.5 L 253.798 93.4179 M 253.798 93.4179 L 258.501 119.5 M 258.501 119.5 L 278.08 110.5 M 278.08 110.5 L 310.604 109.677 M 310.604 109.677 L 278.08 110.5 M 278.08 110.5 L 275.129 123.762 M 275.129 123.762 L 289.313 121.01 M 289.313 121.01 L 275.129 123.762 M 275.129 123.762 L 278.08 110.5 M 278.08 110.5 L 289.313 121.01 M 289.313 121.01 L 278.08 110.5 M 278.08 110.5 L 318.004 118.528 M 318.004 118.528 L 289.313 121.01 M 289.313 121.01 L 318.004 118.528 M 318.004 118.528 L 278.08 110.5 M 278.08 110.5 L 258.501 119.5 M 248.616 118.848 L 253.798 93.4179 M 253.798 93.4179 L 248.616 118.848 M 248.616 118.848 L 227.764 100.019 M 227.764 100.019 L 201.085 93.7983 M 201.085 93.7983 L 227.764 100.019 M 227.764 100.019 L 253.798 93.4179 M 253.798 93.4179 L 227.764 100.019 M 227.764 100.019 L 248.616 118.848 M 227.764 100.019 L 236.057 75.5831 M 236.057 75.5831 L 226.534 66.3787 M 226.534 66.3787 L 236.057 75.5831 M 236.057 75.5831 L 249.804 49.3999 M 249.804 49.3999 L 236.057 75.5831 M 236.057 75.5831 L 214.156 80.3726 M 214.156 80.3726 L 236.057 75.5831 M 236.057 75.5831 L 227.764 100.019 M 227.764 100.019 L 214.156 80.3726 M 214.156 80.3726 L 227.764 100.019 M 206.823 112.363 L 201.085 93.7983 M 201.085 93.7983 L 180.269 104.631 M 180.269 104.631 L 152.65 111.809 M 152.65 111.809 L 180.269 104.631 M 180.269 104.631 L 201.085 93.7983 M 201.085 93.7983 L 206.823 112.363 M 180.269 104.631 L 188.357 80.8188 M 188.357 80.8188 L 202.312 63.6103 M 202.312 63.6103 L 188.357 80.8188 M 188.357 80.8188 L 167.562 65.2817 M 167.562 65.2817 L 156.932 37.2827 M 156.932 37.2827 L 141.213 37.6115 M 141.213 37.6115 L 144.95 14.4184 M 144.95 14.4184 L 141.213 37.6115 M 141.213 37.6115 L 156.932 37.2827 M 156.932 37.2827 L 167.562 65.2817 M 167.562 65.2817 L 150.146 61.6514 M 150.146 61.6514 L 154.117 89.0242 M 154.117 89.0242 L 150.146 61.6514 M 150.146 61.6514 L 156.932 37.2827 M 156.932 37.2827 L 150.146 61.6514 M 150.146 61.6514 L 167.562 65.2817 M 167.562 65.2817 L 154.117 89.0242 M 154.117 89.0242 L 167.562 65.2817 M 167.562 65.2817 L 188.357 80.8188 M 188.357 80.8188 L 186.487 52.0593 M 186.487 52.0593 L 188.357 80.8188 M 188.357 80.8188 L 154.117 89.0242 M 154.117 89.0242 L 188.357 80.8188 M 188.357 80.8188 L 180.269 104.631 M 180.269 104.631 L 154.117 89.0242 M 154.117 89.0242 L 180.269 104.631 M 171.228 122.093 L 163.436 142.176 M 163.436 142.176 L 129.275 142.872 M 129.275 142.872 L 108.969 154.922 M 108.969 154.922 L 129.275 142.872 M 129.275 142.872 L 163.436 142.176 M 163.436 142.176 L 147.363 173.645 M 147.363 173.645 L 163.436 142.176 M 163.436 142.176 L 184.973 136.156 M 184.973 136.156 L 170.097 158.944 M 170.097 158.944 L 184.973 136.156 M 184.973 136.156 L 163.436 142.176 M 163.436 142.176 L 171.228 122.093 M 171.228 122.093 L 152.65 111.809 M 152.65 111.809 L 171.228 122.093 M 152.65 111.809 L 163.436 142.176 M 163.436 142.176 L 152.65 111.809 M 152.65 111.809 L 126.643 113.784 M 126.643 113.784 L 129.275 142.872 M 129.275 142.872 L 118.752 169.702 M 118.752 169.702 L 122.068 204.365 M 122.068 204.365 L 118.752 169.702 M 118.752 169.702 L 129.275 142.872 M 129.275 142.872 L 147.363 173.645 M 147.363 173.645 L 129.275 142.872 M 129.275 142.872 L 126.643 113.784 M 126.643 113.784 L 114.461 94.2043 M 114.461 94.2043 L 126.643 113.784 M 126.643 113.784 L 135.289 96.9797 M 135.289 96.9797 L 126.643 113.784 M 126.643 113.784 L 152.65 111.809 M 126.643 113.784 L 163.436 142.176 M 163.436 142.176 L 126.643 113.784 M 113.871 115.173 L 114.461 94.2043 M 114.461 94.2043 L 113.871 115.173 M 113.247 118.06 L 95.4692 161.152 M 95.4692 161.152 L 113.247 118.06 M 113.247 118.06 L 108.969 154.922 M 108.969 154.922 L 118.752 169.702 M 118.752 169.702 L 130.233 191.051 M 130.233 191.051 L 118.752 169.702 M 118.752 169.702 L 147.363 173.645 M 147.363 173.645 L 130.233 191.051 M 130.233 191.051 L 147.363 173.645 M 147.363 173.645 L 118.752 169.702 M 118.752 169.702 L 108.969 154.922 M 108.969 154.922 L 113.247 118.06 M 98.3371 111.893 L 75.9112 121.961 M 75.9112 121.961 L 70.3704 139.393 M 70.3704 139.393 L 75.9112 121.961 M 75.9112 121.961 L 93.7537 130.899 M 93.7537 130.899 L 75.9112 121.961 M 75.9112 121.961 L 56.2698 134.614 M 56.2698 134.614 L 75.9112 121.961 M 75.9112 121.961 L 98.3371 111.893 M 93.7537 130.899 L 70.3704 139.393 M 70.3704 139.393 L 93.7537 130.899 M 93.7537 130.899 L 95.4692 161.152 M 95.4692 161.152 L 93.7537 130.899 M 70.3704 139.393 L 95.4692 161.152 M 95.4692 161.152 L 58.4103 178.003 M 58.4103 178.003 L 95.4692 161.152 M 95.4692 161.152 L 62.5769 163.283 M 62.5769 163.283 L 55.6032 137.496 M 55.6032 137.496 L 62.5769 163.283 M 62.5769 163.283 L 39.9995 150.981 M 39.9995 150.981 L 62.5769 163.283 M 62.5769 163.283 L 40.8581 169.44 M 40.8581 169.44 L 62.5769 163.283 M 62.5769 163.283 L 95.4692 161.152 M 95.4692 161.152 L 70.3704 139.393 M 70.3704 139.393 L 62.5769 163.283 M 62.5769 163.283 L 70.3704 139.393 M 55.6032 137.496 L 39.9995 150.981 M 39.9995 150.981 L 55.6032 137.496 M 55.6032 137.496 L 37.584 98.1996 M 37.584 98.1996 L 38.7906 122.604 M 38.7906 122.604 L 37.584 98.1996 M 37.584 98.1996 L 55.6032 137.496 M 55.6032 137.496 L 38.7906 122.604 M 38.7906 122.604 L 55.6032 137.496 M 58.4103 178.003 L 87.4016 176.226 M 87.4016 176.226 L 58.4103 178.003 M 60.1111 205.091 L 61.5428 225.109 M 61.5428 225.109 L 60.1111 205.091 M 61.5428 225.109 L 80.4132 243.846 M 80.4132 243.846 L 102.82 259.736 M 102.82 259.736 L 80.4132 243.846 M 80.4132 243.846 L 57.3335 265.737 M 57.3335 265.737 L 80.4132 243.846 M 80.4132 243.846 L 83.3212 277.328 M 83.3212 277.328 L 102.82 259.736 M 102.82 259.736 L 83.3212 277.328 M 83.3212 277.328 L 111.423 276.192 M 111.423 276.192 L 83.3212 277.328 M 83.3212 277.328 L 80.4132 243.846 M 80.4132 243.846 L 61.5428 225.109 M 61.5428 225.109 L 79.52 212.372 M 79.52 212.372 L 61.5428 225.109 M 51.3647 223.678 L 28.5113 247.594 M 28.5113 247.594 L 33.059 228.13 M 33.059 228.13 L 28.5113 247.594 M 28.5113 247.594 L 41.9256 260.454 M 41.9256 260.454 L 28.5113 247.594 M 28.5113 247.594 L 51.3647 223.678 M 53.7328 243.755 L 80.4132 243.846 M 80.4132 243.846 L 53.7328 243.755 M 53.7328 243.755 L 57.3335 265.737 M 57.3335 265.737 L 72.9467 291.153 M 72.9467 291.153 L 57.3335 265.737 M 57.3335 265.737 L 83.3212 277.328 M 83.3212 277.328 L 57.3335 265.737 M 57.3335 265.737 L 53.7328 243.755 M 53.7328 243.755 L 41.9256 260.454 M 41.9256 260.454 L 57.3335 265.737 M 57.3335 265.737 L 41.9256 260.454 M 41.9256 260.454 L 23.8636 285.946 M 23.8636 285.946 L 8 271.948 M 8 271.948 L 23.8636 285.946 M 23.8636 285.946 L 12.1061 294.556 M 12.1061 294.556 L 23.8636 285.946 M 23.8636 285.946 L 40.5302 287.371 M 40.5302 287.371 L 23.8636 285.946 M 23.8636 285.946 L 41.9256 260.454 M 41.9256 260.454 L 53.7328 243.755 M 53.7328 243.755 L 28.5113 247.594 M 28.5113 247.594 L 23.8636 285.946 M 23.8636 285.946 L 28.5113 247.594 M 28.5113 247.594 L 8 271.948 M 8 271.948 L 28.5113 247.594 M 28.5113 247.594 L 53.7328 243.755 M 80.4132 243.846 L 114.855 225.74 M 114.855 225.74 L 91.5356 214.389 M 91.5356 214.389 L 114.855 225.74 M 114.855 225.74 L 80.4132 243.846 M 91.5356 214.389 L 109.951 210.912 M 109.951 210.912 L 91.5356 214.389 M 97.0338 205.012 L 99.0054 181.285 M 99.0054 181.285 L 97.0338 205.012 M 97.0338 205.012 L 109.252 195.133 M 109.252 195.133 L 97.0338 205.012 M 97.0338 205.012 L 109.951 210.912 M 109.951 210.912 L 97.0338 205.012 M 109.252 195.133 L 99.0054 181.285 M 99.0054 181.285 L 109.252 195.133 M 109.252 195.133 L 118.752 169.702 M 118.752 169.702 L 96.3395 162.768 M 96.3395 162.768 L 118.752 169.702 M 118.752 169.702 L 109.252 195.133 M 147.363 173.645 L 166.091 187.211 M 166.091 187.211 L 147.363 173.645 M 133.44 92.764 L 150.146 61.6514 M 150.146 61.6514 L 133.44 92.764 M 122.218 71.0086 L 150.146 61.6514 M 150.146 61.6514 L 122.218 71.0086 M 212.709 41.9948 L 226.534 66.3787 M 226.534 66.3787 L 230.968 39.6565 M 230.968 39.6565 L 249.804 49.3999 M 249.804 49.3999 L 230.968 39.6565 M 230.968 39.6565 L 226.534 66.3787 M 226.534 66.3787 L 212.709 41.9948 M 212.709 41.9948 L 230.968 39.6565 M 230.968 39.6565 L 247.236 19.3201 M 247.236 19.3201 L 225.146 19.67 M 225.146 19.67 L 247.236 19.3201 M 247.236 19.3201 L 230.968 39.6565 M 230.968 39.6565 L 255.289 26.3712 M 255.289 26.3712 L 230.968 39.6565 M 230.968 39.6565 L 212.709 41.9948 M 226.534 66.3787 L 249.804 49.3999 M 249.804 49.3999 L 226.534 66.3787 M 249.804 49.3999 L 255.289 26.3712 M 255.289 26.3712 L 249.804 49.3999 M 280.794 100.147 L 310.604 109.677 M 310.604 109.677 L 280.794 100.147 M 72.9467 291.153 L 51.0349 287.468 M 51.0349 287.468 L 72.9467 291.153 M 26.6815 302.264 L 46.2753 332.84 M 46.2753 332.84 L 26.6815 302.264 M 26.6815 302.264 L 14.6583 306.887 M 14.6583 306.887 L 26.6815 302.264 M 26.6815 302.264 L 12.1061 294.556 M 12.1061 294.556 L 26.6815 302.264 M 14.6583 306.887 L 31.6806 332.589 M 31.6806 332.589 L 14.6583 306.887 M 14.6583 306.887 L 46.2753 332.84 M 46.2753 332.84 L 14.6583 306.887 M 12.4774 323.914 L 31.6806 332.589 M 31.6806 332.589 L 12.4774 323.914" />
  <path class="h" d=" M 57.3466 143.943 L 60.8335 156.836 M 60.8335 156.836 L 57.3466 143.943 M 51.4001 133.773 L 42.9938 126.327 M 42.9938 126.327 L 51.4001 133.773 M 38.489 116.503 L 37.8856 104.301 M 37.8856 104.301 L 38.489 116.503 M 67.675 173.79 L 86.2045 165.365 M 86.2045 165.365 L 67.675 173.79 M 114.046 151.909 L 124.198 145.884 M 124.198 145.884 L 114.046 151.909 M 126.644 149.579 L 121.383 162.994 M 121.383 162.994 L 126.644 149.579 M 133.797 150.565 L 142.841 165.952 M 142.841 165.952 L 133.797 150.565 M 137.815 142.698 L 154.896 142.35 M 154.896 142.35 L 137.815 142.698 M 128.617 135.6 L 127.301 121.056 M 127.301 121.056 L 128.617 135.6 M 123.597 108.889 L 117.506 99.0993 M 117.506 99.0993 L 123.597 108.889 M 159.554 110.015 L 173.364 106.425 M 173.364 106.425 L 159.554 110.015 M 173.731 100.729 L 160.655 92.9259 M 160.655 92.9259 L 173.731 100.729 M 179.589 137.661 L 168.82 140.671 M 168.82 140.671 L 179.589 137.661 M 181.254 141.853 L 173.816 153.247 M 173.816 153.247 L 181.254 141.853 M 224.362 95.1071 L 217.558 85.2841 M 217.558 85.2841 L 224.362 95.1071 M 232.977 104.726 L 243.403 114.14 M 243.403 114.14 L 232.977 104.726 M 249.911 112.49 L 252.502 99.7753 M 252.502 99.7753 L 249.911 112.49 M 275.867 120.446 L 277.342 113.816 M 277.342 113.816 L 275.867 120.446 M 119.581 178.368 L 121.239 195.699 M 121.239 195.699 L 119.581 178.368 M 97.3654 217.227 L 109.025 222.903 M 109.025 222.903 L 97.3654 217.227 M 45.6513 229.657 L 34.2246 241.615 M 34.2246 241.615 L 45.6513 229.657 M 61.2368 272.091 L 69.0434 284.799 M 69.0434 284.799 L 61.2368 272.091 M 56.5129 288.389 L 67.4688 290.231 M 67.4688 290.231 L 56.5129 288.389 M 36.3635 287.015 L 28.0302 286.302 M 28.0302 286.302 L 36.3635 287.015 M 20.9242 288.098 L 15.0454 292.403 M 15.0454 292.403 L 20.9242 288.098 M 19.8977 282.446 L 11.9659 275.447 M 11.9659 275.447 L 19.8977 282.446 M 23.6757 303.42 L 17.6641 305.731 M 17.6641 305.731 L 23.6757 303.42" />
  <path class="z" fill="none" d=" M 218.12 23.2769 L 230.968 39.6565 L 225.146 19.67 M 247.236 19.3201 L 255.289 26.3712 L 267.758 53.3144 L 249.804 49.3999 L 259.015 65.301 L 236.057 75.5831 L 253.798 93.4179 L 278.08 110.5 L 280.794 100.147 M 282.327 134.001 L 289.313 121.01 L 281.226 133.345 M 258.501 119.5 L 248.616 118.848 L 232.127 120.383 L 227.764 100.019 L 206.823 112.363 L 180.269 104.631 L 171.228 122.093 L 184.973 136.156 L 205.775 154.381 L 170.097 158.944 L 163.436 142.176 L 168.259 159.563 L 147.363 173.645 L 172.249 169.693 L 166.091 187.211 L 130.233 191.051 L 122.068 204.365 L 109.252 195.133 L 109.951 210.912 L 114.855 225.74 L 102.82 259.736 L 111.423 276.192 L 80.3784 294.36 L 83.3212 277.328 L 72.9467 291.153 L 50.7626 301.092 L 51.0349 287.468 L 57.3335 265.737 L 48.539 286.583 L 41.9256 260.454 L 40.5302 287.371 L 38.4257 300.834 L 23.8636 285.946 L 26.6815 302.264 L 36.5848 301.996 M 8 271.948 L 15.1613 244.463 L 28.5113 247.594 L 17.9806 238.812 L 33.059 228.13 L 51.3647 223.678 L 53.7328 243.755 L 61.5428 225.109 L 45.998 214.466 L 60.1111 205.091 L 79.52 212.372 L 80.4132 243.846 L 91.5356 214.389 L 97.0338 205.012 L 86.403 202.746 L 99.0054 181.285 L 118.752 169.702 L 98.1892 179.765 L 96.3395 162.768 L 108.969 154.922 L 95.4692 161.152 L 87.4016 176.226 L 70.7117 194.688 L 58.4103 178.003 L 62.5769 163.283 L 55.9784 177.085 L 40.8581 169.44 L 39.9995 150.981 L 38.7906 122.604 M 25.0969 104.153 L 37.584 98.1996 L 58.504 113.5 L 55.6032 137.496 L 70.3704 139.393 L 56.2698 134.614 L 61.9458 111.119 L 75.9112 121.961 L 75.0638 104.302 L 98.3371 111.893 L 93.7537 130.899 L 113.247 118.06 L 129.275 142.872 L 114.316 117.401 L 126.643 113.784 L 113.871 115.173 L 95.8835 100.298 L 114.461 94.2043 L 135.289 96.9797 L 152.65 111.809 L 154.117 89.0242 L 133.44 92.764 L 122.218 71.0086 L 129.685 46.1896 L 150.146 61.6514 L 141.213 37.6115 L 137.227 24.3647 M 156.932 37.2827 L 175.378 43.5587 L 167.562 65.2817 L 186.487 52.0593 L 202.312 63.6103 L 206.505 81.873 L 188.357 80.8188 L 201.085 93.7983 L 214.156 80.3726 L 226.534 66.3787 L 208.597 61.1511 L 212.709 41.9948 L 218.12 23.2769" />
  <path class="z" d=" M 230.151 38.839 L 231.786 38.839 L 231.786 40.474 L 230.151 40.474 L 230.151 38.839 M 248.986 48.5824 L 250.621 48.5824 L 250.621 50.2174 L 248.986 50.2174 L 248.986 48.5824 M 235.24 74.7656 L 236.875 74.7656 L 236.875 76.4006 L 235.24 76.4006 L 235.24 74.7656 M 288.496 120.193 L 290.131 120.193 L 290.131 121.828 L 288.496 121.828 L 288.496 120.193 M 170.41 121.276 L 172.045 121.276 L 172.045 122.911 L 170.41 122.911 L 170.41 121.276 M 162.619 141.358 L 164.254 141.358 L 164.254 142.993 L 162.619 142.993 L 162.619 141.358 M 146.545 172.827 L 148.18 172.827 L 148.18 174.462 L 146.545 174.462 L 146.545 172.827 M 108.435 194.316 L 110.07 194.316 L 110.07 195.951 L 108.435 195.951 L 108.435 194.316 M 82.5037 276.51 L 84.1387 276.51 L 84.1387 278.145 L 82.5037 278.145 L 82.5037 276.51 M 56.516 264.92 L 58.151 264.92 L 58.151 266.555 L 56.516 266.555 L 56.516 264.92 M 41.1081 259.636 L 42.7431 259.636 L 42.7431 261.271 L 41.1081 261.271 L 41.1081 259.636 M 27.6938 246.777 L 29.3288 246.777 L 29.3288 248.412 L 27.6938 248.412 L 27.6938 246.777 M 52.9153 242.938 L 54.5503 242.938 L 54.5503 244.573 L 52.9153 244.573 L 52.9153 242.938 M 79.5957 243.029 L 81.2307 243.029 L 81.2307 244.664 L 79.5957 244.664 L 79.5957 243.029 M 96.2163 204.195 L 97.8513 204.195 L 97.8513 205.83 L 96.2163 205.83 L 96.2163 204.195 M 117.934 168.885 L 119.569 168.885 L 119.569 170.52 L 117.934 170.52 L 117.934 168.885 M 108.152 154.104 L 109.787 154.104 L 109.787 155.739 L 108.152 155.739 L 108.152 154.104 M 61.7594 162.466 L 63.3944 162.466 L 63.3944 164.101 L 61.7594 164.101 L 61.7594 162.466 M 69.5529 138.575 L 71.1879 138.575 L 71.1879 140.21 L 69.5529 140.21 L 69.5529 138.575 M 75.0937 121.144 L 76.7287 121.144 L 76.7287 122.779 L 75.0937 122.779 L 75.0937 121.144 M 128.457 142.054 L 130.092 142.054 L 130.092 143.689 L 128.457 143.689 L 128.457 142.054 M 125.825 112.967 L 127.46 112.967 L 127.46 114.602 L 125.825 114.602 L 125.825 112.967 M 151.832 110.992 L 153.467 110.992 L 153.467 112.627 L 151.832 112.627 L 151.832 110.992 M 149.329 60.8339 L 150.964 60.8339 L 150.964 62.4689 L 149.329 62.4689 L 149.329 60.8339 M 166.744 64.4642 L 168.379 64.4642 L 168.379 66.0992 L 166.744 66.0992 L 166.744 64.4642 M 187.539 80.0013 L 189.174 80.0013 L 189.174 81.6363 L 187.539 81.6363 L 187.539 80.0013 M 225.716 65.5612 L 227.351 65.5612 L 227.351 67.1962 L 225.716 67.1962 L 225.716 65.5612" />
  <path class="h" d=" M 230.902 16.7525 L 242.415 10.9175 M 247.937 10.83 L 247.47 16.4901 M 290.499 100.727 L 309.907 101.889 M 317.36 104.271 L 312.856 107.875 M 312.454 111.89 L 316.154 116.315 M 309.085 122.396 L 291.246 130.133 M 279.702 130.95 L 276.653 126.158 M 270.972 122.696 L 262.658 120.565 M 147.946 20.1345 L 153.937 31.5667 M 139.158 21.8781 L 143.02 16.905 M 35.3672 117.991 L 28.5203 108.766 M 11.0796 288.904 L 9.02652 277.6 M 14.0203 303.804 L 12.7441 297.639 M 13.0226 319.657 L 14.1131 311.144 M 39.0074 309.707 L 43.8527 325.129 M 42.6267 332.777 L 35.3293 332.652 M 32.6137 336.117 L 34.4799 343.173 M 29.6791 341.004 L 18.2113 329.61" />
  <path class="h" d=" M 227.448 18.503 L 229.082 18.5705 M 248.077 9.14093 L 246.591 9.82318 M 155.734 34.9963 L 154.125 35.2861 M 141.168 19.2898 L 141.172 20.9248 M 32.2368 113.773 L 32.7677 112.227 M 9.96516 282.768 L 11.559 283.132 M 13.4083 300.848 L 15.0341 301.021 M 13.3316 317.245 L 14.5859 318.294 M 32.3295 335.042 L 30.9033 334.243 M 31.4436 342.757 L 31.4817 341.122 M 43.7382 332.796 L 42.5175 331.709 M 38.2619 307.334 L 36.7642 306.678 M 268.616 122.092 L 269.65 120.826 M 280.611 132.38 L 281.605 131.081 M 285.969 100.456 L 287.5 101.029 M 312.39 111.813 L 310.756 111.751 M 313.248 120.591 L 311.613 120.619 M 317.438 104.209 L 315.813 104.029" />
</svg>
