<?xml version="1.0"?>
<svg width="5173" height="3577" version="1.1" xmlns="http://www.w3.org/2000/svg" xmlns:xlink="http://www.w3.org/1999/xlink">
  <defs>
  <style type="text/css">
    <![CDATA[
      .b {stroke:rgb(0,0,0);stroke-width:12.932500;fill:none}
      .c {stroke:rgb(128,128,128);stroke-width:6.466250;stroke-dasharray:25.865000, 25.865000;}
      .h {stroke:rgb(240,200,0);stroke-width:12.932500;}
      .m {stroke:rgb(255,0,0);stroke-width:6.466250;}
      .n {stroke:rgb(128,128,128);stroke-width:6.466250}
      .t {stroke:rgb(0,128,0);stroke-width:6.466250;}
      .tab {stroke:rgb(0,0,255);stroke-width:3.233125;fill:none}
      .v {stroke:rgb(0,0,255);stroke-width:6.466250;}
      .z {stroke:rgb(0,240,200);stroke-width:3.233125;}
    ]]>
  </style>
  </defs>
  <path fill="none" class="b" d=" M 4684.1 798.861 L 5008.29 751.127 L 5035.62 342.844 L 4912.47 8 L 4746.91 113.607 L 4426.48 212.23 L 4389.1 488.776 L 4373.33 653.347 L 4217.35 598.559 L 4089.98 784.856 L 4162.28 571.078 L 3916.51 438.903 L 3553.49 565.601 L 3699.76 881.473 L 3746.26 1076.16 L 3689.21 884.299 L 3485.73 601.873 L 3036.14 840.752 L 3008.19 1111.96 L 2976.11 1241.01 L 2930.68 1442.72 L 2953.31 1237.2 L 2953.53 1104.22 L 2589.65 1298.48 L 2702.54 901.739 L 2469.61 760.031 L 2429.25 1099.43 L 2316.15 1278.51 L 2388.35 1465.35 L 2223.41 1351.71 L 2114.99 1536.51 L 2187.36 1334.85 L 1956.83 1170.26 L 1785.41 1331.46 L 1718.29 1565.16 L 1916.61 1809.11 L 1694.3 1586.81 L 1608.41 1359.33 L 1316.95 1366.62 L 927.195 1220 L 1334.69 1305.73 L 1614.22 1222.88 L 1634.79 988.478 L 1917.88 978.86 L 1794.99 806.346 L 1466.94 710.405 L 1100.94 1009.02 L 1390.77 636.026 L 881.807 648.052 L 497.443 658.075 L 607.387 974.804 L 543.1 1160.35 L 453.275 1327.29 L 426.472 1516.64 L 886.746 1379.54 L 486.369 1644.77 L 688.413 1807.86 L 1003.25 1836.88 L 759.47 2038.21 L 528.45 1919.67 L 605.313 2103.07 L 556.949 2337.68 L 451.47 2122.61 L 388.489 2311.23 L 236.62 2427.45 L 236.327 2694.79 L 176.458 2434.24 L 11.0319 2526.81 L 8 2883.57 L 343.238 3054.86 L 493.381 2851.7 L 891.337 2843.03 L 564.634 2496.48 L 964.241 2755.61 L 801.944 2501.56 L 1013.61 2716.23 L 1164.67 2360.19 L 945.802 2178.01 L 1038.76 2029.07 L 1358.04 1735.52 L 1099.08 2083.45 L 1467 1848.22 L 1110.56 2100.51 L 1051.02 2265.67 L 1311.32 2381.18 L 1271.5 2765.88 L 1543.44 2515.86 L 1666.2 2447.4 L 1554.83 2533.16 L 1939.64 2759.24 L 1861.59 2904.7 L 1918.45 2749.73 L 1475.92 2691.81 L 1340.83 3035.63 L 1194.66 3405.87 L 1395.32 3559.36 L 1677.2 3367.94 L 2230.9 2986 L 2337.14 2746.91 L 2439.29 2493.06 L 2425.17 2112.69 L 2255.73 2079.48 L 2115.72 1944.01 L 2108.37 2275.74 L 2169.95 2497.43 L 2102.2 2277.54 L 2073.88 1946.95 L 1660.41 2026.52 L 2071.86 1937.09 L 2287.09 1662.29 L 2366.14 2002.28 L 2548.65 1934.14 L 2638.43 1786.65 L 2614.51 1662.69 L 2650.62 1783.66 L 3029.18 1743.92 L 3300.12 1782.17 L 3559.64 1815.4 L 3409.3 1355.67 L 3270.13 1405.55 L 3393.68 1324.36 L 3628.25 1747.36 L 4256.41 1987.94 L 4101.99 1656.1 L 3836.28 1276.31 L 3332.7 1165.2 L 3837.58 1270.25 L 4156.83 1606.29 L 4394.07 1884.99 L 4732.61 1923.58 L 4762.44 1735.37 L 4879.63 1885.64 L 5165.82 1641.06 L 4829.88 1407.43 L 4660.13 1383.88 L 4778.61 1260.06 L 4639.86 963.207 L 4563.05 1067.08 L 4372.04 1098.23 L 4180.47 966.654 L 4383.61 1079.54 L 4564.04 1009.53 L 4555.4 880.64 L 4393.31 834.776 L 4558.88 803.74 L 4608.44 466.411 L 4684.1 798.861" />
  <path class="c" d=" M 5008.29 751.127 L 4608.44 466.411 M 4608.44 466.411 L 4746.91 113.607 M 4426.48 212.23 L 4608.44 466.411 M 4389.1 488.776 L 4608.44 466.411 M 4373.33 653.347 L 4608.44 466.411 M 4373.33 653.347 L 4558.88 803.74 M 4393.31 834.776 L 4089.98 784.856 M 4089.98 784.856 L 4373.33 653.347 M 4393.31 834.776 L 4373.33 653.347 M 4393.31 834.776 L 4383.61 1079.54 M 4563.05 1067.08 L 4778.61 1260.06 M 4829.88 1407.43 L 4762.44 1735.37 M 4762.44 1735.37 L 4394.07 1884.99 M 4156.83 1606.29 L 4660.13 1383.88 M 4660.13 1383.88 L 4372.04 1098.23 M 4564.04 1009.53 L 4393.31 834.776 M 4180.47 966.654 L 3699.76 881.473 M 3699.76 881.473 L 4089.98 784.856 M 4180.47 966.654 L 4089.98 784.856 M 4180.47 966.654 L 4393.31 834.776 M 4660.13 1383.88 L 4563.05 1067.08 M 4762.44 1735.37 L 4156.83 1606.29 M 3837.58 1270.25 L 4372.04 1098.23 M 3837.58 1270.25 L 4660.13 1383.88 M 4762.44 1735.37 L 4660.13 1383.88 M 5165.82 1641.06 L 4762.44 1735.37 M 3628.25 1747.36 L 4101.99 1656.1 M 3746.26 1076.16 L 4180.47 966.654 M 3746.26 1076.16 L 4372.04 1098.23 M 3746.26 1076.16 L 3837.58 1270.25 M 3393.68 1324.36 L 3836.28 1276.31 M 3393.68 1324.36 L 4101.99 1656.1 M 3270.13 1405.55 L 3559.64 1815.4 M 3270.13 1405.55 L 3300.12 1782.17 M 3029.18 1743.92 L 2614.51 1662.69 M 2614.51 1662.69 L 2589.65 1298.48 M 2589.65 1298.48 L 2429.25 1099.43 M 2429.25 1099.43 L 2702.54 901.739 M 2429.25 1099.43 L 2388.35 1465.35 M 2388.35 1465.35 L 2589.65 1298.48 M 2388.35 1465.35 L 2614.51 1662.69 M 2614.51 1662.69 L 2548.65 1934.14 M 2614.51 1662.69 L 2287.09 1662.29 M 2287.09 1662.29 L 2548.65 1934.14 M 2255.73 2079.48 L 2108.37 2275.74 M 2108.37 2275.74 L 2425.17 2112.69 M 2439.29 2493.06 L 2169.95 2497.43 M 2169.95 2497.43 L 1666.2 2447.4 M 1666.2 2447.4 L 2102.2 2277.54 M 2169.95 2497.43 L 2425.17 2112.69 M 2073.88 1946.95 L 1666.2 2447.4 M 1666.2 2447.4 L 1311.32 2381.18 M 1164.67 2360.19 L 801.944 2501.56 M 801.944 2501.56 L 564.634 2496.48 M 564.634 2496.48 L 493.381 2851.7 M 493.381 2851.7 L 236.62 2427.45 M 236.62 2427.45 L 564.634 2496.48 M 564.634 2496.48 L 388.489 2311.23 M 388.489 2311.23 L 556.949 2337.68 M 556.949 2337.68 L 801.944 2501.56 M 556.949 2337.68 L 564.634 2496.48 M 556.949 2337.68 L 759.47 2038.21 M 759.47 2038.21 L 605.313 2103.07 M 945.802 2178.01 L 556.949 2337.68 M 945.802 2178.01 L 759.47 2038.21 M 945.802 2178.01 L 1003.25 1836.88 M 1038.76 2029.07 L 1003.25 1836.88 M 1110.56 2100.51 L 1311.32 2381.18 M 1164.67 2360.19 L 556.949 2337.68 M 236.327 2694.79 L 493.381 2851.7 M 493.381 2851.7 L 8 2883.57 M 236.327 2694.79 L 8 2883.57 M 236.327 2694.79 L 11.0319 2526.81 M 1340.83 3035.63 L 1861.59 2904.7 M 1861.59 2904.7 L 1194.66 3405.87 M 1395.32 3559.36 L 1861.59 2904.7 M 1861.59 2904.7 L 2337.14 2746.91 M 2337.14 2746.91 L 2169.95 2497.43 M 1939.64 2759.24 L 2169.95 2497.43 M 1939.64 2759.24 L 2337.14 2746.91 M 1918.45 2749.73 L 1340.83 3035.63 M 1677.2 3367.94 L 1861.59 2904.7 M 1861.59 2904.7 L 2230.9 2986 M 1666.2 2447.4 L 1660.41 2026.52 M 1660.41 2026.52 L 1311.32 2381.18 M 1543.44 2515.86 L 1311.32 2381.18 M 1554.83 2533.16 L 2169.95 2497.43 M 2071.86 1937.09 L 1916.61 1809.11 M 1916.61 1809.11 L 1660.41 2026.52 M 1660.41 2026.52 L 1110.56 2100.51 M 1467 1848.22 L 1660.41 2026.52 M 1467 1848.22 L 1358.04 1735.52 M 1358.04 1735.52 L 1003.25 1836.88 M 1358.04 1735.52 L 1316.95 1366.62 M 1316.95 1366.62 L 1003.25 1836.88 M 886.746 1379.54 L 1003.25 1836.88 M 886.746 1379.54 L 688.413 1807.86 M 886.746 1379.54 L 453.275 1327.29 M 543.1 1160.35 L 886.746 1379.54 M 886.746 1379.54 L 927.195 1220 M 927.195 1220 L 543.1 1160.35 M 607.387 974.804 L 927.195 1220 M 927.195 1220 L 1100.94 1009.02 M 1100.94 1009.02 L 607.387 974.804 M 497.443 658.075 L 1100.94 1009.02 M 1334.69 1305.73 L 1634.79 988.478 M 1634.79 988.478 L 927.195 1220 M 1316.95 1366.62 L 1694.3 1586.81 M 1694.3 1586.81 L 1467 1848.22 M 1694.3 1586.81 L 1358.04 1735.52 M 1316.95 1366.62 L 886.746 1379.54 M 881.807 648.052 L 1100.94 1009.02 M 1634.79 988.478 L 1100.94 1009.02 M 1634.79 988.478 L 1466.94 710.405 M 1794.99 806.346 L 1634.79 988.478 M 1956.83 1170.26 L 2114.99 1536.51 M 2114.99 1536.51 L 1718.29 1565.16 M 1916.61 1809.11 L 2114.99 1536.51 M 2114.99 1536.51 L 1785.41 1331.46 M 2114.99 1536.51 L 2388.35 1465.35 M 2388.35 1465.35 L 2287.09 1662.29 M 2287.09 1662.29 L 1916.61 1809.11 M 1916.61 1809.11 L 1467 1848.22 M 2287.09 1662.29 L 2114.99 1536.51 M 2930.68 1442.72 L 3270.13 1405.55 M 3332.7 1165.2 L 3008.19 1111.96 M 3008.19 1111.96 L 3689.21 884.299 M 3553.49 565.601 L 4089.98 784.856 M 3916.51 438.903 L 4089.98 784.856 M 3332.7 1165.2 L 3689.21 884.299 M 3332.7 1165.2 L 3746.26 1076.16 M 3332.7 1165.2 L 3393.68 1324.36 M 2976.11 1241.01 L 3332.7 1165.2 M 2976.11 1241.01 L 3393.68 1324.36 M 2976.11 1241.01 L 3270.13 1405.55 M 2930.68 1442.72 L 3300.12 1782.17 M 2930.68 1442.72 L 3029.18 1743.92 M 2930.68 1442.72 L 2614.51 1662.69 M 2930.68 1442.72 L 2589.65 1298.48 M 2953.31 1237.2 L 2589.65 1298.48 M 3036.14 840.752 L 3689.21 884.299 M 5035.62 342.844 L 4608.44 466.411 M 5035.62 342.844 L 4746.91 113.607" />
  <path class="z" fill="none" d=" M 4684.1 798.861 L 4608.44 466.411 L 4558.88 803.74 M 4684.1 798.861 L 4608.44 466.411 L 4558.88 803.74 M 4558.88 803.74 L 4393.31 834.776 L 4555.4 880.64 M 4558.88 803.74 L 4393.31 834.776 L 4555.4 880.64 M 4555.4 880.64 L 4564.04 1009.53 L 4383.61 1079.54 L 4180.47 966.654 L 4372.04 1098.23 L 4563.05 1067.08 L 4639.86 963.207 M 4555.4 880.64 L 4564.04 1009.53 L 4383.61 1079.54 L 4180.47 966.654 L 4372.04 1098.23 L 4563.05 1067.08 L 4639.86 963.207 M 4778.61 1260.06 L 4660.13 1383.88 L 4829.88 1407.43 M 4778.61 1260.06 L 4660.13 1383.88 L 4829.88 1407.43 M 4879.63 1885.64 L 4762.44 1735.37 L 4732.61 1923.58 M 4879.63 1885.64 L 4762.44 1735.37 L 4732.61 1923.58 M 4394.07 1884.99 L 4156.83 1606.29 L 3837.58 1270.25 L 3332.7 1165.2 L 3836.28 1276.31 L 4101.99 1656.1 L 4256.41 1987.94 M 4394.07 1884.99 L 4156.83 1606.29 L 3837.58 1270.25 L 3332.7 1165.2 L 3836.28 1276.31 L 4101.99 1656.1 L 4256.41 1987.94 M 3628.25 1747.36 L 3393.68 1324.36 L 3270.13 1405.55 L 3409.3 1355.67 L 3559.64 1815.4 M 3628.25 1747.36 L 3393.68 1324.36 L 3270.13 1405.55 L 3409.3 1355.67 L 3559.64 1815.4 M 2650.62 1783.66 L 2614.51 1662.69 L 2638.43 1786.65 M 2650.62 1783.66 L 2614.51 1662.69 L 2638.43 1786.65 M 2366.14 2002.28 L 2287.09 1662.29 L 2071.86 1937.09 M 2366.14 2002.28 L 2287.09 1662.29 L 2071.86 1937.09 M 2071.86 1937.09 L 1660.41 2026.52 L 2073.88 1946.95 M 2071.86 1937.09 L 1660.41 2026.52 L 2073.88 1946.95 M 2073.88 1946.95 L 2102.2 2277.54 L 2169.95 2497.43 L 2108.37 2275.74 L 2115.72 1944.01 M 2073.88 1946.95 L 2102.2 2277.54 L 2169.95 2497.43 L 2108.37 2275.74 L 2115.72 1944.01 M 1475.92 2691.81 L 1918.45 2749.73 L 1861.59 2904.7 L 1939.64 2759.24 L 1554.83 2533.16 M 1475.92 2691.81 L 1918.45 2749.73 L 1861.59 2904.7 L 1939.64 2759.24 L 1554.83 2533.16 M 1554.83 2533.16 L 1666.2 2447.4 L 1543.44 2515.86 M 1554.83 2533.16 L 1666.2 2447.4 L 1543.44 2515.86 M 1110.56 2100.51 L 1467 1848.22 L 1099.08 2083.45 M 1110.56 2100.51 L 1467 1848.22 L 1099.08 2083.45 M 1099.08 2083.45 L 1358.04 1735.52 L 1038.76 2029.07 M 1099.08 2083.45 L 1358.04 1735.52 L 1038.76 2029.07 M 1013.61 2716.23 L 801.944 2501.56 L 964.241 2755.61 M 1013.61 2716.23 L 801.944 2501.56 L 964.241 2755.61 M 964.241 2755.61 L 564.634 2496.48 L 891.337 2843.03 M 964.241 2755.61 L 564.634 2496.48 L 891.337 2843.03 M 176.458 2434.24 L 236.327 2694.79 L 236.62 2427.45 M 176.458 2434.24 L 236.327 2694.79 L 236.62 2427.45 M 388.489 2311.23 L 451.47 2122.61 L 556.949 2337.68 L 605.313 2103.07 L 528.45 1919.67 M 388.489 2311.23 L 451.47 2122.61 L 556.949 2337.68 L 605.313 2103.07 L 528.45 1919.67 M 528.45 1919.67 L 759.47 2038.21 L 1003.25 1836.88 L 688.413 1807.86 L 486.369 1644.77 M 528.45 1919.67 L 759.47 2038.21 L 1003.25 1836.88 L 688.413 1807.86 L 486.369 1644.77 M 486.369 1644.77 L 886.746 1379.54 L 426.472 1516.64 M 486.369 1644.77 L 886.746 1379.54 L 426.472 1516.64 M 1390.77 636.026 L 1100.94 1009.02 L 1466.94 710.405 M 1390.77 636.026 L 1100.94 1009.02 L 1466.94 710.405 M 1614.22 1222.88 L 1334.69 1305.73 L 927.195 1220 L 1316.95 1366.62 L 1608.41 1359.33 M 1614.22 1222.88 L 1334.69 1305.73 L 927.195 1220 L 1316.95 1366.62 L 1608.41 1359.33 M 1608.41 1359.33 L 1694.3 1586.81 L 1916.61 1809.11 L 1718.29 1565.16 L 1785.41 1331.46 M 1608.41 1359.33 L 1694.3 1586.81 L 1916.61 1809.11 L 1718.29 1565.16 L 1785.41 1331.46 M 2187.36 1334.85 L 2114.99 1536.51 L 2223.41 1351.71 M 2187.36 1334.85 L 2114.99 1536.51 L 2223.41 1351.71 M 2223.41 1351.71 L 2388.35 1465.35 L 2316.15 1278.51 M 2223.41 1351.71 L 2388.35 1465.35 L 2316.15 1278.51 M 2702.54 901.739 L 2589.65 1298.48 L 2953.53 1104.22 M 2702.54 901.739 L 2589.65 1298.48 L 2953.53 1104.22 M 2953.53 1104.22 L 2953.31 1237.2 L 2930.68 1442.72 L 2976.11 1241.01 L 3008.19 1111.96 M 2953.53 1104.22 L 2953.31 1237.2 L 2930.68 1442.72 L 2976.11 1241.01 L 3008.19 1111.96 M 3485.73 601.873 L 3689.21 884.299 L 3746.26 1076.16 L 3699.76 881.473 L 3553.49 565.601 M 3485.73 601.873 L 3689.21 884.299 L 3746.26 1076.16 L 3699.76 881.473 L 3553.49 565.601 M 4162.28 571.078 L 4089.98 784.856 L 4217.35 598.559 M 4162.28 571.078 L 4089.98 784.856 L 4217.35 598.559 M 4217.35 598.559 L 4373.33 653.347 L 4389.1 488.776 M 4217.35 598.559 L 4373.33 653.347 L 4389.1 488.776" />
  <path class="z" d=" M 4595.51 453.478 L 4621.37 453.478 L 4621.37 479.343 L 4595.51 479.343 L 4595.51 453.478 M 4595.51 453.478 L 4621.37 453.478 L 4621.37 479.343 L 4595.51 479.343 L 4595.51 453.478 M 4380.38 821.843 L 4406.25 821.843 L 4406.25 847.708 L 4380.38 847.708 L 4380.38 821.843 M 4380.38 821.843 L 4406.25 821.843 L 4406.25 847.708 L 4380.38 847.708 L 4380.38 821.843 M 4167.54 953.721 L 4193.4 953.721 L 4193.4 979.586 L 4167.54 979.586 L 4167.54 953.721 M 4167.54 953.721 L 4193.4 953.721 L 4193.4 979.586 L 4167.54 979.586 L 4167.54 953.721 M 4647.19 1370.94 L 4673.06 1370.94 L 4673.06 1396.81 L 4647.19 1396.81 L 4647.19 1370.94 M 4647.19 1370.94 L 4673.06 1370.94 L 4673.06 1396.81 L 4647.19 1396.81 L 4647.19 1370.94 M 4749.51 1722.44 L 4775.38 1722.44 L 4775.38 1748.3 L 4749.51 1748.3 L 4749.51 1722.44 M 4749.51 1722.44 L 4775.38 1722.44 L 4775.38 1748.3 L 4749.51 1748.3 L 4749.51 1722.44 M 3319.76 1152.27 L 3345.63 1152.27 L 3345.63 1178.13 L 3319.76 1178.13 L 3319.76 1152.27 M 3319.76 1152.27 L 3345.63 1152.27 L 3345.63 1178.13 L 3319.76 1178.13 L 3319.76 1152.27 M 3257.2 1392.62 L 3283.07 1392.62 L 3283.07 1418.49 L 3257.2 1418.49 L 3257.2 1392.62 M 3257.2 1392.62 L 3283.07 1392.62 L 3283.07 1418.49 L 3257.2 1418.49 L 3257.2 1392.62 M 2601.58 1649.76 L 2627.45 1649.76 L 2627.45 1675.62 L 2601.58 1675.62 L 2601.58 1649.76 M 2601.58 1649.76 L 2627.45 1649.76 L 2627.45 1675.62 L 2601.58 1675.62 L 2601.58 1649.76 M 2274.16 1649.36 L 2300.03 1649.36 L 2300.03 1675.23 L 2274.16 1675.23 L 2274.16 1649.36 M 2274.16 1649.36 L 2300.03 1649.36 L 2300.03 1675.23 L 2274.16 1675.23 L 2274.16 1649.36 M 1647.47 2013.59 L 1673.34 2013.59 L 1673.34 2039.45 L 1647.47 2039.45 L 1647.47 2013.59 M 1647.47 2013.59 L 1673.34 2013.59 L 1673.34 2039.45 L 1647.47 2039.45 L 1647.47 2013.59 M 2157.01 2484.49 L 2182.88 2484.49 L 2182.88 2510.36 L 2157.01 2510.36 L 2157.01 2484.49 M 2157.01 2484.49 L 2182.88 2484.49 L 2182.88 2510.36 L 2157.01 2510.36 L 2157.01 2484.49 M 1848.66 2891.77 L 1874.52 2891.77 L 1874.52 2917.64 L 1848.66 2917.64 L 1848.66 2891.77 M 1848.66 2891.77 L 1874.52 2891.77 L 1874.52 2917.64 L 1848.66 2917.64 L 1848.66 2891.77 M 1653.27 2434.46 L 1679.13 2434.46 L 1679.13 2460.33 L 1653.27 2460.33 L 1653.27 2434.46 M 1653.27 2434.46 L 1679.13 2434.46 L 1679.13 2460.33 L 1653.27 2460.33 L 1653.27 2434.46 M 1454.07 1835.29 L 1479.94 1835.29 L 1479.94 1861.16 L 1454.07 1861.16 L 1454.07 1835.29 M 1454.07 1835.29 L 1479.94 1835.29 L 1479.94 1861.16 L 1454.07 1861.16 L 1454.07 1835.29 M 1345.11 1722.59 L 1370.97 1722.59 L 1370.97 1748.46 L 1345.11 1748.46 L 1345.11 1722.59 M 1345.11 1722.59 L 1370.97 1722.59 L 1370.97 1748.46 L 1345.11 1748.46 L 1345.11 1722.59 M 789.011 2488.62 L 814.876 2488.62 L 814.876 2514.49 L 789.011 2514.49 L 789.011 2488.62 M 789.011 2488.62 L 814.876 2488.62 L 814.876 2514.49 L 789.011 2514.49 L 789.011 2488.62 M 551.701 2483.54 L 577.566 2483.54 L 577.566 2509.41 L 551.701 2509.41 L 551.701 2483.54 M 551.701 2483.54 L 577.566 2483.54 L 577.566 2509.41 L 551.701 2509.41 L 551.701 2483.54 M 223.395 2681.86 L 249.26 2681.86 L 249.26 2707.72 L 223.395 2707.72 L 223.395 2681.86 M 223.395 2681.86 L 249.26 2681.86 L 249.26 2707.72 L 223.395 2707.72 L 223.395 2681.86 M 544.016 2324.74 L 569.881 2324.74 L 569.881 2350.61 L 544.016 2350.61 L 544.016 2324.74 M 544.016 2324.74 L 569.881 2324.74 L 569.881 2350.61 L 544.016 2350.61 L 544.016 2324.74 M 990.314 1823.94 L 1016.18 1823.94 L 1016.18 1849.81 L 990.314 1849.81 L 990.314 1823.94 M 990.314 1823.94 L 1016.18 1823.94 L 1016.18 1849.81 L 990.314 1849.81 L 990.314 1823.94 M 873.813 1366.61 L 899.678 1366.61 L 899.678 1392.48 L 873.813 1392.48 L 873.813 1366.61 M 873.813 1366.61 L 899.678 1366.61 L 899.678 1392.48 L 873.813 1392.48 L 873.813 1366.61 M 1088.01 996.089 L 1113.87 996.089 L 1113.87 1021.95 L 1088.01 1021.95 L 1088.01 996.089 M 1088.01 996.089 L 1113.87 996.089 L 1113.87 1021.95 L 1088.01 1021.95 L 1088.01 996.089 M 914.263 1207.07 L 940.128 1207.07 L 940.128 1232.93 L 914.263 1232.93 L 914.263 1207.07 M 914.263 1207.07 L 940.128 1207.07 L 940.128 1232.93 L 914.263 1232.93 L 914.263 1207.07 M 1903.68 1796.18 L 1929.54 1796.18 L 1929.54 1822.04 L 1903.68 1822.04 L 1903.68 1796.18 M 1903.68 1796.18 L 1929.54 1796.18 L 1929.54 1822.04 L 1903.68 1822.04 L 1903.68 1796.18 M 2102.06 1523.58 L 2127.93 1523.58 L 2127.93 1549.44 L 2102.06 1549.44 L 2102.06 1523.58 M 2102.06 1523.58 L 2127.93 1523.58 L 2127.93 1549.44 L 2102.06 1549.44 L 2102.06 1523.58 M 2375.42 1452.42 L 2401.28 1452.42 L 2401.28 1478.28 L 2375.42 1478.28 L 2375.42 1452.42 M 2375.42 1452.42 L 2401.28 1452.42 L 2401.28 1478.28 L 2375.42 1478.28 L 2375.42 1452.42 M 2576.71 1285.54 L 2602.58 1285.54 L 2602.58 1311.41 L 2576.71 1311.41 L 2576.71 1285.54 M 2576.71 1285.54 L 2602.58 1285.54 L 2602.58 1311.41 L 2576.71 1311.41 L 2576.71 1285.54 M 2917.75 1429.78 L 2943.61 1429.78 L 2943.61 1455.65 L 2917.75 1455.65 L 2917.75 1429.78 M 2917.75 1429.78 L 2943.61 1429.78 L 2943.61 1455.65 L 2917.75 1455.65 L 2917.75 1429.78 M 3733.33 1063.22 L 3759.2 1063.22 L 3759.2 1089.09 L 3733.33 1089.09 L 3733.33 1063.22 M 3733.33 1063.22 L 3759.2 1063.22 L 3759.2 1089.09 L 3733.33 1089.09 L 3733.33 1063.22 M 4077.05 771.923 L 4102.92 771.923 L 4102.92 797.788 L 4077.05 797.788 L 4077.05 771.923 M 4077.05 771.923 L 4102.92 771.923 L 4102.92 797.788 L 4077.05 797.788 L 4077.05 771.923 M 4360.4 640.414 L 4386.26 640.414 L 4386.26 666.279 L 4360.4 666.279 L 4360.4 640.414 M 4360.4 640.414 L 4386.26 640.414 L 4386.26 666.279 L 4360.4 666.279 L 4360.4 640.414" />
  <path class="h" d=" M 4908.32 679.948 L 4708.4 537.59 M 4643.06 378.21 L 4712.3 201.808 M 4471.97 275.775 L 4562.95 402.865 M 4443.94 483.185 L 4553.61 472.002 M 4434.7 827.017 L 4517.49 811.499 M 4433.83 846.242 L 4514.88 869.174 M 4060.29 945.359 L 3819.93 902.768 M 3902.71 1081.68 L 4215.59 1092.71 M 4043.22 1298.66 L 4454.49 1355.47 M 4748.99 1291.01 L 4689.75 1352.92 M 4787.44 1401.54 L 4702.56 1389.76 M 4913.86 1465.83 L 5081.83 1582.65 M 5064.98 1664.64 L 4863.29 1711.79 M 5094.27 1702.2 L 4951.18 1824.49 M 4478.71 1894.64 L 4647.98 1913.93 M 4099.37 1927.79 L 3785.29 1807.5 M 3570.76 1407.3 L 3924.91 1573.17 M 3446.89 1470.61 L 3522.05 1700.47 M 3452.32 1430.11 L 3569.61 1641.61 M 3458.59 1192.98 L 3710.38 1248.53 M 3458.92 1191.46 L 3711.36 1243.99 M 3687.61 620.415 L 3955.86 730.042 M 3029.15 908.553 L 3015.17 1044.16 M 3080.5 1261.85 L 3289.29 1303.52 M 3023.04 1527.58 L 3207.76 1697.31 M 2598.05 1730.55 L 2565.12 1866.28 M 2347.11 1436.94 L 2264.64 1380.12 M 2370.3 1418.64 L 2334.2 1325.22 M 2129.73 1293.7 L 2014.46 1211.41 M 1996.37 1261.82 L 2075.45 1444.95 M 2032.6 1485.25 L 1867.81 1382.72 M 1535.54 1361.15 L 1389.81 1364.79 M 1411.29 1421.66 L 1599.96 1531.76 M 1347.77 1643.3 L 1327.22 1458.84 M 1209.4 1369.85 L 994.297 1376.31 M 896.858 1339.66 L 917.083 1259.89 M 831.171 1205.09 L 639.124 1175.27 M 687.339 1036.1 L 847.243 1158.7 M 970.632 1167.26 L 1057.51 1061.77 M 977.553 1000.47 L 730.776 983.358 M 648.318 745.811 L 950.067 921.285 M 936.59 738.295 L 1046.16 918.78 M 1029.07 1241.43 L 1232.82 1284.3 M 1409.72 1226.42 L 1559.77 1067.79 M 1501.33 993.614 L 1234.4 1003.89 M 1457.89 1046.36 L 1104.09 1162.12 M 1024.63 1256.66 L 1219.51 1329.96 M 1544.34 1243.6 L 1404.58 1285.02 M 1375.44 785.059 L 1192.44 934.368 M 1318.32 729.275 L 1173.4 915.773 M 1754.94 851.879 L 1674.84 942.945 M 1847.11 981.264 L 1705.56 986.073 M 2527.85 795.458 L 2644.31 866.312 M 2187.57 2234.97 L 2345.97 2153.45 M 1664.75 2342.18 L 1661.85 2131.74 M 1522.94 2045.02 L 1248.02 2082.01 M 1163.82 1996.47 L 1293.3 1822.51 M 1118.58 1955.69 L 1278.22 1808.91 M 1029.88 1981.02 L 1012.12 1884.93 M 1160.75 2170.67 L 1261.13 2311.01 M 1012.74 2354.56 L 708.88 2343.31 M 607.579 2262.81 L 708.84 2113.08 M 520.598 2450.17 L 432.525 2357.54 M 236.547 2494.28 L 236.4 2627.95 M 180.003 2652.8 L 67.3557 2568.81 M 191.426 2499.37 L 221.36 2629.65 M 179.245 2741.99 L 65.0818 2836.38 M 91.8095 2926.39 L 259.429 3012.04 M 300.591 2734.02 L 429.117 2812.47 M 809.661 2756.39 L 646.31 2583.12 M 864.339 2690.83 L 664.536 2561.26 M 1051.37 2627.22 L 1126.91 2449.2 M 1281.45 2669.71 L 1301.36 2477.35 M 1485.41 2482.19 L 1369.35 2414.85 M 1708.61 2524.23 L 2016.17 2506.36 M 1980.48 2865.26 L 2218.26 2786.36 M 1815.63 3272.45 L 2092.48 3081.49 M 1606.73 3415.79 L 1465.79 3511.5 M 1471.02 3002.9 L 1731.4 2937.44 M 837.163 1486.62 L 737.996 1700.78 M 786.652 1445.85 L 586.463 1578.46 M 771.677 1413.82 L 541.54 1482.36 M 778.378 1366.48 L 561.643 1340.35 M 4928.82 373.735 L 4715.23 435.519 M 4963.44 285.535 L 4819.09 170.916 M 5015.12 649.056 L 5028.79 444.914" />
  <path class="h" d=" M 4682.37 1054.17 L 4656.66 1056.95 M 4783.43 784.234 L 4770.96 761.577 M 5025.08 500.236 L 4999.3 498.143 M 4987.46 211.897 L 4963.52 202.113 M 4890.39 22.083 L 4901.06 45.6455 M 4478.17 196.319 L 4489.41 219.616 M 4402 393.342 L 4426.38 401.972 M 4077.47 525.466 L 4078.72 551.301 M 3819.78 472.662 L 3836.71 492.219 M 3406.31 644.07 L 3426.02 660.812 M 3031.51 885.641 L 3057.38 885.589 M 2508.17 783.487 L 2501.9 808.581 M 2435.78 1044.58 L 2458.58 1032.37 M 2410.28 1129.48 L 2408.59 1155.29 M 2056.26 1241.25 L 2061.31 1266.62 M 1815.4 1303.26 L 1835.8 1319.15 M 1617.82 1181.88 L 1594.12 1192.25 M 1756.89 984.329 L 1762.3 959.037 M 1815.61 835.292 L 1795.87 852.011 M 1741.98 790.843 L 1729.65 813.579 M 971.714 645.928 L 980.386 670.296 M 599.857 655.404 L 620.989 670.317 M 515.179 709.17 L 538.203 720.956 M 551.673 1135.61 L 576.909 1141.28 M 528.523 1187.44 L 551.318 1199.67 M 448.885 1358.3 L 474.72 1359.56 M 969.797 2139.57 L 972.638 2113.86 M 1066.39 2223.04 L 1088.12 2237.07 M 1094.04 2301.4 L 1068.23 2303.14 M 1227.31 2343.9 L 1216.12 2320.58 M 1121.27 2462.48 L 1095.6 2465.62 M 1299.88 2491.7 L 1325.62 2494.25 M 1421.2 2628.25 L 1410.69 2604.61 M 1415.2 2846.36 L 1440.6 2841.49 M 1318.56 3092.05 L 1343.01 3083.61 M 1274.87 3467.23 L 1293.54 3449.33 M 1441.83 3527.77 L 1456.28 3506.32 M 1811.9 3275.02 L 1815.34 3249.39 M 2301.78 2826.5 L 2276.31 2831.02 M 2385.16 2627.57 L 2363.03 2614.19 M 2429.61 2232.22 L 2411.51 2250.7 M 2406.58 2109.04 L 2384.01 2121.66 M 2221.87 2046.72 L 2210.39 2069.9 M 2504.52 1950.62 L 2488.95 1929.97 M 2628.58 1802.83 L 2626 1777.09 M 2769.58 1771.17 L 2748.39 1756.34 M 3172.75 1764.19 L 3157.19 1743.53 M 3386.5 1793.23 L 3379.07 1768.46 M 4103.6 1929.41 L 4103.44 1903.55 M 4676.75 1917.21 L 4687.78 1893.81 M 5108.69 1689.88 L 5083.04 1693.25 M 5036.31 1550.99 L 5014.86 1565.44 M 830.699 2844.35 L 814.986 2823.81 M 433.363 2932.91 L 407.67 2929.93 M 74.9223 2917.77 L 100.471 2913.73 M 9.18566 2744.05 L 34.4629 2738.57 M 37.8781 2511.79 L 56.8925 2529.32 M 261.495 2408.41 L 286.333 2415.63" />
</svg>
