####
#
# OBJ File Generated by Meshlab
#
####
# Object lung-144.obj
#
# Vertices: 74
# Faces: 144
#
####
mtllib ./lung-144.obj.mtl

vn -0.126120 0.605075 0.786116
v 2.267103 -2.190186 -2.595720 0.752941 0.752941 0.752941
vn -0.185404 0.698036 0.691644
v 3.830812 -1.735208 -2.775183 0.752941 0.752941 0.752941
vn 0.055287 0.906237 0.419139
v 1.847704 -1.863438 -4.215449 0.752941 0.752941 0.752941
vn -0.524598 0.818782 0.233224
v 0.748272 -0.924890 -4.809854 0.752941 0.752941 0.752941
vn -0.530254 0.736652 0.419731
v 0.916169 -1.686825 -3.653076 0.752941 0.752941 0.752941
vn -0.502879 0.544159 0.671568
v 1.169961 -1.811084 -2.876249 0.752941 0.752941 0.752941
vn -0.921029 -0.290535 0.259412
v 0.794270 -2.720237 -4.089423 0.752941 0.752941 0.752941
vn -0.877742 0.474415 -0.067068
v 0.691722 -1.406294 -6.670218 0.752941 0.752941 0.752941
vn -0.867252 0.496984 -0.029667
v 0.591587 -1.953712 -9.154192 0.752941 0.752941 0.752941
vn -0.862251 -0.498137 0.091557
v 0.611453 -3.036538 -6.065999 0.752941 0.752941 0.752941
vn -0.895255 -0.443877 -0.038634
v 0.693414 -3.219183 -9.650734 0.752941 0.752941 0.752941
vn -0.939727 0.295735 -0.171623
v 0.593366 -2.048478 -10.860493 0.752941 0.752941 0.752941
vn -0.612333 -0.154930 -0.775271
v 1.341394 -2.108481 -12.541633 0.752941 0.752941 0.752941
vn -0.551022 -0.688967 -0.470850
v 0.864609 -2.980391 -11.692128 0.752941 0.752941 0.752941
vn -0.431719 -0.894954 -0.112588
v 1.118829 -3.611396 -9.978275 0.752941 0.752941 0.752941
vn -0.491311 -0.869921 0.043026
v 1.226795 -3.660558 -8.159344 0.752941 0.752941 0.752941
vn -0.348493 -0.923494 0.160347
v 1.418114 -3.628778 -6.053037 0.752941 0.752941 0.752941
vn -0.390488 -0.874430 0.287908
v 1.653336 -3.213041 -3.865573 0.752941 0.752941 0.752941
vn -0.440821 -0.514059 0.735812
v 1.565926 -2.625573 -2.763484 0.752941 0.752941 0.752941
vn -0.033196 -0.923415 0.382366
v 2.600933 -3.113411 -3.200432 0.752941 0.752941 0.752941
vn -0.072522 -0.186825 0.979713
v 2.730039 -2.593268 -2.394691 0.752941 0.752941 0.752941
vn 0.025556 -0.987800 0.153618
v 2.452328 -3.868210 -5.900261 0.752941 0.752941 0.752941
vn -0.047990 -0.996376 0.070227
v 2.019021 -3.964854 -8.081542 0.752941 0.752941 0.752941
vn 0.082087 -0.993701 -0.076291
v 2.219999 -4.063232 -8.786043 0.752941 0.752941 0.752941
vn 0.120752 -0.930187 -0.346657
v 2.046482 -3.647993 -10.433069 0.752941 0.752941 0.752941
vn 0.401555 -0.568857 0.717743
v 4.364329 -2.361934 -2.536815 0.752941 0.752941 0.752941
vn 0.662483 -0.741597 0.105598
v 4.494383 -3.021241 -5.204736 0.752941 0.752941 0.752941
vn 0.612496 -0.790067 0.025343
v 4.303998 -3.345584 -7.587454 0.752941 0.752941 0.752941
vn 0.615493 -0.764599 -0.191200
v 3.974840 -3.367142 -8.853348 0.752941 0.752941 0.752941
vn 0.659960 0.089154 -0.745993
v 3.481551 -1.515331 -11.546126 0.752941 0.752941 0.752941
vn 0.326677 -0.556393 -0.764009
v 2.626846 -2.557965 -11.910827 0.752941 0.752941 0.752941
vn 0.868583 0.111086 -0.482933
v 4.132174 -1.442843 -10.508221 0.752941 0.752941 0.752941
vn 0.681936 -0.299780 -0.667154
v 3.178106 -2.298591 -11.745657 0.752941 0.752941 0.752941
vn 0.953239 -0.063615 -0.295445
v 5.207471 -1.909184 -8.297383 0.752941 0.752941 0.752941
vn 0.907565 -0.217671 -0.359089
v 4.435650 -2.305125 -9.809763 0.752941 0.752941 0.752941
vn 0.938716 -0.336591 0.074288
v 5.241055 -1.358516 -5.040889 0.752941 0.752941 0.752941
vn 0.760913 0.298271 0.576234
v 5.325331 -0.190816 -3.803216 0.752941 0.752941 0.752941
vn 0.315111 0.220163 -0.923165
v 2.040945 -1.273344 -12.739436 0.752941 0.752941 0.752941
vn 0.655855 0.493025 -0.571648
v 3.093364 -0.622730 -11.508544 0.752941 0.752941 0.752941
vn 0.875448 0.359172 -0.323399
v 4.522437 -0.045333 -8.672955 0.752941 0.752941 0.752941
vn 0.915941 0.306681 -0.258843
v 4.523278 0.195697 -8.012759 0.752941 0.752941 0.752941
vn 0.898363 0.377399 -0.224754
v 4.972035 0.578368 -6.262403 0.752941 0.752941 0.752941
vn 0.272862 0.375408 0.885785
v 5.329431 0.952309 -4.340545 0.752941 0.752941 0.752941
vn 0.343131 0.551075 0.760643
v 4.215735 2.303323 -4.805193 0.752941 0.752941 0.752941
vn 0.744000 0.639405 -0.193973
v 4.459189 1.951887 -5.912337 0.752941 0.752941 0.752941
vn 0.624630 0.677049 -0.389156
v 3.999925 1.396153 -7.720423 0.752941 0.752941 0.752941
vn 0.494475 0.733121 -0.466936
v 3.003831 0.735972 -9.902873 0.752941 0.752941 0.752941
vn 0.262064 0.735600 -0.624672
v 2.407320 0.092429 -11.335616 0.752941 0.752941 0.752941
vn -0.894766 0.407565 -0.182441
v 1.021006 0.641646 -10.838099 0.752941 0.752941 0.752941
vn 0.202382 0.860216 -0.468048
v 1.912484 1.379169 -9.549177 0.752941 0.752941 0.752941
vn 0.249608 0.864827 -0.435627
v 2.422336 2.071743 -7.542223 0.752941 0.752941 0.752941
vn 0.260917 0.874656 -0.408533
v 3.096971 2.231998 -7.003915 0.752941 0.752941 0.752941
vn 0.288912 0.956027 0.050423
v 3.582750 2.732884 -5.021338 0.752941 0.752941 0.752941
vn -0.690315 0.173778 0.702329
v 2.522404 2.943455 -5.536881 0.752941 0.752941 0.752941
vn -0.793035 0.594110 0.134641
v 2.280919 2.623004 -6.270565 0.752941 0.752941 0.752941
vn -0.539212 0.801725 -0.257853
v 1.209216 1.588501 -9.273605 0.752941 0.752941 0.752941
vn -0.740171 -0.207922 0.639465
v 3.081563 2.138236 -5.370838 0.752941 0.752941 0.752941
vn -0.701610 0.007313 0.712524
v 3.014966 1.200825 -5.194573 0.752941 0.752941 0.752941
vn -0.370577 0.037308 0.928052
v 4.120878 0.457282 -5.090046 0.752941 0.752941 0.752941
vn -0.450458 0.564273 0.691869
v 3.815146 -0.924939 -4.653818 0.752941 0.752941 0.752941
vn -0.865041 0.498077 0.060187
v 1.465347 2.266643 -7.577047 0.752941 0.752941 0.752941
vn -0.864087 -0.228478 0.448499
v 2.462147 0.219477 -9.251668 0.752941 0.752941 0.752941
vn -0.904536 -0.102830 0.413811
v 1.777359 -0.230700 -10.457258 0.752941 0.752941 0.752941
vn -0.843609 0.364291 -0.394482
v 1.260970 -0.726632 -12.261183 0.752941 0.752941 0.752941
vn -0.967285 -0.166457 0.191446
v 3.245244 0.739586 -7.315871 0.752941 0.752941 0.752941
vn -0.909263 0.413535 0.047218
v 3.043804 -0.057098 -7.271694 0.752941 0.752941 0.752941
vn -0.804754 0.326990 0.495428
v 2.755056 0.309431 -5.385044 0.752941 0.752941 0.752941
vn -0.925739 0.355640 -0.128558
v 1.057980 -1.623901 -11.712250 0.752941 0.752941 0.752941
vn -0.517155 0.776621 0.359736
v 2.224405 -0.510286 -5.487543 0.752941 0.752941 0.752941
vn -0.558860 0.824377 -0.089877
v 2.385849 -1.083881 -7.888403 0.752941 0.752941 0.752941
vn -0.821121 0.536153 0.195703
v 1.474611 -1.365224 -10.383576 0.752941 0.752941 0.752941
vn 0.975331 -0.208273 -0.073157
v 5.353536 -1.775507 -7.496110 0.752941 0.752941 0.752941
vn 0.608141 0.289969 0.738973
v 5.205632 -0.844797 -3.120744 0.752941 0.752941 0.752941
vn 0.531513 -0.742474 -0.407710
v 3.559144 -3.268430 -10.153073 0.752941 0.752941 0.752941
# 74 vertices, 0 vertices normals


usemtl material_0
f 1//1 2//2 3//3
f 3//3 69//69 4//4
f 4//4 5//5 3//3
f 3//3 5//5 6//6
f 6//6 1//1 3//3
f 5//5 7//7 6//6
f 4//4 7//7 5//5
f 7//7 4//4 8//8
f 8//8 10//10 7//7
f 10//10 8//8 9//9
f 9//9 11//11 10//10
f 11//11 9//9 12//12
f 12//12 13//13 14//14
f 13//13 31//31 14//14
f 11//11 15//15 16//16
f 16//16 10//10 11//11
f 10//10 16//16 17//17
f 10//10 17//17 18//18
f 18//18 7//7 10//10
f 7//7 18//18 19//19
f 19//19 6//6 7//7
f 20//20 21//21 19//19
f 19//19 18//18 20//20
f 20//20 18//18 17//17
f 17//17 22//22 20//20
f 22//22 17//17 16//16
f 16//16 23//23 22//22
f 23//23 16//16 15//15
f 15//15 24//24 23//23
f 15//15 25//25 24//24
f 26//26 20//20 22//22
f 22//22 27//27 26//26
f 27//27 22//22 23//23
f 23//23 28//28 27//27
f 28//28 23//23 24//24
f 24//24 29//29 28//28
f 29//29 24//24 25//25
f 25//25 74//74 29//29
f 30//30 33//33 31//31
f 31//31 38//38 30//30
f 33//33 30//30 32//32
f 37//37 73//73 36//36
f 39//39 30//30 38//38
f 39//39 32//32 30//30
f 32//32 39//39 40//40
f 41//41 35//35 40//40
f 41//41 34//34 35//35
f 42//42 72//72 34//34
f 34//34 41//41 42//42
f 43//43 37//37 72//72
f 72//72 42//42 43//43
f 43//43 42//42 44//44
f 45//45 44//44 42//42
f 46//46 45//45 42//42
f 42//42 41//41 46//46
f 41//41 40//40 46//46
f 47//47 46//46 40//40
f 40//40 39//39 47//47
f 48//48 47//47 39//39
f 38//38 48//48 39//39
f 64//64 49//49 48//48
f 48//48 38//38 64//64
f 50//50 47//47 48//48
f 48//48 49//49 50//50
f 51//51 46//46 47//47
f 47//47 50//50 51//51
f 46//46 51//51 52//52
f 53//53 45//45 46//46
f 46//46 52//52 53//53
f 53//53 44//44 45//45
f 55//55 54//54 53//53
f 53//53 52//52 55//55
f 61//61 55//55 52//52
f 52//52 51//51 61//61
f 56//56 61//61 51//51
f 51//51 50//50 56//56
f 49//49 56//56 50//50
f 57//57 53//53 54//54
f 57//57 58//58 44//44
f 44//44 53//53 57//57
f 58//58 59//59 43//43
f 43//43 44//44 58//58
f 37//37 43//43 60//60
f 73//73 37//37 60//60
f 57//57 54//54 55//55
f 56//56 62//62 61//61
f 49//49 63//63 62//62
f 62//62 56//56 49//49
f 64//64 63//63 49//49
f 62//62 65//65 61//61
f 55//55 61//61 65//65
f 57//57 55//55 65//65
f 65//65 58//58 57//57
f 65//65 66//66 67//67
f 67//67 58//58 65//65
f 62//62 71//71 66//66
f 66//66 65//65 62//62
f 64//64 68//68 71//71
f 71//71 63//63 64//64
f 66//66 70//70 69//69
f 69//69 67//67 66//66
f 70//70 66//66 71//71
f 35//35 33//33 32//32
f 32//32 40//40 35//35
f 37//37 36//36 72//72
f 27//27 36//36 73//73
f 35//35 34//34 29//29
f 29//29 74//74 35//35
f 13//13 68//68 64//64
f 31//31 13//13 38//38
f 13//13 12//12 68//68
f 29//29 34//34 72//72
f 72//72 28//28 29//29
f 28//28 72//72 36//36
f 36//36 27//27 28//28
f 73//73 26//26 27//27
f 33//33 74//74 31//31
f 74//74 25//25 31//31
f 74//74 33//33 35//35
f 38//38 13//13 64//64
f 12//12 71//71 68//68
f 9//9 70//70 71//71
f 71//71 12//12 9//9
f 70//70 9//9 8//8
f 70//70 8//8 4//4
f 4//4 69//69 70//70
f 14//14 31//31 25//25
f 25//25 15//15 14//14
f 15//15 11//11 14//14
f 12//12 14//14 11//11
f 60//60 3//3 2//2
f 2//2 73//73 60//60
f 60//60 69//69 3//3
f 60//60 43//43 59//59
f 67//67 69//69 60//60
f 60//60 59//59 67//67
f 67//67 59//59 58//58
f 2//2 26//26 73//73
f 21//21 20//20 26//26
f 1//1 6//6 19//19
f 19//19 21//21 1//1
f 2//2 1//1 21//21
f 21//21 26//26 2//2
f 63//63 71//71 62//62
# 144 faces, 0 coords texture

# End of File
