<?xml version="1.0"?>
<svg width="5067" height="7564" version="1.1" xmlns="http://www.w3.org/2000/svg" >
<path fill="none" style="stroke:black;stroke-width:18.910000;" d=" M 1485.66 990.246 L 1507.49 1383.93 M 1866.16 3702.15 L 1877.73 4038.52 M 655.663 4605.91 L 1536.21 3768.55 M 2437.54 6581.36 L 2774.15 7254.27 M 2774.15 7254.27 L 2808.38 6643.39 M 987.482 2261.74 L 1179.11 2023.28 M 2127.28 3795.91 L 1988.56 3418.71 M 3127.37 1795.89 L 2442.95 1594.25 M 240.678 4072.63 L 655.663 4605.91 M 461.048 3137.3 L 240.678 4072.63 M 882.97 6114.02 L 1278.12 6075.7 M 1104.91 5701.33 L 882.97 6114.02 M 1708.46 1750.43 L 1964.69 1254.67 M 1465.64 2181.34 L 1141.12 2139.29 M 2675.76 2271.58 L 2786.57 2423.03 M 2786.57 2423.03 L 3359.39 1974.36 M 1323.34 5606.42 L 1104.91 5701.33 M 2904.85 5083.92 L 3552.5 5041.36 M 3552.5 5041.36 L 2917.24 4565.06 M 1964.69 1254.67 L 2653.87 1439.37 M 2653.87 1439.37 L 2418.63 1103.98 M 4957.97 1488.54 L 4477.72 1354.71 M 2196.86 4371.98 L 2478.98 5091.3 M 3131.46 2605.79 L 3592.27 2555.38 M 1046.14 849.941 L 1485.66 990.246 M 1988.56 3418.71 L 1665.67 3536.88 M 1976.34 5249.63 L 1935.89 5533.3 M 2917.88 4501.91 L 2647.62 4125.29 M 2607.14 4530.36 L 2917.88 4501.91 M 1278.12 6075.7 L 903.481 6581.14 M 856.51 1572.42 L 986.248 1755.97 M 1431.06 997.121 L 856.51 1572.42 M 2478.98 5091.3 L 2816.13 5444.99 M 1123.86 2444.72 L 578.467 2548.63 M 1141.12 2139.29 L 1123.86 2444.72 M 2361.64 5998.75 L 2437.54 6581.36 M 3257.97 3960.6 L 2672.5 3528.56 M 2769.39 3881.64 L 3257.97 3960.6 M 1605.67 2777.64 L 1676.4 2587.43 M 2917.24 4565.06 L 2607.14 4530.36 M 1665.67 3536.88 L 1605.67 2777.64 M 2418.63 1103.98 L 2691.62 694.759 M 2691.62 694.759 L 2219.91 859.483 M 2819.38 2579.51 L 2698.26 2436.17 M 2515.52 2857.53 L 2819.38 2579.51 M 1483.67 237.922 L 1494.48 0 M 1494.48 0 L 1046.14 849.941 M 1500.73 2414.46 L 1708.46 1750.43 M 1812.16 7564.34 L 2247.29 7451.47 M 986.248 1755.97 L 761.484 1754.62 M 761.484 1754.62 L 987.482 2261.74 M 2214.76 3403.65 L 2127.28 3795.91 M 1852.71 6912.73 L 1918.69 6028.92 M 2816.13 5444.99 L 3536.01 5360.24 M 3536.01 5360.24 L 2904.85 5083.92 M 2397.59 6585.18 L 2361.64 5998.75 M 4480.42 2155.85 L 5067.1 2035.88 M 5067.1 2035.88 L 4957.97 1488.54 M 1877.73 4038.52 L 1976.34 5249.63 M 2468 3171.07 L 2214.76 3403.65 M 2672.5 3528.56 L 2468 3171.07 M 3359.39 1974.36 L 3037.35 2350.18 M 2402.36 5614.81 L 2292.31 5138.72 M 2647.62 4125.29 L 2769.39 3881.64 M 3655.88 2057.65 L 3773.38 1398.66 M 903.481 6581.14 L 1097.14 7041.72 M 1097.14 7041.72 L 1553.14 6922.1 M 1664.23 301.459 L 1420.27 706.41 M 1849.17 732.001 L 1664.23 301.459 M 1676.4 2587.43 L 1758.62 2772.96 M 2808.38 6643.39 L 2969.21 6066.57 M 0 3119.99 L 461.048 3137.3 M 578.467 2548.63 L 0 3119.99 M 4229.35 2081.53 L 4072.96 2711.45 M 4072.96 2711.45 L 4480.42 2155.85 M 1507.49 1383.93 L 1431.06 997.121 M 2247.29 7451.47 L 2134.54 6707.56 M 2134.54 6707.56 L 1852.71 6912.73 M 3995.96 1926.26 L 3655.88 2057.65 M 2219.91 859.483 L 1871.5 335.623 M 1871.5 335.623 L 1849.17 732.001 M 4477.72 1354.71 L 3995.96 1926.26 M 3592.27 2555.38 L 4229.35 2081.53 M 3773.38 1398.66 L 3127.37 1795.89 M 2442.95 1594.25 L 1988.91 1918.7 M 1420.27 706.41 L 1483.67 237.922 M 1897.06 5249.41 L 1323.34 5606.42 M 1935.89 5533.3 L 1897.06 5249.41 M 1758.62 2772.96 L 2515.52 2857.53 M 1179.11 2023.28 L 1465.64 2181.34 M 2669.58 2277.66 L 2404.62 2002 M 1965.21 2486.98 L 2669.58 2277.66 M 2698.26 2436.17 L 1965.21 2486.98 M 1536.21 3768.55 L 1866.16 3702.15 M 3037.35 2350.18 L 3131.46 2605.79 M 1553.14 6922.1 L 1812.16 7564.34 M 1918.69 6028.92 L 2197.07 6870.33 M 2197.07 6870.33 L 2397.59 6585.18 M 2292.31 5138.72 L 2196.86 4371.98 M 1988.91 1918.7 L 1500.73 2414.46 M 2969.21 6066.57 L 2402.36 5614.81 M 2404.62 2002 L 2675.76 2271.58" />
<path fill="none" style="stroke:#cccccc;stroke-width:9.455000;stroke-dasharray:50.670000, 50.670000;" d=" M 1849.17 732.001 L 1485.66 990.246 M 1507.49 1383.93 L 1849.17 732.001 M 1507.49 1383.93 L 1964.69 1254.67 M 1507.49 1383.93 L 1708.46 1750.43 M 1179.11 2023.28 L 1708.46 1750.43 M 1465.64 2181.34 L 1708.46 1750.43 M 1465.64 2181.34 L 1500.73 2414.46 M 1507.49 1383.93 L 1179.11 2023.28 M 1507.49 1383.93 L 986.248 1755.97 M 1431.06 997.121 L 986.248 1755.97 M 986.248 1755.97 L 1179.11 2023.28 M 986.248 1755.97 L 987.482 2261.74 M 1141.12 2139.29 L 1500.73 2414.46 M 1123.86 2444.72 L 1500.73 2414.46 M 1605.67 2777.64 L 1500.73 2414.46 M 1676.4 2587.43 L 1500.73 2414.46 M 1965.21 2486.98 L 1500.73 2414.46 M 1965.21 2486.98 L 2404.62 2002 M 1123.86 2444.72 L 1605.67 2777.64 M 1536.21 3768.55 L 1605.67 2777.64 M 1123.86 2444.72 L 1536.21 3768.55 M 1123.86 2444.72 L 461.048 3137.3 M 578.467 2548.63 L 461.048 3137.3 M 461.048 3137.3 L 1536.21 3768.55 M 461.048 3137.3 L 655.663 4605.91 M 1676.4 2587.43 L 1965.21 2486.98 M 1758.62 2772.96 L 1965.21 2486.98 M 2404.62 2002 L 1500.73 2414.46 M 2404.62 2002 L 1988.91 1918.7 M 2404.62 2002 L 2442.95 1594.25 M 2675.76 2271.58 L 2442.95 1594.25 M 1420.27 706.41 L 1485.66 990.246 M 1420.27 706.41 L 1046.14 849.941 M 1964.69 1254.67 L 1849.17 732.001 M 2219.91 859.483 L 1849.17 732.001 M 1964.69 1254.67 L 2219.91 859.483 M 2418.63 1103.98 L 2219.91 859.483 M 1964.69 1254.67 L 2418.63 1103.98 M 1849.17 732.001 L 1420.27 706.41 M 2515.52 2857.53 L 1965.21 2486.98 M 2515.52 2857.53 L 2698.26 2436.17 M 1483.67 237.922 L 1046.14 849.941 M 1536.21 3768.55 L 1665.67 3536.88 M 1866.16 3702.15 L 1665.67 3536.88 M 1866.16 3702.15 L 1988.56 3418.71 M 1866.16 3702.15 L 2127.28 3795.91 M 2196.86 4371.98 L 2127.28 3795.91 M 2607.14 4530.36 L 2127.28 3795.91 M 2647.62 4125.29 L 2127.28 3795.91 M 2607.14 4530.36 L 2647.62 4125.29 M 2196.86 4371.98 L 2607.14 4530.36 M 1866.16 3702.15 L 2196.86 4371.98 M 1877.73 4038.52 L 2196.86 4371.98 M 1976.34 5249.63 L 2196.86 4371.98 M 1976.34 5249.63 L 2292.31 5138.72 M 1935.89 5533.3 L 2292.31 5138.72 M 1935.89 5533.3 L 2402.36 5614.81 M 2361.64 5998.75 L 2402.36 5614.81 M 2361.64 5998.75 L 2969.21 6066.57 M 2361.64 5998.75 L 2808.38 6643.39 M 2769.39 3881.64 L 2127.28 3795.91 M 2769.39 3881.64 L 2214.76 3403.65 M 2769.39 3881.64 L 2672.5 3528.56 M 1935.89 5533.3 L 2361.64 5998.75 M 1918.69 6028.92 L 2361.64 5998.75 M 1935.89 5533.3 L 1918.69 6028.92 M 1935.89 5533.3 L 1323.34 5606.42 M 1323.34 5606.42 L 1918.69 6028.92 M 1323.34 5606.42 L 1278.12 6075.7 M 1278.12 6075.7 L 1918.69 6028.92 M 1553.14 6922.1 L 1918.69 6028.92 M 1553.14 6922.1 L 1852.71 6912.73 M 1278.12 6075.7 L 1553.14 6922.1 M 903.481 6581.14 L 1553.14 6922.1 M 1812.16 7564.34 L 1852.71 6912.73 M 2247.29 7451.47 L 1852.71 6912.73 M 1104.91 5701.33 L 1278.12 6075.7 M 2675.76 2271.58 L 3127.37 1795.89 M 3359.39 1974.36 L 3127.37 1795.89 M 3359.39 1974.36 L 3773.38 1398.66 M 2675.76 2271.58 L 3359.39 1974.36 M 3359.39 1974.36 L 3655.88 2057.65 M 3037.35 2350.18 L 3655.88 2057.65 M 3131.46 2605.79 L 3655.88 2057.65 M 3592.27 2555.38 L 3655.88 2057.65 M 3592.27 2555.38 L 3995.96 1926.26 M 4229.35 2081.53 L 3995.96 1926.26 M 2478.98 5091.3 L 2607.14 4530.36 M 2478.98 5091.3 L 2904.85 5083.92 M 2816.13 5444.99 L 2904.85 5083.92 M 2904.85 5083.92 L 2607.14 4530.36 M 2904.85 5083.92 L 2917.24 4565.06 M 2672.5 3528.56 L 2214.76 3403.65 M 4229.35 2081.53 L 4477.72 1354.71 M 4480.42 2155.85 L 4477.72 1354.71 M 4480.42 2155.85 L 4957.97 1488.54 M 4229.35 2081.53 L 4480.42 2155.85 M 1918.69 6028.92 L 2397.59 6585.18 M 2437.54 6581.36 L 2808.38 6643.39" />
</svg>
