<?xml version="1.0"?>
<svg width="5067" height="7564" version="1.1" xmlns="http://www.w3.org/2000/svg" >
<line x1="1485.664068" y1="990.246477" x2="1507.488119" y2="1383.934187" style="stroke:rgb(0,0,0);stroke-width:18.910000;fill:white" />
<line x1="1507.488119" y1="1383.934187" x2="1849.170988" y2="732.000910" style="stroke:rgb(255,0,0);stroke-width:9.455000;stroke-dasharray:50.670000, 50.670000;" />
<line x1="1849.170988" y1="732.000910" x2="1485.664068" y2="990.246477" style="stroke:rgb(255,0,0);stroke-width:9.455000;stroke-dasharray:50.670000, 50.670000;" />
<line x1="1877.731107" y1="4038.516129" x2="2196.863600" y2="4371.981836" style="stroke:rgb(255,0,0);stroke-width:9.455000;stroke-dasharray:50.670000, 50.670000;" />
<line x1="2196.863600" y1="4371.981836" x2="1866.155234" y2="3702.150125" style="stroke:rgb(255,0,0);stroke-width:9.455000;stroke-dasharray:50.670000, 50.670000;" />
<line x1="1866.155234" y1="3702.150125" x2="1877.731107" y2="4038.516129" style="stroke:rgb(0,0,0);stroke-width:18.910000;fill:white" />
<line x1="461.047706" y1="3137.295732" x2="1536.205097" y2="3768.550397" style="stroke:rgb(128,128,128);stroke-width:9.455000" />
<line x1="1536.205097" y1="3768.550397" x2="1123.864096" y2="2444.722628" style="stroke:rgb(255,0,0);stroke-width:9.455000;stroke-dasharray:50.670000, 50.670000;" />
<line x1="1123.864096" y1="2444.722628" x2="461.047706" y2="3137.295732" style="stroke:rgb(255,0,0);stroke-width:9.455000;stroke-dasharray:50.670000, 50.670000;" />
<line x1="461.047706" y1="3137.295732" x2="655.663341" y2="4605.910397" style="stroke:rgb(255,0,0);stroke-width:9.455000;stroke-dasharray:50.670000, 50.670000;" />
<line x1="655.663341" y1="4605.910397" x2="1536.205097" y2="3768.550397" style="stroke:rgb(0,0,0);stroke-width:18.910000;fill:white" />
<line x1="2437.541261" y1="6581.357586" x2="2774.148978" y2="7254.267218" style="stroke:rgb(0,0,0);stroke-width:18.910000;fill:white" />
<line x1="2774.148978" y1="7254.267218" x2="2808.376813" y2="6643.387633" style="stroke:rgb(0,0,0);stroke-width:18.910000;fill:white" />
<line x1="2808.376813" y1="6643.387633" x2="2437.541261" y2="6581.357586" style="stroke:rgb(0,0,255);stroke-width:9.455000;stroke-dasharray:50.670000, 50.670000, 10.134000, 50.670000;" />
<line x1="987.481879" y1="2261.743182" x2="1179.112151" y2="2023.283459" style="stroke:rgb(0,0,0);stroke-width:18.910000;fill:white" />
<line x1="1179.112151" y1="2023.283459" x2="986.248459" y2="1755.969403" style="stroke:rgb(255,0,0);stroke-width:9.455000;stroke-dasharray:50.670000, 50.670000;" />
<line x1="986.248459" y1="1755.969403" x2="987.481879" y2="2261.743182" style="stroke:rgb(255,0,0);stroke-width:9.455000;stroke-dasharray:50.670000, 50.670000;" />
<line x1="2127.283198" y1="3795.909711" x2="2607.139420" y2="4530.358792" style="stroke:rgb(255,0,0);stroke-width:9.455000;stroke-dasharray:50.670000, 50.670000;" />
<line x1="2607.139420" y1="4530.358792" x2="2647.622833" y2="4125.287029" style="stroke:rgb(255,0,0);stroke-width:9.455000;stroke-dasharray:50.670000, 50.670000;" />
<line x1="2647.622833" y1="4125.287029" x2="2127.283198" y2="3795.909711" style="stroke:rgb(255,0,0);stroke-width:9.455000;stroke-dasharray:50.670000, 50.670000;" />
<line x1="2127.283198" y1="3795.909711" x2="2196.863600" y2="4371.981836" style="stroke:rgb(255,0,0);stroke-width:9.455000;stroke-dasharray:50.670000, 50.670000;" />
<line x1="2196.863600" y1="4371.981836" x2="2607.139420" y2="4530.358792" style="stroke:rgb(255,0,0);stroke-width:9.455000;stroke-dasharray:50.670000, 50.670000;" />
<line x1="1964.693097" y1="1254.674552" x2="1849.170988" y2="732.000910" style="stroke:rgb(0,0,255);stroke-width:9.455000;stroke-dasharray:50.670000, 50.670000, 10.134000, 50.670000;" />
<line x1="1507.488119" y1="1383.934187" x2="1964.693097" y2="1254.674552" style="stroke:rgb(255,0,0);stroke-width:9.455000;stroke-dasharray:50.670000, 50.670000;" />
<line x1="1866.155234" y1="3702.150125" x2="2127.283198" y2="3795.909711" style="stroke:rgb(255,0,0);stroke-width:9.455000;stroke-dasharray:50.670000, 50.670000;" />
<line x1="2127.283198" y1="3795.909711" x2="1988.557186" y2="3418.712427" style="stroke:rgb(0,0,0);stroke-width:18.910000;fill:white" />
<line x1="1988.557186" y1="3418.712427" x2="1866.155234" y2="3702.150125" style="stroke:rgb(255,0,0);stroke-width:9.455000;stroke-dasharray:50.670000, 50.670000;" />
<line x1="2361.643439" y1="5998.746688" x2="1935.889966" y2="5533.298697" style="stroke:rgb(255,0,0);stroke-width:9.455000;stroke-dasharray:50.670000, 50.670000;" />
<line x1="1935.889966" y1="5533.298697" x2="1918.688690" y2="6028.917844" style="stroke:rgb(255,0,0);stroke-width:9.455000;stroke-dasharray:50.670000, 50.670000;" />
<line x1="1918.688690" y1="6028.917844" x2="2361.643439" y2="5998.746688" style="stroke:rgb(255,0,0);stroke-width:9.455000;stroke-dasharray:50.670000, 50.670000;" />
<line x1="2442.954572" y1="1594.250973" x2="2675.762398" y2="2271.578131" style="stroke:rgb(0,0,255);stroke-width:9.455000;stroke-dasharray:50.670000, 50.670000, 10.134000, 50.670000;" />
<line x1="2675.762398" y1="2271.578131" x2="3127.370189" y2="1795.887689" style="stroke:rgb(255,0,0);stroke-width:9.455000;stroke-dasharray:50.670000, 50.670000;" />
<line x1="3127.370189" y1="1795.887689" x2="2442.954572" y2="1594.250973" style="stroke:rgb(0,0,0);stroke-width:18.910000;fill:white" />
<line x1="240.677527" y1="4072.626585" x2="655.663341" y2="4605.910397" style="stroke:rgb(0,0,0);stroke-width:18.910000;fill:white" />
<line x1="461.047706" y1="3137.295732" x2="240.677527" y2="4072.626585" style="stroke:rgb(0,0,0);stroke-width:18.910000;fill:white" />
<line x1="882.969718" y1="6114.023323" x2="1278.122719" y2="6075.704930" style="stroke:rgb(0,0,0);stroke-width:18.910000;fill:white" />
<line x1="1278.122719" y1="6075.704930" x2="1104.906998" y2="5701.332881" style="stroke:rgb(255,0,0);stroke-width:9.455000;stroke-dasharray:50.670000, 50.670000;" />
<line x1="1104.906998" y1="5701.332881" x2="882.969718" y2="6114.023323" style="stroke:rgb(0,0,0);stroke-width:18.910000;fill:white" />
<line x1="1708.464810" y1="1750.426377" x2="1964.693097" y2="1254.674552" style="stroke:rgb(0,0,0);stroke-width:18.910000;fill:white" />
<line x1="1507.488119" y1="1383.934187" x2="1708.464810" y2="1750.426377" style="stroke:rgb(255,0,0);stroke-width:9.455000;stroke-dasharray:50.670000, 50.670000;" />
<line x1="1141.123252" y1="2139.292895" x2="1500.733795" y2="2414.462473" style="stroke:rgb(255,0,0);stroke-width:9.455000;stroke-dasharray:50.670000, 50.670000;" />
<line x1="1500.733795" y1="2414.462473" x2="1465.642022" y2="2181.336355" style="stroke:rgb(255,0,0);stroke-width:9.455000;stroke-dasharray:50.670000, 50.670000;" />
<line x1="1465.642022" y1="2181.336355" x2="1141.123252" y2="2139.292895" style="stroke:rgb(0,0,0);stroke-width:18.910000;fill:white" />
<line x1="1536.205097" y1="3768.550397" x2="1605.670121" y2="2777.639378" style="stroke:rgb(255,0,0);stroke-width:9.455000;stroke-dasharray:50.670000, 50.670000;" />
<line x1="1605.670121" y1="2777.639378" x2="1123.864096" y2="2444.722628" style="stroke:rgb(255,0,0);stroke-width:9.455000;stroke-dasharray:50.670000, 50.670000;" />
<line x1="3359.394709" y1="1974.360722" x2="2675.762398" y2="2271.578131" style="stroke:rgb(255,0,0);stroke-width:9.455000;stroke-dasharray:50.670000, 50.670000;" />
<line x1="2675.762398" y1="2271.578131" x2="2786.571403" y2="2423.030802" style="stroke:rgb(0,0,0);stroke-width:18.910000;fill:white" />
<line x1="2786.571403" y1="2423.030802" x2="3359.394709" y2="1974.360722" style="stroke:rgb(0,0,0);stroke-width:18.910000;fill:white" />
<line x1="1278.122719" y1="6075.704930" x2="1323.344266" y2="5606.416829" style="stroke:rgb(255,0,0);stroke-width:9.455000;stroke-dasharray:50.670000, 50.670000;" />
<line x1="1323.344266" y1="5606.416829" x2="1104.906998" y2="5701.332881" style="stroke:rgb(0,0,0);stroke-width:18.910000;fill:white" />
<line x1="2904.850028" y1="5083.919479" x2="3552.499327" y2="5041.356100" style="stroke:rgb(0,0,0);stroke-width:18.910000;fill:white" />
<line x1="3552.499327" y1="5041.356100" x2="2917.242884" y2="4565.062314" style="stroke:rgb(0,0,0);stroke-width:18.910000;fill:white" />
<line x1="2917.242884" y1="4565.062314" x2="2904.850028" y2="5083.919479" style="stroke:rgb(255,0,0);stroke-width:9.455000;stroke-dasharray:50.670000, 50.670000;" />
<line x1="1935.889966" y1="5533.298697" x2="1323.344266" y2="5606.416829" style="stroke:rgb(255,0,0);stroke-width:9.455000;stroke-dasharray:50.670000, 50.670000;" />
<line x1="1323.344266" y1="5606.416829" x2="1918.688690" y2="6028.917844" style="stroke:rgb(255,0,0);stroke-width:9.455000;stroke-dasharray:50.670000, 50.670000;" />
<line x1="4477.717593" y1="1354.713920" x2="4229.346164" y2="2081.528898" style="stroke:rgb(255,0,0);stroke-width:9.455000;stroke-dasharray:50.670000, 50.670000;" />
<line x1="4229.346164" y1="2081.528898" x2="4480.422493" y2="2155.851381" style="stroke:rgb(0,0,255);stroke-width:9.455000;stroke-dasharray:50.670000, 50.670000, 10.134000, 50.670000;" />
<line x1="4480.422493" y1="2155.851381" x2="4477.717593" y2="1354.713920" style="stroke:rgb(0,0,255);stroke-width:9.455000;stroke-dasharray:50.670000, 50.670000, 10.134000, 50.670000;" />
<line x1="2418.629930" y1="1103.984155" x2="1964.693097" y2="1254.674552" style="stroke:rgb(255,0,0);stroke-width:9.455000;stroke-dasharray:50.670000, 50.670000;" />
<line x1="1964.693097" y1="1254.674552" x2="2653.874334" y2="1439.367067" style="stroke:rgb(0,0,0);stroke-width:18.910000;fill:white" />
<line x1="2653.874334" y1="1439.367067" x2="2418.629930" y2="1103.984155" style="stroke:rgb(0,0,0);stroke-width:18.910000;fill:white" />
<line x1="1507.488119" y1="1383.934187" x2="1179.112151" y2="2023.283459" style="stroke:rgb(255,0,0);stroke-width:9.455000;stroke-dasharray:50.670000, 50.670000;" />
<line x1="1179.112151" y1="2023.283459" x2="1708.464810" y2="1750.426377" style="stroke:rgb(0,0,255);stroke-width:9.455000;stroke-dasharray:50.670000, 50.670000, 10.134000, 50.670000;" />
<line x1="4480.422493" y1="2155.851381" x2="4957.973984" y2="1488.544365" style="stroke:rgb(255,0,0);stroke-width:9.455000;stroke-dasharray:50.670000, 50.670000;" />
<line x1="4957.973984" y1="1488.544365" x2="4477.717593" y2="1354.713920" style="stroke:rgb(0,0,0);stroke-width:18.910000;fill:white" />
<line x1="2478.983118" y1="5091.295999" x2="2607.139420" y2="4530.358792" style="stroke:rgb(255,0,0);stroke-width:9.455000;stroke-dasharray:50.670000, 50.670000;" />
<line x1="2196.863600" y1="4371.981836" x2="2478.983118" y2="5091.295999" style="stroke:rgb(0,0,0);stroke-width:18.910000;fill:white" />
<line x1="3592.267539" y1="2555.382613" x2="3655.879539" y2="2057.653480" style="stroke:rgb(0,0,255);stroke-width:9.455000;stroke-dasharray:50.670000, 50.670000, 10.134000, 50.670000;" />
<line x1="3655.879539" y1="2057.653480" x2="3131.457448" y2="2605.785797" style="stroke:rgb(255,0,0);stroke-width:9.455000;stroke-dasharray:50.670000, 50.670000;" />
<line x1="3131.457448" y1="2605.785797" x2="3592.267539" y2="2555.382613" style="stroke:rgb(0,0,0);stroke-width:18.910000;fill:white" />
<line x1="1420.272968" y1="706.409694" x2="1046.142648" y2="849.941228" style="stroke:rgb(255,0,0);stroke-width:9.455000;stroke-dasharray:50.670000, 50.670000;" />
<line x1="1046.142648" y1="849.941228" x2="1485.664068" y2="990.246477" style="stroke:rgb(0,0,0);stroke-width:18.910000;fill:white" />
<line x1="1485.664068" y1="990.246477" x2="1420.272968" y2="706.409694" style="stroke:rgb(255,0,0);stroke-width:9.455000;stroke-dasharray:50.670000, 50.670000;" />
<line x1="1988.557186" y1="3418.712427" x2="1665.665036" y2="3536.883441" style="stroke:rgb(0,0,0);stroke-width:18.910000;fill:white" />
<line x1="1665.665036" y1="3536.883441" x2="1866.155234" y2="3702.150125" style="stroke:rgb(255,0,0);stroke-width:9.455000;stroke-dasharray:50.670000, 50.670000;" />
<line x1="1976.338482" y1="5249.632201" x2="1935.889966" y2="5533.298697" style="stroke:rgb(0,0,0);stroke-width:18.910000;fill:white" />
<line x1="1935.889966" y1="5533.298697" x2="2292.312835" y2="5138.724121" style="stroke:rgb(0,0,255);stroke-width:9.455000;stroke-dasharray:50.670000, 50.670000, 10.134000, 50.670000;" />
<line x1="2292.312835" y1="5138.724121" x2="1976.338482" y2="5249.632201" style="stroke:rgb(255,0,0);stroke-width:9.455000;stroke-dasharray:50.670000, 50.670000;" />
<line x1="2917.879471" y1="4501.913861" x2="2647.622833" y2="4125.287029" style="stroke:rgb(0,0,0);stroke-width:18.910000;fill:white" />
<line x1="2607.139420" y1="4530.358792" x2="2917.879471" y2="4501.913861" style="stroke:rgb(0,0,0);stroke-width:18.910000;fill:white" />
<line x1="1278.122719" y1="6075.704930" x2="903.481441" y2="6581.137398" style="stroke:rgb(0,0,0);stroke-width:18.910000;fill:white" />
<line x1="903.481441" y1="6581.137398" x2="1553.138873" y2="6922.095909" style="stroke:rgb(0,0,255);stroke-width:9.455000;stroke-dasharray:50.670000, 50.670000, 10.134000, 50.670000;" />
<line x1="1553.138873" y1="6922.095909" x2="1278.122719" y2="6075.704930" style="stroke:rgb(255,0,0);stroke-width:9.455000;stroke-dasharray:50.670000, 50.670000;" />
<line x1="2219.908993" y1="859.482806" x2="1964.693097" y2="1254.674552" style="stroke:rgb(255,0,0);stroke-width:9.455000;stroke-dasharray:50.670000, 50.670000;" />
<line x1="2418.629930" y1="1103.984155" x2="2219.908993" y2="859.482806" style="stroke:rgb(0,0,255);stroke-width:9.455000;stroke-dasharray:50.670000, 50.670000, 10.134000, 50.670000;" />
<line x1="856.510082" y1="1572.424691" x2="986.248459" y2="1755.969403" style="stroke:rgb(0,0,0);stroke-width:18.910000;fill:white" />
<line x1="986.248459" y1="1755.969403" x2="1431.055297" y2="997.121150" style="stroke:rgb(255,0,0);stroke-width:9.455000;stroke-dasharray:50.670000, 50.670000;" />
<line x1="1431.055297" y1="997.121150" x2="856.510082" y2="1572.424691" style="stroke:rgb(0,0,0);stroke-width:18.910000;fill:white" />
<line x1="2904.850028" y1="5083.919479" x2="2478.983118" y2="5091.295999" style="stroke:rgb(255,0,0);stroke-width:9.455000;stroke-dasharray:50.670000, 50.670000;" />
<line x1="2478.983118" y1="5091.295999" x2="2816.131336" y2="5444.986182" style="stroke:rgb(0,0,0);stroke-width:18.910000;fill:white" />
<line x1="2816.131336" y1="5444.986182" x2="2904.850028" y2="5083.919479" style="stroke:rgb(255,0,0);stroke-width:9.455000;stroke-dasharray:50.670000, 50.670000;" />
<line x1="578.467498" y1="2548.625682" x2="461.047706" y2="3137.295732" style="stroke:rgb(255,0,0);stroke-width:9.455000;stroke-dasharray:50.670000, 50.670000;" />
<line x1="1123.864096" y1="2444.722628" x2="578.467498" y2="2548.625682" style="stroke:rgb(0,0,0);stroke-width:18.910000;fill:white" />
<line x1="1141.123252" y1="2139.292895" x2="1123.864096" y2="2444.722628" style="stroke:rgb(0,0,0);stroke-width:18.910000;fill:white" />
<line x1="1123.864096" y1="2444.722628" x2="1500.733795" y2="2414.462473" style="stroke:rgb(255,0,0);stroke-width:9.455000;stroke-dasharray:50.670000, 50.670000;" />
<line x1="2769.391490" y1="3881.639328" x2="2672.503358" y2="3528.564990" style="stroke:rgb(0,0,255);stroke-width:9.455000;stroke-dasharray:50.670000, 50.670000, 10.134000, 50.670000;" />
<line x1="2672.503358" y1="3528.564990" x2="2214.763462" y2="3403.647170" style="stroke:rgb(255,0,0);stroke-width:9.455000;stroke-dasharray:50.670000, 50.670000;" />
<line x1="2214.763462" y1="3403.647170" x2="2769.391490" y2="3881.639328" style="stroke:rgb(255,0,0);stroke-width:9.455000;stroke-dasharray:50.670000, 50.670000;" />
<line x1="2808.376813" y1="6643.387633" x2="2361.643439" y2="5998.746688" style="stroke:rgb(255,0,0);stroke-width:9.455000;stroke-dasharray:50.670000, 50.670000;" />
<line x1="2361.643439" y1="5998.746688" x2="2437.541261" y2="6581.357586" style="stroke:rgb(0,0,0);stroke-width:18.910000;fill:white" />
<line x1="3257.972139" y1="3960.603978" x2="2672.503358" y2="3528.564990" style="stroke:rgb(0,0,0);stroke-width:18.910000;fill:white" />
<line x1="2769.391490" y1="3881.639328" x2="3257.972139" y2="3960.603978" style="stroke:rgb(0,0,0);stroke-width:18.910000;fill:white" />
<line x1="1500.733795" y1="2414.462473" x2="1605.670121" y2="2777.639378" style="stroke:rgb(255,0,0);stroke-width:9.455000;stroke-dasharray:50.670000, 50.670000;" />
<line x1="1605.670121" y1="2777.639378" x2="1676.396818" y2="2587.430332" style="stroke:rgb(0,0,0);stroke-width:18.910000;fill:white" />
<line x1="1676.396818" y1="2587.430332" x2="1500.733795" y2="2414.462473" style="stroke:rgb(255,0,0);stroke-width:9.455000;stroke-dasharray:50.670000, 50.670000;" />
<line x1="1676.396818" y1="2587.430332" x2="1965.213482" y2="2486.978252" style="stroke:rgb(255,0,0);stroke-width:9.455000;stroke-dasharray:50.670000, 50.670000;" />
<line x1="1965.213482" y1="2486.978252" x2="1500.733795" y2="2414.462473" style="stroke:rgb(255,0,0);stroke-width:9.455000;stroke-dasharray:50.670000, 50.670000;" />
<line x1="2402.358027" y1="5614.807855" x2="1935.889966" y2="5533.298697" style="stroke:rgb(255,0,0);stroke-width:9.455000;stroke-dasharray:50.670000, 50.670000;" />
<line x1="2361.643439" y1="5998.746688" x2="2402.358027" y2="5614.807855" style="stroke:rgb(255,0,0);stroke-width:9.455000;stroke-dasharray:50.670000, 50.670000;" />
<line x1="1507.488119" y1="1383.934187" x2="986.248459" y2="1755.969403" style="stroke:rgb(255,0,0);stroke-width:9.455000;stroke-dasharray:50.670000, 50.670000;" />
<line x1="2607.139420" y1="4530.358792" x2="2904.850028" y2="5083.919479" style="stroke:rgb(255,0,0);stroke-width:9.455000;stroke-dasharray:50.670000, 50.670000;" />
<line x1="2917.242884" y1="4565.062314" x2="2607.139420" y2="4530.358792" style="stroke:rgb(0,0,0);stroke-width:18.910000;fill:white" />
<line x1="1536.205097" y1="3768.550397" x2="1665.665036" y2="3536.883441" style="stroke:rgb(0,0,255);stroke-width:9.455000;stroke-dasharray:50.670000, 50.670000, 10.134000, 50.670000;" />
<line x1="1665.665036" y1="3536.883441" x2="1605.670121" y2="2777.639378" style="stroke:rgb(0,0,0);stroke-width:18.910000;fill:white" />
<line x1="2418.629930" y1="1103.984155" x2="2691.616353" y2="694.758724" style="stroke:rgb(0,0,0);stroke-width:18.910000;fill:white" />
<line x1="2691.616353" y1="694.758724" x2="2219.908993" y2="859.482806" style="stroke:rgb(0,0,0);stroke-width:18.910000;fill:white" />
<line x1="2819.380434" y1="2579.510614" x2="2698.260936" y2="2436.169712" style="stroke:rgb(0,0,0);stroke-width:18.910000;fill:white" />
<line x1="2698.260936" y1="2436.169712" x2="2515.522144" y2="2857.533585" style="stroke:rgb(0,0,255);stroke-width:9.455000;stroke-dasharray:50.670000, 50.670000, 10.134000, 50.670000;" />
<line x1="2515.522144" y1="2857.533585" x2="2819.380434" y2="2579.510614" style="stroke:rgb(0,0,0);stroke-width:18.910000;fill:white" />
<line x1="1483.672183" y1="237.922424" x2="1494.480388" y2="0.000000" style="stroke:rgb(0,0,0);stroke-width:18.910000;fill:white" />
<line x1="1494.480388" y1="0.000000" x2="1046.142648" y2="849.941228" style="stroke:rgb(0,0,0);stroke-width:18.910000;fill:white" />
<line x1="1046.142648" y1="849.941228" x2="1483.672183" y2="237.922424" style="stroke:rgb(0,0,255);stroke-width:9.455000;stroke-dasharray:50.670000, 50.670000, 10.134000, 50.670000;" />
<line x1="1500.733795" y1="2414.462473" x2="1708.464810" y2="1750.426377" style="stroke:rgb(0,0,0);stroke-width:18.910000;fill:white" />
<line x1="1708.464810" y1="1750.426377" x2="1465.642022" y2="2181.336355" style="stroke:rgb(255,0,0);stroke-width:9.455000;stroke-dasharray:50.670000, 50.670000;" />
<line x1="1965.213482" y1="2486.978252" x2="2404.616914" y2="2001.999902" style="stroke:rgb(255,0,0);stroke-width:9.455000;stroke-dasharray:50.670000, 50.670000;" />
<line x1="2404.616914" y1="2001.999902" x2="1500.733795" y2="2414.462473" style="stroke:rgb(0,0,255);stroke-width:9.455000;stroke-dasharray:50.670000, 50.670000, 10.134000, 50.670000;" />
<line x1="1852.709532" y1="6912.726963" x2="1812.163331" y2="7564.343018" style="stroke:rgb(255,0,0);stroke-width:9.455000;stroke-dasharray:50.670000, 50.670000;" />
<line x1="1812.163331" y1="7564.343018" x2="2247.287509" y2="7451.469964" style="stroke:rgb(0,0,0);stroke-width:18.910000;fill:white" />
<line x1="2247.287509" y1="7451.469964" x2="1852.709532" y2="6912.726963" style="stroke:rgb(255,0,0);stroke-width:9.455000;stroke-dasharray:50.670000, 50.670000;" />
<line x1="986.248459" y1="1755.969403" x2="761.484416" y2="1754.615545" style="stroke:rgb(0,0,0);stroke-width:18.910000;fill:white" />
<line x1="761.484416" y1="1754.615545" x2="987.481879" y2="2261.743182" style="stroke:rgb(0,0,0);stroke-width:18.910000;fill:white" />
<line x1="2214.763462" y1="3403.647170" x2="2127.283198" y2="3795.909711" style="stroke:rgb(0,0,0);stroke-width:18.910000;fill:white" />
<line x1="2127.283198" y1="3795.909711" x2="2769.391490" y2="3881.639328" style="stroke:rgb(0,0,255);stroke-width:9.455000;stroke-dasharray:50.670000, 50.670000, 10.134000, 50.670000;" />
<line x1="1918.688690" y1="6028.917844" x2="1553.138873" y2="6922.095909" style="stroke:rgb(0,0,255);stroke-width:9.455000;stroke-dasharray:50.670000, 50.670000, 10.134000, 50.670000;" />
<line x1="1553.138873" y1="6922.095909" x2="1852.709532" y2="6912.726963" style="stroke:rgb(0,0,255);stroke-width:9.455000;stroke-dasharray:50.670000, 50.670000, 10.134000, 50.670000;" />
<line x1="1852.709532" y1="6912.726963" x2="1918.688690" y2="6028.917844" style="stroke:rgb(0,0,0);stroke-width:18.910000;fill:white" />
<line x1="2816.131336" y1="5444.986182" x2="3536.011953" y2="5360.238989" style="stroke:rgb(0,0,0);stroke-width:18.910000;fill:white" />
<line x1="3536.011953" y1="5360.238989" x2="2904.850028" y2="5083.919479" style="stroke:rgb(0,0,0);stroke-width:18.910000;fill:white" />
<line x1="2397.590028" y1="6585.179788" x2="2361.643439" y2="5998.746688" style="stroke:rgb(0,0,0);stroke-width:18.910000;fill:white" />
<line x1="1918.688690" y1="6028.917844" x2="2397.590028" y2="6585.179788" style="stroke:rgb(255,0,0);stroke-width:9.455000;stroke-dasharray:50.670000, 50.670000;" />
<line x1="4480.422493" y1="2155.851381" x2="5067.098127" y2="2035.875432" style="stroke:rgb(0,0,0);stroke-width:18.910000;fill:white" />
<line x1="5067.098127" y1="2035.875432" x2="4957.973984" y2="1488.544365" style="stroke:rgb(0,0,0);stroke-width:18.910000;fill:white" />
<line x1="1976.338482" y1="5249.632201" x2="2196.863600" y2="4371.981836" style="stroke:rgb(255,0,0);stroke-width:9.455000;stroke-dasharray:50.670000, 50.670000;" />
<line x1="1877.731107" y1="4038.516129" x2="1976.338482" y2="5249.632201" style="stroke:rgb(0,0,0);stroke-width:18.910000;fill:white" />
<line x1="2468.001710" y1="3171.065746" x2="2214.763462" y2="3403.647170" style="stroke:rgb(0,0,0);stroke-width:18.910000;fill:white" />
<line x1="2672.503358" y1="3528.564990" x2="2468.001710" y2="3171.065746" style="stroke:rgb(0,0,0);stroke-width:18.910000;fill:white" />
<line x1="3037.354982" y1="2350.175676" x2="3655.879539" y2="2057.653480" style="stroke:rgb(255,0,0);stroke-width:9.455000;stroke-dasharray:50.670000, 50.670000;" />
<line x1="3655.879539" y1="2057.653480" x2="3359.394709" y2="1974.360722" style="stroke:rgb(0,0,255);stroke-width:9.455000;stroke-dasharray:50.670000, 50.670000, 10.134000, 50.670000;" />
<line x1="3359.394709" y1="1974.360722" x2="3037.354982" y2="2350.175676" style="stroke:rgb(0,0,0);stroke-width:18.910000;fill:white" />
<line x1="2402.358027" y1="5614.807855" x2="2292.312835" y2="5138.724121" style="stroke:rgb(0,0,0);stroke-width:18.910000;fill:white" />
<line x1="2647.622833" y1="4125.287029" x2="2769.391490" y2="3881.639328" style="stroke:rgb(0,0,0);stroke-width:18.910000;fill:white" />
<line x1="3655.879539" y1="2057.653480" x2="3773.383034" y2="1398.662424" style="stroke:rgb(0,0,0);stroke-width:18.910000;fill:white" />
<line x1="3773.383034" y1="1398.662424" x2="3359.394709" y2="1974.360722" style="stroke:rgb(255,0,0);stroke-width:9.455000;stroke-dasharray:50.670000, 50.670000;" />
<line x1="903.481441" y1="6581.137398" x2="1097.144655" y2="7041.720090" style="stroke:rgb(0,0,0);stroke-width:18.910000;fill:white" />
<line x1="1097.144655" y1="7041.720090" x2="1553.138873" y2="6922.095909" style="stroke:rgb(0,0,0);stroke-width:18.910000;fill:white" />
<line x1="1664.229565" y1="301.459127" x2="1420.272968" y2="706.409694" style="stroke:rgb(0,0,0);stroke-width:18.910000;fill:white" />
<line x1="1420.272968" y1="706.409694" x2="1849.170988" y2="732.000910" style="stroke:rgb(255,0,0);stroke-width:9.455000;stroke-dasharray:50.670000, 50.670000;" />
<line x1="1849.170988" y1="732.000910" x2="1664.229565" y2="301.459127" style="stroke:rgb(0,0,0);stroke-width:18.910000;fill:white" />
<line x1="1758.621864" y1="2772.958735" x2="1965.213482" y2="2486.978252" style="stroke:rgb(0,0,255);stroke-width:9.455000;stroke-dasharray:50.670000, 50.670000, 10.134000, 50.670000;" />
<line x1="1676.396818" y1="2587.430332" x2="1758.621864" y2="2772.958735" style="stroke:rgb(0,0,0);stroke-width:18.910000;fill:white" />
<line x1="2969.208093" y1="6066.572387" x2="2361.643439" y2="5998.746688" style="stroke:rgb(0,0,255);stroke-width:9.455000;stroke-dasharray:50.670000, 50.670000, 10.134000, 50.670000;" />
<line x1="2808.376813" y1="6643.387633" x2="2969.208093" y2="6066.572387" style="stroke:rgb(0,0,0);stroke-width:18.910000;fill:white" />
<line x1="1918.688690" y1="6028.917844" x2="1278.122719" y2="6075.704930" style="stroke:rgb(255,0,0);stroke-width:9.455000;stroke-dasharray:50.670000, 50.670000;" />
<line x1="0.000000" y1="3119.985221" x2="461.047706" y2="3137.295732" style="stroke:rgb(0,0,0);stroke-width:18.910000;fill:white" />
<line x1="578.467498" y1="2548.625682" x2="0.000000" y2="3119.985221" style="stroke:rgb(0,0,0);stroke-width:18.910000;fill:white" />
<line x1="4229.346164" y1="2081.528898" x2="4072.962253" y2="2711.453757" style="stroke:rgb(0,0,0);stroke-width:18.910000;fill:white" />
<line x1="4072.962253" y1="2711.453757" x2="4480.422493" y2="2155.851381" style="stroke:rgb(0,0,0);stroke-width:18.910000;fill:white" />
<line x1="2219.908993" y1="859.482806" x2="1849.170988" y2="732.000910" style="stroke:rgb(255,0,0);stroke-width:9.455000;stroke-dasharray:50.670000, 50.670000;" />
<line x1="1507.488119" y1="1383.934187" x2="1431.055297" y2="997.121150" style="stroke:rgb(0,0,0);stroke-width:18.910000;fill:white" />
<line x1="2247.287509" y1="7451.469964" x2="2134.540007" y2="6707.561282" style="stroke:rgb(0,0,0);stroke-width:18.910000;fill:white" />
<line x1="2134.540007" y1="6707.561282" x2="1852.709532" y2="6912.726963" style="stroke:rgb(0,0,0);stroke-width:18.910000;fill:white" />
<line x1="3592.267539" y1="2555.382613" x2="3995.955922" y2="1926.256103" style="stroke:rgb(255,0,0);stroke-width:9.455000;stroke-dasharray:50.670000, 50.670000;" />
<line x1="3995.955922" y1="1926.256103" x2="3655.879539" y2="2057.653480" style="stroke:rgb(0,0,0);stroke-width:18.910000;fill:white" />
<line x1="2219.908993" y1="859.482806" x2="1871.500091" y2="335.622803" style="stroke:rgb(0,0,0);stroke-width:18.910000;fill:white" />
<line x1="1871.500091" y1="335.622803" x2="1849.170988" y2="732.000910" style="stroke:rgb(0,0,0);stroke-width:18.910000;fill:white" />
<line x1="3995.955922" y1="1926.256103" x2="4229.346164" y2="2081.528898" style="stroke:rgb(0,0,255);stroke-width:9.455000;stroke-dasharray:50.670000, 50.670000, 10.134000, 50.670000;" />
<line x1="4477.717593" y1="1354.713920" x2="3995.955922" y2="1926.256103" style="stroke:rgb(0,0,0);stroke-width:18.910000;fill:white" />
<line x1="3592.267539" y1="2555.382613" x2="4229.346164" y2="2081.528898" style="stroke:rgb(0,0,0);stroke-width:18.910000;fill:white" />
<line x1="3773.383034" y1="1398.662424" x2="3127.370189" y2="1795.887689" style="stroke:rgb(0,0,0);stroke-width:18.910000;fill:white" />
<line x1="3127.370189" y1="1795.887689" x2="3359.394709" y2="1974.360722" style="stroke:rgb(0,0,255);stroke-width:9.455000;stroke-dasharray:50.670000, 50.670000, 10.134000, 50.670000;" />
<line x1="1988.913901" y1="1918.704169" x2="2404.616914" y2="2001.999902" style="stroke:rgb(255,0,0);stroke-width:9.455000;stroke-dasharray:50.670000, 50.670000;" />
<line x1="2404.616914" y1="2001.999902" x2="2442.954572" y2="1594.250973" style="stroke:rgb(255,0,0);stroke-width:9.455000;stroke-dasharray:50.670000, 50.670000;" />
<line x1="2442.954572" y1="1594.250973" x2="1988.913901" y2="1918.704169" style="stroke:rgb(0,0,0);stroke-width:18.910000;fill:white" />
<line x1="1420.272968" y1="706.409694" x2="1483.672183" y2="237.922424" style="stroke:rgb(0,0,0);stroke-width:18.910000;fill:white" />
<line x1="1897.058762" y1="5249.406286" x2="1323.344266" y2="5606.416829" style="stroke:rgb(0,0,0);stroke-width:18.910000;fill:white" />
<line x1="1935.889966" y1="5533.298697" x2="1897.058762" y2="5249.406286" style="stroke:rgb(0,0,0);stroke-width:18.910000;fill:white" />
<line x1="1758.621864" y1="2772.958735" x2="2515.522144" y2="2857.533585" style="stroke:rgb(0,0,0);stroke-width:18.910000;fill:white" />
<line x1="2515.522144" y1="2857.533585" x2="1965.213482" y2="2486.978252" style="stroke:rgb(255,0,0);stroke-width:9.455000;stroke-dasharray:50.670000, 50.670000;" />
<line x1="1179.112151" y1="2023.283459" x2="1465.642022" y2="2181.336355" style="stroke:rgb(0,0,0);stroke-width:18.910000;fill:white" />
<line x1="2669.575868" y1="2277.661013" x2="2404.616914" y2="2001.999902" style="stroke:rgb(0,0,0);stroke-width:18.910000;fill:white" />
<line x1="1965.213482" y1="2486.978252" x2="2669.575868" y2="2277.661013" style="stroke:rgb(0,0,0);stroke-width:18.910000;fill:white" />
<line x1="2698.260936" y1="2436.169712" x2="1965.213482" y2="2486.978252" style="stroke:rgb(0,0,0);stroke-width:18.910000;fill:white" />
<line x1="1536.205097" y1="3768.550397" x2="1866.155234" y2="3702.150125" style="stroke:rgb(0,0,0);stroke-width:18.910000;fill:white" />
<line x1="3037.354982" y1="2350.175676" x2="3131.457448" y2="2605.785797" style="stroke:rgb(0,0,0);stroke-width:18.910000;fill:white" />
<line x1="1553.138873" y1="6922.095909" x2="1812.163331" y2="7564.343018" style="stroke:rgb(0,0,0);stroke-width:18.910000;fill:white" />
<line x1="1918.688690" y1="6028.917844" x2="2197.066560" y2="6870.331874" style="stroke:rgb(0,0,0);stroke-width:18.910000;fill:white" />
<line x1="2197.066560" y1="6870.331874" x2="2397.590028" y2="6585.179788" style="stroke:rgb(0,0,0);stroke-width:18.910000;fill:white" />
<line x1="2292.312835" y1="5138.724121" x2="2196.863600" y2="4371.981836" style="stroke:rgb(0,0,0);stroke-width:18.910000;fill:white" />
<line x1="1988.913901" y1="1918.704169" x2="1500.733795" y2="2414.462473" style="stroke:rgb(0,0,0);stroke-width:18.910000;fill:white" />
<line x1="2969.208093" y1="6066.572387" x2="2402.358027" y2="5614.807855" style="stroke:rgb(0,0,0);stroke-width:18.910000;fill:white" />
<line x1="2404.616914" y1="2001.999902" x2="2675.762398" y2="2271.578131" style="stroke:rgb(0,0,0);stroke-width:18.910000;fill:white" />
<text x="1496.576094" y="1187.090332" transform="rotate(86.827055 1496.576094 1187.090332)" fill="darkgreen" font-weight="bold" font-size="101.340000">0</text>
<text x="1469.271708" y="1190.527668" transform="rotate(-101.177441 1469.271708 1190.527668)" fill="darkgreen" font-weight="bold" font-size="101.340000">0</text>
<text x="1701.180166" y="3735.350261" transform="rotate(-11.378414 1701.180166 3735.350261)" fill="darkgreen" font-weight="bold" font-size="101.340000">5</text>
<text x="1871.943171" y="3870.333127" transform="rotate(88.028967 1871.943171 3870.333127)" fill="darkgreen" font-weight="bold" font-size="101.340000">5</text>
<text x="1927.034795" y="4644.074165" transform="rotate(85.345320 1927.034795 4644.074165)" fill="darkgreen" font-weight="bold" font-size="101.340000">10</text>
<text x="1095.934219" y="4187.230397" transform="rotate(-43.560095 1095.934219 4187.230397)" fill="darkgreen" font-weight="bold" font-size="101.340000">10</text>
<text x="2605.845120" y="6917.812402" transform="rotate(63.424531 2605.845120 6917.812402)" fill="darkgreen" font-weight="bold" font-size="101.340000">11</text>
<text x="2190.913758" y="7079.515623" transform="rotate(-98.618208 2190.913758 7079.515623)" fill="darkgreen" font-weight="bold" font-size="101.340000">11</text>
<text x="1083.297015" y="2142.513321" transform="rotate(-51.214049 1083.297015 2142.513321)" fill="darkgreen" font-weight="bold" font-size="101.340000">14</text>
<text x="1132.493674" y="2292.007762" transform="rotate(93.234213 1132.493674 2292.007762)" fill="darkgreen" font-weight="bold" font-size="101.340000">14</text>
<text x="2057.920192" y="3607.311069" transform="rotate(-110.192560 2057.920192 3607.311069)" fill="darkgreen" font-weight="bold" font-size="101.340000">26</text>
<text x="2171.023330" y="3599.778441" transform="rotate(102.572057 2171.023330 3599.778441)" fill="darkgreen" font-weight="bold" font-size="101.340000">26</text>
<text x="2309.283716" y="1347.020809" transform="rotate(15.002090 2309.283716 1347.020809)" fill="darkgreen" font-weight="bold" font-size="101.340000">32</text>
<text x="2785.162380" y="1695.069331" transform="rotate(-163.584411 2785.162380 1695.069331)" fill="darkgreen" font-weight="bold" font-size="101.340000">32</text>
<text x="1610.201514" y="5427.911557" transform="rotate(148.106851 1610.201514 5427.911557)" fill="darkgreen" font-weight="bold" font-size="101.340000">33</text>
<text x="448.170434" y="4339.268491" transform="rotate(52.110991 448.170434 4339.268491)" fill="darkgreen" font-weight="bold" font-size="101.340000">33</text>
<text x="350.862616" y="3604.961158" transform="rotate(103.257481 350.862616 3604.961158)" fill="darkgreen" font-weight="bold" font-size="101.340000">34</text>
<text x="1270.311518" y="424.970614" transform="rotate(117.811310 1270.311518 424.970614)" fill="darkgreen" font-weight="bold" font-size="101.340000">34</text>
<text x="1080.546218" y="6094.864127" transform="rotate(-5.538713 1080.546218 6094.864127)" fill="darkgreen" font-weight="bold" font-size="101.340000">35</text>
<text x="1860.335539" y="533.811856" transform="rotate(93.224221 1860.335539 533.811856)" fill="darkgreen" font-weight="bold" font-size="101.340000">35</text>
<text x="1756.700276" y="516.730019" transform="rotate(-113.246182 1756.700276 516.730019)" fill="darkgreen" font-weight="bold" font-size="101.340000">37</text>
<text x="993.938358" y="5907.678102" transform="rotate(118.270535 993.938358 5907.678102)" fill="darkgreen" font-weight="bold" font-size="101.340000">37</text>
<text x="2215.934236" y="1756.477571" transform="rotate(144.450749 2215.934236 1756.477571)" fill="darkgreen" font-weight="bold" font-size="101.340000">39</text>
<text x="1836.578954" y="1502.550464" transform="rotate(-62.667910 1836.578954 1502.550464)" fill="darkgreen" font-weight="bold" font-size="101.340000">39</text>
<text x="1322.377087" y="2102.309907" transform="rotate(28.881590 1322.377087 2102.309907)" fill="darkgreen" font-weight="bold" font-size="101.340000">41</text>
<text x="1303.382637" y="2160.314625" transform="rotate(-172.618078 1303.382637 2160.314625)" fill="darkgreen" font-weight="bold" font-size="101.340000">41</text>
<text x="2731.166901" y="2347.304467" transform="rotate(53.809259 2731.166901 2347.304467)" fill="darkgreen" font-weight="bold" font-size="101.340000">45</text>
<text x="2758.820685" y="2507.840163" transform="rotate(-130.196972 2758.820685 2507.840163)" fill="darkgreen" font-weight="bold" font-size="101.340000">45</text>
<text x="2965.237748" y="3744.584484" transform="rotate(-143.575009 2965.237748 3744.584484)" fill="darkgreen" font-weight="bold" font-size="101.340000">46</text>
<text x="3072.983056" y="2198.695762" transform="rotate(-38.070207 3072.983056 2198.695762)" fill="darkgreen" font-weight="bold" font-size="101.340000">46</text>
<text x="1214.125632" y="5653.874855" transform="rotate(156.513929 1214.125632 5653.874855)" fill="darkgreen" font-weight="bold" font-size="101.340000">49</text>
<text x="1489.076285" y="118.961212" transform="rotate(-87.398983 1489.076285 118.961212)" fill="darkgreen" font-weight="bold" font-size="101.340000">49</text>
<text x="3228.674678" y="5062.637789" transform="rotate(-3.760060 3228.674678 5062.637789)" fill="darkgreen" font-weight="bold" font-size="101.340000">50</text>
<text x="4151.154208" y="2396.491327" transform="rotate(103.942263 4151.154208 2396.491327)" fill="darkgreen" font-weight="bold" font-size="101.340000">50</text>
<text x="3234.871106" y="4803.209207" transform="rotate(-143.138670 3234.871106 4803.209207)" fill="darkgreen" font-weight="bold" font-size="101.340000">51</text>
<text x="3910.806852" y="2318.455755" transform="rotate(-36.641558 3910.806852 2318.455755)" fill="darkgreen" font-weight="bold" font-size="101.340000">51</text>
<text x="2337.923359" y="4731.638918" transform="rotate(68.584574 2337.923359 4731.638918)" fill="darkgreen" font-weight="bold" font-size="101.340000">64</text>
<text x="2244.588218" y="4755.352979" transform="rotate(-97.096053 2244.588218 4755.352979)" fill="darkgreen" font-weight="bold" font-size="101.340000">64</text>
<text x="3361.862493" y="2580.584205" transform="rotate(-6.242170 3361.862493 2580.584205)" fill="darkgreen" font-weight="bold" font-size="101.340000">68</text>
<text x="2782.751152" y="4313.600445" transform="rotate(-125.662133 2782.751152 4313.600445)" fill="darkgreen" font-weight="bold" font-size="101.340000">68</text>
<text x="230.523853" y="3128.640476" transform="rotate(2.150219 230.523853 3128.640476)" fill="darkgreen" font-weight="bold" font-size="101.340000">71</text>
<text x="1265.903358" y="920.093853" transform="rotate(17.704266 1265.903358 920.093853)" fill="darkgreen" font-weight="bold" font-size="101.340000">71</text>
<text x="2341.382586" y="3287.356458" transform="rotate(137.434715 2341.382586 3287.356458)" fill="darkgreen" font-weight="bold" font-size="101.340000">72</text>
<text x="1827.111111" y="3477.797934" transform="rotate(159.898541 1827.111111 3477.797934)" fill="darkgreen" font-weight="bold" font-size="101.340000">72</text>
<text x="1956.114224" y="5391.465449" transform="rotate(98.115197 1956.114224 5391.465449)" fill="darkgreen" font-weight="bold" font-size="101.340000">76</text>
<text x="1916.474364" y="5391.352491" transform="rotate(-97.788659 1916.474364 5391.352491)" fill="darkgreen" font-weight="bold" font-size="101.340000">76</text>
<text x="2762.509445" y="4516.136327" transform="rotate(-5.230240 2762.509445 4516.136327)" fill="darkgreen" font-weight="bold" font-size="101.340000">77</text>
<text x="2762.191152" y="4547.710553" transform="rotate(-173.614617 2762.191152 4547.710553)" fill="darkgreen" font-weight="bold" font-size="101.340000">77</text>
<text x="1090.802080" y="6328.421164" transform="rotate(126.546913 1090.802080 6328.421164)" fill="darkgreen" font-weight="bold" font-size="101.340000">80</text>
<text x="2045.704542" y="597.552804" transform="rotate(-123.627084 2045.704542 597.552804)" fill="darkgreen" font-weight="bold" font-size="101.340000">80</text>
<text x="1143.782689" y="1284.772920" transform="rotate(134.962206 1143.782689 1284.772920)" fill="darkgreen" font-weight="bold" font-size="101.340000">84</text>
<text x="289.233749" y="2834.305451" transform="rotate(135.354177 289.233749 2834.305451)" fill="darkgreen" font-weight="bold" font-size="101.340000">84</text>
<text x="873.866437" y="1755.292474" transform="rotate(-179.654875 873.866437 1755.292474)" fill="darkgreen" font-weight="bold" font-size="101.340000">85</text>
<text x="921.379270" y="1664.197047" transform="rotate(54.745459 921.379270 1664.197047)" fill="darkgreen" font-weight="bold" font-size="101.340000">85</text>
<text x="2647.557227" y="5268.141091" transform="rotate(46.371670 2647.557227 5268.141091)" fill="darkgreen" font-weight="bold" font-size="101.340000">87</text>
<text x="2347.335431" y="5376.765988" transform="rotate(-103.015144 2347.335431 5376.765988)" fill="darkgreen" font-weight="bold" font-size="101.340000">87</text>
<text x="851.165797" y="2496.674155" transform="rotate(169.213869 851.165797 2496.674155)" fill="darkgreen" font-weight="bold" font-size="101.340000">89</text>
<text x="874.483147" y="2008.179363" transform="rotate(65.980228 874.483147 2008.179363)" fill="darkgreen" font-weight="bold" font-size="101.340000">89</text>
<text x="2379.616734" y="6291.963238" transform="rotate(-93.507665 2379.616734 6291.963238)" fill="darkgreen" font-weight="bold" font-size="101.340000">96</text>
<text x="2399.592350" y="6290.052137" transform="rotate(82.577765 2399.592350 6290.052137)" fill="darkgreen" font-weight="bold" font-size="101.340000">96</text>
<text x="3198.374845" y="2162.268199" transform="rotate(130.593607 3198.374845 2162.268199)" fill="darkgreen" font-weight="bold" font-size="101.340000">97</text>
<text x="3013.681814" y="3921.121653" transform="rotate(9.180784 3013.681814 3921.121653)" fill="darkgreen" font-weight="bold" font-size="101.340000">97</text>
<text x="1641.033470" y="2682.534855" transform="rotate(-69.603017 1641.033470 2682.534855)" fill="darkgreen" font-weight="bold" font-size="101.340000">100</text>
<text x="1717.509341" y="2680.194534" transform="rotate(66.097370 1717.509341 2680.194534)" fill="darkgreen" font-weight="bold" font-size="101.340000">100</text>
<text x="1635.667579" y="3157.261410" transform="rotate(-94.518078 1635.667579 3157.261410)" fill="darkgreen" font-weight="bold" font-size="101.340000">108</text>
<text x="2137.072004" y="2815.246160" transform="rotate(6.375693 2137.072004 2815.246160)" fill="darkgreen" font-weight="bold" font-size="101.340000">108</text>
<text x="2455.762673" y="777.120765" transform="rotate(160.750370 2455.762673 777.120765)" fill="darkgreen" font-weight="bold" font-size="101.340000">110</text>
<text x="1000.313048" y="6811.428744" transform="rotate(67.194491 1000.313048 6811.428744)" fill="darkgreen" font-weight="bold" font-size="101.340000">110</text>
<text x="2667.451289" y="2718.522100" transform="rotate(-42.457755 2667.451289 2718.522100)" fill="darkgreen" font-weight="bold" font-size="101.340000">112</text>
<text x="2570.252534" y="3349.815368" transform="rotate(-119.771009 2570.252534 3349.815368)" fill="darkgreen" font-weight="bold" font-size="101.340000">112</text>
<text x="1604.599303" y="2082.444425" transform="rotate(-72.628700 1604.599303 2082.444425)" fill="darkgreen" font-weight="bold" font-size="101.340000">114</text>
<text x="1744.823848" y="2166.583321" transform="rotate(134.558715 1744.823848 2166.583321)" fill="darkgreen" font-weight="bold" font-size="101.340000">114</text>
<text x="2057.877625" y="6449.624859" transform="rotate(71.693442 2057.877625 6449.624859)" fill="darkgreen" font-weight="bold" font-size="101.340000">122</text>
<text x="1885.699111" y="6470.822404" transform="rotate(-85.730603 1885.699111 6470.822404)" fill="darkgreen" font-weight="bold" font-size="101.340000">122</text>
<text x="2685.783060" y="5840.690121" transform="rotate(-141.446072 2685.783060 5840.690121)" fill="darkgreen" font-weight="bold" font-size="101.340000">125</text>
<text x="3176.071644" y="5402.612585" transform="rotate(-6.714182 3176.071644 5402.612585)" fill="darkgreen" font-weight="bold" font-size="101.340000">125</text>
<text x="4276.692373" y="2433.652569" transform="rotate(-53.744919 4276.692373 2433.652569)" fill="darkgreen" font-weight="bold" font-size="101.340000">126</text>
<text x="3220.430991" y="5222.079234" transform="rotate(-156.356430 3220.430991 5222.079234)" fill="darkgreen" font-weight="bold" font-size="101.340000">126</text>
<text x="2888.792453" y="6354.980010" transform="rotate(-74.420126 2888.792453 6354.980010)" fill="darkgreen" font-weight="bold" font-size="101.340000">129</text>
<text x="4773.760310" y="2095.863407" transform="rotate(-11.557704 4773.760310 2095.863407)" fill="darkgreen" font-weight="bold" font-size="101.340000">129</text>
<text x="2708.507162" y="4003.463179" transform="rotate(-63.445330 2708.507162 4003.463179)" fill="darkgreen" font-weight="bold" font-size="101.340000">133</text>
<text x="3084.406215" y="2477.980737" transform="rotate(69.788891 3084.406215 2477.980737)" fill="darkgreen" font-weight="bold" font-size="101.340000">133</text>
<text x="1451.972576" y="472.166059" transform="rotate(-82.293120 1451.972576 472.166059)" fill="darkgreen" font-weight="bold" font-size="101.340000">137</text>
<text x="1542.251267" y="503.934411" transform="rotate(121.066245 1542.251267 503.934411)" fill="darkgreen" font-weight="bold" font-size="101.340000">137</text>
<text x="1993.624769" y="6810.144123" transform="rotate(143.946291 1993.624769 6810.144123)" fill="darkgreen" font-weight="bold" font-size="101.340000">143</text>
<text x="2297.328294" y="6727.755831" transform="rotate(-54.884503 2297.328294 6727.755831)" fill="darkgreen" font-weight="bold" font-size="101.340000">143</text>
<text x="2331.737209" y="2461.573982" transform="rotate(176.035081 2331.737209 2461.573982)" fill="darkgreen" font-weight="bold" font-size="101.340000">153</text>
<text x="2317.394675" y="2382.319633" transform="rotate(-16.550509 2317.394675 2382.319633)" fill="darkgreen" font-weight="bold" font-size="101.340000">153</text>
<text x="2537.096391" y="2139.830458" transform="rotate(-133.865909 2537.096391 2139.830458)" fill="darkgreen" font-weight="bold" font-size="101.340000">154</text>
<text x="2540.189656" y="2136.789017" transform="rotate(44.833930 2540.189656 2136.789017)" fill="darkgreen" font-weight="bold" font-size="101.340000">154</text>
</svg>
