<?xml version="1.0"?>
<svg width="5929" height="7190" version="1.1" xmlns="http://www.w3.org/2000/svg" >
<path fill="none" style="stroke:black;stroke-width:17.975000;" d=" M 3052 5659.35 L 2944.11 4937.99 M 2617.83 5013.28 L 2203 4944.33 M 2220.07 5398.56 L 2617.83 5013.28 M 1747.22 3294.61 L 1436.33 3416.57 M 2220.68 2919.99 L 2488.36 3490.83 M 3422.16 3095.18 L 2999.56 2097.21 M 4585.57 3988.69 L 3998.58 4170.28 M 4373.06 2993.27 L 4550.6 2447.29 M 4550.6 2447.29 L 3987.84 3373.49 M 2067.28 2325.58 L 2220.68 2919.99 M 3237.31 4803.65 L 3593.55 4406.04 M 1169.16 333.564 L 772.086 413.213 M 811.859 1760.53 L 537.569 1867.11 M 537.569 1867.11 L 981.662 2101.63 M 2999.56 2097.21 L 2640.99 1560.55 M 2652.63 4228.53 L 3002.78 3960.14 M 2622.96 5018.65 L 2220.07 5398.56 M 2339.26 6147.71 L 2626.62 5863.68 M 3002.78 3960.14 L 2724.08 4302.14 M 3616.72 1286.24 L 3211.15 1357.75 M 1436.33 3416.57 L 1468.5 3924.22 M 1468.5 3924.22 L 1853.63 4171.26 M 1841.16 1864.84 L 2067.28 2325.58 M 2432.07 3470.09 L 1996.53 3014.22 M 3554.47 3774.07 L 3623.23 3247.96 M 3623.23 3247.96 L 3157.13 3652.67 M 2181.1 1501.46 L 2027.09 1127.24 M 4408.69 3390.63 L 4373.06 2993.27 M 3593.55 4406.04 L 3281.1 4838.9 M 3617.31 5338.04 L 3861.73 4781.39 M 3998.58 4170.28 L 4485.81 3795.93 M 4959.67 2736.3 L 4678.23 3036.95 M 2362.07 3746.86 L 2432.07 3470.09 M 5454.9 3496.66 L 5733.81 4165.7 M 5733.81 4165.7 L 5929.27 3222.87 M 2027.09 1127.24 L 1704.29 983.443 M 1704.29 983.443 L 1939.95 1450.24 M 2026.98 3896.66 L 2273.9 4227.6 M 4712.51 4764.77 L 5104.88 4349.59 M 5420.27 3495.52 L 5454.1 2996.62 M 1996.53 3014.22 L 1738.48 2856.77 M 3211.15 1357.75 L 2751.06 1324.01 M 1853.63 4171.26 L 2190.04 4276 M 2190.04 4276 L 2026.98 3896.66 M 5257.81 4130.69 L 5079.65 3871.62 M 4143.39 3604.43 L 3635.29 3824.25 M 955.823 1145.93 L 1306.86 1290.01 M 2273.9 4227.6 L 2652.63 4228.53 M 433.271 262.088 L 104.41 0 M 104.41 0 L 0 635.469 M 0 635.469 L 330.65 757.195 M 3987.84 3373.49 L 3607.52 3743.45 M 3607.52 3743.45 L 4143.39 3604.43 M 2127.66 1100.33 L 2181.1 1501.46 M 2432.41 1337.6 L 2127.66 1100.33 M 1158.61 1606.42 L 811.859 1760.53 M 2708.3 5918.57 L 2423.58 6205.25 M 330.65 757.195 L 674.761 1058.75 M 1835.23 4895.54 L 1446.5 5009.13 M 1446.5 5009.13 L 1949.32 5788.45 M 3635.29 3824.25 L 3339.83 4209.94 M 3339.83 4209.94 L 3554.47 3774.07 M 2423.58 6205.25 L 2141.08 6468.08 M 2141.08 6468.08 L 2430.95 7190.82 M 2944.11 4937.99 L 3237.31 4803.65 M 5454.1 2996.62 L 5454.9 3496.66 M 3842.52 1668.29 L 4058.93 1333.13 M 4058.93 1333.13 L 3616.72 1286.24 M 1517.33 1142.31 L 663.736 696.755 M 5079.65 3871.62 L 4585.57 3988.69 M 5104.88 4349.59 L 5404.93 4337.12 M 5404.93 4337.12 L 5257.81 4130.69 M 5334.42 2467.25 L 4959.67 2736.3 M 3438.61 6005.23 L 3617.31 5338.04 M 809.698 2350.25 L 1388.41 2145.47 M 981.662 2101.63 L 809.698 2350.25 M 4678.23 3036.95 L 4408.69 3390.63 M 2203 4944.33 L 1835.23 4895.54 M 1464.5 3116.85 L 1747.22 3294.61 M 1939.95 1450.24 L 1517.33 1142.31 M 1388.77 1901.23 L 1841.16 1864.84 M 772.086 413.213 L 433.271 262.088 M 1722.07 1677.49 L 1158.61 1606.42 M 663.736 696.755 L 1381.35 798.885 M 2430.95 7190.82 L 2751.47 6625.83 M 5143.34 2991.93 L 5651.03 2428.73 M 5651.03 2428.73 L 5334.42 2467.25 M 3130.39 5707.54 L 2708.3 5918.57 M 2073.08 6427.06 L 2339.26 6147.71 M 1949.32 5788.45 L 2073.08 6427.06 M 1738.48 2856.77 L 1285.03 2640.89 M 1285.03 2640.89 L 1464.5 3116.85 M 5729.39 2510.81 L 5143.34 2991.93 M 3157.13 3652.67 L 3422.16 3095.18 M 2640.99 1560.55 L 3285.63 1528.69 M 5929.27 3222.87 L 5831.42 2883.31 M 2488.36 3490.83 L 2362.07 3746.86 M 5053.4 3741.4 L 5420.27 3495.52 M 4881.72 3478 L 5053.4 3741.4 M 2751.47 6625.83 L 3176.38 6382.07 M 3861.73 4781.39 L 4173.8 4915.61 M 2751.06 1324.01 L 2432.41 1337.6 M 2626.62 5863.68 L 3052 5659.35 M 4485.81 3795.93 L 4881.72 3478 M 4173.8 4915.61 L 4397.9 4722.55 M 3281.1 4838.9 L 2996.46 4990.56 M 2996.46 4990.56 L 3130.39 5707.54 M 674.761 1058.75 L 955.823 1145.93 M 3176.38 6382.07 L 3438.61 6005.23 M 1388.41 2145.47 L 1842.59 1906.45 M 1842.59 1906.45 L 1388.77 1901.23 M 5831.42 2883.31 L 5729.39 2510.81 M 1381.35 798.885 L 1421.37 359.059 M 1421.37 359.059 L 1169.16 333.564 M 4397.9 4722.55 L 4712.51 4764.77 M 2724.08 4302.14 L 2366.8 4427.79 M 2366.8 4427.79 L 2622.96 5018.65 M 1306.86 1290.01 L 1722.07 1677.49 M 3285.63 1528.69 L 3842.52 1668.29" />
<path fill="none" style="stroke:#cccccc;stroke-width:8.987500;stroke-dasharray:59.290000, 59.290000;" d=" M 2944.11 4937.99 L 2622.96 5018.65 M 2944.11 4937.99 L 2724.08 4302.14 M 3237.31 4803.65 L 2724.08 4302.14 M 3237.31 4803.65 L 3002.78 3960.14 M 2724.08 4302.14 L 2622.96 5018.65 M 3339.83 4209.94 L 3002.78 3960.14 M 3339.83 4209.94 L 3157.13 3652.67 M 3554.47 3774.07 L 3157.13 3652.67 M 2622.96 5018.65 L 3052 5659.35 M 2622.96 5018.65 L 2626.62 5863.68 M 2220.07 5398.56 L 2626.62 5863.68 M 2220.07 5398.56 L 2339.26 6147.71 M 2220.07 5398.56 L 1949.32 5788.45 M 2220.07 5398.56 L 1835.23 4895.54 M 1835.23 4895.54 L 1949.32 5788.45 M 2220.07 5398.56 L 2203 4944.33 M 3237.31 4803.65 L 3339.83 4209.94 M 3593.55 4406.04 L 3339.83 4209.94 M 3593.55 4406.04 L 3635.29 3824.25 M 3998.58 4170.28 L 3635.29 3824.25 M 3998.58 4170.28 L 4143.39 3604.43 M 4485.81 3795.93 L 4143.39 3604.43 M 4408.69 3390.63 L 4143.39 3604.43 M 3987.84 3373.49 L 4143.39 3604.43 M 4408.69 3390.63 L 3987.84 3373.49 M 1949.32 5788.45 L 2339.26 6147.71 M 4485.81 3795.93 L 4408.69 3390.63 M 4881.72 3478 L 4408.69 3390.63 M 4881.72 3478 L 4678.23 3036.95 M 5143.34 2991.93 L 4678.23 3036.95 M 5143.34 2991.93 L 4959.67 2736.3 M 5143.34 2991.93 L 5334.42 2467.25 M 3593.55 4406.04 L 3998.58 4170.28 M 3861.73 4781.39 L 3998.58 4170.28 M 3593.55 4406.04 L 3861.73 4781.39 M 4173.8 4915.61 L 3998.58 4170.28 M 3593.55 4406.04 L 3617.31 5338.04 M 3281.1 4838.9 L 3617.31 5338.04 M 3281.1 4838.9 L 3438.61 6005.23 M 3130.39 5707.54 L 3438.61 6005.23 M 3130.39 5707.54 L 3176.38 6382.07 M 3281.1 4838.9 L 3130.39 5707.54 M 4397.9 4722.55 L 3998.58 4170.28 M 4397.9 4722.55 L 4585.57 3988.69 M 4712.51 4764.77 L 4585.57 3988.69 M 5104.88 4349.59 L 4585.57 3988.69 M 5104.88 4349.59 L 5079.65 3871.62 M 2708.3 5918.57 L 3176.38 6382.07 M 2708.3 5918.57 L 2751.47 6625.83 M 2423.58 6205.25 L 2751.47 6625.83 M 2423.58 6205.25 L 2430.95 7190.82 M 3157.13 3652.67 L 3002.78 3960.14 M 2362.07 3746.86 L 3002.78 3960.14 M 2362.07 3746.86 L 2652.63 4228.53 M 2362.07 3746.86 L 2273.9 4227.6 M 2362.07 3746.86 L 2026.98 3896.66 M 1747.22 3294.61 L 2026.98 3896.66 M 1436.33 3416.57 L 2026.98 3896.66 M 1853.63 4171.26 L 2026.98 3896.66 M 1436.33 3416.57 L 1853.63 4171.26 M 2362.07 3746.86 L 1747.22 3294.61 M 3157.13 3652.67 L 2362.07 3746.86 M 3157.13 3652.67 L 2488.36 3490.83 M 3422.16 3095.18 L 2488.36 3490.83 M 3422.16 3095.18 L 2220.68 2919.99 M 3422.16 3095.18 L 2067.28 2325.58 M 2999.56 2097.21 L 2067.28 2325.58 M 2640.99 1560.55 L 2067.28 2325.58 M 2640.99 1560.55 L 1841.16 1864.84 M 2181.1 1501.46 L 1841.16 1864.84 M 1939.95 1450.24 L 1841.16 1864.84 M 1722.07 1677.49 L 1841.16 1864.84 M 1939.95 1450.24 L 1722.07 1677.49 M 1517.33 1142.31 L 1722.07 1677.49 M 1517.33 1142.31 L 1306.86 1290.01 M 1517.33 1142.31 L 955.823 1145.93 M 663.736 696.755 L 955.823 1145.93 M 2181.1 1501.46 L 1939.95 1450.24 M 2027.09 1127.24 L 1939.95 1450.24 M 2640.99 1560.55 L 2181.1 1501.46 M 2432.41 1337.6 L 2181.1 1501.46 M 2640.99 1560.55 L 2432.41 1337.6 M 2640.99 1560.55 L 2751.06 1324.01 M 2640.99 1560.55 L 3211.15 1357.75 M 3285.63 1528.69 L 3211.15 1357.75 M 3285.63 1528.69 L 3616.72 1286.24 M 1722.07 1677.49 L 1388.77 1901.23 M 1158.61 1606.42 L 1388.77 1901.23 M 811.859 1760.53 L 1388.77 1901.23 M 811.859 1760.53 L 981.662 2101.63 M 981.662 2101.63 L 1388.77 1901.23 M 1388.41 2145.47 L 1388.77 1901.23 M 2432.07 3470.09 L 1747.22 3294.61 M 1996.53 3014.22 L 1747.22 3294.61 M 1738.48 2856.77 L 1747.22 3294.61 M 1738.48 2856.77 L 1464.5 3116.85 M 663.736 696.755 L 674.761 1058.75 M 663.736 696.755 L 330.65 757.195 M 663.736 696.755 L 433.271 262.088 M 663.736 696.755 L 772.086 413.213 M 663.736 696.755 L 1169.16 333.564 M 433.271 262.088 L 330.65 757.195 M 433.271 262.088 L 0 635.469 M 5104.88 4349.59 L 5257.81 4130.69 M 3842.52 1668.29 L 3616.72 1286.24 M 4373.06 2993.27 L 3987.84 3373.49 M 4881.72 3478 L 5143.34 2991.93 M 5454.1 2996.62 L 5143.34 2991.93 M 5454.1 2996.62 L 5729.39 2510.81 M 4881.72 3478 L 5454.1 2996.62 M 4881.72 3478 L 5420.27 3495.52 M 1381.35 798.885 L 1169.16 333.564 M 5454.1 2996.62 L 5831.42 2883.31 M 5454.9 3496.66 L 5831.42 2883.31 M 5454.9 3496.66 L 5929.27 3222.87 M 981.662 2101.63 L 1388.41 2145.47" />
</svg>
