<?xml version="1.0"?>
<svg width="7027" height="9465" version="1.1" xmlns="http://www.w3.org/2000/svg" >
<path fill="none" style="stroke:black;stroke-width:23.662500;" d=" M 4045.19 6440.85 L 4552.2 6684.36 M 4569.48 6188.39 L 4045.19 6440.85 M 1900.95 6295.02 L 2546.36 6193.7 M 2020.21 5790.51 L 1900.95 6295.02 M 6901.6 1297.01 L 6693.78 740.099 M 4321.85 1704.58 L 3968.91 1829.8 M 4319.06 1989.92 L 4321.85 1704.58 M 4455.12 4686.59 L 4604.64 4237.52 M 2507.65 7888.93 L 2927.32 8276.28 M 4496.12 6702.57 L 3949.47 6570.18 M 3949.47 6570.18 L 4093.3 7082.5 M 363.017 5203.51 L 820.833 5255.25 M 6019.41 4566.62 L 5562.53 4750.41 M 5416.76 5454.09 L 6019.41 4566.62 M 5580.75 6962.7 L 4980.44 6876.66 M 5286.09 7311.2 L 5580.75 6962.7 M 5729.37 5337.78 L 6002.46 4961.16 M 6002.46 4961.16 L 5469.18 5462.32 M 1115.86 8626.49 L 988.096 8921.92 M 1371.04 4629.98 L 1521.62 5322.89 M 5487.01 1879.44 L 5489.37 1490.5 M 5584.14 6934.23 L 5678.53 6186.32 M 5559.86 4080.91 L 5894.63 4062.81 M 5264.72 3606.4 L 4629.28 3497.38 M 5159.19 341.772 L 5016.15 548.689 M 1654.3 5680.7 L 1492.1 5335.27 M 4943.11 2522.25 L 4441.68 1981.19 M 4441.68 1981.19 L 4417.79 2511.08 M 1596.58 3005.14 L 1312.8 2896.75 M 1521.62 5322.89 L 1654.3 5680.7 M 2019.13 5280.29 L 2086.99 4241.67 M 2086.99 4241.67 L 1791.71 4467.64 M 3923.65 6435.82 L 4242.26 5948.89 M 1449.14 8691.82 L 1481.23 9258.55 M 3759.24 1045.14 L 3850.07 559.967 M 3850.07 559.967 L 3219.6 552.665 M 680.869 8650.28 L 284.719 8344.21 M 1884.37 2091.57 L 2577.32 2567.87 M 3711.05 8414.33 L 4209.79 8275.97 M 4209.79 8275.97 L 3925.84 8089.25 M 4123.7 2740.97 L 4487.66 3136.54 M 3702.02 2801.92 L 3332.36 3317.76 M 3243.41 3348.15 L 3650.03 2860.9 M 5678.53 6186.32 L 5729.37 5337.78 M 1587.33 8287.25 L 1965.68 8636.91 M 5004.31 7673.04 L 5286.09 7311.2 M 6338.76 3511.52 L 5881.65 3514.81 M 2823.83 1944.59 L 2175.7 1645.43 M 2175.7 1645.43 L 2512.58 2060.29 M 5894.63 4062.81 L 6398.5 3789.44 M 5562.53 4750.41 L 5271.84 5123.93 M 4093.3 7082.5 L 3924.13 6577.98 M 3924.13 6577.98 L 3727.05 7172.18 M 4238.42 8214.14 L 5001.85 8201.69 M 5001.85 8201.69 L 4559.41 7729.38 M 3650.03 2860.9 L 2923.87 2386.49 M 1312.8 2896.75 L 975.626 3090.64 M 3452.41 1630.2 L 3618.83 1376.11 M 3727.05 7172.18 L 3194.39 7490.3 M 2546.36 6193.7 L 2743.63 5795.1 M 3219.76 6964.27 L 2544.83 6924.18 M 820.833 5255.25 L 1139.63 5602.18 M 3620.82 4488.68 L 3448.81 5241.75 M 3925.84 8089.25 L 3310.23 7823.16 M 4649.35 1766.25 L 4451.7 1972.07 M 4451.7 1972.07 L 4943.11 2522.25 M 1139.63 5602.18 L 1100.01 6227.82 M 3024.96 1037.28 L 2494.1 978.752 M 4980.44 6876.66 L 5584.14 6934.23 M 3754.14 3717.54 L 3989.58 4532.47 M 3998.79 3719.49 L 3754.14 3717.54 M 1705.68 3931.12 L 1608.31 3334.22 M 2923.87 2386.49 L 3675.14 2820.04 M 3675.14 2820.04 L 3675.61 2354.24 M 881.609 6839.6 L 762.4 7325.82 M 2174.34 9347.83 L 1827 8743.28 M 1870.03 9329.68 L 2174.34 9347.83 M 975.626 3090.64 L 774.528 3569.23 M 774.528 3569.23 L 1253.07 3405.76 M 6398.5 3789.44 L 6675.94 3718.89 M 1835.17 6274.77 L 2020.21 5790.51 M 1577.27 6112.23 L 1835.17 6274.77 M 3717.73 7157.07 L 3814.08 6538.49 M 3814.08 6538.49 L 3500.76 6652.71 M 3212.6 5965.74 L 3614.67 6592.88 M 3614.67 6592.88 L 3692.44 5866.33 M 563.371 4033.01 L 1297.55 4025.11 M 1258.84 4665.65 L 1375.03 4360.91 M 3457.62 5187.27 L 3535.01 4418.7 M 3219.6 552.665 L 3024.96 1037.28 M 3993.7 5474.25 L 3699.95 5871.98 M 4666.88 897.479 L 4358.13 1081.67 M 6614.23 1580.42 L 6901.6 1297.01 M 6454.41 1155.99 L 6614.23 1580.42 M 4242.26 5948.89 L 4353.73 5472.61 M 5507.28 965.198 L 5903.37 556.022 M 1220.52 8018.76 L 680.869 8650.28 M 2726.31 6302.16 L 2210.9 6703.63 M 2210.9 6703.63 L 2545.51 6914.01 M 3615.93 4390.47 L 3565.54 3623.67 M 3332.36 3317.76 L 3615.93 4390.47 M 3448.81 5241.75 L 2946.92 5132.58 M 3130.79 5493.97 L 2778.26 5834.99 M 3003.68 6264.7 L 2739.57 5857.62 M 2739.57 5857.62 L 2726.31 6302.16 M 2927.32 8276.28 L 3711.05 8414.33 M 6053.66 3046.38 L 5589.41 3706.4 M 5218.12 6199.59 L 5137.56 5623.42 M 5137.56 5623.42 L 5416.76 5454.09 M 2686.46 7541.98 L 2380.77 7441.21 M 2380.77 7441.21 L 2507.65 7888.93 M 3044.73 2935.11 L 2869.15 3298.53 M 7027.54 3295.55 L 6338.76 3511.52 M 6675.94 3718.89 L 7027.54 3295.55 M 1297.55 4025.11 L 573.436 4146.52 M 358.74 9031.72 L 643.218 9465.74 M 643.218 9465.74 L 741.716 8903.19 M 3529.03 1562.11 L 4004.75 2174.6 M 741.716 8903.19 L 1115.86 8626.49 M 3500.76 6652.71 L 3212.6 5965.74 M 5016.15 548.689 L 4666.88 897.479 M 4888.52 5817.6 L 4569.48 6188.39 M 2743.63 5795.1 L 3130.79 5493.97 M 5325.6 2562.08 L 5137.27 1634.16 M 2314.04 8406.16 L 1667.74 7972.78 M 2378.13 4260.96 L 2477.6 5284.77 M 2677.7 4620.58 L 2378.13 4260.96 M 6693.78 740.099 L 6294.66 0 M 3699.95 5871.98 L 3633.16 6599.63 M 3633.16 6599.63 L 3923.65 6435.82 M 2712.38 7255.95 L 2686.46 7541.98 M 1350.57 7852.58 L 1377.39 7514.47 M 3716.1 1322.8 L 3529.03 1562.11 M 3968.91 1829.8 L 3716.1 1322.8 M 5102.32 4367.33 L 5559.86 4080.91 M 5489.37 1490.5 L 5761.07 1354.63 M 5761.07 1354.63 L 5507.28 965.198 M 1492.1 5335.27 L 1258.84 4665.65 M 1212.49 9101.18 L 1449.14 8691.82 M 988.096 8921.92 L 1212.49 9101.18 M 1481.23 9258.55 L 1870.03 9329.68 M 2494.1 978.752 L 2823.83 1944.59 M 3618.83 1376.11 L 3759.24 1045.14 M 4004.75 2174.6 L 3452.41 1630.2 M 3723.3 3727.09 L 3620.82 4488.68 M 3989.58 4532.47 L 3723.3 3727.09 M 1100.01 6227.82 L 844.941 6510.03 M 4030.08 3403.78 L 4372.3 3217.56 M 4372.3 3217.56 L 4123.7 2740.97 M 5589.41 3706.4 L 5264.72 3606.4 M 3194.39 7490.3 L 3717.73 7157.07 M 2426.95 3075.69 L 2388.02 4252.95 M 2614.63 3895.04 L 2426.95 3075.69 M 10.679 8440.22 L 358.74 9031.72 M 1377.39 7514.47 L 1342.45 6737.1 M 5980.08 47.5628 L 6305.71 573.124 M 6294.66 0 L 5980.08 47.5628 M 5980.23 1607.68 L 6315.76 2110.86 M 6561.88 2663.1 L 6794.89 2373.35 M 284.719 8344.21 L 0 8174.22 M 0 8174.22 L 10.679 8440.22 M 762.4 7325.82 L 1220.52 8018.76 M 2946.92 5132.58 L 3457.62 5187.27 M 1375.03 4360.91 L 1705.68 3931.12 M 1253.07 3405.76 L 932.585 3833.99 M 6230.63 2646.4 L 6561.88 2663.1 M 6315.76 2110.86 L 6230.63 2646.4 M 6189.89 2559.38 L 6053.66 3046.38 M 6375.8 3060.91 L 6189.89 2559.38 M 4417.79 2511.08 L 4319.06 1989.92 M 573.436 4146.52 L 753.684 4845.5 M 3565.54 3623.67 L 3804.02 3569.09 M 4985.41 3925.22 L 4653.46 4945.32 M 4653.46 4945.32 L 5102.32 4367.33 M 5511.6 969.333 L 5809.69 1326 M 5903.37 556.022 L 5511.6 969.333 M 2869.15 3298.53 L 2647.14 2903.08 M 2647.14 2903.08 L 2450.38 3064.47 M 2477.6 5284.77 L 2285.76 4274.19 M 2285.76 4274.19 L 2019.13 5280.29 M 3050.48 4582.71 L 2614.63 3895.04 M 3693.76 2336.19 L 3702.02 2801.92 M 4552.2 6684.36 L 4669.79 7141.76 M 6305.71 573.124 L 5952.1 65.9666 M 5137.27 1634.16 L 5410.53 2540.71 M 2629.8 3885.66 L 3050.48 4582.71 M 2512.58 2060.29 L 2155.56 1662.64 M 2155.56 1662.64 L 1884.37 2091.57 M 1342.45 6737.1 L 1577.27 6112.23 M 3675.61 2354.24 L 3095.1 1752.44 M 5017.81 6455.31 L 5218.12 6199.59 M 844.941 6510.03 L 881.609 6839.6 M 3942.26 8047.47 L 4238.42 8214.14 M 2577.32 2567.87 L 3044.73 2935.11 M 281.105 3673.45 L 563.371 4033.01 M 932.585 3833.99 L 281.105 3673.45 M 5271.84 5123.93 L 4888.52 5817.6 M 5537.78 2999.93 L 5846.19 2254.25 M 5846.19 2254.25 L 5487.01 1879.44 M 2544.83 6924.18 L 2269.03 7420.31 M 2269.03 7420.31 L 2712.38 7255.95 M 5050.36 8151.04 L 5004.31 7673.04 M 4559.41 7729.38 L 5050.36 8151.04 M 1827 8743.28 L 1587.33 8287.25 M 2450.38 3064.47 L 2629.8 3885.66 M 2388.02 4252.95 L 2677.7 4620.58 M 2538.11 9034.96 L 2314.04 8406.16 M 1965.68 8636.91 L 2538.11 9034.96 M 6794.89 2373.35 L 6262.21 1322.78 M 5114.26 2984.73 L 5452 3021.53 M 5452 3021.53 L 5325.6 2562.08 M 4353.73 5472.61 L 4455.12 4686.59 M 2545.51 6914.01 L 3219.76 6964.27 M 4629.28 3497.38 L 4255.75 3608.15 M 4255.75 3608.15 L 3998.79 3719.49 M 2778.26 5834.99 L 3003.68 6264.7 M 3535.01 4418.7 L 3243.41 3348.15 M 3804.02 3569.09 L 4030.08 3403.78 M 6262.21 1322.78 L 6454.41 1155.99 M 1667.74 7972.78 L 1350.57 7852.58 M 5239.67 6218.05 L 5017.81 6455.31 M 5694.42 326.041 L 5159.19 341.772 M 4669.79 7141.76 L 4496.12 6702.57 M 4358.13 1081.67 L 4295.13 1644.69 M 4295.13 1644.69 L 4649.35 1766.25 M 5952.1 65.9666 L 5694.42 326.041 M 3310.23 7823.16 L 3942.26 8047.47 M 5809.69 1326 L 5980.23 1607.68 M 5881.65 3514.81 L 6375.8 3060.91 M 4604.64 4237.52 L 4985.41 3925.22 M 753.684 4845.5 L 364.552 4456.38 M 364.552 4456.38 L 363.017 5203.51 M 3095.1 1752.44 L 3693.76 2336.19 M 5410.53 2540.71 L 5537.78 2999.93 M 4487.66 3136.54 L 5114.26 2984.73 M 1608.31 3334.22 L 1596.58 3005.14 M 3692.44 5866.33 L 3993.7 5474.25 M 1491.39 4326.86 L 1371.04 4629.98 M 1791.71 4467.64 L 1491.39 4326.86 M 5193.98 5638.07 L 5239.67 6218.05 M 5469.18 5462.32 L 5193.98 5638.07" />
<path fill="none" style="stroke:#cccccc;stroke-width:11.831250;stroke-dasharray:70.270000, 70.270000;" d=" M 4552.2 6684.36 L 4569.48 6188.39 M 4552.2 6684.36 L 4888.52 5817.6 M 4552.2 6684.36 L 5017.81 6455.31 M 5017.81 6455.31 L 4888.52 5817.6 M 4552.2 6684.36 L 4980.44 6876.66 M 5218.12 6199.59 L 4888.52 5817.6 M 4980.44 6876.66 L 5017.81 6455.31 M 5584.14 6934.23 L 5017.81 6455.31 M 5584.14 6934.23 L 5239.67 6218.05 M 4669.79 7141.76 L 4980.44 6876.66 M 4669.79 7141.76 L 5004.31 7673.04 M 4559.41 7729.38 L 5004.31 7673.04 M 5678.53 6186.32 L 5239.67 6218.05 M 5729.37 5337.78 L 5239.67 6218.05 M 4669.79 7141.76 L 4559.41 7729.38 M 4093.3 7082.5 L 4559.41 7729.38 M 3727.05 7172.18 L 4559.41 7729.38 M 4669.79 7141.76 L 4093.3 7082.5 M 4496.12 6702.57 L 4093.3 7082.5 M 3727.05 7172.18 L 4238.42 8214.14 M 3727.05 7172.18 L 3942.26 8047.47 M 3727.05 7172.18 L 3310.23 7823.16 M 3194.39 7490.3 L 3310.23 7823.16 M 3194.39 7490.3 L 2686.46 7541.98 M 3194.39 7490.3 L 2712.38 7255.95 M 3194.39 7490.3 L 3219.76 6964.27 M 3717.73 7157.07 L 3219.76 6964.27 M 3500.76 6652.71 L 3219.76 6964.27 M 3212.6 5965.74 L 3219.76 6964.27 M 3212.6 5965.74 L 3003.68 6264.7 M 3212.6 5965.74 L 2778.26 5834.99 M 3003.68 6264.7 L 3219.76 6964.27 M 2726.31 6302.16 L 3219.76 6964.27 M 3212.6 5965.74 L 3130.79 5493.97 M 3448.81 5241.75 L 3130.79 5493.97 M 2946.92 5132.58 L 3130.79 5493.97 M 2946.92 5132.58 L 2743.63 5795.1 M 2477.6 5284.77 L 2743.63 5795.1 M 2946.92 5132.58 L 2477.6 5284.77 M 2020.21 5790.51 L 2743.63 5795.1 M 2477.6 5284.77 L 2020.21 5790.51 M 2946.92 5132.58 L 2677.7 4620.58 M 2477.6 5284.77 L 2019.13 5280.29 M 2946.92 5132.58 L 3050.48 4582.71 M 3050.48 4582.71 L 2677.7 4620.58 M 2020.21 5790.51 L 2546.36 6193.7 M 2677.7 4620.58 L 2477.6 5284.77 M 3212.6 5965.74 L 3448.81 5241.75 M 3692.44 5866.33 L 3448.81 5241.75 M 3212.6 5965.74 L 3692.44 5866.33 M 2019.13 5280.29 L 2020.21 5790.51 M 2019.13 5280.29 L 1654.3 5680.7 M 2019.13 5280.29 L 1521.62 5322.89 M 2019.13 5280.29 L 1791.71 4467.64 M 1791.71 4467.64 L 1521.62 5322.89 M 1654.3 5680.7 L 2020.21 5790.51 M 3717.73 7157.07 L 3500.76 6652.71 M 3993.7 5474.25 L 3448.81 5241.75 M 3993.7 5474.25 L 3620.82 4488.68 M 3993.7 5474.25 L 3989.58 4532.47 M 3993.7 5474.25 L 4353.73 5472.61 M 4353.73 5472.61 L 3989.58 4532.47 M 3993.7 5474.25 L 4242.26 5948.89 M 4455.12 4686.59 L 3989.58 4532.47 M 4455.12 4686.59 L 4255.75 3608.15 M 4604.64 4237.52 L 4255.75 3608.15 M 4604.64 4237.52 L 4629.28 3497.38 M 4985.41 3925.22 L 4629.28 3497.38 M 3457.62 5187.27 L 3050.48 4582.71 M 3535.01 4418.7 L 3050.48 4582.71 M 3243.41 3348.15 L 3050.48 4582.71 M 3989.58 4532.47 L 3620.82 4488.68 M 3243.41 3348.15 L 2869.15 3298.53 M 3243.41 3348.15 L 3044.73 2935.11 M 3650.03 2860.9 L 3044.73 2935.11 M 2923.87 2386.49 L 3044.73 2935.11 M 2923.87 2386.49 L 2577.32 2567.87 M 2512.58 2060.29 L 2577.32 2567.87 M 2869.15 3298.53 L 3050.48 4582.71 M 1654.3 5680.7 L 1577.27 6112.23 M 1654.3 5680.7 L 1139.63 5602.18 M 1492.1 5335.27 L 1139.63 5602.18 M 2614.63 3895.04 L 2677.7 4620.58 M 2726.31 6302.16 L 2545.51 6914.01 M 2614.63 3895.04 L 2388.02 4252.95 M 1139.63 5602.18 L 1577.27 6112.23 M 1100.01 6227.82 L 1577.27 6112.23 M 1100.01 6227.82 L 1342.45 6737.1 M 844.941 6510.03 L 1342.45 6737.1 M 881.609 6839.6 L 1342.45 6737.1 M 881.609 6839.6 L 1377.39 7514.47 M 762.4 7325.82 L 1377.39 7514.47 M 762.4 7325.82 L 1350.57 7852.58 M 1220.52 8018.76 L 1350.57 7852.58 M 1587.33 8287.25 L 1350.57 7852.58 M 1587.33 8287.25 L 1667.74 7972.78 M 1587.33 8287.25 L 2314.04 8406.16 M 1220.52 8018.76 L 1587.33 8287.25 M 1449.14 8691.82 L 1587.33 8287.25 M 1449.14 8691.82 L 1827 8743.28 M 1220.52 8018.76 L 1449.14 8691.82 M 1220.52 8018.76 L 1115.86 8626.49 M 1115.86 8626.49 L 1449.14 8691.82 M 1481.23 9258.55 L 1827 8743.28 M 988.096 8921.92 L 1449.14 8691.82 M 753.684 4845.5 L 1139.63 5602.18 M 2923.87 2386.49 L 2512.58 2060.29 M 2923.87 2386.49 L 2823.83 1944.59 M 2923.87 2386.49 L 3675.61 2354.24 M 3675.61 2354.24 L 2823.83 1944.59 M 3095.1 1752.44 L 2823.83 1944.59 M 3095.1 1752.44 L 2494.1 978.752 M 3095.1 1752.44 L 3452.41 1630.2 M 3095.1 1752.44 L 4004.75 2174.6 M 3693.76 2336.19 L 4004.75 2174.6 M 3693.76 2336.19 L 4123.7 2740.97 M 3452.41 1630.2 L 2494.1 978.752 M 3452.41 1630.2 L 3024.96 1037.28 M 3618.83 1376.11 L 3024.96 1037.28 M 3618.83 1376.11 L 3219.6 552.665 M 3759.24 1045.14 L 3219.6 552.665 M 1492.1 5335.27 L 753.684 4845.5 M 1258.84 4665.65 L 753.684 4845.5 M 1258.84 4665.65 L 573.436 4146.52 M 1375.03 4360.91 L 573.436 4146.52 M 1375.03 4360.91 L 1297.55 4025.11 M 1705.68 3931.12 L 1297.55 4025.11 M 1608.31 3334.22 L 1297.55 4025.11 M 1608.31 3334.22 L 1253.07 3405.76 M 1253.07 3405.76 L 1297.55 4025.11 M 932.585 3833.99 L 1297.55 4025.11 M 4123.7 2740.97 L 4004.75 2174.6 M 4123.7 2740.97 L 4417.79 2511.08 M 4487.66 3136.54 L 4417.79 2511.08 M 4417.79 2511.08 L 4004.75 2174.6 M 5114.26 2984.73 L 4417.79 2511.08 M 4943.11 2522.25 L 4417.79 2511.08 M 5114.26 2984.73 L 4943.11 2522.25 M 4319.06 1989.92 L 4004.75 2174.6 M 5325.6 2562.08 L 4943.11 2522.25 M 5137.27 1634.16 L 4943.11 2522.25 M 4649.35 1766.25 L 4943.11 2522.25 M 5137.27 1634.16 L 4649.35 1766.25 M 5137.27 1634.16 L 4666.88 897.479 M 5137.27 1634.16 L 5016.15 548.689 M 5507.28 965.198 L 5016.15 548.689 M 5507.28 965.198 L 5159.19 341.772 M 5507.28 965.198 L 5694.42 326.041 M 5903.37 556.022 L 5694.42 326.041 M 5903.37 556.022 L 5952.1 65.9666 M 5903.37 556.022 L 6305.71 573.124 M 6454.41 1155.99 L 6305.71 573.124 M 6454.41 1155.99 L 6693.78 740.099 M 6693.78 740.099 L 6305.71 573.124 M 6294.66 0 L 6305.71 573.124 M 5903.37 556.022 L 6454.41 1155.99 M 5137.27 1634.16 L 5507.28 965.198 M 5137.27 1634.16 L 5489.37 1490.5 M 5137.27 1634.16 L 5487.01 1879.44 M 5489.37 1490.5 L 5507.28 965.198 M 6454.41 1155.99 L 6901.6 1297.01 M 5114.26 2984.73 L 5325.6 2562.08 M 3968.91 1829.8 L 4004.75 2174.6 M 3968.91 1829.8 L 3529.03 1562.11 M 4666.88 897.479 L 4649.35 1766.25 M 4358.13 1081.67 L 4649.35 1766.25 M 680.869 8650.28 L 1115.86 8626.49 M 680.869 8650.28 L 741.716 8903.19 M 358.74 9031.72 L 741.716 8903.19 M 2512.58 2060.29 L 1884.37 2091.57 M 1791.71 4467.64 L 1371.04 4629.98 M 4093.3 7082.5 L 3727.05 7172.18 M 3219.76 6964.27 L 2712.38 7255.95 M 2544.83 6924.18 L 2712.38 7255.95 M 5903.37 556.022 L 6262.21 1322.78 M 5809.69 1326 L 6262.21 1322.78 M 5903.37 556.022 L 5809.69 1326 M 5980.23 1607.68 L 6262.21 1322.78 M 680.869 8650.28 L 358.74 9031.72 M 284.719 8344.21 L 358.74 9031.72 M 1870.03 9329.68 L 1827 8743.28 M 4985.41 3925.22 L 5264.72 3606.4 M 5559.86 4080.91 L 5264.72 3606.4 M 4985.41 3925.22 L 5559.86 4080.91 M 4985.41 3925.22 L 5102.32 4367.33 M 5559.86 4080.91 L 5589.41 3706.4 M 5559.86 4080.91 L 5881.65 3514.81 M 5881.65 3514.81 L 5589.41 3706.4 M 5881.65 3514.81 L 6053.66 3046.38 M 6375.8 3060.91 L 6053.66 3046.38 M 2869.15 3298.53 L 2629.8 3885.66 M 5004.31 7673.04 L 4980.44 6876.66 M 5286.09 7311.2 L 4980.44 6876.66 M 2686.46 7541.98 L 3310.23 7823.16 M 2927.32 8276.28 L 3310.23 7823.16 M 3711.05 8414.33 L 3310.23 7823.16 M 3711.05 8414.33 L 3925.84 8089.25 M 2686.46 7541.98 L 2927.32 8276.28 M 2686.46 7541.98 L 2507.65 7888.93 M 5894.63 4062.81 L 5881.65 3514.81 M 5894.63 4062.81 L 6338.76 3511.52 M 1577.27 6112.23 L 2020.21 5790.51 M 932.585 3833.99 L 563.371 4033.01 M 5729.37 5337.78 L 5469.18 5462.32 M 4255.75 3608.15 L 3989.58 4532.47 M 3998.79 3719.49 L 3989.58 4532.47 M 6398.5 3789.44 L 6338.76 3511.52 M 6675.94 3718.89 L 6338.76 3511.52 M 3702.02 2801.92 L 4123.7 2740.97 M 3702.02 2801.92 L 4030.08 3403.78 M 3702.02 2801.92 L 3804.02 3569.09 M 3702.02 2801.92 L 3565.54 3623.67 M 3332.36 3317.76 L 3565.54 3623.67 M 4030.08 3403.78 L 4123.7 2740.97 M 5410.53 2540.71 L 5487.01 1879.44 M 5537.78 2999.93 L 5487.01 1879.44 M 3993.7 5474.25 L 3923.65 6435.82 M 3699.95 5871.98 L 3923.65 6435.82 M 2869.15 3298.53 L 2450.38 3064.47 M 5469.18 5462.32 L 5239.67 6218.05 M 5137.56 5623.42 L 4888.52 5817.6 M 5137.56 5623.42 L 5271.84 5123.93 M 5416.76 5454.09 L 5271.84 5123.93 M 1596.58 3005.14 L 1253.07 3405.76 M 1312.8 2896.75 L 1253.07 3405.76 M 975.626 3090.64 L 1253.07 3405.76 M 6315.76 2110.86 L 6262.21 1322.78 M 6315.76 2110.86 L 6794.89 2373.35 M 6315.76 2110.86 L 6561.88 2663.1 M 5416.76 5454.09 L 5562.53 4750.41 M 2823.83 1944.59 L 2512.58 2060.29 M 4319.06 1989.92 L 3968.91 1829.8 M 1965.68 8636.91 L 2314.04 8406.16 M 4238.42 8214.14 L 4559.41 7729.38 M 753.684 4845.5 L 820.833 5255.25 M 753.684 4845.5 L 363.017 5203.51 M 3003.68 6264.7 L 2726.31 6302.16 M 284.719 8344.21 L 10.679 8440.22" />
</svg>
