<?xml version="1.0"?>
<svg width="11445" height="9662" version="1.1" xmlns="http://www.w3.org/2000/svg" >
<path fill="none" style="stroke:black;stroke-width:28.612500;" d=" M 3608.5 4322.81 L 3246.42 4309.14 M 2376.6 2297.94 L 1896.25 2473.57 M 11004.3 9120.8 L 11394.5 8730.46 M 11394.5 8730.46 L 10973.3 8510.98 M 3916.4 1606.96 L 3826.7 1995.53 M 3715.11 4296.13 L 3773.14 4754.23 M 4070.15 3528.04 L 3853.35 2941.68 M 2082.34 925.261 L 2195.72 700.914 M 6888.61 3156.78 L 7475.1 2971.62 M 7475.1 2971.62 L 7135.02 2862.8 M 7003.67 9662.67 L 7529.08 9534.75 M 5000.74 6990.47 L 4710.4 6464.45 M 4710.4 6464.45 L 4209.39 6804.43 M 2724.79 295.188 L 2577.59 574.179 M 8343.73 7914.35 L 8077.82 7574.91 M 7847.67 8043.72 L 8343.73 7914.35 M 5839.38 1805.34 L 6030.63 1879.39 M 2371.22 1133.53 L 2082.34 925.261 M 2603.29 1047.15 L 2773.95 1797.72 M 8942.91 8549.32 L 8398.1 8231.78 M 8398.1 8231.78 L 8404.67 8492.29 M 7398.7 4385.76 L 6491.59 4487.21 M 6491.59 4487.21 L 7342.95 4902.7 M 3853.35 2941.68 L 4363.42 3303.13 M 8404.67 8492.29 L 8219.06 8309.38 M 5515.43 199.804 L 5263.8 458.356 M 9240.18 5521.55 L 8962.96 5419.69 M 9245.24 7650.85 L 9133.62 8180.37 M 9133.62 8180.37 L 9403.1 7947.64 M 3826.7 1995.53 L 4061.67 2454.89 M 2733.5 2184.34 L 2376.6 2297.94 M 2424.98 2133.3 L 2791.07 2054.18 M 7758.29 5335.02 L 7924.79 5060.7 M 4982.22 4928.92 L 4992.11 4628.68 M 2876.91 770.414 L 2984.83 356.863 M 2984.83 356.863 L 2724.79 295.188 M 4923.24 3875.26 L 4551.51 3963.47 M 4551.51 3963.47 L 4432.42 4233.28 M 3521.39 1252.4 L 3194.96 1721.38 M 3473.37 1746 L 3521.39 1252.4 M 7529.08 9534.75 L 7898.77 9142.94 M 4422.35 5054.39 L 4559.73 5344.7 M 2401.59 753.648 L 2603.29 1047.15 M 3773.14 4754.23 L 3608.5 4322.81 M 7958.87 7261.13 L 8319.68 7339.05 M 5401.67 7160.53 L 5485.46 6251.62 M 5485.46 6251.62 L 5003.73 6539.39 M 7470.84 9146.66 L 7288.97 8837 M 3229.29 5488.34 L 3637.3 5875.66 M 3670.87 3995.08 L 3715.11 4296.13 M 5926.24 2634.62 L 6200 2758.31 M 6224.51 1537.21 L 5770.77 1301.23 M 1885.33 2357.62 L 2381.01 2231.59 M 2381.01 2231.59 L 1916.22 1964.67 M 1185.96 3562.45 L 1685.23 2953.59 M 7013.61 5741.14 L 7756.52 5900.8 M 4080.02 4016.34 L 4070.15 3528.04 M 4953.45 6044.36 L 4888.97 5626.76 M 5003.73 6539.39 L 5441.64 6188.52 M 8319.68 7339.05 L 7955.73 7277.42 M 6690.42 5293.56 L 6917.85 5150.01 M 6000.26 4946.01 L 6690.42 5293.56 M 10208.4 7954.34 L 10065.9 8193.16 M 10415.8 8267.39 L 10208.4 7954.34 M 638.421 740.846 L 1291.32 861.381 M 0 974.624 L 638.421 740.846 M 446.176 265.619 L 0 974.624 M 9682.57 7388.13 L 9324.69 7342.46 M 9403.1 7947.64 L 9668.24 7756.52 M 3286.97 4717.02 L 3360.09 5131.95 M 2577.59 574.179 L 2401.59 753.648 M 6061.3 244.068 L 5515.43 199.804 M 1916.15 564.993 L 1478.88 270.637 M 6107.01 9144.39 L 6338.23 9540.82 M 5547.01 1040.61 L 5604.23 793.744 M 9598.98 9115.97 L 10131.9 9592.51 M 10131.9 9592.51 L 10190 9024.07 M 6917.85 5150.01 L 7656.62 5641.97 M 5770.77 1301.23 L 5547.01 1040.61 M 2279.04 4966.73 L 2865.87 5166.41 M 1478.88 270.637 L 962.848 425.215 M 5965.17 2313.51 L 5182.82 2494.28 M 5182.82 2494.28 L 5926.24 2634.62 M 6852.38 7245.95 L 7191.58 7379.88 M 4897.49 5295.15 L 4560.11 5363.97 M 4888.97 5626.76 L 4897.49 5295.15 M 9374.29 5902.5 L 9681.9 6380.69 M 6566.91 3075.85 L 6888.61 3156.78 M 6874.76 7588.97 L 6508.45 7533.38 M 4501.91 1642.57 L 4215.99 1211.75 M 4215.99 1211.75 L 3916.4 1606.96 M 3371.41 3415.19 L 3141.92 3179.27 M 9799.79 6156.37 L 9620.74 5863.22 M 9681.9 6380.69 L 9799.79 6156.37 M 5381.47 2226.93 L 4844.7 2098.43 M 7218.08 6552.07 L 6706.78 6811.18 M 8908.25 7758.2 L 8849.85 7439.12 M 4102.51 2200.72 L 4501.91 1642.57 M 5784.92 6724.2 L 6534.85 7011.84 M 6339.04 8228.32 L 6661.41 7952.99 M 9261.93 9142.9 L 9598.98 9115.97 M 4690.71 5807.6 L 4559.39 6090.48 M 2791.07 2054.18 L 3191.98 2309.33 M 3645.96 3375.26 L 3670.87 3995.08 M 7912.02 6925.64 L 7747.64 6498.35 M 7756.79 6494.94 L 7912.02 6925.64 M 8179.24 6513.59 L 7756.79 6494.94 M 3008.19 2926.05 L 3459.57 2843.49 M 2724.3 2649.5 L 3008.19 2926.05 M 1896.25 2473.57 L 1762.81 3087.91 M 7747.64 6498.35 L 7218.08 6552.07 M 1658.16 18.8085 L 1916.15 564.993 M 2041.68 0 L 1658.16 18.8085 M 5428.87 5960.23 L 4914.13 5623.65 M 4914.13 5623.65 L 4953.45 6044.36 M 4844.7 2098.43 L 4537.29 2197.01 M 6459.85 2991.68 L 6753.07 2728.9 M 7924.79 5060.7 L 7700.68 4683.22 M 10892 8180.19 L 10729.7 8565.46 M 7343.11 8811.02 L 7470.84 9146.66 M 2308.92 1757.11 L 2371.22 1133.53 M 5830.52 650.226 L 5631.47 829.628 M 5631.47 829.628 L 6231.9 863.769 M 9658.63 6394.88 L 9374.29 5902.5 M 9111.23 6145.83 L 9658.63 6394.88 M 4190.94 5936.22 L 4110.43 6711.95 M 4501.64 6055.63 L 4690.71 5807.6 M 2921.12 3656.07 L 2616.06 3704.54 M 7207.16 7965.37 L 7508.3 8231.13 M 9886.18 7577.5 L 9682.57 7388.13 M 9121.09 4491.91 L 8545.61 4486.39 M 6479.28 6060.22 L 6457.9 6328.31 M 6896.09 6324.84 L 6479.28 6060.22 M 9593.63 8802.37 L 9293.71 8488.26 M 4741.29 3612.57 L 4944.39 3273.58 M 4363.42 3303.13 L 4741.29 3612.57 M 4124.7 5412.03 L 4557.69 5345.65 M 4557.69 5345.65 L 4422.35 5054.39 M 3733.51 6054.23 L 4101.65 6710.99 M 4101.65 6710.99 L 4190.94 5936.22 M 1232.89 1048.17 L 1220.46 852.851 M 4782.81 6430.56 L 5000.74 6990.47 M 1220.46 852.851 L 556.725 836.626 M 556.725 836.626 L 1014.99 1490.26 M 4209.39 6804.43 L 4514.48 7288.44 M 8090.6 6395.9 L 8594.7 6108.48 M 8003.59 5081.47 L 7777.44 5309.14 M 7777.44 5309.14 L 8135.4 5594.04 M 8077.82 7574.91 L 8386.11 7876.38 M 8182.8 4767.67 L 8390.56 4589.77 M 8390.56 4589.77 L 7897.9 4655.39 M 9059.87 6863.08 L 8851.43 7438.83 M 9324.69 7342.46 L 9059.87 6863.08 M 7629.23 7749.97 L 7847.67 8043.72 M 5189.09 2872.56 L 5181.97 2490.57 M 4444.98 2765.05 L 5189.09 2872.56 M 4432.42 4233.28 L 4508.51 3948.34 M 4508.51 3948.34 L 4154.92 4168 M 7391.55 6877.71 L 6540.8 7045.49 M 6540.8 7045.49 L 6852.38 7245.95 M 6438.11 2231.42 L 6777.66 2260.48 M 6777.66 2260.48 L 6389.71 1988.41 M 9908.6 8044.79 L 9886.18 7577.5 M 3635.51 2110.34 L 3473.37 1746 M 8506.87 5187.06 L 8775.85 5766.93 M 1014.99 1490.26 L 1117.57 1764.7 M 6750.67 8516.53 L 7207.16 7965.37 M 7070.79 2378.88 L 6559.39 2642.86 M 6340.95 8379.48 L 5910.76 8396.3 M 7239.23 7576.51 L 6874.76 7588.97 M 4560.11 5363.97 L 4124.7 5412.03 M 8996.27 8808.09 L 9261.93 9142.9 M 5827.18 1853.54 L 5440.04 1977.95 M 11046.4 9440.88 L 11004.3 9120.8 M 10823 9349.5 L 11046.4 9440.88 M 8594.7 6108.48 L 8179.24 6513.59 M 6534.85 7011.84 L 7391.55 6877.71 M 3127.05 4179.94 L 3474.76 4281.86 M 3474.76 4281.86 L 3503.02 3978.89 M 4992.11 4628.68 L 4923.24 3875.26 M 8421.47 9211.03 L 8035.11 8746.71 M 7898.77 9142.94 L 8421.47 9211.03 M 10238.3 8692.1 L 9593.63 8802.37 M 6231.9 863.769 L 6061.3 244.068 M 5441.64 6188.52 L 5428.87 5960.23 M 1173.07 2183.29 L 1502.16 2104.35 M 1502.16 2104.35 L 1387.66 1491.48 M 8849.85 7439.12 L 8963.91 6837.52 M 8963.91 6837.52 L 8692.09 6753.53 M 7562.28 2452.78 L 7070.79 2378.88 M 7191.58 7379.88 L 7958.87 7261.13 M 4110.43 6711.95 L 4648.84 6434.98 M 4648.84 6434.98 L 4501.64 6055.63 M 3144.34 3176.94 L 3371.41 3415.19 M 3459.57 2843.49 L 3144.34 3176.94 M 7832.01 8054.74 L 7629.23 7749.97 M 4720.03 7662.86 L 4925.92 7848.64 M 962.848 425.215 L 446.176 265.619 M 7508.3 8231.13 L 7198.55 7975.46 M 7198.55 7975.46 L 6805.75 8573.68 M 5181.97 2490.57 L 5965.17 2313.51 M 5296.82 1261.51 L 5651.09 1483.47 M 10694.3 9138.5 L 10683.4 9546.3 M 10683.4 9546.3 L 10823 9349.5 M 10190 9024.07 L 10694.3 9138.5 M 8343.19 8015.92 L 7832.01 8054.74 M 8219.06 8309.38 L 8343.19 8015.92 M 1994.02 3631.82 L 2264.26 3031.76 M 7955.73 7277.42 L 7239.23 7576.51 M 6389.71 1988.41 L 6518.99 1559.88 M 6518.99 1559.88 L 6224.51 1537.21 M 4559.73 5344.7 L 4895.22 5267.17 M 4895.22 5267.17 L 4982.22 4928.92 M 10973.3 8510.98 L 11445.1 8456.23 M 11445.1 8456.23 L 11215.1 8344.28 M 2865.87 5166.41 L 3286.97 4717.02 M 3246.42 4309.14 L 2645.72 4492.13 M 7897.9 4655.39 L 8003.59 5081.47 M 4559.39 6090.48 L 4782.81 6430.56 M 6443.25 6319.58 L 5784.92 6724.2 M 6268.51 6629.23 L 6443.25 6319.58 M 6030.63 1879.39 L 5827.18 1853.54 M 5213.19 8073.89 L 5374.38 8595.19 M 5374.38 8595.19 L 5908.93 8209.78 M 8775.85 5766.93 L 8451.3 5216.24 M 8801.13 9322.32 L 8818.15 9007.34 M 8417.82 8715.62 L 8801.13 9322.32 M 7135.02 2862.8 L 7480.45 2772.39 M 7480.45 2772.39 L 7562.28 2452.78 M 3194.96 1721.38 L 3114.46 1011.04 M 6805.75 8573.68 L 7343.11 8811.02 M 5263.8 458.356 L 5236.24 832.871 M 2543.45 3163.91 L 2724.3 2649.5 M 2264.26 3031.76 L 2543.45 3163.91 M 8851.43 7438.83 L 8908.25 7758.2 M 4378.2 2778.94 L 4359.95 2523.65 M 8962.96 5419.69 L 9118.91 5000.12 M 11215.1 8344.28 L 10892 8180.19 M 1762.81 3087.91 L 1274 3705.2 M 1274 3705.2 L 1994.02 3631.82 M 1291.32 861.381 L 1232.89 1048.17 M 2861.43 5233.38 L 3229.29 5488.34 M 1387.66 1491.48 L 1658.95 1279.64 M 8135.4 5594.04 L 7758.29 5335.02 M 5786.2 8920.94 L 6107.01 9144.39 M 6744.31 8616.94 L 6340.95 8379.48 M 7700.68 4683.22 L 7626.09 4361.85 M 7626.09 4361.85 L 7398.7 4385.76 M 8035.11 8746.71 L 8417.82 8715.62 M 1245.03 2499.8 L 1097.03 3057.11 M 6753.07 2728.9 L 6566.91 3075.85 M 7696.34 6243.04 L 8090.6 6395.9 M 1097.03 3057.11 L 1039.88 3392.15 M 1039.88 3392.15 L 1185.96 3562.45 M 2773.95 1797.72 L 2382.79 1134.8 M 2382.79 1134.8 L 2308.92 1757.11 M 4666.92 1810.2 L 4102.51 2200.72 M 4537.29 2197.01 L 4666.92 1810.2 M 5440.04 1977.95 L 5381.47 2226.93 M 8545.61 4486.39 L 8358.4 4685.8 M 1658.95 1279.64 L 1401.76 1508.38 M 1401.76 1508.38 L 1586.04 2104 M 6200 2758.31 L 6459.85 2991.68 M 8451.3 5216.24 L 8182.8 4767.67 M 5908.93 8209.78 L 6339.04 8228.32 M 3325.8 5177.64 L 3257.61 4761.87 M 3257.61 4761.87 L 2861.43 5233.38 M 10510.8 8639.78 L 10238.3 8692.1 M 6847.98 5276.03 L 7013.61 5741.14 M 7656.62 5641.97 L 6847.98 5276.03 M 5604.23 793.744 L 5830.52 650.226 M 6338.23 9540.82 L 7003.67 9662.67 M 6706.78 6811.18 L 7197.62 6515.14 M 3706.7 2080.43 L 3747.76 2277.84 M 4061.67 2454.89 L 3706.7 2080.43 M 6661.41 7952.99 L 6363.04 8254.16 M 6363.04 8254.16 L 6750.67 8516.53 M 9475 8020.11 L 9908.6 8044.79 M 9668.24 7756.52 L 9475 8020.11 M 7756.52 5900.8 L 7007.35 5773.68 M 9293.71 8488.26 L 8942.91 8549.32 M 4514.48 7288.44 L 4720.03 7662.86 M 6450.86 4583.91 L 6000.26 4946.01 M 5236.24 832.871 L 5296.82 1261.51 M 7197.62 6515.14 L 6896.09 6324.84 M 6559.39 2642.86 L 6438.11 2231.42 M 4359.95 2523.65 L 4444.98 2765.05 M 1586.04 2104 L 1254.99 2174.23 M 1254.99 2174.23 L 1245.03 2499.8 M 7288.97 8837 L 6744.31 8616.94 M 2195.72 700.914 L 2041.68 0 M 3747.76 2277.84 L 3635.51 2110.34 M 9118.91 5000.12 L 8738.73 4717.31 M 9021.37 8143.53 L 9245.24 7650.85 M 8738.73 4717.31 L 9020.56 4908.9 M 9020.56 4908.9 L 9121.09 4491.91 M 10729.7 8565.46 L 10415.8 8267.39 M 1916.22 1964.67 L 2424.98 2133.3 M 8358.4 4685.8 L 8506.87 5187.06 M 3360.09 5131.95 L 3883.58 5560.57 M 6457.9 6328.31 L 6268.51 6629.23 M 3503.02 3978.89 L 3645.96 3375.26 M 8818.15 9007.34 L 8996.27 8808.09 M 5713.39 7647.35 L 5401.67 7160.53 M 3114.46 1011.04 L 2876.91 770.414 M 8386.11 7876.38 L 8392.87 8194.95 M 6508.45 7533.38 L 5713.39 7647.35 M 2645.72 4492.13 L 1949.83 4691.03 M 1949.83 4691.03 L 2279.04 4966.73 M 1685.23 2953.59 L 1885.33 2357.62 M 8975.84 6774.16 L 9111.23 6145.83 M 8692.09 6753.53 L 8975.84 6774.16 M 4925.92 7848.64 L 5213.19 8073.89 M 2747.64 3139.12 L 2921.12 3656.07 M 3141.92 3179.27 L 2747.64 3139.12 M 4944.39 3273.58 L 4378.2 2778.94 M 5910.76 8396.3 L 5401.03 8813.97 M 5401.03 8813.97 L 5786.2 8920.94 M 1117.57 1764.7 L 1173.07 2183.29 M 7007.35 5773.68 L 7189.61 6080.13 M 7189.61 6080.13 L 7696.34 6243.04 M 10065.9 8193.16 L 9625.39 8350.58 M 9625.39 8350.58 L 10245.5 8558.78 M 5433.98 1773.64 L 5839.38 1805.34 M 5651.09 1483.47 L 5433.98 1773.64 M 10245.5 8558.78 L 10510.8 8639.78 M 4154.92 4168 L 4448.08 3872.47 M 4448.08 3872.47 L 4080.02 4016.34 M 3191.98 2309.33 L 2733.5 2184.34 M 3883.58 5560.57 L 3325.8 5177.64 M 3637.3 5875.66 L 3733.51 6054.23 M 2616.06 3704.54 L 2524.34 4356.22 M 2524.34 4356.22 L 3127.05 4179.94 M 9620.74 5863.22 L 9240.18 5521.55 M 7342.95 4902.7 L 6450.86 4583.91 M 8392.87 8194.95 L 9021.37 8143.53" />
<path fill="none" style="stroke:#cccccc;stroke-width:14.306250;stroke-dasharray:114.450000, 114.450000;" d=" M 3286.97 4717.02 L 3608.5 4322.81 M 3286.97 4717.02 L 3773.14 4754.23 M 3360.09 5131.95 L 3773.14 4754.23 M 3360.09 5131.95 L 4124.7 5412.03 M 4124.7 5412.03 L 3773.14 4754.23 M 4124.7 5412.03 L 4422.35 5054.39 M 4422.35 5054.39 L 3773.14 4754.23 M 4422.35 5054.39 L 4432.42 4233.28 M 4432.42 4233.28 L 3773.14 4754.23 M 4992.11 4628.68 L 4432.42 4233.28 M 4154.92 4168 L 3773.14 4754.23 M 4422.35 5054.39 L 4992.11 4628.68 M 4154.92 4168 L 3715.11 4296.13 M 4422.35 5054.39 L 4982.22 4928.92 M 4559.73 5344.7 L 4982.22 4928.92 M 4432.42 4233.28 L 4154.92 4168 M 3883.58 5560.57 L 4124.7 5412.03 M 4190.94 5936.22 L 4124.7 5412.03 M 3883.58 5560.57 L 4190.94 5936.22 M 3883.58 5560.57 L 3637.3 5875.66 M 3883.58 5560.57 L 3229.29 5488.34 M 3325.8 5177.64 L 3229.29 5488.34 M 4190.94 5936.22 L 4560.11 5363.97 M 4888.97 5626.76 L 4560.11 5363.97 M 4080.02 4016.34 L 3715.11 4296.13 M 4080.02 4016.34 L 3670.87 3995.08 M 4070.15 3528.04 L 3670.87 3995.08 M 4070.15 3528.04 L 3645.96 3375.26 M 3853.35 2941.68 L 3645.96 3375.26 M 3853.35 2941.68 L 3459.57 2843.49 M 3459.57 2843.49 L 3645.96 3375.26 M 4061.67 2454.89 L 3459.57 2843.49 M 3371.41 3415.19 L 3645.96 3375.26 M 3459.57 2843.49 L 3371.41 3415.19 M 3747.76 2277.84 L 3459.57 2843.49 M 4061.67 2454.89 L 3747.76 2277.84 M 3191.98 2309.33 L 3459.57 2843.49 M 3747.76 2277.84 L 3191.98 2309.33 M 3635.51 2110.34 L 3191.98 2309.33 M 3853.35 2941.68 L 4061.67 2454.89 M 3853.35 2941.68 L 4378.2 2778.94 M 4378.2 2778.94 L 4061.67 2454.89 M 4363.42 3303.13 L 4378.2 2778.94 M 4359.95 2523.65 L 4061.67 2454.89 M 4359.95 2523.65 L 4102.51 2200.72 M 4102.51 2200.72 L 4061.67 2454.89 M 4359.95 2523.65 L 4537.29 2197.01 M 4537.29 2197.01 L 4102.51 2200.72 M 4102.51 2200.72 L 3826.7 1995.53 M 4359.95 2523.65 L 4844.7 2098.43 M 4102.51 2200.72 L 3916.4 1606.96 M 4501.91 1642.57 L 3916.4 1606.96 M 2724.3 2649.5 L 3459.57 2843.49 M 3371.41 3415.19 L 3503.02 3978.89 M 3127.05 4179.94 L 3503.02 3978.89 M 3371.41 3415.19 L 3127.05 4179.94 M 3191.98 2309.33 L 2724.3 2649.5 M 5181.97 2490.57 L 4844.7 2098.43 M 3371.41 3415.19 L 2921.12 3656.07 M 2733.5 2184.34 L 2724.3 2649.5 M 2376.6 2297.94 L 2724.3 2649.5 M 2376.6 2297.94 L 2264.26 3031.76 M 2264.26 3031.76 L 2724.3 2649.5 M 5181.97 2490.57 L 5381.47 2226.93 M 3141.92 3179.27 L 2921.12 3656.07 M 3194.96 1721.38 L 3191.98 2309.33 M 3194.96 1721.38 L 2791.07 2054.18 M 3194.96 1721.38 L 2773.95 1797.72 M 3114.46 1011.04 L 2773.95 1797.72 M 3114.46 1011.04 L 2603.29 1047.15 M 2876.91 770.414 L 2603.29 1047.15 M 2876.91 770.414 L 2401.59 753.648 M 2876.91 770.414 L 2577.59 574.179 M 2773.95 1797.72 L 2791.07 2054.18 M 2773.95 1797.72 L 2424.98 2133.3 M 2308.92 1757.11 L 2424.98 2133.3 M 2308.92 1757.11 L 1916.22 1964.67 M 2308.92 1757.11 L 1658.95 1279.64 M 2371.22 1133.53 L 1658.95 1279.64 M 1658.95 1279.64 L 1916.22 1964.67 M 1586.04 2104 L 1916.22 1964.67 M 1658.95 1279.64 L 1586.04 2104 M 2082.34 925.261 L 1658.95 1279.64 M 1885.33 2357.62 L 1916.22 1964.67 M 2082.34 925.261 L 1916.15 564.993 M 1916.15 564.993 L 1658.95 1279.64 M 1232.89 1048.17 L 1658.95 1279.64 M 1916.15 564.993 L 1232.89 1048.17 M 1916.15 564.993 L 1291.32 861.381 M 2921.12 3656.07 L 3127.05 4179.94 M 2616.06 3704.54 L 3127.05 4179.94 M 2773.95 1797.72 L 2308.92 1757.11 M 2195.72 700.914 L 1916.15 564.993 M 5965.17 2313.51 L 5381.47 2226.93 M 5965.17 2313.51 L 5440.04 1977.95 M 4363.42 3303.13 L 4944.39 3273.58 M 3246.42 4309.14 L 3286.97 4717.02 M 3246.42 4309.14 L 2865.87 5166.41 M 2645.72 4492.13 L 2865.87 5166.41 M 3635.51 2110.34 L 3194.96 1721.38 M 3473.37 1746 L 3194.96 1721.38 M 2041.68 0 L 1916.15 564.993 M 4923.24 3875.26 L 4432.42 4233.28 M 3325.8 5177.64 L 2861.43 5233.38 M 4190.94 5936.22 L 4888.97 5626.76 M 4690.71 5807.6 L 4888.97 5626.76 M 4190.94 5936.22 L 4690.71 5807.6 M 4190.94 5936.22 L 4501.64 6055.63 M 4110.43 6711.95 L 4501.64 6055.63 M 4559.39 6090.48 L 4888.97 5626.76 M 4559.39 6090.48 L 4953.45 6044.36 M 1478.88 270.637 L 1291.32 861.381 M 962.848 425.215 L 1291.32 861.381 M 4782.81 6430.56 L 4953.45 6044.36 M 4782.81 6430.56 L 5441.64 6188.52 M 4782.81 6430.56 L 5003.73 6539.39 M 5441.64 6188.52 L 4953.45 6044.36 M 5000.74 6990.47 L 5003.73 6539.39 M 5000.74 6990.47 L 5401.67 7160.53 M 4720.03 7662.86 L 5401.67 7160.53 M 5000.74 6990.47 L 4720.03 7662.86 M 5000.74 6990.47 L 4514.48 7288.44 M 5000.74 6990.47 L 4209.39 6804.43 M 4925.92 7848.64 L 5401.67 7160.53 M 4925.92 7848.64 L 5713.39 7647.35 M 5213.19 8073.89 L 5713.39 7647.35 M 5908.93 8209.78 L 5713.39 7647.35 M 5401.67 7160.53 L 5003.73 6539.39 M 5908.93 8209.78 L 6508.45 7533.38 M 6339.04 8228.32 L 6508.45 7533.38 M 6661.41 7952.99 L 6508.45 7533.38 M 6661.41 7952.99 L 6874.76 7588.97 M 6661.41 7952.99 L 7239.23 7576.51 M 6661.41 7952.99 L 7207.16 7965.37 M 7207.16 7965.37 L 7239.23 7576.51 M 7629.23 7749.97 L 7239.23 7576.51 M 7207.16 7965.37 L 7629.23 7749.97 M 7508.3 8231.13 L 7629.23 7749.97 M 7508.3 8231.13 L 7832.01 8054.74 M 7508.3 8231.13 L 7343.11 8811.02 M 7508.3 8231.13 L 6805.75 8573.68 M 6661.41 7952.99 L 6750.67 8516.53 M 7343.11 8811.02 L 7832.01 8054.74 M 8035.11 8746.71 L 7832.01 8054.74 M 7343.11 8811.02 L 8035.11 8746.71 M 8219.06 8309.38 L 7832.01 8054.74 M 8035.11 8746.71 L 8219.06 8309.38 M 7343.11 8811.02 L 7898.77 9142.94 M 7470.84 9146.66 L 7898.77 9142.94 M 7470.84 9146.66 L 7529.08 9534.75 M 8035.11 8746.71 L 8404.67 8492.29 M 8417.82 8715.62 L 8404.67 8492.29 M 8417.82 8715.62 L 8942.91 8549.32 M 8996.27 8808.09 L 8942.91 8549.32 M 8996.27 8808.09 L 9293.71 8488.26 M 9261.93 9142.9 L 9293.71 8488.26 M 9598.98 9115.97 L 9293.71 8488.26 M 9598.98 9115.97 L 9593.63 8802.37 M 9598.98 9115.97 L 10190 9024.07 M 10190 9024.07 L 9593.63 8802.37 M 10190 9024.07 L 10238.3 8692.1 M 10190 9024.07 L 10510.8 8639.78 M 10694.3 9138.5 L 10510.8 8639.78 M 10694.3 9138.5 L 10729.7 8565.46 M 10694.3 9138.5 L 11004.3 9120.8 M 10694.3 9138.5 L 10823 9349.5 M 10823 9349.5 L 11004.3 9120.8 M 10729.7 8565.46 L 10510.8 8639.78 M 10415.8 8267.39 L 10510.8 8639.78 M 10415.8 8267.39 L 10245.5 8558.78 M 10415.8 8267.39 L 10065.9 8193.16 M 8942.91 8549.32 L 8404.67 8492.29 M 11004.3 9120.8 L 10729.7 8565.46 M 11004.3 9120.8 L 10973.3 8510.98 M 10973.3 8510.98 L 10729.7 8565.46 M 10973.3 8510.98 L 10892 8180.19 M 10973.3 8510.98 L 11215.1 8344.28 M 7629.23 7749.97 L 7955.73 7277.42 M 8077.82 7574.91 L 7955.73 7277.42 M 7629.23 7749.97 L 8077.82 7574.91 M 7847.67 8043.72 L 8077.82 7574.91 M 8077.82 7574.91 L 8319.68 7339.05 M 8386.11 7876.38 L 8319.68 7339.05 M 8386.11 7876.38 L 8849.85 7439.12 M 8386.11 7876.38 L 8908.25 7758.2 M 8849.85 7439.12 L 8319.68 7339.05 M 8692.09 6753.53 L 8319.68 7339.05 M 8849.85 7439.12 L 8692.09 6753.53 M 7912.02 6925.64 L 8319.68 7339.05 M 7912.02 6925.64 L 7958.87 7261.13 M 7912.02 6925.64 L 7191.58 7379.88 M 7391.55 6877.71 L 7191.58 7379.88 M 7391.55 6877.71 L 6852.38 7245.95 M 8692.09 6753.53 L 7912.02 6925.64 M 8179.24 6513.59 L 7912.02 6925.64 M 8692.09 6753.53 L 8179.24 6513.59 M 8692.09 6753.53 L 8594.7 6108.48 M 9111.23 6145.83 L 8594.7 6108.48 M 9111.23 6145.83 L 8775.85 5766.93 M 8775.85 5766.93 L 8594.7 6108.48 M 9111.23 6145.83 L 9374.29 5902.5 M 8135.4 5594.04 L 8594.7 6108.48 M 8135.4 5594.04 L 7756.52 5900.8 M 7656.62 5641.97 L 7756.52 5900.8 M 7756.52 5900.8 L 8594.7 6108.48 M 7756.52 5900.8 L 8090.6 6395.9 M 7756.52 5900.8 L 7696.34 6243.04 M 7007.35 5773.68 L 7696.34 6243.04 M 8135.4 5594.04 L 7656.62 5641.97 M 7758.29 5335.02 L 7656.62 5641.97 M 7758.29 5335.02 L 6917.85 5150.01 M 7342.95 4902.7 L 6917.85 5150.01 M 9374.29 5902.5 L 8775.85 5766.93 M 9374.29 5902.5 L 8962.96 5419.69 M 8962.96 5419.69 L 8775.85 5766.93 M 8962.96 5419.69 L 8506.87 5187.06 M 9118.91 5000.12 L 8506.87 5187.06 M 9374.29 5902.5 L 9240.18 5521.55 M 9374.29 5902.5 L 9620.74 5863.22 M 7656.62 5641.97 L 7013.61 5741.14 M 8775.85 5766.93 L 8135.4 5594.04 M 6450.86 4583.91 L 6917.85 5150.01 M 6000.26 4946.01 L 6917.85 5150.01 M 8451.3 5216.24 L 8135.4 5594.04 M 8451.3 5216.24 L 8003.59 5081.47 M 8003.59 5081.47 L 8135.4 5594.04 M 8692.09 6753.53 L 9111.23 6145.83 M 7758.29 5335.02 L 7342.95 4902.7 M 7924.79 5060.7 L 7342.95 4902.7 M 7912.02 6925.64 L 7391.55 6877.71 M 7747.64 6498.35 L 7391.55 6877.71 M 7218.08 6552.07 L 7391.55 6877.71 M 6706.78 6811.18 L 7391.55 6877.71 M 6706.78 6811.18 L 6534.85 7011.84 M 6706.78 6811.18 L 6268.51 6629.23 M 7197.62 6515.14 L 6268.51 6629.23 M 6896.09 6324.84 L 6268.51 6629.23 M 6896.09 6324.84 L 6457.9 6328.31 M 8182.8 4767.67 L 8003.59 5081.47 M 8182.8 4767.67 L 7897.9 4655.39 M 8392.87 8194.95 L 8908.25 7758.2 M 9021.37 8143.53 L 8908.25 7758.2 M 9245.24 7650.85 L 8908.25 7758.2 M 8738.73 4717.31 L 8506.87 5187.06 M 5213.19 8073.89 L 5908.93 8209.78 M 1586.04 2104 L 1885.33 2357.62 M 1586.04 2104 L 1245.03 2499.8 M 2876.91 770.414 L 2724.79 295.188 M 7470.84 9146.66 L 7003.67 9662.67 M 7288.97 8837 L 7003.67 9662.67 M 7288.97 8837 L 6338.23 9540.82 M 6744.31 8616.94 L 6338.23 9540.82 M 6744.31 8616.94 L 6107.01 9144.39 M 6340.95 8379.48 L 6107.01 9144.39 M 6340.95 8379.48 L 5786.2 8920.94 M 5910.76 8396.3 L 5786.2 8920.94 M 5428.87 5960.23 L 4953.45 6044.36 M 5965.17 2313.51 L 5827.18 1853.54 M 5965.17 2313.51 L 6030.63 1879.39 M 5965.17 2313.51 L 6389.71 1988.41 M 6438.11 2231.42 L 6389.71 1988.41 M 5965.17 2313.51 L 6438.11 2231.42 M 5926.24 2634.62 L 6438.11 2231.42 M 6200 2758.31 L 6438.11 2231.42 M 5965.17 2313.51 L 5926.24 2634.62 M 6389.71 1988.41 L 6030.63 1879.39 M 6224.51 1537.21 L 6030.63 1879.39 M 6389.71 1988.41 L 6224.51 1537.21 M 5770.77 1301.23 L 6030.63 1879.39 M 6200 2758.31 L 6559.39 2642.86 M 5770.77 1301.23 L 5839.38 1805.34 M 6459.85 2991.68 L 6559.39 2642.86 M 6753.07 2728.9 L 6559.39 2642.86 M 6753.07 2728.9 L 7070.79 2378.88 M 7135.02 2862.8 L 7070.79 2378.88 M 6753.07 2728.9 L 7135.02 2862.8 M 6566.91 3075.85 L 7135.02 2862.8 M 6888.61 3156.78 L 7135.02 2862.8 M 5770.77 1301.23 L 5651.09 1483.47 M 5770.77 1301.23 L 5296.82 1261.51 M 5547.01 1040.61 L 5296.82 1261.51 M 5547.01 1040.61 L 5236.24 832.871 M 5547.01 1040.61 L 5263.8 458.356 M 5604.23 793.744 L 5263.8 458.356 M 5604.23 793.744 L 5515.43 199.804 M 4359.95 2523.65 L 5181.97 2490.57 M 9245.24 7650.85 L 8851.43 7438.83 M 9245.24 7650.85 L 9324.69 7342.46 M 9324.69 7342.46 L 8851.43 7438.83 M 9245.24 7650.85 L 9403.1 7947.64 M 9403.1 7947.64 L 9324.69 7342.46 M 9668.24 7756.52 L 9324.69 7342.46 M 9668.24 7756.52 L 9682.57 7388.13 M 9668.24 7756.52 L 9886.18 7577.5 M 9668.24 7756.52 L 9908.6 8044.79 M 8738.73 4717.31 L 8358.4 4685.8 M 8738.73 4717.31 L 8545.61 4486.39 M 8738.73 4717.31 L 9121.09 4491.91 M 1232.89 1048.17 L 1387.66 1491.48 M 1232.89 1048.17 L 1014.99 1490.26 M 1014.99 1490.26 L 1387.66 1491.48 M 1220.46 852.851 L 1014.99 1490.26 M 1117.57 1764.7 L 1387.66 1491.48 M 1173.07 2183.29 L 1387.66 1491.48 M 7700.68 4683.22 L 7342.95 4902.7 M 7398.7 4385.76 L 7342.95 4902.7 M 7700.68 4683.22 L 7398.7 4385.76 M 10065.9 8193.16 L 10245.5 8558.78 M 7135.02 2862.8 L 7562.28 2452.78 M 9681.9 6380.69 L 9620.74 5863.22 M 7898.77 9142.94 L 8035.11 8746.71 M 1896.25 2473.57 L 2264.26 3031.76 M 1762.81 3087.91 L 2264.26 3031.76 M 1762.81 3087.91 L 1994.02 3631.82 M 1245.03 2499.8 L 1885.33 2357.62 M 1245.03 2499.8 L 1685.23 2953.59 M 1097.03 3057.11 L 1685.23 2953.59 M 5651.09 1483.47 L 5839.38 1805.34 M 4154.92 4168 L 4080.02 4016.34 M 6268.51 6629.23 L 6534.85 7011.84 M 6268.51 6629.23 L 5784.92 6724.2 M 2645.72 4492.13 L 2279.04 4966.73 M 8417.82 8715.62 L 8996.27 8808.09 M 8417.82 8715.62 L 8818.15 9007.34 M 4444.98 2765.05 L 5181.97 2490.57 M 3637.3 5875.66 L 4190.94 5936.22 M 3733.51 6054.23 L 4190.94 5936.22 M 962.848 425.215 L 638.421 740.846 M 446.176 265.619 L 638.421 740.846 M 5830.52 650.226 L 5515.43 199.804 M 5830.52 650.226 L 6061.3 244.068 M 5830.52 650.226 L 6231.9 863.769 M 1097.03 3057.11 L 1185.96 3562.45" />
</svg>
