<?xml version="1.0"?>
<svg width="7599" height="8628" version="1.1" xmlns="http://www.w3.org/2000/svg" >
<path fill="none" style="stroke:black;stroke-width:21.570000;" d=" M 1854.77 2979.8 L 2103.83 3238.17 M 1415.27 3645.19 L 1704.07 4020.92 M 1704.07 4020.92 L 1602.89 3624.92 M 3199.89 1959.73 L 3467.19 2333.56 M 4652.73 5003.66 L 5177.87 4936.71 M 4255.42 2829.4 L 4224.43 3757.75 M 928.942 3590.99 L 1276.65 4029.53 M 1090.58 3242.57 L 928.942 3590.99 M 5338.65 3333.16 L 5529.04 3187.02 M 5529.04 3187.02 L 5120.83 2782.59 M 5307.77 8629.61 L 5649.98 7947.05 M 4952.76 8187.3 L 5307.77 8629.61 M 5644.37 6136.17 L 5779.61 5115.16 M 3669.68 6136.22 L 3389.02 5924.96 M 5000.06 3031.69 L 5139.71 3759.29 M 3626.66 3401.07 L 3427.89 3594.32 M 3427.89 3594.32 L 3909.46 3983.22 M 2103.83 3238.17 L 2424 2906.35 M 5820.67 5121.44 L 5644.37 6136.17 M 4006.81 5015.08 L 4243.44 5306.02 M 3292.54 1270.78 L 3470.63 261.042 M 3470.63 261.042 L 3060.09 468.305 M 3060.09 468.305 L 2912.07 1269.57 M 5649.98 7947.05 L 5694.41 7431.39 M 4149.36 3880.05 L 3972.17 2968.23 M 5569.62 4665.43 L 5470.7 5303.82 M 5470.7 5303.82 L 5496.35 4658.32 M 6441.45 5364.14 L 6407.8 4798.2 M 6217.56 5508.16 L 6441.45 5364.14 M 1402.19 2774.02 L 1699.36 2191.87 M 1388.11 2042.17 L 1402.19 2774.02 M 1250.63 1412.91 L 1066.88 2282.59 M 3390.48 3629.97 L 3581.72 3429.26 M 6146.02 1129.63 L 6508.9 1828.83 M 6508.9 1828.83 L 6462.41 1363.86 M 7207.57 3857.11 L 6942.46 3480.3 M 2108.94 628.908 L 2021.06 1282.95 M 5496.35 4658.32 L 5471.2 3960.98 M 5305.82 6252.07 L 4945.41 6457.08 M 2771.48 5336.93 L 2765.31 5847.92 M 3389.02 5924.96 L 2771.48 5336.93 M 6907.85 4899.57 L 7160.72 4325.94 M 2235.87 1987.99 L 2219.53 2350.63 M 6302.56 4695.96 L 6155.41 4224.51 M 4583.98 7880.05 L 4952.76 8187.3 M 3116.18 5135.65 L 2680.35 4711.98 M 4224.43 3757.75 L 4695.13 4386.98 M 4982.63 3035.25 L 5102.09 2785.52 M 5771.12 3997.36 L 5569.62 4665.43 M 6480.04 3010.13 L 6438.38 2522.95 M 6258.62 3259.59 L 6480.04 3010.13 M 4172.7 2200.51 L 4255.42 2829.4 M 6632.85 3502.21 L 6585.22 4257.22 M 3997.4 1460.17 L 4327.28 1693.86 M 3968.99 5409.46 L 4254.67 6060.18 M 4243.44 5306.02 L 3968.99 5409.46 M 3785.54 7183.67 L 4163.28 7522.58 M 3363.95 6929.62 L 3706.21 7164.9 M 3706.21 7164.9 L 3905.86 6498.02 M 5779.61 5115.16 L 6302.56 4695.96 M 5962.53 6675.94 L 5997.26 6158.16 M 4299.71 1728.57 L 3997.4 1460.17 M 4040.48 2190.5 L 4299.71 1728.57 M 2713.01 3506.42 L 2817.62 2766 M 4681.27 2026.45 L 4771.67 1594.78 M 6068.64 2717.27 L 6258.62 3259.59 M 4893.23 2255.13 L 4589.61 2374.96 M 5102.09 2785.52 L 4893.23 2255.13 M 0 3269.08 L 626.964 3675.43 M 400.898 3029.22 L 0 3269.08 M 5115.06 5360.76 L 4673.49 5109.1 M 4673.49 5109.1 L 4997.54 5665.51 M 4714.23 1201.05 L 4933.96 822.06 M 4933.96 822.06 L 4618.57 814.25 M 803.724 3900.61 L 1019.01 4431.9 M 3972.17 2968.23 L 3794.06 2359.45 M 3794.06 2359.45 L 3560.78 2617.44 M 4029.08 6.29364 L 4167.57 709.905 M 4540.98 164.505 L 4029.08 6.29364 M 4327.28 1693.86 L 4172.7 2200.51 M 4378.79 6763.04 L 4907.53 6410.38 M 4907.53 6410.38 L 4411.72 6314.84 M 4935.54 6456.5 L 4378.79 6763.04 M 4920.57 6796.3 L 4935.54 6456.5 M 4695.13 4386.98 L 5043.89 4288.83 M 6301.95 3262.46 L 6632.85 3502.21 M 6515.05 3005.86 L 6301.95 3262.46 M 4945.41 6457.08 L 4920.57 6796.3 M 3560.78 2617.44 L 3626.66 3401.07 M 2518.99 1526.15 L 2608.1 716.216 M 2608.1 716.216 L 2108.94 628.908 M 6964.88 2434.25 L 7038.94 2735.97 M 7515.3 2466.01 L 6964.88 2434.25 M 4884.85 6018.82 L 4928.48 6423.94 M 4928.48 6423.94 L 5305.82 6252.07 M 3302.53 1248.99 L 3713.69 1450.68 M 7599.99 2840.65 L 7515.3 2466.01 M 5890.25 3366.86 L 5771.12 3997.36 M 3891 3994.16 L 3390.48 3629.97 M 3086.06 6531.53 L 3363.95 6929.62 M 7322.9 415.203 L 6882.5 537.967 M 2765.31 5847.92 L 3086.06 6531.53 M 6876.72 1866.42 L 7089.59 1003.41 M 6938.84 2441.86 L 6492.89 1836.91 M 4997.54 5665.51 L 4673.14 5109.3 M 4673.14 5109.3 L 4884.85 6018.82 M 1675 4041.57 L 1415.27 3645.19 M 4710.35 4430.3 L 4149.36 3880.05 M 5177.87 4936.71 L 4675.91 5104.9 M 4675.91 5104.9 L 5115.06 5360.76 M 6407.8 4798.2 L 5820.67 5121.44 M 2680.35 4711.98 L 2140.12 4633.59 M 7160.72 4325.94 L 7207.57 3857.11 M 4508.43 7791.03 L 4830.1 7217.46 M 4163.28 7522.58 L 4508.43 7791.03 M 4618.57 814.25 L 4540.98 164.505 M 2912.07 1269.57 L 2854.64 2067.9 M 5120.83 2782.59 L 5000.06 3031.69 M 4692.39 5936.66 L 4652.73 5003.66 M 6155.41 4224.51 L 6365.23 4671.6 M 5139.71 3759.29 L 4982.63 3035.25 M 6585.22 4257.22 L 6473.18 3509.05 M 6473.18 3509.05 L 6121.2 3301.5 M 1699.36 2191.87 L 1416.84 2781.26 M 6101.66 2148.2 L 6068.64 2717.27 M 5499.27 6613.62 L 5704.81 7428.84 M 5704.81 7428.84 L 5962.53 6675.94 M 6524.1 1827.06 L 6876.72 1866.42 M 6492.89 1836.91 L 6146.02 1129.63 M 7423.63 1067.39 L 7322.9 415.203 M 7089.59 1003.41 L 7423.63 1067.39 M 6731.63 1285.88 L 6203.01 716.014 M 2219.53 2350.63 L 2053.45 2027.84 M 2817.62 2766 L 2934.52 3504.58 M 6462.41 1363.86 L 6524.1 1827.06 M 2040.33 5050.15 L 2414.84 5106.69 M 7038.94 2735.97 L 6938.84 2441.86 M 4167.57 709.905 L 3701.16 862.024 M 2750.63 4045.97 L 2713.01 3506.42 M 2269.53 3788.02 L 2750.63 4045.97 M 4411.72 6314.84 L 3849.04 5880.74 M 6438.38 2522.95 L 6515.05 3005.86 M 3909.46 3983.22 L 4330.8 4715.09 M 2021.06 1282.95 L 2235.87 1987.99 M 655.453 2903.99 L 1090.58 3242.57 M 2414.84 5106.69 L 2814.28 5289.95 M 2814.28 5289.95 L 3406.94 5903.06 M 3724.43 5493.14 L 3432.81 5659.39 M 2140.12 4633.59 L 1562.69 4417 M 1562.69 4417 L 1657.66 4739.45 M 6942.46 3480.3 L 6850.83 3022.2 M 1276.65 4029.53 L 889.192 3625.68 M 3539.32 251.382 L 3302.53 1248.99 M 1602.89 3624.92 L 1363.63 2773.74 M 3406.94 5903.06 L 3669.68 6136.22 M 2854.64 2067.9 L 3199.89 1959.73 M 3713.69 1450.68 L 3292.54 1270.78 M 5471.2 3960.98 L 5338.65 3333.16 M 1657.66 4739.45 L 1848.98 5100.63 M 1848.98 5100.63 L 2040.33 5050.15 M 3581.72 3429.26 L 3494.31 2647.74 M 1587.94 1456.42 L 1250.63 1412.91 M 5997.26 6158.16 L 6217.56 5508.16 M 4254.67 6060.18 L 4672.53 6343.64 M 4672.53 6343.64 L 4692.39 5936.66 M 2934.52 3504.58 L 3103.06 4018.51 M 626.964 3675.43 L 803.724 3900.61 M 4852.81 2268.5 L 4681.27 2026.45 M 4543.33 2372.29 L 4852.81 2268.5 M 1416.84 2781.26 L 1641.57 3636.39 M 1641.57 3636.39 L 1643.8 3300.25 M 5694.41 7431.39 L 5499.27 6613.62 M 3905.86 6498.02 L 3785.54 7183.67 M 889.192 3625.68 L 400.898 3029.22 M 5770.86 1082.57 L 5936.42 1444.39 M 5899.99 663.955 L 5770.86 1082.57 M 4589.61 2374.96 L 4503.18 3470.93 M 1643.8 3300.25 L 2084.8 3731.36 M 2084.8 3731.36 L 1854.77 2979.8 M 2537.77 2326.33 L 2518.99 1526.15 M 4830.1 7217.46 L 5374.17 7536.91 M 3474.56 4499.59 L 3676.93 5077.17 M 3676.93 5077.17 L 4006.81 5015.08 M 2881.4 2213.07 L 2537.77 2326.33 M 6121.2 3301.5 L 5890.25 3366.86 M 6850.83 3022.2 L 7599.99 2840.65 M 4330.8 4715.09 L 3891 3994.16 M 1019.01 4431.9 L 1025.37 4767.1 M 1025.37 4767.1 L 1675 4041.57 M 5043.89 4288.83 L 4710.35 4430.3 M 5374.17 7536.91 L 4806.63 7261.29 M 4806.63 7261.29 L 4583.98 7880.05 M 6365.23 4671.6 L 6638.59 5168.28 M 6638.59 5168.28 L 6907.85 4899.57 M 3494.31 2647.74 L 3722.1 2384.88 M 3722.1 2384.88 L 3163.05 2576.2 M 4027.46 0 L 3539.32 251.382 M 1066.88 2282.59 L 735.165 2156.67 M 735.165 2156.67 L 655.453 2903.99 M 4054.41 5671.33 L 3724.43 5493.14 M 3849.04 5880.74 L 4054.41 5671.33 M 5936.42 1444.39 L 5965.85 1884.43 M 3103.06 4018.51 L 3474.56 4499.59 M 2053.45 2027.84 L 1587.94 1456.42 M 6882.5 537.967 L 6239.81 683.968 M 6239.81 683.968 L 6731.63 1285.88 M 3163.05 2576.2 L 2881.4 2213.07 M 3432.81 5659.39 L 3116.18 5135.65 M 6203.01 716.014 L 5899.99 663.955 M 3467.19 2333.56 L 4040.48 2190.5 M 5965.85 1884.43 L 6101.66 2148.2 M 4503.18 3470.93 L 4543.33 2372.29 M 1363.63 2773.74 L 1388.11 2042.17 M 3701.16 862.024 L 4165.5 703.701 M 4165.5 703.701 L 4027.46 0 M 2192.39 3305.05 L 1903.1 3092.69 M 1903.1 3092.69 L 2269.53 3788.02 M 2424 2906.35 L 2192.39 3305.05 M 4771.67 1594.78 L 4714.23 1201.05" />
<path fill="none" style="stroke:#cccccc;stroke-width:10.785000;stroke-dasharray:75.990000, 75.990000;" d=" M 2219.53 2350.63 L 1854.77 2979.8 M 2103.83 3238.17 L 2219.53 2350.63 M 2424 2906.35 L 2219.53 2350.63 M 2424 2906.35 L 2537.77 2326.33 M 2424 2906.35 L 2817.62 2766 M 2424 2906.35 L 2713.01 3506.42 M 2192.39 3305.05 L 2713.01 3506.42 M 2269.53 3788.02 L 2713.01 3506.42 M 2192.39 3305.05 L 2269.53 3788.02 M 2537.77 2326.33 L 2219.53 2350.63 M 2537.77 2326.33 L 2235.87 1987.99 M 2518.99 1526.15 L 2235.87 1987.99 M 2817.62 2766 L 2537.77 2326.33 M 2817.62 2766 L 2881.4 2213.07 M 2817.62 2766 L 3163.05 2576.2 M 2518.99 1526.15 L 2021.06 1282.95 M 2518.99 1526.15 L 2108.94 628.908 M 2219.53 2350.63 L 1699.36 2191.87 M 2053.45 2027.84 L 1699.36 2191.87 M 2817.62 2766 L 3390.48 3629.97 M 2934.52 3504.58 L 3390.48 3629.97 M 3103.06 4018.51 L 3390.48 3629.97 M 3474.56 4499.59 L 3390.48 3629.97 M 4006.81 5015.08 L 3390.48 3629.97 M 4006.81 5015.08 L 3891 3994.16 M 4006.81 5015.08 L 4330.8 4715.09 M 4006.81 5015.08 L 4652.73 5003.66 M 4652.73 5003.66 L 4330.8 4715.09 M 4710.35 4430.3 L 4330.8 4715.09 M 4149.36 3880.05 L 4330.8 4715.09 M 4149.36 3880.05 L 3909.46 3983.22 M 4149.36 3880.05 L 3626.66 3401.07 M 3626.66 3401.07 L 3909.46 3983.22 M 1587.94 1456.42 L 1699.36 2191.87 M 1587.94 1456.42 L 1388.11 2042.17 M 1250.63 1412.91 L 1388.11 2042.17 M 1066.88 2282.59 L 1388.11 2042.17 M 1066.88 2282.59 L 1363.63 2773.74 M 1066.88 2282.59 L 1090.58 3242.57 M 1066.88 2282.59 L 655.453 2903.99 M 1388.11 2042.17 L 1699.36 2191.87 M 1090.58 3242.57 L 1363.63 2773.74 M 1090.58 3242.57 L 1602.89 3624.92 M 1415.27 3645.19 L 1602.89 3624.92 M 1090.58 3242.57 L 1415.27 3645.19 M 4652.73 5003.66 L 4710.35 4430.3 M 5177.87 4936.71 L 4710.35 4430.3 M 5177.87 4936.71 L 5043.89 4288.83 M 5177.87 4936.71 L 5496.35 4658.32 M 5177.87 4936.71 L 5470.7 5303.82 M 5177.87 4936.71 L 5115.06 5360.76 M 5115.06 5360.76 L 5470.7 5303.82 M 5644.37 6136.17 L 5470.7 5303.82 M 5779.61 5115.16 L 5470.7 5303.82 M 5779.61 5115.16 L 5569.62 4665.43 M 6302.56 4695.96 L 5569.62 4665.43 M 5115.06 5360.76 L 5644.37 6136.17 M 5115.06 5360.76 L 5305.82 6252.07 M 5305.82 6252.07 L 5644.37 6136.17 M 5305.82 6252.07 L 5499.27 6613.62 M 5499.27 6613.62 L 5644.37 6136.17 M 4945.41 6457.08 L 5499.27 6613.62 M 4920.57 6796.3 L 5499.27 6613.62 M 5374.17 7536.91 L 5499.27 6613.62 M 5374.17 7536.91 L 5694.41 7431.39 M 5962.53 6675.94 L 5644.37 6136.17 M 5997.26 6158.16 L 5644.37 6136.17 M 5997.26 6158.16 L 5820.67 5121.44 M 6217.56 5508.16 L 5820.67 5121.44 M 6217.56 5508.16 L 6407.8 4798.2 M 5499.27 6613.62 L 5962.53 6675.94 M 4920.57 6796.3 L 5374.17 7536.91 M 4920.57 6796.3 L 4830.1 7217.46 M 4378.79 6763.04 L 4830.1 7217.46 M 4920.57 6796.3 L 4378.79 6763.04 M 4378.79 6763.04 L 4163.28 7522.58 M 4163.28 7522.58 L 4830.1 7217.46 M 5374.17 7536.91 L 5649.98 7947.05 M 5374.17 7536.91 L 4952.76 8187.3 M 5374.17 7536.91 L 4583.98 7880.05 M 4952.76 8187.3 L 5649.98 7947.05 M 5496.35 4658.32 L 5043.89 4288.83 M 5471.2 3960.98 L 5043.89 4288.83 M 5139.71 3759.29 L 5043.89 4288.83 M 5471.2 3960.98 L 5139.71 3759.29 M 4503.18 3470.93 L 5043.89 4288.83 M 4503.18 3470.93 L 4695.13 4386.98 M 4503.18 3470.93 L 4224.43 3757.75 M 4503.18 3470.93 L 4255.42 2829.4 M 5338.65 3333.16 L 5139.71 3759.29 M 5338.65 3333.16 L 5000.06 3031.69 M 5115.06 5360.76 L 4997.54 5665.51 M 4997.54 5665.51 L 5305.82 6252.07 M 4884.85 6018.82 L 5305.82 6252.07 M 4997.54 5665.51 L 4884.85 6018.82 M 5338.65 3333.16 L 5120.83 2782.59 M 6155.41 4224.51 L 5569.62 4665.43 M 6155.41 4224.51 L 5771.12 3997.36 M 6155.41 4224.51 L 5890.25 3366.86 M 6585.22 4257.22 L 5890.25 3366.86 M 6155.41 4224.51 L 6585.22 4257.22 M 6365.23 4671.6 L 6585.22 4257.22 M 6365.23 4671.6 L 6907.85 4899.57 M 6907.85 4899.57 L 6585.22 4257.22 M 7160.72 4325.94 L 6585.22 4257.22 M 7160.72 4325.94 L 6632.85 3502.21 M 7207.57 3857.11 L 6632.85 3502.21 M 6585.22 4257.22 L 6121.2 3301.5 M 5139.71 3759.29 L 4503.18 3470.93 M 4982.63 3035.25 L 4503.18 3470.93 M 4982.63 3035.25 L 4589.61 2374.96 M 3474.56 4499.59 L 4006.81 5015.08 M 5102.09 2785.52 L 4589.61 2374.96 M 4378.79 6763.04 L 3785.54 7183.67 M 4378.79 6763.04 L 3905.86 6498.02 M 4378.79 6763.04 L 4411.72 6314.84 M 4411.72 6314.84 L 3905.86 6498.02 M 3849.04 5880.74 L 3905.86 6498.02 M 3849.04 5880.74 L 3669.68 6136.22 M 3849.04 5880.74 L 3432.81 5659.39 M 3849.04 5880.74 L 3724.43 5493.14 M 3669.68 6136.22 L 3905.86 6498.02 M 3432.81 5659.39 L 3669.68 6136.22 M 3432.81 5659.39 L 3406.94 5903.06 M 3432.81 5659.39 L 2814.28 5289.95 M 3116.18 5135.65 L 2814.28 5289.95 M 2680.35 4711.98 L 2814.28 5289.95 M 2680.35 4711.98 L 2414.84 5106.69 M 2140.12 4633.59 L 2414.84 5106.69 M 1090.58 3242.57 L 1276.65 4029.53 M 3390.48 3629.97 L 3163.05 2576.2 M 1276.65 4029.53 L 1415.27 3645.19 M 1276.65 4029.53 L 1675 4041.57 M 1019.01 4431.9 L 1675 4041.57 M 2140.12 4633.59 L 2040.33 5050.15 M 1657.66 4739.45 L 2040.33 5050.15 M 2140.12 4633.59 L 1657.66 4739.45 M 1699.36 2191.87 L 1854.77 2979.8 M 1416.84 2781.26 L 1854.77 2979.8 M 1416.84 2781.26 L 1643.8 3300.25 M 1643.8 3300.25 L 1854.77 2979.8 M 4149.36 3880.05 L 3560.78 2617.44 M 3972.17 2968.23 L 3560.78 2617.44 M 4543.33 2372.29 L 4255.42 2829.4 M 4543.33 2372.29 L 4172.7 2200.51 M 4681.27 2026.45 L 4172.7 2200.51 M 4681.27 2026.45 L 4327.28 1693.86 M 4771.67 1594.78 L 4327.28 1693.86 M 4714.23 1201.05 L 4327.28 1693.86 M 6942.46 3480.3 L 6632.85 3502.21 M 6515.05 3005.86 L 6632.85 3502.21 M 6942.46 3480.3 L 6515.05 3005.86 M 6850.83 3022.2 L 6515.05 3005.86 M 6850.83 3022.2 L 6438.38 2522.95 M 6850.83 3022.2 L 7038.94 2735.97 M 7038.94 2735.97 L 6438.38 2522.95 M 6938.84 2441.86 L 6438.38 2522.95 M 6492.89 1836.91 L 6438.38 2522.95 M 6101.66 2148.2 L 6438.38 2522.95 M 7599.99 2840.65 L 7038.94 2735.97 M 4714.23 1201.05 L 3997.4 1460.17 M 4714.23 1201.05 L 4618.57 814.25 M 4618.57 814.25 L 3997.4 1460.17 M 4618.57 814.25 L 4167.57 709.905 M 4167.57 709.905 L 3997.4 1460.17 M 3713.69 1450.68 L 3997.4 1460.17 M 3713.69 1450.68 L 3467.19 2333.56 M 3467.19 2333.56 L 3997.4 1460.17 M 4040.48 2190.5 L 3997.4 1460.17 M 3713.69 1450.68 L 3199.89 1959.73 M 3292.54 1270.78 L 3199.89 1959.73 M 3292.54 1270.78 L 2854.64 2067.9 M 3292.54 1270.78 L 2912.07 1269.57 M 3470.63 261.042 L 2912.07 1269.57 M 4543.33 2372.29 L 4681.27 2026.45 M 1276.65 4029.53 L 1019.01 4431.9 M 1276.65 4029.53 L 803.724 3900.61 M 889.192 3625.68 L 803.724 3900.61 M 889.192 3625.68 L 626.964 3675.43 M 400.898 3029.22 L 626.964 3675.43 M 7515.3 2466.01 L 7038.94 2735.97 M 6492.89 1836.91 L 6101.66 2148.2 M 6492.89 1836.91 L 5965.85 1884.43 M 6146.02 1129.63 L 5965.85 1884.43 M 6146.02 1129.63 L 5936.42 1444.39 M 6146.02 1129.63 L 5899.99 663.955 M 6146.02 1129.63 L 6203.01 716.014 M 6462.41 1363.86 L 6203.01 716.014 M 6462.41 1363.86 L 6731.63 1285.88 M 6146.02 1129.63 L 6462.41 1363.86 M 6524.1 1827.06 L 6731.63 1285.88 M 6876.72 1866.42 L 6731.63 1285.88 M 7089.59 1003.41 L 6731.63 1285.88 M 7089.59 1003.41 L 6882.5 537.967 M 7089.59 1003.41 L 7322.9 415.203 M 6882.5 537.967 L 6731.63 1285.88 M 6068.64 2717.27 L 6438.38 2522.95 M 6258.62 3259.59 L 6438.38 2522.95 M 3669.68 6136.22 L 3363.95 6929.62 M 3389.02 5924.96 L 3363.95 6929.62 M 3389.02 5924.96 L 3086.06 6531.53 M 4243.44 5306.02 L 4652.73 5003.66 M 4243.44 5306.02 L 4692.39 5936.66 M 4254.67 6060.18 L 4692.39 5936.66 M 4243.44 5306.02 L 4254.67 6060.18 M 3581.72 3429.26 L 3163.05 2576.2 M 3494.31 2647.74 L 3163.05 2576.2 M 4540.98 164.505 L 4167.57 709.905 M 3389.02 5924.96 L 2765.31 5847.92 M 4167.57 709.905 L 3713.69 1450.68 M 3701.16 862.024 L 3713.69 1450.68 M 3701.16 862.024 L 3302.53 1248.99 M 3701.16 862.024 L 3539.32 251.382 M 3701.16 862.024 L 4027.46 0 M 3363.95 6929.62 L 3905.86 6498.02 M 5899.99 663.955 L 5936.42 1444.39" />
</svg>
