<?xml version="1.0"?>
<svg width="6641" height="7703" version="1.1" xmlns="http://www.w3.org/2000/svg" >
<path fill="none" style="stroke:black;stroke-width:19.257500;" d=" M 3099.93 6087.83 L 3211.53 5579.48 M 5662.46 4876.18 L 5448.23 5142.55 M 3927.73 6622.64 L 3683.63 7388.92 M 3683.63 7388.92 L 4123.88 7128.42 M 4915.85 6198.79 L 5103.64 6411.39 M 5159.62 3726.51 L 4796.62 3298.88 M 4796.62 3298.88 L 4953.24 4043.29 M 2439.18 2943.12 L 2630.15 2757.13 M 5077.6 4423.97 L 4888.61 4037.41 M 4957.56 4616.77 L 5077.6 4423.97 M 6035.65 4420.11 L 6160.58 3954.37 M 3726.47 2561.99 L 3910.87 1802.14 M 5100.37 2086.83 L 4968.25 2656.86 M 5293.04 2619.72 L 5100.37 2086.83 M 3750.44 1166.24 L 3340.08 1013.56 M 4123.88 7128.42 L 4320.78 6631.11 M 3814.48 3078.04 L 3964.19 3883.29 M 5197.8 895.362 L 4804.6 1176.09 M 2264.17 3343.76 L 1822.51 3062.82 M 1825.4 3791.21 L 2264.17 3343.76 M 4859.47 3091.35 L 4659.53 2648.05 M 4607.15 3273.26 L 4859.47 3091.35 M 1335.52 1326.19 L 1726.49 1094.7 M 2330.37 3320.29 L 2836.82 3372.62 M 2192.12 4847.41 L 1841.64 4526.55 M 1841.64 4526.55 L 2240.14 5398.61 M 4821.81 2085.86 L 5286.95 1756.58 M 4159.29 3098.3 L 4252.24 3766.43 M 5286.95 1756.58 L 5557.97 1165.24 M 2630.15 2757.13 L 2741.51 2172.17 M 3340.08 1013.56 L 3760.4 1136.19 M 5043.65 4609.96 L 5071.22 5506.59 M 2637.92 2765.45 L 2439.18 2943.12 M 4109.61 3107.12 L 4322.16 2324.31 M 3767.13 2553.27 L 3814.48 3078.04 M 5402.66 3104.89 L 5293.04 2619.72 M 683.872 1649.93 L 1335.52 1326.19 M 2968.34 1382.86 L 3146.88 1694.3 M 2948.67 4043.8 L 3016.58 4527.66 M 4270.73 7703.21 L 4543.3 7200.17 M 2846.25 6175.36 L 3099.93 6087.83 M 2656.99 5795.29 L 2846.25 6175.36 M 5103.64 6411.39 L 5425.91 5950.27 M 3071.68 6210.06 L 3351.98 6839.5 M 4735.87 4817.53 L 4404.14 4996.32 M 4404.14 4996.32 L 4358.99 5746.82 M 3211.53 5579.48 L 2902.8 5307.57 M 2076.45 2514.75 L 1872.23 3067.11 M 2197.92 4350.33 L 2532.94 3926.16 M 5071.22 5506.59 L 4957.56 4616.77 M 2269.23 4723.99 L 2618.55 4614.23 M 2253.74 4388.98 L 2269.23 4723.99 M 2168.91 868.681 L 1686.43 783.928 M 4659.53 2648.05 L 4821.81 2085.86 M 5611.07 4842 L 5433.53 4247.17 M 5888.66 3978.79 L 5658.02 4255.44 M 5232.41 5.98191 L 4933.37 33.5862 M 2741.51 2172.17 L 2517.56 1545.77 M 2517.56 1545.77 L 2454.98 2374.73 M 2836.82 3372.62 L 3189.17 3702.5 M 1371.54 2346.24 L 1281.79 2793.08 M 4931.61 705.831 L 5322.41 929.052 M 5322.41 929.052 L 5232.41 5.98191 M 5775.93 5671.32 L 6214.95 5233.72 M 1281.79 2793.08 L 966.841 3616.45 M 1348.72 1347.15 L 700.46 1677.63 M 3383.99 2856.92 L 3557.71 3704.47 M 6214.95 5233.72 L 6641.11 5180.96 M 6641.11 5180.96 L 6275.52 4503.39 M 3162.41 321.84 L 2607.56 733.189 M 4137.92 7133.75 L 3709.98 7414.03 M 3709.98 7414.03 L 4270.73 7703.21 M 1749.38 2042.89 L 1488.2 2845.39 M 3563.32 1949.72 L 3383.99 2856.92 M 4252.24 3766.43 L 4109.61 3107.12 M 2614.7 1494.6 L 2981.88 831.969 M 736.818 924.27 L 503.585 1363.59 M 3405.57 5022.64 L 3669.54 4888.18 M 3669.54 4888.18 L 3254.95 4401.82 M 4447.51 334.018 L 4167.54 184.4 M 1872.23 3067.11 L 2330.37 3320.29 M 2780.25 2214.51 L 3110.02 1712.7 M 2741.57 1550.41 L 2780.25 2214.51 M 2924.15 4658.01 L 2547.96 4761.07 M 3760.4 1136.19 L 3965.9 1758.98 M 3965.9 1758.98 L 4154.62 1027.49 M 4450.5 1703.26 L 4577.19 1034.16 M 4968.25 2656.86 L 5135.68 3113.43 M 5557.97 1165.24 L 5197.8 895.362 M 3110.02 1712.7 L 2968.34 1382.86 M 3884.4 269.969 L 3678.18 0 M 5433.53 4247.17 L 5662.3 3968.98 M 3548.28 3703.59 L 3369.61 2857.07 M 5658.02 4255.44 L 5662.46 4876.18 M 2274.81 3354.45 L 1825.4 3791.21 M 2189.21 3818.85 L 2274.81 3354.45 M 4933.37 33.5862 L 4447.51 334.018 M 4513.33 4228.46 L 4607.15 3273.26 M 5135.68 3113.43 L 4857.98 3253.59 M 4857.98 3253.59 L 5159.62 3726.51 M 4110.18 1740.48 L 4358.92 2312.1 M 4572.05 1817.58 L 4110.18 1740.48 M 2542.2 5392.24 L 2656.99 5795.29 M 4320.78 6631.11 L 4137.92 7133.75 M 3557.71 3704.47 L 3309.15 4419.87 M 3309.15 4419.87 L 3748.05 4884.41 M 3706.47 597.59 L 4166.78 1014.45 M 6275.52 4503.39 L 6035.65 4420.11 M 2240.14 5398.61 L 2542.2 5392.24 M 2981.88 831.969 L 2741.57 1550.41 M 1245.28 1872.72 L 1603.12 1590.46 M 5425.91 5950.27 L 5775.93 5671.32 M 5448.23 5142.55 L 5611.07 4842 M 6237.52 3592.31 L 6076.06 2725.66 M 6076.06 2725.66 L 6005.24 3126.96 M 3189.17 3702.5 L 2807.36 3407.21 M 3748.05 4884.41 L 3485.73 5022.05 M 3485.73 5022.05 L 3908.46 5807.67 M 3910.87 1802.14 L 3750.44 1166.24 M 3016.58 4527.66 L 3405.57 5022.64 M 3233.78 5541.34 L 3293.08 6058.41 M 3585.82 5990.5 L 3233.78 5541.34 M 2807.36 3407.21 L 2300.42 3359.91 M 3146.88 1694.3 L 2809.83 2191.24 M 2547.96 4761.07 L 2192.12 4847.41 M 3254.95 4401.82 L 3548.28 3703.59 M 3773.24 3086.81 L 3726.47 2561.99 M 2902.8 5307.57 L 3249.01 5529.81 M 3372.64 5099.81 L 2924.15 4658.01 M 4358.99 5746.82 L 4368.8 4995.03 M 3886.17 5829.31 L 3372.64 5099.81 M 4577.19 1034.16 L 4931.61 705.831 M 700.46 1677.63 L 0 2105.3 M 0 2105.3 L 842.101 1931.9 M 2809.83 2191.24 L 2638.39 2761.5 M 2638.39 2761.5 L 2999.87 2806.4 M 5164.9 4417.92 L 5043.65 4609.96 M 842.101 1931.9 L 1245.28 1872.72 M 4103.99 4437.47 L 4381.51 4988.81 M 2999.87 2806.4 L 2637.92 2765.45 M 4804.6 1176.09 L 4570.95 1815.75 M 4570.95 1815.75 L 4958.59 1583.95 M 4888.61 4037.41 L 4709.04 3298.19 M 4709.04 3298.19 L 4557.15 4245.89 M 4154.62 1027.49 L 3706.47 597.59 M 3293.08 6058.41 L 3071.68 6210.06 M 2300.42 3359.91 L 2189.21 3818.85 M 3984.33 1747.53 L 4450.5 1703.26 M 4166.78 1014.45 L 3984.33 1747.53 M 1915.23 4112.52 L 1836.87 4377.81 M 1836.87 4377.81 L 2198.81 4685.69 M 4958.59 1583.95 L 4572.05 1817.58 M 3678.18 0 L 3162.41 321.84 M 1726.49 1094.7 L 1348.72 1347.15 M 2198.81 4685.69 L 2197.92 4350.33 M 3908.46 5807.67 L 4351.04 6285.83 M 2618.55 4614.23 L 2999.35 4529.76 M 2999.35 4529.76 L 2948.67 4043.8 M 1283.45 3871.5 L 1915.23 4112.52 M 2532.94 3926.16 L 2253.74 4388.98 M 1493.84 313.898 L 929.221 391.28 M 1061.63 961.641 L 1493.84 313.898 M 1280.29 3869.89 L 1629.03 3186.36 M 2155.59 1599.19 L 2076.45 2514.75 M 2454.98 2374.73 L 2155.59 1599.19 M 4557.15 4245.89 L 4735.87 4817.53 M 929.221 391.28 L 736.818 924.27 M 4978.31 6585.64 L 5094.33 6419.27 M 5094.33 6419.27 L 4915.85 6198.79 M 1629.03 3186.36 L 1283.45 3871.5 M 1726.7 2035.85 L 1371.54 2346.24 M 1488.2 2845.39 L 1726.7 2035.85 M 4167.54 184.4 L 3884.4 269.969 M 3351.98 6839.5 L 3646.43 7376.06 M 3646.43 7376.06 L 3927.73 6622.64 M 2074.72 1598.72 L 2614.7 1494.6 M 5662.3 3968.98 L 5737.77 3151.75 M 5737.77 3151.75 L 5402.66 3104.89 M 2051.15 2520.12 L 2077.42 1601.52 M 2077.42 1601.52 L 1749.38 2042.89 M 4381.51 4988.81 L 4705.19 4795.82 M 4705.19 4795.82 L 4513.33 4228.46 M 4351.04 6285.83 L 3886.17 5829.31 M 3982.46 1801.6 L 3767.13 2553.27 M 4322.16 2324.31 L 3982.46 1801.6 M 3367.72 2109.27 L 3383.87 2856.9 M 3383.87 2856.9 L 3563.32 1949.72 M 3369.61 2857.07 L 3367.72 2109.27 M 1603.12 1590.46 L 2074.72 1598.72 M 4543.3 7200.17 L 4978.31 6585.64 M 1822.51 3062.82 L 2051.15 2520.12 M 4953.24 4043.29 L 5164.9 4417.92 M 3249.01 5529.81 L 3585.82 5990.5 M 2607.56 733.189 L 2168.91 868.681 M 4368.8 4995.03 L 4103.99 4437.47 M 1686.43 783.928 L 1061.63 961.641 M 4358.92 2312.1 L 4159.29 3098.3 M 966.841 3616.45 L 1280.29 3869.89 M 6640.53 3600.25 L 6237.52 3592.31 M 6160.58 3954.37 L 6640.53 3600.25 M 3964.19 3883.29 L 3773.24 3086.81 M 6005.24 3126.96 L 5888.66 3978.79 M 503.585 1363.59 L 683.872 1649.93" />
<path fill="none" style="stroke:#cccccc;stroke-width:9.628750;stroke-dasharray:66.410000, 66.410000;" d=" M 2656.99 5795.29 L 3099.93 6087.83 M 3211.53 5579.48 L 2656.99 5795.29 M 2902.8 5307.57 L 2656.99 5795.29 M 2902.8 5307.57 L 2542.2 5392.24 M 2902.8 5307.57 L 2547.96 4761.07 M 2902.8 5307.57 L 2924.15 4658.01 M 2902.8 5307.57 L 3372.64 5099.81 M 3249.01 5529.81 L 3372.64 5099.81 M 3249.01 5529.81 L 3886.17 5829.31 M 3585.82 5990.5 L 3886.17 5829.31 M 3585.82 5990.5 L 3927.73 6622.64 M 3927.73 6622.64 L 3886.17 5829.31 M 3927.73 6622.64 L 4351.04 6285.83 M 4320.78 6631.11 L 4351.04 6285.83 M 3293.08 6058.41 L 3927.73 6622.64 M 3071.68 6210.06 L 3927.73 6622.64 M 3927.73 6622.64 L 4320.78 6631.11 M 4915.85 6198.79 L 4351.04 6285.83 M 4915.85 6198.79 L 4358.99 5746.82 M 4358.99 5746.82 L 4351.04 6285.83 M 4358.99 5746.82 L 3908.46 5807.67 M 4358.99 5746.82 L 3748.05 4884.41 M 5071.22 5506.59 L 4358.99 5746.82 M 4368.8 4995.03 L 3748.05 4884.41 M 4103.99 4437.47 L 3748.05 4884.41 M 3964.19 3883.29 L 3748.05 4884.41 M 4103.99 4437.47 L 3964.19 3883.29 M 3557.71 3704.47 L 3748.05 4884.41 M 3964.19 3883.29 L 3557.71 3704.47 M 4103.99 4437.47 L 4252.24 3766.43 M 4252.24 3766.43 L 3964.19 3883.29 M 3748.05 4884.41 L 3908.46 5807.67 M 4513.33 4228.46 L 4252.24 3766.43 M 4607.15 3273.26 L 4252.24 3766.43 M 5071.22 5506.59 L 4735.87 4817.53 M 4957.56 4616.77 L 4735.87 4817.53 M 4957.56 4616.77 L 4888.61 4037.41 M 4888.61 4037.41 L 4735.87 4817.53 M 4103.99 4437.47 L 4513.33 4228.46 M 3773.24 3086.81 L 3557.71 3704.47 M 3773.24 3086.81 L 3383.99 2856.92 M 3726.47 2561.99 L 3383.99 2856.92 M 3726.47 2561.99 L 3563.32 1949.72 M 3910.87 1802.14 L 3563.32 1949.72 M 3750.44 1166.24 L 3563.32 1949.72 M 3340.08 1013.56 L 3563.32 1949.72 M 3340.08 1013.56 L 3146.88 1694.3 M 3340.08 1013.56 L 2968.34 1382.86 M 2981.88 831.969 L 2968.34 1382.86 M 3340.08 1013.56 L 2981.88 831.969 M 3340.08 1013.56 L 3706.47 597.59 M 3706.47 597.59 L 2981.88 831.969 M 4252.24 3766.43 L 3814.48 3078.04 M 3706.47 597.59 L 3678.18 0 M 3146.88 1694.3 L 3563.32 1949.72 M 3146.88 1694.3 L 3367.72 2109.27 M 2999.87 2806.4 L 3367.72 2109.27 M 2999.87 2806.4 L 3369.61 2857.07 M 3367.72 2109.27 L 3563.32 1949.72 M 3146.88 1694.3 L 2999.87 2806.4 M 4915.85 6198.79 L 5071.22 5506.59 M 5103.64 6411.39 L 5071.22 5506.59 M 2809.83 2191.24 L 2999.87 2806.4 M 3189.17 3702.5 L 3369.61 2857.07 M 3189.17 3702.5 L 3548.28 3703.59 M 2948.67 4043.8 L 3548.28 3703.59 M 2948.67 4043.8 L 3254.95 4401.82 M 3706.47 597.59 L 3884.4 269.969 M 3706.47 597.59 L 4167.54 184.4 M 4166.78 1014.45 L 4167.54 184.4 M 4166.78 1014.45 L 4447.51 334.018 M 4166.78 1014.45 L 4577.19 1034.16 M 4577.19 1034.16 L 4447.51 334.018 M 4577.19 1034.16 L 4933.37 33.5862 M 4931.61 705.831 L 4933.37 33.5862 M 3016.58 4527.66 L 3254.95 4401.82 M 4735.87 4817.53 L 4358.99 5746.82 M 3678.18 0 L 2981.88 831.969 M 3162.41 321.84 L 2981.88 831.969 M 2607.56 733.189 L 2981.88 831.969 M 2607.56 733.189 L 2614.7 1494.6 M 2607.56 733.189 L 2074.72 1598.72 M 2168.91 868.681 L 2074.72 1598.72 M 2168.91 868.681 L 1603.12 1590.46 M 1726.49 1094.7 L 1603.12 1590.46 M 1348.72 1347.15 L 1603.12 1590.46 M 2999.87 2806.4 L 3189.17 3702.5 M 2999.87 2806.4 L 2836.82 3372.62 M 1348.72 1347.15 L 1245.28 1872.72 M 1348.72 1347.15 L 842.101 1931.9 M 700.46 1677.63 L 842.101 1931.9 M 5425.91 5950.27 L 5071.22 5506.59 M 5448.23 5142.55 L 5071.22 5506.59 M 5448.23 5142.55 L 5043.65 4609.96 M 5611.07 4842 L 5043.65 4609.96 M 2637.92 2765.45 L 2836.82 3372.62 M 2439.18 2943.12 L 2836.82 3372.62 M 2439.18 2943.12 L 2330.37 3320.29 M 2439.18 2943.12 L 1872.23 3067.11 M 2439.18 2943.12 L 2076.45 2514.75 M 2439.18 2943.12 L 2454.98 2374.73 M 2454.98 2374.73 L 2076.45 2514.75 M 2630.15 2757.13 L 2454.98 2374.73 M 2741.51 2172.17 L 2454.98 2374.73 M 3189.17 3702.5 L 2948.67 4043.8 M 2807.36 3407.21 L 2948.67 4043.8 M 2532.94 3926.16 L 2948.67 4043.8 M 2532.94 3926.16 L 2618.55 4614.23 M 2253.74 4388.98 L 2618.55 4614.23 M 2807.36 3407.21 L 2532.94 3926.16 M 2300.42 3359.91 L 2532.94 3926.16 M 2189.21 3818.85 L 2532.94 3926.16 M 2189.21 3818.85 L 2197.92 4350.33 M 1825.4 3791.21 L 2197.92 4350.33 M 1825.4 3791.21 L 1915.23 4112.52 M 2189.21 3818.85 L 1825.4 3791.21 M 1915.23 4112.52 L 2197.92 4350.33 M 4888.61 4037.41 L 4557.15 4245.89 M 5425.91 5950.27 L 5448.23 5142.55 M 5775.93 5671.32 L 5448.23 5142.55 M 6214.95 5233.72 L 5448.23 5142.55 M 2618.55 4614.23 L 2948.67 4043.8 M 1825.4 3791.21 L 1283.45 3871.5 M 3927.73 6622.64 L 4123.88 7128.42 M 6214.95 5233.72 L 5662.46 4876.18 M 3405.57 5022.64 L 3254.95 4401.82 M 3351.98 6839.5 L 3927.73 6622.64 M 2168.91 868.681 L 1726.49 1094.7 M 1686.43 783.928 L 1726.49 1094.7 M 1686.43 783.928 L 1335.52 1326.19 M 1061.63 961.641 L 1335.52 1326.19 M 1915.23 4112.52 L 2198.81 4685.69 M 1825.4 3791.21 L 1629.03 3186.36 M 1825.4 3791.21 L 1822.51 3062.82 M 6275.52 4503.39 L 5662.46 4876.18 M 1822.51 3062.82 L 1629.03 3186.36 M 1822.51 3062.82 L 1488.2 2845.39 M 1822.51 3062.82 L 1749.38 2042.89 M 2051.15 2520.12 L 1749.38 2042.89 M 5611.07 4842 L 5164.9 4417.92 M 1488.2 2845.39 L 1629.03 3186.36 M 1488.2 2845.39 L 1280.29 3869.89 M 5433.53 4247.17 L 5164.9 4417.92 M 5433.53 4247.17 L 5159.62 3726.51 M 5433.53 4247.17 L 5402.66 3104.89 M 5402.66 3104.89 L 5159.62 3726.51 M 5135.68 3113.43 L 5159.62 3726.51 M 5402.66 3104.89 L 5135.68 3113.43 M 5159.62 3726.51 L 5164.9 4417.92 M 5159.62 3726.51 L 4953.24 4043.29 M 4607.15 3273.26 L 4159.29 3098.3 M 4607.15 3273.26 L 4659.53 2648.05 M 4659.53 2648.05 L 4159.29 3098.3 M 4659.53 2648.05 L 4358.92 2312.1 M 4821.81 2085.86 L 4358.92 2312.1 M 4572.05 1817.58 L 4358.92 2312.1 M 4821.81 2085.86 L 4572.05 1817.58 M 4821.81 2085.86 L 4958.59 1583.95 M 2547.96 4761.07 L 2542.2 5392.24 M 6035.65 4420.11 L 5662.46 4876.18 M 6035.65 4420.11 L 5658.02 4255.44 M 6035.65 4420.11 L 5888.66 3978.79 M 6160.58 3954.37 L 5888.66 3978.79 M 6160.58 3954.37 L 6237.52 3592.31 M 5286.95 1756.58 L 4958.59 1583.95 M 5557.97 1165.24 L 4958.59 1583.95 M 5197.8 895.362 L 4958.59 1583.95 M 4804.6 1176.09 L 4958.59 1583.95 M 1061.63 961.641 L 683.872 1649.93 M 1061.63 961.641 L 503.585 1363.59 M 1061.63 961.641 L 736.818 924.27 M 1061.63 961.641 L 929.221 391.28 M 2741.57 1550.41 L 2968.34 1382.86 M 2192.12 4847.41 L 2542.2 5392.24 M 4109.61 3107.12 L 3814.48 3078.04 M 4109.61 3107.12 L 3767.13 2553.27 M 4322.16 2324.31 L 3767.13 2553.27 M 6214.95 5233.72 L 6275.52 4503.39 M 4166.78 1014.45 L 4450.5 1703.26 M 4381.51 4988.81 L 4513.33 4228.46 M 5662.3 3968.98 L 5402.66 3104.89 M 3585.82 5990.5 L 3293.08 6058.41 M 2192.12 4847.41 L 2240.14 5398.61 M 3760.4 1136.19 L 3706.47 597.59 M 3760.4 1136.19 L 4154.62 1027.49 M 6237.52 3592.31 L 5888.66 3978.79 M 6237.52 3592.31 L 6005.24 3126.96 M 5402.66 3104.89 L 4968.25 2656.86 M 5293.04 2619.72 L 4968.25 2656.86 M 1488.2 2845.39 L 966.841 3616.45 M 1488.2 2845.39 L 1281.79 2793.08 M 1488.2 2845.39 L 1371.54 2346.24 M 2741.57 1550.41 L 3110.02 1712.7 M 4320.78 6631.11 L 4915.85 6198.79 M 4978.31 6585.64 L 4915.85 6198.79 M 4320.78 6631.11 L 4978.31 6585.64 M 4320.78 6631.11 L 4543.3 7200.17 M 4137.92 7133.75 L 4543.3 7200.17 M 4137.92 7133.75 L 4270.73 7703.21 M 4931.61 705.831 L 5232.41 5.98191" />
</svg>
