<?xml version="1.0"?>
<svg width="5110" height="7180" version="1.1" xmlns="http://www.w3.org/2000/svg" >
<path fill="none" style="stroke:black;stroke-width:17.950000;" d=" M 3588.04 5197.4 L 3927.64 5101.97 M 3927.64 5101.97 L 3883.41 4639.94 M 1530.14 4020.86 L 1771.52 3857.72 M 4086.03 5602.31 L 3722.46 5621.75 M 3050.54 6271.48 L 3509.2 6412.08 M 4268.39 2093.67 L 4168.24 1891.53 M 2703.59 5090.36 L 3241.98 5275.26 M 2356.11 2181.74 L 2378.84 1884.99 M 3440.6 1844.17 L 3221.66 2332.52 M 4840.94 3722.72 L 4219.88 4124.22 M 4626.58 4120.07 L 4840.94 3722.72 M 4385.12 4716.34 L 4626.58 4120.07 M 3960.85 4045.58 L 4079.17 3499.47 M 1281.14 1609 L 1965.41 1909.72 M 3567 2318.99 L 4268.39 2093.67 M 4079.17 3499.47 L 4098.69 3099.35 M 4098.69 3099.35 L 3877.04 3179.77 M 2107.94 3691.05 L 1778.16 3860.53 M 4168.24 1891.53 L 4291.63 1541.42 M 3939.19 5163.78 L 3588.04 5197.4 M 4084.2 5580.46 L 3939.19 5163.78 M 3189.79 5310.38 L 2669.11 5540.47 M 4214.09 2700.5 L 4576.26 2299.97 M 4576.26 2299.97 L 3871.87 2525.27 M 4291.63 1541.42 L 4598.21 1210 M 1731.06 2596.6 L 1211.13 3072.82 M 1211.13 3072.82 L 1481.1 3281.9 M 2691.85 5791.7 L 1895.09 6272.28 M 1908.53 2607.94 L 2215.35 2560.37 M 3717.24 6212.31 L 3340.96 5945.14 M 3769.52 6116.31 L 4402.46 6376.67 M 4570.49 675.274 L 4363.45 815.698 M 2033.73 6605.76 L 1836.27 7144.68 M 1836.27 7144.68 L 2066.37 7181.63 M 2066.37 7181.63 L 2440.15 6779.43 M 4219.88 4124.22 L 4281.17 3587.72 M 4281.17 3587.72 L 3960.85 4045.58 M 1895.09 6272.28 L 2033.73 6605.76 M 3702.81 2855.76 L 3597.14 3055.07 M 4513.8 5253.74 L 5110.64 5039.13 M 5110.64 5039.13 L 4385.12 4716.34 M 4363.45 815.698 L 3954.75 1833.68 M 3032.13 5503.27 L 2937.01 5829.46 M 2049.53 4287.83 L 2402.22 4210.05 M 4598.21 1210 L 4989.13 699.096 M 3871.87 2525.27 L 3702.81 2855.76 M 1995.9 2964.7 L 1841.66 3549.37 M 1569.08 4250.63 L 1530.14 4020.86 M 4989.13 699.096 L 4612.53 0 M 4612.53 0 L 4354.07 377.128 M 1501.48 3519.67 L 1234.39 3968.85 M 4153.31 4999.38 L 4513.8 5253.74 M 3722.46 5621.75 L 4084.2 5580.46 M 3509.2 6412.08 L 3036.72 6329.02 M 3036.72 6329.02 L 3183.25 6611.85 M 2402.22 4210.05 L 2703.59 5090.36 M 622.465 3108.16 L 1120.03 2948.39 M 371.08 2884.92 L 131.444 2813.07 M 2669.11 5540.47 L 2799.87 5751.27 M 2799.87 5751.27 L 3032.13 5503.27 M 1771.52 3857.72 L 2090.04 3667.92 M 4354.07 377.128 L 4570.49 675.274 M 2562.94 2620.67 L 2396.06 2358.85 M 2396.06 2358.85 L 2262.62 2699.32 M 2378.84 1884.99 L 2670.98 1941.87 M 2670.98 1941.87 L 2556.31 1624.31 M 3954.75 1833.68 L 3440.6 1844.17 M 1120.03 2948.39 L 1731.06 2596.6 M 1048.88 2700.81 L 371.08 2884.92 M 4693.32 5785.25 L 4086.03 5602.31 M 4402.46 6376.67 L 4693.32 5785.25 M 3340.96 5945.14 L 3769.52 6116.31 M 3597.14 3055.07 L 3567 2318.99 M 1481.1 3281.9 L 1995.9 2964.7 M 3392.46 5555.22 L 3189.79 5310.38 M 3933.62 6785.33 L 4220.87 6675.72 M 4220.87 6675.72 L 3717.24 6212.31 M 2966.77 6521.6 L 2321.56 6166.43 M 2972.5 6840.08 L 2966.77 6521.6 M 2440.15 6779.43 L 2972.5 6840.08 M 2311.24 3515.22 L 2107.94 3691.05 M 2321.56 6166.43 L 3050.54 6271.48 M 2937.01 5829.46 L 2691.85 5791.7 M 2026.11 1697.16 L 1843.71 1216.33 M 2090.04 3667.92 L 2311.24 3515.22 M 3896.6 2944.79 L 4214.09 2700.5 M 1109.39 4236.94 L 1569.08 4250.63 M 1234.39 3968.85 L 1109.39 4236.94 M 3877.04 3179.77 L 3896.6 2944.79 M 3815.14 4592.11 L 3895.78 4613.24 M 1841.66 3549.37 L 1501.48 3519.67 M 0 3157.24 L 465.022 3358.58 M 131.444 2813.07 L 0 3157.24 M 3706.7 7004.51 L 3933.62 6785.33 M 1778.16 3860.53 L 1538.61 4026.34 M 1538.61 4026.34 L 2049.53 4287.83 M 2887.39 2380.04 L 2562.94 2620.67 M 3221.66 2332.52 L 2887.39 2380.04 M 3895.78 4613.24 L 4153.31 4999.38 M 1965.41 1909.72 L 2048.01 2273.45 M 748.706 1150.94 L 1281.14 1609 M 1843.71 1216.33 L 748.706 1150.94 M 3183.25 6611.85 L 3706.7 7004.51 M 3241.98 5275.26 L 3392.46 5555.22 M 2262.62 2699.32 L 1908.53 2607.94 M 2215.35 2560.37 L 2356.11 2181.74 M 465.022 3358.58 L 622.465 3108.16 M 2048.01 2273.45 L 1675.56 2293.47 M 2556.31 1624.31 L 2026.11 1697.16 M 3883.41 4639.94 L 3815.14 4592.11 M 1675.56 2293.47 L 1048.88 2700.81" />
<path fill="none" style="stroke:#cccccc;stroke-width:8.975000;stroke-dasharray:51.100000, 51.100000;" d=" M 3960.85 4045.58 L 2703.59 5090.36 M 3597.14 3055.07 L 2703.59 5090.36 M 2562.94 2620.67 L 2311.24 3515.22 M 2562.94 2620.67 L 2262.62 2699.32 M 2262.62 2699.32 L 2311.24 3515.22 M 2262.62 2699.32 L 1995.9 2964.7 M 1995.9 2964.7 L 2311.24 3515.22 M 1908.53 2607.94 L 1995.9 2964.7 M 1995.9 2964.7 L 2090.04 3667.92 M 1908.53 2607.94 L 1481.1 3281.9 M 1841.66 3549.37 L 2090.04 3667.92 M 1908.53 2607.94 L 1731.06 2596.6 M 1731.06 2596.6 L 1481.1 3281.9 M 1841.66 3549.37 L 1771.52 3857.72 M 2048.01 2273.45 L 1731.06 2596.6 M 1675.56 2293.47 L 1731.06 2596.6 M 1675.56 2293.47 L 1120.03 2948.39 M 2311.24 3515.22 L 2703.59 5090.36 M 2311.24 3515.22 L 2402.22 4210.05 M 1908.53 2607.94 L 2048.01 2273.45 M 2215.35 2560.37 L 2048.01 2273.45 M 2356.11 2181.74 L 2048.01 2273.45 M 2107.94 3691.05 L 2402.22 4210.05 M 2107.94 3691.05 L 2049.53 4287.83 M 1778.16 3860.53 L 2049.53 4287.83 M 3597.14 3055.07 L 2562.94 2620.67 M 3597.14 3055.07 L 2887.39 2380.04 M 3597.14 3055.07 L 3221.66 2332.52 M 3567 2318.99 L 3221.66 2332.52 M 3960.85 4045.58 L 3597.14 3055.07 M 3877.04 3179.77 L 3597.14 3055.07 M 3896.6 2944.79 L 3597.14 3055.07 M 3896.6 2944.79 L 3702.81 2855.76 M 2356.11 2181.74 L 1965.41 1909.72 M 2378.84 1884.99 L 1965.41 1909.72 M 2378.84 1884.99 L 2026.11 1697.16 M 2378.84 1884.99 L 2556.31 1624.31 M 2026.11 1697.16 L 1965.41 1909.72 M 2703.59 5090.36 L 3815.14 4592.11 M 3241.98 5275.26 L 3815.14 4592.11 M 3588.04 5197.4 L 3815.14 4592.11 M 3241.98 5275.26 L 3588.04 5197.4 M 3392.46 5555.22 L 3588.04 5197.4 M 3722.46 5621.75 L 3588.04 5197.4 M 3588.04 5197.4 L 3883.41 4639.94 M 3392.46 5555.22 L 3722.46 5621.75 M 3769.52 6116.31 L 3722.46 5621.75 M 3392.46 5555.22 L 3769.52 6116.31 M 3392.46 5555.22 L 3340.96 5945.14 M 3032.13 5503.27 L 3340.96 5945.14 M 3392.46 5555.22 L 3032.13 5503.27 M 3189.79 5310.38 L 3032.13 5503.27 M 2669.11 5540.47 L 3032.13 5503.27 M 2937.01 5829.46 L 3340.96 5945.14 M 2937.01 5829.46 L 3050.54 6271.48 M 2937.01 5829.46 L 2321.56 6166.43 M 3050.54 6271.48 L 3340.96 5945.14 M 3509.2 6412.08 L 3340.96 5945.14 M 3567 2318.99 L 3440.6 1844.17 M 3567 2318.99 L 3954.75 1833.68 M 3815.14 4592.11 L 3960.85 4045.58 M 3895.78 4613.24 L 3960.85 4045.58 M 4219.88 4124.22 L 3960.85 4045.58 M 3895.78 4613.24 L 4219.88 4124.22 M 4153.31 4999.38 L 4219.88 4124.22 M 3960.85 4045.58 L 3877.04 3179.77 M 4079.17 3499.47 L 3877.04 3179.77 M 3509.2 6412.08 L 3717.24 6212.31 M 3933.62 6785.33 L 3717.24 6212.31 M 4402.46 6376.67 L 3722.46 5621.75 M 4268.39 2093.67 L 3954.75 1833.68 M 4168.24 1891.53 L 3954.75 1833.68 M 3509.2 6412.08 L 3933.62 6785.33 M 3509.2 6412.08 L 3706.7 7004.51 M 3509.2 6412.08 L 3183.25 6611.85 M 2691.85 5791.7 L 2321.56 6166.43 M 1895.09 6272.28 L 2321.56 6166.43 M 2033.73 6605.76 L 2321.56 6166.43 M 2033.73 6605.76 L 2440.15 6779.43 M 2033.73 6605.76 L 2066.37 7181.63 M 2440.15 6779.43 L 2321.56 6166.43 M 2440.15 6779.43 L 2966.77 6521.6 M 3896.6 2944.79 L 3871.87 2525.27 M 4153.31 4999.38 L 4385.12 4716.34 M 4291.63 1541.42 L 3954.75 1833.68 M 4214.09 2700.5 L 3871.87 2525.27 M 4513.8 5253.74 L 4385.12 4716.34 M 1048.88 2700.81 L 1120.03 2948.39 M 371.08 2884.92 L 1120.03 2948.39 M 371.08 2884.92 L 622.465 3108.16 M 371.08 2884.92 L 465.022 3358.58 M 131.444 2813.07 L 465.022 3358.58 M 4084.2 5580.46 L 3588.04 5197.4 M 4385.12 4716.34 L 4219.88 4124.22 M 4626.58 4120.07 L 4219.88 4124.22 M 4291.63 1541.42 L 4363.45 815.698 M 4598.21 1210 L 4363.45 815.698 M 4989.13 699.096 L 4363.45 815.698 M 4989.13 699.096 L 4570.49 675.274 M 4989.13 699.096 L 4354.07 377.128 M 1501.48 3519.67 L 1771.52 3857.72 M 4402.46 6376.67 L 4086.03 5602.31 M 2026.11 1697.16 L 1281.14 1609 M 1843.71 1216.33 L 1281.14 1609 M 1501.48 3519.67 L 1530.14 4020.86 M 1234.39 3968.85 L 1530.14 4020.86 M 1234.39 3968.85 L 1569.08 4250.63" />
</svg>
