<?xml version="1.0"?>
<svg width="14086" height="7815" version="1.1" xmlns="http://www.w3.org/2000/svg" >
<path fill="none" style="stroke:black;stroke-width:35.215000;" d=" M 5292.07 5871.61 L 5598.28 5048.65 M 9100.57 4721.73 L 9297.95 4347.74 M 7279.87 3012.47 L 7680.23 3305.18 M 7680.23 3305.18 L 8025.34 2805.46 M 6954.88 2743.83 L 6722.42 2513.28 M 2870.7 3990.23 L 3173.77 3737.87 M 3173.77 3737.87 L 3305.83 3401.29 M 10965 3191.25 L 10764.6 3934.24 M 6774.24 5520.71 L 7018.63 4983.82 M 11935.5 769.497 L 11602.4 513.174 M 11602.4 513.174 L 11372.8 948.646 M 3352.08 6150.14 L 2913.46 6622.82 M 7334.59 1910.27 L 8109.98 1742.93 M 8109.98 1742.93 L 7819.39 1515.39 M 12273.9 5970.38 L 12962 6315.84 M 6722.42 2513.28 L 6329.05 2877.8 M 6329.05 2877.8 L 6511.42 3193.79 M 4854.01 5204.2 L 4812.71 6178 M 11223.4 1893.74 L 11939.8 2062.52 M 11939.8 2062.52 L 11694.8 1588.13 M 7819.39 1515.39 L 8381.11 1095.96 M 7865.95 2062.84 L 8197.1 2225.81 M 8317.57 1526.65 L 7865.95 2062.84 M 2971.7 2972.25 L 3453.93 2798.9 M 5522.66 7256.39 L 5882.83 7196.85 M 9870.03 2928.55 L 10022.7 2477.16 M 11566.4 496.026 L 11584.7 0 M 11584.7 0 L 11241.6 274.677 M 7824.14 1055.93 L 7082.18 1189.25 M 7082.18 1189.25 L 7441.3 1340.35 M 10063.7 2477.56 L 9935.09 2936.38 M 6298.63 2281.58 L 6312.37 2834.91 M 6312.37 2834.91 L 6733.4 2502.72 M 6857.45 3697.99 L 6402.04 3988.19 M 6640.76 4494.59 L 6857.45 3697.99 M 2798.75 5053.83 L 3170.4 5382.37 M 11241.6 274.677 L 10884.8 401.737 M 9187.61 1305.13 L 8833.55 1581.28 M 11372.8 948.646 L 11566.4 496.026 M 9701.11 1567.48 L 10285 1489.75 M 9002.67 2471.92 L 9152.97 1895.89 M 3017.24 2425.77 L 2616.51 2534.93 M 2616.51 2534.93 L 2971.7 2972.25 M 10558 2855.16 L 10586.1 3588.02 M 12129.5 3262.73 L 12628.5 2920.09 M 3425.26 4678.53 L 3567.04 5416.03 M 8627.35 4748.92 L 8674.05 5055.56 M 10687.4 2285.82 L 10558 2855.16 M 9480.02 2343.52 L 9586.81 2859.63 M 5991.74 3053.88 L 5918.2 2505.28 M 11054.9 4192.63 L 11470.8 3961.75 M 11711.1 2449.4 L 11938.8 2066.87 M 11938.8 2066.87 L 11223.4 1893.74 M 3943 2251.82 L 3521.41 2367.85 M 4106.99 2730.33 L 3943 2251.82 M 11404.7 4089.79 L 11227.7 4627.03 M 11779.5 4913.84 L 11404.7 4089.79 M 2696.58 4223.63 L 2126.82 3960.61 M 9619.49 721.691 L 9096.59 855.68 M 2063.64 5586.86 L 2010.41 4969.34 M 2010.41 4969.34 L 1620.57 4823.65 M 10564.7 2275.32 L 10699.2 1424.98 M 11470.8 3961.75 L 11337.1 3350.8 M 4389.24 5186.25 L 4221.01 5665.73 M 7441.3 1340.35 L 6884.96 1409.61 M 6884.96 1409.61 L 7031.42 1832.83 M 10598.7 433.557 L 10117 1084.15 M 9297.95 4347.74 L 9764.05 4077.99 M 291.581 4488.53 L 86.2542 4615.99 M 4079.22 3127.42 L 4106.99 2730.33 M 5220.24 3630.37 L 5125.55 2827.82 M 13087.5 1041.33 L 13744.7 795.182 M 13744.7 795.182 L 12517 774.32 M 9558.74 2864.65 L 9480.02 2343.52 M 6619.58 1799.68 L 6176.75 1680.36 M 6176.75 1680.36 L 6146.58 2028.84 M 6146.58 2028.84 L 6298.63 2281.58 M 9000.66 2959.22 L 8329.48 3523.36 M 2781.68 3020.15 L 2482.88 3158.31 M 6342.58 4972.66 L 6357.8 5731.55 M 3170.4 5382.37 L 2875 6021.43 M 1360.28 5566.35 L 1717.2 5975.89 M 5537.14 4606.38 L 5667.35 5035.6 M 2244.09 3519.16 L 1570.25 3322.93 M 1570.25 3322.93 L 2129.7 3954.46 M 596.717 4700.02 L 935.976 4185.54 M 935.976 4185.54 L 473.731 3694.02 M 3521.41 2367.85 L 3017.24 2425.77 M 6601.06 7313.33 L 6829.02 6725.03 M 7885.94 5183.33 L 8427.22 4957.87 M 8427.22 4957.87 L 8380.27 4651.27 M 9221.97 4186.64 L 8660.44 4300.3 M 8660.44 4300.3 L 8627.35 4748.92 M 13175.4 2555.82 L 13779 2583.99 M 13779 2583.99 L 13459 2361.82 M 3616.45 4186.12 L 3425.26 4678.53 M 4355.79 4688.41 L 4854.01 5204.2 M 10259.8 3549.73 L 10364.6 2823.83 M 8674.05 5055.56 L 9626.31 4943.79 M 10721 3921.08 L 10965 3191.25 M 12702.8 2861.19 L 12230.7 3240.08 M 11412 2681.27 L 11478.1 3279.43 M 5918.2 2505.28 L 5749.55 2263.31 M 13088.6 1660.61 L 12429 1851.63 M 12429 1851.63 L 13097.3 1944.52 M 6272.69 6388.19 L 5857.01 6330.85 M 7469.1 2540.87 L 7156.24 2545.37 M 6357.8 5731.55 L 6260.97 4978.71 M 7843.2 3986.97 L 8194.51 3455.81 M 14086 2064.6 L 13930.3 1564.21 M 13930.3 1564.21 L 13448.1 1471.45 M 11941 2068.21 L 11711.1 2449.4 M 12717.4 2695.38 L 11941 2068.21 M 13194.1 3814.25 L 13428.5 3489.75 M 13138.9 6177.88 L 12879.2 5668.76 M 12962 6315.84 L 13138.9 6177.88 M 10586.1 3588.02 L 10193.3 4196.72 M 11646.9 6.01861 L 11612 501.153 M 12129.2 174.736 L 11646.9 6.01861 M 4307.04 2206.53 L 4498.54 2674.71 M 4780.45 2127.29 L 4307.04 2206.53 M 12893 4750.93 L 12468.8 5108.06 M 6973.66 3636.33 L 6688.53 4411.07 M 6688.53 4411.07 L 7291.69 4461.76 M 8437.3 4983.79 L 7885.94 5183.33 M 8391.99 5282.49 L 8437.3 4983.79 M 7282.52 6305.79 L 7822.51 5877.81 M 12417.1 4338.02 L 12201 3604.22 M 3415.19 3641.62 L 3127.64 3911.53 M 3127.64 3911.53 L 3616.45 4186.12 M 3925.11 6039.7 L 3486.81 5455.12 M 3894.71 6533.24 L 3925.11 6039.7 M 9248.98 3818.37 L 8532.61 4247.58 M 8532.61 4247.58 L 9096.67 4147.18 M 3096.6 7165.74 L 2570.05 7491.52 M 2570.05 7491.52 L 3342.5 7815.68 M 2562.99 7479.81 L 3096.6 7165.74 M 2913.46 6622.82 L 2562.99 7479.81 M 6159.78 7182.47 L 6272.69 6388.19 M 5882.83 7196.85 L 6159.78 7182.47 M 11447.4 3282.02 L 11412 2681.27 M 11050.3 2767.9 L 11447.4 3282.02 M 10206.1 4560.39 L 10844.1 4730.7 M 10193.3 4196.72 L 10206.1 4560.39 M 2426.9 2547.68 L 1956.67 2426.89 M 7866.45 4499.62 L 7723.52 4981.43 M 10699.2 1424.98 L 10687.4 2285.82 M 7822.51 5877.81 L 8043.49 5515.27 M 1717.2 5975.89 L 2130.22 6084.79 M 12763.8 3837.43 L 13164.4 4137.02 M 4270.03 3970.89 L 4355.79 4688.41 M 473.731 3694.02 L 1096.99 3982.17 M 1096.99 3982.17 L 666.012 3120.88 M 4327.1 4700.6 L 4389.24 5186.25 M 4838.17 5203.66 L 4327.1 4700.6 M 4812.71 6178 L 4838.17 5203.66 M 4498.54 2674.71 L 5377.45 2786.27 M 1063.92 5083.25 L 596.717 4700.02 M 12597.5 5774.98 L 12877.4 5664.07 M 3793.86 7311.75 L 3496.31 6965.23 M 3342.5 7815.68 L 3793.86 7311.75 M 5468.63 6494.79 L 5012.48 7062.89 M 5012.48 7062.89 L 5522.66 7256.39 M 12628.5 2920.09 L 12717.4 2695.38 M 9907.45 4252.97 L 9394.84 4418.04 M 9394.84 4418.04 L 9100.57 4721.73 M 9792.28 4598.16 L 9907.45 4252.97 M 86.2542 4615.99 L 778.583 5210.14 M 8634.73 799.884 L 7824.14 1055.93 M 9814.08 3616.23 L 9221.97 4186.64 M 6274.14 6376.52 L 6196.93 7175.06 M 6196.93 7175.06 L 6601.06 7313.33 M 8516.1 2109.8 L 8055.94 2826.07 M 7060.01 1919.26 L 6619.58 1799.68 M 7156.24 2545.37 L 6900.85 2177.48 M 2063.29 5587.69 L 1539.54 5367.57 M 13228.2 4278.82 L 12893 4750.93 M 13236.9 4914.11 L 13228.2 4278.82 M 12468.8 5108.06 L 12035.1 4585.32 M 11784.8 4909.79 L 12094.9 5317.82 M 3800.64 3206.5 L 3451.26 2801.18 M 3451.26 2801.18 L 3521.82 3296.15 M 10844.1 4730.7 L 10721 3921.08 M 13178.4 5321.39 L 13236.9 4914.11 M 10285 1489.75 L 9716.66 1644.54 M 12279.4 3585.58 L 12417.1 4338.02 M 12034.3 6054.27 L 12273.9 5970.38 M 11777.4 5646.18 L 12034.3 6054.27 M 9586.81 2859.63 L 9248.98 3818.37 M 8869.22 1271.97 L 9283.16 1098 M 7245.72 4475.13 L 6640.76 4494.59 M 7018.63 4983.82 L 7245.72 4475.13 M 6829.02 6725.03 L 6688.85 6378.39 M 9764.05 4077.99 L 10259.8 3549.73 M 8025.34 2805.46 L 8516.1 2109.8 M 12519.2 5061.77 L 12884.8 4644.88 M 2130.22 6084.79 L 2857.44 6563.83 M 778.583 5210.14 L 0 5164.14 M 0 5164.14 L 325.351 5542.62 M 10794.8 4896.12 L 11410.3 5176.12 M 11227.7 4627.03 L 10794.8 4896.12 M 10673.6 887.215 L 10795.4 411.2 M 10795.4 411.2 L 10598.7 433.557 M 8431.41 4204.35 L 8643.83 3769.52 M 1620.57 4823.65 L 935.179 4715.59 M 5605.73 4098.89 L 5537.14 4606.38 M 3798.33 7307.86 L 4254.06 7362.04 M 4163.86 3986.14 L 4079.22 3127.42 M 7723.52 4981.43 L 7842.9 4493.25 M 3486.81 5455.12 L 3240.47 4745.67 M 7145.96 5013.47 L 7316.22 5553.76 M 48.6019 3520.48 L 291.581 4488.53 M 12877.4 5664.07 L 13142.7 6170.28 M 13142.7 6170.28 L 13178.4 5321.39 M 12230.7 3240.08 L 12279.4 3585.58 M 12517 774.32 L 12400.5 477.202 M 4791.77 3796.31 L 4208.64 3110.2 M 4208.64 3110.2 L 4270.03 3970.89 M 10364.6 2823.83 L 10564.7 2275.32 M 2065.35 4967.89 L 2063.29 5587.69 M 2705.1 5074.28 L 2065.35 4967.89 M 6911.94 3549.59 L 7279.87 3012.47 M 8643.83 3769.52 L 8861.76 3374.26 M 8451.82 4214.64 L 9181.57 3808.61 M 8654.02 3774.97 L 8451.82 4214.64 M 10911.7 4739.85 L 11054.9 4192.63 M 10764.6 3934.24 L 10911.7 4739.85 M 3453.93 2798.9 L 3800.64 3206.5 M 9852.28 5103.34 L 10342.4 4963.32 M 10342.4 4963.32 L 9792.28 4598.16 M 2857.44 6563.83 L 3352.08 6150.14 M 9181.57 3808.61 L 9558.74 2864.65 M 10698.8 856.524 L 11050.2 1171.31 M 935.179 4715.59 L 1063.92 5083.25 M 3375.16 4234.9 L 2870.7 3990.23 M 3240.47 4745.67 L 3375.16 4234.9 M 10049.8 1814.07 L 10063.7 2477.56 M 5667.35 5035.6 L 5883.55 5796.87 M 8194.51 3455.81 L 8905.2 2942.34 M 8905.2 2942.34 L 9002.67 2471.92 M 12182.2 1334.75 L 13088.6 1660.61 M 7053.23 5000.95 L 6774.24 5520.71 M 7273.91 5522.69 L 7053.23 5000.95 M 4246.87 2714.48 L 4221.57 3111.74 M 5125.55 2827.82 L 4246.87 2714.48 M 4996.19 7049.42 L 5468.63 6494.79 M 7031.42 1832.83 L 7334.59 1910.27 M 11694.8 1588.13 L 12182.2 1334.75 M 2768.92 2995.36 L 2426.9 2547.68 M 2482.88 3158.31 L 2768.92 2995.36 M 6402.04 3988.19 L 6342.58 4972.66 M 5427.05 4634.08 L 5433.24 4122.02 M 3521.82 3296.15 L 3415.19 3641.62 M 1318.13 2501.67 L 1240.74 2811.25 M 2174.15 3005.27 L 1318.13 2501.67 M 12927.5 3182.73 L 13613.8 2812.12 M 13613.8 2812.12 L 12702.8 2861.19 M 12035.1 4585.32 L 12519.2 5061.77 M 7753.61 3353.02 L 7331.6 3092.5 M 7600.45 3729.8 L 7753.61 3353.02 M 12884.8 4644.88 L 13164 4137.64 M 13164 4137.64 L 12763.8 3837.43 M 4308.5 4698.01 L 3887.86 5045.49 M 4378.44 5182.6 L 4308.5 4698.01 M 2129.7 3954.46 L 2696.58 4223.63 M 8055.94 2826.07 L 7755.13 3353.65 M 9283.16 1098 L 9701.11 1567.48 M 1794.08 4726.67 L 2165.3 4914.81 M 1952.76 4227.21 L 1794.08 4726.67 M 13428.5 3489.75 L 13804.2 3212.94 M 13804.2 3212.94 L 13409 3314.23 M 8043.49 5515.27 L 8391.99 5282.49 M 5377.45 2786.27 L 5430.15 3592.67 M 1636.64 3851.5 L 1952.76 4227.21 M 2126.82 3960.61 L 1636.64 3851.5 M 6688.85 6378.39 L 6834.49 6722.77 M 3280.31 2901.97 L 2781.68 3020.15 M 3305.83 3401.29 L 3280.31 2901.97 M 7999.68 4068.14 L 7866.45 4499.62 M 13459 2361.82 L 14086 2064.6 M 12400.5 477.202 L 12875.4 58.5145 M 12875.4 58.5145 L 12129.2 174.736 M 4254.06 7362.04 L 4376.76 6547.15 M 4305.74 4694.7 L 4163.86 3986.14 M 3887.86 5045.49 L 4305.74 4694.7 M 8329.48 3523.36 L 7999.68 4068.14 M 2165.3 4914.81 L 2798.75 5053.83 M 11803.5 3813.51 L 11412.6 4084.52 M 11412.6 4084.52 L 11784.8 4909.79 M 325.351 5542.62 L 705.451 5691.01 M 705.451 5691.01 L 1360.28 5566.35 M 13097.3 1944.52 L 13175.4 2555.82 M 7692.88 4412.8 L 7843.2 3986.97 M 7291.69 4461.76 L 7692.88 4412.8 M 12879.2 5668.76 L 12597.5 5774.98 M 13448.1 1471.45 L 13902.8 1258.24 M 13902.8 1258.24 L 13087.5 1041.33 M 6189.8 3360.27 L 5991.74 3053.88 M 5857.01 6330.85 L 6274.14 6376.52 M 131.688 2993.02 L 48.6019 3520.48 M 8197.1 2225.81 L 7469.1 2540.87 M 3567.04 5416.03 L 3944.98 6041.33 M 7755.13 3353.65 L 7600.45 3729.8 M 8833.55 1581.28 L 8317.57 1526.65 M 4221.57 3111.74 L 4810.12 3793.21 M 6733.4 2502.72 L 6954.88 2743.83 M 5598.28 5048.65 L 5427.05 4634.08 M 6983.17 5962.88 L 7273.91 5522.69 M 9716.66 1644.54 L 9187.61 1305.13 M 11410.3 5176.12 L 11777.4 5646.18 M 5433.24 4122.02 L 5220.24 3630.37 M 4810.12 3793.21 L 4944.71 4645.8 M 11478.1 3279.43 L 11803.5 3813.51 M 9935.09 2936.38 L 9814.08 3616.23 M 3944.98 6041.33 L 3894.71 6533.24 M 10022.7 2477.16 L 10049.8 1814.07 M 11337.1 3350.8 L 11050.3 2767.9 M 9152.97 1895.89 L 9040.3 2480.45 M 7331.6 3092.5 L 6973.66 3636.33 M 2875 6021.43 L 3111.72 5358.39 M 11050.2 1171.31 L 10673.6 887.215 M 5749.55 2263.31 L 5775.65 1914.5 M 5775.65 1914.5 L 5347.59 2132.14 M 8381.11 1095.96 L 8869.22 1271.97 M 1956.67 2426.89 L 1326.54 2487.64 M 1326.54 2487.64 L 2174.15 3005.27 M 12094.9 5317.82 L 11779.5 4913.84 M 4280.05 7365.53 L 4656.57 7260.26 M 4376.76 6547.15 L 4280.05 7365.53 M 4221.01 5665.73 L 4378.44 5182.6 M 1240.74 2811.25 L 2244.09 3519.16 M 6834.49 6722.77 L 7282.52 6305.79 M 4944.71 4645.8 L 4791.77 3796.31 M 9626.31 4943.79 L 9852.28 5103.34 M 13409 3314.23 L 12927.5 3182.73 M 12201 3604.22 L 12129.5 3262.73 M 7842.9 4493.25 L 7441.6 4541.31 M 7441.6 4541.31 L 7145.96 5013.47 M 9710.72 3600.46 L 9870.03 2928.55 M 7316.22 5553.76 L 6983.17 5962.88 M 3496.31 6965.23 L 3798.33 7307.86 M 11612 501.153 L 11935.5 769.497 M 5430.15 3592.67 L 5605.73 4098.89 M 4656.57 7260.26 L 4996.19 7049.42 M 13164.4 4137.02 L 13194.1 3814.25 M 10884.8 401.737 L 10698.8 856.524 M 3111.72 5358.39 L 2705.1 5074.28 M 8380.27 4651.27 L 8431.41 4204.35 M 6900.85 2177.48 L 7437.56 2015.43 M 7437.56 2015.43 L 7060.01 1919.26 M 9040.3 2480.45 L 9000.66 2959.22 M 9096.67 4147.18 L 9710.72 3600.46 M 6511.42 3193.79 L 6911.94 3549.59 M 6188.68 3995.1 L 6623.47 3674.82 M 6623.47 3674.82 L 6189.8 3360.27 M 9096.59 855.68 L 8634.73 799.884 M 1539.54 5367.57 L 2063.64 5586.86 M 8861.76 3374.26 L 8654.02 3774.97 M 5883.55 5796.87 L 5611.55 5053.71 M 5611.55 5053.71 L 5292.07 5871.61 M 666.012 3120.88 L 131.688 2993.02 M 6260.97 4978.71 L 6188.68 3995.1 M 10535.6 391.232 L 9619.49 721.691 M 10117 1084.15 L 10535.6 391.232 M 5347.59 2132.14 L 4780.45 2127.29" />
<path fill="none" style="stroke:#cccccc;stroke-width:17.607500;stroke-dasharray:140.860000, 140.860000;" d=" M 4854.01 5204.2 L 5292.07 5871.61 M 4812.71 6178 L 5292.07 5871.61 M 5598.28 5048.65 L 4854.01 5204.2 M 5598.28 5048.65 L 4944.71 4645.8 M 5427.05 4634.08 L 4944.71 4645.8 M 5433.24 4122.02 L 4944.71 4645.8 M 5468.63 6494.79 L 5292.07 5871.61 M 5883.55 5796.87 L 5292.07 5871.61 M 5468.63 6494.79 L 5883.55 5796.87 M 5857.01 6330.85 L 5883.55 5796.87 M 5857.01 6330.85 L 6357.8 5731.55 M 6274.14 6376.52 L 6357.8 5731.55 M 6688.85 6378.39 L 6357.8 5731.55 M 6688.85 6378.39 L 6983.17 5962.88 M 6834.49 6722.77 L 6983.17 5962.88 M 4944.71 4645.8 L 4854.01 5204.2 M 5433.24 4122.02 L 4810.12 3793.21 M 5220.24 3630.37 L 4810.12 3793.21 M 5125.55 2827.82 L 4810.12 3793.21 M 6357.8 5731.55 L 5883.55 5796.87 M 5125.55 2827.82 L 4221.57 3111.74 M 4812.71 6178 L 5468.63 6494.79 M 6274.14 6376.52 L 6688.85 6378.39 M 6274.14 6376.52 L 6829.02 6725.03 M 6260.97 4978.71 L 5883.55 5796.87 M 6260.97 4978.71 L 5667.35 5035.6 M 6260.97 4978.71 L 5537.14 4606.38 M 6188.68 3995.1 L 5537.14 4606.38 M 6188.68 3995.1 L 5605.73 4098.89 M 6189.8 3360.27 L 5605.73 4098.89 M 5991.74 3053.88 L 5605.73 4098.89 M 5991.74 3053.88 L 5430.15 3592.67 M 5918.2 2505.28 L 5430.15 3592.67 M 5918.2 2505.28 L 5377.45 2786.27 M 5749.55 2263.31 L 5377.45 2786.27 M 5347.59 2132.14 L 5377.45 2786.27 M 5749.55 2263.31 L 5347.59 2132.14 M 4944.71 4645.8 L 4355.79 4688.41 M 4791.77 3796.31 L 4355.79 4688.41 M 4791.77 3796.31 L 4270.03 3970.89 M 7282.52 6305.79 L 6983.17 5962.88 M 7282.52 6305.79 L 7316.22 5553.76 M 7822.51 5877.81 L 7316.22 5553.76 M 7885.94 5183.33 L 7316.22 5553.76 M 7885.94 5183.33 L 7723.52 4981.43 M 7885.94 5183.33 L 8380.27 4651.27 M 7723.52 4981.43 L 7316.22 5553.76 M 7822.51 5877.81 L 7885.94 5183.33 M 8380.27 4651.27 L 7723.52 4981.43 M 8043.49 5515.27 L 7885.94 5183.33 M 8391.99 5282.49 L 7885.94 5183.33 M 7723.52 4981.43 L 7145.96 5013.47 M 7842.9 4493.25 L 7145.96 5013.47 M 5468.63 6494.79 L 5857.01 6330.85 M 4812.71 6178 L 4996.19 7049.42 M 5347.59 2132.14 L 4498.54 2674.71 M 4780.45 2127.29 L 4498.54 2674.71 M 5522.66 7256.39 L 5857.01 6330.85 M 5882.83 7196.85 L 5857.01 6330.85 M 5882.83 7196.85 L 6272.69 6388.19 M 5468.63 6494.79 L 5522.66 7256.39 M 6983.17 5962.88 L 6357.8 5731.55 M 6774.24 5520.71 L 6357.8 5731.55 M 6983.17 5962.88 L 6774.24 5520.71 M 6774.24 5520.71 L 6342.58 4972.66 M 7273.91 5522.69 L 6774.24 5520.71 M 7018.63 4983.82 L 6342.58 4972.66 M 6640.76 4494.59 L 6342.58 4972.66 M 7018.63 4983.82 L 6640.76 4494.59 M 6640.76 4494.59 L 6402.04 3988.19 M 8431.41 4204.35 L 7723.52 4981.43 M 8431.41 4204.35 L 7866.45 4499.62 M 4812.71 6178 L 4656.57 7260.26 M 4376.76 6547.15 L 4656.57 7260.26 M 4812.71 6178 L 4376.76 6547.15 M 3944.98 6041.33 L 4376.76 6547.15 M 4812.71 6178 L 3944.98 6041.33 M 4221.01 5665.73 L 3944.98 6041.33 M 3887.86 5045.49 L 3944.98 6041.33 M 3887.86 5045.49 L 3567.04 5416.03 M 3887.86 5045.49 L 3425.26 4678.53 M 3887.86 5045.49 L 3616.45 4186.12 M 4305.74 4694.7 L 3616.45 4186.12 M 4163.86 3986.14 L 3616.45 4186.12 M 4163.86 3986.14 L 3415.19 3641.62 M 3894.71 6533.24 L 4376.76 6547.15 M 3894.71 6533.24 L 4254.06 7362.04 M 3894.71 6533.24 L 3798.33 7307.86 M 3894.71 6533.24 L 3496.31 6965.23 M 3352.08 6150.14 L 3496.31 6965.23 M 3894.71 6533.24 L 3352.08 6150.14 M 3925.11 6039.7 L 3352.08 6150.14 M 3486.81 5455.12 L 3352.08 6150.14 M 3170.4 5382.37 L 3352.08 6150.14 M 3486.81 5455.12 L 3170.4 5382.37 M 3240.47 4745.67 L 3170.4 5382.37 M 3240.47 4745.67 L 2798.75 5053.83 M 2870.7 3990.23 L 2798.75 5053.83 M 2870.7 3990.23 L 2696.58 4223.63 M 2870.7 3990.23 L 2129.7 3954.46 M 2870.7 3990.23 L 2244.09 3519.16 M 2870.7 3990.23 L 2482.88 3158.31 M 2870.7 3990.23 L 2781.68 3020.15 M 2482.88 3158.31 L 2244.09 3519.16 M 2482.88 3158.31 L 2174.15 3005.27 M 2426.9 2547.68 L 2174.15 3005.27 M 2913.46 6622.82 L 3496.31 6965.23 M 2913.46 6622.82 L 3096.6 7165.74 M 3096.6 7165.74 L 3496.31 6965.23 M 2875 6021.43 L 3352.08 6150.14 M 4221.01 5665.73 L 3887.86 5045.49 M 4378.44 5182.6 L 3887.86 5045.49 M 3415.19 3641.62 L 3616.45 4186.12 M 2482.88 3158.31 L 2426.9 2547.68 M 4812.71 6178 L 4221.01 5665.73 M 4838.17 5203.66 L 4221.01 5665.73 M 4838.17 5203.66 L 4389.24 5186.25 M 2875 6021.43 L 2857.44 6563.83 M 2875 6021.43 L 2130.22 6084.79 M 2063.29 5587.69 L 2130.22 6084.79 M 2063.29 5587.69 L 1717.2 5975.89 M 1539.54 5367.57 L 1717.2 5975.89 M 1539.54 5367.57 L 1360.28 5566.35 M 1539.54 5367.57 L 1063.92 5083.25 M 2875 6021.43 L 2063.29 5587.69 M 3111.72 5358.39 L 2063.29 5587.69 M 2705.1 5074.28 L 2063.29 5587.69 M 1063.92 5083.25 L 1360.28 5566.35 M 1063.92 5083.25 L 778.583 5210.14 M 596.717 4700.02 L 778.583 5210.14 M 596.717 4700.02 L 86.2542 4615.99 M 596.717 4700.02 L 291.581 4488.53 M 596.717 4700.02 L 473.731 3694.02 M 473.731 3694.02 L 291.581 4488.53 M 473.731 3694.02 L 48.6019 3520.48 M 473.731 3694.02 L 131.688 2993.02 M 473.731 3694.02 L 666.012 3120.88 M 778.583 5210.14 L 1360.28 5566.35 M 3173.77 3737.87 L 2781.68 3020.15 M 3305.83 3401.29 L 2781.68 3020.15 M 1539.54 5367.57 L 935.179 4715.59 M 4163.86 3986.14 L 3521.82 3296.15 M 4163.86 3986.14 L 3800.64 3206.5 M 4079.22 3127.42 L 3800.64 3206.5 M 4079.22 3127.42 L 3453.93 2798.9 M 4079.22 3127.42 L 3521.41 2367.85 M 3521.41 2367.85 L 3453.93 2798.9 M 3017.24 2425.77 L 3453.93 2798.9 M 3017.24 2425.77 L 2971.7 2972.25 M 3800.64 3206.5 L 3521.82 3296.15 M 1539.54 5367.57 L 1620.57 4823.65 M 8431.41 4204.35 L 7999.68 4068.14 M 8643.83 3769.52 L 7999.68 4068.14 M 8643.83 3769.52 L 8329.48 3523.36 M 8861.76 3374.26 L 8329.48 3523.36 M 8861.76 3374.26 L 9000.66 2959.22 M 9558.74 2864.65 L 9000.66 2959.22 M 9558.74 2864.65 L 9040.3 2480.45 M 9480.02 2343.52 L 9040.3 2480.45 M 9480.02 2343.52 L 9152.97 1895.89 M 9716.66 1644.54 L 9152.97 1895.89 M 8861.76 3374.26 L 9558.74 2864.65 M 9480.02 2343.52 L 9716.66 1644.54 M 10022.7 2477.16 L 9716.66 1644.54 M 10049.8 1814.07 L 9716.66 1644.54 M 9480.02 2343.52 L 10022.7 2477.16 M 9480.02 2343.52 L 9870.03 2928.55 M 9586.81 2859.63 L 9870.03 2928.55 M 9187.61 1305.13 L 9152.97 1895.89 M 8833.55 1581.28 L 9152.97 1895.89 M 8833.55 1581.28 L 8516.1 2109.8 M 9248.98 3818.37 L 9870.03 2928.55 M 8861.76 3374.26 L 9181.57 3808.61 M 8654.02 3774.97 L 9181.57 3808.61 M 10049.8 1814.07 L 10285 1489.75 M 10564.7 2275.32 L 10285 1489.75 M 10049.8 1814.07 L 10564.7 2275.32 M 10063.7 2477.56 L 10564.7 2275.32 M 10063.7 2477.56 L 10364.6 2823.83 M 10699.2 1424.98 L 10285 1489.75 M 10699.2 1424.98 L 10117 1084.15 M 10673.6 887.215 L 10117 1084.15 M 10699.2 1424.98 L 10673.6 887.215 M 10673.6 887.215 L 10598.7 433.557 M 10699.2 1424.98 L 11050.2 1171.31 M 10699.2 1424.98 L 11223.4 1893.74 M 10687.4 2285.82 L 11223.4 1893.74 M 10117 1084.15 L 10285 1489.75 M 9935.09 2936.38 L 10364.6 2823.83 M 9935.09 2936.38 L 10259.8 3549.73 M 9814.08 3616.23 L 10259.8 3549.73 M 9814.08 3616.23 L 9764.05 4077.99 M 9221.97 4186.64 L 9764.05 4077.99 M 10687.4 2285.82 L 11050.3 2767.9 M 10558 2855.16 L 11050.3 2767.9 M 10965 3191.25 L 11050.3 2767.9 M 10965 3191.25 L 11337.1 3350.8 M 10558 2855.16 L 10965 3191.25 M 10586.1 3588.02 L 10965 3191.25 M 9248.98 3818.37 L 9710.72 3600.46 M 9248.98 3818.37 L 9096.67 4147.18 M 10117 1084.15 L 9701.11 1567.48 M 10117 1084.15 L 9619.49 721.691 M 9619.49 721.691 L 9701.11 1567.48 M 9619.49 721.691 L 9283.16 1098 M 9096.59 855.68 L 9283.16 1098 M 9096.59 855.68 L 8869.22 1271.97 M 8634.73 799.884 L 8869.22 1271.97 M 8634.73 799.884 L 8381.11 1095.96 M 8516.1 2109.8 L 9152.97 1895.89 M 8516.1 2109.8 L 9002.67 2471.92 M 8055.94 2826.07 L 9002.67 2471.92 M 8055.94 2826.07 L 8905.2 2942.34 M 8833.55 1581.28 L 8197.1 2225.81 M 8317.57 1526.65 L 8197.1 2225.81 M 8197.1 2225.81 L 8516.1 2109.8 M 9221.97 4186.64 L 9297.95 4347.74 M 9221.97 4186.64 L 8627.35 4748.92 M 8055.94 2826.07 L 8194.51 3455.81 M 7755.13 3353.65 L 8194.51 3455.81 M 7824.14 1055.93 L 8381.11 1095.96 M 7824.14 1055.93 L 7819.39 1515.39 M 7824.14 1055.93 L 7441.3 1340.35 M 7441.3 1340.35 L 7819.39 1515.39 M 7031.42 1832.83 L 7819.39 1515.39 M 7441.3 1340.35 L 7031.42 1832.83 M 7334.59 1910.27 L 7819.39 1515.39 M 10965 3191.25 L 11470.8 3961.75 M 7600.45 3729.8 L 8194.51 3455.81 M 7600.45 3729.8 L 7843.2 3986.97 M 7600.45 3729.8 L 7291.69 4461.76 M 7600.45 3729.8 L 6973.66 3636.33 M 7291.69 4461.76 L 7843.2 3986.97 M 7600.45 3729.8 L 7331.6 3092.5 M 11223.4 1893.74 L 11050.2 1171.31 M 11223.4 1893.74 L 11694.8 1588.13 M 11694.8 1588.13 L 11050.2 1171.31 M 11372.8 948.646 L 11050.2 1171.31 M 11372.8 948.646 L 10698.8 856.524 M 11694.8 1588.13 L 11372.8 948.646 M 11694.8 1588.13 L 11935.5 769.497 M 12182.2 1334.75 L 11935.5 769.497 M 12182.2 1334.75 L 12517 774.32 M 11935.5 769.497 L 11372.8 948.646 M 12182.2 1334.75 L 13087.5 1041.33 M 12517 774.32 L 11935.5 769.497 M 12400.5 477.202 L 11935.5 769.497 M 12400.5 477.202 L 11612 501.153 M 12129.2 174.736 L 11612 501.153 M 13087.5 1041.33 L 12517 774.32 M 11050.3 2767.9 L 11223.4 1893.74 M 11412 2681.27 L 11223.4 1893.74 M 11412 2681.27 L 11711.1 2449.4 M 12628.5 2920.09 L 11711.1 2449.4 M 11412 2681.27 L 12628.5 2920.09 M 11711.1 2449.4 L 11223.4 1893.74 M 11412 2681.27 L 12129.5 3262.73 M 11478.1 3279.43 L 12129.5 3262.73 M 8197.1 2225.81 L 8025.34 2805.46 M 8197.1 2225.81 L 7279.87 3012.47 M 13088.6 1660.61 L 13087.5 1041.33 M 13448.1 1471.45 L 13087.5 1041.33 M 6274.14 6376.52 L 6601.06 7313.33 M 13088.6 1660.61 L 13448.1 1471.45 M 13088.6 1660.61 L 13097.3 1944.52 M 13097.3 1944.52 L 13448.1 1471.45 M 13097.3 1944.52 L 14086 2064.6 M 13097.3 1944.52 L 13459 2361.82 M 13175.4 2555.82 L 13459 2361.82 M 778.583 5210.14 L 325.351 5542.62 M 3240.47 4745.67 L 2870.7 3990.23 M 7469.1 2540.87 L 7279.87 3012.47 M 7156.24 2545.37 L 7279.87 3012.47 M 7156.24 2545.37 L 6954.88 2743.83 M 6900.85 2177.48 L 6954.88 2743.83 M 6900.85 2177.48 L 6733.4 2502.72 M 6900.85 2177.48 L 6298.63 2281.58 M 6900.85 2177.48 L 6619.58 1799.68 M 6900.85 2177.48 L 7060.01 1919.26 M 6298.63 2281.58 L 6733.4 2502.72 M 2063.64 5586.86 L 1620.57 4823.65 M 11803.5 3813.51 L 12129.5 3262.73 M 11803.5 3813.51 L 12201 3604.22 M 11803.5 3813.51 L 12417.1 4338.02 M 12035.1 4585.32 L 12417.1 4338.02 M 12519.2 5061.77 L 12417.1 4338.02 M 12884.8 4644.88 L 12417.1 4338.02 M 12884.8 4644.88 L 12763.8 3837.43 M 12763.8 3837.43 L 12417.1 4338.02 M 12763.8 3837.43 L 12279.4 3585.58 M 12763.8 3837.43 L 12230.7 3240.08 M 12927.5 3182.73 L 12230.7 3240.08 M 12927.5 3182.73 L 12702.8 2861.19 M 12763.8 3837.43 L 12927.5 3182.73 M 13164.4 4137.02 L 12927.5 3182.73 M 13194.1 3814.25 L 12927.5 3182.73 M 11803.5 3813.51 L 12035.1 4585.32 M 11412.6 4084.52 L 12035.1 4585.32 M 11784.8 4909.79 L 12035.1 4585.32 M 12094.9 5317.82 L 12035.1 4585.32 M 12094.9 5317.82 L 12468.8 5108.06 M 12094.9 5317.82 L 12597.5 5774.98 M 12597.5 5774.98 L 12468.8 5108.06 M 12877.4 5664.07 L 12468.8 5108.06 M 13178.4 5321.39 L 12468.8 5108.06 M 12877.4 5664.07 L 13178.4 5321.39 M 12273.9 5970.38 L 12597.5 5774.98 M 12094.9 5317.82 L 12273.9 5970.38 M 12094.9 5317.82 L 12034.3 6054.27 M 12962 6315.84 L 12597.5 5774.98 M 12962 6315.84 L 12879.2 5668.76 M 1956.67 2426.89 L 2174.15 3005.27 M 13194.1 3814.25 L 13409 3314.23 M 13428.5 3489.75 L 13409 3314.23 M 2696.58 4223.63 L 2798.75 5053.83 M 2696.58 4223.63 L 1952.76 4227.21 M 2126.82 3960.61 L 1952.76 4227.21 M 1952.76 4227.21 L 2798.75 5053.83 M 1952.76 4227.21 L 2165.3 4914.81 M 8627.35 4748.92 L 9297.95 4347.74 M 8627.35 4748.92 L 9100.57 4721.73 M 8674.05 5055.56 L 9100.57 4721.73 M 9626.31 4943.79 L 9100.57 4721.73 M 9792.28 4598.16 L 9100.57 4721.73 M 9907.45 4252.97 L 9100.57 4721.73 M 9626.31 4943.79 L 9792.28 4598.16 M 9852.28 5103.34 L 9792.28 4598.16 M 10586.1 3588.02 L 10721 3921.08 M 10193.3 4196.72 L 10721 3921.08 M 10193.3 4196.72 L 10844.1 4730.7 M 10965 3191.25 L 11054.9 4192.63 M 10764.6 3934.24 L 11054.9 4192.63 M 11050.3 2767.9 L 11412 2681.27 M 11372.8 948.646 L 10884.8 401.737 M 14086 2064.6 L 13448.1 1471.45 M 7279.87 3012.47 L 8025.34 2805.46 M 6973.66 3636.33 L 7291.69 4461.76 M 12094.9 5317.82 L 11777.4 5646.18 M 3096.6 7165.74 L 3793.86 7311.75 M 3096.6 7165.74 L 3342.5 7815.68 M 12717.4 2695.38 L 11711.1 2449.4 M 11779.5 4913.84 L 11777.4 5646.18 M 6619.58 1799.68 L 6298.63 2281.58 M 6619.58 1799.68 L 6146.58 2028.84 M 2174.15 3005.27 L 2244.09 3519.16 M 2174.15 3005.27 L 1240.74 2811.25 M 6954.88 2743.83 L 7279.87 3012.47 M 6954.88 2743.83 L 6911.94 3549.59 M 6954.88 2743.83 L 6511.42 3193.79 M 6722.42 2513.28 L 6511.42 3193.79 M 13178.4 5321.39 L 12893 4750.93 M 13236.9 4914.11 L 12893 4750.93 M 11779.5 4913.84 L 11410.3 5176.12 M 11779.5 4913.84 L 11227.7 4627.03 M 325.351 5542.62 L 1360.28 5566.35 M 11227.7 4627.03 L 11410.3 5176.12 M 12400.5 477.202 L 12129.2 174.736 M 2244.09 3519.16 L 2129.7 3954.46 M 6188.68 3995.1 L 6189.8 3360.27 M 4106.99 2730.33 L 3521.41 2367.85 M 11566.4 496.026 L 10884.8 401.737 M 11566.4 496.026 L 11241.6 274.677" />
</svg>
