<?xml version="1.0"?>
<svg width="8545" height="8024" version="1.1" xmlns="http://www.w3.org/2000/svg" >
<path fill="none" style="stroke:black;stroke-width:21.362500;" d=" M 6763.22 1200.1 L 6375.15 988.813 M 5584.05 3798.58 L 4964.12 3180.65 M 6728.83 2474.32 L 6304.44 2428.16 M 6551.23 2726.77 L 6728.83 2474.32 M 1732.69 6096.06 L 2095.42 5796.11 M 2095.42 5796.11 L 1774.64 5631.66 M 3755.11 5422.53 L 4019.43 5963.84 M 2362.68 2453.85 L 2147.86 2603.04 M 1335.32 6126.98 L 863.042 6586.77 M 863.042 6586.77 L 1348.41 6898.08 M 5419.93 748.747 L 5065.18 181.096 M 4127 5387.43 L 4404.85 5114.83 M 4006.91 5951.92 L 3728.79 5417.57 M 64.4261 4381.25 L 453.62 4100.65 M 6851.62 3684.32 L 6537.18 3894.74 M 5198.68 1043.17 L 5584.87 1282.18 M 2147.86 2603.04 L 1874.81 2648.97 M 1714.31 3300.8 L 2079.48 3521.9 M 5257.07 1584.59 L 5853.3 1919.57 M 3860.67 4789.94 L 3755.11 5422.53 M 1105.35 5258.73 L 757.34 4375.68 M 6379.01 981.243 L 6774.67 1177.96 M 863.231 5458.05 L 973.955 5801.79 M 1386.86 5572.4 L 1105.35 5258.73 M 3256.06 6119.75 L 2912.34 6742.81 M 3725.64 6313.3 L 3617.81 6024.89 M 7171.06 1621.49 L 7588.8 2198.69 M 3329.73 7144.26 L 3847.37 6625.46 M 3276.29 5446.18 L 2958.4 5569.65 M 2958.4 5569.65 L 3256.06 6119.75 M 4375.48 4216.09 L 4154.31 4686.9 M 4404.85 5114.83 L 4375.48 4216.09 M 8243.13 689.476 L 7810.83 336.493 M 7810.83 336.493 L 8175.35 1233.39 M 8018.23 2079.14 L 8275.42 1730.19 M 3215.08 6098.84 L 2888.22 5565.58 M 2888.22 5565.58 L 2614.42 6027.92 M 660.171 5138.81 L 863.231 5458.05 M 5228.83 5860.61 L 5190.6 6254.32 M 5190.6 6254.32 L 5524.63 5825.91 M 6053.33 3179.7 L 6951.82 3485.63 M 6951.82 3485.63 L 6120.26 2843.34 M 84.2136 3506.18 L 64.4261 4381.25 M 3847.37 6625.46 L 4006.91 5951.92 M 3784.7 4145.39 L 3477.06 3716.78 M 2912.34 6742.81 L 3215.08 6098.84 M 5065.18 181.096 L 4864.03 485.162 M 5876.25 2187.11 L 5527.19 2324.81 M 6537.18 3894.74 L 5794.23 4092.21 M 3326.15 5383.29 L 3419.52 4451.65 M 725.882 6138.67 L 614.217 5585.52 M 614.217 5585.52 L 479.484 6424.41 M 5584.87 1282.18 L 5910.44 1477.99 M 5626.81 19.1438 L 5419.93 748.747 M 4509.96 3168.01 L 4764.32 3758.42 M 4764.32 3758.42 L 5102.09 3943.86 M 6036.02 0 L 5626.81 19.1438 M 4340.25 2392.71 L 4038.87 2704.29 M 3878.35 6658.34 L 3329.73 7144.26 M 4079.5 6891.95 L 3878.35 6658.34 M 2899.08 4620.08 L 2988.6 5431.92 M 2988.6 5431.92 L 3326.15 5383.29 M 4038.87 2704.29 L 3611.35 2770.44 M 5910.44 1477.99 L 6209.08 1910.95 M 3611.35 2770.44 L 3248.36 3154.19 M 624.479 5583.55 L 725.882 6138.67 M 973.955 5801.79 L 624.479 5583.55 M 4019.43 5963.84 L 3943.99 6651.89 M 3392.19 3512.55 L 3865.63 3683.31 M 1642.43 7038.24 L 1962.35 7313.82 M 5064.4 1836.2 L 5528.01 2323.92 M 7775.76 351.557 L 7499.08 897.259 M 5692.13 3027.6 L 6053.33 3179.7 M 2773.11 3536.06 L 3392.19 3512.55 M 1592.76 2205.04 L 1489.07 2630.45 M 1874.81 2648.97 L 1592.76 2205.04 M 3248.36 3154.19 L 3585.7 2747.71 M 3585.7 2747.71 L 3201.01 2147.97 M 1774.64 5631.66 L 1386.86 5572.4 M 1391.4 3440.24 L 1510.04 4484.25 M 5102.09 3943.86 L 4760.41 4142.89 M 4614.71 2203.92 L 4340.25 2392.71 M 2800.64 2807.77 L 2432.62 3366.39 M 2432.62 3366.39 L 2773.11 3536.06 M 6661.96 3946.02 L 7068.12 3880.17 M 8275.42 1730.19 L 8545.1 1534.64 M 3477.06 3716.78 L 2870.96 3845.06 M 7772.9 1034.45 L 7829.8 1666.2 M 3865.63 3683.31 L 4227.99 3294.74 M 548.712 3397.02 L 84.2136 3506.18 M 235.448 3826.18 L 548.712 3397.02 M 6304.44 2428.16 L 5876.25 2187.11 M 7499.08 897.259 L 7059.24 990.064 M 7829.8 1666.2 L 7601.44 2195.04 M 7601.44 2195.04 L 8018.23 2079.14 M 6375.15 988.813 L 6095.58 895.618 M 71.6404 4391 L 0 4744.93 M 0 4744.93 L 660.171 5138.81 M 4766.67 1226.29 L 4288.61 1367.77 M 4288.61 1367.77 L 4614.71 2203.92 M 2692.35 3623.35 L 2315.38 3572.24 M 2194.6 4407.24 L 2692.35 3623.35 M 5071.45 4986.6 L 4886.47 5329.08 M 4886.47 5329.08 L 5228.83 5860.61 M 757.34 4375.68 L 653.264 3997.83 M 3384.31 7592.25 L 4079.5 6891.95 M 5321.21 4566.49 L 5528.3 5152.37 M 5528.3 5152.37 L 5622.15 4695.21 M 7059.24 990.064 L 6763.22 1200.1 M 2157.97 6640.09 L 2183.23 5895.36 M 2183.23 5895.36 L 1767.82 6116.67 M 5853.3 1919.57 L 5905.57 1484.85 M 5905.57 1484.85 L 5575.51 1296.67 M 5528.01 2323.92 L 5877.4 2187.07 M 5877.4 2187.07 L 5257.07 1584.59 M 2384.57 4909.28 L 2713.34 4409.71 M 4530.39 6777.63 L 4398.02 6371.52 M 4526.92 7648.44 L 4530.39 6777.63 M 4976.11 2069.61 L 5527.29 2324.6 M 5527.29 2324.6 L 5064.4 1836.2 M 4339.56 4200.84 L 4724.55 4110.59 M 4724.55 4110.59 L 4483.06 3810.32 M 3201.01 2147.97 L 2800.64 2807.77 M 6380.83 350.845 L 6036.02 0 M 5794.23 4092.21 L 5584.05 3798.58 M 2983.63 7514.59 L 2809.15 8024.29 M 2809.15 8024.29 L 3355.28 7619.34 M 479.484 6424.41 L 805.798 6519.48 M 1348.41 6898.08 L 1642.43 7038.24 M 3406.35 5387.86 L 3643.92 6016.43 M 1837.84 4298.06 L 2194.6 4407.24 M 1569.83 6413.83 L 1732.69 6096.06 M 553.897 3400.85 L 235.448 3826.18 M 805.798 6519.48 L 1335.32 6126.98 M 3617.81 6024.89 L 3276.29 5446.18 M 1510.04 4484.25 L 1673.57 4872.7 M 2204.77 7478.37 L 2792.7 8018.36 M 2792.7 8018.36 L 2983.63 7514.59 M 4864.03 485.162 L 4766.67 1226.29 M 5575.51 1296.67 L 5198.68 1043.17 M 4227.99 3294.74 L 3999.4 3774.36 M 5622.15 4695.21 L 5799.52 4336.37 M 2468.52 5762.87 L 2895.63 5436.83 M 2895.63 5436.83 L 2899.08 4620.08 M 4154.31 4686.9 L 4339.56 4200.84 M 1961.25 5139.39 L 2094.84 5474.21 M 4350.61 5978.81 L 4127 5387.43 M 4964.12 3180.65 L 5157.31 2744.36 M 4398.02 6371.52 L 4350.61 5978.81 M 3355.28 7619.34 L 2888.1 7089.62 M 4483.06 3810.32 L 4509.96 3168.01 M 1673.57 4872.7 L 1961.25 5139.39 M 2174.39 4459.1 L 1837.84 4298.06 M 3728.79 5417.57 L 3860.67 4789.94 M 6098.89 889.72 L 6379.01 981.243 M 5157.31 2744.36 L 5692.13 3027.6 M 2870.96 3845.06 L 2174.39 4459.1 M 2168.94 5511.97 L 2468.52 5762.87 M 2407.3 4923.52 L 2168.94 5511.97 M 5799.52 4336.37 L 6056.63 4139 M 7068.12 3880.17 L 7146.36 3475.65 M 7146.36 3475.65 L 6851.62 3684.32 M 6056.63 4139 L 6661.96 3946.02 M 1767.82 6116.67 L 1569.83 6413.83 M 6722.13 1772.28 L 7171.06 1621.49 M 6120.26 2843.34 L 6551.23 2726.77 M 6850.87 314.662 L 6380.83 350.845 M 6484.36 1881.25 L 6722.13 1772.28 M 7588.8 2198.69 L 7811.79 1667.56 M 1489.07 2630.45 L 983.221 2170.22 M 983.221 2170.22 L 1385.35 2935.78 M 8175.35 1233.39 L 7775.76 351.557 M 3943.99 6651.89 L 4177.65 6852.99 M 2094.84 5474.21 L 2384.57 4909.28 M 1792.68 3635.96 L 1391.4 3440.24 M 6209.08 1910.95 L 6484.36 1881.25 M 1962.35 7313.82 L 2204.77 7478.37 M 5524.63 5825.91 L 5506.72 5159.56 M 3419.52 4451.65 L 3406.35 5387.86 M 2713.34 4409.71 L 2407.3 4923.52 M 7811.79 1667.56 L 7772.9 1034.45 M 5527.19 2324.81 L 4976.11 2069.61 M 653.264 3997.83 L 553.897 3400.85 M 2315.38 3572.24 L 2585.06 2960.05 M 2614.42 6027.92 L 2245.17 5900.05 M 2245.17 5900.05 L 2157.97 6640.09 M 5753.93 700.07 L 6098.89 889.72 M 2079.48 3521.9 L 1792.68 3635.96 M 4760.41 4142.89 L 5071.45 4986.6 M 453.62 4100.65 L 71.6404 4391 M 3643.92 6016.43 L 3725.64 6313.3 M 4177.65 6852.99 L 3601.04 7653.76 M 3601.04 7653.76 L 4526.92 7648.44 M 1385.35 2935.78 L 1714.31 3300.8 M 6095.58 895.618 L 5753.93 700.07 M 3501.6 3700.2 L 3784.7 4145.39 M 3999.4 3774.36 L 3501.6 3700.2 M 2888.1 7089.62 L 3384.31 7592.25 M 7072.64 970.705 L 6850.87 314.662 M 6774.67 1177.96 L 7072.64 970.705 M 5506.72 5159.56 L 5321.21 4566.49 M 2585.06 2960.05 L 2768.97 2210.52 M 2768.97 2210.52 L 2362.68 2453.85 M 8545.1 1534.64 L 8243.13 689.476" />
<path fill="none" style="stroke:#cccccc;stroke-width:10.681250;stroke-dasharray:85.450000, 85.450000;" d=" M 6375.15 988.813 L 6484.36 1881.25 M 6375.15 988.813 L 6209.08 1910.95 M 6095.58 895.618 L 6209.08 1910.95 M 6484.36 1881.25 L 6763.22 1200.1 M 6722.13 1772.28 L 6763.22 1200.1 M 6722.13 1772.28 L 7059.24 990.064 M 7171.06 1621.49 L 7059.24 990.064 M 7171.06 1621.49 L 7499.08 897.259 M 7588.8 2198.69 L 7499.08 897.259 M 7811.79 1667.56 L 7499.08 897.259 M 7772.9 1034.45 L 7499.08 897.259 M 7772.9 1034.45 L 7775.76 351.557 M 7772.9 1034.45 L 8175.35 1233.39 M 7829.8 1666.2 L 8175.35 1233.39 M 7829.8 1666.2 L 8018.23 2079.14 M 6095.58 895.618 L 5910.44 1477.99 M 5753.93 700.07 L 5910.44 1477.99 M 5753.93 700.07 L 5584.87 1282.18 M 5753.93 700.07 L 5419.93 748.747 M 5753.93 700.07 L 5626.81 19.1438 M 6098.89 889.72 L 5626.81 19.1438 M 6098.89 889.72 L 6036.02 0 M 6379.01 981.243 L 6036.02 0 M 5419.93 748.747 L 5584.87 1282.18 M 5419.93 748.747 L 5198.68 1043.17 M 5065.18 181.096 L 5198.68 1043.17 M 6379.01 981.243 L 6380.83 350.845 M 6379.01 981.243 L 6850.87 314.662 M 6774.67 1177.96 L 6850.87 314.662 M 4864.03 485.162 L 5198.68 1043.17 M 4766.67 1226.29 L 5198.68 1043.17 M 4766.67 1226.29 L 5257.07 1584.59 M 5257.07 1584.59 L 5198.68 1043.17 M 5064.4 1836.2 L 5257.07 1584.59 M 5257.07 1584.59 L 5575.51 1296.67 M 5853.3 1919.57 L 5575.51 1296.67 M 4766.67 1226.29 L 5064.4 1836.2 M 4976.11 2069.61 L 5064.4 1836.2 M 4766.67 1226.29 L 4976.11 2069.61 M 4614.71 2203.92 L 4976.11 2069.61 M 4614.71 2203.92 L 5157.31 2744.36 M 4614.71 2203.92 L 4964.12 3180.65 M 4509.96 3168.01 L 4964.12 3180.65 M 4766.67 1226.29 L 4614.71 2203.92 M 4509.96 3168.01 L 5102.09 3943.86 M 5528.01 2323.92 L 5257.07 1584.59 M 4614.71 2203.92 L 4509.96 3168.01 M 4340.25 2392.71 L 4509.96 3168.01 M 4038.87 2704.29 L 4509.96 3168.01 M 4227.99 3294.74 L 4509.96 3168.01 M 4227.99 3294.74 L 4483.06 3810.32 M 3999.4 3774.36 L 4483.06 3810.32 M 4038.87 2704.29 L 4227.99 3294.74 M 3999.4 3774.36 L 4339.56 4200.84 M 3999.4 3774.36 L 4154.31 4686.9 M 3999.4 3774.36 L 3784.7 4145.39 M 3784.7 4145.39 L 4154.31 4686.9 M 3611.35 2770.44 L 4227.99 3294.74 M 3611.35 2770.44 L 3865.63 3683.31 M 3784.7 4145.39 L 3860.67 4789.94 M 3784.7 4145.39 L 3419.52 4451.65 M 3419.52 4451.65 L 3860.67 4789.94 M 3477.06 3716.78 L 3419.52 4451.65 M 3419.52 4451.65 L 3728.79 5417.57 M 3611.35 2770.44 L 3392.19 3512.55 M 3248.36 3154.19 L 3392.19 3512.55 M 3248.36 3154.19 L 2773.11 3536.06 M 3248.36 3154.19 L 2800.64 2807.77 M 3248.36 3154.19 L 3201.01 2147.97 M 2800.64 2807.77 L 2773.11 3536.06 M 2899.08 4620.08 L 3419.52 4451.65 M 5102.09 3943.86 L 4964.12 3180.65 M 5102.09 3943.86 L 5584.05 3798.58 M 5321.21 4566.49 L 5584.05 3798.58 M 5102.09 3943.86 L 5321.21 4566.49 M 4760.41 4142.89 L 5321.21 4566.49 M 5071.45 4986.6 L 5321.21 4566.49 M 3860.67 4789.94 L 4154.31 4686.9 M 3860.67 4789.94 L 4127 5387.43 M 3755.11 5422.53 L 4127 5387.43 M 4019.43 5963.84 L 4127 5387.43 M 4019.43 5963.84 L 4350.61 5978.81 M 4127 5387.43 L 4154.31 4686.9 M 4404.85 5114.83 L 4154.31 4686.9 M 3477.06 3716.78 L 2899.08 4620.08 M 2870.96 3845.06 L 2899.08 4620.08 M 2713.34 4409.71 L 2899.08 4620.08 M 2407.3 4923.52 L 2899.08 4620.08 M 2468.52 5762.87 L 2899.08 4620.08 M 5157.31 2744.36 L 4976.11 2069.61 M 5692.13 3027.6 L 4976.11 2069.61 M 5692.13 3027.6 L 5527.19 2324.81 M 6053.33 3179.7 L 5527.19 2324.81 M 6120.26 2843.34 L 5527.19 2324.81 M 6120.26 2843.34 L 5876.25 2187.11 M 6120.26 2843.34 L 6304.44 2428.16 M 6551.23 2726.77 L 6304.44 2428.16 M 5321.21 4566.49 L 5794.23 4092.21 M 5321.21 4566.49 L 5622.15 4695.21 M 5622.15 4695.21 L 5794.23 4092.21 M 4339.56 4200.84 L 4483.06 3810.32 M 4019.43 5963.84 L 4398.02 6371.52 M 3943.99 6651.89 L 4398.02 6371.52 M 4177.65 6852.99 L 4398.02 6371.52 M 4177.65 6852.99 L 4530.39 6777.63 M 4177.65 6852.99 L 4526.92 7648.44 M 2899.08 4620.08 L 3326.15 5383.29 M 3406.35 5387.86 L 3728.79 5417.57 M 3643.92 6016.43 L 3728.79 5417.57 M 3643.92 6016.43 L 4006.91 5951.92 M 3725.64 6313.3 L 4006.91 5951.92 M 3725.64 6313.3 L 3847.37 6625.46 M 3725.64 6313.3 L 3329.73 7144.26 M 3725.64 6313.3 L 2912.34 6742.81 M 2912.34 6742.81 L 3329.73 7144.26 M 3617.81 6024.89 L 2912.34 6742.81 M 2888.1 7089.62 L 3329.73 7144.26 M 3617.81 6024.89 L 3256.06 6119.75 M 3384.31 7592.25 L 3329.73 7144.26 M 4079.5 6891.95 L 3329.73 7144.26 M 2912.34 6742.81 L 2888.1 7089.62 M 2157.97 6640.09 L 2888.1 7089.62 M 2912.34 6742.81 L 2157.97 6640.09 M 2614.42 6027.92 L 2157.97 6640.09 M 2157.97 6640.09 L 2204.77 7478.37 M 2157.97 6640.09 L 1962.35 7313.82 M 2157.97 6640.09 L 1642.43 7038.24 M 2157.97 6640.09 L 1569.83 6413.83 M 2157.97 6640.09 L 1767.82 6116.67 M 1569.83 6413.83 L 1642.43 7038.24 M 1569.83 6413.83 L 1348.41 6898.08 M 1569.83 6413.83 L 1335.32 6126.98 M 1732.69 6096.06 L 1335.32 6126.98 M 1386.86 5572.4 L 1335.32 6126.98 M 1386.86 5572.4 L 973.955 5801.79 M 973.955 5801.79 L 1335.32 6126.98 M 2912.34 6742.81 L 2614.42 6027.92 M 3215.08 6098.84 L 2614.42 6027.92 M 1105.35 5258.73 L 973.955 5801.79 M 3276.29 5446.18 L 3256.06 6119.75 M 1105.35 5258.73 L 863.231 5458.05 M 1105.35 5258.73 L 660.171 5138.81 M 757.34 4375.68 L 660.171 5138.81 M 757.34 4375.68 L 453.62 4100.65 M 653.264 3997.83 L 453.62 4100.65 M 553.897 3400.85 L 453.62 4100.65 M 235.448 3826.18 L 453.62 4100.65 M 235.448 3826.18 L 64.4261 4381.25 M 235.448 3826.18 L 84.2136 3506.18 M 5799.52 4336.37 L 5794.23 4092.21 M 6056.63 4139 L 5794.23 4092.21 M 453.62 4100.65 L 660.171 5138.81 M 71.6404 4391 L 660.171 5138.81 M 2870.96 3845.06 L 2713.34 4409.71 M 2174.39 4459.1 L 2713.34 4409.71 M 2174.39 4459.1 L 2384.57 4909.28 M 2174.39 4459.1 L 2094.84 5474.21 M 2174.39 4459.1 L 1961.25 5139.39 M 2174.39 4459.1 L 1673.57 4872.7 M 1837.84 4298.06 L 1673.57 4872.7 M 6056.63 4139 L 6537.18 3894.74 M 6661.96 3946.02 L 6537.18 3894.74 M 973.955 5801.79 L 725.882 6138.67 M 6661.96 3946.02 L 6851.62 3684.32 M 7068.12 3880.17 L 6851.62 3684.32 M 1837.84 4298.06 L 1510.04 4484.25 M 2204.77 7478.37 L 2888.1 7089.62 M 2983.63 7514.59 L 2888.1 7089.62 M 2204.77 7478.37 L 2983.63 7514.59 M 2983.63 7514.59 L 3355.28 7619.34 M 725.882 6138.67 L 1335.32 6126.98 M 725.882 6138.67 L 805.798 6519.48 M 725.882 6138.67 L 479.484 6424.41 M 1732.69 6096.06 L 1386.86 5572.4 M 1732.69 6096.06 L 1774.64 5631.66 M 1335.32 6126.98 L 1348.41 6898.08 M 5071.45 4986.6 L 5506.72 5159.56 M 5071.45 4986.6 L 5228.83 5860.61 M 1837.84 4298.06 L 1391.4 3440.24 M 1837.84 4298.06 L 1792.68 3635.96 M 5228.83 5860.61 L 5506.72 5159.56 M 5228.83 5860.61 L 5524.63 5825.91 M 1837.84 4298.06 L 2079.48 3521.9 M 2194.6 4407.24 L 2079.48 3521.9 M 2194.6 4407.24 L 2315.38 3572.24 M 2315.38 3572.24 L 2079.48 3521.9 M 2315.38 3572.24 L 2147.86 2603.04 M 2585.06 2960.05 L 2147.86 2603.04 M 2585.06 2960.05 L 2362.68 2453.85 M 2147.86 2603.04 L 2079.48 3521.9 M 1874.81 2648.97 L 2079.48 3521.9 M 1874.81 2648.97 L 1489.07 2630.45 M 1489.07 2630.45 L 2079.48 3521.9 M 1489.07 2630.45 L 1714.31 3300.8 M 1489.07 2630.45 L 1385.35 2935.78 M 6053.33 3179.7 L 6120.26 2843.34 M 2407.3 4923.52 L 2468.52 5762.87 M 8018.23 2079.14 L 8175.35 1233.39 M 8275.42 1730.19 L 8175.35 1233.39 M 8545.1 1534.64 L 8175.35 1233.39 M 8243.13 689.476 L 8175.35 1233.39" />
</svg>
