<?xml version="1.0"?>
<svg width="5864" height="8910" version="1.1" xmlns="http://www.w3.org/2000/svg" >
<path fill="none" style="stroke:black;stroke-width:22.275000;" d=" M 3939.75 674.2 L 3695.26 1242.57 M 3940.28 1333.81 L 3939.75 674.2 M 1489.23 3741.23 L 1004.23 4076.13 M 1285.91 5214.31 L 2980.31 5474.41 M 3330.9 6867.38 L 3302.16 6353.58 M 1007.45 5315.49 L 955.369 5628.68 M 1013.99 4767.79 L 1285.91 5214.31 M 1133.59 4592.91 L 1013.99 4767.79 M 1613.95 3869.72 L 3595.29 2607.26 M 3594.39 2241.15 L 3356.71 2118.73 M 2342.71 7596.92 L 2130.26 7791.82 M 4076.21 696.105 L 4013.28 1352.7 M 2318.05 7573.06 L 2525.53 7055.88 M 2854.36 1881.4 L 3191.95 2289.83 M 3147.39 1607.81 L 3192.03 987.11 M 4134.16 5627.66 L 3990.36 5194.25 M 530.921 2085.56 L 949.035 1996.22 M 3980.02 4704.84 L 1734.93 4012.69 M 3763.86 2409.01 L 3962 2577.71 M 3962 2577.71 L 3997.56 2069.72 M 4768.59 5063.47 L 5517.63 5106.85 M 3786.03 5533.22 L 4240.09 6370.45 M 4240.09 6370.45 L 4134.16 5627.66 M 2190.33 5482.42 L 1937.51 5768.04 M 1937.51 5768.04 L 2502.85 5599.47 M 3302.16 6353.58 L 3786.03 5533.22 M 3224.86 6054.68 L 2912.04 6616.82 M 305.596 3680.61 L 722.423 3631.83 M 2130.26 7791.82 L 2318.05 7573.06 M 1921.6 7084.15 L 1597.93 7241.46 M 3990.36 5194.25 L 4316.02 5514.36 M 4316.02 5514.36 L 4248.79 4994.31 M 2418.91 2486.4 L 2007.11 2136.7 M 1310.21 3588.39 L 1666.52 3352.32 M 3191.95 2289.83 L 2824.28 2671.41 M 2525.53 7055.88 L 2728.06 6511.66 M 660.259 4316.57 L 43.3737 3961.08 M 532.227 4991.1 L 847.528 5028.28 M 847.528 5028.28 L 1000.99 4758.15 M 2872.91 1564.09 L 2854.36 1881.4 M 1423.38 2228.87 L 1995.94 2522.18 M 104.208 1833.57 L 530.921 2085.56 M 577.402 1429.22 L 104.208 1833.57 M 2001.26 2933.78 L 1372.36 3069.2 M 2824.28 2671.41 L 2611.44 2435.34 M 5358.06 4781.26 L 4487.28 4749.62 M 3595.29 2607.26 L 3763.86 2409.01 M 3277.11 0 L 2781.73 165.347 M 2925.65 497.549 L 2826.25 1059.21 M 1152.88 4382.53 L 1613.95 3869.72 M 1574.75 1764.65 L 1241.51 1623.16 M 3695.26 1242.57 L 3594.39 2241.15 M 3559.93 1945 L 3242.57 992.829 M 3242.57 992.829 L 3147.39 1607.81 M 2502.85 5599.47 L 2311.6 5866.34 M 2311.6 5866.34 L 2916.28 5646.73 M 4361.07 739.704 L 4513.53 533.446 M 4513.53 533.446 L 4076.21 696.105 M 4258.25 1238.27 L 4361.07 739.704 M 722.423 3631.83 L 1310.21 3588.39 M 1666.52 3352.32 L 1489.23 3741.23 M 1734.93 4012.69 L 1152.88 4382.53 M 43.3737 3961.08 L 164.792 4345.91 M 2212.1 8643.41 L 2336.08 8298.93 M 949.035 1996.22 L 1423.38 2228.87 M 2594.54 8113.39 L 2880.01 7693.83 M 955.369 5628.68 L 1287.82 5766.46 M 0 3037.55 L 305.596 3680.61 M 446.603 3252.33 L 0 3037.55 M 2469.68 1948.54 L 2418.91 2486.4 M 2611.44 2435.34 L 2469.68 1948.54 M 3648.93 383.386 L 3277.11 0 M 3182.58 368.464 L 3648.93 383.386 M 624.283 4619.83 L 532.227 4991.1 M 3356.71 2118.73 L 3559.93 1945 M 164.792 4345.91 L 469.506 4969.63 M 469.506 4969.63 L 624.283 4619.83 M 2007.11 2136.7 L 1574.75 1764.65 M 2365.38 6254.92 L 2082.41 6642.37 M 2352.82 6636.16 L 2365.38 6254.92 M 1287.82 5766.46 L 1721.76 5585.58 M 1995.94 2522.18 L 2424.88 2722.46 M 4248.79 4994.31 L 4768.59 5063.47 M 2916.28 5646.73 L 3584.07 5462.27 M 3528.44 7992.32 L 3146.68 7045.84 M 3192.03 987.11 L 3182.58 368.464 M 2082.41 6642.37 L 1921.6 7084.15 M 1766.47 7914.86 L 1878.74 8302.46 M 1372.36 3069.2 L 844.74 3096.48 M 4013.28 1352.7 L 3798.52 2031.9 M 5517.63 5106.85 L 5864.16 4726.4 M 5864.16 4726.4 L 5358.06 4781.26 M 1878.74 8302.46 L 1748.34 8911.07 M 1748.34 8911.07 L 2212.1 8643.41 M 3798.52 2031.9 L 3940.28 1333.81 M 1344.95 5428.17 L 1246.18 5369.97 M 3997.56 2069.72 L 4258.25 1238.27 M 844.74 3096.48 L 446.603 3252.33 M 2424.88 2722.46 L 2001.26 2933.78 M 2912.04 6616.82 L 2665.03 7142.35 M 4487.28 4749.62 L 3980.02 4704.84 M 2980.31 5474.41 L 1271.32 5340.31 M 1721.76 5585.58 L 2190.33 5482.42 M 819.15 5068.38 L 1007.45 5315.49 M 1246.18 5369.97 L 819.15 5068.38 M 2826.25 1059.21 L 2872.91 1564.09 M 3146.68 7045.84 L 3330.9 6867.38 M 1597.93 7241.46 L 1766.47 7914.86 M 2336.08 8298.93 L 2594.54 8113.39 M 2781.73 165.347 L 2925.65 497.549 M 2728.06 6511.66 L 2730.96 6183.34 M 2730.96 6183.34 L 2352.82 6636.16 M 1271.32 5340.31 L 1344.95 5428.17 M 1241.51 1623.16 L 741.727 1238.76 M 2880.01 7693.83 L 3528.44 7992.32 M 1000.99 4758.15 L 1133.59 4592.91 M 741.727 1238.76 L 577.402 1429.22 M 1004.23 4076.13 L 660.259 4316.57 M 2665.03 7142.35 L 2342.71 7596.92 M 3584.07 5462.27 L 3224.86 6054.68" />
<path fill="none" style="stroke:#cccccc;stroke-width:11.137500;stroke-dasharray:58.640000, 58.640000;" d=" M 3695.26 1242.57 L 3940.28 1333.81 M 3695.26 1242.57 L 3798.52 2031.9 M 3594.39 2241.15 L 3798.52 2031.9 M 3594.39 2241.15 L 3763.86 2409.01 M 3594.39 2241.15 L 3595.29 2607.26 M 3191.95 2289.83 L 3595.29 2607.26 M 3763.86 2409.01 L 3798.52 2031.9 M 3763.86 2409.01 L 3997.56 2069.72 M 3997.56 2069.72 L 3798.52 2031.9 M 3594.39 2241.15 L 3191.95 2289.83 M 3356.71 2118.73 L 3191.95 2289.83 M 3356.71 2118.73 L 2854.36 1881.4 M 3356.71 2118.73 L 3147.39 1607.81 M 2824.28 2671.41 L 3595.29 2607.26 M 2824.28 2671.41 L 1613.95 3869.72 M 2824.28 2671.41 L 2424.88 2722.46 M 2424.88 2722.46 L 1613.95 3869.72 M 2001.26 2933.78 L 1613.95 3869.72 M 1666.52 3352.32 L 1613.95 3869.72 M 1489.23 3741.23 L 1613.95 3869.72 M 1489.23 3741.23 L 1152.88 4382.53 M 1004.23 4076.13 L 1152.88 4382.53 M 2001.26 2933.78 L 1666.52 3352.32 M 3147.39 1607.81 L 2854.36 1881.4 M 660.259 4316.57 L 1152.88 4382.53 M 660.259 4316.57 L 624.283 4619.83 M 624.283 4619.83 L 1152.88 4382.53 M 43.3737 3961.08 L 624.283 4619.83 M 624.283 4619.83 L 1000.99 4758.15 M 164.792 4345.91 L 624.283 4619.83 M 532.227 4991.1 L 1000.99 4758.15 M 1000.99 4758.15 L 1152.88 4382.53 M 1133.59 4592.91 L 1152.88 4382.53 M 1133.59 4592.91 L 1734.93 4012.69 M 1133.59 4592.91 L 3980.02 4704.84 M 2980.31 5474.41 L 3980.02 4704.84 M 1133.59 4592.91 L 2980.31 5474.41 M 3584.07 5462.27 L 3980.02 4704.84 M 3786.03 5533.22 L 3980.02 4704.84 M 3584.07 5462.27 L 3786.03 5533.22 M 3224.86 6054.68 L 3786.03 5533.22 M 3224.86 6054.68 L 3302.16 6353.58 M 2912.04 6616.82 L 3302.16 6353.58 M 2980.31 5474.41 L 3584.07 5462.27 M 2980.31 5474.41 L 2916.28 5646.73 M 2502.85 5599.47 L 2916.28 5646.73 M 1133.59 4592.91 L 1285.91 5214.31 M 2980.31 5474.41 L 2502.85 5599.47 M 2190.33 5482.42 L 2502.85 5599.47 M 2980.31 5474.41 L 2190.33 5482.42 M 1271.32 5340.31 L 2190.33 5482.42 M 1271.32 5340.31 L 1721.76 5585.58 M 1344.95 5428.17 L 1721.76 5585.58 M 1344.95 5428.17 L 1287.82 5766.46 M 1344.95 5428.17 L 955.369 5628.68 M 1344.95 5428.17 L 1007.45 5315.49 M 1246.18 5369.97 L 1007.45 5315.49 M 3997.56 2069.72 L 4013.28 1352.7 M 3147.39 1607.81 L 2872.91 1564.09 M 3147.39 1607.81 L 2826.25 1059.21 M 3192.03 987.11 L 2826.25 1059.21 M 4258.25 1238.27 L 4013.28 1352.7 M 3990.36 5194.25 L 3980.02 4704.84 M 4248.79 4994.31 L 3980.02 4704.84 M 4248.79 4994.31 L 4487.28 4749.62 M 4768.59 5063.47 L 4487.28 4749.62 M 4768.59 5063.47 L 5358.06 4781.26 M 5517.63 5106.85 L 5358.06 4781.26 M 3786.03 5533.22 L 3990.36 5194.25 M 3786.03 5533.22 L 4134.16 5627.66 M 3990.36 5194.25 L 4248.79 4994.31 M 2611.44 2435.34 L 2424.88 2722.46 M 2418.91 2486.4 L 2424.88 2722.46 M 2418.91 2486.4 L 1995.94 2522.18 M 2007.11 2136.7 L 1995.94 2522.18 M 2007.11 2136.7 L 1423.38 2228.87 M 1574.75 1764.65 L 1423.38 2228.87 M 1241.51 1623.16 L 1423.38 2228.87 M 1241.51 1623.16 L 949.035 1996.22 M 741.727 1238.76 L 949.035 1996.22 M 741.727 1238.76 L 530.921 2085.56 M 577.402 1429.22 L 530.921 2085.56 M 2611.44 2435.34 L 2418.91 2486.4 M 4258.25 1238.27 L 4076.21 696.105 M 4361.07 739.704 L 4076.21 696.105 M 1372.36 3069.2 L 1666.52 3352.32 M 1372.36 3069.2 L 1310.21 3588.39 M 2912.04 6616.82 L 3330.9 6867.38 M 2912.04 6616.82 L 3146.68 7045.84 M 2665.03 7142.35 L 3146.68 7045.84 M 2665.03 7142.35 L 3528.44 7992.32 M 2665.03 7142.35 L 2880.01 7693.83 M 2342.71 7596.92 L 2880.01 7693.83 M 2342.71 7596.92 L 2594.54 8113.39 M 2130.26 7791.82 L 2594.54 8113.39 M 2130.26 7791.82 L 2336.08 8298.93 M 1766.47 7914.86 L 2336.08 8298.93 M 1766.47 7914.86 L 2212.1 8643.41 M 2130.26 7791.82 L 1766.47 7914.86 M 2130.26 7791.82 L 1597.93 7241.46 M 2318.05 7573.06 L 1597.93 7241.46 M 2318.05 7573.06 L 1921.6 7084.15 M 2525.53 7055.88 L 1921.6 7084.15 M 2525.53 7055.88 L 2352.82 6636.16 M 2728.06 6511.66 L 2352.82 6636.16 M 3192.03 987.11 L 2925.65 497.549 M 3182.58 368.464 L 2925.65 497.549 M 2352.82 6636.16 L 1921.6 7084.15 M 844.74 3096.48 L 1310.21 3588.39 M 844.74 3096.48 L 722.423 3631.83 M 446.603 3252.33 L 722.423 3631.83 M 446.603 3252.33 L 305.596 3680.61 M 2352.82 6636.16 L 2082.41 6642.37 M 3559.93 1945 L 3147.39 1607.81 M 3182.58 368.464 L 2781.73 165.347 M 3182.58 368.464 L 3277.11 0 M 1878.74 8302.46 L 2212.1 8643.41" />
</svg>
