<?xml version="1.0"?>
<svg width="385" height="444" version="1.1" xmlns="http://www.w3.org/2000/svg" xmlns:xlink="http://www.w3.org/1999/xlink">
  <defs>
  <style type="text/css">
    <![CDATA[
      .b {stroke:rgb(0,0,0);stroke-width:1.110000;fill:none}
      .c {stroke:rgb(128,128,128);stroke-width:0.555000;stroke-dasharray:1.925000, 1.925000;}
      .h {stroke:rgb(240,200,0);stroke-width:1.110000;}
      .m {stroke:rgb(255,0,0);stroke-width:0.555000;}
      .n {stroke:rgb(128,128,128);stroke-width:0.555000}
      .t {stroke:rgb(0,128,0);stroke-width:0.555000;}
      .tab {stroke:rgb(0,0,255);stroke-width:0.277500;fill:none}
      .v {stroke:rgb(0,0,255);stroke-width:0.555000;}
      .z {stroke:rgb(0,240,200);stroke-width:0.277500;}
    ]]>
  </style>
  </defs>
  <path fill="none" class="b" d=" M 100.53 179.463 L 76.4952 168.126 L 70.907 152.197 L 62.9172 146.822 L 73.8402 142.601 L 97.2313 147.619 L 122.595 159.001 L 100.117 142.642 L 79.8429 129.943 L 91.8417 119.387 L 115.278 136.053 L 99.2324 112.188 L 110.582 102.924 L 131.621 116.337 L 119.115 94.7467 L 143.357 97.3865 L 119.749 91.2789 L 105.141 92.3837 L 89.4176 95.244 L 77.9511 92.8685 L 72.4587 82.1588 L 93.5428 72.8482 L 74.9983 59.1616 L 63.4263 55.8525 L 53.8268 56.6127 L 37.1635 53.9113 L 15.8892 52.1147 L 8 24.4462 L 38.6241 34.5042 L 51.064 38.714 L 84.3473 46.8303 L 101.451 60.103 L 114.734 63.2881 L 128.234 78.5831 L 117.419 61.2853 L 106.262 53.4028 L 121.312 37.8403 L 155.354 41.6918 L 168.013 38.1985 L 179.285 8 L 187.29 24.3326 L 188.762 48.8875 L 169.188 52.3082 L 135.036 54.9917 L 168.59 61.899 L 185.445 73.2992 L 200.887 74.7076 L 174.877 81.6639 L 141.822 70.7328 L 171.782 88.4679 L 197.17 79.5052 L 184.517 106.99 L 195.235 113.34 L 149.794 113.047 L 145.004 129.042 L 134.659 133.792 L 145.65 130.829 L 156.356 118.018 L 194.495 142.725 L 187.312 155.103 L 163.136 150.318 L 163.434 138.297 L 161.095 150.092 L 142.124 145.548 L 159.44 154.532 L 176.73 172.094 L 190.454 168.038 L 189.181 191.533 L 193.71 168.444 L 200.108 157.755 L 227.797 169.953 L 226.541 154.499 L 232.231 134.962 L 249.521 144.754 L 258.181 165.885 L 254.73 187.852 L 219.085 187.061 L 205.585 208.813 L 197.134 227.913 L 196.654 254.749 L 202.487 228.551 L 217.325 213.851 L 239.355 200.808 L 248.557 241.574 L 236.8 248.919 L 228.318 260.914 L 213.16 273.935 L 230.383 263.802 L 242.125 254.973 L 253.711 279.808 L 245.489 253.666 L 259.352 253.716 L 267.962 273.368 L 252.044 299.351 L 275.34 279.71 L 274.216 258.284 L 303.417 228.387 L 290.21 261.582 L 305.274 229.188 L 304.832 264.839 L 293.781 284.107 L 305.854 265.463 L 327.287 271.387 L 309.571 290.797 L 328.124 272.185 L 350.191 266.304 L 341.542 299.59 L 341.483 313.986 L 333.937 324.94 L 303.397 332.808 L 278.032 332.636 L 289.186 320.221 L 303.373 309.014 L 321.589 307.755 L 303.348 308.575 L 287.664 317.567 L 275.799 307.584 L 286.209 319.076 L 271.001 325.951 L 287.588 345.142 L 307.997 369.185 L 321.297 369.169 L 312.925 384.17 L 330.102 383.951 L 344.269 386.518 L 377.687 394.64 L 367.037 416.814 L 338.478 412.771 L 325.472 401.13 L 314.222 398.348 L 318.55 409.099 L 305.681 416.034 L 304.575 404.156 L 293.245 407.892 L 296.221 389.107 L 278.571 382.024 L 293.528 374.305 L 281.106 356.769 L 255.026 361.671 L 250.846 336.084 L 238.753 324.073 L 249.044 337.66 L 243.645 363.017 L 265.544 378.005 L 258.67 398.366 L 242.376 402.583 L 230.446 381.13 L 239.108 404.098 L 232.431 417.102 L 216.023 411.148 L 216.29 393.502 L 214.102 411.014 L 186.564 419.596 L 195.864 392.765 L 213.609 366.395 L 191.282 389.017 L 174.15 411.665 L 170.3 393.888 L 166.145 376.315 L 179.076 360.146 L 202.216 352.433 L 178.588 358.487 L 166.803 337.365 L 203.686 332.708 L 226.648 344.85 L 207.559 327.235 L 224.855 309.25 L 208.856 294.744 L 223.197 310.891 L 200.818 321.927 L 172.676 297.635 L 162.311 319.489 L 141.931 315.838 L 142.518 288.939 L 157.671 278.582 L 138.925 253.818 L 156.175 240.93 L 174.244 274.354 L 189.587 286.522 L 177.949 270.773 L 174.431 232.941 L 179.164 207.285 L 170.321 231.83 L 155.682 200.447 L 164.914 186.343 L 154.232 199.384 L 147.085 172.758 L 150.185 200.151 L 153.003 234.665 L 133.66 225.204 L 113.456 248.792 L 101.416 234.938 L 118.717 222.191 L 100.377 233.392 L 73.4928 232.345 L 61.6311 218.73 L 85.9657 203.38 L 76.4759 184.256 L 102.843 187.57 L 118.266 185.426 L 129.849 171.791 L 115.742 182.793 L 100.53 179.463" />
  <path class="c" d=" M 101.451 60.103 L 74.9983 59.1616 M 74.9983 59.1616 L 101.451 60.103 M 101.451 60.103 L 119.749 91.2789 M 119.749 91.2789 L 101.451 60.103 M 101.451 60.103 L 93.5428 72.8482 M 93.5428 72.8482 L 105.141 92.3837 M 105.141 92.3837 L 93.5428 72.8482 M 93.5428 72.8482 L 119.749 91.2789 M 119.749 91.2789 L 93.5428 72.8482 M 93.5428 72.8482 L 89.4176 95.244 M 89.4176 95.244 L 72.4587 82.1588 M 72.4587 82.1588 L 89.4176 95.244 M 89.4176 95.244 L 93.5428 72.8482 M 93.5428 72.8482 L 101.451 60.103 M 106.262 53.4028 L 135.036 54.9917 M 135.036 54.9917 L 141.822 70.7328 M 141.822 70.7328 L 135.036 54.9917 M 135.036 54.9917 L 121.312 37.8403 M 121.312 37.8403 L 135.036 54.9917 M 135.036 54.9917 L 106.262 53.4028 M 114.734 63.2881 L 119.749 91.2789 M 119.749 91.2789 L 128.234 78.5831 M 128.234 78.5831 L 119.749 91.2789 M 119.749 91.2789 L 114.734 63.2881 M 117.419 61.2853 L 141.822 70.7328 M 141.822 70.7328 L 143.357 97.3865 M 143.357 97.3865 L 149.794 113.047 M 149.794 113.047 L 143.357 97.3865 M 143.357 97.3865 L 171.782 88.4679 M 171.782 88.4679 L 143.357 97.3865 M 143.357 97.3865 L 141.822 70.7328 M 141.822 70.7328 L 117.419 61.2853 M 117.419 61.2853 L 135.036 54.9917 M 135.036 54.9917 L 174.877 81.6639 M 174.877 81.6639 L 135.036 54.9917 M 135.036 54.9917 L 155.354 41.6918 M 155.354 41.6918 L 169.188 52.3082 M 169.188 52.3082 L 155.354 41.6918 M 155.354 41.6918 L 135.036 54.9917 M 135.036 54.9917 L 117.419 61.2853 M 128.234 78.5831 L 143.357 97.3865 M 143.357 97.3865 L 184.517 106.99 M 184.517 106.99 L 149.794 113.047 M 149.794 113.047 L 184.517 106.99 M 184.517 106.99 L 171.782 88.4679 M 171.782 88.4679 L 184.517 106.99 M 184.517 106.99 L 143.357 97.3865 M 143.357 97.3865 L 131.621 116.337 M 131.621 116.337 L 99.2324 112.188 M 99.2324 112.188 L 131.621 116.337 M 131.621 116.337 L 145.004 129.042 M 145.004 129.042 L 131.621 116.337 M 131.621 116.337 L 115.278 136.053 M 115.278 136.053 L 131.621 116.337 M 131.621 116.337 L 149.794 113.047 M 149.794 113.047 L 131.621 116.337 M 131.621 116.337 L 134.659 133.792 M 134.659 133.792 L 131.621 116.337 M 131.621 116.337 L 143.357 97.3865 M 143.357 97.3865 L 128.234 78.5831 M 128.234 78.5831 L 141.822 70.7328 M 141.822 70.7328 L 128.234 78.5831 M 168.59 61.899 L 174.877 81.6639 M 174.877 81.6639 L 168.59 61.899 M 169.188 52.3082 L 168.013 38.1985 M 168.013 38.1985 L 187.29 24.3326 M 187.29 24.3326 L 168.013 38.1985 M 168.013 38.1985 L 188.762 48.8875 M 188.762 48.8875 L 168.013 38.1985 M 168.013 38.1985 L 169.188 52.3082 M 185.445 73.2992 L 174.877 81.6639 M 174.877 81.6639 L 185.445 73.2992 M 156.356 118.018 L 163.434 138.297 M 163.434 138.297 L 187.312 155.103 M 187.312 155.103 L 163.434 138.297 M 163.434 138.297 L 145.65 130.829 M 145.65 130.829 L 161.095 150.092 M 161.095 150.092 L 145.65 130.829 M 145.65 130.829 L 163.434 138.297 M 163.434 138.297 L 156.356 118.018 M 145.65 130.829 L 142.124 145.548 M 142.124 145.548 L 147.085 172.758 M 147.085 172.758 L 142.124 145.548 M 142.124 145.548 L 129.849 171.791 M 129.849 171.791 L 142.124 145.548 M 142.124 145.548 L 122.595 159.001 M 122.595 159.001 L 129.849 171.791 M 129.849 171.791 L 133.66 225.204 M 133.66 225.204 L 129.849 171.791 M 129.849 171.791 L 150.185 200.151 M 150.185 200.151 L 129.849 171.791 M 129.849 171.791 L 122.595 159.001 M 122.595 159.001 L 142.124 145.548 M 142.124 145.548 L 115.278 136.053 M 115.278 136.053 L 142.124 145.548 M 142.124 145.548 L 145.65 130.829 M 134.659 133.792 L 115.278 136.053 M 115.278 136.053 L 100.117 142.642 M 100.117 142.642 L 115.278 136.053 M 115.278 136.053 L 122.595 159.001 M 122.595 159.001 L 115.742 182.793 M 115.742 182.793 L 97.2313 147.619 M 97.2313 147.619 L 70.907 152.197 M 70.907 152.197 L 97.2313 147.619 M 97.2313 147.619 L 115.742 182.793 M 115.742 182.793 L 122.595 159.001 M 122.595 159.001 L 115.278 136.053 M 115.278 136.053 L 134.659 133.792 M 134.659 133.792 L 142.124 145.548 M 142.124 145.548 L 134.659 133.792 M 163.434 138.297 L 194.495 142.725 M 194.495 142.725 L 163.434 138.297 M 159.44 154.532 L 147.085 172.758 M 147.085 172.758 L 159.44 154.532 M 159.44 154.532 L 164.914 186.343 M 164.914 186.343 L 159.44 154.532 M 147.085 172.758 L 164.914 186.343 M 164.914 186.343 L 179.164 207.285 M 179.164 207.285 L 197.134 227.913 M 197.134 227.913 L 174.431 232.941 M 174.431 232.941 L 197.134 227.913 M 197.134 227.913 L 179.164 207.285 M 179.164 207.285 L 189.181 191.533 M 189.181 191.533 L 179.164 207.285 M 179.164 207.285 L 155.682 200.447 M 155.682 200.447 L 179.164 207.285 M 179.164 207.285 L 164.914 186.343 M 164.914 186.343 L 147.085 172.758 M 147.085 172.758 L 129.849 171.791 M 129.849 171.791 L 147.085 172.758 M 164.914 186.343 L 176.73 172.094 M 176.73 172.094 L 164.914 186.343 M 164.914 186.343 L 189.181 191.533 M 189.181 191.533 L 205.585 208.813 M 205.585 208.813 L 189.181 191.533 M 189.181 191.533 L 197.134 227.913 M 197.134 227.913 L 189.181 191.533 M 189.181 191.533 L 219.085 187.061 M 219.085 187.061 L 193.71 168.444 M 193.71 168.444 L 219.085 187.061 M 219.085 187.061 L 189.181 191.533 M 189.181 191.533 L 164.914 186.343 M 176.73 172.094 L 189.181 191.533 M 189.181 191.533 L 176.73 172.094 M 200.108 157.755 L 219.085 187.061 M 219.085 187.061 L 200.108 157.755 M 226.541 154.499 L 249.521 144.754 M 249.521 144.754 L 226.541 154.499 M 226.541 154.499 L 258.181 165.885 M 258.181 165.885 L 227.797 169.953 M 227.797 169.953 L 258.181 165.885 M 258.181 165.885 L 226.541 154.499 M 227.797 169.953 L 254.73 187.852 M 254.73 187.852 L 227.797 169.953 M 227.797 169.953 L 219.085 187.061 M 219.085 187.061 L 227.797 169.953 M 217.325 213.851 L 248.557 241.574 M 248.557 241.574 L 217.325 213.851 M 217.325 213.851 L 236.8 248.919 M 236.8 248.919 L 217.325 213.851 M 202.487 228.551 L 228.318 260.914 M 228.318 260.914 L 202.487 228.551 M 202.487 228.551 L 236.8 248.919 M 236.8 248.919 L 202.487 228.551 M 196.654 254.749 L 213.16 273.935 M 213.16 273.935 L 196.654 254.749 M 196.654 254.749 L 174.431 232.941 M 174.431 232.941 L 196.654 254.749 M 196.654 254.749 L 228.318 260.914 M 228.318 260.914 L 196.654 254.749 M 196.654 254.749 L 189.587 286.522 M 189.587 286.522 L 172.676 297.635 M 172.676 297.635 L 189.587 286.522 M 189.587 286.522 L 213.16 273.935 M 213.16 273.935 L 189.587 286.522 M 189.587 286.522 L 208.856 294.744 M 208.856 294.744 L 200.818 321.927 M 200.818 321.927 L 208.856 294.744 M 208.856 294.744 L 189.587 286.522 M 189.587 286.522 L 196.654 254.749 M 196.654 254.749 L 177.949 270.773 M 177.949 270.773 L 196.654 254.749 M 213.16 273.935 L 208.856 294.744 M 208.856 294.744 L 213.16 273.935 M 213.16 273.935 L 224.855 309.25 M 224.855 309.25 L 238.753 324.073 M 238.753 324.073 L 271.001 325.951 M 271.001 325.951 L 250.846 336.084 M 250.846 336.084 L 271.001 325.951 M 271.001 325.951 L 238.753 324.073 M 238.753 324.073 L 207.559 327.235 M 207.559 327.235 L 238.753 324.073 M 238.753 324.073 L 252.044 299.351 M 252.044 299.351 L 238.753 324.073 M 238.753 324.073 L 224.855 309.25 M 224.855 309.25 L 252.044 299.351 M 252.044 299.351 L 275.799 307.584 M 275.799 307.584 L 271.001 325.951 M 271.001 325.951 L 275.799 307.584 M 275.799 307.584 L 293.781 284.107 M 293.781 284.107 L 290.21 261.582 M 290.21 261.582 L 274.216 258.284 M 274.216 258.284 L 290.21 261.582 M 290.21 261.582 L 304.832 264.839 M 304.832 264.839 L 290.21 261.582 M 290.21 261.582 L 293.781 284.107 M 293.781 284.107 L 275.34 279.71 M 275.34 279.71 L 290.21 261.582 M 290.21 261.582 L 275.34 279.71 M 275.34 279.71 L 293.781 284.107 M 293.781 284.107 L 275.799 307.584 M 275.799 307.584 L 303.348 308.575 M 303.348 308.575 L 293.781 284.107 M 293.781 284.107 L 303.348 308.575 M 303.348 308.575 L 275.799 307.584 M 275.799 307.584 L 252.044 299.351 M 252.044 299.351 L 271.001 325.951 M 271.001 325.951 L 281.106 356.769 M 281.106 356.769 L 307.997 369.185 M 307.997 369.185 L 293.528 374.305 M 293.528 374.305 L 307.997 369.185 M 307.997 369.185 L 281.106 356.769 M 281.106 356.769 L 287.588 345.142 M 287.588 345.142 L 281.106 356.769 M 281.106 356.769 L 250.846 336.084 M 250.846 336.084 L 281.106 356.769 M 281.106 356.769 L 271.001 325.951 M 271.001 325.951 L 252.044 299.351 M 252.044 299.351 L 224.855 309.25 M 224.855 309.25 L 213.16 273.935 M 213.16 273.935 L 252.044 299.351 M 252.044 299.351 L 213.16 273.935 M 230.383 263.802 L 253.711 279.808 M 253.711 279.808 L 230.383 263.802 M 230.383 263.802 L 252.044 299.351 M 252.044 299.351 L 230.383 263.802 M 245.489 253.666 L 267.962 273.368 M 267.962 273.368 L 245.489 253.666 M 253.711 279.808 L 267.962 273.368 M 267.962 273.368 L 253.711 279.808 M 253.711 279.808 L 252.044 299.351 M 252.044 299.351 L 253.711 279.808 M 275.34 279.71 L 275.799 307.584 M 275.799 307.584 L 275.34 279.71 M 293.781 284.107 L 309.571 290.797 M 309.571 290.797 L 305.854 265.463 M 305.854 265.463 L 309.571 290.797 M 309.571 290.797 L 321.589 307.755 M 321.589 307.755 L 328.124 272.185 M 328.124 272.185 L 321.589 307.755 M 321.589 307.755 L 341.542 299.59 M 341.542 299.59 L 328.124 272.185 M 328.124 272.185 L 341.542 299.59 M 341.542 299.59 L 321.589 307.755 M 321.589 307.755 L 309.571 290.797 M 309.571 290.797 L 293.781 284.107 M 309.571 290.797 L 303.348 308.575 M 303.348 308.575 L 309.571 290.797 M 303.373 309.014 L 303.397 332.808 M 303.397 332.808 L 303.373 309.014 M 303.373 309.014 L 333.937 324.94 M 333.937 324.94 L 303.373 309.014 M 289.186 320.221 L 303.397 332.808 M 303.397 332.808 L 289.186 320.221 M 321.589 307.755 L 333.937 324.94 M 333.937 324.94 L 321.589 307.755 M 321.589 307.755 L 341.483 313.986 M 341.483 313.986 L 321.589 307.755 M 307.997 369.185 L 296.221 389.107 M 296.221 389.107 L 312.925 384.17 M 312.925 384.17 L 314.222 398.348 M 314.222 398.348 L 312.925 384.17 M 312.925 384.17 L 296.221 389.107 M 296.221 389.107 L 304.575 404.156 M 304.575 404.156 L 318.55 409.099 M 318.55 409.099 L 304.575 404.156 M 304.575 404.156 L 296.221 389.107 M 296.221 389.107 L 314.222 398.348 M 314.222 398.348 L 330.102 383.951 M 330.102 383.951 L 314.222 398.348 M 314.222 398.348 L 296.221 389.107 M 296.221 389.107 L 293.528 374.305 M 293.528 374.305 L 296.221 389.107 M 296.221 389.107 L 307.997 369.185 M 307.997 369.185 L 312.925 384.17 M 312.925 384.17 L 307.997 369.185 M 330.102 383.951 L 325.472 401.13 M 325.472 401.13 L 330.102 383.951 M 344.269 386.518 L 338.478 412.771 M 338.478 412.771 L 344.269 386.518 M 344.269 386.518 L 325.472 401.13 M 325.472 401.13 L 344.269 386.518 M 338.478 412.771 L 377.687 394.64 M 377.687 394.64 L 338.478 412.771 M 314.222 398.348 L 304.575 404.156 M 304.575 404.156 L 314.222 398.348 M 258.67 398.366 L 243.645 363.017 M 243.645 363.017 L 226.648 344.85 M 226.648 344.85 L 243.645 363.017 M 243.645 363.017 L 258.67 398.366 M 258.67 398.366 L 230.446 381.13 M 230.446 381.13 L 258.67 398.366 M 239.108 404.098 L 216.29 393.502 M 216.29 393.502 L 232.431 417.102 M 232.431 417.102 L 216.29 393.502 M 216.29 393.502 L 195.864 392.765 M 195.864 392.765 L 216.29 393.502 M 216.29 393.502 L 230.446 381.13 M 230.446 381.13 L 216.29 393.502 M 216.29 393.502 L 213.609 366.395 M 213.609 366.395 L 202.216 352.433 M 202.216 352.433 L 166.803 337.365 M 166.803 337.365 L 202.216 352.433 M 202.216 352.433 L 203.686 332.708 M 203.686 332.708 L 202.216 352.433 M 202.216 352.433 L 213.609 366.395 M 213.609 366.395 L 243.645 363.017 M 243.645 363.017 L 213.609 366.395 M 213.609 366.395 L 179.076 360.146 M 179.076 360.146 L 213.609 366.395 M 213.609 366.395 L 216.29 393.502 M 216.29 393.502 L 239.108 404.098 M 230.446 381.13 L 243.645 363.017 M 243.645 363.017 L 230.446 381.13 M 230.446 381.13 L 213.609 366.395 M 213.609 366.395 L 226.648 344.85 M 226.648 344.85 L 249.044 337.66 M 249.044 337.66 L 226.648 344.85 M 226.648 344.85 L 202.216 352.433 M 202.216 352.433 L 226.648 344.85 M 226.648 344.85 L 238.753 324.073 M 238.753 324.073 L 226.648 344.85 M 226.648 344.85 L 213.609 366.395 M 213.609 366.395 L 230.446 381.13 M 214.102 411.014 L 195.864 392.765 M 195.864 392.765 L 214.102 411.014 M 191.282 389.017 L 166.145 376.315 M 166.145 376.315 L 191.282 389.017 M 191.282 389.017 L 170.3 393.888 M 170.3 393.888 L 191.282 389.017 M 191.282 389.017 L 179.076 360.146 M 179.076 360.146 L 191.282 389.017 M 200.818 321.927 L 189.587 286.522 M 189.587 286.522 L 200.818 321.927 M 172.676 297.635 L 142.518 288.939 M 142.518 288.939 L 162.311 319.489 M 162.311 319.489 L 142.518 288.939 M 142.518 288.939 L 172.676 297.635 M 172.676 297.635 L 157.671 278.582 M 157.671 278.582 L 172.676 297.635 M 172.676 297.635 L 174.244 274.354 M 174.244 274.354 L 138.925 253.818 M 138.925 253.818 L 174.244 274.354 M 174.244 274.354 L 157.671 278.582 M 157.671 278.582 L 174.244 274.354 M 174.244 274.354 L 172.676 297.635 M 113.456 248.792 L 118.717 222.191 M 118.717 222.191 L 102.843 187.57 M 102.843 187.57 L 85.9657 203.38 M 85.9657 203.38 L 73.4928 232.345 M 73.4928 232.345 L 85.9657 203.38 M 85.9657 203.38 L 100.377 233.392 M 100.377 233.392 L 85.9657 203.38 M 85.9657 203.38 L 102.843 187.57 M 102.843 187.57 L 100.377 233.392 M 100.377 233.392 L 102.843 187.57 M 102.843 187.57 L 118.717 222.191 M 118.717 222.191 L 118.266 185.426 M 118.266 185.426 L 133.66 225.204 M 133.66 225.204 L 118.266 185.426 M 118.266 185.426 L 118.717 222.191 M 118.717 222.191 L 113.456 248.792 M 118.717 222.191 L 133.66 225.204 M 133.66 225.204 L 150.185 200.151 M 150.185 200.151 L 133.66 225.204 M 133.66 225.204 L 118.717 222.191 M 100.53 179.463 L 70.907 152.197 M 70.907 152.197 L 100.53 179.463 M 100.53 179.463 L 97.2313 147.619 M 97.2313 147.619 L 100.53 179.463 M 100.117 142.642 L 91.8417 119.387 M 91.8417 119.387 L 100.117 142.642 M 73.8402 142.601 L 70.907 152.197 M 70.907 152.197 L 73.8402 142.601 M 74.9983 59.1616 L 84.3473 46.8303 M 84.3473 46.8303 L 63.4263 55.8525 M 63.4263 55.8525 L 84.3473 46.8303 M 84.3473 46.8303 L 74.9983 59.1616 M 63.4263 55.8525 L 51.064 38.714 M 51.064 38.714 L 37.1635 53.9113 M 37.1635 53.9113 L 38.6241 34.5042 M 38.6241 34.5042 L 15.8892 52.1147 M 15.8892 52.1147 L 38.6241 34.5042 M 38.6241 34.5042 L 37.1635 53.9113 M 37.1635 53.9113 L 51.064 38.714 M 51.064 38.714 L 53.8268 56.6127 M 53.8268 56.6127 L 51.064 38.714 M 51.064 38.714 L 63.4263 55.8525" />
  <path class="h" d=" M 79.1171 49.0859 L 68.6566 53.597 M 68.6566 53.597 L 79.1171 49.0859 M 53.1361 52.138 L 51.7547 43.1887 M 51.7547 43.1887 L 53.1361 52.138 M 47.5888 42.5133 L 40.6386 50.112 M 40.6386 50.112 L 47.5888 42.5133 M 38.259 39.356 L 37.5287 49.0595 M 37.5287 49.0595 L 38.259 39.356 M 32.9404 38.9068 L 21.5729 47.7121 M 21.5729 47.7121 L 32.9404 38.9068 M 113.456 53.8 L 127.843 54.5944 M 127.843 54.5944 L 113.456 53.8 M 115.988 70.2858 L 118.495 84.2812 M 118.495 84.2812 L 115.988 70.2858 M 140.116 51.6667 L 150.274 45.0168 M 150.274 45.0168 L 140.116 51.6667 M 158.812 44.3459 L 165.73 49.6541 M 165.73 49.6541 L 158.812 44.3459 M 168.307 41.7259 L 168.895 48.7808 M 168.895 48.7808 L 168.307 41.7259 M 173.2 40.8708 L 183.574 46.2153 M 183.574 46.2153 L 173.2 40.8708 M 170.162 66.8402 L 173.305 76.7227 M 173.305 76.7227 L 170.162 66.8402 M 174.966 93.0984 L 181.333 102.359 M 181.333 102.359 L 174.966 93.0984 M 123.524 115.3 L 107.33 113.225 M 107.33 113.225 L 123.524 115.3 M 121.99 138.427 L 135.412 143.174 M 135.412 143.174 L 121.99 138.427 M 90.6502 148.764 L 77.4881 151.052 M 77.4881 151.052 L 90.6502 148.764 M 73.1069 145 L 71.6403 149.798 M 71.6403 149.798 L 73.1069 145 M 106.811 196.225 L 114.748 213.536 M 114.748 213.536 L 106.811 196.225 M 89.5685 210.883 L 96.7742 225.889 M 96.7742 225.889 L 89.5685 210.883 M 191.17 200.628 L 195.146 218.818 M 195.146 218.818 L 191.17 200.628 M 221.263 182.784 L 225.619 174.23 M 225.619 174.23 L 221.263 182.784 M 232.286 152.063 L 243.776 147.19 M 243.776 147.19 L 232.286 152.063 M 251.108 258.592 L 262.344 268.443 M 262.344 268.443 L 251.108 258.592 M 282.686 307.832 L 296.461 308.327 M 296.461 308.327 L 282.686 307.832 M 326.577 305.714 L 336.554 301.631 M 336.554 301.631 L 326.577 305.714 M 301.274 366.081 L 287.829 359.873 M 287.829 359.873 L 301.274 366.081 M 304.379 370.465 L 297.145 373.025 M 297.145 373.025 L 304.379 370.465 M 328.945 388.245 L 326.63 396.835 M 326.63 396.835 L 328.945 388.245 M 342.821 393.082 L 339.926 406.208 M 339.926 406.208 L 342.821 393.082 M 348.28 408.238 L 367.885 399.173 M 367.885 399.173 L 348.28 408.238" />
  <path class="z" fill="none" d=" M 100.53 179.463 L 76.4952 168.126 L 70.907 152.197 L 62.9172 146.822 L 73.8402 142.601 L 97.2313 147.619 L 122.595 159.001 L 100.117 142.642 L 79.8429 129.943 L 91.8417 119.387 L 115.278 136.053 L 99.2324 112.188 L 110.582 102.924 L 131.621 116.337 L 119.115 94.7467 L 143.357 97.3865 L 119.749 91.2789 L 105.141 92.3837 L 89.4176 95.244 L 77.9511 92.8685 L 72.4587 82.1588 L 93.5428 72.8482 L 74.9983 59.1616 L 63.4263 55.8525 L 53.8268 56.6127 L 37.1635 53.9113 L 15.8892 52.1147 M 38.6241 34.5042 L 51.064 38.714 L 84.3473 46.8303 L 101.451 60.103 L 114.734 63.2881 L 128.234 78.5831 L 117.419 61.2853 L 106.262 53.4028 L 121.312 37.8403 L 155.354 41.6918 L 168.013 38.1985 M 188.762 48.8875 L 169.188 52.3082 L 135.036 54.9917 L 168.59 61.899 L 185.445 73.2992 L 200.887 74.7076 L 174.877 81.6639 L 141.822 70.7328 L 171.782 88.4679 L 197.17 79.5052 L 184.517 106.99 L 195.235 113.34 L 149.794 113.047 L 145.004 129.042 L 134.659 133.792 L 145.65 130.829 L 156.356 118.018 L 194.495 142.725 L 187.312 155.103 L 163.136 150.318 L 163.434 138.297 L 161.095 150.092 L 142.124 145.548 L 159.44 154.532 L 176.73 172.094 L 190.454 168.038 L 189.181 191.533 L 193.71 168.444 L 200.108 157.755 L 227.797 169.953 L 226.541 154.499 L 232.231 134.962 L 249.521 144.754 M 258.181 165.885 L 254.73 187.852 L 219.085 187.061 L 205.585 208.813 L 197.134 227.913 L 196.654 254.749 L 202.487 228.551 L 217.325 213.851 L 239.355 200.808 L 248.557 241.574 L 236.8 248.919 L 228.318 260.914 L 213.16 273.935 L 230.383 263.802 L 242.125 254.973 L 253.711 279.808 L 245.489 253.666 L 259.352 253.716 L 267.962 273.368 L 252.044 299.351 L 275.34 279.71 L 274.216 258.284 L 303.417 228.387 L 290.21 261.582 L 305.274 229.188 L 304.832 264.839 L 293.781 284.107 L 305.854 265.463 L 327.287 271.387 L 309.571 290.797 L 328.124 272.185 M 341.542 299.59 L 341.483 313.986 L 333.937 324.94 L 303.397 332.808 L 278.032 332.636 L 289.186 320.221 L 303.373 309.014 L 321.589 307.755 L 303.348 308.575 L 287.664 317.567 L 275.799 307.584 L 286.209 319.076 L 271.001 325.951 L 287.588 345.142 L 307.997 369.185 L 321.297 369.169 L 312.925 384.17 L 330.102 383.951 L 344.269 386.518 M 338.478 412.771 L 325.472 401.13 L 314.222 398.348 L 318.55 409.099 L 305.681 416.034 L 304.575 404.156 L 293.245 407.892 L 296.221 389.107 L 278.571 382.024 L 293.528 374.305 L 281.106 356.769 L 255.026 361.671 L 250.846 336.084 L 238.753 324.073 L 249.044 337.66 L 243.645 363.017 L 265.544 378.005 L 258.67 398.366 L 242.376 402.583 L 230.446 381.13 L 239.108 404.098 L 232.431 417.102 L 216.023 411.148 L 216.29 393.502 L 214.102 411.014 M 195.864 392.765 L 213.609 366.395 L 191.282 389.017 M 166.145 376.315 L 179.076 360.146 L 202.216 352.433 L 178.588 358.487 L 166.803 337.365 L 203.686 332.708 L 226.648 344.85 L 207.559 327.235 L 224.855 309.25 L 208.856 294.744 L 223.197 310.891 L 200.818 321.927 L 172.676 297.635 L 162.311 319.489 L 141.931 315.838 L 142.518 288.939 L 157.671 278.582 L 138.925 253.818 L 156.175 240.93 L 174.244 274.354 L 189.587 286.522 L 177.949 270.773 L 174.431 232.941 L 179.164 207.285 L 170.321 231.83 L 155.682 200.447 L 164.914 186.343 L 154.232 199.384 L 147.085 172.758 L 150.185 200.151 L 153.003 234.665 L 133.66 225.204 L 113.456 248.792 L 101.416 234.938 L 118.717 222.191 L 100.377 233.392 L 73.4928 232.345 M 85.9657 203.38 L 76.4759 184.256 L 102.843 187.57 L 118.266 185.426 L 129.849 171.791 L 115.742 182.793 L 100.53 179.463" />
  <path class="z" d=" M 121.633 158.038 L 123.558 158.038 L 123.558 159.963 L 121.633 159.963 L 121.633 158.038 M 114.316 135.091 L 116.241 135.091 L 116.241 137.016 L 114.316 137.016 L 114.316 135.091 M 130.659 115.374 L 132.584 115.374 L 132.584 117.299 L 130.659 117.299 L 130.659 115.374 M 142.394 96.424 L 144.319 96.424 L 144.319 98.349 L 142.394 98.349 L 142.394 96.424 M 92.5803 71.8857 L 94.5053 71.8857 L 94.5053 73.8107 L 92.5803 73.8107 L 92.5803 71.8857 M 127.271 77.6206 L 129.196 77.6206 L 129.196 79.5456 L 127.271 79.5456 L 127.271 77.6206 M 134.074 54.0292 L 135.999 54.0292 L 135.999 55.9542 L 134.074 55.9542 L 134.074 54.0292 M 140.859 69.7703 L 142.784 69.7703 L 142.784 71.6953 L 140.859 71.6953 L 140.859 69.7703 M 133.697 132.829 L 135.622 132.829 L 135.622 134.754 L 133.697 134.754 L 133.697 132.829 M 162.471 137.335 L 164.396 137.335 L 164.396 139.26 L 162.471 139.26 L 162.471 137.335 M 141.161 144.585 L 143.086 144.585 L 143.086 146.51 L 141.161 146.51 L 141.161 144.585 M 188.219 190.57 L 190.144 190.57 L 190.144 192.495 L 188.219 192.495 L 188.219 190.57 M 195.692 253.786 L 197.617 253.786 L 197.617 255.711 L 195.692 255.711 L 195.692 253.786 M 212.198 272.972 L 214.123 272.972 L 214.123 274.897 L 212.198 274.897 L 212.198 272.972 M 252.748 278.846 L 254.673 278.846 L 254.673 280.771 L 252.748 280.771 L 252.748 278.846 M 251.081 298.388 L 253.006 298.388 L 253.006 300.313 L 251.081 300.313 L 251.081 298.388 M 289.247 260.62 L 291.172 260.62 L 291.172 262.545 L 289.247 262.545 L 289.247 260.62 M 292.819 283.144 L 294.744 283.144 L 294.744 285.069 L 292.819 285.069 L 292.819 283.144 M 308.609 289.835 L 310.534 289.835 L 310.534 291.76 L 308.609 291.76 L 308.609 289.835 M 320.627 306.792 L 322.552 306.792 L 322.552 308.717 L 320.627 308.717 L 320.627 306.792 M 274.837 306.621 L 276.762 306.621 L 276.762 308.546 L 274.837 308.546 L 274.837 306.621 M 311.963 383.208 L 313.888 383.208 L 313.888 385.133 L 311.963 385.133 L 311.963 383.208 M 313.26 397.385 L 315.185 397.385 L 315.185 399.31 L 313.26 399.31 L 313.26 397.385 M 303.612 403.193 L 305.537 403.193 L 305.537 405.118 L 303.612 405.118 L 303.612 403.193 M 295.259 388.145 L 297.184 388.145 L 297.184 390.07 L 295.259 390.07 L 295.259 388.145 M 237.791 323.111 L 239.716 323.111 L 239.716 325.036 L 237.791 325.036 L 237.791 323.111 M 229.483 380.168 L 231.408 380.168 L 231.408 382.093 L 229.483 382.093 L 229.483 380.168 M 215.328 392.54 L 217.253 392.54 L 217.253 394.465 L 215.328 394.465 L 215.328 392.54 M 212.646 365.432 L 214.571 365.432 L 214.571 367.357 L 212.646 367.357 L 212.646 365.432 M 201.253 351.47 L 203.178 351.47 L 203.178 353.395 L 201.253 353.395 L 201.253 351.47 M 225.685 343.887 L 227.61 343.887 L 227.61 345.812 L 225.685 345.812 L 225.685 343.887 M 207.893 293.782 L 209.818 293.782 L 209.818 295.707 L 207.893 295.707 L 207.893 293.782 M 188.624 285.56 L 190.549 285.56 L 190.549 287.485 L 188.624 287.485 L 188.624 285.56 M 178.202 206.323 L 180.127 206.323 L 180.127 208.248 L 178.202 208.248 L 178.202 206.323 M 163.952 185.38 L 165.877 185.38 L 165.877 187.305 L 163.952 187.305 L 163.952 185.38 M 146.123 171.796 L 148.048 171.796 L 148.048 173.721 L 146.123 173.721 L 146.123 171.796 M 117.754 221.229 L 119.679 221.229 L 119.679 223.154 L 117.754 223.154 L 117.754 221.229 M 128.887 170.828 L 130.812 170.828 L 130.812 172.753 L 128.887 172.753 L 128.887 170.828" />
  <path class="h" d=" M 13.9169 45.1976 L 9.97231 31.3633 M 15.656 26.9607 L 30.9681 31.9897 M 170.831 30.6489 L 176.467 15.5496 M 181.286 12.0832 L 185.289 20.2495 M 187.658 30.4714 L 188.394 42.7488 M 251.686 150.036 L 256.016 160.602 M 333.641 270.715 L 344.674 267.774 M 348.029 274.625 L 343.704 291.268 M 352.623 388.549 L 369.332 392.61 M 375.024 400.184 L 369.7 411.271 M 359.897 415.803 L 345.618 413.782 M 207.217 413.159 L 193.449 417.451 M 188.889 412.888 L 193.539 399.472 M 186.999 394.679 L 178.433 406.003 M 173.188 407.221 L 171.263 398.332 M 169.261 389.495 L 167.183 380.708 M 70.5274 228.942 L 64.5966 222.134 M 67.7148 214.893 L 79.882 207.218" />
  <path class="h" d=" M 15.1003 49.3479 L 16.7283 48.3206 M 11.0866 25.4599 L 11.4279 27.3544 M 169.149 35.1548 L 170.802 34.1686 M 187.645 30.2581 L 185.86 30.9799 M 180.352 10.1772 L 179.576 11.939 M 252.913 153.03 L 250.991 153.137 M 341.548 268.607 L 341.547 270.532 M 348.694 272.064 L 346.769 272.076 M 371.903 393.235 L 370.241 394.206 M 369.607 411.463 L 367.684 411.544 M 362.073 416.111 L 363.205 414.555 M 191.351 418.104 L 191.689 416.209 M 191.119 406.455 L 193.007 406.829 M 182.541 400.572 L 180.852 399.65 M 170.813 396.258 L 172.628 395.616 M 168.133 384.726 L 170.026 385.076 M 67.8158 225.829 L 69.0261 224.332 M 83.5322 204.915 L 82.8706 206.723" />
</svg>
