<?xml version="1.0"?>
<svg width="583" height="567" version="1.1" xmlns="http://www.w3.org/2000/svg" xmlns:xlink="http://www.w3.org/1999/xlink">
  <defs>
  <style type="text/css">
    <![CDATA[
      .b {stroke:rgb(0,0,0);stroke-width:1.457500;fill:none}
      .c {stroke:rgb(128,128,128);stroke-width:0.728750;stroke-dasharray:2.915000, 2.915000;}
      .h {stroke:rgb(240,200,0);stroke-width:1.457500;}
      .m {stroke:rgb(255,0,0);stroke-width:0.728750;}
      .n {stroke:rgb(128,128,128);stroke-width:0.728750}
      .t {stroke:rgb(0,128,0);stroke-width:0.728750;}
      .tab {stroke:rgb(0,0,255);stroke-width:0.364375;fill:none}
      .v {stroke:rgb(0,0,255);stroke-width:0.728750;}
      .z {stroke:rgb(0,240,200);stroke-width:0.364375;}
    ]]>
  </style>
  </defs>
  <path fill="none" class="b" d=" M 470.332 220.676 L 526.893 339.185 L 501.927 345.504 L 508.246 370.47 L 564.806 488.981 L 539.84 495.299 L 564.806 488.981 L 571.125 513.946 L 546.159 520.265 L 552.478 545.231 L 521.193 526.584 L 514.874 501.618 L 458.314 383.108 L 483.28 376.789 L 476.961 351.823 L 420.4 233.313 L 445.366 226.994 L 413.771 102.166 L 288.943 133.758 L 170.432 190.32 L 164.113 165.353 L 139.147 171.673 L 20.6365 228.234 L 14.317 203.268 L 8 178.302 L 132.827 146.707 L 157.793 140.387 L 151.474 115.421 L 276.303 83.8288 L 282.623 108.792 L 407.452 77.1999 L 432.418 70.8804 L 426.099 45.9144 L 550.929 14.3195 L 575.894 8 L 557.248 39.2855 L 563.567 64.2515 L 438.737 95.8464 L 470.332 220.676" />
  <path class="c" d=" M 476.961 351.823 L 501.927 345.504 M 501.927 345.504 L 476.961 351.823 M 476.961 351.823 L 445.366 226.994 M 445.366 226.994 L 470.332 220.676 M 470.332 220.676 L 501.927 345.504 M 501.927 345.504 L 470.332 220.676 M 470.332 220.676 L 445.366 226.994 M 445.366 226.994 L 476.961 351.823 M 476.961 351.823 L 508.246 370.47 M 508.246 370.47 L 539.84 495.299 M 539.84 495.299 L 508.246 370.47 M 508.246 370.47 L 476.961 351.823 M 483.28 376.789 L 514.874 501.618 M 514.874 501.618 L 483.28 376.789 M 483.28 376.789 L 539.84 495.299 M 539.84 495.299 L 483.28 376.789 M 483.28 376.789 L 508.246 370.47 M 508.246 370.47 L 483.28 376.789 M 501.927 345.504 L 445.366 226.994 M 445.366 226.994 L 501.927 345.504 M 470.332 220.676 L 413.771 102.166 M 413.771 102.166 L 470.332 220.676 M 438.737 95.8464 L 432.418 70.8804 M 432.418 70.8804 L 438.737 95.8464 M 438.737 95.8464 L 557.248 39.2855 M 557.248 39.2855 L 432.418 70.8804 M 432.418 70.8804 L 557.248 39.2855 M 557.248 39.2855 L 438.737 95.8464 M 438.737 95.8464 L 413.771 102.166 M 413.771 102.166 L 432.418 70.8804 M 432.418 70.8804 L 413.771 102.166 M 413.771 102.166 L 407.452 77.1999 M 407.452 77.1999 L 288.943 133.758 M 288.943 133.758 L 407.452 77.1999 M 407.452 77.1999 L 413.771 102.166 M 413.771 102.166 L 438.737 95.8464 M 432.418 70.8804 L 550.929 14.3195 M 550.929 14.3195 L 432.418 70.8804 M 557.248 39.2855 L 550.929 14.3195 M 550.929 14.3195 L 557.248 39.2855 M 282.623 108.792 L 157.793 140.387 M 157.793 140.387 L 282.623 108.792 M 282.623 108.792 L 164.113 165.353 M 164.113 165.353 L 282.623 108.792 M 282.623 108.792 L 288.943 133.758 M 288.943 133.758 L 282.623 108.792 M 276.303 83.8288 L 157.793 140.387 M 157.793 140.387 L 276.303 83.8288 M 288.943 133.758 L 164.113 165.353 M 164.113 165.353 L 288.943 133.758 M 164.113 165.353 L 157.793 140.387 M 157.793 140.387 L 139.147 171.673 M 139.147 171.673 L 14.317 203.268 M 14.317 203.268 L 139.147 171.673 M 139.147 171.673 L 157.793 140.387 M 157.793 140.387 L 164.113 165.353 M 139.147 171.673 L 132.827 146.707 M 132.827 146.707 L 14.317 203.268 M 14.317 203.268 L 132.827 146.707 M 132.827 146.707 L 139.147 171.673 M 514.874 501.618 L 539.84 495.299 M 539.84 495.299 L 521.193 526.584 M 521.193 526.584 L 539.84 495.299 M 539.84 495.299 L 546.159 520.265 M 546.159 520.265 L 564.806 488.981 M 564.806 488.981 L 546.159 520.265 M 546.159 520.265 L 521.193 526.584 M 521.193 526.584 L 546.159 520.265 M 546.159 520.265 L 539.84 495.299 M 539.84 495.299 L 514.874 501.618" />
  <path class="h" d=" M 464.09 222.256 L 451.608 225.415 M 451.608 225.415 L 464.09 222.256 M 287.363 127.517 L 284.203 115.034 M 284.203 115.034 L 287.363 127.517" />
  <path class="z" fill="none" d=" M 470.332 220.676 L 526.893 339.185 L 501.927 345.504 L 508.246 370.47 L 564.806 488.981 L 539.84 495.299 L 564.806 488.981 M 514.874 501.618 L 458.314 383.108 L 483.28 376.789 L 476.961 351.823 L 420.4 233.313 M 445.366 226.994 L 413.771 102.166 L 288.943 133.758 M 170.432 190.32 L 164.113 165.353 L 139.147 171.673 M 282.623 108.792 L 407.452 77.1999 L 432.418 70.8804 L 426.099 45.9144 L 550.929 14.3195 M 563.567 64.2515 L 438.737 95.8464 L 470.332 220.676" />
  <path class="z" d=" M 500.469 344.047 L 503.384 344.047 L 503.384 346.962 L 500.469 346.962 L 500.469 344.047 M 538.383 493.842 L 541.298 493.842 L 541.298 496.757 L 538.383 496.757 L 538.383 493.842 M 481.822 375.332 L 484.737 375.332 L 484.737 378.247 L 481.822 378.247 L 481.822 375.332 M 412.314 100.708 L 415.229 100.708 L 415.229 103.623 L 412.314 103.623 L 412.314 100.708 M 162.655 163.896 L 165.57 163.896 L 165.57 166.811 L 162.655 166.811 L 162.655 163.896 M 430.961 69.4229 L 433.876 69.4229 L 433.876 72.3379 L 430.961 72.3379 L 430.961 69.4229 M 437.28 94.3889 L 440.195 94.3889 L 440.195 97.3039 L 437.28 97.3039 L 437.28 94.3889" />
  <path class="h" d=" M 566.386 495.222 L 569.545 507.705 M 564.884 515.526 L 552.401 518.686 M 547.739 526.507 L 550.898 538.99 M 544.657 540.569 L 529.015 531.246 M 519.614 520.343 L 516.454 507.86 M 426.642 231.733 L 439.125 228.574 M 259.315 147.899 L 200.06 176.18 M 156.214 134.146 L 153.054 121.663 M 139.069 145.127 L 151.552 141.967 M 182.681 107.523 L 245.096 91.7269 M 277.883 90.0697 L 281.043 102.551 M 109.519 185.813 L 50.2641 214.093 M 19.0566 221.992 L 15.8969 209.509 M 12.7377 197.026 L 9.57925 184.544 M 39.2069 170.403 L 101.621 154.606 M 558.827 45.527 L 561.987 58.01 M 571.233 15.8214 L 561.909 31.4641 M 557.17 12.7396 L 569.653 9.57988" />
  <path class="h" d=" M 565.438 491.477 L 563.816 493.899 M 568.609 514.583 L 568.18 511.7 M 546.796 522.782 L 543.913 523.21 M 548.308 542.745 L 548.03 539.844 M 519.669 520.56 L 521.488 518.282 M 430.179 230.838 L 431.23 233.557 M 268.433 143.547 L 265.58 144.144 M 279.599 96.8448 L 276.854 97.826 M 173.174 109.929 L 171.86 112.531 M 154.569 127.649 L 157.312 126.662 M 145.055 143.612 L 144.455 146.464 M 118.637 181.462 L 115.784 182.058 M 29.6998 172.81 L 28.3856 175.412 M 9.52438 184.327 L 12.3125 183.476 M 16.7922 213.046 L 19.5536 212.113 M 562.935 61.7549 L 560.124 62.5265 M 559.733 35.115 L 558.597 32.4307 M 562.877 11.295 L 562.302 14.1528" />
</svg>
