<?xml version="1.0"?>
<svg width="942" height="1576" version="1.1" xmlns="http://www.w3.org/2000/svg" xmlns:xlink="http://www.w3.org/1999/xlink">
  <defs>
  <style type="text/css">
    <![CDATA[
      .b {stroke:rgb(0,0,0);stroke-width:3.940000;fill:none}
      .c {stroke:rgb(128,128,128);stroke-width:1.970000;stroke-dasharray:4.710000, 4.710000;}
      .h {stroke:rgb(240,200,0);stroke-width:3.940000;}
      .m {stroke:rgb(255,0,0);stroke-width:1.970000;}
      .n {stroke:rgb(128,128,128);stroke-width:1.970000}
      .t {stroke:rgb(0,128,0);stroke-width:1.970000;}
      .tab {stroke:rgb(0,0,255);stroke-width:0.985000;fill:none}
      .v {stroke:rgb(0,0,255);stroke-width:1.970000;}
      .z {stroke:rgb(0,240,200);stroke-width:0.985000;}
    ]]>
  </style>
  </defs>
  <path fill="none" class="b" d=" M 320.302 653.395 L 252.187 666.139 L 242.344 763.536 L 244.388 785.214 L 241.096 763.69 L 237.459 665.864 L 159.878 708.22 L 152.731 757.42 L 132.703 711.916 L 43.6636 720.924 L 41.0717 768.585 L 44.664 828.577 L 53.7054 894.242 L 58.6921 926.743 L 160.886 883.403 L 159.547 817.132 L 193.457 874.086 L 308.646 876.201 L 404.486 909.315 L 514.541 881.524 L 412.656 931.564 L 434.816 1103.83 L 449.12 1060.58 L 436.319 1104.3 L 416.469 1131.73 L 481.282 1212.74 L 399.489 1148.92 L 354.35 1197 L 394.335 1144.56 L 405.742 1112.67 L 287.555 985.402 L 202.834 1041.12 L 257.554 1126.68 L 271.034 1175.1 L 291.576 1199.78 L 322.488 1208.59 L 290.841 1202.97 L 266.055 1182.55 L 241.329 1138.79 L 171.049 1065.47 L 110.675 1163.59 L 125.66 1192.86 L 161.934 1256.79 L 229.423 1305.63 L 147.053 1293.19 L 74.1186 1284.05 L 41.7413 1278.31 L 60.2173 1387.77 L 133.067 1397.55 L 62.7533 1418.97 L 31.6528 1429.64 L 8 1542.4 L 109.458 1537.81 L 157.517 1523.07 L 189.546 1525.33 L 289.84 1457.87 L 215.639 1408.58 L 303.945 1420.33 L 317.184 1320.93 L 405.38 1290.69 L 339.983 1357.14 L 415.075 1423.61 L 513.878 1493.22 L 520.835 1461.84 L 543.774 1436.88 L 476.859 1353.79 L 574.088 1397.7 L 618.677 1349.11 L 548.95 1272.29 L 635.302 1329.79 L 608.214 1213.36 L 534.901 1148.63 L 560.295 1043.93 L 580.438 1149.77 L 675.262 1125.82 L 792.322 1101.61 L 770.875 1075.4 L 755.442 1032.54 L 643.441 1022.89 L 748.085 981.817 L 781.83 1012.41 L 815.534 1015.71 L 879.887 1001.28 L 903.725 977.173 L 908.631 945.404 L 894.787 916.433 L 872.034 871.609 L 801.523 798.514 L 913.248 770.393 L 934.16 707.494 L 927.279 647.79 L 906.284 604.924 L 821.407 580.249 L 842.644 673.951 L 844.292 695.661 L 841.585 674.058 L 810.626 583.104 L 741.349 584.814 L 705.757 724.464 L 715.27 851.824 L 694.289 725.845 L 598.379 716.636 L 602.005 859.329 L 566.642 721.04 L 656.527 686.338 L 611.208 549.535 L 523.245 568.237 L 602.508 525.756 L 568.713 381.129 L 555.058 427.399 L 566.679 380.577 L 487.829 367.233 L 487.402 446.965 L 464.071 370.722 L 531.292 327.401 L 518.12 299.473 L 444.746 297.005 L 511.351 266.124 L 506.5 242.119 L 511.74 266.042 L 539.345 279.879 L 685.769 254.998 L 636.082 206.693 L 533.773 191.532 L 513.576 194.033 L 501.901 210.671 L 510.404 192.21 L 529.065 184.088 L 630.914 166.097 L 574.111 98.3732 L 567.652 9.11229 L 516.673 8 L 523.361 103.347 L 471.617 125.803 L 444.326 174.291 L 432.547 230.068 L 418.652 174.78 L 410.921 119.68 L 398.072 64.755 L 305.128 87.0516 L 315.09 142.571 L 331.307 195.943 L 343.279 251.682 L 364.298 316.326 L 313.699 270.934 L 260.269 251.049 L 204.512 249.406 L 158.514 282.052 L 127.897 322.829 L 156.441 406.483 L 241.675 317.591 L 224.641 328.729 L 241.251 316.968 L 261.442 319.284 L 285.192 340.405 L 303.093 357.119 L 282.67 343.602 L 254.979 328.002 L 235.255 332.901 L 203.045 451.768 L 304.702 436.075 L 306.067 387.852 L 386.271 389.32 L 313.256 422.543 L 336.275 464.939 L 406.677 466.856 L 338.944 486.153 L 284.438 573.386 L 350.357 594.76 L 440.09 588.82 L 474.348 744.56 L 385.973 782.948 L 472.796 741.169 L 394.336 602.343 L 320.302 653.395" />
  <path class="c" d=" M 242.344 763.536 L 320.302 653.395 M 320.302 653.395 L 472.796 741.169 M 474.348 744.56 L 514.541 881.524 M 514.541 881.524 L 560.295 1043.93 M 643.441 1022.89 L 560.295 1043.93 M 643.441 1022.89 L 514.541 881.524 M 602.005 859.329 L 514.541 881.524 M 602.005 859.329 L 474.348 744.56 M 566.642 721.04 L 474.348 744.56 M 566.642 721.04 L 440.09 588.82 M 523.245 568.237 L 440.09 588.82 M 523.245 568.237 L 487.402 446.965 M 487.402 446.965 L 406.677 466.856 M 406.677 466.856 L 440.09 588.82 M 320.302 653.395 L 385.973 782.948 M 385.973 782.948 L 514.541 881.524 M 412.656 931.564 L 560.295 1043.93 M 643.441 1022.89 L 602.005 859.329 M 715.27 851.824 L 748.085 981.817 M 748.085 981.817 L 801.523 798.514 M 801.523 798.514 L 715.27 851.824 M 715.27 851.824 L 602.005 859.329 M 715.27 851.824 L 598.379 716.636 M 566.642 721.04 L 523.245 568.237 M 602.508 525.756 L 487.402 446.965 M 487.402 446.965 L 555.058 427.399 M 555.058 427.399 L 487.829 367.233 M 464.071 370.722 L 444.746 297.005 M 444.746 297.005 L 364.298 316.326 M 364.298 316.326 L 386.271 389.32 M 386.271 389.32 L 464.071 370.722 M 444.746 297.005 L 432.547 230.068 M 432.547 230.068 L 343.279 251.682 M 331.307 195.943 L 410.921 119.68 M 410.921 119.68 L 315.09 142.571 M 418.652 174.78 L 331.307 195.943 M 364.298 316.326 L 432.547 230.068 M 501.901 210.671 L 444.326 174.291 M 501.901 210.671 L 471.617 125.803 M 523.361 103.347 L 574.111 98.3732 M 529.065 184.088 L 523.361 103.347 M 529.065 184.088 L 574.111 98.3732 M 533.773 191.532 L 685.769 254.998 M 531.292 327.401 L 444.746 297.005 M 511.351 266.124 L 432.547 230.068 M 501.901 210.671 L 685.769 254.998 M 511.74 266.042 L 685.769 254.998 M 506.5 242.119 L 432.547 230.068 M 506.5 242.119 L 444.326 174.291 M 510.404 192.21 L 471.617 125.803 M 510.404 192.21 L 523.361 103.347 M 513.576 194.033 L 685.769 254.998 M 506.5 242.119 L 501.901 210.671 M 506.5 242.119 L 685.769 254.998 M 602.508 525.756 L 555.058 427.399 M 386.271 389.32 L 406.677 466.856 M 338.944 486.153 L 440.09 588.82 M 338.944 486.153 L 350.357 594.76 M 313.256 422.543 L 406.677 466.856 M 306.067 387.852 L 203.045 451.768 M 156.441 406.483 L 158.514 282.052 M 224.641 328.729 L 158.514 282.052 M 224.641 328.729 L 204.512 249.406 M 241.251 316.968 L 204.512 249.406 M 241.251 316.968 L 260.269 251.049 M 261.442 319.284 L 260.269 251.049 M 261.442 319.284 L 313.699 270.934 M 285.192 340.405 L 313.699 270.934 M 285.192 340.405 L 364.298 316.326 M 303.093 357.119 L 364.298 316.326 M 303.093 357.119 L 386.271 389.32 M 303.093 357.119 L 306.067 387.852 M 303.093 357.119 L 203.045 451.768 M 156.441 406.483 L 224.641 328.729 M 254.979 328.002 L 203.045 451.768 M 282.67 343.602 L 203.045 451.768 M 132.703 711.916 L 41.0717 768.585 M 41.0717 768.585 L 152.731 757.42 M 159.547 817.132 L 152.731 757.42 M 241.096 763.69 L 152.731 757.42 M 241.096 763.69 L 159.878 708.22 M 244.388 785.214 L 320.302 653.395 M 385.973 782.948 L 404.486 909.315 M 404.486 909.315 L 320.302 653.395 M 244.388 785.214 L 159.547 817.132 M 244.388 785.214 L 152.731 757.42 M 44.664 828.577 L 159.547 817.132 M 53.7054 894.242 L 160.886 883.403 M 308.646 876.201 L 159.547 817.132 M 308.646 876.201 L 244.388 785.214 M 308.646 876.201 L 320.302 653.395 M 412.656 931.564 L 449.12 1060.58 M 449.12 1060.58 L 560.295 1043.93 M 534.901 1148.63 L 481.282 1212.74 M 481.282 1212.74 L 405.38 1290.69 M 317.184 1320.93 L 229.423 1305.63 M 229.423 1305.63 L 290.841 1202.97 M 290.841 1202.97 L 161.934 1256.79 M 266.055 1182.55 L 161.934 1256.79 M 266.055 1182.55 L 125.66 1192.86 M 241.329 1138.79 L 125.66 1192.86 M 241.329 1138.79 L 110.675 1163.59 M 257.554 1126.68 L 287.555 985.402 M 449.12 1060.58 L 534.901 1148.63 M 436.319 1104.3 L 534.901 1148.63 M 436.319 1104.3 L 481.282 1212.74 M 548.95 1272.29 L 481.282 1212.74 M 548.95 1272.29 L 534.901 1148.63 M 548.95 1272.29 L 608.214 1213.36 M 675.262 1125.82 L 560.295 1043.93 M 675.262 1125.82 L 643.441 1022.89 M 748.085 981.817 L 602.005 859.329 M 715.27 851.824 L 810.626 583.104 M 821.407 580.249 L 927.279 647.79 M 842.644 673.951 L 927.279 647.79 M 842.644 673.951 L 934.16 707.494 M 844.292 695.661 L 934.16 707.494 M 844.292 695.661 L 913.248 770.393 M 844.292 695.661 L 801.523 798.514 M 801.523 798.514 L 810.626 583.104 M 844.292 695.661 L 810.626 583.104 M 705.757 724.464 L 810.626 583.104 M 656.527 686.338 L 523.245 568.237 M 894.787 916.433 L 801.523 798.514 M 908.631 945.404 L 801.523 798.514 M 903.725 977.173 L 801.523 798.514 M 781.83 1012.41 L 801.523 798.514 M 879.887 1001.28 L 801.523 798.514 M 815.534 1015.71 L 801.523 798.514 M 770.875 1075.4 L 675.262 1125.82 M 770.875 1075.4 L 643.441 1022.89 M 399.489 1148.92 L 405.38 1290.69 M 317.184 1320.93 L 322.488 1208.59 M 322.488 1208.59 L 229.423 1305.63 M 215.639 1408.58 L 229.423 1305.63 M 215.639 1408.58 L 189.546 1525.33 M 157.517 1523.07 L 133.067 1397.55 M 133.067 1397.55 L 147.053 1293.19 M 133.067 1397.55 L 215.639 1408.58 M 157.517 1523.07 L 215.639 1408.58 M 60.2173 1387.77 L 74.1186 1284.05 M 271.034 1175.1 L 287.555 985.402 M 394.335 1144.56 L 287.555 985.402 M 291.576 1199.78 L 287.555 985.402 M 354.35 1197 L 405.38 1290.69 M 476.859 1353.79 L 405.38 1290.69 M 476.859 1353.79 L 548.95 1272.29 M 574.088 1397.7 L 548.95 1272.29 M 520.835 1461.84 L 476.859 1353.79 M 415.075 1423.61 L 476.859 1353.79 M 415.075 1423.61 L 520.835 1461.84 M 354.35 1197 L 317.184 1320.93 M 322.488 1208.59 L 287.555 985.402 M 354.35 1197 L 322.488 1208.59 M 109.458 1537.81 L 62.7533 1418.97 M 109.458 1537.81 L 133.067 1397.55 M 8 1542.4 L 62.7533 1418.97" />
  <path class="z" fill="none" d=" M 252.187 666.139 L 320.302 653.395 L 394.336 602.343 L 472.796 741.169 L 385.973 782.948 L 474.348 744.56 L 440.09 588.82 L 350.357 594.76 L 284.438 573.386 M 252.187 666.139 L 320.302 653.395 L 394.336 602.343 L 472.796 741.169 L 385.973 782.948 L 474.348 744.56 L 440.09 588.82 L 350.357 594.76 L 284.438 573.386 M 338.944 486.153 L 406.677 466.856 L 336.275 464.939 M 338.944 486.153 L 406.677 466.856 L 336.275 464.939 M 336.275 464.939 L 313.256 422.543 L 386.271 389.32 L 306.067 387.852 L 304.702 436.075 M 336.275 464.939 L 313.256 422.543 L 386.271 389.32 L 306.067 387.852 L 304.702 436.075 M 235.255 332.901 L 254.979 328.002 L 282.67 343.602 L 303.093 357.119 L 285.192 340.405 L 261.442 319.284 L 241.251 316.968 M 235.255 332.901 L 254.979 328.002 L 282.67 343.602 L 303.093 357.119 L 285.192 340.405 L 261.442 319.284 L 241.251 316.968 M 241.251 316.968 L 224.641 328.729 L 241.675 317.591 M 241.251 316.968 L 224.641 328.729 L 241.675 317.591 M 158.514 282.052 L 204.512 249.406 L 260.269 251.049 L 313.699 270.934 L 364.298 316.326 L 343.279 251.682 L 331.307 195.943 L 315.09 142.571 L 305.128 87.0516 M 158.514 282.052 L 204.512 249.406 L 260.269 251.049 L 313.699 270.934 L 364.298 316.326 L 343.279 251.682 L 331.307 195.943 L 315.09 142.571 L 305.128 87.0516 M 305.128 87.0516 L 398.072 64.755 L 410.921 119.68 L 418.652 174.78 L 432.547 230.068 L 444.326 174.291 L 471.617 125.803 L 523.361 103.347 L 516.673 8 M 305.128 87.0516 L 398.072 64.755 L 410.921 119.68 L 418.652 174.78 L 432.547 230.068 L 444.326 174.291 L 471.617 125.803 L 523.361 103.347 L 516.673 8 M 630.914 166.097 L 529.065 184.088 L 510.404 192.21 L 501.901 210.671 L 513.576 194.033 L 533.773 191.532 L 636.082 206.693 M 630.914 166.097 L 529.065 184.088 L 510.404 192.21 L 501.901 210.671 L 513.576 194.033 L 533.773 191.532 L 636.082 206.693 M 511.74 266.042 L 506.5 242.119 L 511.351 266.124 M 511.74 266.042 L 506.5 242.119 L 511.351 266.124 M 511.351 266.124 L 444.746 297.005 L 518.12 299.473 M 511.351 266.124 L 444.746 297.005 L 518.12 299.473 M 531.292 327.401 L 464.071 370.722 L 487.402 446.965 L 487.829 367.233 L 566.679 380.577 M 531.292 327.401 L 464.071 370.722 L 487.402 446.965 L 487.829 367.233 L 566.679 380.577 M 566.679 380.577 L 555.058 427.399 L 568.713 381.129 M 566.679 380.577 L 555.058 427.399 L 568.713 381.129 M 602.508 525.756 L 523.245 568.237 L 611.208 549.535 M 602.508 525.756 L 523.245 568.237 L 611.208 549.535 M 656.527 686.338 L 566.642 721.04 L 602.005 859.329 L 598.379 716.636 L 694.289 725.845 M 656.527 686.338 L 566.642 721.04 L 602.005 859.329 L 598.379 716.636 L 694.289 725.845 M 694.289 725.845 L 715.27 851.824 L 705.757 724.464 M 694.289 725.845 L 715.27 851.824 L 705.757 724.464 M 810.626 583.104 L 841.585 674.058 L 844.292 695.661 L 842.644 673.951 L 821.407 580.249 M 810.626 583.104 L 841.585 674.058 L 844.292 695.661 L 842.644 673.951 L 821.407 580.249 M 815.534 1015.71 L 781.83 1012.41 L 748.085 981.817 L 643.441 1022.89 L 755.442 1032.54 L 770.875 1075.4 L 792.322 1101.61 M 815.534 1015.71 L 781.83 1012.41 L 748.085 981.817 L 643.441 1022.89 L 755.442 1032.54 L 770.875 1075.4 L 792.322 1101.61 M 792.322 1101.61 L 675.262 1125.82 L 580.438 1149.77 L 560.295 1043.93 L 534.901 1148.63 L 608.214 1213.36 L 635.302 1329.79 M 792.322 1101.61 L 675.262 1125.82 L 580.438 1149.77 L 560.295 1043.93 L 534.901 1148.63 L 608.214 1213.36 L 635.302 1329.79 M 635.302 1329.79 L 548.95 1272.29 L 618.677 1349.11 M 635.302 1329.79 L 548.95 1272.29 L 618.677 1349.11 M 574.088 1397.7 L 476.859 1353.79 L 543.774 1436.88 M 574.088 1397.7 L 476.859 1353.79 L 543.774 1436.88 M 415.075 1423.61 L 339.983 1357.14 L 405.38 1290.69 L 317.184 1320.93 L 303.945 1420.33 M 415.075 1423.61 L 339.983 1357.14 L 405.38 1290.69 L 317.184 1320.93 L 303.945 1420.33 M 303.945 1420.33 L 215.639 1408.58 L 289.84 1457.87 M 303.945 1420.33 L 215.639 1408.58 L 289.84 1457.87 M 62.7533 1418.97 L 133.067 1397.55 L 60.2173 1387.77 M 62.7533 1418.97 L 133.067 1397.55 L 60.2173 1387.77 M 41.7413 1278.31 L 74.1186 1284.05 L 147.053 1293.19 L 229.423 1305.63 L 161.934 1256.79 L 125.66 1192.86 L 110.675 1163.59 M 41.7413 1278.31 L 74.1186 1284.05 L 147.053 1293.19 L 229.423 1305.63 L 161.934 1256.79 L 125.66 1192.86 L 110.675 1163.59 M 171.049 1065.47 L 241.329 1138.79 L 266.055 1182.55 L 290.841 1202.97 L 322.488 1208.59 L 291.576 1199.78 L 271.034 1175.1 L 257.554 1126.68 L 202.834 1041.12 M 171.049 1065.47 L 241.329 1138.79 L 266.055 1182.55 L 290.841 1202.97 L 322.488 1208.59 L 291.576 1199.78 L 271.034 1175.1 L 257.554 1126.68 L 202.834 1041.12 M 394.335 1144.56 L 354.35 1197 L 399.489 1148.92 M 394.335 1144.56 L 354.35 1197 L 399.489 1148.92 M 399.489 1148.92 L 481.282 1212.74 L 416.469 1131.73 M 399.489 1148.92 L 481.282 1212.74 L 416.469 1131.73 M 436.319 1104.3 L 449.12 1060.58 L 434.816 1103.83 M 436.319 1104.3 L 449.12 1060.58 L 434.816 1103.83 M 412.656 931.564 L 514.541 881.524 L 404.486 909.315 M 412.656 931.564 L 514.541 881.524 L 404.486 909.315 M 193.457 874.086 L 159.547 817.132 L 160.886 883.403 M 193.457 874.086 L 159.547 817.132 L 160.886 883.403 M 132.703 711.916 L 152.731 757.42 L 159.878 708.22 M 132.703 711.916 L 152.731 757.42 L 159.878 708.22 M 237.459 665.864 L 241.096 763.69 L 244.388 785.214 L 242.344 763.536 L 252.187 666.139 M 237.459 665.864 L 241.096 763.69 L 244.388 785.214 L 242.344 763.536 L 252.187 666.139" />
  <path class="z" d=" M 383.618 780.593 L 388.328 780.593 L 388.328 785.303 L 383.618 785.303 L 383.618 780.593 M 383.618 780.593 L 388.328 780.593 L 388.328 785.303 L 383.618 785.303 L 383.618 780.593 M 404.322 464.501 L 409.032 464.501 L 409.032 469.211 L 404.322 469.211 L 404.322 464.501 M 404.322 464.501 L 409.032 464.501 L 409.032 469.211 L 404.322 469.211 L 404.322 464.501 M 383.916 386.965 L 388.626 386.965 L 388.626 391.675 L 383.916 391.675 L 383.916 386.965 M 383.916 386.965 L 388.626 386.965 L 388.626 391.675 L 383.916 391.675 L 383.916 386.965 M 300.738 354.764 L 305.448 354.764 L 305.448 359.474 L 300.738 359.474 L 300.738 354.764 M 300.738 354.764 L 305.448 354.764 L 305.448 359.474 L 300.738 359.474 L 300.738 354.764 M 222.286 326.374 L 226.996 326.374 L 226.996 331.084 L 222.286 331.084 L 222.286 326.374 M 222.286 326.374 L 226.996 326.374 L 226.996 331.084 L 222.286 331.084 L 222.286 326.374 M 361.943 313.971 L 366.653 313.971 L 366.653 318.681 L 361.943 318.681 L 361.943 313.971 M 361.943 313.971 L 366.653 313.971 L 366.653 318.681 L 361.943 318.681 L 361.943 313.971 M 430.192 227.713 L 434.902 227.713 L 434.902 232.423 L 430.192 232.423 L 430.192 227.713 M 430.192 227.713 L 434.902 227.713 L 434.902 232.423 L 430.192 232.423 L 430.192 227.713 M 499.546 208.316 L 504.256 208.316 L 504.256 213.026 L 499.546 213.026 L 499.546 208.316 M 499.546 208.316 L 504.256 208.316 L 504.256 213.026 L 499.546 213.026 L 499.546 208.316 M 504.145 239.764 L 508.855 239.764 L 508.855 244.474 L 504.145 244.474 L 504.145 239.764 M 504.145 239.764 L 508.855 239.764 L 508.855 244.474 L 504.145 244.474 L 504.145 239.764 M 442.391 294.65 L 447.101 294.65 L 447.101 299.36 L 442.391 299.36 L 442.391 294.65 M 442.391 294.65 L 447.101 294.65 L 447.101 299.36 L 442.391 299.36 L 442.391 294.65 M 485.047 444.61 L 489.757 444.61 L 489.757 449.32 L 485.047 449.32 L 485.047 444.61 M 485.047 444.61 L 489.757 444.61 L 489.757 449.32 L 485.047 449.32 L 485.047 444.61 M 552.703 425.044 L 557.413 425.044 L 557.413 429.754 L 552.703 429.754 L 552.703 425.044 M 552.703 425.044 L 557.413 425.044 L 557.413 429.754 L 552.703 429.754 L 552.703 425.044 M 520.89 565.882 L 525.6 565.882 L 525.6 570.592 L 520.89 570.592 L 520.89 565.882 M 520.89 565.882 L 525.6 565.882 L 525.6 570.592 L 520.89 570.592 L 520.89 565.882 M 599.65 856.974 L 604.36 856.974 L 604.36 861.684 L 599.65 861.684 L 599.65 856.974 M 599.65 856.974 L 604.36 856.974 L 604.36 861.684 L 599.65 861.684 L 599.65 856.974 M 712.915 849.469 L 717.625 849.469 L 717.625 854.179 L 712.915 854.179 L 712.915 849.469 M 712.915 849.469 L 717.625 849.469 L 717.625 854.179 L 712.915 854.179 L 712.915 849.469 M 841.937 693.306 L 846.647 693.306 L 846.647 698.016 L 841.937 698.016 L 841.937 693.306 M 841.937 693.306 L 846.647 693.306 L 846.647 698.016 L 841.937 698.016 L 841.937 693.306 M 641.086 1020.54 L 645.796 1020.54 L 645.796 1025.25 L 641.086 1025.25 L 641.086 1020.54 M 641.086 1020.54 L 645.796 1020.54 L 645.796 1025.25 L 641.086 1025.25 L 641.086 1020.54 M 557.94 1041.57 L 562.65 1041.57 L 562.65 1046.28 L 557.94 1046.28 L 557.94 1041.57 M 557.94 1041.57 L 562.65 1041.57 L 562.65 1046.28 L 557.94 1046.28 L 557.94 1041.57 M 546.595 1269.94 L 551.305 1269.94 L 551.305 1274.65 L 546.595 1274.65 L 546.595 1269.94 M 546.595 1269.94 L 551.305 1269.94 L 551.305 1274.65 L 546.595 1274.65 L 546.595 1269.94 M 474.504 1351.43 L 479.214 1351.43 L 479.214 1356.14 L 474.504 1356.14 L 474.504 1351.43 M 474.504 1351.43 L 479.214 1351.43 L 479.214 1356.14 L 474.504 1356.14 L 474.504 1351.43 M 403.025 1288.34 L 407.735 1288.34 L 407.735 1293.05 L 403.025 1293.05 L 403.025 1288.34 M 403.025 1288.34 L 407.735 1288.34 L 407.735 1293.05 L 403.025 1293.05 L 403.025 1288.34 M 213.284 1406.22 L 217.994 1406.22 L 217.994 1410.93 L 213.284 1410.93 L 213.284 1406.22 M 213.284 1406.22 L 217.994 1406.22 L 217.994 1410.93 L 213.284 1410.93 L 213.284 1406.22 M 130.712 1395.19 L 135.422 1395.19 L 135.422 1399.9 L 130.712 1399.9 L 130.712 1395.19 M 130.712 1395.19 L 135.422 1395.19 L 135.422 1399.9 L 130.712 1399.9 L 130.712 1395.19 M 227.068 1303.27 L 231.778 1303.27 L 231.778 1307.98 L 227.068 1307.98 L 227.068 1303.27 M 227.068 1303.27 L 231.778 1303.27 L 231.778 1307.98 L 227.068 1307.98 L 227.068 1303.27 M 320.133 1206.24 L 324.843 1206.24 L 324.843 1210.95 L 320.133 1210.95 L 320.133 1206.24 M 320.133 1206.24 L 324.843 1206.24 L 324.843 1210.95 L 320.133 1210.95 L 320.133 1206.24 M 351.995 1194.65 L 356.705 1194.65 L 356.705 1199.36 L 351.995 1199.36 L 351.995 1194.65 M 351.995 1194.65 L 356.705 1194.65 L 356.705 1199.36 L 351.995 1199.36 L 351.995 1194.65 M 478.927 1210.38 L 483.637 1210.38 L 483.637 1215.09 L 478.927 1215.09 L 478.927 1210.38 M 478.927 1210.38 L 483.637 1210.38 L 483.637 1215.09 L 478.927 1215.09 L 478.927 1210.38 M 446.765 1058.23 L 451.475 1058.23 L 451.475 1062.94 L 446.765 1062.94 L 446.765 1058.23 M 446.765 1058.23 L 451.475 1058.23 L 451.475 1062.94 L 446.765 1062.94 L 446.765 1058.23 M 512.186 879.169 L 516.896 879.169 L 516.896 883.879 L 512.186 883.879 L 512.186 879.169 M 512.186 879.169 L 516.896 879.169 L 516.896 883.879 L 512.186 883.879 L 512.186 879.169 M 157.192 814.777 L 161.902 814.777 L 161.902 819.487 L 157.192 819.487 L 157.192 814.777 M 157.192 814.777 L 161.902 814.777 L 161.902 819.487 L 157.192 819.487 L 157.192 814.777 M 150.376 755.065 L 155.086 755.065 L 155.086 759.775 L 150.376 759.775 L 150.376 755.065 M 150.376 755.065 L 155.086 755.065 L 155.086 759.775 L 150.376 759.775 L 150.376 755.065 M 242.033 782.859 L 246.743 782.859 L 246.743 787.569 L 242.033 787.569 L 242.033 782.859 M 242.033 782.859 L 246.743 782.859 L 246.743 787.569 L 242.033 787.569 L 242.033 782.859" />
  <path class="h" d=" M 303.274 656.581 L 269.216 662.953 M 218.063 676.453 L 179.273 697.631 M 220.791 749.822 L 180.182 722.087 M 263.366 752.259 L 301.324 686.35 M 358.426 675.339 L 434.673 719.225 M 418.115 807.592 L 482.399 856.88 M 383.44 845.335 L 341.348 717.375 M 333.877 589.416 L 300.918 578.73 M 325.318 507.961 L 298.065 551.578 M 279.288 439.998 L 228.459 447.845 M 278.081 380.781 L 228.057 428.106 M 227.203 362.618 L 211.097 422.051 M 241.996 358.943 L 216.028 420.826 M 149.305 385.57 L 135.033 343.742 M 220.367 339.814 L 177.749 384.26 M 219.608 308.898 L 209.544 269.236 M 246.006 300.488 L 255.514 267.529 M 304.968 334.385 L 344.521 322.346 M 509.656 319.802 L 466.382 304.604 M 490.956 225.162 L 459.869 191.248 M 540.326 162.659 L 562.849 119.802 M 572.496 76.058 L 569.267 31.4275 M 616.713 149.166 L 588.311 115.304 M 547.868 221.753 L 639.802 243.916 M 673.347 242.921 L 648.504 218.769 M 555.247 263.281 L 642.262 257.759 M 538.251 412.358 L 504.636 382.275 M 573.732 506.058 L 516.179 466.663 M 535.004 687.985 L 471.728 621.875 M 731.974 689.124 L 784.409 618.444 M 758.668 584.387 L 793.307 583.531 M 842.626 586.418 L 885.065 598.755 M 835.876 667.522 L 819.043 611.243 M 865.523 682.337 L 911.281 699.109 M 861.531 714.344 L 896.009 751.71 M 829.455 791.483 L 885.317 777.423 M 819.151 816.787 L 854.406 853.335 M 877.722 882.815 L 889.098 905.227 M 812.032 961.409 L 805.026 852.812 M 761.444 935.991 L 788.164 844.339 M 739.109 784.644 L 786.787 650.284 M 711.565 951.195 L 638.525 889.951 M 646.52 1105.35 L 589.037 1064.4 M 470.565 1082.59 L 513.456 1126.62 M 400.962 1184.36 L 403.907 1255.25 M 345.059 1227.98 L 326.476 1289.94 M 299.222 1232.85 L 252.69 1281.37 M 230.956 1185.13 L 160.759 1190.28 M 212.412 1152.31 L 154.578 1179.34 M 208.666 1144.99 L 143.339 1157.39 M 155.956 1090 L 125.769 1139.06 M 265.054 1091.36 L 280.055 1020.72 M 367.64 1104.77 L 314.25 1025.19 M 290.571 1146.19 L 288.56 1039 M 313.755 1152.8 L 296.288 1041.2 M 279.849 875.672 L 222.254 874.615 M 135.337 894.238 L 84.2406 915.908 M 80.5005 891.532 L 134.091 886.113 M 65.9236 718.672 L 110.443 714.168 M 46.3603 1305.68 L 55.5983 1360.41 M 97.7816 1508.1 L 74.4294 1448.68 M 13.9132 1514.21 L 25.7396 1457.83 M 33.3644 1541.25 L 84.0932 1538.95 M 121.472 1534.12 L 145.502 1526.75 M 172.047 1494.45 L 201.108 1437.2 M 628.53 1300.68 L 614.986 1242.47 M 763.057 1107.66 L 704.527 1119.77" />
  <path class="h" d=" M 149.377 385.782 L 149.791 381.091 M 146.738 297.736 L 147.157 302.427 M 232.949 447.152 L 236.607 444.185 M 300.472 547.725 L 303.899 550.956 M 218.261 676.345 L 219.452 680.902 M 122.406 712.958 L 118.518 715.617 M 41.5196 760.348 L 45.6793 758.139 M 42.4985 792.413 L 46.9877 790.988 M 45.6811 835.964 L 50.328 835.195 M 56.1904 910.438 L 60.7509 909.26 M 146.247 889.612 L 141.542 889.847 M 265.415 875.407 L 261.289 873.136 M 330.727 883.83 L 330.514 879.125 M 416.829 963.998 L 418.322 968.465 M 309.808 1009.37 L 312.305 1013.36 M 222.354 1028.28 L 223.94 1032.72 M 148.391 1102.3 L 152.775 1104.02 M 44.388 1293.99 L 48.8548 1292.5 M 47.1512 1424.32 L 45.6688 1428.79 M 17.8896 1495.25 L 20.2773 1491.19 M 80.125 1539.13 L 79.4511 1534.47 M 149.287 1525.59 L 148.695 1520.92 M 173.396 1524.19 L 175.012 1519.76 M 228.82 1498.91 L 228.14 1494.25 M 475.188 1465.96 L 479.879 1465.54 M 517.665 1476.14 L 513.473 1473.99 M 530.624 1451.19 L 528.347 1447.07 M 607.785 1360.98 L 605.181 1357.05 M 418.543 1128.87 L 421.364 1132.64 M 395.526 1141.23 L 392.844 1137.35 M 831.255 1012.18 L 830.606 1007.52 M 893.553 987.459 L 891.49 983.225 M 905.96 962.7 L 903.432 958.726 M 901.65 930.796 L 898.808 927.04 M 890.89 908.757 L 887.924 905.098 M 851.649 850.476 L 854.227 854.418 M 848.237 786.756 L 848.034 782.05 M 931.808 714.57 L 927.204 713.575 M 930.012 671.504 L 925.304 671.636 M 923.651 640.382 L 919.591 637.994 M 888.637 599.794 L 891.591 603.462 M 800.802 583.346 L 798.171 587.253 M 718.576 674.169 L 721.924 670.856 M 640.205 637.068 L 636.146 634.679 M 583.655 445.075 L 579.649 442.599 M 520.797 305.149 L 516.114 304.647 M 517.35 268.854 L 522.045 268.468 M 604.086 268.878 L 599.378 268.733 M 643.127 213.543 L 638.51 212.613 M 585.921 112.454 L 582.993 116.143 M 568.399 19.4353 L 563.8 18.4186 M 536.281 8.42781 L 538.107 12.7694" />
</svg>
