<?xml version="1.0" encoding="UTF-8" standalone="no"?>
<svg
   xmlns:dc="http://purl.org/dc/elements/1.1/"
   xmlns:cc="http://creativecommons.org/ns#"
   xmlns:rdf="http://www.w3.org/1999/02/22-rdf-syntax-ns#"
   xmlns:svg="http://www.w3.org/2000/svg"
   xmlns="http://www.w3.org/2000/svg"
   version="1.1"
   id="svg3591"
   viewBox="0 0 744.09448819 1052.3622047"
   height="297mm"
   width="210mm">
  <defs
     id="defs3593">
    <style
       type="text/css"
       id="style3504"><![CDATA[
      .b {stroke:rgb(0,0,0);stroke-width:11.500000;fill:none}
      .c {stroke:rgb(128,128,128);stroke-width:5.750000;stroke-dasharray:10.260000, 10.260000;}
      .h {stroke:rgb(240,200,0);stroke-width:11.500000;}
      .m {stroke:rgb(255,0,0);stroke-width:5.750000;}
      .n {stroke:rgb(128,128,128);stroke-width:5.750000}
      .t {stroke:rgb(0,128,0);stroke-width:5.750000;}
      .tab {stroke:rgb(0,0,255);stroke-width:2.875000;fill:none}
      .v {stroke:rgb(0,0,255);stroke-width:5.750000;}
      .z {stroke:rgb(0,240,200);stroke-width:2.875000;}
    ]]></style>
    <style
       type="text/css"
       id="style3783"><![CDATA[
      .b {stroke:rgb(0,0,0);stroke-width:3.940000;fill:none}
      .c {stroke:rgb(128,128,128);stroke-width:1.970000;stroke-dasharray:4.710000, 4.710000;}
      .h {stroke:rgb(240,200,0);stroke-width:3.940000;}
      .m {stroke:rgb(255,0,0);stroke-width:1.970000;}
      .n {stroke:rgb(128,128,128);stroke-width:1.970000}
      .t {stroke:rgb(0,128,0);stroke-width:1.970000;}
      .tab {stroke:rgb(0,0,255);stroke-width:0.985000;fill:none}
      .v {stroke:rgb(0,0,255);stroke-width:1.970000;}
      .z {stroke:rgb(0,240,200);stroke-width:0.985000;}
    ]]></style>
  </defs>
  <metadata
     id="metadata3596">
    <rdf:RDF>
      <cc:Work
         rdf:about="">
        <dc:format>image/svg+xml</dc:format>
        <dc:type
           rdf:resource="http://purl.org/dc/dcmitype/StillImage" />
        <dc:title></dc:title>
      </cc:Work>
    </rdf:RDF>
  </metadata>
  <g
     id="layer1">
    <g
       transform="matrix(0,-1,1,0,-1380.9474,-888.2078)"
       id="g3802">
      <path
         style="fill:none;stroke:#000000;stroke-width:3.94000006"
         class="b"
         d="m 320.302,653.395 -68.115,12.744 -9.843,97.397 2.044,21.678 -3.292,-21.524 -3.637,-97.826 -77.581,42.356 -7.147,49.2 -20.028,-45.504 -89.0394,9.008 -2.5919,47.661 3.5923,59.992 9.0414,65.665 4.9867,32.501 102.1939,-43.34 -1.339,-66.271 33.91,56.954 115.189,2.115 95.84,33.114 110.055,-27.791 -101.885,50.04 22.16,172.266 14.304,-43.25 -12.801,43.72 -19.85,27.43 64.813,81.01 -81.793,-63.82 -45.139,48.08 39.985,-52.44 11.407,-31.89 -118.187,-127.268 -84.721,55.718 54.72,85.56 13.48,48.42 20.542,24.68 30.912,8.81 -31.647,-5.62 -24.786,-20.42 -24.726,-43.76 -70.28,-73.32 -60.374,98.12 14.985,29.27 36.274,63.93 67.489,48.84 -82.37,-12.44 -72.9344,-9.14 -32.3773,-5.74 18.476,109.46 72.8497,9.78 -70.3137,21.42 -31.1005,10.67 L 8,1542.4 l 101.458,-4.59 48.059,-14.74 32.029,2.26 100.294,-67.46 -74.201,-49.29 88.306,11.75 13.239,-99.4 88.196,-30.24 -65.397,66.45 75.092,66.47 98.803,69.61 6.957,-31.38 22.939,-24.96 -66.915,-83.09 97.229,43.91 44.589,-48.59 -69.727,-76.82 86.352,57.5 -27.088,-116.43 -73.313,-64.73 25.394,-104.7 20.143,105.84 94.824,-23.95 117.06,-24.21 -21.447,-26.21 -15.433,-42.86 -112.001,-9.65 104.644,-41.073 33.745,30.593 33.704,3.3 64.353,-14.43 23.838,-24.107 4.906,-31.769 -13.844,-28.971 -22.753,-44.824 -70.511,-73.095 111.725,-28.121 20.912,-62.899 -6.881,-59.704 -20.995,-42.866 -84.877,-24.675 21.237,93.702 1.648,21.71 -2.707,-21.603 -30.959,-90.954 -69.277,1.71 -35.592,139.65 9.513,127.36 -20.981,-125.979 -95.91,-9.209 3.626,142.693 -35.363,-138.289 89.885,-34.702 -45.319,-136.803 -87.963,18.702 79.263,-42.481 -33.795,-144.627 -13.655,46.27 11.621,-46.822 -78.85,-13.344 -0.427,79.732 -23.331,-76.243 67.221,-43.321 -13.172,-27.928 -73.374,-2.468 66.605,-30.881 -4.851,-24.005 5.24,23.923 27.605,13.837 146.424,-24.881 -49.687,-48.305 -102.309,-15.161 -20.197,2.501 -11.675,16.638 8.503,-18.461 18.661,-8.122 L 630.914,166.097 574.111,98.3732 567.652,9.11229 516.673,8 l 6.688,95.347 -51.744,22.456 -27.291,48.488 -11.779,55.777 -13.895,-55.288 -7.731,-55.1 -12.849,-54.925 -92.944,22.2966 9.962,55.5194 16.217,53.372 11.972,55.739 21.019,64.644 -50.599,-45.392 -53.43,-19.885 -55.757,-1.643 -45.998,32.646 -30.617,40.777 28.544,83.654 85.234,-88.892 -17.034,11.138 16.61,-11.761 20.191,2.316 23.75,21.121 17.901,16.714 -20.423,-13.517 -27.691,-15.6 -19.724,4.899 -32.21,118.867 101.657,-15.693 1.365,-48.223 80.204,1.468 -73.015,33.223 23.019,42.396 70.402,1.917 -67.733,19.297 -54.506,87.233 65.919,21.374 89.733,-5.94 34.258,155.74 -88.375,38.388 86.823,-41.779 -78.46,-138.826 -74.034,51.052"
         id="path3785" />
      <path
         style="stroke:#808080;stroke-width:1.97000003;stroke-dasharray:4.71, 4.71"
         class="c"
         d="m 242.344,763.536 77.958,-110.141 m 0,0 152.494,87.774 m 1.552,3.391 40.193,136.964 m 0,0 45.754,162.406 m 83.146,-21.04 -83.146,21.04 m 83.146,-21.04 -128.9,-141.366 m 87.464,-22.195 -87.464,22.195 M 602.005,859.329 474.348,744.56 m 92.294,-23.52 -92.294,23.52 M 566.642,721.04 440.09,588.82 m 83.155,-20.583 -83.155,20.583 m 83.155,-20.583 -35.843,-121.272 m 0,0 -80.725,19.891 m 0,0 33.413,121.964 m -119.788,64.575 65.671,129.553 m 0,0 128.568,98.576 m -101.885,50.04 147.639,112.366 m 83.146,-21.04 -41.436,-163.561 m 113.265,-7.505 32.815,129.993 m 0,0 53.438,-183.303 m 0,0 -86.253,53.31 m 0,0 -113.265,7.505 M 715.27,851.824 598.379,716.636 m -31.737,4.404 -43.397,-152.803 m 79.263,-42.481 -115.106,-78.791 m 0,0 67.656,-19.566 m 0,0 -67.229,-60.166 m -23.758,3.489 -19.325,-73.717 m 0,0 -80.448,19.321 m 0,0 21.973,72.994 m 0,0 77.8,-18.598 m -19.325,-73.717 -12.199,-66.937 m 0,0 -89.268,21.614 m -11.972,-55.739 79.614,-76.263 m 0,0 -95.831,22.891 m 103.562,32.209 -87.345,21.163 m 32.991,120.383 68.249,-86.258 m 69.354,-19.397 -57.575,-36.38 m 57.575,36.38 -30.284,-84.868 m 51.744,-22.456 50.75,-4.9738 m -45.046,85.7148 -5.704,-80.741 m 5.704,80.741 45.046,-85.7148 m -40.338,93.1588 151.996,63.466 m -154.477,72.403 -86.546,-30.396 m 66.605,-30.881 -78.804,-36.056 m 69.354,-19.397 183.868,44.327 M 511.74,266.042 685.769,254.998 M 506.5,242.119 432.547,230.068 m 73.953,12.051 -62.174,-67.828 m 66.078,17.919 -38.787,-66.407 m 38.787,66.407 12.957,-88.863 m -9.785,90.686 172.193,60.965 M 506.5,242.119 501.901,210.671 m 4.599,31.448 179.269,12.879 m -83.261,270.758 -47.45,-98.357 M 386.271,389.32 406.677,466.856 M 338.944,486.153 440.09,588.82 M 338.944,486.153 350.357,594.76 m -37.101,-172.217 93.421,44.313 m -100.61,-79.004 -103.022,63.916 m -46.604,-45.285 2.073,-124.431 m 66.127,46.677 -66.127,-46.677 m 66.127,46.677 -20.129,-79.323 m 36.739,67.562 -36.739,-67.562 m 36.739,67.562 19.018,-65.919 m 1.173,68.235 -1.173,-68.235 m 1.173,68.235 52.257,-48.35 m -28.507,69.471 28.507,-69.471 m -28.507,69.471 79.106,-24.079 m -61.205,40.793 61.205,-40.793 m -61.205,40.793 83.178,32.201 m -83.178,-32.201 2.974,30.733 m -2.974,-30.733 -100.048,94.649 m -46.604,-45.285 68.2,-77.754 m 30.338,-0.727 -51.934,123.766 M 282.67,343.602 203.045,451.768 m -70.342,260.148 -91.6313,56.669 m 0,0 111.6593,-11.165 m 6.816,59.712 -6.816,-59.712 m 88.365,6.27 -88.365,-6.27 m 88.365,6.27 -81.218,-55.47 m 84.51,76.994 75.914,-131.819 m 65.671,129.553 18.513,126.367 m 0,0 -84.184,-255.92 m -75.914,131.819 -84.841,31.918 M 244.388,785.214 152.731,757.42 M 44.664,828.577 159.547,817.132 M 53.7054,894.242 160.886,883.403 m 147.76,-7.202 -149.099,-59.069 m 149.099,59.069 -64.258,-90.987 m 64.258,90.987 11.656,-222.806 m 92.354,278.169 36.464,129.016 m 0,0 111.175,-16.65 m -25.394,104.7 -53.619,64.11 m 0,0 -75.902,77.95 m -88.196,30.24 -87.761,-15.3 m 0,0 61.418,-102.66 m 0,0 -128.907,53.82 m 104.121,-74.24 -104.121,74.24 m 104.121,-74.24 -140.395,10.31 m 115.669,-54.07 -115.669,54.07 m 115.669,-54.07 -130.654,24.8 m 146.879,-36.91 30.001,-141.278 m 161.565,75.178 85.781,88.05 m -98.582,-44.33 98.582,44.33 m -98.582,-44.33 44.963,108.44 m 67.668,59.55 -67.668,-59.55 m 67.668,59.55 -14.049,-123.66 m 14.049,123.66 59.264,-58.93 m 67.048,-87.54 -114.967,-81.89 m 114.967,81.89 -31.821,-102.93 M 748.085,981.817 602.005,859.329 m 113.265,-7.505 95.356,-268.72 m 10.781,-2.855 105.872,67.541 m -84.635,26.161 84.635,-26.161 m -84.635,26.161 91.516,33.543 m -89.868,-11.833 89.868,11.833 m -89.868,-11.833 68.956,74.732 m -68.956,-74.732 -42.769,102.853 m 0,0 9.103,-215.41 M 844.292,695.661 810.626,583.104 M 705.757,724.464 810.626,583.104 M 656.527,686.338 523.245,568.237 M 894.787,916.433 801.523,798.514 M 908.631,945.404 801.523,798.514 M 903.725,977.173 801.523,798.514 M 781.83,1012.41 801.523,798.514 m 78.364,202.766 -78.364,-202.766 m 14.011,217.196 -14.011,-217.196 m -30.648,276.886 -95.613,50.42 m 95.613,-50.42 -127.434,-52.51 m -243.952,126.03 5.891,141.77 m -88.196,30.24 5.304,-112.34 m 0,0 -93.065,97.04 m -13.784,102.95 13.784,-102.95 m -13.784,102.95 -26.093,116.75 m -32.029,-2.26 -24.45,-125.52 m 0,0 13.986,-104.36 m -13.986,104.36 82.572,11.03 m -58.122,114.49 58.122,-114.49 M 60.2173,1387.77 74.1186,1284.05 M 271.034,1175.1 287.555,985.402 m 106.78,159.158 -106.78,-159.158 m 4.021,214.378 -4.021,-214.378 M 354.35,1197 l 51.03,93.69 m 71.479,63.1 -71.479,-63.1 m 71.479,63.1 72.091,-81.5 m 25.138,125.41 -25.138,-125.41 m -28.115,189.55 -43.976,-108.05 m -61.784,69.82 61.784,-69.82 m -61.784,69.82 105.76,38.23 M 354.35,1197 317.184,1320.93 m 5.304,-112.34 -34.933,-223.188 M 354.35,1197 l -31.862,11.59 m -213.03,329.22 -46.7047,-118.84 m 46.7047,118.84 23.609,-140.26 M 8,1542.4 62.7533,1418.97"
         id="path3787" />
      <path
         style="fill:none;stroke:#00f0c8;stroke-width:0.98500001"
         class="z"
         d="m 252.187,666.139 68.115,-12.744 74.034,-51.052 78.46,138.826 -86.823,41.779 88.375,-38.388 -34.258,-155.74 -89.733,5.94 -65.919,-21.374 m -32.251,92.753 68.115,-12.744 74.034,-51.052 78.46,138.826 -86.823,41.779 88.375,-38.388 -34.258,-155.74 -89.733,5.94 -65.919,-21.374 m 54.506,-87.233 67.733,-19.297 -70.402,-1.917 m 2.669,21.214 67.733,-19.297 -70.402,-1.917 m 0,0 -23.019,-42.396 73.015,-33.223 -80.204,-1.468 -1.365,48.223 m 31.573,28.864 -23.019,-42.396 73.015,-33.223 -80.204,-1.468 -1.365,48.223 m -69.447,-103.174 19.724,-4.899 27.691,15.6 20.423,13.517 -17.901,-16.714 -23.75,-21.121 -20.191,-2.316 m -5.996,15.933 19.724,-4.899 27.691,15.6 20.423,13.517 -17.901,-16.714 -23.75,-21.121 -20.191,-2.316 m 0,0 -16.61,11.761 17.034,-11.138 m -0.424,-0.623 -16.61,11.761 17.034,-11.138 m -83.161,-35.539 45.998,-32.646 55.757,1.643 53.43,19.885 50.599,45.392 -21.019,-64.644 -11.972,-55.739 -16.217,-53.372 -9.962,-55.5194 m -146.614,195.0004 45.998,-32.646 55.757,1.643 53.43,19.885 50.599,45.392 -21.019,-64.644 -11.972,-55.739 -16.217,-53.372 -9.962,-55.5194 m 0,0 92.944,-22.2966 12.849,54.925 7.731,55.1 13.895,55.288 11.779,-55.777 27.291,-48.488 51.744,-22.456 L 516.673,8 m -211.545,79.0516 92.944,-22.2966 12.849,54.925 7.731,55.1 13.895,55.288 11.779,-55.777 27.291,-48.488 51.744,-22.456 L 516.673,8 m 114.241,158.097 -101.849,17.991 -18.661,8.122 -8.503,18.461 11.675,-16.638 20.197,-2.501 102.309,15.161 m -5.168,-40.596 -101.849,17.991 -18.661,8.122 -8.503,18.461 11.675,-16.638 20.197,-2.501 102.309,15.161 m -124.342,59.349 -5.24,-23.923 4.851,24.005 m 0.389,-0.082 -5.24,-23.923 4.851,24.005 m 0,0 -66.605,30.881 73.374,2.468 m -6.769,-33.349 -66.605,30.881 73.374,2.468 m 13.172,27.928 -67.221,43.321 23.331,76.243 0.427,-79.732 78.85,13.344 m -35.387,-53.176 -67.221,43.321 23.331,76.243 0.427,-79.732 78.85,13.344 m 0,0 -11.621,46.822 13.655,-46.27 m -2.034,-0.552 -11.621,46.822 13.655,-46.27 m 33.795,144.627 -79.263,42.481 87.963,-18.702 m -8.7,-23.779 -79.263,42.481 87.963,-18.702 m 45.319,136.803 -89.885,34.702 35.363,138.289 -3.626,-142.693 95.91,9.209 m -37.762,-39.507 -89.885,34.702 35.363,138.289 -3.626,-142.693 95.91,9.209 m 0,0 20.981,125.979 -9.513,-127.36 m -11.468,1.381 20.981,125.979 -9.513,-127.36 m 104.869,-141.36 30.959,90.954 2.707,21.603 -1.648,-21.71 -21.237,-93.702 m -10.781,2.855 30.959,90.954 2.707,21.603 -1.648,-21.71 -21.237,-93.702 m -5.873,435.461 -33.704,-3.3 -33.745,-30.593 -104.644,41.073 112.001,9.65 15.433,42.86 21.447,26.21 m 23.212,-85.9 -33.704,-3.3 -33.745,-30.593 -104.644,41.073 112.001,9.65 15.433,42.86 21.447,26.21 m 0,0 -117.06,24.21 -94.824,23.95 -20.143,-105.84 -25.394,104.7 73.313,64.73 27.088,116.43 m 157.02,-228.18 -117.06,24.21 -94.824,23.95 -20.143,-105.84 -25.394,104.7 73.313,64.73 27.088,116.43 m 0,0 -86.352,-57.5 69.727,76.82 m 16.625,-19.32 -86.352,-57.5 69.727,76.82 m -44.589,48.59 -97.229,-43.91 66.915,83.09 m 30.314,-39.18 -97.229,-43.91 66.915,83.09 m -128.699,-13.27 -75.092,-66.47 65.397,-66.45 -88.196,30.24 -13.239,99.4 m 111.13,3.28 -75.092,-66.47 65.397,-66.45 -88.196,30.24 -13.239,99.4 m 0,0 -88.306,-11.75 74.201,49.29 m 14.105,-37.54 -88.306,-11.75 74.201,49.29 m -227.0867,-38.9 70.3137,-21.42 -72.8497,-9.78 m 2.536,31.2 70.3137,-21.42 -72.8497,-9.78 m -18.476,-109.46 32.3773,5.74 72.9344,9.14 82.37,12.44 -67.489,-48.84 -36.274,-63.93 -14.985,-29.27 m -68.9337,114.72 32.3773,5.74 72.9344,9.14 82.37,12.44 -67.489,-48.84 -36.274,-63.93 -14.985,-29.27 m 60.374,-98.12 70.28,73.32 24.726,43.76 24.786,20.42 31.647,5.62 -30.912,-8.81 -20.542,-24.68 -13.48,-48.42 -54.72,-85.56 m -31.785,24.35 70.28,73.32 24.726,43.76 24.786,20.42 31.647,5.62 -30.912,-8.81 -20.542,-24.68 -13.48,-48.42 -54.72,-85.56 m 191.501,103.44 -39.985,52.44 45.139,-48.08 m -5.154,-4.36 -39.985,52.44 45.139,-48.08 m 0,0 81.793,63.82 -64.813,-81.01 m -16.98,17.19 81.793,63.82 -64.813,-81.01 m 19.85,-27.43 12.801,-43.72 -14.304,43.25 m 1.503,0.47 12.801,-43.72 -14.304,43.25 m -22.16,-172.266 101.885,-50.04 -110.055,27.791 m 8.17,22.249 101.885,-50.04 -110.055,27.791 m -211.029,-35.229 -33.91,-56.954 1.339,66.271 m 32.571,-9.317 -33.91,-56.954 1.339,66.271 m -28.183,-171.487 20.028,45.504 7.147,-49.2 m -27.175,3.696 20.028,45.504 7.147,-49.2 m 77.581,-42.356 3.637,97.826 3.292,21.524 -2.044,-21.678 9.843,-97.397 m -14.728,-0.275 3.637,97.826 3.292,21.524 -2.044,-21.678 9.843,-97.397"
         id="path3789" />
      <path
         style="stroke:#00f0c8;stroke-width:0.98500001"
         class="z"
         d="m 383.618,780.593 4.71,0 0,4.71 -4.71,0 0,-4.71 m 0,0 4.71,0 0,4.71 -4.71,0 0,-4.71 m 20.704,-316.092 4.71,0 0,4.71 -4.71,0 0,-4.71 m 0,0 4.71,0 0,4.71 -4.71,0 0,-4.71 m -20.406,-77.536 4.71,0 0,4.71 -4.71,0 0,-4.71 m 0,0 4.71,0 0,4.71 -4.71,0 0,-4.71 m -83.178,-32.201 4.71,0 0,4.71 -4.71,0 0,-4.71 m 0,0 4.71,0 0,4.71 -4.71,0 0,-4.71 m -78.452,-28.39 4.71,0 0,4.71 -4.71,0 0,-4.71 m 0,0 4.71,0 0,4.71 -4.71,0 0,-4.71 m 139.657,-12.403 4.71,0 0,4.71 -4.71,0 0,-4.71 m 0,0 4.71,0 0,4.71 -4.71,0 0,-4.71 m 68.249,-86.258 4.71,0 0,4.71 -4.71,0 0,-4.71 m 0,0 4.71,0 0,4.71 -4.71,0 0,-4.71 m 69.354,-19.397 4.71,0 0,4.71 -4.71,0 0,-4.71 m 0,0 4.71,0 0,4.71 -4.71,0 0,-4.71 m 4.599,31.448 4.71,0 0,4.71 -4.71,0 0,-4.71 m 0,0 4.71,0 0,4.71 -4.71,0 0,-4.71 m -61.754,54.886 4.71,0 0,4.71 -4.71,0 0,-4.71 m 0,0 4.71,0 0,4.71 -4.71,0 0,-4.71 m 42.656,149.96 4.71,0 0,4.71 -4.71,0 0,-4.71 m 0,0 4.71,0 0,4.71 -4.71,0 0,-4.71 m 67.656,-19.566 4.71,0 0,4.71 -4.71,0 0,-4.71 m 0,0 4.71,0 0,4.71 -4.71,0 0,-4.71 m -31.813,140.838 4.71,0 0,4.71 -4.71,0 0,-4.71 m 0,0 4.71,0 0,4.71 -4.71,0 0,-4.71 m 78.76,291.092 4.71,0 0,4.71 -4.71,0 0,-4.71 m 0,0 4.71,0 0,4.71 -4.71,0 0,-4.71 m 113.265,-7.505 4.71,0 0,4.71 -4.71,0 0,-4.71 m 0,0 4.71,0 0,4.71 -4.71,0 0,-4.71 m 129.022,-156.163 4.71,0 0,4.71 -4.71,0 0,-4.71 m 0,0 4.71,0 0,4.71 -4.71,0 0,-4.71 m -200.851,327.234 4.71,0 0,4.71 -4.71,0 0,-4.71 m 0,0 4.71,0 0,4.71 -4.71,0 0,-4.71 m -83.146,21.03 4.71,0 0,4.71 -4.71,0 0,-4.71 m 0,0 4.71,0 0,4.71 -4.71,0 0,-4.71 m -11.345,228.37 4.71,0 0,4.71 -4.71,0 0,-4.71 m 0,0 4.71,0 0,4.71 -4.71,0 0,-4.71 m -72.091,81.49 4.71,0 0,4.71 -4.71,0 0,-4.71 m 0,0 4.71,0 0,4.71 -4.71,0 0,-4.71 m -71.479,-63.09 4.71,0 0,4.71 -4.71,0 0,-4.71 m 0,0 4.71,0 0,4.71 -4.71,0 0,-4.71 m -189.741,117.88 4.71,0 0,4.71 -4.71,0 0,-4.71 m 0,0 4.71,0 0,4.71 -4.71,0 0,-4.71 m -82.572,-11.03 4.71,0 0,4.71 -4.71,0 0,-4.71 m 0,0 4.71,0 0,4.71 -4.71,0 0,-4.71 m 96.356,-91.92 4.71,0 0,4.71 -4.71,0 0,-4.71 m 0,0 4.71,0 0,4.71 -4.71,0 0,-4.71 m 93.065,-97.03 4.71,0 0,4.71 -4.71,0 0,-4.71 m 0,0 4.71,0 0,4.71 -4.71,0 0,-4.71 m 31.862,-11.59 4.71,0 0,4.71 -4.71,0 0,-4.71 m 0,0 4.71,0 0,4.71 -4.71,0 0,-4.71 m 126.932,15.73 4.71,0 0,4.71 -4.71,0 0,-4.71 m 0,0 4.71,0 0,4.71 -4.71,0 0,-4.71 m -32.162,-152.15 4.71,0 0,4.71 -4.71,0 0,-4.71 m 0,0 4.71,0 0,4.71 -4.71,0 0,-4.71 m 65.421,-179.061 4.71,0 0,4.71 -4.71,0 0,-4.71 m 0,0 4.71,0 0,4.71 -4.71,0 0,-4.71 m -354.994,-64.392 4.71,0 0,4.71 -4.71,0 0,-4.71 m 0,0 4.71,0 0,4.71 -4.71,0 0,-4.71 m -6.816,-59.712 4.71,0 0,4.71 -4.71,0 0,-4.71 m 0,0 4.71,0 0,4.71 -4.71,0 0,-4.71 m 91.657,27.794 4.71,0 0,4.71 -4.71,0 0,-4.71 m 0,0 4.71,0 0,4.71 -4.71,0 0,-4.71"
         id="path3791" />
      <path
         style="stroke:#f0c800;stroke-width:3.94000006"
         class="h"
         d="m 303.274,656.581 -34.058,6.372 m -51.153,13.5 -38.79,21.178 m 41.518,52.191 -40.609,-27.735 m 83.184,30.172 37.958,-65.909 m 57.102,-11.011 76.247,43.886 m -16.558,88.367 64.284,49.288 M 383.44,845.335 341.348,717.375 M 333.877,589.416 300.918,578.73 m 24.4,-70.769 -27.253,43.617 m -18.777,-111.58 -50.829,7.847 m 49.622,-67.064 -50.024,47.325 m -0.854,-65.488 -16.106,59.433 m 30.899,-63.108 -25.968,61.883 M 149.305,385.57 135.033,343.742 m 85.334,-3.928 -42.618,44.446 m 41.859,-75.362 -10.064,-39.662 m 36.462,31.252 9.508,-32.959 m 49.454,66.856 39.553,-12.039 m 165.135,-2.544 -43.274,-15.198 m 24.574,-79.442 -31.087,-33.914 m 80.457,-28.589 22.523,-42.857 m 9.647,-43.744 -3.229,-44.6305 m 47.446,117.7385 -28.402,-33.862 m -40.443,106.449 91.934,22.163 m 33.545,-0.995 -24.843,-24.152 m -93.257,44.512 87.015,-5.522 M 538.251,412.358 504.636,382.275 m 69.096,123.783 -57.553,-39.395 m 18.825,221.322 -63.276,-66.11 m 260.246,67.249 52.435,-70.68 m -25.741,-34.057 34.639,-0.856 m 49.319,2.887 42.439,12.337 m -49.189,68.767 -16.833,-56.279 m 46.48,71.094 45.758,16.772 m -49.75,15.235 34.478,37.366 m -66.554,39.773 55.862,-14.06 m -66.166,39.364 35.255,36.548 m 23.316,29.48 11.376,22.412 m -77.066,56.182 -7.006,-108.597 m -43.582,83.179 26.72,-91.652 m -49.055,-59.695 47.678,-134.36 m -75.222,300.911 -73.04,-61.244 m 7.995,215.399 -57.483,-40.95 m -118.472,18.19 42.891,44.03 m -112.494,57.74 2.945,70.89 m -58.848,-27.27 -18.583,61.96 m -27.254,-57.09 -46.532,48.52 m -21.734,-96.24 -70.197,5.15 m 51.653,-37.97 -57.834,27.03 m 54.088,-34.35 -65.327,12.4 m 12.617,-67.39 -30.187,49.06 m 139.285,-47.7 15.001,-70.64 m 87.585,84.05 -53.39,-79.58 m -23.679,121 L 288.56,1039 m 25.195,113.8 -17.467,-111.6 m -16.439,-165.528 -57.595,-1.057 m -86.917,19.623 -51.0964,21.67 m -3.7401,-24.376 53.5905,-5.419 M 65.9236,718.672 110.443,714.168 m -64.0827,591.512 9.238,54.73 m 42.1833,147.69 -23.3522,-59.42 m -60.5162,65.53 11.8264,-56.38 m 7.6248,83.42 50.7288,-2.3 m 37.3788,-4.83 24.03,-7.37 m 26.545,-32.3 29.061,-57.25 m 427.422,-136.52 -13.544,-58.21 m 148.071,-134.81 -58.53,12.11"
         id="path3793" />
      <path
         style="stroke:#f0c800;stroke-width:3.94000006"
         class="h"
         d="m 149.377,385.782 0.414,-4.691 m -3.053,-83.355 0.419,4.691 m 85.792,144.725 3.658,-2.967 m 63.865,103.54 3.427,3.231 m -85.638,125.389 1.191,4.557 m -97.046,32.056 -3.888,2.659 m -76.9984,44.731 4.1597,-2.209 m -3.1808,34.274 4.4892,-1.425 m -1.3066,44.976 4.6469,-0.769 m 5.8624,75.243 4.5605,-1.178 m 85.4961,-19.648 -4.705,0.235 m 123.873,-14.44 -4.126,-2.271 m 69.438,10.694 -0.213,-4.705 m 86.315,84.873 1.493,4.467 m -108.514,40.905 2.497,3.99 m -89.951,14.92 1.586,4.44 m -75.549,69.58 4.384,1.72 m -108.387,189.97 4.4668,-1.49 m -1.7036,131.82 -1.4824,4.47 m -27.7792,66.46 2.3877,-4.06 m 59.8477,47.94 -0.6739,-4.66 m 69.8359,-8.88 -0.592,-4.67 m 24.701,3.27 1.616,-4.43 m 53.808,-20.85 -0.68,-4.66 m 247.048,-28.29 4.691,-0.42 m 37.786,10.6 -4.192,-2.15 m 17.151,-22.8 -2.277,-4.12 m 79.438,-86.09 -2.604,-3.93 m -186.638,-228.18 2.821,3.77 m -25.838,8.59 -2.682,-3.88 m 438.411,-125.17 -0.649,-4.66 m 62.947,-20.061 -2.063,-4.234 m 14.47,-20.525 -2.528,-3.974 m -1.782,-27.93 -2.842,-3.756 m -7.918,-18.283 -2.966,-3.659 m -36.275,-54.622 2.578,3.942 m -5.99,-67.662 -0.203,-4.706 m 83.774,-67.48 -4.604,-0.995 m 2.808,-42.071 -4.708,0.132 m -1.653,-31.254 -4.06,-2.388 m -30.954,-38.2 2.954,3.668 m -90.789,-20.116 -2.631,3.907 m -79.595,86.916 3.348,-3.313 m -81.719,-33.788 -4.059,-2.389 m -52.491,-189.604 -4.006,-2.476 m -58.852,-137.45 -4.683,-0.502 m 1.236,-35.793 4.695,-0.386 m 82.041,0.41 -4.708,-0.145 m 43.749,-55.19 -4.617,-0.93 m -52.589,-100.159 -2.928,3.689 M 568.399,19.4353 563.8,18.4186 m -27.519,-9.99079 1.826,4.34159"
         id="path3795" />
    </g>
  </g>
</svg>
