<?xml version="1.0"?>
<svg width="652" height="678" version="1.1" xmlns="http://www.w3.org/2000/svg" xmlns:xlink="http://www.w3.org/1999/xlink">
  <defs>
  <style type="text/css">
    <![CDATA[
      .b {stroke:rgb(0,0,0);stroke-width:1.695000;fill:none}
      .c {stroke:rgb(128,128,128);stroke-width:0.847500;stroke-dasharray:3.260000, 3.260000;}
      .h {stroke:rgb(240,200,0);stroke-width:1.695000;}
      .m {stroke:rgb(255,0,0);stroke-width:0.847500;}
      .n {stroke:rgb(128,128,128);stroke-width:0.847500}
      .t {stroke:rgb(0,128,0);stroke-width:0.847500;}
      .tab {stroke:rgb(0,0,255);stroke-width:0.423750;fill:none}
      .v {stroke:rgb(0,0,255);stroke-width:0.847500;}
      .z {stroke:rgb(0,240,200);stroke-width:0.423750;}
    ]]>
  </style>
  </defs>
  <path fill="none" class="b" d=" M 45.6611 57.6614 L 29.9283 37.1219 L 51.3469 44.1559 L 84.2286 49.8474 L 126.864 48.242 L 129.041 57.4082 L 90.5985 88.4403 L 85.8011 67.6226 L 84.4454 57.5371 L 73.0053 49.0807 L 82.2586 59.885 L 83.1074 70.0262 L 87.3774 90.9598 L 135.638 80.3889 L 98.4582 101.52 L 137.276 83.5759 L 143.695 88.9074 L 152.993 95.6698 L 145.847 86.6626 L 142.791 78.8981 L 149.428 72.213 L 159.716 61.4574 L 177.28 78.9287 L 210.829 91.2615 L 183.702 99.9652 L 210.842 91.305 L 209.235 105.983 L 219.649 146.711 L 213.412 105.137 L 217.262 90.8832 L 238.709 94.0225 L 235.88 124.264 L 239.235 94.0758 L 217.885 90.3378 L 187.08 72.2106 L 188.265 47.465 L 190.127 11.7685 L 219.732 8.17839 L 233.455 39.2495 L 224.047 54.2386 L 209.32 36.566 L 220.45 56.698 L 223.829 73.4214 L 227.112 56.679 L 244.776 57.7577 L 241.736 73.5026 L 244.981 57.799 L 265.975 31.0966 L 247.112 8 L 277.606 27.2437 L 287.449 24.7543 L 286.481 56.4525 L 311.966 69.5881 L 284.797 72.5659 L 275.804 58.6097 L 284.734 72.6053 L 277.943 74.5552 L 263.506 74.433 L 262.63 59.0859 L 261.285 74.3987 L 275.305 77.8407 L 282.339 77.1755 L 293.026 106.844 L 289.255 75.5365 L 314.83 85.1752 L 310.652 105.839 L 323.136 169.952 L 308.908 162.798 L 321.495 172.555 L 354.438 236.195 L 344.958 251.088 L 309.348 214.371 L 300.062 208.733 L 280.482 197.026 L 297.223 212.523 L 305.176 219.923 L 297.948 235.702 L 305.206 219.936 L 327.512 265.965 L 341.142 254.746 L 352.618 295.334 L 359.935 321.003 L 343.579 341.892 L 364.775 325.937 L 379.143 334.457 L 367.109 322.872 L 371.193 296.495 L 390.907 293.766 L 425.203 320.412 L 450.521 352.059 L 420.97 380.197 L 408.911 369.619 L 420.827 380.358 L 403.271 386.7 L 420.845 380.409 L 458.876 365.624 L 437.993 330.89 L 450.978 314.137 L 485.812 294.171 L 450.624 313.506 L 429.428 313.549 L 428.689 270.125 L 434.723 281.309 L 434.788 268.601 L 435.694 248.72 L 477.873 248.788 L 549.201 255.696 L 606.702 286.68 L 512.219 279.372 L 605.098 298.185 L 557.333 315.778 L 534.374 326.615 L 557.764 316.741 L 607.533 306.063 L 617.194 324.799 L 644.787 332.586 L 628.919 341.343 L 594.616 355.538 L 578.998 334.26 L 594.073 355.926 L 558.741 346.722 L 515.236 359.492 L 559.746 350.852 L 593.624 364.467 L 571.84 371.077 L 605.59 406.261 L 590.863 410.032 L 526.467 381.957 L 488.94 375.849 L 467.786 354.272 L 490.087 345.574 L 466.99 351.86 L 472.225 381.62 L 486.078 417.028 L 476.561 486.63 L 485.352 499.032 L 506.619 455.161 L 517.684 475.055 L 501.528 521.74 L 523.59 477.539 L 535.603 512.665 L 542.036 529.61 L 510.647 534.139 L 516.41 542.497 L 506.172 577.072 L 478.205 554.334 L 468.102 544.949 L 455.552 530.18 L 430.924 540.301 L 456.216 531.978 L 467.342 547.848 L 475.66 558.845 L 497.648 587.407 L 519.082 616.01 L 509.314 627.24 L 479.347 596.87 L 456.289 572.747 L 442.162 555.177 L 423.994 561.911 L 406.2 584.7 L 389.407 573.475 L 405.993 585.003 L 383.717 599.363 L 373.064 591.25 L 372.683 551.16 L 357.892 571.071 L 313.578 560.806 L 293.049 551.354 L 295.175 573.854 L 308.779 617.259 L 333.124 612.505 L 307.421 643.274 L 301.918 655.482 L 286.9 630.097 L 281.924 608.547 L 285.143 630.429 L 247.824 615.194 L 211.433 620.138 L 213.238 607.591 L 250.741 601.47 L 264.291 568.452 L 272.377 556.436 L 279.769 543.225 L 304.96 510.428 L 304.899 486.982 L 343.141 494.854 L 313.047 532.655 L 332.987 547.053 L 347.913 527.505 L 395.609 535.231 L 386.756 497.204 L 414.143 523.325 L 411.219 549.619 L 418.92 524.309 L 422.413 484.297 L 443.548 514.92 L 424.876 482.737 L 448.653 451.3 L 454.339 415.701 L 459.6 460.978 L 458.213 415.417 L 465.751 393.188 L 457.894 415.307 L 453.414 396.669 L 435.359 403.108 L 401.333 415.018 L 372.938 387.681 L 342.56 413.954 L 351.414 377.158 L 367.144 357.653 L 376.773 362.022 L 367.53 356.888 L 351.118 375.822 L 328.145 371.135 L 300.197 340.654 L 326.667 310.352 L 297.27 337.824 L 311.631 297.859 L 292.435 335.739 L 282.009 324.765 L 272.502 313.836 L 248.834 287.123 L 281.371 272.929 L 292.66 278.914 L 281.391 272.892 L 290.397 227.495 L 274.303 215.877 L 289.876 228.185 L 278.262 272.985 L 245.129 285.725 L 259.904 250.714 L 250.774 241.923 L 251.538 195.291 L 253.016 175.202 L 280.91 151.722 L 252.299 174.322 L 260.156 143.322 L 259.848 100.264 L 274.023 102.217 L 260.066 99.0637 L 253.446 97.67 L 259.736 100.16 L 255.983 143.055 L 249.757 137.024 L 254.895 144.006 L 239.669 172.128 L 234.769 191.668 L 234.655 166.183 L 208.366 166.962 L 189.811 142.939 L 196.176 119.699 L 183.614 140.261 L 163.535 102.566 L 156.988 99.8472 L 162.575 104.211 L 155.804 146.38 L 135.284 133.489 L 154.326 148.479 L 140.028 175.255 L 150.254 199.487 L 125.929 207.088 L 126.123 199.949 L 125.208 207.03 L 78.6048 208.849 L 42.9111 200.214 L 8 180.062 L 48.0653 190.703 L 84.4502 198.319 L 83.9091 146.724 L 110.99 161.565 L 83.9684 146.618 L 115.162 119.157 L 82.085 144.318 L 59.3754 121.023 L 81.2157 145.134 L 75.1243 196.371 L 43.2984 177.163 L 13.4294 148.418 L 23.1568 142.628 L 13.3503 148.281 L 18.2563 119.199 L 18.2321 92.6948 L 9.04455 65.2802 L 14.7327 46.7577 L 36.4129 60.8786 L 41.4266 79.0321 L 46.5204 106.508 L 46.9664 78.5672 L 72.4965 59.9056 L 45.5738 76.4949 L 45.6611 57.6614" />
  <path class="c" d=" M 18.2321 92.6948 L 41.4266 79.0321 M 41.4266 79.0321 L 18.2321 92.6948 M 18.2321 92.6948 L 36.4129 60.8786 M 36.4129 60.8786 L 9.04455 65.2802 M 9.04455 65.2802 L 36.4129 60.8786 M 36.4129 60.8786 L 18.2321 92.6948 M 18.2321 92.6948 L 46.5204 106.508 M 46.5204 106.508 L 18.2563 119.199 M 18.2563 119.199 L 46.5204 106.508 M 46.5204 106.508 L 59.3754 121.023 M 59.3754 121.023 L 23.1568 142.628 M 23.1568 142.628 L 59.3754 121.023 M 59.3754 121.023 L 98.4582 101.52 M 98.4582 101.52 L 59.3754 121.023 M 59.3754 121.023 L 87.3774 90.9598 M 87.3774 90.9598 L 46.9664 78.5672 M 46.9664 78.5672 L 87.3774 90.9598 M 87.3774 90.9598 L 59.3754 121.023 M 59.3754 121.023 L 46.5204 106.508 M 46.5204 106.508 L 18.2321 92.6948 M 18.2563 119.199 L 23.1568 142.628 M 23.1568 142.628 L 18.2563 119.199 M 23.1568 142.628 L 46.5204 106.508 M 46.5204 106.508 L 23.1568 142.628 M 23.1568 142.628 L 81.2157 145.134 M 81.2157 145.134 L 43.2984 177.163 M 43.2984 177.163 L 81.2157 145.134 M 81.2157 145.134 L 23.1568 142.628 M 23.1568 142.628 L 43.2984 177.163 M 43.2984 177.163 L 23.1568 142.628 M 59.3754 121.023 L 115.162 119.157 M 115.162 119.157 L 143.695 88.9074 M 143.695 88.9074 L 98.4582 101.52 M 98.4582 101.52 L 143.695 88.9074 M 143.695 88.9074 L 115.162 119.157 M 115.162 119.157 L 135.284 133.489 M 135.284 133.489 L 110.99 161.565 M 110.99 161.565 L 84.4502 198.319 M 84.4502 198.319 L 110.99 161.565 M 110.99 161.565 L 135.284 133.489 M 135.284 133.489 L 156.988 99.8472 M 156.988 99.8472 L 135.284 133.489 M 135.284 133.489 L 115.162 119.157 M 115.162 119.157 L 59.3754 121.023 M 46.5204 106.508 L 87.3774 90.9598 M 87.3774 90.9598 L 98.4582 101.52 M 98.4582 101.52 L 87.3774 90.9598 M 87.3774 90.9598 L 46.5204 106.508 M 46.9664 78.5672 L 83.1074 70.0262 M 83.1074 70.0262 L 46.9664 78.5672 M 46.9664 78.5672 L 82.2586 59.885 M 82.2586 59.885 L 46.9664 78.5672 M 45.6611 57.6614 L 51.3469 44.1559 M 51.3469 44.1559 L 82.2586 59.885 M 82.2586 59.885 L 72.4965 59.9056 M 72.4965 59.9056 L 82.2586 59.885 M 82.2586 59.885 L 51.3469 44.1559 M 51.3469 44.1559 L 73.0053 49.0807 M 73.0053 49.0807 L 84.2286 49.8474 M 84.2286 49.8474 L 84.4454 57.5371 M 84.4454 57.5371 L 126.864 48.242 M 126.864 48.242 L 84.4454 57.5371 M 84.4454 57.5371 L 84.2286 49.8474 M 84.2286 49.8474 L 73.0053 49.0807 M 73.0053 49.0807 L 51.3469 44.1559 M 51.3469 44.1559 L 45.6611 57.6614 M 45.6611 57.6614 L 72.4965 59.9056 M 72.4965 59.9056 L 45.6611 57.6614 M 45.6611 57.6614 L 82.2586 59.885 M 82.2586 59.885 L 45.6611 57.6614 M 84.4454 57.5371 L 129.041 57.4082 M 129.041 57.4082 L 84.4454 57.5371 M 85.8011 67.6226 L 129.041 57.4082 M 129.041 57.4082 L 85.8011 67.6226 M 98.4582 101.52 L 115.162 119.157 M 115.162 119.157 L 110.99 161.565 M 110.99 161.565 L 140.028 175.255 M 140.028 175.255 L 110.99 161.565 M 110.99 161.565 L 154.326 148.479 M 154.326 148.479 L 110.99 161.565 M 110.99 161.565 L 115.162 119.157 M 115.162 119.157 L 98.4582 101.52 M 115.162 119.157 L 152.993 95.6698 M 152.993 95.6698 L 177.28 78.9287 M 177.28 78.9287 L 142.791 78.8981 M 142.791 78.8981 L 177.28 78.9287 M 177.28 78.9287 L 152.993 95.6698 M 152.993 95.6698 L 135.284 133.489 M 135.284 133.489 L 162.575 104.211 M 162.575 104.211 L 135.284 133.489 M 135.284 133.489 L 152.993 95.6698 M 152.993 95.6698 L 163.535 102.566 M 163.535 102.566 L 183.702 99.9652 M 183.702 99.9652 L 196.176 119.699 M 196.176 119.699 L 183.702 99.9652 M 183.702 99.9652 L 163.535 102.566 M 163.535 102.566 L 152.993 95.6698 M 152.993 95.6698 L 115.162 119.157 M 152.993 95.6698 L 156.988 99.8472 M 156.988 99.8472 L 152.993 95.6698 M 145.847 86.6626 L 177.28 78.9287 M 177.28 78.9287 L 183.702 99.9652 M 183.702 99.9652 L 177.28 78.9287 M 177.28 78.9287 L 145.847 86.6626 M 149.428 72.213 L 177.28 78.9287 M 177.28 78.9287 L 163.535 102.566 M 163.535 102.566 L 177.28 78.9287 M 177.28 78.9287 L 149.428 72.213 M 187.08 72.2106 L 220.45 56.698 M 220.45 56.698 L 187.08 72.2106 M 187.08 72.2106 L 223.829 73.4214 M 223.829 73.4214 L 239.235 94.0758 M 239.235 94.0758 L 253.446 97.67 M 253.446 97.67 L 249.757 137.024 M 249.757 137.024 L 253.446 97.67 M 253.446 97.67 L 239.235 94.0758 M 239.235 94.0758 L 241.736 73.5026 M 241.736 73.5026 L 239.235 94.0758 M 239.235 94.0758 L 223.829 73.4214 M 223.829 73.4214 L 241.736 73.5026 M 241.736 73.5026 L 227.112 56.679 M 227.112 56.679 L 241.736 73.5026 M 241.736 73.5026 L 253.446 97.67 M 253.446 97.67 L 241.736 73.5026 M 241.736 73.5026 L 223.829 73.4214 M 223.829 73.4214 L 187.08 72.2106 M 187.08 72.2106 L 209.32 36.566 M 209.32 36.566 L 219.732 8.17839 M 219.732 8.17839 L 209.32 36.566 M 209.32 36.566 L 233.455 39.2495 M 233.455 39.2495 L 209.32 36.566 M 209.32 36.566 L 188.265 47.465 M 188.265 47.465 L 219.732 8.17839 M 219.732 8.17839 L 188.265 47.465 M 188.265 47.465 L 209.32 36.566 M 209.32 36.566 L 187.08 72.2106 M 183.702 99.9652 L 183.614 140.261 M 183.614 140.261 L 183.702 99.9652 M 183.702 99.9652 L 209.235 105.983 M 209.235 105.983 L 196.176 119.699 M 196.176 119.699 L 208.366 166.962 M 208.366 166.962 L 196.176 119.699 M 196.176 119.699 L 209.235 105.983 M 209.235 105.983 L 183.702 99.9652 M 196.176 119.699 L 219.649 146.711 M 219.649 146.711 L 235.88 124.264 M 235.88 124.264 L 249.757 137.024 M 249.757 137.024 L 235.88 124.264 M 235.88 124.264 L 217.262 90.8832 M 217.262 90.8832 L 235.88 124.264 M 235.88 124.264 L 234.655 166.183 M 234.655 166.183 L 235.88 124.264 M 235.88 124.264 L 213.412 105.137 M 213.412 105.137 L 235.88 124.264 M 235.88 124.264 L 219.649 146.711 M 219.649 146.711 L 234.655 166.183 M 234.655 166.183 L 249.757 137.024 M 249.757 137.024 L 239.235 94.0758 M 239.235 94.0758 L 249.757 137.024 M 249.757 137.024 L 239.669 172.128 M 239.669 172.128 L 249.757 137.024 M 249.757 137.024 L 234.655 166.183 M 234.655 166.183 L 219.649 146.711 M 219.649 146.711 L 196.176 119.699 M 219.649 146.711 L 208.366 166.962 M 208.366 166.962 L 219.649 146.711 M 234.655 166.183 L 239.669 172.128 M 239.669 172.128 L 234.655 166.183 M 253.016 175.202 L 274.303 215.877 M 274.303 215.877 L 278.262 272.985 M 278.262 272.985 L 274.303 215.877 M 274.303 215.877 L 253.016 175.202 M 253.016 175.202 L 280.482 197.026 M 280.482 197.026 L 290.397 227.495 M 290.397 227.495 L 297.948 235.702 M 297.948 235.702 L 290.397 227.495 M 290.397 227.495 L 292.66 278.914 M 292.66 278.914 L 311.631 297.859 M 311.631 297.859 L 327.512 265.965 M 327.512 265.965 L 311.631 297.859 M 311.631 297.859 L 292.66 278.914 M 292.66 278.914 L 282.009 324.765 M 282.009 324.765 L 311.631 297.859 M 311.631 297.859 L 282.009 324.765 M 282.009 324.765 L 292.66 278.914 M 292.66 278.914 L 290.397 227.495 M 290.397 227.495 L 280.482 197.026 M 280.482 197.026 L 280.91 151.722 M 280.91 151.722 L 308.908 162.798 M 308.908 162.798 L 280.91 151.722 M 280.91 151.722 L 260.156 143.322 M 260.156 143.322 L 280.91 151.722 M 280.91 151.722 L 274.023 102.217 M 274.023 102.217 L 280.91 151.722 M 280.91 151.722 L 259.848 100.264 M 259.848 100.264 L 280.91 151.722 M 280.91 151.722 L 300.062 208.733 M 300.062 208.733 L 280.91 151.722 M 280.91 151.722 L 280.482 197.026 M 280.482 197.026 L 253.016 175.202 M 251.538 195.291 L 259.904 250.714 M 259.904 250.714 L 251.538 195.291 M 251.538 195.291 L 274.303 215.877 M 274.303 215.877 L 259.904 250.714 M 259.904 250.714 L 274.303 215.877 M 274.303 215.877 L 280.482 197.026 M 280.482 197.026 L 274.303 215.877 M 274.303 215.877 L 251.538 195.291 M 297.223 212.523 L 297.948 235.702 M 297.948 235.702 L 327.512 265.965 M 327.512 265.965 L 297.948 235.702 M 297.948 235.702 L 297.223 212.523 M 297.223 212.523 L 290.397 227.495 M 290.397 227.495 L 297.223 212.523 M 300.062 208.733 L 321.495 172.555 M 321.495 172.555 L 300.062 208.733 M 300.062 208.733 L 308.908 162.798 M 308.908 162.798 L 274.023 102.217 M 274.023 102.217 L 308.908 162.798 M 308.908 162.798 L 293.026 106.844 M 293.026 106.844 L 323.136 169.952 M 323.136 169.952 L 293.026 106.844 M 293.026 106.844 L 308.908 162.798 M 308.908 162.798 L 300.062 208.733 M 309.348 214.371 L 354.438 236.195 M 354.438 236.195 L 309.348 214.371 M 309.348 214.371 L 321.495 172.555 M 321.495 172.555 L 309.348 214.371 M 297.948 235.702 L 311.631 297.859 M 311.631 297.859 L 297.948 235.702 M 297.948 235.702 L 292.66 278.914 M 292.66 278.914 L 272.502 313.836 M 272.502 313.836 L 281.371 272.929 M 281.371 272.929 L 272.502 313.836 M 272.502 313.836 L 292.66 278.914 M 292.66 278.914 L 297.948 235.702 M 259.904 250.714 L 278.262 272.985 M 278.262 272.985 L 259.904 250.714 M 327.512 265.965 L 326.667 310.352 M 326.667 310.352 L 352.618 295.334 M 352.618 295.334 L 326.667 310.352 M 326.667 310.352 L 359.935 321.003 M 359.935 321.003 L 326.667 310.352 M 326.667 310.352 L 343.579 341.892 M 343.579 341.892 L 326.667 310.352 M 326.667 310.352 L 328.145 371.135 M 328.145 371.135 L 326.667 310.352 M 326.667 310.352 L 327.512 265.965 M 327.512 265.965 L 352.618 295.334 M 352.618 295.334 L 327.512 265.965 M 311.631 297.859 L 326.667 310.352 M 326.667 310.352 L 311.631 297.859 M 343.579 341.892 L 367.53 356.888 M 367.53 356.888 L 343.579 341.892 M 343.579 341.892 L 351.118 375.822 M 351.118 375.822 L 343.579 341.892 M 343.579 341.892 L 328.145 371.135 M 328.145 371.135 L 343.579 341.892 M 364.775 325.937 L 367.53 356.888 M 367.53 356.888 L 379.143 334.457 M 379.143 334.457 L 367.53 356.888 M 367.53 356.888 L 364.775 325.937 M 367.109 322.872 L 390.907 293.766 M 390.907 293.766 L 367.109 322.872 M 379.143 334.457 L 425.203 320.412 M 425.203 320.412 L 408.911 369.619 M 408.911 369.619 L 425.203 320.412 M 425.203 320.412 L 379.143 334.457 M 379.143 334.457 L 376.773 362.022 M 376.773 362.022 L 408.911 369.619 M 408.911 369.619 L 403.271 386.7 M 403.271 386.7 L 408.911 369.619 M 408.911 369.619 L 376.773 362.022 M 376.773 362.022 L 379.143 334.457 M 379.143 334.457 L 408.911 369.619 M 408.911 369.619 L 450.521 352.059 M 450.521 352.059 L 408.911 369.619 M 408.911 369.619 L 379.143 334.457 M 379.143 334.457 L 390.907 293.766 M 390.907 293.766 L 379.143 334.457 M 367.144 357.653 L 372.938 387.681 M 372.938 387.681 L 403.271 386.7 M 403.271 386.7 L 401.333 415.018 M 401.333 415.018 L 403.271 386.7 M 403.271 386.7 L 372.938 387.681 M 372.938 387.681 L 376.773 362.022 M 376.773 362.022 L 372.938 387.681 M 372.938 387.681 L 367.144 357.653 M 376.773 362.022 L 403.271 386.7 M 403.271 386.7 L 376.773 362.022 M 372.938 387.681 L 351.414 377.158 M 351.414 377.158 L 372.938 387.681 M 401.333 415.018 L 420.845 380.409 M 420.845 380.409 L 401.333 415.018 M 435.359 403.108 L 420.845 380.409 M 420.845 380.409 L 435.359 403.108 M 453.414 396.669 L 472.225 381.62 M 472.225 381.62 L 453.414 396.669 M 453.414 396.669 L 420.845 380.409 M 420.845 380.409 L 453.414 396.669 M 453.414 396.669 L 465.751 393.188 M 465.751 393.188 L 486.078 417.028 M 486.078 417.028 L 459.6 460.978 M 459.6 460.978 L 448.653 451.3 M 448.653 451.3 L 459.6 460.978 M 459.6 460.978 L 486.078 417.028 M 486.078 417.028 L 458.213 415.417 M 458.213 415.417 L 486.078 417.028 M 486.078 417.028 L 465.751 393.188 M 465.751 393.188 L 472.225 381.62 M 472.225 381.62 L 458.876 365.624 M 458.876 365.624 L 466.99 351.86 M 466.99 351.86 L 450.978 314.137 M 450.978 314.137 L 466.99 351.86 M 466.99 351.86 L 458.876 365.624 M 458.876 365.624 L 472.225 381.62 M 472.225 381.62 L 465.751 393.188 M 465.751 393.188 L 453.414 396.669 M 453.414 396.669 L 458.876 365.624 M 458.876 365.624 L 453.414 396.669 M 488.94 375.849 L 490.087 345.574 M 490.087 345.574 L 488.94 375.849 M 488.94 375.849 L 515.236 359.492 M 515.236 359.492 L 490.087 345.574 M 490.087 345.574 L 515.236 359.492 M 515.236 359.492 L 526.467 381.957 M 526.467 381.957 L 515.236 359.492 M 515.236 359.492 L 571.84 371.077 M 571.84 371.077 L 559.746 350.852 M 559.746 350.852 L 571.84 371.077 M 571.84 371.077 L 590.863 410.032 M 590.863 410.032 L 571.84 371.077 M 571.84 371.077 L 515.236 359.492 M 515.236 359.492 L 488.94 375.849 M 490.087 345.574 L 558.741 346.722 M 558.741 346.722 L 534.374 326.615 M 534.374 326.615 L 485.812 294.171 M 485.812 294.171 L 534.374 326.615 M 534.374 326.615 L 558.741 346.722 M 558.741 346.722 L 490.087 345.574 M 490.087 345.574 L 450.978 314.137 M 450.978 314.137 L 534.374 326.615 M 534.374 326.615 L 450.978 314.137 M 450.978 314.137 L 490.087 345.574 M 490.087 345.574 L 534.374 326.615 M 534.374 326.615 L 578.998 334.26 M 578.998 334.26 L 628.919 341.343 M 628.919 341.343 L 578.998 334.26 M 578.998 334.26 L 557.764 316.741 M 557.764 316.741 L 578.998 334.26 M 578.998 334.26 L 534.374 326.615 M 534.374 326.615 L 490.087 345.574 M 466.99 351.86 L 437.993 330.89 M 437.993 330.89 L 466.99 351.86 M 450.624 313.506 L 434.723 281.309 M 434.723 281.309 L 429.428 313.549 M 429.428 313.549 L 434.723 281.309 M 434.723 281.309 L 485.812 294.171 M 485.812 294.171 L 434.723 281.309 M 434.723 281.309 L 450.624 313.506 M 485.812 294.171 L 557.333 315.778 M 557.333 315.778 L 485.812 294.171 M 485.812 294.171 L 434.788 268.601 M 434.788 268.601 L 512.219 279.372 M 512.219 279.372 L 549.201 255.696 M 549.201 255.696 L 512.219 279.372 M 512.219 279.372 L 557.333 315.778 M 557.333 315.778 L 512.219 279.372 M 512.219 279.372 L 434.788 268.601 M 434.788 268.601 L 485.812 294.171 M 485.812 294.171 L 512.219 279.372 M 512.219 279.372 L 477.873 248.788 M 477.873 248.788 L 512.219 279.372 M 512.219 279.372 L 485.812 294.171 M 477.873 248.788 L 434.788 268.601 M 434.788 268.601 L 477.873 248.788 M 557.764 316.741 L 617.194 324.799 M 617.194 324.799 L 628.919 341.343 M 628.919 341.343 L 617.194 324.799 M 617.194 324.799 L 557.764 316.741 M 578.998 334.26 L 558.741 346.722 M 558.741 346.722 L 578.998 334.26 M 578.998 334.26 L 617.194 324.799 M 617.194 324.799 L 578.998 334.26 M 571.84 371.077 L 526.467 381.957 M 526.467 381.957 L 571.84 371.077 M 517.684 475.055 L 485.352 499.032 M 485.352 499.032 L 443.548 514.92 M 443.548 514.92 L 455.552 530.18 M 455.552 530.18 L 443.548 514.92 M 443.548 514.92 L 476.561 486.63 M 476.561 486.63 L 443.548 514.92 M 443.548 514.92 L 430.924 540.301 M 430.924 540.301 L 418.92 524.309 M 418.92 524.309 L 430.924 540.301 M 430.924 540.301 L 442.162 555.177 M 442.162 555.177 L 430.924 540.301 M 430.924 540.301 L 443.548 514.92 M 443.548 514.92 L 485.352 499.032 M 485.352 499.032 L 517.684 475.055 M 485.352 499.032 L 455.552 530.18 M 455.552 530.18 L 510.647 534.139 M 510.647 534.139 L 455.552 530.18 M 455.552 530.18 L 485.352 499.032 M 485.352 499.032 L 501.528 521.74 M 501.528 521.74 L 535.603 512.665 M 535.603 512.665 L 501.528 521.74 M 501.528 521.74 L 455.552 530.18 M 455.552 530.18 L 501.528 521.74 M 501.528 521.74 L 485.352 499.032 M 476.561 486.63 L 459.6 460.978 M 459.6 460.978 L 443.548 514.92 M 443.548 514.92 L 459.6 460.978 M 459.6 460.978 L 424.876 482.737 M 424.876 482.737 L 459.6 460.978 M 459.6 460.978 L 476.561 486.63 M 501.528 521.74 L 510.647 534.139 M 510.647 534.139 L 535.603 512.665 M 535.603 512.665 L 510.647 534.139 M 510.647 534.139 L 478.205 554.334 M 478.205 554.334 L 516.41 542.497 M 516.41 542.497 L 478.205 554.334 M 478.205 554.334 L 510.647 534.139 M 510.647 534.139 L 468.102 544.949 M 468.102 544.949 L 510.647 534.139 M 510.647 534.139 L 501.528 521.74 M 467.342 547.848 L 442.162 555.177 M 442.162 555.177 L 467.342 547.848 M 467.342 547.848 L 456.289 572.747 M 456.289 572.747 L 467.342 547.848 M 467.342 547.848 L 430.924 540.301 M 430.924 540.301 L 423.994 561.911 M 423.994 561.911 L 411.219 549.619 M 411.219 549.619 L 423.994 561.911 M 423.994 561.911 L 389.407 573.475 M 389.407 573.475 L 372.683 551.16 M 372.683 551.16 L 389.407 573.475 M 389.407 573.475 L 383.717 599.363 M 383.717 599.363 L 389.407 573.475 M 389.407 573.475 L 423.994 561.911 M 423.994 561.911 L 430.924 540.301 M 430.924 540.301 L 467.342 547.848 M 475.66 558.845 L 479.347 596.87 M 479.347 596.87 L 519.082 616.01 M 519.082 616.01 L 479.347 596.87 M 479.347 596.87 L 497.648 587.407 M 497.648 587.407 L 479.347 596.87 M 479.347 596.87 L 475.66 558.845 M 475.66 558.845 L 456.289 572.747 M 456.289 572.747 L 475.66 558.845 M 430.924 540.301 L 411.219 549.619 M 411.219 549.619 L 395.609 535.231 M 395.609 535.231 L 411.219 549.619 M 411.219 549.619 L 372.683 551.16 M 372.683 551.16 L 347.913 527.505 M 347.913 527.505 L 372.683 551.16 M 372.683 551.16 L 411.219 549.619 M 411.219 549.619 L 389.407 573.475 M 389.407 573.475 L 411.219 549.619 M 411.219 549.619 L 430.924 540.301 M 418.92 524.309 L 443.548 514.92 M 443.548 514.92 L 418.92 524.309 M 414.143 523.325 L 395.609 535.231 M 395.609 535.231 L 372.683 551.16 M 372.683 551.16 L 395.609 535.231 M 395.609 535.231 L 414.143 523.325 M 389.407 573.475 L 373.064 591.25 M 373.064 591.25 L 389.407 573.475 M 357.892 571.071 L 332.987 547.053 M 332.987 547.053 L 357.892 571.071 M 357.892 571.071 L 347.913 527.505 M 347.913 527.505 L 357.892 571.071 M 332.987 547.053 L 313.578 560.806 M 313.578 560.806 L 332.987 547.053 M 332.987 547.053 L 293.049 551.354 M 293.049 551.354 L 279.769 543.225 M 279.769 543.225 L 293.049 551.354 M 293.049 551.354 L 272.377 556.436 M 272.377 556.436 L 293.049 551.354 M 293.049 551.354 L 264.291 568.452 M 264.291 568.452 L 293.049 551.354 M 293.049 551.354 L 313.047 532.655 M 313.047 532.655 L 304.96 510.428 M 304.96 510.428 L 313.047 532.655 M 313.047 532.655 L 293.049 551.354 M 293.049 551.354 L 332.987 547.053 M 313.047 532.655 L 279.769 543.225 M 279.769 543.225 L 313.047 532.655 M 304.96 510.428 L 343.141 494.854 M 343.141 494.854 L 304.96 510.428 M 295.175 573.854 L 281.924 608.547 M 281.924 608.547 L 295.175 573.854 M 295.175 573.854 L 264.291 568.452 M 264.291 568.452 L 295.175 573.854 M 295.175 573.854 L 250.741 601.47 M 250.741 601.47 L 295.175 573.854 M 281.924 608.547 L 247.824 615.194 M 247.824 615.194 L 281.924 608.547 M 281.924 608.547 L 308.779 617.259 M 308.779 617.259 L 281.924 608.547 M 281.924 608.547 L 307.421 643.274 M 307.421 643.274 L 286.9 630.097 M 286.9 630.097 L 307.421 643.274 M 307.421 643.274 L 281.924 608.547 M 281.924 608.547 L 250.741 601.47 M 250.741 601.47 L 281.924 608.547 M 308.779 617.259 L 307.421 643.274 M 307.421 643.274 L 308.779 617.259 M 250.741 601.47 L 247.824 615.194 M 247.824 615.194 L 213.238 607.591 M 213.238 607.591 L 247.824 615.194 M 247.824 615.194 L 250.741 601.47 M 150.254 199.487 L 126.123 199.949 M 126.123 199.949 L 78.6048 208.849 M 78.6048 208.849 L 84.4502 198.319 M 84.4502 198.319 L 78.6048 208.849 M 78.6048 208.849 L 48.0653 190.703 M 48.0653 190.703 L 78.6048 208.849 M 78.6048 208.849 L 126.123 199.949 M 126.123 199.949 L 84.4502 198.319 M 84.4502 198.319 L 140.028 175.255 M 140.028 175.255 L 84.4502 198.319 M 84.4502 198.319 L 126.123 199.949 M 126.123 199.949 L 150.254 199.487 M 126.123 199.949 L 140.028 175.255 M 140.028 175.255 L 126.123 199.949 M 48.0653 190.703 L 42.9111 200.214 M 42.9111 200.214 L 48.0653 190.703 M 217.885 90.3378 L 223.829 73.4214 M 223.829 73.4214 L 217.885 90.3378 M 241.736 73.5026 L 261.285 74.3987 M 261.285 74.3987 L 244.981 57.799 M 244.981 57.799 L 261.285 74.3987 M 261.285 74.3987 L 260.066 99.0637 M 260.066 99.0637 L 261.285 74.3987 M 261.285 74.3987 L 274.023 102.217 M 274.023 102.217 L 275.305 77.8407 M 275.305 77.8407 L 274.023 102.217 M 274.023 102.217 L 261.285 74.3987 M 261.285 74.3987 L 253.446 97.67 M 253.446 97.67 L 255.983 143.055 M 255.983 143.055 L 253.446 97.67 M 253.446 97.67 L 261.285 74.3987 M 261.285 74.3987 L 241.736 73.5026 M 244.981 57.799 L 262.63 59.0859 M 262.63 59.0859 L 275.804 58.6097 M 275.804 58.6097 L 262.63 59.0859 M 262.63 59.0859 L 265.975 31.0966 M 265.975 31.0966 L 262.63 59.0859 M 262.63 59.0859 L 277.943 74.5552 M 277.943 74.5552 L 275.804 58.6097 M 275.804 58.6097 L 277.943 74.5552 M 277.943 74.5552 L 262.63 59.0859 M 262.63 59.0859 L 244.981 57.799 M 275.804 58.6097 L 277.606 27.2437 M 277.606 27.2437 L 286.481 56.4525 M 286.481 56.4525 L 277.606 27.2437 M 277.606 27.2437 L 275.804 58.6097 M 275.804 58.6097 L 265.975 31.0966 M 265.975 31.0966 L 275.804 58.6097 M 275.804 58.6097 L 286.481 56.4525 M 286.481 56.4525 L 284.797 72.5659 M 284.797 72.5659 L 286.481 56.4525 M 286.481 56.4525 L 275.804 58.6097 M 275.305 77.8407 L 293.026 106.844 M 293.026 106.844 L 275.305 77.8407 M 289.255 75.5365 L 310.652 105.839 M 310.652 105.839 L 289.255 75.5365 M 274.023 102.217 L 293.026 106.844 M 293.026 106.844 L 274.023 102.217 M 293.026 106.844 L 310.652 105.839 M 310.652 105.839 L 293.026 106.844 M 265.975 31.0966 L 277.606 27.2437 M 277.606 27.2437 L 265.975 31.0966" />
  <path class="h" d=" M 24.0307 89.2792 L 35.6279 82.4478 M 35.6279 82.4478 L 24.0307 89.2792 M 15.8866 64.1798 L 29.5708 61.979 M 29.5708 61.979 L 15.8866 64.1798 M 47.0825 54.285 L 49.9255 47.5323 M 49.9255 47.5323 L 47.0825 54.285 M 52.3699 58.2225 L 65.7877 59.3446 M 65.7877 59.3446 L 52.3699 58.2225 M 59.0749 48.0882 L 74.5307 55.9527 M 74.5307 55.9527 L 59.0749 48.0882 M 74.9371 59.9005 L 79.8181 59.8902 M 79.8181 59.8902 L 74.9371 59.9005 M 74.0721 72.1614 L 56.0017 76.4319 M 56.0017 76.4319 L 74.0721 72.1614 M 77.2747 87.8616 L 57.0692 81.6653 M 57.0692 81.6653 L 77.2747 87.8616 M 80.3769 98.4755 L 66.3759 113.507 M 66.3759 113.507 L 80.3769 98.4755 M 96.611 65.069 L 118.231 59.9618 M 118.231 59.9618 L 96.611 65.069 M 95.5943 57.5049 L 117.892 57.4404 M 117.892 57.4404 L 95.5943 57.5049 M 136.562 96.4698 L 122.296 111.594 M 122.296 111.594 L 136.562 96.4698 M 148.566 105.125 L 139.712 124.034 M 139.712 124.034 L 148.566 105.125 M 155.629 97.3938 L 160.899 100.842 M 160.899 100.842 L 155.629 97.3938 M 156.391 73.8919 L 170.317 77.2497 M 170.317 77.2497 L 156.391 73.8919 M 183.68 110.039 L 183.636 130.187 M 183.636 130.187 L 183.68 110.039 M 199.223 131.514 L 205.318 155.146 M 205.318 155.146 L 199.223 131.514 M 231.225 115.919 L 221.917 99.2285 M 221.917 99.2285 L 231.225 115.919 M 241.865 104.813 L 247.126 126.287 M 247.126 126.287 L 241.865 104.813 M 239.86 88.9325 L 241.111 78.6459 M 241.111 78.6459 L 239.86 88.9325 M 260.371 92.8974 L 260.98 80.5649 M 260.98 80.5649 L 260.371 92.8974 M 274.344 96.1226 L 274.985 83.9347 M 274.985 83.9347 L 274.344 96.1226 M 265.113 113.128 L 275.644 138.858 M 275.644 138.858 L 265.113 113.128 M 282.745 117.362 L 300.187 147.653 M 300.187 147.653 L 282.745 117.362 M 300.554 122.621 L 315.609 154.175 M 315.609 154.175 L 300.554 122.621 M 305.303 98.2632 L 294.604 83.1121 M 294.604 83.1121 L 305.303 98.2632 M 285.218 68.5375 L 286.06 60.4809 M 286.06 60.4809 L 285.218 68.5375 M 277.408 70.5688 L 276.339 62.596 M 276.339 62.596 L 277.408 70.5688 M 274.115 70.6879 L 266.459 62.9532 M 266.459 62.9532 L 274.115 70.6879 M 273.347 51.7314 L 268.432 37.9749 M 268.432 37.9749 L 273.347 51.7314 M 235.574 134.744 L 234.961 155.703 M 234.961 155.703 L 235.574 134.744 M 247.235 145.8 L 242.191 163.352 M 242.191 163.352 L 247.235 145.8 M 285.698 165.975 L 295.274 194.48 M 295.274 194.48 L 285.698 165.975 M 316.137 181.599 L 305.42 199.688 M 305.42 199.688 L 316.137 181.599 M 297.404 218.318 L 297.767 229.907 M 297.767 229.907 L 297.404 218.318 M 275.293 230.154 L 277.273 258.708 M 277.273 258.708 L 275.293 230.154 M 268.612 210.73 L 257.229 200.438 M 257.229 200.438 L 268.612 210.73 M 296.626 246.505 L 293.982 268.111 M 293.982 268.111 L 296.626 246.505 M 305.339 243.268 L 320.121 258.399 M 320.121 258.399 L 305.339 243.268 M 327.301 277.062 L 326.879 299.255 M 326.879 299.255 L 327.301 277.062 M 334.984 313.014 L 351.618 318.34 M 351.618 318.34 L 334.984 313.014 M 330.895 318.237 L 339.351 334.007 M 339.351 334.007 L 330.895 318.237 M 339.721 349.203 L 332.004 363.824 M 332.004 363.824 L 339.721 349.203 M 345.464 350.375 L 349.233 367.34 M 349.233 367.34 L 345.464 350.375 M 349.567 345.641 L 361.542 353.139 M 361.542 353.139 L 349.567 345.641 M 368.592 365.16 L 371.49 380.174 M 371.49 380.174 L 368.592 365.16 M 375.814 368.436 L 373.897 381.266 M 373.897 381.266 L 375.814 368.436 M 384.808 363.921 L 400.877 367.72 M 400.877 367.72 L 384.808 363.921 M 377.366 355.13 L 378.551 341.348 M 378.551 341.348 L 377.366 355.13 M 386.585 343.247 L 401.469 360.829 M 401.469 360.829 L 386.585 343.247 M 390.658 330.946 L 413.688 323.923 M 413.688 323.923 L 390.658 330.946 M 382.084 324.284 L 387.966 303.939 M 387.966 303.939 L 382.084 324.284 M 421.13 332.714 L 412.984 357.318 M 412.984 357.318 L 421.13 332.714 M 424.474 386.084 L 431.731 397.434 M 431.731 397.434 L 424.474 386.084 M 415.967 389.061 L 406.211 406.366 M 406.211 406.366 L 415.967 389.061 M 402.786 393.78 L 401.817 407.939 M 401.817 407.939 L 402.786 393.78 M 395.688 386.945 L 380.521 387.436 M 380.521 387.436 L 395.688 386.945 M 462.213 369.623 L 468.888 377.621 M 468.888 377.621 L 462.213 369.623 M 507.25 345.861 L 541.577 346.435 M 541.577 346.435 L 507.25 345.861 M 529.387 362.388 L 557.689 368.181 M 557.689 368.181 L 529.387 362.388 M 545.53 328.526 L 567.842 332.348 M 567.842 332.348 L 545.53 328.526 M 539.453 310.376 L 503.692 299.573 M 503.692 299.573 L 539.453 310.376 M 572.621 318.755 L 602.336 322.785 M 602.336 322.785 L 572.621 318.755 M 591.478 336.03 L 616.439 339.572 M 616.439 339.572 L 591.478 336.03 M 473.04 290.955 L 447.496 284.524 M 447.496 284.524 L 473.04 290.955 M 450.919 466.418 L 433.557 477.297 M 433.557 477.297 L 450.919 466.418 M 455.587 474.463 L 447.561 501.435 M 447.561 501.435 L 455.587 474.463 M 468.307 493.702 L 451.801 507.847 M 451.801 507.847 L 468.307 493.702 M 493.435 493.038 L 509.601 481.05 M 509.601 481.05 L 493.435 493.038 M 510.046 519.472 L 527.084 514.934 M 527.084 514.934 L 510.046 519.472 M 496.873 533.149 L 469.326 531.169 M 469.326 531.169 L 496.873 533.149 M 500.011 536.841 L 478.738 542.246 M 478.738 542.246 L 500.011 536.841 M 506.859 545.456 L 487.756 551.375 M 487.756 551.375 L 506.859 545.456 M 470.817 562.321 L 461.132 569.272 M 461.132 569.272 L 470.817 562.321 M 461.047 549.68 L 448.457 553.345 M 448.457 553.345 L 461.047 549.68 M 458.238 545.961 L 440.028 542.188 M 440.028 542.188 L 458.238 545.961 M 439.353 551.458 L 433.733 544.02 M 433.733 544.02 L 439.353 551.458 M 429.191 545.703 L 425.727 556.509 M 425.727 556.509 L 429.191 545.703 M 425.998 542.63 L 416.145 547.29 M 416.145 547.29 L 425.998 542.63 M 427.923 536.303 L 421.921 528.307 M 421.921 528.307 L 427.923 536.303 M 425.077 521.961 L 437.391 517.267 M 437.391 517.267 L 425.077 521.961 M 409.509 526.301 L 400.242 532.254 M 400.242 532.254 L 409.509 526.301 M 399.511 538.828 L 407.316 546.022 M 407.316 546.022 L 399.511 538.828 M 401.585 550.004 L 382.317 550.774 M 382.317 550.774 L 401.585 550.004 M 414.413 552.692 L 420.8 558.838 M 420.8 558.838 L 414.413 552.692 M 387.984 579.947 L 385.139 592.891 M 385.139 592.891 L 387.984 579.947 M 366.49 545.246 L 354.105 533.418 M 354.105 533.418 L 366.49 545.246 M 333.596 498.748 L 314.505 506.535 M 314.505 506.535 L 333.596 498.748 M 304.727 535.297 L 288.089 540.582 M 288.089 540.582 L 304.727 535.297 M 287.881 552.624 L 277.545 555.165 M 277.545 555.165 L 287.881 552.624 M 284.066 580.758 L 261.849 594.566 M 261.849 594.566 L 284.066 580.758 M 292.03 633.392 L 302.291 639.98 M 302.291 639.98 L 292.03 633.392 M 446.549 518.735 L 452.551 526.365 M 452.551 526.365 L 446.549 518.735 M 489.281 601.655 L 509.149 611.225 M 509.149 611.225 L 489.281 601.655 M 284.671 313.302 L 289.997 290.376 M 289.997 290.376 L 284.671 313.302 M 274.72 303.609 L 279.154 283.156 M 279.154 283.156 L 274.72 303.609 M 143.492 151.751 L 121.824 158.294 M 121.824 158.294 L 143.492 151.751 M 112.033 150.963 L 114.119 129.759 M 114.119 129.759 L 112.033 150.963 M 66.701 144.507 L 37.6716 143.254 M 37.6716 143.254 L 66.701 144.507 M 40.6795 115.538 L 28.9977 133.598 M 28.9977 133.598 L 40.6795 115.538 M 55.7002 195.239 L 70.97 204.313 M 70.97 204.313 L 55.7002 195.239" />
  <path class="z" fill="none" d=" M 126.864 48.242 L 129.041 57.4082 L 90.5985 88.4403 L 85.8011 67.6226 L 84.4454 57.5371 L 73.0053 49.0807 L 82.2586 59.885 L 83.1074 70.0262 L 87.3774 90.9598 L 135.638 80.3889 L 98.4582 101.52 L 137.276 83.5759 L 143.695 88.9074 L 152.993 95.6698 L 145.847 86.6626 L 142.791 78.8981 L 149.428 72.213 M 159.716 61.4574 L 177.28 78.9287 L 210.829 91.2615 L 183.702 99.9652 L 210.842 91.305 L 209.235 105.983 L 219.649 146.711 L 213.412 105.137 L 217.262 90.8832 L 238.709 94.0225 L 235.88 124.264 L 239.235 94.0758 L 217.885 90.3378 L 187.08 72.2106 L 188.265 47.465 M 219.732 8.17839 L 233.455 39.2495 L 224.047 54.2386 L 209.32 36.566 L 220.45 56.698 L 223.829 73.4214 L 227.112 56.679 L 244.776 57.7577 L 241.736 73.5026 L 244.981 57.799 L 265.975 31.0966 M 311.966 69.5881 L 284.797 72.5659 L 275.804 58.6097 L 284.734 72.6053 L 277.943 74.5552 L 263.506 74.433 L 262.63 59.0859 L 261.285 74.3987 L 275.305 77.8407 L 282.339 77.1755 L 293.026 106.844 L 289.255 75.5365 L 314.83 85.1752 M 323.136 169.952 L 308.908 162.798 L 321.495 172.555 L 354.438 236.195 L 344.958 251.088 L 309.348 214.371 L 300.062 208.733 L 280.482 197.026 L 297.223 212.523 L 305.176 219.923 L 297.948 235.702 L 305.206 219.936 L 327.512 265.965 L 341.142 254.746 L 352.618 295.334 L 359.935 321.003 L 343.579 341.892 L 364.775 325.937 L 379.143 334.457 L 367.109 322.872 L 371.193 296.495 L 390.907 293.766 L 425.203 320.412 L 450.521 352.059 L 420.97 380.197 L 408.911 369.619 L 420.827 380.358 L 403.271 386.7 L 420.845 380.409 L 458.876 365.624 L 437.993 330.89 L 450.978 314.137 L 485.812 294.171 L 450.624 313.506 L 429.428 313.549 L 428.689 270.125 L 434.723 281.309 L 434.788 268.601 L 435.694 248.72 L 477.873 248.788 L 549.201 255.696 M 606.702 286.68 L 512.219 279.372 L 605.098 298.185 L 557.333 315.778 L 534.374 326.615 L 557.764 316.741 L 607.533 306.063 M 644.787 332.586 L 628.919 341.343 L 594.616 355.538 L 578.998 334.26 L 594.073 355.926 L 558.741 346.722 L 515.236 359.492 L 559.746 350.852 L 593.624 364.467 L 571.84 371.077 L 605.59 406.261 L 590.863 410.032 L 526.467 381.957 L 488.94 375.849 L 467.786 354.272 L 490.087 345.574 L 466.99 351.86 L 472.225 381.62 L 486.078 417.028 L 476.561 486.63 L 485.352 499.032 L 506.619 455.161 L 517.684 475.055 L 501.528 521.74 L 523.59 477.539 L 535.603 512.665 L 542.036 529.61 M 506.172 577.072 L 478.205 554.334 L 468.102 544.949 L 455.552 530.18 L 430.924 540.301 L 456.216 531.978 L 467.342 547.848 L 475.66 558.845 L 497.648 587.407 M 406.2 584.7 L 389.407 573.475 L 405.993 585.003 M 373.064 591.25 L 372.683 551.16 L 357.892 571.071 L 313.578 560.806 L 293.049 551.354 L 295.175 573.854 L 308.779 617.259 L 333.124 612.505 L 307.421 643.274 M 286.9 630.097 L 281.924 608.547 L 285.143 630.429 M 247.824 615.194 L 211.433 620.138 L 213.238 607.591 L 250.741 601.47 L 264.291 568.452 L 272.377 556.436 L 279.769 543.225 L 304.96 510.428 L 304.899 486.982 L 343.141 494.854 L 313.047 532.655 L 332.987 547.053 L 347.913 527.505 L 395.609 535.231 L 386.756 497.204 L 414.143 523.325 L 411.219 549.619 L 418.92 524.309 L 422.413 484.297 L 443.548 514.92 L 424.876 482.737 L 448.653 451.3 L 454.339 415.701 L 459.6 460.978 L 458.213 415.417 L 465.751 393.188 L 457.894 415.307 L 453.414 396.669 L 435.359 403.108 L 401.333 415.018 L 372.938 387.681 L 342.56 413.954 L 351.414 377.158 L 367.144 357.653 L 376.773 362.022 L 367.53 356.888 L 351.118 375.822 L 328.145 371.135 L 300.197 340.654 L 326.667 310.352 L 297.27 337.824 L 311.631 297.859 L 292.435 335.739 L 282.009 324.765 L 272.502 313.836 L 248.834 287.123 L 281.371 272.929 L 292.66 278.914 L 281.391 272.892 L 290.397 227.495 L 274.303 215.877 L 289.876 228.185 L 278.262 272.985 L 245.129 285.725 L 259.904 250.714 L 250.774 241.923 L 251.538 195.291 L 253.016 175.202 L 280.91 151.722 L 252.299 174.322 L 260.156 143.322 L 259.848 100.264 L 274.023 102.217 L 260.066 99.0637 L 253.446 97.67 L 259.736 100.16 L 255.983 143.055 L 249.757 137.024 L 254.895 144.006 L 239.669 172.128 L 234.769 191.668 L 234.655 166.183 L 208.366 166.962 L 189.811 142.939 L 196.176 119.699 L 183.614 140.261 L 163.535 102.566 L 156.988 99.8472 L 162.575 104.211 L 155.804 146.38 L 135.284 133.489 L 154.326 148.479 L 140.028 175.255 L 150.254 199.487 L 125.929 207.088 L 126.123 199.949 L 125.208 207.03 L 78.6048 208.849 L 42.9111 200.214 M 8 180.062 L 48.0653 190.703 L 84.4502 198.319 L 83.9091 146.724 L 110.99 161.565 L 83.9684 146.618 L 115.162 119.157 L 82.085 144.318 L 59.3754 121.023 L 81.2157 145.134 L 75.1243 196.371 L 43.2984 177.163 L 13.4294 148.418 L 23.1568 142.628 L 13.3503 148.281 M 36.4129 60.8786 L 41.4266 79.0321 L 46.5204 106.508 L 46.9664 78.5672 L 72.4965 59.9056 L 45.5738 76.4949 L 45.6611 57.6614" />
  <path class="z" d=" M 71.3753 47.4507 L 74.6353 47.4507 L 74.6353 50.7107 L 71.3753 50.7107 L 71.3753 47.4507 M 96.8282 99.8903 L 100.088 99.8903 L 100.088 103.15 L 96.8282 103.15 L 96.8282 99.8903 M 151.363 94.0398 L 154.623 94.0398 L 154.623 97.2998 L 151.363 97.2998 L 151.363 94.0398 M 182.072 98.3352 L 185.332 98.3352 L 185.332 101.595 L 182.072 101.595 L 182.072 98.3352 M 218.019 145.081 L 221.279 145.081 L 221.279 148.341 L 218.019 148.341 L 218.019 145.081 M 234.25 122.634 L 237.51 122.634 L 237.51 125.894 L 234.25 125.894 L 234.25 122.634 M 207.69 34.936 L 210.95 34.936 L 210.95 38.196 L 207.69 38.196 L 207.69 34.936 M 222.199 71.7914 L 225.459 71.7914 L 225.459 75.0514 L 222.199 75.0514 L 222.199 71.7914 M 240.106 71.8726 L 243.366 71.8726 L 243.366 75.1326 L 240.106 75.1326 L 240.106 71.8726 M 274.174 56.9797 L 277.434 56.9797 L 277.434 60.2397 L 274.174 60.2397 L 274.174 56.9797 M 261 57.4559 L 264.26 57.4559 L 264.26 60.7159 L 261 60.7159 L 261 57.4559 M 291.396 105.214 L 294.656 105.214 L 294.656 108.474 L 291.396 108.474 L 291.396 105.214 M 307.278 161.168 L 310.538 161.168 L 310.538 164.428 L 307.278 164.428 L 307.278 161.168 M 278.852 195.396 L 282.112 195.396 L 282.112 198.656 L 278.852 198.656 L 278.852 195.396 M 296.318 234.072 L 299.578 234.072 L 299.578 237.332 L 296.318 237.332 L 296.318 234.072 M 341.949 340.262 L 345.209 340.262 L 345.209 343.522 L 341.949 343.522 L 341.949 340.262 M 377.513 332.827 L 380.773 332.827 L 380.773 336.087 L 377.513 336.087 L 377.513 332.827 M 407.281 367.989 L 410.541 367.989 L 410.541 371.249 L 407.281 371.249 L 407.281 367.989 M 401.641 385.07 L 404.901 385.07 L 404.901 388.33 L 401.641 388.33 L 401.641 385.07 M 484.182 292.541 L 487.442 292.541 L 487.442 295.801 L 484.182 295.801 L 484.182 292.541 M 433.093 279.679 L 436.353 279.679 L 436.353 282.939 L 433.093 282.939 L 433.093 279.679 M 510.589 277.742 L 513.849 277.742 L 513.849 281.002 L 510.589 281.002 L 510.589 277.742 M 532.744 324.985 L 536.004 324.985 L 536.004 328.245 L 532.744 328.245 L 532.744 324.985 M 577.368 332.63 L 580.628 332.63 L 580.628 335.89 L 577.368 335.89 L 577.368 332.63 M 513.606 357.862 L 516.866 357.862 L 516.866 361.122 L 513.606 361.122 L 513.606 357.862 M 488.457 343.944 L 491.717 343.944 L 491.717 347.204 L 488.457 347.204 L 488.457 343.944 M 499.898 520.11 L 503.158 520.11 L 503.158 523.37 L 499.898 523.37 L 499.898 520.11 M 429.294 538.671 L 432.554 538.671 L 432.554 541.931 L 429.294 541.931 L 429.294 538.671 M 387.777 571.845 L 391.037 571.845 L 391.037 575.105 L 387.777 575.105 L 387.777 571.845 M 291.419 549.724 L 294.679 549.724 L 294.679 552.984 L 291.419 552.984 L 291.419 549.724 M 280.294 606.917 L 283.554 606.917 L 283.554 610.177 L 280.294 610.177 L 280.294 606.917 M 331.357 545.423 L 334.617 545.423 L 334.617 548.683 L 331.357 548.683 L 331.357 545.423 M 409.589 547.989 L 412.849 547.989 L 412.849 551.249 L 409.589 551.249 L 409.589 547.989 M 441.918 513.29 L 445.178 513.29 L 445.178 516.55 L 441.918 516.55 L 441.918 513.29 M 457.97 459.348 L 461.23 459.348 L 461.23 462.608 L 457.97 462.608 L 457.97 459.348 M 464.121 391.558 L 467.381 391.558 L 467.381 394.818 L 464.121 394.818 L 464.121 391.558 M 451.784 395.039 L 455.044 395.039 L 455.044 398.299 L 451.784 398.299 L 451.784 395.039 M 375.143 360.392 L 378.403 360.392 L 378.403 363.652 L 375.143 363.652 L 375.143 360.392 M 325.037 308.722 L 328.297 308.722 L 328.297 311.982 L 325.037 311.982 L 325.037 308.722 M 310.001 296.229 L 313.261 296.229 L 313.261 299.489 L 310.001 299.489 L 310.001 296.229 M 291.03 277.284 L 294.29 277.284 L 294.29 280.544 L 291.03 280.544 L 291.03 277.284 M 272.673 214.247 L 275.933 214.247 L 275.933 217.507 L 272.673 217.507 L 272.673 214.247 M 279.28 150.092 L 282.54 150.092 L 282.54 153.352 L 279.28 153.352 L 279.28 150.092 M 272.393 100.587 L 275.653 100.587 L 275.653 103.847 L 272.393 103.847 L 272.393 100.587 M 251.816 96.04 L 255.076 96.04 L 255.076 99.3 L 251.816 99.3 L 251.816 96.04 M 248.127 135.394 L 251.387 135.394 L 251.387 138.654 L 248.127 138.654 L 248.127 135.394 M 194.546 118.069 L 197.806 118.069 L 197.806 121.329 L 194.546 121.329 L 194.546 118.069 M 155.358 98.2172 L 158.618 98.2172 L 158.618 101.477 L 155.358 101.477 L 155.358 98.2172 M 133.654 131.859 L 136.914 131.859 L 136.914 135.119 L 133.654 135.119 L 133.654 131.859 M 124.493 198.319 L 127.753 198.319 L 127.753 201.579 L 124.493 201.579 L 124.493 198.319 M 109.36 159.935 L 112.62 159.935 L 112.62 163.195 L 109.36 163.195 L 109.36 159.935 M 113.532 117.527 L 116.792 117.527 L 116.792 120.787 L 113.532 120.787 L 113.532 117.527 M 57.7454 119.393 L 61.0054 119.393 L 61.0054 122.653 L 57.7454 122.653 L 57.7454 119.393 M 21.5268 140.998 L 24.7868 140.998 L 24.7868 144.258 L 21.5268 144.258 L 21.5268 140.998 M 44.8904 104.878 L 48.1504 104.878 L 48.1504 108.138 L 44.8904 108.138 L 44.8904 104.878 M 70.8665 58.2756 L 74.1265 58.2756 L 74.1265 61.5356 L 70.8665 61.5356 L 70.8665 58.2756" />
  <path class="h" d=" M 41.7279 52.5265 L 33.8615 42.2568 M 35.2829 38.8804 L 45.9923 42.3974 M 59.5673 45.5788 L 76.0082 48.4245 M 94.8876 49.446 L 116.206 48.6433 M 152 69.5241 L 157.144 64.1463 M 188.731 38.5409 L 189.662 20.6926 M 197.528 10.871 L 212.331 9.07591 M 254.735 12.8109 L 269.982 22.4328 M 261.259 25.3225 L 251.828 13.7742 M 280.066 26.6214 L 284.988 25.3767 M 287.207 32.6789 L 286.723 48.528 M 292.852 59.7364 L 305.594 66.3042 M 313.785 90.3411 L 311.697 100.673 M 313.773 121.867 L 320.015 153.923 M 563.576 263.442 L 592.327 278.934 M 609.948 310.747 L 614.779 320.115 M 624.092 326.746 L 637.889 330.639 M 534.188 530.742 L 518.494 533.006 M 512.088 536.228 L 514.969 540.408 M 513.85 551.141 L 508.732 568.429 M 503.007 594.558 L 513.724 608.859 M 516.64 618.817 L 511.756 624.432 M 501.822 619.647 L 486.839 604.462 M 473.583 590.839 L 462.053 578.778 M 452.757 568.355 L 445.694 559.57 M 437.62 556.861 L 428.536 560.228 M 419.546 567.608 L 410.649 579.003 M 400.424 588.593 L 389.286 595.773 M 381.054 597.335 L 375.727 593.278 M 306.045 646.326 L 303.294 652.43 M 298.164 649.136 L 290.655 636.444 M 275.813 626.62 L 257.154 619.002 M 34.1833 195.176 L 16.7278 185.1 M 14.5768 141.01 L 17.0298 126.469 M 18.2502 112.573 L 18.2381 99.3208 M 15.9352 85.8412 L 11.3414 72.1338 M 10.4666 60.6496 L 13.3107 51.3883 M 20.1527 50.2879 L 30.9928 57.3484" />
  <path class="h" d=" M 44.0878 55.6074 L 45.8332 52.854 M 55.7302 44.9146 L 58.8994 45.6789 M 32.087 37.8308 L 33.9284 40.521 M 34.2449 59.4665 L 31.0683 60.1993 M 11.5789 57.0274 L 14.8004 57.527 M 14.0506 80.2177 L 16.5164 78.0853 M 18.2355 96.423 L 21.3061 97.5179 M 17.6915 122.547 L 18.5476 125.693 M 18.5392 186.145 L 21.7611 186.643 M 94.5172 49.46 L 91.974 51.4995 M 153.457 68.0002 L 156.42 69.3595 M 188.588 41.2872 L 190.821 38.9126 M 195.274 11.1444 L 194.656 14.3454 M 250.391 12.0151 L 253.236 13.607 M 262.047 17.4251 L 262.947 20.5583 M 282.738 25.9458 L 283.135 29.1815 M 287 39.4479 L 285.012 36.8646 M 293.783 60.2164 L 291.865 62.8524 M 311.634 100.984 L 309.481 98.5355 M 321.206 160.039 L 319.68 157.158 M 558.091 260.487 L 555.077 261.728 M 609.803 310.465 L 606.566 310.855 M 636.881 330.355 L 634.968 332.994 M 525.197 532.039 L 526.74 529.167 M 513.405 538.139 L 510.443 539.502 M 511.396 559.431 L 508.174 558.936 M 476.273 593.654 L 476.216 590.395 M 486.579 604.199 L 489.643 605.312 M 515.373 611.06 L 512.34 609.865 M 513.14 622.841 L 510.555 620.855 M 443.586 556.948 L 446.63 555.782 M 432.089 558.911 L 431.885 555.657 M 414.299 574.328 L 411.041 574.216 M 402.86 587.023 L 400.563 584.71 M 376.115 593.573 L 377.913 590.854 M 305.845 646.77 L 303.398 644.616 M 300.189 652.559 L 302.192 649.987 M 273.877 625.829 L 275.253 622.874" />
</svg>
