<?xml version="1.0"?>
<svg width="845" height="907" version="1.1" xmlns="http://www.w3.org/2000/svg" xmlns:xlink="http://www.w3.org/1999/xlink">
  <defs>
  <style type="text/css">
    <![CDATA[
      .b {stroke:rgb(0,0,0);stroke-width:2.267500;fill:none}
      .c {stroke:rgb(128,128,128);stroke-width:1.133750;stroke-dasharray:4.225000, 4.225000;}
      .h {stroke:rgb(240,200,0);stroke-width:2.267500;}
      .m {stroke:rgb(255,0,0);stroke-width:1.133750;}
      .n {stroke:rgb(128,128,128);stroke-width:1.133750}
      .t {stroke:rgb(0,128,0);stroke-width:1.133750;}
      .tab {stroke:rgb(0,0,255);stroke-width:0.566875;fill:none}
      .v {stroke:rgb(0,0,255);stroke-width:1.133750;}
      .z {stroke:rgb(0,240,200);stroke-width:0.566875;}
    ]]>
  </style>
  </defs>
  <path fill="none" class="b" d=" M 786.024 366.297 L 837.807 475.083 L 780.924 548.538 L 668.301 523.95 L 599.342 590.738 L 687.514 628.705 L 625.511 725.887 L 596.843 749.973 L 633.927 744.799 L 726.314 754.603 L 703.791 833.996 L 650.649 877.81 L 539.695 883.328 L 510.836 814.454 L 516.717 732.138 L 396.97 718.855 L 386.973 586.788 L 497.166 584.203 L 469.993 477.382 L 369.578 391.019 L 423.304 324.059 L 362.146 198.119 L 375.839 337.454 L 344.574 417.406 L 418.465 454.21 L 320.111 539.097 L 250.168 565.257 L 148.03 456.477 L 190.045 367.411 L 271.931 384.779 L 246.875 304.91 L 170.069 243.276 L 22.7259 219.712 L 63.5072 166.877 L 8 129.813 L 40.5497 23.5973 L 124.906 86.8244 L 198.982 24.8173 L 254.403 135.675 L 320.067 76.6891 L 375.5 8 L 454.205 103.739 L 517.266 30.5579 L 586.236 110.288 L 486.415 203.503 L 622.048 219.527 L 645.138 284.416 L 518.718 314.373 L 574.147 448.741 L 712.173 403.183 L 786.024 366.297" />
  <path class="c" d=" M 469.993 477.382 L 423.304 324.059 M 423.304 324.059 L 469.993 477.382 M 469.993 477.382 L 574.147 448.741 M 574.147 448.741 L 423.304 324.059 M 423.304 324.059 L 574.147 448.741 M 574.147 448.741 L 469.993 477.382 M 574.147 448.741 L 497.166 584.203 M 497.166 584.203 L 396.97 718.855 M 396.97 718.855 L 497.166 584.203 M 497.166 584.203 L 516.717 732.138 M 516.717 732.138 L 497.166 584.203 M 497.166 584.203 L 574.147 448.741 M 574.147 448.741 L 668.301 523.95 M 668.301 523.95 L 574.147 448.741 M 574.147 448.741 L 599.342 590.738 M 599.342 590.738 L 596.843 749.973 M 596.843 749.973 L 516.717 732.138 M 516.717 732.138 L 596.843 749.973 M 596.843 749.973 L 650.649 877.81 M 650.649 877.81 L 596.843 749.973 M 596.843 749.973 L 539.695 883.328 M 539.695 883.328 L 596.843 749.973 M 596.843 749.973 L 497.166 584.203 M 497.166 584.203 L 596.843 749.973 M 596.843 749.973 L 510.836 814.454 M 510.836 814.454 L 596.843 749.973 M 596.843 749.973 L 599.342 590.738 M 599.342 590.738 L 625.511 725.887 M 625.511 725.887 L 599.342 590.738 M 599.342 590.738 L 574.147 448.741 M 668.301 523.95 L 712.173 403.183 M 712.173 403.183 L 837.807 475.083 M 837.807 475.083 L 712.173 403.183 M 712.173 403.183 L 780.924 548.538 M 780.924 548.538 L 712.173 403.183 M 712.173 403.183 L 668.301 523.95 M 599.342 590.738 L 497.166 584.203 M 497.166 584.203 L 599.342 590.738 M 633.927 744.799 L 703.791 833.996 M 703.791 833.996 L 633.927 744.799 M 633.927 744.799 L 650.649 877.81 M 650.649 877.81 L 633.927 744.799 M 320.111 539.097 L 271.931 384.779 M 271.931 384.779 L 320.111 539.097 M 320.111 539.097 L 344.574 417.406 M 344.574 417.406 L 320.111 539.097 M 250.168 565.257 L 271.931 384.779 M 271.931 384.779 L 250.168 565.257 M 148.03 456.477 L 271.931 384.779 M 271.931 384.779 L 375.839 337.454 M 375.839 337.454 L 271.931 384.779 M 271.931 384.779 L 148.03 456.477 M 271.931 384.779 L 344.574 417.406 M 344.574 417.406 L 271.931 384.779 M 246.875 304.91 L 254.403 135.675 M 254.403 135.675 L 362.146 198.119 M 362.146 198.119 L 254.403 135.675 M 254.403 135.675 L 63.5072 166.877 M 63.5072 166.877 L 254.403 135.675 M 254.403 135.675 L 246.875 304.91 M 246.875 304.91 L 375.839 337.454 M 375.839 337.454 L 246.875 304.91 M 246.875 304.91 L 362.146 198.119 M 362.146 198.119 L 320.067 76.6891 M 320.067 76.6891 L 362.146 198.119 M 362.146 198.119 L 454.205 103.739 M 454.205 103.739 L 362.146 198.119 M 362.146 198.119 L 486.415 203.503 M 486.415 203.503 L 454.205 103.739 M 454.205 103.739 L 586.236 110.288 M 586.236 110.288 L 454.205 103.739 M 454.205 103.739 L 486.415 203.503 M 486.415 203.503 L 518.718 314.373 M 518.718 314.373 L 486.415 203.503 M 486.415 203.503 L 362.146 198.119 M 362.146 198.119 L 246.875 304.91 M 170.069 243.276 L 63.5072 166.877 M 63.5072 166.877 L 170.069 243.276 M 170.069 243.276 L 254.403 135.675 M 254.403 135.675 L 124.906 86.8244 M 124.906 86.8244 L 63.5072 166.877 M 63.5072 166.877 L 124.906 86.8244 M 124.906 86.8244 L 8 129.813 M 8 129.813 L 124.906 86.8244 M 124.906 86.8244 L 254.403 135.675 M 254.403 135.675 L 170.069 243.276 M 320.067 76.6891 L 454.205 103.739 M 454.205 103.739 L 320.067 76.6891 M 486.415 203.503 L 423.304 324.059 M 423.304 324.059 L 486.415 203.503 M 518.718 314.373 L 622.048 219.527 M 622.048 219.527 L 518.718 314.373 M 518.718 314.373 L 423.304 324.059 M 423.304 324.059 L 518.718 314.373" />
  <path class="h" d=" M 308.066 500.517 L 283.976 423.358 M 283.976 423.358 L 308.066 500.517 M 447.158 321.638 L 494.865 316.795 M 494.865 316.795 L 447.158 321.638 M 385.161 174.524 L 431.19 127.334 M 431.19 127.334 L 385.161 174.524 M 335.211 182.508 L 281.339 151.286 M 281.339 151.286 L 335.211 182.508 M 95.6797 97.5715 L 37.2266 119.066 M 37.2266 119.066 L 95.6797 97.5715 M 575.341 766.094 L 532.338 798.334 M 532.338 798.334 L 575.341 766.094 M 651.393 767.098 L 686.325 811.696 M 686.325 811.696 L 651.393 767.098" />
  <path class="z" fill="none" d=" M 837.807 475.083 L 780.924 548.538 L 668.301 523.95 L 599.342 590.738 L 687.514 628.705 L 625.511 725.887 L 596.843 749.973 L 633.927 744.799 L 726.314 754.603 M 539.695 883.328 L 510.836 814.454 M 396.97 718.855 L 386.973 586.788 L 497.166 584.203 L 469.993 477.382 L 369.578 391.019 L 423.304 324.059 L 362.146 198.119 L 375.839 337.454 L 344.574 417.406 M 320.111 539.097 L 250.168 565.257 M 148.03 456.477 L 190.045 367.411 L 271.931 384.779 L 246.875 304.91 L 170.069 243.276 M 586.236 110.288 L 486.415 203.503 L 622.048 219.527 M 518.718 314.373 L 574.147 448.741 L 712.173 403.183" />
  <path class="z" d=" M 597.23 588.625 L 601.455 588.625 L 601.455 592.85 L 597.23 592.85 L 597.23 588.625 M 594.731 747.861 L 598.956 747.861 L 598.956 752.086 L 594.731 752.086 L 594.731 747.861 M 495.054 582.09 L 499.279 582.09 L 499.279 586.315 L 495.054 586.315 L 495.054 582.09 M 360.034 196.007 L 364.259 196.007 L 364.259 200.232 L 360.034 200.232 L 360.034 196.007 M 269.818 382.666 L 274.043 382.666 L 274.043 386.891 L 269.818 386.891 L 269.818 382.666 M 484.302 201.391 L 488.527 201.391 L 488.527 205.616 L 484.302 205.616 L 484.302 201.391 M 572.034 446.628 L 576.259 446.628 L 576.259 450.853 L 572.034 450.853 L 572.034 446.628" />
  <path class="h" d=" M 798.97 393.494 L 824.861 447.886 M 730.636 393.961 L 767.561 375.519 M 613.533 291.906 L 550.323 306.884 M 627.821 235.749 L 639.366 268.194 M 534.509 50.4903 L 568.994 90.3552 M 469.97 85.4437 L 501.501 48.8532 M 395.177 31.9348 L 434.529 79.8043 M 333.926 59.5168 L 361.642 25.1723 M 270.819 120.928 L 303.651 91.4355 M 212.837 52.5317 L 240.548 107.96 M 143.425 71.3227 L 180.463 40.3191 M 61.6388 39.4041 L 103.817 71.0176 M 16.1374 103.259 L 32.4123 50.1512 M 49.6304 157.611 L 21.8768 139.079 M 32.9212 206.504 L 53.3119 180.086 M 133.233 237.385 L 59.5617 225.603 M 224.633 538.062 L 173.564 483.672 M 363.047 426.607 L 399.992 445.009 M 393.876 475.432 L 344.699 517.875 M 486.78 728.817 L 426.907 722.176 M 512.306 793.875 L 515.247 752.717 M 622.91 879.189 L 567.433 881.948 M 690.506 844.949 L 663.935 866.856 M 720.683 774.451 L 709.422 814.148" />
  <path class="h" d=" M 791.202 377.176 L 787.189 378.496 M 757.098 380.745 L 759.845 383.955 M 623.259 289.601 L 623.186 285.376 M 625.126 228.177 L 621.843 230.836 M 550.275 68.7165 L 546.306 70.1636 M 483.437 69.8161 L 487.368 71.3639 M 398.053 35.4333 L 394.318 37.409 M 362.475 24.1396 L 365.667 26.9087 M 304.638 90.5488 L 306.63 94.2747 M 214.863 56.5827 L 210.858 57.929 M 159.244 58.0812 L 162.518 60.7512 M 84.5332 56.5639 L 81.4809 59.4852 M 15.8547 104.182 L 20.0272 103.517 M 36.3212 148.724 L 39.7845 146.304 M 42.6995 193.835 L 46.6382 195.364 M 144.455 239.179 L 141.304 236.365 M 373.516 431.822 L 371.633 435.604 M 401.443 468.901 L 398.311 466.065 M 232.412 546.347 L 233.416 542.243 M 408.945 720.184 L 411.244 716.639 M 516.125 740.435 L 520.32 740.93 M 623.874 879.141 L 623.009 875.006 M 696.707 839.836 L 694.378 836.311 M 724.044 762.605 L 719.899 761.786" />
</svg>
