<?xml version="1.0"?>
<svg width="581" height="564" version="1.1" xmlns="http://www.w3.org/2000/svg" xmlns:xlink="http://www.w3.org/1999/xlink">
  <defs>
  <style type="text/css">
    <![CDATA[
      .b {stroke:rgb(0,0,0);stroke-width:1.452500;fill:none}
      .c {stroke:rgb(128,128,128);stroke-width:0.726250;stroke-dasharray:2.905000, 2.905000;}
      .h {stroke:rgb(240,200,0);stroke-width:1.452500;}
      .m {stroke:rgb(255,0,0);stroke-width:0.726250;}
      .n {stroke:rgb(128,128,128);stroke-width:0.726250}
      .t {stroke:rgb(0,128,0);stroke-width:0.726250;}
      .tab {stroke:rgb(0,0,255);stroke-width:0.363125;fill:none}
      .v {stroke:rgb(0,0,255);stroke-width:0.726250;}
      .z {stroke:rgb(0,240,200);stroke-width:0.363125;}
    ]]>
  </style>
  </defs>
  <path fill="none" class="b" d=" M 479.816 434.033 L 517.157 425.814 L 501.893 449.553 L 481.011 470.853 L 473.091 441.53 L 479.186 471.285 L 479.725 485.473 L 468.119 496.073 L 464.544 494.19 L 455.833 487.28 L 449.157 474.697 L 448.06 465.887 L 448.394 474.759 L 425.653 459.141 L 426.642 438.888 L 427.529 432.446 L 426.065 438.782 L 421.254 458.479 L 438.595 479.934 L 439.073 494.171 L 416.287 497.454 L 418.085 470.599 L 414.77 497.308 L 403.683 480.119 L 396.917 466.295 L 402.26 480.731 L 408.611 500.172 L 431.437 503.17 L 433.598 514.079 L 412.555 518.074 L 381.424 526.523 L 369.542 529.487 L 346.972 541.943 L 338.778 534.614 L 350.454 517.895 L 376.391 510.744 L 350.341 517.474 L 335.925 531.896 L 325.71 521.745 L 343.358 496.779 L 368.558 486.966 L 361.812 469.407 L 354.629 445.898 L 351.22 429.038 L 351.281 399.892 L 386.677 398.618 L 388.006 427.368 L 389.471 439.694 L 390.452 427.32 L 397.687 399.464 L 407.737 384.304 L 392.993 394.955 L 371.409 366.871 L 346.411 381.854 L 332.513 391.994 L 312.254 405.916 L 297.362 417.405 L 295.865 383.467 L 315.281 367.135 L 328.516 357.783 L 353.757 341.595 L 377.799 323.694 L 392.318 350.712 L 379.87 322.679 L 412.641 338.015 L 381.721 319.225 L 405.09 316.809 L 381.597 316.974 L 353.583 327.635 L 342.854 291.537 L 376.499 288.464 L 343.251 282.466 L 343.239 275.189 L 340.835 282.057 L 317.602 311.695 L 293.333 294.082 L 280.689 283.945 L 261.056 267.873 L 227.93 275.402 L 245.665 254.986 L 261.866 231.649 L 244.079 253.802 L 249.504 223.713 L 264.969 227.04 L 249.704 222.889 L 236.545 217.035 L 238.316 195.615 L 245.737 197.511 L 238.32 195.6 L 231.374 179.135 L 246.81 181.744 L 250.541 182.699 L 246.93 181.36 L 231.901 176.977 L 227.05 147.598 L 250.551 165.922 L 254.706 168.417 L 251.121 165.156 L 232.687 141.74 L 223.089 118.37 L 214.177 93.4543 L 196.291 85.6941 L 213.766 94.3406 L 210.298 101.47 L 191.638 97.0304 L 168.54 95.2139 L 150.366 87.4157 L 158.309 105.526 L 150.288 127.263 L 134.926 138.748 L 139.632 145.129 L 113.177 145.738 L 110.698 132.492 L 109.171 109.924 L 106.385 132.372 L 98.1007 103.07 L 104.741 132.787 L 103.651 146.219 L 78.4912 148.509 L 50.5907 138.104 L 33.008 134.909 L 15.1473 122.953 L 22.5521 114.828 L 52.267 113.36 L 74.6599 120.885 L 72.4573 83.1648 L 113.68 57.9358 L 67.7474 72.9692 L 50.8377 106.759 L 35.1878 89.0629 L 8.43411 76.0488 L 17.9403 72.7592 L 8 71.2168 L 16.6218 46.9227 L 28.1311 39.164 L 44.2678 47.6047 L 30.0421 36.2352 L 17.1736 41.4373 L 25.8723 32.8181 L 48.3761 9.70731 L 52.5662 12.817 L 66.257 22.9451 L 67.2204 59.4775 L 74.3193 23.6286 L 92.3096 12.1191 L 100.146 18.6007 L 90.2792 39.4376 L 128.898 27.8112 L 127.658 45.9898 L 131.716 58.0072 L 129.924 45.4501 L 137.131 28.7151 L 151.543 54.2488 L 151.928 59.79 L 135.281 75.4984 L 115.392 76.306 L 135.206 78.2069 L 158.009 76.2301 L 167.303 83.3549 L 161.525 73.1691 L 166.758 71.3073 L 189.769 53.136 L 185.439 13.038 L 199.803 31.0713 L 209.796 29.1829 L 212.516 8 L 229.544 8.25209 L 234.762 8.28315 L 230.206 29.2116 L 226.169 29.05 L 221.007 43.8967 L 219.505 59.1115 L 207.935 61.0065 L 194.028 58.4615 L 207.452 62.8987 L 219.154 62.1732 L 223.772 47.5988 L 229.428 60.6206 L 219.909 88.8892 L 209.962 86.7456 L 218.82 91.7521 L 227.395 118.64 L 253.867 112.683 L 251.155 137.393 L 257.506 152.247 L 252.384 136.926 L 266.17 136.367 L 281.901 151.793 L 278.39 165.458 L 282.99 152.12 L 291.232 148.313 L 298.742 143.998 L 302.195 175.243 L 292.995 177.029 L 302.272 175.697 L 294.415 184.756 L 275.745 179.437 L 293.521 187.239 L 295.65 211.33 L 268.056 205.519 L 271.78 188.762 L 267.718 205.44 L 295.279 211.406 L 305.162 211.894 L 290.306 233.958 L 283.437 240.38 L 291.422 235.415 L 316.536 226.647 L 308.513 220.853 L 319.553 199.336 L 328.718 203.117 L 336.807 207.16 L 328.416 237.267 L 307.9 245.947 L 329.089 239.072 L 321.705 253.015 L 305.633 252.319 L 321.394 255.543 L 317.002 259.409 L 322.264 256.851 L 336.399 249.841 L 361.74 231.547 L 369.189 254.952 L 374.51 280.023 L 382.543 255.684 L 387.225 231.573 L 394.18 255.016 L 390.041 283.724 L 413.655 266.88 L 425.56 245.52 L 432.242 239.427 L 439.081 232.251 L 437.114 244.081 L 430.725 250.787 L 438.355 288.262 L 432.056 250.541 L 438.651 244.037 L 456.324 270.033 L 461.241 262.904 L 479.872 289.868 L 448.791 307.593 L 423.238 305.978 L 447.017 315.469 L 446.866 321.673 L 433.007 329.182 L 427.282 372.408 L 439.159 330.455 L 454.67 327.653 L 459.199 323.413 L 488.767 343.56 L 487.333 357.475 L 476.125 362.991 L 488.129 366.456 L 497.866 406.881 L 509.555 366.976 L 514.603 372.673 L 517.951 365.838 L 529.617 358.121 L 522.185 382.299 L 539.642 363.994 L 572.153 368.153 L 573.942 377.055 L 554.201 386.839 L 551.594 400.389 L 528.185 392.025 L 543.003 414.755 L 504.82 412.747 L 495.193 426.258 L 485.565 417.976 L 486.492 413.056 L 482.163 415.571 L 450.19 366.72 L 462.996 423.682 L 438.021 418.415 L 461.919 427.376 L 464.282 439.855 L 479.816 434.033" />
  <path class="c" d=" M 295.865 383.467 L 312.254 405.916 M 312.254 405.916 L 295.865 383.467 M 315.281 367.135 L 332.513 391.994 M 332.513 391.994 L 315.281 367.135 M 315.281 367.135 L 312.254 405.916 M 312.254 405.916 L 315.281 367.135 M 328.516 357.783 L 346.411 381.854 M 346.411 381.854 L 328.516 357.783 M 328.516 357.783 L 332.513 391.994 M 332.513 391.994 L 328.516 357.783 M 353.757 341.595 L 371.409 366.871 M 371.409 366.871 L 353.757 341.595 M 353.757 341.595 L 346.411 381.854 M 346.411 381.854 L 353.757 341.595 M 353.583 327.635 L 376.499 288.464 M 376.499 288.464 L 381.597 316.974 M 381.597 316.974 L 376.499 288.464 M 376.499 288.464 L 353.583 327.635 M 377.799 323.694 L 371.409 366.871 M 371.409 366.871 L 377.799 323.694 M 405.09 316.809 L 376.499 288.464 M 376.499 288.464 L 405.09 316.809 M 405.09 316.809 L 390.041 283.724 M 390.041 283.724 L 405.09 316.809 M 405.09 316.809 L 423.238 305.978 M 423.238 305.978 L 446.866 321.673 M 446.866 321.673 L 423.238 305.978 M 423.238 305.978 L 412.641 338.015 M 412.641 338.015 L 427.282 372.408 M 427.282 372.408 L 412.641 338.015 M 412.641 338.015 L 392.318 350.712 M 392.318 350.712 L 407.737 384.304 M 407.737 384.304 L 392.318 350.712 M 392.318 350.712 L 392.993 394.955 M 392.993 394.955 L 392.318 350.712 M 392.318 350.712 L 427.282 372.408 M 427.282 372.408 L 392.318 350.712 M 392.318 350.712 L 412.641 338.015 M 412.641 338.015 L 423.238 305.978 M 423.238 305.978 L 413.655 266.88 M 413.655 266.88 L 438.355 288.262 M 438.355 288.262 L 413.655 266.88 M 413.655 266.88 L 430.725 250.787 M 430.725 250.787 L 413.655 266.88 M 413.655 266.88 L 423.238 305.978 M 423.238 305.978 L 438.355 288.262 M 438.355 288.262 L 456.324 270.033 M 456.324 270.033 L 438.355 288.262 M 438.355 288.262 L 423.238 305.978 M 423.238 305.978 L 433.007 329.182 M 433.007 329.182 L 423.238 305.978 M 423.238 305.978 L 405.09 316.809 M 405.09 316.809 L 412.641 338.015 M 412.641 338.015 L 433.007 329.182 M 433.007 329.182 L 412.641 338.015 M 412.641 338.015 L 405.09 316.809 M 423.238 305.978 L 390.041 283.724 M 390.041 283.724 L 376.499 288.464 M 376.499 288.464 L 390.041 283.724 M 390.041 283.724 L 382.543 255.684 M 382.543 255.684 L 394.18 255.016 M 394.18 255.016 L 382.543 255.684 M 382.543 255.684 L 390.041 283.724 M 390.041 283.724 L 374.51 280.023 M 374.51 280.023 L 343.239 275.189 M 343.239 275.189 L 336.399 249.841 M 336.399 249.841 L 343.239 275.189 M 343.239 275.189 L 374.51 280.023 M 374.51 280.023 L 343.251 282.466 M 343.251 282.466 L 374.51 280.023 M 374.51 280.023 L 390.041 283.724 M 390.041 283.724 L 423.238 305.978 M 438.355 288.262 L 448.791 307.593 M 448.791 307.593 L 456.324 270.033 M 456.324 270.033 L 448.791 307.593 M 448.791 307.593 L 438.355 288.262 M 456.324 270.033 L 479.872 289.868 M 479.872 289.868 L 456.324 270.033 M 456.324 270.033 L 432.056 250.541 M 432.056 250.541 L 456.324 270.033 M 430.725 250.787 L 432.242 239.427 M 432.242 239.427 L 430.725 250.787 M 430.725 250.787 L 425.56 245.52 M 425.56 245.52 L 430.725 250.787 M 437.114 244.081 L 432.242 239.427 M 432.242 239.427 L 437.114 244.081 M 369.189 254.952 L 343.239 275.189 M 343.239 275.189 L 369.189 254.952 M 369.189 254.952 L 336.399 249.841 M 336.399 249.841 L 369.189 254.952 M 374.51 280.023 L 376.499 288.464 M 376.499 288.464 L 374.51 280.023 M 343.239 275.189 L 317.002 259.409 M 317.002 259.409 L 280.689 283.945 M 280.689 283.945 L 317.002 259.409 M 317.002 259.409 L 293.333 294.082 M 293.333 294.082 L 317.002 259.409 M 317.002 259.409 L 305.633 252.319 M 305.633 252.319 L 307.9 245.947 M 307.9 245.947 L 291.422 235.415 M 291.422 235.415 L 307.9 245.947 M 307.9 245.947 L 305.633 252.319 M 305.633 252.319 L 280.689 283.945 M 280.689 283.945 L 305.633 252.319 M 305.633 252.319 L 283.437 240.38 M 283.437 240.38 L 261.056 267.873 M 261.056 267.873 L 283.437 240.38 M 283.437 240.38 L 261.866 231.649 M 261.866 231.649 L 264.969 227.04 M 264.969 227.04 L 267.718 205.44 M 267.718 205.44 L 264.969 227.04 M 264.969 227.04 L 261.866 231.649 M 261.866 231.649 L 283.437 240.38 M 283.437 240.38 L 305.633 252.319 M 305.633 252.319 L 317.002 259.409 M 317.002 259.409 L 340.835 282.057 M 340.835 282.057 L 317.002 259.409 M 317.002 259.409 L 343.239 275.189 M 343.239 275.189 L 322.264 256.851 M 322.264 256.851 L 343.239 275.189 M 340.835 282.057 L 293.333 294.082 M 293.333 294.082 L 340.835 282.057 M 321.705 253.015 L 307.9 245.947 M 307.9 245.947 L 283.437 240.38 M 283.437 240.38 L 245.665 254.986 M 245.665 254.986 L 261.056 267.873 M 261.056 267.873 L 245.665 254.986 M 245.665 254.986 L 283.437 240.38 M 283.437 240.38 L 307.9 245.947 M 307.9 245.947 L 321.705 253.015 M 307.9 245.947 L 316.536 226.647 M 316.536 226.647 L 328.718 203.117 M 328.718 203.117 L 316.536 226.647 M 316.536 226.647 L 328.416 237.267 M 328.416 237.267 L 316.536 226.647 M 316.536 226.647 L 336.807 207.16 M 336.807 207.16 L 316.536 226.647 M 316.536 226.647 L 319.553 199.336 M 319.553 199.336 L 316.536 226.647 M 316.536 226.647 L 307.9 245.947 M 305.633 252.319 L 261.056 267.873 M 261.056 267.873 L 305.633 252.319 M 290.306 233.958 L 264.969 227.04 M 264.969 227.04 L 290.306 233.958 M 290.306 233.958 L 267.718 205.44 M 267.718 205.44 L 245.737 197.511 M 245.737 197.511 L 236.545 217.035 M 236.545 217.035 L 245.737 197.511 M 245.737 197.511 L 267.718 205.44 M 267.718 205.44 L 290.306 233.958 M 290.306 233.958 L 295.279 211.406 M 295.279 211.406 L 290.306 233.958 M 290.306 233.958 L 261.866 231.649 M 261.866 231.649 L 249.504 223.713 M 249.504 223.713 L 261.866 231.649 M 261.866 231.649 L 290.306 233.958 M 295.65 211.33 L 271.78 188.762 M 271.78 188.762 L 275.745 179.437 M 275.745 179.437 L 254.706 168.417 M 254.706 168.417 L 275.745 179.437 M 275.745 179.437 L 271.78 188.762 M 271.78 188.762 L 293.521 187.239 M 293.521 187.239 L 271.78 188.762 M 271.78 188.762 L 254.706 168.417 M 254.706 168.417 L 271.78 188.762 M 271.78 188.762 L 295.65 211.33 M 294.415 184.756 L 292.995 177.029 M 292.995 177.029 L 291.232 148.313 M 291.232 148.313 L 302.195 175.243 M 302.195 175.243 L 291.232 148.313 M 291.232 148.313 L 292.995 177.029 M 292.995 177.029 L 294.415 184.756 M 292.995 177.029 L 275.745 179.437 M 275.745 179.437 L 292.995 177.029 M 292.995 177.029 L 278.39 165.458 M 278.39 165.458 L 257.506 152.247 M 257.506 152.247 L 251.121 165.156 M 251.121 165.156 L 257.506 152.247 M 257.506 152.247 L 278.39 165.458 M 278.39 165.458 L 254.706 168.417 M 254.706 168.417 L 278.39 165.458 M 278.39 165.458 L 292.995 177.029 M 292.995 177.029 L 282.99 152.12 M 282.99 152.12 L 292.995 177.029 M 275.745 179.437 L 278.39 165.458 M 278.39 165.458 L 275.745 179.437 M 271.78 188.762 L 250.541 182.699 M 250.541 182.699 L 267.718 205.44 M 267.718 205.44 L 250.541 182.699 M 250.541 182.699 L 250.551 165.922 M 250.551 165.922 L 250.541 182.699 M 250.541 182.699 L 245.737 197.511 M 245.737 197.511 L 246.81 181.744 M 246.81 181.744 L 245.737 197.511 M 245.737 197.511 L 250.541 182.699 M 250.541 182.699 L 254.706 168.417 M 254.706 168.417 L 250.541 182.699 M 250.541 182.699 L 271.78 188.762 M 246.93 181.36 L 250.551 165.922 M 250.551 165.922 L 231.901 176.977 M 231.901 176.977 L 250.551 165.922 M 250.551 165.922 L 246.93 181.36 M 246.81 181.744 L 238.32 195.6 M 238.32 195.6 L 246.81 181.744 M 254.706 168.417 L 257.506 152.247 M 257.506 152.247 L 232.687 141.74 M 232.687 141.74 L 257.506 152.247 M 257.506 152.247 L 266.17 136.367 M 266.17 136.367 L 257.506 152.247 M 257.506 152.247 L 281.901 151.793 M 281.901 151.793 L 257.506 152.247 M 257.506 152.247 L 254.706 168.417 M 245.737 197.511 L 264.969 227.04 M 264.969 227.04 L 245.737 197.511 M 236.545 217.035 L 264.969 227.04 M 264.969 227.04 L 236.545 217.035 M 232.687 141.74 L 253.867 112.683 M 253.867 112.683 L 232.687 141.74 M 232.687 141.74 L 251.155 137.393 M 251.155 137.393 L 232.687 141.74 M 232.687 141.74 L 227.395 118.64 M 227.395 118.64 L 223.089 118.37 M 223.089 118.37 L 218.82 91.7521 M 218.82 91.7521 L 223.089 118.37 M 223.089 118.37 L 227.395 118.64 M 227.395 118.64 L 232.687 141.74 M 213.766 94.3406 L 191.638 97.0304 M 191.638 97.0304 L 196.291 85.6941 M 196.291 85.6941 L 168.54 95.2139 M 168.54 95.2139 L 196.291 85.6941 M 196.291 85.6941 L 207.452 62.8987 M 207.452 62.8987 L 196.291 85.6941 M 196.291 85.6941 L 194.028 58.4615 M 194.028 58.4615 L 196.291 85.6941 M 196.291 85.6941 L 191.638 97.0304 M 191.638 97.0304 L 213.766 94.3406 M 214.177 93.4543 L 218.82 91.7521 M 218.82 91.7521 L 214.177 93.4543 M 214.177 93.4543 L 209.962 86.7456 M 209.962 86.7456 L 219.154 62.1732 M 219.154 62.1732 L 209.962 86.7456 M 209.962 86.7456 L 207.452 62.8987 M 207.452 62.8987 L 209.962 86.7456 M 209.962 86.7456 L 196.291 85.6941 M 196.291 85.6941 L 209.962 86.7456 M 209.962 86.7456 L 214.177 93.4543 M 219.909 88.8892 L 219.154 62.1732 M 219.154 62.1732 L 229.428 60.6206 M 229.428 60.6206 L 219.154 62.1732 M 219.154 62.1732 L 219.909 88.8892 M 196.291 85.6941 L 167.303 83.3549 M 167.303 83.3549 L 166.758 71.3073 M 166.758 71.3073 L 167.303 83.3549 M 167.303 83.3549 L 168.54 95.2139 M 168.54 95.2139 L 167.303 83.3549 M 167.303 83.3549 L 150.366 87.4157 M 150.366 87.4157 L 167.303 83.3549 M 167.303 83.3549 L 194.028 58.4615 M 194.028 58.4615 L 221.007 43.8967 M 221.007 43.8967 L 207.935 61.0065 M 207.935 61.0065 L 221.007 43.8967 M 221.007 43.8967 L 209.796 29.1829 M 209.796 29.1829 L 229.544 8.25209 M 229.544 8.25209 L 209.796 29.1829 M 209.796 29.1829 L 221.007 43.8967 M 221.007 43.8967 L 189.769 53.136 M 189.769 53.136 L 221.007 43.8967 M 221.007 43.8967 L 194.028 58.4615 M 194.028 58.4615 L 166.758 71.3073 M 166.758 71.3073 L 194.028 58.4615 M 194.028 58.4615 L 189.769 53.136 M 189.769 53.136 L 199.803 31.0713 M 199.803 31.0713 L 189.769 53.136 M 189.769 53.136 L 194.028 58.4615 M 194.028 58.4615 L 167.303 83.3549 M 167.303 83.3549 L 196.291 85.6941 M 158.009 76.2301 L 150.366 87.4157 M 150.366 87.4157 L 109.171 109.924 M 109.171 109.924 L 98.1007 103.07 M 98.1007 103.07 L 109.171 109.924 M 109.171 109.924 L 150.288 127.263 M 150.288 127.263 L 109.171 109.924 M 109.171 109.924 L 134.926 138.748 M 134.926 138.748 L 109.171 109.924 M 109.171 109.924 L 135.206 78.2069 M 135.206 78.2069 L 109.171 109.924 M 109.171 109.924 L 158.309 105.526 M 158.309 105.526 L 109.171 109.924 M 109.171 109.924 L 115.392 76.306 M 115.392 76.306 L 98.1007 103.07 M 98.1007 103.07 L 115.392 76.306 M 115.392 76.306 L 131.716 58.0072 M 131.716 58.0072 L 151.928 59.79 M 151.928 59.79 L 131.716 58.0072 M 131.716 58.0072 L 115.392 76.306 M 115.392 76.306 L 109.171 109.924 M 109.171 109.924 L 150.366 87.4157 M 150.366 87.4157 L 135.206 78.2069 M 135.206 78.2069 L 150.366 87.4157 M 150.366 87.4157 L 158.009 76.2301 M 135.281 75.4984 L 131.716 58.0072 M 131.716 58.0072 L 151.543 54.2488 M 151.543 54.2488 L 131.716 58.0072 M 131.716 58.0072 L 135.281 75.4984 M 131.716 58.0072 L 113.68 57.9358 M 113.68 57.9358 L 67.2204 59.4775 M 67.2204 59.4775 L 90.2792 39.4376 M 90.2792 39.4376 L 67.2204 59.4775 M 67.2204 59.4775 L 17.9403 72.7592 M 17.9403 72.7592 L 67.2204 59.4775 M 67.2204 59.4775 L 113.68 57.9358 M 113.68 57.9358 L 90.2792 39.4376 M 90.2792 39.4376 L 127.658 45.9898 M 127.658 45.9898 L 90.2792 39.4376 M 90.2792 39.4376 L 113.68 57.9358 M 113.68 57.9358 L 127.658 45.9898 M 127.658 45.9898 L 113.68 57.9358 M 113.68 57.9358 L 115.392 76.306 M 115.392 76.306 L 113.68 57.9358 M 113.68 57.9358 L 131.716 58.0072 M 129.924 45.4501 L 151.543 54.2488 M 151.543 54.2488 L 129.924 45.4501 M 115.392 76.306 L 72.4573 83.1648 M 72.4573 83.1648 L 98.1007 103.07 M 98.1007 103.07 L 72.4573 83.1648 M 72.4573 83.1648 L 115.392 76.306 M 98.1007 103.07 L 74.6599 120.885 M 74.6599 120.885 L 50.5907 138.104 M 50.5907 138.104 L 103.651 146.219 M 103.651 146.219 L 50.5907 138.104 M 50.5907 138.104 L 74.6599 120.885 M 74.6599 120.885 L 98.1007 103.07 M 74.6599 120.885 L 103.651 146.219 M 103.651 146.219 L 74.6599 120.885 M 74.6599 120.885 L 104.741 132.787 M 104.741 132.787 L 74.6599 120.885 M 52.267 113.36 L 33.008 134.909 M 33.008 134.909 L 52.267 113.36 M 52.267 113.36 L 50.5907 138.104 M 50.5907 138.104 L 52.267 113.36 M 33.008 134.909 L 22.5521 114.828 M 22.5521 114.828 L 33.008 134.909 M 35.1878 89.0629 L 17.9403 72.7592 M 17.9403 72.7592 L 35.1878 89.0629 M 35.1878 89.0629 L 67.7474 72.9692 M 67.7474 72.9692 L 35.1878 89.0629 M 17.9403 72.7592 L 44.2678 47.6047 M 44.2678 47.6047 L 8 71.2168 M 8 71.2168 L 28.1311 39.164 M 28.1311 39.164 L 8 71.2168 M 8 71.2168 L 44.2678 47.6047 M 44.2678 47.6047 L 67.2204 59.4775 M 67.2204 59.4775 L 44.2678 47.6047 M 44.2678 47.6047 L 17.9403 72.7592 M 17.9403 72.7592 L 67.7474 72.9692 M 67.7474 72.9692 L 17.9403 72.7592 M 44.2678 47.6047 L 66.257 22.9451 M 66.257 22.9451 L 30.0421 36.2352 M 30.0421 36.2352 L 66.257 22.9451 M 66.257 22.9451 L 44.2678 47.6047 M 30.0421 36.2352 L 52.5662 12.817 M 52.5662 12.817 L 25.8723 32.8181 M 25.8723 32.8181 L 52.5662 12.817 M 52.5662 12.817 L 30.0421 36.2352 M 30.0421 36.2352 L 25.8723 32.8181 M 25.8723 32.8181 L 30.0421 36.2352 M 67.2204 59.4775 L 67.7474 72.9692 M 67.7474 72.9692 L 67.2204 59.4775 M 90.2792 39.4376 L 74.3193 23.6286 M 74.3193 23.6286 L 100.146 18.6007 M 100.146 18.6007 L 74.3193 23.6286 M 74.3193 23.6286 L 90.2792 39.4376 M 110.698 132.492 L 134.926 138.748 M 134.926 138.748 L 113.177 145.738 M 113.177 145.738 L 134.926 138.748 M 134.926 138.748 L 110.698 132.492 M 199.803 31.0713 L 221.007 43.8967 M 221.007 43.8967 L 199.803 31.0713 M 209.796 29.1829 L 226.169 29.05 M 226.169 29.05 L 234.762 8.28315 M 234.762 8.28315 L 226.169 29.05 M 226.169 29.05 L 229.544 8.25209 M 229.544 8.25209 L 226.169 29.05 M 226.169 29.05 L 209.796 29.1829 M 392.318 350.712 L 371.409 366.871 M 371.409 366.871 L 392.318 350.712 M 407.737 384.304 L 427.282 372.408 M 427.282 372.408 L 450.19 366.72 M 450.19 366.72 L 438.021 418.415 M 438.021 418.415 L 450.19 366.72 M 450.19 366.72 L 427.282 372.408 M 427.282 372.408 L 407.737 384.304 M 407.737 384.304 L 438.021 418.415 M 438.021 418.415 L 464.282 439.855 M 464.282 439.855 L 438.021 418.415 M 438.021 418.415 L 448.06 465.887 M 448.06 465.887 L 427.529 432.446 M 427.529 432.446 L 448.06 465.887 M 448.06 465.887 L 479.186 471.285 M 479.186 471.285 L 448.06 465.887 M 448.06 465.887 L 426.642 438.888 M 426.642 438.888 L 448.06 465.887 M 448.06 465.887 L 438.021 418.415 M 438.021 418.415 L 390.452 427.32 M 390.452 427.32 L 427.529 432.446 M 427.529 432.446 L 390.452 427.32 M 390.452 427.32 L 438.021 418.415 M 438.021 418.415 L 427.282 372.408 M 427.282 372.408 L 438.021 418.415 M 438.021 418.415 L 427.529 432.446 M 427.529 432.446 L 438.021 418.415 M 438.021 418.415 L 397.687 399.464 M 397.687 399.464 L 438.021 418.415 M 438.021 418.415 L 407.737 384.304 M 450.19 366.72 L 439.159 330.455 M 439.159 330.455 L 476.125 362.991 M 476.125 362.991 L 459.199 323.413 M 459.199 323.413 L 476.125 362.991 M 476.125 362.991 L 439.159 330.455 M 439.159 330.455 L 450.19 366.72 M 450.19 366.72 L 476.125 362.991 M 476.125 362.991 L 482.163 415.571 M 482.163 415.571 L 488.129 366.456 M 488.129 366.456 L 482.163 415.571 M 482.163 415.571 L 476.125 362.991 M 476.125 362.991 L 454.67 327.653 M 454.67 327.653 L 476.125 362.991 M 476.125 362.991 L 450.19 366.72 M 488.129 366.456 L 486.492 413.056 M 486.492 413.056 L 504.82 412.747 M 504.82 412.747 L 497.866 406.881 M 497.866 406.881 L 514.603 372.673 M 514.603 372.673 L 522.185 382.299 M 522.185 382.299 L 514.603 372.673 M 514.603 372.673 L 497.866 406.881 M 497.866 406.881 L 504.82 412.747 M 504.82 412.747 L 486.492 413.056 M 486.492 413.056 L 497.866 406.881 M 497.866 406.881 L 486.492 413.056 M 486.492 413.056 L 488.129 366.456 M 487.333 357.475 L 459.199 323.413 M 459.199 323.413 L 487.333 357.475 M 514.603 372.673 L 529.617 358.121 M 529.617 358.121 L 514.603 372.673 M 514.603 372.673 L 504.82 412.747 M 504.82 412.747 L 528.185 392.025 M 528.185 392.025 L 522.185 382.299 M 522.185 382.299 L 528.185 392.025 M 528.185 392.025 L 554.201 386.839 M 554.201 386.839 L 572.153 368.153 M 572.153 368.153 L 554.201 386.839 M 554.201 386.839 L 528.185 392.025 M 528.185 392.025 L 504.82 412.747 M 504.82 412.747 L 485.565 417.976 M 485.565 417.976 L 504.82 412.747 M 504.82 412.747 L 514.603 372.673 M 522.185 382.299 L 554.201 386.839 M 554.201 386.839 L 539.642 363.994 M 539.642 363.994 L 554.201 386.839 M 554.201 386.839 L 522.185 382.299 M 522.185 382.299 L 504.82 412.747 M 504.82 412.747 L 522.185 382.299 M 479.816 434.033 L 501.893 449.553 M 501.893 449.553 L 479.816 434.033 M 479.816 434.033 L 473.091 441.53 M 473.091 441.53 L 464.282 439.855 M 464.282 439.855 L 473.091 441.53 M 473.091 441.53 L 479.816 434.033 M 479.816 434.033 L 481.011 470.853 M 481.011 470.853 L 479.816 434.033 M 473.091 441.53 L 448.06 465.887 M 448.06 465.887 L 473.091 441.53 M 464.282 439.855 L 448.06 465.887 M 448.06 465.887 L 479.725 485.473 M 479.725 485.473 L 464.544 494.19 M 464.544 494.19 L 479.725 485.473 M 479.725 485.473 L 449.157 474.697 M 449.157 474.697 L 479.725 485.473 M 479.725 485.473 L 455.833 487.28 M 455.833 487.28 L 479.725 485.473 M 479.725 485.473 L 448.06 465.887 M 448.06 465.887 L 425.653 459.141 M 425.653 459.141 L 448.06 465.887 M 448.06 465.887 L 464.282 439.855 M 426.065 438.782 L 389.471 439.694 M 389.471 439.694 L 354.629 445.898 M 354.629 445.898 L 389.471 439.694 M 389.471 439.694 L 426.065 438.782 M 426.065 438.782 L 390.452 427.32 M 390.452 427.32 L 426.065 438.782 M 421.254 458.479 L 418.085 470.599 M 418.085 470.599 L 403.683 480.119 M 403.683 480.119 L 418.085 470.599 M 418.085 470.599 L 421.254 458.479 M 421.254 458.479 L 396.917 466.295 M 396.917 466.295 L 421.254 458.479 M 421.254 458.479 L 389.471 439.694 M 389.471 439.694 L 396.917 466.295 M 396.917 466.295 L 361.812 469.407 M 361.812 469.407 L 396.917 466.295 M 396.917 466.295 L 389.471 439.694 M 389.471 439.694 L 351.22 429.038 M 351.22 429.038 L 388.006 427.368 M 388.006 427.368 L 351.22 429.038 M 351.22 429.038 L 389.471 439.694 M 389.471 439.694 L 421.254 458.479 M 418.085 470.599 L 439.073 494.171 M 439.073 494.171 L 418.085 470.599 M 418.085 470.599 L 396.917 466.295 M 396.917 466.295 L 418.085 470.599 M 418.085 470.599 L 438.595 479.934 M 438.595 479.934 L 418.085 470.599 M 402.26 480.731 L 368.558 486.966 M 368.558 486.966 L 402.26 480.731 M 402.26 480.731 L 361.812 469.407 M 361.812 469.407 L 402.26 480.731 M 396.917 466.295 L 354.629 445.898 M 354.629 445.898 L 396.917 466.295 M 368.558 486.966 L 376.391 510.744 M 376.391 510.744 L 408.611 500.172 M 408.611 500.172 L 376.391 510.744 M 376.391 510.744 L 368.558 486.966 M 368.558 486.966 L 408.611 500.172 M 408.611 500.172 L 381.424 526.523 M 381.424 526.523 L 408.611 500.172 M 408.611 500.172 L 433.598 514.079 M 433.598 514.079 L 408.611 500.172 M 408.611 500.172 L 368.558 486.966 M 376.391 510.744 L 369.542 529.487 M 369.542 529.487 L 338.778 534.614 M 338.778 534.614 L 369.542 529.487 M 369.542 529.487 L 376.391 510.744 M 376.391 510.744 L 381.424 526.523 M 381.424 526.523 L 376.391 510.744 M 376.391 510.744 L 343.358 496.779 M 343.358 496.779 L 376.391 510.744 M 369.542 529.487 L 350.454 517.895 M 350.454 517.895 L 369.542 529.487 M 350.341 517.474 L 325.71 521.745 M 325.71 521.745 L 350.341 517.474 M 350.341 517.474 L 343.358 496.779 M 343.358 496.779 L 350.341 517.474 M 408.611 500.172 L 412.555 518.074 M 412.555 518.074 L 408.611 500.172 M 388.006 427.368 L 351.281 399.892 M 351.281 399.892 L 388.006 427.368" />
  <path class="h" d=" M 13.0328 63.2036 L 23.0983 47.1772 M 23.0983 47.1772 L 13.0328 63.2036 M 22.2522 76.8351 L 30.8759 84.987 M 30.8759 84.987 L 22.2522 76.8351 M 43.3277 85.0395 L 59.6075 76.9927 M 59.6075 76.9927 L 43.3277 85.0395 M 47.4522 118.747 L 37.8227 129.522 M 37.8227 129.522 L 47.4522 118.747 M 56.608 133.799 L 68.6426 125.19 M 68.6426 125.19 L 56.608 133.799 M 63.8558 140.133 L 90.386 144.19 M 90.386 144.19 L 63.8558 140.133 M 82.1802 123.861 L 97.2208 129.812 M 97.2208 129.812 L 82.1802 123.861 M 80.5201 116.431 L 92.2405 107.524 M 92.2405 107.524 L 80.5201 116.431 M 91.6898 98.0934 L 78.8681 88.141 M 78.8681 88.141 L 91.6898 98.0934 M 102.423 96.3787 L 111.069 82.9969 M 111.069 82.9969 L 102.423 96.3787 M 100.868 104.783 L 106.404 108.21 M 106.404 108.21 L 100.868 104.783 M 110.726 101.519 L 113.837 84.7104 M 113.837 84.7104 L 110.726 101.519 M 115.68 101.994 L 128.698 86.1361 M 128.698 86.1361 L 115.68 101.994 M 119.47 104.297 L 140.068 93.0427 M 140.068 93.0427 L 119.47 104.297 M 119.45 114.259 L 140.009 122.928 M 140.009 122.928 L 119.45 114.259 M 115.61 117.13 L 128.488 131.542 M 128.488 131.542 L 115.61 117.13 M 116.755 134.056 L 128.869 137.184 M 128.869 137.184 L 116.755 134.056 M 119.473 71.7313 L 127.635 62.5819 M 127.635 62.5819 L 119.473 71.7313 M 197.578 50.8261 L 213.197 46.2065 M 213.197 46.2065 L 197.578 50.8261 M 211.203 56.7291 L 217.739 48.1741 M 217.739 48.1741 L 211.203 56.7291 M 208.08 68.8605 L 209.335 80.7839 M 209.335 80.7839 L 208.08 68.8605 M 219.342 68.8522 L 219.72 82.2102 M 219.72 82.2102 L 219.342 68.8522 M 218.204 40.2182 L 212.599 32.8613 M 212.599 32.8613 L 218.204 40.2182 M 227.013 23.8505 L 228.7 13.4516 M 228.7 13.4516 L 227.013 23.8505 M 228.318 23.8583 L 232.614 13.4749 M 232.614 13.4749 L 228.318 23.8583 M 219.887 98.4066 L 222.022 111.716 M 222.022 111.716 L 219.887 98.4066 M 238.892 144.367 L 251.301 149.62 M 251.301 149.62 L 238.892 144.367 M 255.909 155.474 L 252.717 161.928 M 252.717 161.928 L 255.909 155.474 M 256.806 156.289 L 255.406 164.375 M 255.406 164.375 L 256.806 156.289 M 262.727 155.549 L 273.169 162.155 M 273.169 162.155 L 262.727 155.549 M 263.604 152.133 L 275.802 151.906 M 275.802 151.906 L 263.604 152.133 M 259.672 148.277 L 264.004 140.337 M 264.004 140.337 L 259.672 148.277 M 260.627 167.678 L 272.469 166.198 M 272.469 166.198 L 260.627 167.678 M 259.966 171.172 L 270.485 176.682 M 270.485 176.682 L 259.966 171.172 M 253.665 171.988 L 251.583 179.129 M 251.583 179.129 L 253.665 171.988 M 249.646 169.782 L 247.835 177.5 M 247.835 177.5 L 249.646 169.782 M 245.888 168.686 L 236.563 174.214 M 236.563 174.214 L 245.888 168.686 M 244.688 185.208 L 240.442 192.136 M 240.442 192.136 L 244.688 185.208 M 249.34 186.402 L 246.938 193.808 M 246.938 193.808 L 249.34 186.402 M 255.851 184.215 L 266.47 187.246 M 266.47 187.246 L 255.851 184.215 M 272.771 186.431 L 274.754 181.768 M 274.754 181.768 L 272.771 186.431 M 277.747 194.404 L 289.682 205.688 M 289.682 205.688 L 277.747 194.404 M 280.058 178.835 L 288.683 177.631 M 288.683 177.631 L 280.058 178.835 M 276.406 175.942 L 277.729 168.953 M 277.729 168.953 L 276.406 175.942 M 282.041 168.351 L 289.344 174.137 M 289.344 174.137 L 282.041 168.351 M 292.555 169.85 L 291.673 155.492 M 291.673 155.492 L 292.555 169.85 M 293.35 178.961 L 294.06 182.824 M 294.06 182.824 L 293.35 178.961 M 318.799 206.164 L 317.29 219.819 M 317.29 219.819 L 318.799 206.164 M 325.672 208.999 L 319.581 220.764 M 319.581 220.764 L 325.672 208.999 M 319.506 229.302 L 325.446 234.612 M 325.446 234.612 L 319.506 229.302 M 314.377 231.472 L 310.059 241.122 M 310.059 241.122 L 314.377 231.472 M 301.784 244.555 L 289.553 241.771 M 289.553 241.771 L 301.784 244.555 M 294.489 256.208 L 272.2 263.985 M 272.2 263.985 L 294.489 256.208 M 291.549 228.32 L 294.035 217.044 M 294.035 217.044 L 291.549 228.32 M 284.659 226.829 L 273.365 212.57 M 273.365 212.57 L 284.659 226.829 M 260.161 219.657 L 250.545 204.893 M 250.545 204.893 L 260.161 219.657 M 238.843 212.154 L 243.439 202.392 M 243.439 202.392 L 238.843 212.154 M 338.109 256.178 L 341.529 268.852 M 341.529 268.852 L 338.109 256.178 M 349.727 270.13 L 362.701 260.011 M 362.701 260.011 L 349.727 270.13 M 370.77 298.257 L 359.312 317.843 M 359.312 317.843 L 370.77 298.257 M 385.452 255.517 L 391.271 255.183 M 391.271 255.183 L 385.452 255.517 M 419.83 272.226 L 432.18 282.917 M 432.18 282.917 L 419.83 272.226 M 429.434 249.47 L 426.851 246.837 M 426.851 246.837 L 429.434 249.47 M 435.896 242.918 L 433.46 240.591 M 433.46 240.591 L 435.896 242.918 M 438.123 255.414 L 450.257 265.16 M 450.257 265.16 L 438.123 255.414 M 451.832 274.591 L 442.847 283.705 M 442.847 283.705 L 451.832 274.591 M 462.211 274.992 L 473.985 284.91 M 473.985 284.91 L 462.211 274.992 M 440.964 293.095 L 446.182 302.76 M 446.182 302.76 L 440.964 293.095 M 434.576 292.691 L 427.017 301.549 M 427.017 301.549 L 434.576 292.691 M 420.589 313.987 L 415.29 330.006 M 415.29 330.006 L 420.589 313.987 M 448.401 338.589 L 466.884 354.857 M 466.884 354.857 L 448.401 338.589 M 463.431 333.308 L 471.894 353.096 M 471.894 353.096 L 463.431 333.308 M 486.637 378.735 L 483.654 403.293 M 483.654 403.293 L 486.637 378.735 M 510.661 407.567 L 522.343 397.206 M 522.343 397.206 L 510.661 407.567 M 534.689 390.728 L 547.697 388.135 M 547.697 388.135 L 534.689 390.728 M 478.135 435.908 L 474.773 439.656 M 474.773 439.656 L 478.135 435.908 M 470.889 441.111 L 466.484 440.274 M 466.484 440.274 L 470.889 441.111 M 466.834 447.619 L 454.318 459.798 M 454.318 459.798 L 466.834 447.619 M 460.227 446.363 L 452.116 459.379 M 452.116 459.379 L 460.227 446.363 M 457.717 434.495 L 444.587 423.775 M 444.587 423.775 L 457.717 434.495 M 432.662 440.806 L 442.928 457.527 M 442.928 457.527 L 432.662 440.806 M 426.129 420.642 L 402.344 425.094 M 402.344 425.094 L 426.129 420.642 M 378.824 420.499 L 360.462 406.761 M 360.462 406.761 L 378.824 420.499 M 392.824 383.894 L 392.487 361.772 M 392.487 361.772 L 392.824 383.894 M 401.059 356.136 L 418.541 366.984 M 418.541 366.984 L 401.059 356.136 M 351.92 351.659 L 348.247 371.789 M 348.247 371.789 L 351.92 351.659 M 378.572 490.268 L 398.598 496.871 M 398.598 496.871 L 378.572 490.268 M 368.133 507.253 L 351.616 500.27 M 351.616 500.27 L 368.133 507.253 M 374.679 515.43 L 371.254 524.802 M 371.254 524.802 L 374.679 515.43 M 361.851 530.769 L 346.469 533.332 M 346.469 533.332 L 361.851 530.769 M 423.332 476.492 L 433.826 488.278 M 433.826 488.278 L 423.332 476.492 M 461.806 486.828 L 473.752 485.925 M 473.752 485.925 L 461.806 486.828 M 30.394 129.889 L 25.1661 119.848 M 25.1661 119.848 L 30.394 129.889 M 32.5458 27.8178 L 45.8927 17.8173 M 45.8927 17.8173 L 32.5458 27.8178" />
  <path class="z" fill="none" d=" M 479.816 434.033 L 517.157 425.814 M 481.011 470.853 L 473.091 441.53 L 479.186 471.285 M 455.833 487.28 L 449.157 474.697 L 448.06 465.887 L 448.394 474.759 L 425.653 459.141 L 426.642 438.888 L 427.529 432.446 L 426.065 438.782 L 421.254 458.479 L 438.595 479.934 L 439.073 494.171 L 416.287 497.454 L 418.085 470.599 L 414.77 497.308 L 403.683 480.119 L 396.917 466.295 L 402.26 480.731 L 408.611 500.172 L 431.437 503.17 M 350.454 517.895 L 376.391 510.744 L 350.341 517.474 M 335.925 531.896 L 325.71 521.745 L 343.358 496.779 L 368.558 486.966 L 361.812 469.407 L 354.629 445.898 L 351.22 429.038 L 351.281 399.892 L 386.677 398.618 L 388.006 427.368 L 389.471 439.694 L 390.452 427.32 L 397.687 399.464 L 407.737 384.304 L 392.993 394.955 L 371.409 366.871 L 346.411 381.854 L 332.513 391.994 L 312.254 405.916 L 297.362 417.405 L 295.865 383.467 L 315.281 367.135 L 328.516 357.783 L 353.757 341.595 L 377.799 323.694 L 392.318 350.712 L 379.87 322.679 L 412.641 338.015 L 381.721 319.225 L 405.09 316.809 L 381.597 316.974 L 353.583 327.635 L 342.854 291.537 L 376.499 288.464 L 343.251 282.466 L 343.239 275.189 L 340.835 282.057 L 317.602 311.695 L 293.333 294.082 L 280.689 283.945 L 261.056 267.873 L 227.93 275.402 L 245.665 254.986 L 261.866 231.649 L 244.079 253.802 L 249.504 223.713 L 264.969 227.04 L 249.704 222.889 L 236.545 217.035 M 238.316 195.615 L 245.737 197.511 L 238.32 195.6 L 231.374 179.135 L 246.81 181.744 L 250.541 182.699 L 246.93 181.36 L 231.901 176.977 L 227.05 147.598 L 250.551 165.922 L 254.706 168.417 L 251.121 165.156 L 232.687 141.74 L 223.089 118.37 L 214.177 93.4543 L 196.291 85.6941 L 213.766 94.3406 L 210.298 101.47 L 191.638 97.0304 L 168.54 95.2139 L 150.366 87.4157 L 158.309 105.526 L 150.288 127.263 L 134.926 138.748 L 139.632 145.129 L 113.177 145.738 L 110.698 132.492 L 109.171 109.924 L 106.385 132.372 L 98.1007 103.07 L 104.741 132.787 L 103.651 146.219 L 78.4912 148.509 L 50.5907 138.104 L 33.008 134.909 M 52.267 113.36 L 74.6599 120.885 L 72.4573 83.1648 L 113.68 57.9358 L 67.7474 72.9692 L 50.8377 106.759 L 35.1878 89.0629 M 28.1311 39.164 L 44.2678 47.6047 L 30.0421 36.2352 M 66.257 22.9451 L 67.2204 59.4775 L 74.3193 23.6286 M 92.3096 12.1191 L 100.146 18.6007 L 90.2792 39.4376 L 128.898 27.8112 L 127.658 45.9898 L 131.716 58.0072 L 129.924 45.4501 L 137.131 28.7151 L 151.543 54.2488 L 151.928 59.79 L 135.281 75.4984 L 115.392 76.306 L 135.206 78.2069 L 158.009 76.2301 L 167.303 83.3549 L 161.525 73.1691 L 166.758 71.3073 L 189.769 53.136 L 185.439 13.038 L 199.803 31.0713 L 209.796 29.1829 M 221.007 43.8967 L 219.505 59.1115 L 207.935 61.0065 L 194.028 58.4615 L 207.452 62.8987 L 219.154 62.1732 L 223.772 47.5988 M 219.909 88.8892 L 209.962 86.7456 L 218.82 91.7521 M 251.155 137.393 L 257.506 152.247 L 252.384 136.926 M 281.901 151.793 L 278.39 165.458 L 282.99 152.12 M 291.232 148.313 L 298.742 143.998 L 302.195 175.243 L 292.995 177.029 L 302.272 175.697 L 294.415 184.756 L 275.745 179.437 L 293.521 187.239 L 295.65 211.33 L 268.056 205.519 L 271.78 188.762 L 267.718 205.44 L 295.279 211.406 L 305.162 211.894 L 290.306 233.958 L 283.437 240.38 L 291.422 235.415 L 316.536 226.647 L 308.513 220.853 L 319.553 199.336 L 328.718 203.117 L 336.807 207.16 L 328.416 237.267 L 307.9 245.947 L 329.089 239.072 L 321.705 253.015 L 305.633 252.319 L 321.394 255.543 L 317.002 259.409 L 322.264 256.851 L 336.399 249.841 L 361.74 231.547 L 369.189 254.952 L 374.51 280.023 L 382.543 255.684 L 387.225 231.573 L 394.18 255.016 L 390.041 283.724 L 413.655 266.88 L 425.56 245.52 L 432.242 239.427 L 439.081 232.251 L 437.114 244.081 L 430.725 250.787 L 438.355 288.262 L 432.056 250.541 L 438.651 244.037 L 456.324 270.033 L 461.241 262.904 M 479.872 289.868 L 448.791 307.593 L 423.238 305.978 L 447.017 315.469 L 446.866 321.673 L 433.007 329.182 L 427.282 372.408 L 439.159 330.455 L 454.67 327.653 L 459.199 323.413 L 488.767 343.56 L 487.333 357.475 L 476.125 362.991 L 488.129 366.456 L 497.866 406.881 L 509.555 366.976 L 514.603 372.673 L 517.951 365.838 L 529.617 358.121 L 522.185 382.299 L 539.642 363.994 M 543.003 414.755 L 504.82 412.747 L 495.193 426.258 L 485.565 417.976 L 486.492 413.056 L 482.163 415.571 L 450.19 366.72 L 462.996 423.682 L 438.021 418.415 L 461.919 427.376 L 464.282 439.855 L 479.816 434.033" />
  <path class="z" d=" M 471.639 440.078 L 474.544 440.078 L 474.544 442.983 L 471.639 442.983 L 471.639 440.078 M 446.608 464.435 L 449.513 464.435 L 449.513 467.34 L 446.608 467.34 L 446.608 464.435 M 426.076 430.993 L 428.981 430.993 L 428.981 433.898 L 426.076 433.898 L 426.076 430.993 M 416.633 469.147 L 419.538 469.147 L 419.538 472.052 L 416.633 472.052 L 416.633 469.147 M 395.465 464.843 L 398.37 464.843 L 398.37 467.748 L 395.465 467.748 L 395.465 464.843 M 374.939 509.292 L 377.844 509.292 L 377.844 512.197 L 374.939 512.197 L 374.939 509.292 M 388.018 438.242 L 390.923 438.242 L 390.923 441.147 L 388.018 441.147 L 388.018 438.242 M 406.285 382.852 L 409.19 382.852 L 409.19 385.757 L 406.285 385.757 L 406.285 382.852 M 390.866 349.259 L 393.771 349.259 L 393.771 352.164 L 390.866 352.164 L 390.866 349.259 M 411.188 336.563 L 414.093 336.563 L 414.093 339.468 L 411.188 339.468 L 411.188 336.563 M 403.637 315.356 L 406.542 315.356 L 406.542 318.261 L 403.637 318.261 L 403.637 315.356 M 375.046 287.012 L 377.951 287.012 L 377.951 289.917 L 375.046 289.917 L 375.046 287.012 M 341.787 273.737 L 344.692 273.737 L 344.692 276.642 L 341.787 276.642 L 341.787 273.737 M 260.413 230.197 L 263.318 230.197 L 263.318 233.102 L 260.413 233.102 L 260.413 230.197 M 263.516 225.587 L 266.421 225.587 L 266.421 228.492 L 263.516 228.492 L 263.516 225.587 M 244.284 196.058 L 247.189 196.058 L 247.189 198.963 L 244.284 198.963 L 244.284 196.058 M 249.089 181.247 L 251.994 181.247 L 251.994 184.152 L 249.089 184.152 L 249.089 181.247 M 253.254 166.965 L 256.159 166.965 L 256.159 169.87 L 253.254 169.87 L 253.254 166.965 M 194.839 84.2416 L 197.744 84.2416 L 197.744 87.1466 L 194.839 87.1466 L 194.839 84.2416 M 148.914 85.9632 L 151.819 85.9632 L 151.819 88.8682 L 148.914 88.8682 L 148.914 85.9632 M 107.719 108.471 L 110.624 108.471 L 110.624 111.376 L 107.719 111.376 L 107.719 108.471 M 96.6482 101.617 L 99.5532 101.617 L 99.5532 104.522 L 96.6482 104.522 L 96.6482 101.617 M 112.228 56.4833 L 115.133 56.4833 L 115.133 59.3883 L 112.228 59.3883 L 112.228 56.4833 M 42.8153 46.1522 L 45.7203 46.1522 L 45.7203 49.0572 L 42.8153 49.0572 L 42.8153 46.1522 M 65.7679 58.025 L 68.6729 58.025 L 68.6729 60.93 L 65.7679 60.93 L 65.7679 58.025 M 130.264 56.5547 L 133.169 56.5547 L 133.169 59.4597 L 130.264 59.4597 L 130.264 56.5547 M 113.939 74.8535 L 116.844 74.8535 L 116.844 77.7585 L 113.939 77.7585 L 113.939 74.8535 M 165.851 81.9024 L 168.756 81.9024 L 168.756 84.8074 L 165.851 84.8074 L 165.851 81.9024 M 192.576 57.009 L 195.481 57.009 L 195.481 59.914 L 192.576 59.914 L 192.576 57.009 M 208.51 85.2931 L 211.415 85.2931 L 211.415 88.1981 L 208.51 88.1981 L 208.51 85.2931 M 256.053 150.794 L 258.958 150.794 L 258.958 153.699 L 256.053 153.699 L 256.053 150.794 M 276.937 164.005 L 279.842 164.005 L 279.842 166.91 L 276.937 166.91 L 276.937 164.005 M 291.543 175.577 L 294.448 175.577 L 294.448 178.482 L 291.543 178.482 L 291.543 175.577 M 274.292 177.984 L 277.197 177.984 L 277.197 180.889 L 274.292 180.889 L 274.292 177.984 M 270.327 187.309 L 273.232 187.309 L 273.232 190.214 L 270.327 190.214 L 270.327 187.309 M 281.985 238.927 L 284.89 238.927 L 284.89 241.832 L 281.985 241.832 L 281.985 238.927 M 306.447 244.494 L 309.352 244.494 L 309.352 247.399 L 306.447 247.399 L 306.447 244.494 M 304.18 250.867 L 307.085 250.867 L 307.085 253.772 L 304.18 253.772 L 304.18 250.867 M 315.549 257.957 L 318.454 257.957 L 318.454 260.862 L 315.549 260.862 L 315.549 257.957 M 373.057 278.571 L 375.962 278.571 L 375.962 281.476 L 373.057 281.476 L 373.057 278.571 M 388.588 282.271 L 391.493 282.271 L 391.493 285.176 L 388.588 285.176 L 388.588 282.271 M 436.902 286.81 L 439.807 286.81 L 439.807 289.715 L 436.902 289.715 L 436.902 286.81 M 421.785 304.525 L 424.69 304.525 L 424.69 307.43 L 421.785 307.43 L 421.785 304.525 M 425.83 370.955 L 428.735 370.955 L 428.735 373.86 L 425.83 373.86 L 425.83 370.955 M 474.673 361.538 L 477.578 361.538 L 477.578 364.443 L 474.673 364.443 L 474.673 361.538 M 496.413 405.428 L 499.318 405.428 L 499.318 408.333 L 496.413 408.333 L 496.413 405.428 M 513.15 371.22 L 516.055 371.22 L 516.055 374.125 L 513.15 374.125 L 513.15 371.22 M 520.732 380.846 L 523.637 380.846 L 523.637 383.751 L 520.732 383.751 L 520.732 380.846 M 485.039 411.603 L 487.944 411.603 L 487.944 414.508 L 485.039 414.508 L 485.039 411.603 M 448.737 365.267 L 451.642 365.267 L 451.642 368.172 L 448.737 368.172 L 448.737 365.267 M 436.569 416.963 L 439.474 416.963 L 439.474 419.868 L 436.569 419.868 L 436.569 416.963" />
  <path class="h" d=" M 513.341 431.748 L 505.709 443.618 M 496.672 454.878 L 486.231 465.528 M 479.321 474.832 L 479.59 481.926 M 476.823 488.123 L 471.021 493.423 M 467.226 495.602 L 465.438 494.661 M 462.367 492.462 L 458.011 489.007 M 431.978 505.897 L 433.058 511.351 M 428.338 515.077 L 417.816 517.075 M 404.772 520.186 L 389.207 524.411 M 378.454 527.264 L 372.512 528.746 M 363.899 532.601 L 352.614 538.829 M 344.923 540.111 L 340.827 536.446 M 341.697 530.434 L 347.535 522.075 M 346.737 521.079 L 339.529 528.29 M 531.889 397.708 L 539.298 409.073 M 545.742 398.298 L 534.037 394.116 M 553.549 390.226 L 552.246 397.001 M 569.007 379.501 L 559.136 384.393 M 572.6 370.378 L 573.495 374.83 M 547.77 365.034 L 564.025 367.113 M 465.898 269.645 L 475.214 283.127 M 285.051 151.168 L 289.172 149.265 M 270.103 140.223 L 277.968 147.936 M 255.83 136.786 L 262.724 136.507 M 253.189 118.86 L 251.833 131.215 M 234.013 117.151 L 247.249 114.172 M 220.964 98.4742 L 225.251 111.918 M 227.048 67.6877 L 222.288 81.822 M 225.186 50.8542 L 228.014 57.3651 M 224.879 32.7617 L 222.297 40.185 M 229.197 29.1712 L 227.179 29.0904 M 233.623 13.5153 L 231.345 23.9795 M 230.849 8.25985 L 233.458 8.27538 M 216.773 8.06302 L 225.287 8.18907 M 210.476 23.8871 L 211.836 13.2957 M 78.8169 20.7513 L 87.812 14.9965 M 55.9889 15.349 L 62.8343 20.4131 M 49.4237 10.4847 L 51.5187 12.0396 M 31.4982 27.0404 L 42.7502 15.485 M 26.825 37.5357 L 20.3907 40.1367 M 19.3483 39.2825 L 23.6976 34.9729 M 19.4991 44.983 L 25.2538 41.1037 M 10.1554 65.1433 L 14.4663 52.9962 M 15.4552 72.3736 L 10.4851 71.6024 M 10.8107 75.2264 L 15.5637 73.5816 M 28.4994 85.8094 L 15.1225 79.3024 M 29.9808 114.461 L 44.8383 113.727 M 28.5428 131.92 L 19.6125 125.942 M 16.9985 120.922 L 20.7009 116.859 M 236.988 211.68 L 237.874 200.97" />
  <path class="h" d=" M 499.788 451.7 L 497.612 449.775 M 507.06 441.516 L 504.259 440.747 M 479.258 473.176 L 476.429 472.516 M 476.924 488.031 L 474.323 489.325 M 466.719 495.335 L 469.034 493.58 M 463.037 492.994 L 465.685 491.8 M 431.811 505.058 L 428.969 504.459 M 429.94 514.773 L 427.543 513.132 M 397.308 522.212 L 398.634 519.627 M 375.229 528.069 L 375.423 525.17 M 359.08 535.261 L 356.176 535.168 M 344.624 539.843 L 347.307 538.728 M 339.312 528.507 L 336.711 527.214 M 347.71 521.824 L 350.451 522.786 M 540.051 410.227 L 537.153 410.434 M 539.298 395.996 L 541.773 394.475 M 552.021 398.169 L 549.208 397.444 M 563.828 382.068 L 565.319 379.575 M 573.492 374.815 L 571.027 376.352 M 547.794 365.037 L 548.613 367.824 M 465.912 269.665 L 463.009 269.776 M 289.158 149.271 L 289.556 152.149 M 274.23 144.27 L 271.608 145.521 M 263.912 136.458 L 262.82 139.15 M 252.443 125.662 L 250.19 127.495 M 248.593 113.869 L 247.153 116.392 M 221.723 100.855 L 221.949 103.752 M 220.868 86.04 L 220.66 83.1425 M 228.674 58.8847 L 225.929 59.8331 M 222.253 40.314 L 220.086 38.3783 M 227.75 29.1133 L 228.677 26.3601 M 230.998 25.5734 L 228.64 27.2709 M 227.584 8.22306 L 225.704 10.438 M 231.038 8.26098 L 230.376 11.0894 M 211.695 14.3948 L 214.442 13.4495 M 79.7504 20.1541 L 82.647 19.9334 M 54.1425 13.9831 L 52.0081 15.9537 M 51.3664 11.9265 L 49.1194 13.7678 M 37.3543 21.0263 L 39.9108 19.6467 M 21.3368 37.3121 L 24.2198 36.9555 M 18.9838 40.7055 L 20.8947 38.5175 M 18.2407 45.8313 L 17.1539 48.5254 M 12.6252 58.1841 L 14.4608 55.9325 M 13.4162 72.0572 L 15.6928 70.2528 M 13.6138 74.2564 L 16.009 75.9002 M 23.2677 83.2645 L 21.9538 80.6736 M 20.4303 117.156 L 22.1097 119.526 M 30.2464 133.061 L 29.117 130.384 M 39.0275 114.014 L 38.2233 116.805 M 238.042 198.926 L 240.9 198.401" />
</svg>
