<?xml version="1.0"?>
<svg width="955" height="949" version="1.1" xmlns="http://www.w3.org/2000/svg" xmlns:xlink="http://www.w3.org/1999/xlink">
  <defs>
  <style type="text/css">
    <![CDATA[
      .b {stroke:rgb(0,0,0);stroke-width:2.387500;fill:none}
      .c {stroke:rgb(128,128,128);stroke-width:1.193750;stroke-dasharray:4.775000, 4.775000;}
      .h {stroke:rgb(240,200,0);stroke-width:2.387500;}
      .m {stroke:rgb(255,0,0);stroke-width:1.193750;}
      .n {stroke:rgb(128,128,128);stroke-width:1.193750}
      .t {stroke:rgb(0,128,0);stroke-width:1.193750;}
      .tab {stroke:rgb(0,0,255);stroke-width:0.596875;fill:none}
      .v {stroke:rgb(0,0,255);stroke-width:1.193750;}
      .z {stroke:rgb(0,240,200);stroke-width:0.596875;}
    ]]>
  </style>
  </defs>
  <path fill="none" class="b" d=" M 80.0007 81.2503 L 101.822 118.485 L 79.6397 144.897 L 155.098 164.968 L 221.926 128.097 L 211.253 194.304 L 276.032 176.953 L 247.249 106.264 L 246.595 28.1844 L 280.23 20.5443 L 326.089 28.9581 L 370.835 21.7229 L 411.663 8 L 438.833 61.4321 L 379.474 89.4773 L 332.09 87.1954 L 365.637 120.737 L 400.915 176.103 L 351.476 202.429 L 332.895 255.587 L 384.908 277.164 L 430.208 310.108 L 453.105 365.505 L 422.284 381.312 L 375.727 364.6 L 350.789 412.969 L 324.185 385.876 L 333.074 422.792 L 304.793 475.655 L 326.851 452.355 L 366.472 524.599 L 324.48 543.218 L 408.078 528.784 L 442.256 534.41 L 411.387 617.106 L 495.815 591.346 L 505.381 652.94 L 514.57 591.288 L 551.637 613.223 L 590.929 590.623 L 608.693 629.866 L 658.958 643.166 L 695.578 597.992 L 645.905 628.23 L 624.429 580.879 L 657.29 553.025 L 693.573 523.744 L 742.897 563.423 L 694.979 522.056 L 703.162 479.682 L 781.95 511.139 L 806.427 550.008 L 831.237 559.956 L 901.098 565.086 L 871.095 600.521 L 913.173 580.897 L 947.317 636.135 L 890.149 661.976 L 853.021 712.549 L 824.054 678.816 L 829.138 632.707 L 801.759 670.153 L 768.959 623.966 L 690.001 701.25 L 651.684 690.807 L 665.007 728.221 L 774.438 712.989 L 800.027 763.528 L 781.827 804.096 L 843.516 824.384 L 799.159 884.751 L 763.051 926.501 L 726.473 915.922 L 729.89 866.47 L 711.725 809.378 L 717.724 761.34 L 689.041 800.34 L 658.644 851.968 L 611.769 868.087 L 609.009 800.06 L 577.154 860.232 L 548.206 885.617 L 517.243 903.537 L 507.527 862.59 L 472.471 836.952 L 495.276 873.915 L 456.6 890.504 L 427.73 911.634 L 397.222 888.146 L 406.177 851.137 L 432.883 809.994 L 490.794 763.234 L 526.646 789.148 L 573.547 763.052 L 546.571 722.863 L 565.47 670.483 L 527.053 710.795 L 526.031 759.188 L 475.308 741.64 L 450.283 705.162 L 379.349 727.712 L 332.862 692.484 L 361.461 743.319 L 318.234 766.5 L 275.725 731.288 L 284.864 683.383 L 263.834 727.385 L 232.353 659.409 L 231.583 589.365 L 243.864 565.624 L 267.17 578.675 L 317.986 613.142 L 291.756 557.624 L 267.712 569.26 L 223.586 499.678 L 248.665 478.777 L 268.086 446.008 L 281.878 363.239 L 222.437 305.1 L 194.164 383.293 L 113.335 360.761 L 75.8485 367.519 L 65.6714 336.5 L 131.014 311.296 L 115.382 229.867 L 55.6217 287.345 L 8 235.993 L 23.0955 207.681 L 8.36072 149.568 L 35.2032 102.229 L 80.0007 81.2503" />
  <path class="c" d=" M 276.032 176.953 L 351.476 202.429 M 351.476 202.429 L 276.032 176.953 M 276.032 176.953 L 332.09 87.1954 M 332.09 87.1954 L 247.249 106.264 M 247.249 106.264 L 280.23 20.5443 M 280.23 20.5443 L 247.249 106.264 M 247.249 106.264 L 332.09 87.1954 M 332.09 87.1954 L 276.032 176.953 M 276.032 176.953 L 365.637 120.737 M 365.637 120.737 L 351.476 202.429 M 351.476 202.429 L 365.637 120.737 M 365.637 120.737 L 276.032 176.953 M 276.032 176.953 L 332.895 255.587 M 332.895 255.587 L 211.253 194.304 M 211.253 194.304 L 332.895 255.587 M 332.895 255.587 L 222.437 305.1 M 222.437 305.1 L 332.895 255.587 M 332.895 255.587 L 324.185 385.876 M 324.185 385.876 L 332.895 255.587 M 332.895 255.587 L 281.878 363.239 M 281.878 363.239 L 332.895 255.587 M 332.895 255.587 L 375.727 364.6 M 375.727 364.6 L 384.908 277.164 M 384.908 277.164 L 375.727 364.6 M 375.727 364.6 L 324.185 385.876 M 324.185 385.876 L 375.727 364.6 M 375.727 364.6 L 430.208 310.108 M 430.208 310.108 L 375.727 364.6 M 375.727 364.6 L 332.895 255.587 M 332.895 255.587 L 276.032 176.953 M 211.253 194.304 L 222.437 305.1 M 222.437 305.1 L 211.253 194.304 M 211.253 194.304 L 155.098 164.968 M 155.098 164.968 L 211.253 194.304 M 211.253 194.304 L 115.382 229.867 M 115.382 229.867 L 23.0955 207.681 M 23.0955 207.681 L 79.6397 144.897 M 79.6397 144.897 L 23.0955 207.681 M 23.0955 207.681 L 115.382 229.867 M 115.382 229.867 L 222.437 305.1 M 222.437 305.1 L 115.382 229.867 M 115.382 229.867 L 8 235.993 M 8 235.993 L 115.382 229.867 M 115.382 229.867 L 155.098 164.968 M 155.098 164.968 L 115.382 229.867 M 115.382 229.867 L 79.6397 144.897 M 79.6397 144.897 L 8.36072 149.568 M 8.36072 149.568 L 79.6397 144.897 M 79.6397 144.897 L 35.2032 102.229 M 35.2032 102.229 L 79.6397 144.897 M 79.6397 144.897 L 115.382 229.867 M 115.382 229.867 L 211.253 194.304 M 247.249 106.264 L 326.089 28.9581 M 326.089 28.9581 L 247.249 106.264 M 332.09 87.1954 L 370.835 21.7229 M 370.835 21.7229 L 438.833 61.4321 M 438.833 61.4321 L 370.835 21.7229 M 370.835 21.7229 L 379.474 89.4773 M 379.474 89.4773 L 370.835 21.7229 M 370.835 21.7229 L 332.09 87.1954 M 332.09 87.1954 L 326.089 28.9581 M 326.089 28.9581 L 332.09 87.1954 M 101.822 118.485 L 35.2032 102.229 M 35.2032 102.229 L 101.822 118.485 M 131.014 311.296 L 113.335 360.761 M 113.335 360.761 L 131.014 311.296 M 131.014 311.296 L 75.8485 367.519 M 75.8485 367.519 L 131.014 311.296 M 131.014 311.296 L 222.437 305.1 M 222.437 305.1 L 113.335 360.761 M 113.335 360.761 L 222.437 305.1 M 222.437 305.1 L 131.014 311.296 M 281.878 363.239 L 324.185 385.876 M 324.185 385.876 L 281.878 363.239 M 324.185 385.876 L 268.086 446.008 M 268.086 446.008 L 333.074 422.792 M 333.074 422.792 L 268.086 446.008 M 268.086 446.008 L 304.793 475.655 M 304.793 475.655 L 324.48 543.218 M 324.48 543.218 L 291.756 557.624 M 291.756 557.624 L 324.48 543.218 M 324.48 543.218 L 411.387 617.106 M 411.387 617.106 L 408.078 528.784 M 408.078 528.784 L 411.387 617.106 M 411.387 617.106 L 324.48 543.218 M 324.48 543.218 L 304.793 475.655 M 304.793 475.655 L 291.756 557.624 M 291.756 557.624 L 304.793 475.655 M 304.793 475.655 L 366.472 524.599 M 366.472 524.599 L 304.793 475.655 M 304.793 475.655 L 268.086 446.008 M 268.086 446.008 L 324.185 385.876 M 268.086 446.008 L 291.756 557.624 M 291.756 557.624 L 248.665 478.777 M 248.665 478.777 L 267.712 569.26 M 267.712 569.26 L 248.665 478.777 M 248.665 478.777 L 291.756 557.624 M 291.756 557.624 L 268.086 446.008 M 324.48 543.218 L 317.986 613.142 M 317.986 613.142 L 324.48 543.218 M 267.17 578.675 L 231.583 589.365 M 231.583 589.365 L 267.17 578.675 M 231.583 589.365 L 317.986 613.142 M 317.986 613.142 L 231.583 589.365 M 232.353 659.409 L 317.986 613.142 M 317.986 613.142 L 284.864 683.383 M 284.864 683.383 L 332.862 692.484 M 332.862 692.484 L 275.725 731.288 M 275.725 731.288 L 332.862 692.484 M 332.862 692.484 L 284.864 683.383 M 284.864 683.383 L 317.986 613.142 M 317.986 613.142 L 232.353 659.409 M 232.353 659.409 L 284.864 683.383 M 284.864 683.383 L 232.353 659.409 M 317.986 613.142 L 332.862 692.484 M 332.862 692.484 L 318.234 766.5 M 318.234 766.5 L 332.862 692.484 M 332.862 692.484 L 317.986 613.142 M 317.986 613.142 L 411.387 617.106 M 411.387 617.106 L 450.283 705.162 M 450.283 705.162 L 411.387 617.106 M 411.387 617.106 L 379.349 727.712 M 379.349 727.712 L 411.387 617.106 M 411.387 617.106 L 505.381 652.94 M 505.381 652.94 L 565.47 670.483 M 565.47 670.483 L 505.381 652.94 M 505.381 652.94 L 450.283 705.162 M 450.283 705.162 L 527.053 710.795 M 527.053 710.795 L 475.308 741.64 M 475.308 741.64 L 527.053 710.795 M 527.053 710.795 L 450.283 705.162 M 450.283 705.162 L 505.381 652.94 M 505.381 652.94 L 527.053 710.795 M 527.053 710.795 L 505.381 652.94 M 505.381 652.94 L 551.637 613.223 M 551.637 613.223 L 608.693 629.866 M 608.693 629.866 L 651.684 690.807 M 651.684 690.807 L 546.571 722.863 M 546.571 722.863 L 651.684 690.807 M 651.684 690.807 L 565.47 670.483 M 565.47 670.483 L 651.684 690.807 M 651.684 690.807 L 608.693 629.866 M 608.693 629.866 L 551.637 613.223 M 551.637 613.223 L 565.47 670.483 M 565.47 670.483 L 608.693 629.866 M 608.693 629.866 L 565.47 670.483 M 565.47 670.483 L 551.637 613.223 M 551.637 613.223 L 505.381 652.94 M 505.381 652.94 L 411.387 617.106 M 411.387 617.106 L 317.986 613.142 M 332.862 692.484 L 411.387 617.106 M 411.387 617.106 L 332.862 692.484 M 432.883 809.994 L 456.6 890.504 M 456.6 890.504 L 432.883 809.994 M 432.883 809.994 L 472.471 836.952 M 472.471 836.952 L 432.883 809.994 M 472.471 836.952 L 456.6 890.504 M 456.6 890.504 L 397.222 888.146 M 397.222 888.146 L 456.6 890.504 M 456.6 890.504 L 472.471 836.952 M 472.471 836.952 L 490.794 763.234 M 490.794 763.234 L 507.527 862.59 M 507.527 862.59 L 526.646 789.148 M 526.646 789.148 L 507.527 862.59 M 507.527 862.59 L 577.154 860.232 M 577.154 860.232 L 507.527 862.59 M 507.527 862.59 L 490.794 763.234 M 490.794 763.234 L 472.471 836.952 M 507.527 862.59 L 548.206 885.617 M 548.206 885.617 L 507.527 862.59 M 456.6 890.504 L 406.177 851.137 M 406.177 851.137 L 456.6 890.504 M 526.646 789.148 L 609.009 800.06 M 609.009 800.06 L 658.644 851.968 M 658.644 851.968 L 609.009 800.06 M 609.009 800.06 L 665.007 728.221 M 665.007 728.221 L 717.724 761.34 M 717.724 761.34 L 781.827 804.096 M 781.827 804.096 L 729.89 866.47 M 729.89 866.47 L 781.827 804.096 M 781.827 804.096 L 711.725 809.378 M 711.725 809.378 L 781.827 804.096 M 781.827 804.096 L 799.159 884.751 M 799.159 884.751 L 781.827 804.096 M 781.827 804.096 L 717.724 761.34 M 717.724 761.34 L 800.027 763.528 M 800.027 763.528 L 717.724 761.34 M 717.724 761.34 L 774.438 712.989 M 774.438 712.989 L 717.724 761.34 M 717.724 761.34 L 665.007 728.221 M 665.007 728.221 L 609.009 800.06 M 609.009 800.06 L 689.041 800.34 M 689.041 800.34 L 665.007 728.221 M 665.007 728.221 L 573.547 763.052 M 573.547 763.052 L 665.007 728.221 M 665.007 728.221 L 546.571 722.863 M 546.571 722.863 L 665.007 728.221 M 665.007 728.221 L 689.041 800.34 M 689.041 800.34 L 609.009 800.06 M 609.009 800.06 L 573.547 763.052 M 573.547 763.052 L 609.009 800.06 M 609.009 800.06 L 526.646 789.148 M 526.646 789.148 L 577.154 860.232 M 577.154 860.232 L 526.646 789.148 M 651.684 690.807 L 658.958 643.166 M 658.958 643.166 L 690.001 701.25 M 690.001 701.25 L 658.958 643.166 M 658.958 643.166 L 651.684 690.807 M 690.001 701.25 L 695.578 597.992 M 695.578 597.992 L 768.959 623.966 M 768.959 623.966 L 695.578 597.992 M 695.578 597.992 L 742.897 563.423 M 742.897 563.423 L 781.95 511.139 M 781.95 511.139 L 742.897 563.423 M 742.897 563.423 L 695.578 597.992 M 695.578 597.992 L 624.429 580.879 M 624.429 580.879 L 695.578 597.992 M 695.578 597.992 L 657.29 553.025 M 657.29 553.025 L 695.578 597.992 M 695.578 597.992 L 690.001 701.25 M 695.578 597.992 L 693.573 523.744 M 693.573 523.744 L 695.578 597.992 M 742.897 563.423 L 806.427 550.008 M 806.427 550.008 L 742.897 563.423 M 742.897 563.423 L 768.959 623.966 M 768.959 623.966 L 829.138 632.707 M 829.138 632.707 L 871.095 600.521 M 871.095 600.521 L 829.138 632.707 M 829.138 632.707 L 768.959 623.966 M 768.959 623.966 L 742.897 563.423 M 742.897 563.423 L 829.138 632.707 M 829.138 632.707 L 831.237 559.956 M 831.237 559.956 L 871.095 600.521 M 871.095 600.521 L 831.237 559.956 M 831.237 559.956 L 829.138 632.707 M 829.138 632.707 L 890.149 661.976 M 890.149 661.976 L 913.173 580.897 M 913.173 580.897 L 890.149 661.976 M 890.149 661.976 L 871.095 600.521 M 871.095 600.521 L 890.149 661.976 M 890.149 661.976 L 824.054 678.816 M 824.054 678.816 L 890.149 661.976 M 890.149 661.976 L 829.138 632.707 M 829.138 632.707 L 806.427 550.008 M 806.427 550.008 L 829.138 632.707 M 829.138 632.707 L 742.897 563.423 M 694.979 522.056 L 781.95 511.139 M 781.95 511.139 L 694.979 522.056 M 422.284 381.312 L 430.208 310.108 M 430.208 310.108 L 422.284 381.312 M 729.89 866.47 L 799.159 884.751 M 799.159 884.751 L 729.89 866.47 M 729.89 866.47 L 763.051 926.501 M 763.051 926.501 L 729.89 866.47" />
  <path class="h" d=" M 294.893 183.322 L 332.615 196.06 M 332.615 196.06 L 294.893 183.322 M 302.485 240.266 L 241.664 209.625 M 241.664 209.625 L 302.485 240.266 M 382.613 299.023 L 378.022 342.741 M 378.022 342.741 L 382.613 299.023 M 428.227 327.909 L 424.265 363.511 M 424.265 363.511 L 428.227 327.909 M 295.617 468.244 L 277.263 453.42 M 277.263 453.42 L 295.617 468.244 M 301.534 496.148 L 295.015 537.132 M 295.015 537.132 L 301.534 496.148 M 316.299 546.82 L 299.937 554.023 M 299.937 554.023 L 316.299 546.82 M 576.18 724.203 L 635.398 726.882 M 635.398 726.882 L 576.18 724.203 M 539.273 806.919 L 564.527 842.461 M 564.527 842.461 L 539.273 806.919 M 524.934 862 L 559.748 860.821 M 559.748 860.821 L 524.934 862 M 441.755 889.915 L 412.066 888.736 M 412.066 888.736 L 441.755 889.915 M 691.395 675.436 L 694.184 623.807 M 694.184 623.807 L 691.395 675.436 M 762.443 608.83 L 749.412 578.559 M 749.412 578.559 L 762.443 608.83 M 840.578 674.606 L 873.625 666.186 M 873.625 666.186 L 840.578 674.606 M 255.494 84.8339 L 271.984 41.9742 M 271.984 41.9742 L 255.494 84.8339 M 85.1675 114.421 L 51.858 106.293 M 51.858 106.293 L 85.1675 114.421 M 68.5306 134.23 L 46.3123 112.896 M 46.3123 112.896 L 68.5306 134.23 M 46.1671 213.228 L 92.3102 224.32 M 92.3102 224.32 L 46.1671 213.228" />
  <path class="z" fill="none" d=" M 155.098 164.968 L 221.926 128.097 L 211.253 194.304 L 276.032 176.953 L 247.249 106.264 M 370.835 21.7229 L 411.663 8 L 438.833 61.4321 L 379.474 89.4773 L 332.09 87.1954 L 365.637 120.737 L 400.915 176.103 L 351.476 202.429 L 332.895 255.587 L 384.908 277.164 L 430.208 310.108 L 453.105 365.505 L 422.284 381.312 M 350.789 412.969 L 324.185 385.876 L 333.074 422.792 M 366.472 524.599 L 324.48 543.218 L 408.078 528.784 L 442.256 534.41 L 411.387 617.106 L 495.815 591.346 L 505.381 652.94 L 514.57 591.288 L 551.637 613.223 M 590.929 590.623 L 608.693 629.866 L 658.958 643.166 L 695.578 597.992 L 645.905 628.23 L 624.429 580.879 L 657.29 553.025 M 693.573 523.744 L 742.897 563.423 L 694.979 522.056 M 703.162 479.682 L 781.95 511.139 L 806.427 550.008 M 947.317 636.135 L 890.149 661.976 L 853.021 712.549 L 824.054 678.816 L 829.138 632.707 L 801.759 670.153 L 768.959 623.966 L 690.001 701.25 L 651.684 690.807 L 665.007 728.221 L 774.438 712.989 L 800.027 763.528 L 781.827 804.096 M 726.473 915.922 L 729.89 866.47 L 711.725 809.378 L 717.724 761.34 L 689.041 800.34 L 658.644 851.968 L 611.769 868.087 L 609.009 800.06 L 577.154 860.232 M 517.243 903.537 L 507.527 862.59 L 472.471 836.952 L 495.276 873.915 L 456.6 890.504 M 406.177 851.137 L 432.883 809.994 L 490.794 763.234 L 526.646 789.148 L 573.547 763.052 L 546.571 722.863 L 565.47 670.483 L 527.053 710.795 L 526.031 759.188 L 475.308 741.64 L 450.283 705.162 L 379.349 727.712 L 332.862 692.484 L 361.461 743.319 L 318.234 766.5 M 243.864 565.624 L 267.17 578.675 L 317.986 613.142 L 291.756 557.624 L 267.712 569.26 M 268.086 446.008 L 281.878 363.239 L 222.437 305.1 L 194.164 383.293 L 113.335 360.761 M 131.014 311.296 L 115.382 229.867 L 55.6217 287.345" />
  <path class="z" d=" M 208.866 191.917 L 213.641 191.917 L 213.641 196.692 L 208.866 196.692 L 208.866 191.917 M 329.702 84.8079 L 334.477 84.8079 L 334.477 89.5829 L 329.702 89.5829 L 329.702 84.8079 M 330.508 253.199 L 335.283 253.199 L 335.283 257.974 L 330.508 257.974 L 330.508 253.199 M 321.797 383.488 L 326.572 383.488 L 326.572 388.263 L 321.797 388.263 L 321.797 383.488 M 408.999 614.719 L 413.774 614.719 L 413.774 619.494 L 408.999 619.494 L 408.999 614.719 M 502.993 650.552 L 507.768 650.552 L 507.768 655.327 L 502.993 655.327 L 502.993 650.552 M 693.191 595.605 L 697.966 595.605 L 697.966 600.38 L 693.191 600.38 L 693.191 595.605 M 740.509 561.035 L 745.284 561.035 L 745.284 565.81 L 740.509 565.81 L 740.509 561.035 M 887.762 659.589 L 892.537 659.589 L 892.537 664.364 L 887.762 664.364 L 887.762 659.589 M 826.751 630.32 L 831.526 630.32 L 831.526 635.095 L 826.751 635.095 L 826.751 630.32 M 649.296 688.419 L 654.071 688.419 L 654.071 693.194 L 649.296 693.194 L 649.296 688.419 M 715.336 758.952 L 720.111 758.952 L 720.111 763.727 L 715.336 763.727 L 715.336 758.952 M 606.621 797.673 L 611.396 797.673 L 611.396 802.448 L 606.621 802.448 L 606.621 797.673 M 470.083 834.565 L 474.858 834.565 L 474.858 839.34 L 470.083 839.34 L 470.083 834.565 M 563.083 668.095 L 567.858 668.095 L 567.858 672.87 L 563.083 672.87 L 563.083 668.095 M 330.475 690.097 L 335.25 690.097 L 335.25 694.872 L 330.475 694.872 L 330.475 690.097 M 315.599 610.755 L 320.374 610.755 L 320.374 615.53 L 315.599 615.53 L 315.599 610.755 M 220.049 302.713 L 224.824 302.713 L 224.824 307.488 L 220.049 307.488 L 220.049 302.713 M 112.994 227.479 L 117.769 227.479 L 117.769 232.254 L 112.994 232.254 L 112.994 227.479" />
  <path class="h" d=" M 85.4561 90.5589 L 96.3669 109.176 M 96.2766 125.088 L 85.1854 138.294 M 98.5043 149.915 L 136.234 159.95 M 46.4026 96.9845 L 68.8013 86.4951 M 15.0713 137.733 L 28.4926 114.064 M 19.4118 193.153 L 12.0444 164.096 M 11.7739 228.915 L 19.3216 214.759 M 43.7163 274.507 L 19.9054 248.831 M 82.007 330.199 L 114.678 317.597 M 103.964 362.451 L 85.2202 365.83 M 73.3043 359.764 L 68.2157 344.255 M 229.856 494.453 L 242.395 484.002 M 253.52 470.585 L 263.231 454.201 M 310.308 469.83 L 321.336 458.18 M 336.756 470.416 L 356.567 506.538 M 326.004 436.008 L 311.864 462.44 M 369.492 376.692 L 357.024 400.877 M 410.645 377.134 L 387.366 368.778 M 256.681 551.865 L 234.617 517.073 M 234.654 583.43 L 240.794 571.56 M 232.16 641.898 L 231.776 606.876 M 279.606 694.383 L 269.091 716.384 M 278.01 719.311 L 282.579 695.359 M 255.963 710.391 L 240.223 676.403 M 307.606 757.697 L 286.352 740.091 M 399.461 878.894 L 403.938 860.389 M 420.103 905.762 L 404.849 894.018 M 449.382 895.787 L 434.947 906.352 M 540.466 890.097 L 524.984 899.057 M 569.917 866.578 L 555.443 879.27 M 753.907 923.856 L 735.618 918.566 M 790.132 895.188 L 772.078 916.063 M 832.427 839.475 L 810.248 869.659 M 797.249 809.168 L 828.094 819.312 M 881.615 595.615 L 902.654 585.803 M 893.597 573.944 L 878.596 591.662 M 848.702 561.239 L 883.632 563.803 M 921.709 594.706 L 938.781 622.325 M 812.63 552.495 L 825.035 557.469 M 697.025 511.463 L 701.117 490.276 M 666.361 545.704 L 684.502 531.064 M 561.46 607.573 L 581.106 596.273 M 247.085 86.7439 L 246.758 47.7042 M 255.003 26.2744 L 271.821 22.4543 M 291.695 22.6477 L 314.624 26.8546 M 337.275 27.1493 L 359.648 23.5317" />
  <path class="h" d=" M 82.1828 84.9738 L 77.7006 86.6201 M 42.956 98.5985 L 47.4799 100.127 M 13.027 141.339 L 17.7952 141.593 M 15.5774 178.03 L 19.8187 175.837 M 15.2247 222.443 L 19.9867 222.796 M 47.8217 278.934 L 51.6853 276.128 M 67.6988 342.679 L 71.9771 340.559 M 93.6456 364.311 L 96.3966 360.408 M 120.311 315.424 L 117.211 319.056 M 89.6987 147.572 L 91.1212 152.131 M 99.5865 121.147 L 95.0052 119.801 M 247.161 95.8554 L 249.081 91.4833 M 276.84 21.3143 L 275.269 25.8236 M 291.296 22.5747 L 289.072 26.8001 M 343.615 26.1242 L 342.729 30.8164 M 371.392 373.008 L 366.785 374.264 M 414.227 378.42 L 415.314 373.77 M 319.223 448.683 L 314.454 448.434 M 316.294 463.507 L 319.325 467.197 M 345.217 485.844 L 340.587 484.677 M 258.866 461.566 L 260.412 466.083 M 243.669 482.941 L 244.95 487.541 M 244.04 531.932 L 244.454 527.175 M 240.345 572.427 L 244.996 573.51 M 232.172 642.951 L 236.683 641.384 M 246.681 690.347 L 251.378 689.49 M 277.744 698.28 L 274.117 695.174 M 278.819 715.069 L 283.225 713.228 M 312.254 761.547 L 313.619 756.971 M 399.786 877.548 L 404.442 878.61 M 400.734 890.851 L 405.509 890.821 M 447.884 896.883 L 443.179 896.072 M 538.859 891.027 L 535.323 887.818 M 573.822 863.155 L 569.047 863.114 M 736.948 918.951 L 736.311 914.219 M 794.08 890.624 L 789.611 888.942 M 819.347 857.276 L 816.594 853.375 M 809.313 813.135 L 808.642 817.863 M 877.601 597.487 L 878.513 602.174 M 875.734 595.042 L 871.984 592.086 M 884.683 563.88 L 883.022 568.357 M 932.104 611.523 L 929.051 615.195 M 813.536 552.859 L 814.452 557.545 M 695.797 517.819 L 700.558 517.45 M 666.045 545.959 L 668.402 550.111 M 567.027 604.371 L 571.1 606.863" />
</svg>
