<?xml version="1.0"?>
<svg width="278" height="292" version="1.1" xmlns="http://www.w3.org/2000/svg" xmlns:xlink="http://www.w3.org/1999/xlink">
  <defs>
  <style type="text/css">
    <![CDATA[
      .b {stroke:rgb(0,0,0);stroke-width:0.730000;fill:none}
      .c {stroke:rgb(128,128,128);stroke-width:0.365000;stroke-dasharray:1.390000, 1.390000;}
      .h {stroke:rgb(240,200,0);stroke-width:0.730000;}
      .m {stroke:rgb(255,0,0);stroke-width:0.365000;}
      .n {stroke:rgb(128,128,128);stroke-width:0.365000}
      .t {stroke:rgb(0,128,0);stroke-width:0.365000;}
      .tab {stroke:rgb(0,0,255);stroke-width:0.182500;fill:none}
      .v {stroke:rgb(0,0,255);stroke-width:0.365000;}
      .z {stroke:rgb(0,240,200);stroke-width:0.182500;}
    ]]>
  </style>
  </defs>
  <path fill="none" class="b" d=" M 39.0657 221.452 L 47.9823 216.797 L 38.7371 209.508 L 34.1623 218.085 L 29.1177 204.9 L 34.7005 202.754 L 38.2568 197.945 L 41.056 199.871 L 41.2689 190.407 L 32.0769 188.143 L 32.3012 184.752 L 32.4434 170.636 L 40.4059 172.161 L 40.8246 178.632 L 50.8333 173.193 L 52.6583 179.705 L 68.9729 162.946 L 80.9447 154.548 L 67.2886 159.779 L 45.1537 167.333 L 41.6391 161.556 L 45.7939 151.403 L 42.4572 134.197 L 55.2291 131.429 L 60.7433 138.659 L 62.0667 129.663 L 78.1222 133.424 L 76.8613 142.817 L 79.6365 133.756 L 96.9745 128.426 L 78.921 130.18 L 91.3643 120.736 L 93.2406 105.112 L 88.5804 120.143 L 73.3044 123.407 L 63.8329 109.908 L 76.5503 104.382 L 62.7435 105.669 L 70.9185 92.3107 L 59.0734 102.556 L 58.0989 89.5236 L 43.6472 99.4392 L 32.6936 98.8338 L 22.0067 94.8904 L 27.7888 91.9538 L 24.7445 84.4399 L 15.053 83.693 L 23.4517 74.1383 L 36.2947 79.3928 L 49.7121 85.827 L 54.6015 79.8542 L 54.6295 69.4999 L 74.6401 82.301 L 85.0063 96.8522 L 77.6997 80.5485 L 59.9675 64.7414 L 78.4589 56.3221 L 89.4077 63.7931 L 103.57 74.7639 L 90.7371 76.5067 L 103.625 75.2281 L 105.979 85.175 L 105.77 74.9555 L 101.637 57.5244 L 110.188 52.3615 L 114.889 64.95 L 131.277 69.3777 L 122.728 85.1768 L 138.797 77.1466 L 149.501 73.2109 L 138.417 70.5275 L 137.2 53.5951 L 150.024 49.5776 L 147.416 39.9353 L 160.132 43.6749 L 165.242 24.0099 L 159.489 15.4006 L 161.683 8 L 181.197 17.9781 L 178.349 28.1183 L 181.324 38.5991 L 170.397 38.2859 L 180.901 41.3124 L 184.972 48.8823 L 177.337 56.2172 L 185.604 49.6029 L 185.904 58.7785 L 168.163 65.3437 L 159.999 66.5689 L 167.867 69.0691 L 177.814 86.3307 L 168.275 82.3016 L 176.706 88.3131 L 176.745 101.918 L 189.055 96.1248 L 200.258 79.6504 L 219.098 81.3428 L 228.244 80.5444 L 226.479 72.1331 L 234.637 77.5773 L 244.337 76.1266 L 250.804 84.8947 L 248.228 95.1071 L 240.418 92.7862 L 234.86 95.7208 L 228.716 101.458 L 235.863 97.0325 L 241.859 95.15 L 239.581 116.987 L 232.767 120.423 L 220.44 111.534 L 230.997 122.466 L 220.859 127.241 L 226.063 137.165 L 230.374 143.462 L 249.691 133.027 L 253.568 140.193 L 270.317 154.33 L 255.916 150.582 L 242.115 152.025 L 249.513 142.998 L 238.009 148.836 L 230.801 169.946 L 220.423 153.369 L 227.661 151.904 L 220.404 153.273 L 218.22 133.926 L 214.372 127.383 L 209.698 115.36 L 204.437 110.903 L 209.429 98.2022 L 203.96 91.2189 L 205.656 99.9249 L 193.05 105.153 L 186.032 109.403 L 193.971 111.475 L 193.056 118.309 L 188.242 130.276 L 177.053 115.488 L 166.379 119.693 L 170.381 98.4869 L 156.648 92.6726 L 133.971 87.1812 L 126.403 93.6823 L 113.926 93.1179 L 125.048 98.8016 L 114.239 107.318 L 126.91 101.95 L 133.362 109.559 L 126.209 131.769 L 111.011 126.657 L 124.599 135.17 L 114.69 146.317 L 96.4504 157.85 L 92.3804 143.846 L 97.2361 143.58 L 92.379 143.818 L 95.5078 158.062 L 106.193 162.238 L 94.5515 176.672 L 86.1207 170.392 L 92.6141 178.66 L 85.3278 180.789 L 67.1584 187.787 L 75.9976 172.614 L 62.2725 183.567 L 47.686 196.595 L 60.8651 214.593 L 52.3077 224.246 L 41.554 232.265 L 48.0906 243.98 L 37.8984 249.665 L 27.6518 257.204 L 30.6853 268.579 L 21.6425 253.623 L 8 242.7 L 9.6782 232.782 L 15.9615 228.784 L 23.56 245.393 L 30.005 242.151 L 22.8308 241.39 L 34.2771 227.156 L 39.0657 221.452" />
  <path class="c" d=" M 230.801 169.946 L 227.661 151.904 M 227.661 151.904 L 230.801 169.946 M 227.661 151.904 L 230.374 143.462 M 230.374 143.462 L 238.009 148.836 M 238.009 148.836 L 230.374 143.462 M 230.374 143.462 L 227.661 151.904 M 227.661 151.904 L 238.009 148.836 M 238.009 148.836 L 227.661 151.904 M 220.404 153.273 L 226.063 137.165 M 226.063 137.165 L 220.404 153.273 M 220.404 153.273 L 230.374 143.462 M 230.374 143.462 L 249.513 142.998 M 249.513 142.998 L 249.691 133.027 M 249.691 133.027 L 249.513 142.998 M 249.513 142.998 L 255.916 150.582 M 255.916 150.582 L 249.513 142.998 M 249.513 142.998 L 253.568 140.193 M 253.568 140.193 L 249.513 142.998 M 249.513 142.998 L 230.374 143.462 M 230.374 143.462 L 220.404 153.273 M 226.063 137.165 L 218.22 133.926 M 218.22 133.926 L 220.859 127.241 M 220.859 127.241 L 220.44 111.534 M 220.44 111.534 L 220.859 127.241 M 220.859 127.241 L 209.698 115.36 M 209.698 115.36 L 220.859 127.241 M 220.859 127.241 L 218.22 133.926 M 218.22 133.926 L 226.063 137.165 M 220.859 127.241 L 214.372 127.383 M 214.372 127.383 L 220.859 127.241 M 232.767 120.423 L 235.863 97.0325 M 235.863 97.0325 L 239.581 116.987 M 239.581 116.987 L 235.863 97.0325 M 235.863 97.0325 L 232.767 120.423 M 232.767 120.423 L 228.716 101.458 M 228.716 101.458 L 220.44 111.534 M 220.44 111.534 L 209.429 98.2022 M 209.429 98.2022 L 220.44 111.534 M 220.44 111.534 L 209.698 115.36 M 209.698 115.36 L 220.44 111.534 M 220.44 111.534 L 228.716 101.458 M 228.716 101.458 L 228.244 80.5444 M 228.244 80.5444 L 228.716 101.458 M 228.716 101.458 L 232.767 120.423 M 220.44 111.534 L 219.098 81.3428 M 219.098 81.3428 L 203.96 91.2189 M 203.96 91.2189 L 200.258 79.6504 M 200.258 79.6504 L 203.96 91.2189 M 203.96 91.2189 L 219.098 81.3428 M 219.098 81.3428 L 209.429 98.2022 M 209.429 98.2022 L 219.098 81.3428 M 219.098 81.3428 L 220.44 111.534 M 209.698 115.36 L 209.429 98.2022 M 209.429 98.2022 L 209.698 115.36 M 193.056 118.309 L 186.032 109.403 M 186.032 109.403 L 189.055 96.1248 M 189.055 96.1248 L 203.96 91.2189 M 203.96 91.2189 L 189.055 96.1248 M 189.055 96.1248 L 186.032 109.403 M 186.032 109.403 L 193.056 118.309 M 186.032 109.403 L 188.242 130.276 M 188.242 130.276 L 186.032 109.403 M 186.032 109.403 L 176.745 101.918 M 176.745 101.918 L 166.379 119.693 M 166.379 119.693 L 176.745 101.918 M 176.745 101.918 L 186.032 109.403 M 186.032 109.403 L 177.053 115.488 M 177.053 115.488 L 186.032 109.403 M 193.05 105.153 L 189.055 96.1248 M 189.055 96.1248 L 193.05 105.153 M 193.05 105.153 L 203.96 91.2189 M 203.96 91.2189 L 193.05 105.153 M 176.745 101.918 L 177.053 115.488 M 177.053 115.488 L 176.745 101.918 M 176.745 101.918 L 170.381 98.4869 M 170.381 98.4869 L 168.275 82.3016 M 168.275 82.3016 L 149.501 73.2109 M 149.501 73.2109 L 137.2 53.5951 M 137.2 53.5951 L 149.501 73.2109 M 149.501 73.2109 L 159.999 66.5689 M 159.999 66.5689 L 149.501 73.2109 M 149.501 73.2109 L 168.275 82.3016 M 168.275 82.3016 L 167.867 69.0691 M 167.867 69.0691 L 168.275 82.3016 M 168.275 82.3016 L 170.381 98.4869 M 170.381 98.4869 L 176.745 101.918 M 170.381 98.4869 L 176.706 88.3131 M 176.706 88.3131 L 170.381 98.4869 M 156.648 92.6726 L 168.275 82.3016 M 168.275 82.3016 L 133.971 87.1812 M 133.971 87.1812 L 122.728 85.1768 M 122.728 85.1768 L 105.77 74.9555 M 105.77 74.9555 L 122.728 85.1768 M 122.728 85.1768 L 126.403 93.6823 M 126.403 93.6823 L 122.728 85.1768 M 122.728 85.1768 L 133.971 87.1812 M 133.971 87.1812 L 138.797 77.1466 M 138.797 77.1466 L 133.971 87.1812 M 133.971 87.1812 L 168.275 82.3016 M 168.275 82.3016 L 159.999 66.5689 M 159.999 66.5689 L 137.2 53.5951 M 137.2 53.5951 L 159.999 66.5689 M 159.999 66.5689 L 160.132 43.6749 M 160.132 43.6749 L 168.163 65.3437 M 168.163 65.3437 L 160.132 43.6749 M 160.132 43.6749 L 170.397 38.2859 M 170.397 38.2859 L 160.132 43.6749 M 160.132 43.6749 L 177.337 56.2172 M 177.337 56.2172 L 185.904 58.7785 M 185.904 58.7785 L 177.337 56.2172 M 177.337 56.2172 L 160.132 43.6749 M 160.132 43.6749 L 159.999 66.5689 M 159.999 66.5689 L 168.275 82.3016 M 168.275 82.3016 L 156.648 92.6726 M 149.501 73.2109 L 133.971 87.1812 M 133.971 87.1812 L 149.501 73.2109 M 159.999 66.5689 L 150.024 49.5776 M 150.024 49.5776 L 159.999 66.5689 M 168.163 65.3437 L 177.337 56.2172 M 177.337 56.2172 L 170.397 38.2859 M 170.397 38.2859 L 184.972 48.8823 M 184.972 48.8823 L 170.397 38.2859 M 170.397 38.2859 L 165.242 24.0099 M 165.242 24.0099 L 181.324 38.5991 M 181.324 38.5991 L 165.242 24.0099 M 165.242 24.0099 L 178.349 28.1183 M 178.349 28.1183 L 165.242 24.0099 M 165.242 24.0099 L 181.197 17.9781 M 181.197 17.9781 L 165.242 24.0099 M 165.242 24.0099 L 170.397 38.2859 M 170.397 38.2859 L 177.337 56.2172 M 177.337 56.2172 L 168.163 65.3437 M 160.132 43.6749 L 150.024 49.5776 M 150.024 49.5776 L 160.132 43.6749 M 159.489 15.4006 L 181.197 17.9781 M 181.197 17.9781 L 159.489 15.4006 M 114.889 64.95 L 105.77 74.9555 M 105.77 74.9555 L 114.889 64.95 M 114.889 64.95 L 101.637 57.5244 M 101.637 57.5244 L 114.889 64.95 M 114.889 64.95 L 122.728 85.1768 M 122.728 85.1768 L 113.926 93.1179 M 113.926 93.1179 L 105.979 85.175 M 105.979 85.175 L 113.926 93.1179 M 113.926 93.1179 L 122.728 85.1768 M 122.728 85.1768 L 114.889 64.95 M 105.77 74.9555 L 113.926 93.1179 M 113.926 93.1179 L 114.239 107.318 M 114.239 107.318 L 96.9745 128.426 M 96.9745 128.426 L 114.239 107.318 M 114.239 107.318 L 111.011 126.657 M 111.011 126.657 L 96.9745 128.426 M 96.9745 128.426 L 111.011 126.657 M 111.011 126.657 L 126.91 101.95 M 126.91 101.95 L 111.011 126.657 M 111.011 126.657 L 114.69 146.317 M 114.69 146.317 L 97.2361 143.58 M 97.2361 143.58 L 114.69 146.317 M 114.69 146.317 L 111.011 126.657 M 111.011 126.657 L 114.239 107.318 M 114.239 107.318 L 91.3643 120.736 M 91.3643 120.736 L 114.239 107.318 M 114.239 107.318 L 93.2406 105.112 M 93.2406 105.112 L 76.5503 104.382 M 76.5503 104.382 L 88.5804 120.143 M 88.5804 120.143 L 76.5503 104.382 M 76.5503 104.382 L 93.2406 105.112 M 93.2406 105.112 L 105.979 85.175 M 105.979 85.175 L 85.0063 96.8522 M 85.0063 96.8522 L 70.9185 92.3107 M 70.9185 92.3107 L 85.0063 96.8522 M 85.0063 96.8522 L 90.7371 76.5067 M 90.7371 76.5067 L 77.6997 80.5485 M 77.6997 80.5485 L 90.7371 76.5067 M 90.7371 76.5067 L 89.4077 63.7931 M 89.4077 63.7931 L 90.7371 76.5067 M 90.7371 76.5067 L 85.0063 96.8522 M 85.0063 96.8522 L 76.5503 104.382 M 76.5503 104.382 L 70.9185 92.3107 M 70.9185 92.3107 L 74.6401 82.301 M 74.6401 82.301 L 70.9185 92.3107 M 70.9185 92.3107 L 58.0989 89.5236 M 58.0989 89.5236 L 49.7121 85.827 M 49.7121 85.827 L 58.0989 89.5236 M 58.0989 89.5236 L 70.9185 92.3107 M 70.9185 92.3107 L 76.5503 104.382 M 76.5503 104.382 L 73.3044 123.407 M 73.3044 123.407 L 76.5503 104.382 M 76.5503 104.382 L 85.0063 96.8522 M 85.0063 96.8522 L 105.979 85.175 M 105.979 85.175 L 93.2406 105.112 M 93.2406 105.112 L 85.0063 96.8522 M 85.0063 96.8522 L 93.2406 105.112 M 93.2406 105.112 L 114.239 107.318 M 114.239 107.318 L 113.926 93.1179 M 113.926 93.1179 L 93.2406 105.112 M 93.2406 105.112 L 113.926 93.1179 M 113.926 93.1179 L 105.77 74.9555 M 105.979 85.175 L 90.7371 76.5067 M 90.7371 76.5067 L 105.979 85.175 M 89.4077 63.7931 L 77.6997 80.5485 M 77.6997 80.5485 L 78.4589 56.3221 M 78.4589 56.3221 L 77.6997 80.5485 M 77.6997 80.5485 L 89.4077 63.7931 M 74.6401 82.301 L 54.6015 79.8542 M 54.6015 79.8542 L 74.6401 82.301 M 70.9185 92.3107 L 54.6015 79.8542 M 54.6015 79.8542 L 70.9185 92.3107 M 58.0989 89.5236 L 54.6015 79.8542 M 54.6015 79.8542 L 58.0989 89.5236 M 49.7121 85.827 L 32.6936 98.8338 M 32.6936 98.8338 L 49.7121 85.827 M 49.7121 85.827 L 24.7445 84.4399 M 24.7445 84.4399 L 23.4517 74.1383 M 23.4517 74.1383 L 24.7445 84.4399 M 24.7445 84.4399 L 49.7121 85.827 M 49.7121 85.827 L 43.6472 99.4392 M 43.6472 99.4392 L 49.7121 85.827 M 49.7121 85.827 L 27.7888 91.9538 M 27.7888 91.9538 L 49.7121 85.827 M 36.2947 79.3928 L 24.7445 84.4399 M 24.7445 84.4399 L 36.2947 79.3928 M 27.7888 91.9538 L 32.6936 98.8338 M 32.6936 98.8338 L 27.7888 91.9538 M 42.4572 134.197 L 60.7433 138.659 M 60.7433 138.659 L 67.2886 159.779 M 67.2886 159.779 L 60.7433 138.659 M 60.7433 138.659 L 76.8613 142.817 M 76.8613 142.817 L 92.379 143.818 M 92.379 143.818 L 76.8613 142.817 M 76.8613 142.817 L 60.7433 138.659 M 60.7433 138.659 L 42.4572 134.197 M 45.7939 151.403 L 45.1537 167.333 M 45.1537 167.333 L 45.7939 151.403 M 45.7939 151.403 L 67.2886 159.779 M 67.2886 159.779 L 76.8613 142.817 M 76.8613 142.817 L 67.2886 159.779 M 67.2886 159.779 L 45.7939 151.403 M 45.7939 151.403 L 60.7433 138.659 M 60.7433 138.659 L 45.7939 151.403 M 32.4434 170.636 L 40.8246 178.632 M 40.8246 178.632 L 32.4434 170.636 M 40.8246 178.632 L 32.3012 184.752 M 32.3012 184.752 L 40.8246 178.632 M 40.8246 178.632 L 52.6583 179.705 M 52.6583 179.705 L 62.2725 183.567 M 62.2725 183.567 L 52.6583 179.705 M 52.6583 179.705 L 41.2689 190.407 M 41.2689 190.407 L 52.6583 179.705 M 52.6583 179.705 L 40.8246 178.632 M 40.8246 178.632 L 41.2689 190.407 M 41.2689 190.407 L 62.2725 183.567 M 62.2725 183.567 L 41.2689 190.407 M 41.2689 190.407 L 40.8246 178.632 M 32.3012 184.752 L 41.2689 190.407 M 41.2689 190.407 L 32.3012 184.752 M 41.2689 190.407 L 47.686 196.595 M 47.686 196.595 L 41.056 199.871 M 41.056 199.871 L 47.686 196.595 M 47.686 196.595 L 41.2689 190.407 M 41.056 199.871 L 60.8651 214.593 M 60.8651 214.593 L 41.056 199.871 M 41.056 199.871 L 47.9823 216.797 M 47.9823 216.797 L 52.3077 224.246 M 52.3077 224.246 L 47.9823 216.797 M 47.9823 216.797 L 41.056 199.871 M 41.056 199.871 L 34.7005 202.754 M 34.7005 202.754 L 34.1623 218.085 M 34.1623 218.085 L 34.7005 202.754 M 34.7005 202.754 L 38.7371 209.508 M 38.7371 209.508 L 34.7005 202.754 M 34.7005 202.754 L 41.056 199.871 M 41.056 199.871 L 38.7371 209.508 M 38.7371 209.508 L 41.056 199.871 M 47.9823 216.797 L 60.8651 214.593 M 60.8651 214.593 L 47.9823 216.797 M 52.3077 224.246 L 39.0657 221.452 M 39.0657 221.452 L 41.554 232.265 M 41.554 232.265 L 37.8984 249.665 M 37.8984 249.665 L 41.554 232.265 M 41.554 232.265 L 39.0657 221.452 M 39.0657 221.452 L 52.3077 224.246 M 41.554 232.265 L 30.005 242.151 M 30.005 242.151 L 41.554 232.265 M 41.554 232.265 L 34.2771 227.156 M 34.2771 227.156 L 41.554 232.265 M 34.2771 227.156 L 30.005 242.151 M 30.005 242.151 L 34.2771 227.156 M 30.005 242.151 L 37.8984 249.665 M 37.8984 249.665 L 21.6425 253.623 M 21.6425 253.623 L 23.56 245.393 M 23.56 245.393 L 21.6425 253.623 M 21.6425 253.623 L 27.6518 257.204 M 27.6518 257.204 L 21.6425 253.623 M 21.6425 253.623 L 37.8984 249.665 M 37.8984 249.665 L 23.56 245.393 M 23.56 245.393 L 9.6782 232.782 M 9.6782 232.782 L 23.56 245.393 M 23.56 245.393 L 37.8984 249.665 M 37.8984 249.665 L 30.005 242.151 M 23.56 245.393 L 8 242.7 M 8 242.7 L 23.56 245.393 M 62.2725 183.567 L 68.9729 162.946 M 68.9729 162.946 L 75.9976 172.614 M 75.9976 172.614 L 80.9447 154.548 M 80.9447 154.548 L 75.9976 172.614 M 75.9976 172.614 L 86.1207 170.392 M 86.1207 170.392 L 95.5078 158.062 M 95.5078 158.062 L 86.1207 170.392 M 86.1207 170.392 L 106.193 162.238 M 106.193 162.238 L 86.1207 170.392 M 86.1207 170.392 L 75.9976 172.614 M 75.9976 172.614 L 68.9729 162.946 M 68.9729 162.946 L 62.2725 183.567 M 75.9976 172.614 L 85.3278 180.789 M 85.3278 180.789 L 86.1207 170.392 M 86.1207 170.392 L 85.3278 180.789 M 85.3278 180.789 L 75.9976 172.614 M 86.1207 170.392 L 80.9447 154.548 M 80.9447 154.548 L 95.5078 158.062 M 95.5078 158.062 L 80.9447 154.548 M 80.9447 154.548 L 92.379 143.818 M 92.379 143.818 L 80.9447 154.548 M 80.9447 154.548 L 86.1207 170.392 M 96.4504 157.85 L 97.2361 143.58 M 97.2361 143.58 L 96.9745 128.426 M 96.9745 128.426 L 97.2361 143.58 M 97.2361 143.58 L 96.4504 157.85 M 97.2361 143.58 L 111.011 126.657 M 111.011 126.657 L 97.2361 143.58 M 92.379 143.818 L 96.9745 128.426 M 96.9745 128.426 L 91.3643 120.736 M 91.3643 120.736 L 96.9745 128.426 M 96.9745 128.426 L 92.379 143.818 M 92.379 143.818 L 79.6365 133.756 M 79.6365 133.756 L 92.379 143.818 M 76.8613 142.817 L 80.9447 154.548 M 80.9447 154.548 L 76.8613 142.817 M 76.8613 142.817 L 62.0667 129.663 M 62.0667 129.663 L 76.8613 142.817 M 111.011 126.657 L 133.362 109.559 M 133.362 109.559 L 111.011 126.657 M 219.098 81.3428 L 228.716 101.458 M 228.716 101.458 L 219.098 81.3428 M 228.244 80.5444 L 234.637 77.5773 M 234.637 77.5773 L 240.418 92.7862 M 240.418 92.7862 L 234.637 77.5773 M 234.637 77.5773 L 248.228 95.1071 M 248.228 95.1071 L 234.637 77.5773 M 234.637 77.5773 L 234.86 95.7208 M 234.86 95.7208 L 234.637 77.5773 M 234.637 77.5773 L 250.804 84.8947 M 250.804 84.8947 L 234.637 77.5773 M 234.637 77.5773 L 228.244 80.5444 M 228.244 80.5444 L 234.86 95.7208 M 234.86 95.7208 L 228.244 80.5444 M 249.513 142.998 L 270.317 154.33 M 270.317 154.33 L 249.513 142.998" />
  <path class="h" d=" M 55.9128 210.912 L 46.0082 203.552 M 46.0082 203.552 L 55.9128 210.912 M 49.0637 218.659 L 51.2263 222.383 M 51.2263 222.383 L 49.0637 218.659 M 39.3168 207.099 L 40.4762 202.281 M 40.4762 202.281 L 39.3168 207.099 M 55.0619 180.67 L 59.8689 182.601 M 59.8689 182.601 L 55.0619 180.67 M 61.9149 157.685 L 51.1676 153.497 M 51.1676 153.497 L 61.9149 157.685 M 73.1627 139.529 L 65.7654 132.952 M 65.7654 132.952 L 73.1627 139.529 M 82.8221 136.271 L 89.1934 141.302 M 89.1934 141.302 L 82.8221 136.271 M 101.6 144.264 L 110.327 145.632 M 110.327 145.632 L 101.6 144.264 M 96.4251 100.128 L 102.794 90.1592 M 102.794 90.1592 L 96.4251 100.128 M 102.168 83.0079 L 94.5475 78.6737 M 94.5475 78.6737 L 102.168 83.0079 M 107.809 79.4961 L 111.887 88.5773 M 111.887 88.5773 L 107.809 79.4961 M 77.8895 74.4919 L 78.2691 62.3787 M 78.2691 62.3787 L 77.8895 74.4919 M 69.6305 81.6893 L 59.6112 80.4659 M 59.6112 80.4659 L 69.6305 81.6893 M 56.0022 88.5995 L 51.8088 86.7512 M 51.8088 86.7512 L 56.0022 88.5995 M 48.1959 89.2301 L 45.1634 96.0361 M 45.1634 96.0361 L 48.1959 89.2301 M 45.4575 89.0787 L 36.9482 95.5821 M 36.9482 95.5821 L 45.4575 89.0787 M 33.4071 80.6546 L 27.6321 83.1781 M 27.6321 83.1781 L 33.4071 80.6546 M 29.015 93.6738 L 31.4674 97.1138 M 31.4674 97.1138 L 29.015 93.6738 M 159.555 90.0798 L 165.368 84.8944 M 165.368 84.8944 L 159.555 90.0798 M 166.206 78.3685 L 162.068 70.5021 M 162.068 70.5021 L 166.206 78.3685 M 175.125 90.8566 L 171.962 95.9434 M 171.962 95.9434 L 175.125 90.8566 M 190.054 98.3819 L 192.051 102.896 M 192.051 102.896 L 190.054 98.3819 M 212.384 114.403 L 217.755 112.49 M 217.755 112.49 L 212.384 114.403 M 233.541 114.575 L 235.089 102.88 M 235.089 102.88 L 233.541 114.575 M 238.651 111.998 L 236.792 102.021 M 236.792 102.021 L 238.651 111.998 M 233.206 91.9267 L 229.898 84.3385 M 229.898 84.3385 L 233.206 91.9267 M 220.181 134.736 L 224.102 136.355 M 224.102 136.355 L 220.181 134.736 M 227.881 145.915 L 222.897 150.82 M 222.897 150.82 L 227.881 145.915 M 232.283 144.805 L 236.1 147.492 M 236.1 147.492 L 232.283 144.805 M 235.422 149.603 L 230.248 151.137 M 230.248 151.137 L 235.422 149.603 M 251.114 144.894 L 254.315 148.686 M 254.315 148.686 L 251.114 144.894 M 254.714 145.831 L 265.116 151.497 M 265.116 151.497 L 254.714 145.831 M 166.155 59.9265 L 162.14 49.0921 M 162.14 49.0921 L 166.155 59.9265 M 181.328 46.2332 L 174.041 40.935 M 174.041 40.935 L 181.328 46.2332 M 177.304 34.9518 L 169.262 27.6572 M 169.262 27.6572 L 177.304 34.9518 M 34.3138 248.597 L 27.1446 246.461 M 27.1446 246.461 L 34.3138 248.597 M 19.67 244.72 L 11.89 243.373 M 11.89 243.373 L 19.67 244.72" />
  <path class="z" fill="none" d=" M 39.0657 221.452 L 47.9823 216.797 M 34.1623 218.085 L 29.1177 204.9 L 34.7005 202.754 L 38.2568 197.945 L 41.056 199.871 L 41.2689 190.407 L 32.0769 188.143 L 32.3012 184.752 L 32.4434 170.636 L 40.4059 172.161 L 40.8246 178.632 L 50.8333 173.193 L 52.6583 179.705 L 68.9729 162.946 L 80.9447 154.548 L 67.2886 159.779 L 45.1537 167.333 L 41.6391 161.556 L 45.7939 151.403 L 42.4572 134.197 L 55.2291 131.429 L 60.7433 138.659 L 62.0667 129.663 L 78.1222 133.424 L 76.8613 142.817 L 79.6365 133.756 L 96.9745 128.426 L 78.921 130.18 L 91.3643 120.736 L 93.2406 105.112 L 88.5804 120.143 L 73.3044 123.407 L 63.8329 109.908 L 76.5503 104.382 L 62.7435 105.669 L 70.9185 92.3107 L 59.0734 102.556 L 58.0989 89.5236 L 43.6472 99.4392 L 32.6936 98.8338 L 22.0067 94.8904 L 27.7888 91.9538 L 24.7445 84.4399 M 54.6015 79.8542 L 54.6295 69.4999 L 74.6401 82.301 L 85.0063 96.8522 L 77.6997 80.5485 L 59.9675 64.7414 L 78.4589 56.3221 L 89.4077 63.7931 L 103.57 74.7639 L 90.7371 76.5067 L 103.625 75.2281 L 105.979 85.175 L 105.77 74.9555 L 101.637 57.5244 L 110.188 52.3615 L 114.889 64.95 L 131.277 69.3777 L 122.728 85.1768 L 138.797 77.1466 L 149.501 73.2109 L 138.417 70.5275 L 137.2 53.5951 L 150.024 49.5776 L 147.416 39.9353 L 160.132 43.6749 L 165.242 24.0099 L 159.489 15.4006 M 181.324 38.5991 L 170.397 38.2859 L 180.901 41.3124 L 184.972 48.8823 L 177.337 56.2172 L 185.604 49.6029 L 185.904 58.7785 L 168.163 65.3437 L 159.999 66.5689 L 167.867 69.0691 L 177.814 86.3307 L 168.275 82.3016 L 176.706 88.3131 L 176.745 101.918 L 189.055 96.1248 L 200.258 79.6504 L 219.098 81.3428 L 228.244 80.5444 L 226.479 72.1331 M 248.228 95.1071 L 240.418 92.7862 L 234.86 95.7208 L 228.716 101.458 L 235.863 97.0325 L 241.859 95.15 L 239.581 116.987 L 232.767 120.423 L 220.44 111.534 L 230.997 122.466 L 220.859 127.241 L 226.063 137.165 L 230.374 143.462 L 249.691 133.027 L 253.568 140.193 M 242.115 152.025 L 249.513 142.998 L 238.009 148.836 L 230.801 169.946 L 220.423 153.369 L 227.661 151.904 L 220.404 153.273 L 218.22 133.926 L 214.372 127.383 L 209.698 115.36 L 204.437 110.903 L 209.429 98.2022 L 203.96 91.2189 L 205.656 99.9249 L 193.05 105.153 L 186.032 109.403 L 193.971 111.475 L 193.056 118.309 L 188.242 130.276 L 177.053 115.488 L 166.379 119.693 L 170.381 98.4869 L 156.648 92.6726 L 133.971 87.1812 L 126.403 93.6823 L 113.926 93.1179 L 125.048 98.8016 L 114.239 107.318 L 126.91 101.95 L 133.362 109.559 L 126.209 131.769 L 111.011 126.657 L 124.599 135.17 L 114.69 146.317 L 96.4504 157.85 L 92.3804 143.846 L 97.2361 143.58 L 92.379 143.818 L 95.5078 158.062 L 106.193 162.238 L 94.5515 176.672 L 86.1207 170.392 L 92.6141 178.66 L 85.3278 180.789 L 67.1584 187.787 L 75.9976 172.614 L 62.2725 183.567 L 47.686 196.595 L 60.8651 214.593 L 52.3077 224.246 L 41.554 232.265 L 48.0906 243.98 L 37.8984 249.665 M 8 242.7 L 9.6782 232.782 L 15.9615 228.784 L 23.56 245.393 L 30.005 242.151 L 22.8308 241.39 L 34.2771 227.156 L 39.0657 221.452" />
  <path class="z" d=" M 34.0055 202.059 L 35.3955 202.059 L 35.3955 203.449 L 34.0055 203.449 L 34.0055 202.059 M 40.5739 189.712 L 41.9639 189.712 L 41.9639 191.102 L 40.5739 191.102 L 40.5739 189.712 M 80.2497 153.853 L 81.6397 153.853 L 81.6397 155.243 L 80.2497 155.243 L 80.2497 153.853 M 60.0483 137.964 L 61.4383 137.964 L 61.4383 139.354 L 60.0483 139.354 L 60.0483 137.964 M 76.1663 142.122 L 77.5563 142.122 L 77.5563 143.512 L 76.1663 143.512 L 76.1663 142.122 M 96.2795 127.731 L 97.6695 127.731 L 97.6695 129.121 L 96.2795 129.121 L 96.2795 127.731 M 92.5456 104.417 L 93.9356 104.417 L 93.9356 105.807 L 92.5456 105.807 L 92.5456 104.417 M 75.8553 103.687 L 77.2453 103.687 L 77.2453 105.077 L 75.8553 105.077 L 75.8553 103.687 M 70.2235 91.6157 L 71.6135 91.6157 L 71.6135 93.0057 L 70.2235 93.0057 L 70.2235 91.6157 M 84.3113 96.1572 L 85.7013 96.1572 L 85.7013 97.5472 L 84.3113 97.5472 L 84.3113 96.1572 M 90.0421 75.8117 L 91.4321 75.8117 L 91.4321 77.2017 L 90.0421 77.2017 L 90.0421 75.8117 M 105.284 84.48 L 106.674 84.48 L 106.674 85.87 L 105.284 85.87 L 105.284 84.48 M 122.033 84.4818 L 123.423 84.4818 L 123.423 85.8718 L 122.033 85.8718 L 122.033 84.4818 M 148.806 72.5159 L 150.196 72.5159 L 150.196 73.9059 L 148.806 73.9059 L 148.806 72.5159 M 169.702 37.5909 L 171.092 37.5909 L 171.092 38.9809 L 169.702 38.9809 L 169.702 37.5909 M 176.642 55.5222 L 178.032 55.5222 L 178.032 56.9122 L 176.642 56.9122 L 176.642 55.5222 M 159.304 65.8739 L 160.694 65.8739 L 160.694 67.2639 L 159.304 67.2639 L 159.304 65.8739 M 167.58 81.6066 L 168.97 81.6066 L 168.97 82.9966 L 167.58 82.9966 L 167.58 81.6066 M 176.05 101.223 L 177.44 101.223 L 177.44 102.613 L 176.05 102.613 L 176.05 101.223 M 228.021 100.763 L 229.411 100.763 L 229.411 102.153 L 228.021 102.153 L 228.021 100.763 M 219.745 110.839 L 221.135 110.839 L 221.135 112.229 L 219.745 112.229 L 219.745 110.839 M 220.164 126.546 L 221.554 126.546 L 221.554 127.936 L 220.164 127.936 L 220.164 126.546 M 226.966 151.209 L 228.356 151.209 L 228.356 152.599 L 226.966 152.599 L 226.966 151.209 M 203.265 90.5239 L 204.655 90.5239 L 204.655 91.9139 L 203.265 91.9139 L 203.265 90.5239 M 185.337 108.708 L 186.727 108.708 L 186.727 110.098 L 185.337 110.098 L 185.337 108.708 M 113.231 92.4229 L 114.621 92.4229 L 114.621 93.8129 L 113.231 93.8129 L 113.231 92.4229 M 113.544 106.623 L 114.934 106.623 L 114.934 108.013 L 113.544 108.013 L 113.544 106.623 M 110.316 125.962 L 111.706 125.962 L 111.706 127.352 L 110.316 127.352 L 110.316 125.962 M 96.5411 142.885 L 97.9311 142.885 L 97.9311 144.275 L 96.5411 144.275 L 96.5411 142.885 M 85.4257 169.697 L 86.8157 169.697 L 86.8157 171.087 L 85.4257 171.087 L 85.4257 169.697 M 75.3026 171.919 L 76.6926 171.919 L 76.6926 173.309 L 75.3026 173.309 L 75.3026 171.919 M 40.859 231.57 L 42.249 231.57 L 42.249 232.96 L 40.859 232.96 L 40.859 231.57 M 29.31 241.456 L 30.7 241.456 L 30.7 242.846 L 29.31 242.846 L 29.31 241.456" />
  <path class="h" d=" M 45.671 214.975 L 41.0484 211.33 M 37.5934 211.652 L 35.306 215.941 M 35.3368 251.55 L 30.2135 255.319 M 28.4102 260.048 L 29.927 265.736 M 28.4246 264.84 L 23.9032 257.362 M 18.2319 250.892 L 11.4106 245.43 M 22.3216 84.2532 L 17.4759 83.8797 M 17.1527 81.3043 L 21.352 76.527 M 26.6624 75.4519 L 33.0839 78.0792 M 39.649 81.0013 L 46.3577 84.2185 M 50.9344 84.3338 L 53.3792 81.3474 M 160.037 13.5505 L 161.134 9.85016 M 166.561 10.4945 L 176.319 15.4836 M 180.485 20.5132 L 179.061 25.5833 M 179.093 30.7385 L 180.58 35.9789 M 228.519 73.4941 L 232.598 76.2162 M 237.062 77.2146 L 241.912 76.4893 M 245.954 78.3186 L 249.188 82.7027 M 250.16 87.4478 L 248.872 92.554 M 257.755 143.727 L 266.13 150.796 M 266.717 153.393 L 259.516 151.519 M 252.466 150.943 L 245.565 151.664" />
  <path class="h" d=" M 47.0578 216.068 L 46.5748 214.765 M 38.276 210.373 L 37.6854 209.114 M 36.5325 250.67 L 35.1691 250.94 M 27.9552 258.342 L 26.8418 257.51 M 28.0942 264.294 L 28.0076 262.907 M 17.7333 250.493 L 18.7793 249.578 M 16.0298 83.7683 L 16.8783 82.6673 M 16.1726 82.4193 L 17.5255 82.7382 M 26.5509 75.4063 L 26.2783 76.7693 M 41.55 81.9129 L 40.1755 82.1196 M 50.5583 84.7933 L 51.7358 85.532 M 161.303 9.28079 L 162.577 9.83758 M 165.075 9.73458 L 164.099 10.7244 M 179.802 22.9445 L 178.416 23.046 M 179.9 33.583 L 178.736 32.823 M 230.261 74.6567 L 229.81 75.9717 M 239.841 76.7991 L 240.959 77.6248 M 247.432 80.323 L 246.073 80.0314 M 249.49 90.1053 L 248.427 89.2091 M 245.445 151.677 L 246.035 150.418 M 261.557 152.05 L 260.445 151.215 M 267.405 151.873 L 266.16 151.255" />
</svg>
